<svg xmlns="http://www.w3.org/2000/svg" width="24" height="24" viewBox="0 0 24 24">
  <g fill="none" fill-rule="evenodd">
    <polygon points="0 0 24 0 24 24 0 24"/>
    <path fill="#000" fill-rule="nonzero" d="M12.0056075,0.5 C12.3838038,0.5 12.665797,0.557771222 13.2105662,0.715156898 L14.3181278,1.096884 L15.4217339,1.48698361 C16.5835123,1.90094882 17.8752306,2.37041003 18.8956953,2.75045984 L19.9049897,3.13144719 C21.38327,3.70722413 22,4.45738046 22,5.98570884 L22,14.164253 L21.9945419,14.5640357 C21.896394,18.0168771 20.4293347,19.4412619 13.9654278,23.1070545 L13.2259563,23.524093 C12.8313265,23.7401105 12.3942696,23.875 12.0056075,23.875 C11.6169453,23.875 11.1798885,23.7401105 10.7712373,23.5162709 L9.34431137,22.697269 L8.34253861,22.1085747 C3.24915677,19.0749167 2.08688182,17.6683727 2.00484212,14.5480546 L2,14.164253 L2,5.98570884 C2,4.52282913 2.58172,3.7462821 3.9067827,3.20487194 L4.64361341,2.92491085 L5.81642375,2.49498225 L10.8340469,0.704564112 C11.3000546,0.565698966 11.6238283,0.5 12.0056075,0.5 Z M12.0006568,18 C9.91902842,18 8.23923502,18.2985322 6.9590717,18.8786751 C7.89736162,19.5243419 9.12423435,20.2648727 10.7229044,21.1850523 L11.7455825,21.7697332 C11.8192371,21.8100512 11.8931054,21.8398837 11.9434212,21.8572987 L12.0056075,21.875 L12.0672047,21.8576252 L12.1880741,21.8090966 C12.2106147,21.7987119 12.2337172,21.7872539 12.2564279,21.7748349 L12.9429524,21.3880302 C14.7200768,20.3822237 16.0605911,19.5842341 17.0680909,18.8900463 C15.7844792,18.3025298 14.0961762,18 12.0006568,18 Z M12.0056075,2.5 C11.8930189,2.5 11.7648055,2.52144738 11.5932278,2.56645168 L11.4559803,2.60465478 L5.99906487,4.55691963 L4.6761338,5.04990949 L4.45806097,5.1397857 C4.07659601,5.31156775 4.00907358,5.45279654 4.00091927,5.87431105 L4.00091927,14.3119654 L4.0089792,14.6027055 C4.06038702,15.7674215 4.3488442,16.6094878 5.28645059,17.5430937 C5.35158453,17.4746532 5.42884118,17.4151319 5.51617691,17.3667535 C7.17571369,16.4474778 9.3382633,16 12.0006568,16 C14.6631468,16 16.8257573,16.4475103 18.4853178,17.3668539 C18.5767634,17.4175118 18.6571584,17.4803862 18.7255948,17.5523137 C19.7561774,16.5113676 20,15.5633428 20,14.164253 L20,5.98570884 C20,5.43867715 19.9576581,5.31879578 19.4368347,5.09863334 L19.1830584,4.99660065 L18.0736123,4.57848749 L16.2903986,3.92445343 C15.4562527,3.62181962 14.6023232,3.31612207 13.8713779,3.05884977 L12.6157676,2.62412818 L12.374194,2.55805031 C12.2040955,2.51494978 12.1032303,2.5 12.0056075,2.5 Z M12,6 C14.209139,6 16,7.790861 16,10 C16,12.209139 14.209139,14 12,14 C9.790861,14 8,12.209139 8,10 C8,7.790861 9.790861,6 12,6 Z M12,8 C10.8954305,8 10,8.8954305 10,10 C10,11.1045695 10.8954305,12 12,12 C13.1045695,12 14,11.1045695 14,10 C14,8.8954305 13.1045695,8 12,8 Z"/>
  </g>
</svg>
