<svg xmlns="http://www.w3.org/2000/svg" width="144" height="144" viewBox="0 0 144 144">
  <g fill="none" fill-rule="evenodd">
    <rect width="144" height="144"/>
    <path fill="#000" fill-rule="nonzero" d="M132,42 C135.077015,42 137.613043,44.3162411 137.959634,47.3002732 L138,48 L138,136.551472 C138,140.196551 135.045079,143.151472 131.4,143.151472 C129.899632,143.151472 128.451937,142.640599 127.289478,141.715183 L126.733095,141.218377 L105.514719,120 L48.0000938,120 C44.6863853,120 42.0000938,117.313708 42.0000938,114 C42.0000938,110.922985 44.3163349,108.386957 47.300367,108.040366 L48.0000938,108 L96.0002605,108 C112.132789,108 125.291169,95.2661597 125.972543,79.3013377 L126.000261,78 L126.000261,48 L126.040366,47.3002732 C126.386957,44.3162411 128.922985,42 132,42 Z M96,6 C105.941125,6 114,14.0588745 114,24 L114,78 C114,87.9411255 105.941125,96 96,96 L38.4852814,96 L17.2669048,117.218377 C14.6894444,119.795837 10.5105556,119.795837 7.93309524,117.218377 C6.69535515,115.980637 6,114.301901 6,112.551472 L6,24 C6,14.0588745 14.0588745,6 24,6 L96,6 Z"/>
  </g>
</svg>
