<svg xmlns="http://www.w3.org/2000/svg" width="24" height="24" viewBox="0 0 24 24">
  <g fill="none" fill-rule="evenodd">
    <polygon points="0 0 24 0 24 24 0 24"/>
    <path fill="#000" fill-rule="nonzero" d="M18,5 C19.6568542,5 21,6.34314575 21,8 L21,20 C21,21.6568542 19.6568542,23 18,23 L9,23 C7.34314575,23 6,21.6568542 6,20 L6,8 C6,6.34314575 7.34314575,5 9,5 L18,5 Z M18,7 L9,7 C8.44771525,7 8,7.44771525 8,8 L8,20 C8,20.5522847 8.44771525,21 9,21 L18,21 C18.5522847,21 19,20.5522847 19,20 L19,8 C19,7.44771525 18.5522847,7 18,7 Z M5,1 L15,1 C15.5522847,1 16,1.44771525 16,2 C16,2.51283584 15.6139598,2.93550716 15.1166211,2.99327227 L15,3 L5,3 C4.48716416,3 4.06449284,3.38604019 4.00672773,3.88337887 L4,4 L4,16 C4,16.5522847 3.55228475,17 3,17 C2.48716416,17 2.06449284,16.6139598 2.00672773,16.1166211 L2,16 L2,4 C2,2.40231912 3.24891996,1.09633912 4.82372721,1.00509269 L5,1 L15,1 L5,1 Z"/>
  </g>
</svg>
