<svg xmlns="http://www.w3.org/2000/svg" width="24" height="24" viewBox="0 0 24 24">
  <g fill="none" fill-rule="evenodd">
    <polygon points="0 0 24 0 24 24 0 24"/>
    <path fill="#000" fill-rule="nonzero" d="M12,2.5 C16.8112343,2.5 20.8327784,4.21646811 20.9949192,6.83516409 L21,7 L21,17 C21,19.7112674 16.9114683,21.5 12,21.5 C7.18876573,21.5 3.16722159,19.7835319 3.00508078,17.1648359 L3,17 L3,7 C3,4.28873261 7.08853168,2.5 12,2.5 Z M19,17 L19.0002624,14.9117775 C17.3403864,15.9168457 14.8043382,16.5 12,16.5 C9.19621557,16.5 6.66061519,15.917076 5.00072105,14.9123729 L5,17 C5,18.1547259 8.07491232,19.5 12,19.5 C15.8269605,19.5 18.845723,18.2211488 18.9942693,17.0869377 L19,17 L19.0002624,14.9117775 L19,17 Z M12,11.5 C9.19621557,11.5 6.66061519,10.917076 5.00072105,9.91237289 L5,12 C5,13.1547259 8.07491232,14.5 12,14.5 C15.8269605,14.5 18.845723,13.2211488 18.9942693,12.0869377 L19,12 L19.0002624,9.91177752 C17.3403864,10.9168457 14.8043382,11.5 12,11.5 Z M12,4.5 C8.07491232,4.5 5,5.84527414 5,7 C5,8.15472586 8.07491232,9.5 12,9.5 C15.9250877,9.5 19,8.15472586 19,7 C19,5.84527414 15.9250877,4.5 12,4.5 Z"/>
  </g>
</svg>
