<svg xmlns="http://www.w3.org/2000/svg" width="24" height="24" viewBox="0 0 24 24">
  <g fill="none" fill-rule="evenodd">
    <polygon points="0 0 24 0 24 24 0 24"/>
    <path fill="#000" fill-rule="nonzero" d="M12,1 C18.0751322,1 23,5.92486775 23,12 C23,18.0751322 18.0751322,23 12,23 C5.92486775,23 1,18.0751322 1,12 C1,5.92486775 5.92486775,1 12,1 Z M12,3 C7.02943725,3 3,7.02943725 3,12 C3,16.9705627 7.02943725,21 12,21 C16.9705627,21 21,16.9705627 21,12 C21,7.02943725 16.9705627,3 12,3 Z M12,11 C12.5128358,11 12.9355072,11.3860402 12.9932723,11.8833789 L13,12 L13,17 C13,17.5522847 12.5522847,18 12,18 C11.4871642,18 11.0644928,17.6139598 11.0067277,17.1166211 L11,17 L11,12 C11,11.4477153 11.4477153,11 12,11 Z M12,6.5 C12.8284271,6.5 13.5,7.17157288 13.5,8 C13.5,8.82842712 12.8284271,9.5 12,9.5 C11.1715729,9.5 10.5,8.82842712 10.5,8 C10.5,7.17157288 11.1715729,6.5 12,6.5 Z"/>
  </g>
</svg>
