<svg xmlns="http://www.w3.org/2000/svg" width="24" height="24" viewBox="0 0 24 24">
  <g fill="none" fill-rule="evenodd">
    <polygon points="0 0 24 0 24 24 0 24"/>
    <path fill="#000" fill-rule="nonzero" d="M7.23584729,12.5662193 L9.59157842,9.95106331 C10.1552393,9.38932119 10.4467339,8.55220389 10.3497484,7.70703944 L10.091414,5.46219074 C9.9242391,4.0550699 8.7398983,3 7.3255142,3 L5.78463506,3 C4.20042472,3 2.90721409,4.32400855 3.00518508,5.90554894 C3.50830004,14.0123888 9.98998589,20.491257 18.0941879,20.9948033 C19.6759108,21.0927867 21.0001332,19.7995671 21.0001332,18.2153552 L21.0001332,16.6744677 C21.013787,15.2731573 19.9556245,14.0848636 18.5502962,13.917893 L16.2834192,13.6590644 C15.4388246,13.562143 14.601708,13.8536405 14.0021558,14.453196 L11.4339669,16.7640867 C9.87568608,15.7549411 8.52871768,14.4473269 7.47401517,12.9220367 L7.23584729,12.5662193 Z M13.2949234,17.779617 L15.3784355,15.9034093 C15.5842713,15.6995067 15.8165698,15.6186166 16.0559758,15.6460896 L18.3188767,15.9044538 C18.7112475,15.951083 19.003823,16.2796389 19.0000842,16.6646639 L19,18.2153552 C19,18.6635336 18.6307181,19.0242061 18.218031,18.9986413 C16.4722141,18.8901667 14.8122275,18.4649122 13.2949234,17.779617 Z M6.220439,10.7056813 C5.53504105,9.18831553 5.10972952,7.52810348 5.00135169,5.7817795 C4.97579551,5.36922745 5.33643432,5 5.78463506,5 L7.3255142,5 C7.72533936,5 8.0576092,5.29600256 8.10495475,5.6944964 L8.36282472,7.93536896 C8.39026139,8.17446174 8.30937042,8.40676528 8.14147101,8.5746656 L6.220439,10.7056813 Z"/>
  </g>
</svg>
