<svg xmlns="http://www.w3.org/2000/svg" width="24" height="24" viewBox="0 0 24 24">
  <g fill="none" fill-rule="evenodd">
    <polygon points="0 0 24 0 24 24 0 24"/>
    <path fill="#000" fill-rule="nonzero" d="M18.1483713,2 L18.2928313,2.00686658 C19.0534832,2.07955132 19.6483713,2.72030388 19.6483713,3.5 C19.6483713,3.93788733 19.4570272,4.35391161 19.1245584,4.6388849 L16.9591265,6.49496934 L16.5350978,11.1592857 L19.5076921,14.5034542 C20.0580691,15.1226284 20.002298,16.070737 19.3831238,16.621114 C19.1085471,16.8651821 18.7539493,17 18.3865781,17 L12.9994219,17 L13,22 C13,22.5128358 12.6139598,22.9355072 12.1166211,22.9932723 L12,23 C11.4871642,23 11.0644928,22.6139598 11.0067277,22.1166211 L11,22 L10.9994219,17 L5.61342192,17 C4.7849948,17 4.11342192,16.3284271 4.11342192,15.5 C4.11342192,15.1326288 4.24823977,14.7780309 4.49230794,14.5034542 L7.46490224,11.1592857 L7.04087348,6.49496934 L4.87544164,4.6388849 C4.24645288,4.09975168 4.17361057,3.1528017 4.7127438,2.52381294 C4.9977171,2.19134409 5.41374137,2 5.8516287,2 L18.1483713,2 Z M16.7967426,4 L7.20325741,4 L8.34245623,4.97645613 C8.73788815,5.31539777 8.98550756,5.79522213 9.0326599,6.31389784 L9.45668865,10.9782142 C9.50671685,11.5285243 9.32683472,12.0750103 8.95972088,12.4880133 L6.72684384,15 L17.2731562,15 L15.0402791,12.4880133 C14.6731653,12.0750103 14.4932831,11.5285243 14.5433113,10.9782142 L14.9673401,6.31389784 C15.0144924,5.79522213 15.2621119,5.31539777 15.6575438,4.97645613 L16.7967426,4 Z"/>
  </g>
</svg>
