<svg xmlns="http://www.w3.org/2000/svg" width="19" height="14" viewBox="0 0 19 14">
  <g fill="none" fill-rule="evenodd">
    <polygon points="0 0 19 0 19 14 0 14"/>
    <path fill="#000" fill-rule="nonzero" d="M10,0.4 C13.6450793,0.4 16.6,3.35492065 16.6,7 C16.6,10.6450793 13.6450793,13.6 10,13.6 C6.35492065,13.6 3.4,10.6450793 3.4,7 C3.4,3.35492065 6.35492065,0.4 10,0.4 Z M10,1.6 C7.01766235,1.6 4.6,4.01766235 4.6,7 C4.6,9.98233765 7.01766235,12.4 10,12.4 C12.9823376,12.4 15.4,9.98233765 15.4,7 C15.4,4.01766235 12.9823376,1.6 10,1.6 Z M9.44596525,7.34011651 L9.42484493,7.30317254 L9.42484493,7.30317254 L9.37752037,7.18772859 L9.37752037,7.18772859 L9.35761522,7.09949427 L9.35190381,7.04986542 L9.35190381,7.04986542 L9.35,3.5 C9.35,3.14101491 9.64101491,2.85 10,2.85 C10.3263501,2.85 10.5965265,3.09050819 10.6429523,3.40394776 L10.65,3.5 L10.65,6.731 L12.4596194,8.54038059 C12.6880761,8.7688373 12.7109218,9.12504434 12.5281564,9.37905111 L12.4596194,9.45961941 C12.2311627,9.68807612 11.8749557,9.71092179 11.6209489,9.52815642 L11.5403806,9.45961941 L9.50840405,7.42526395 L9.50840405,7.42526395 L9.47557418,7.38417154 L9.47557418,7.38417154 L9.44596525,7.34011651 L9.44596525,7.34011651 Z"/>
  </g>
</svg>
