<svg xmlns="http://www.w3.org/2000/svg" width="24" height="24" viewBox="0 0 24 24">
  <g fill="none" fill-rule="evenodd">
    <polygon points="0 0 24 0 24 24 0 24"/>
    <path fill="#000" fill-rule="nonzero" d="M3.21893936,2.37537467 L3.30352462,2.28241931 C3.6693482,1.92735525 4.23692991,1.908094 4.62462533,2.21893936 L4.71758069,2.30352462 L21.2175807,19.3035246 C21.6022334,19.6998335 21.5927842,20.332928 21.1964754,20.7175807 C20.8306518,21.0726447 20.2630701,21.091906 19.8753747,20.7810606 L19.7824193,20.6964754 L16.1779815,16.9842082 L16.1166211,16.9932723 L16.1166211,16.9932723 L15.9999993,16.9999993 L12.9999993,16.9999993 L12.9999993,21.9999993 C12.9999993,22.5128358 12.6139598,22.9355072 12.1166211,22.9932723 L11.9999993,22.9999993 C11.4871642,22.9999993 11.0644928,22.6139598 11.0067277,22.1166211 L10.9999993,21.9999993 L10.9999993,16.9999993 L5.61342192,16.9999993 C4.7849948,16.9999993 4.11342192,16.3284271 4.11342192,15.4999993 C4.11342192,15.1851104 4.21247177,14.8796053 4.39447064,14.6258332 L4.49230794,14.5034542 L7.46490224,11.1592857 L7.1479993,7.6789993 L3.28241931,3.69647538 C2.92735525,3.3306518 2.908094,2.76307009 3.21893936,2.37537467 L3.30352462,2.28241931 L3.21893936,2.37537467 Z M9.3639993,9.9619993 L9.45668865,10.9782142 C9.50115816,11.4673788 9.36397013,11.9535217 9.07509911,12.3455797 L8.95972088,12.4880133 L6.727,14.999 L14.2529993,14.9999993 L9.3639993,9.9619993 Z M18.1483713,2 C18.9767984,2 19.6483713,2.67157288 19.6483713,3.5 C19.6483713,3.88923318 19.4971858,4.26119185 19.2300856,4.53918984 L19.1245584,4.6388849 L16.9591265,6.49496934 L16.631303,10.1010281 C16.5813015,10.6510448 16.0948907,11.0563871 15.544874,11.0063856 C15.0341443,10.9599556 14.6481592,10.537234 14.6356583,10.0367079 L14.6395166,9.91995665 L14.9673401,6.31389784 C15.0092533,5.85285277 15.2095602,5.42250506 15.5312799,5.0945146 L15.6575438,4.97645613 L16.7967426,4 L9,4 C8.44771525,4 8,3.55228475 8,3 C8,2.48716416 8.38604019,2.06449284 8.88337887,2.00672773 L9,2 L18.1483713,2 Z"/>
  </g>
</svg>
