<svg width="24" height="24" viewBox="0 0 24 24" fill="none" xmlns="http://www.w3.org/2000/svg">
    <path fill-rule="evenodd" clip-rule="evenodd" d="M7.19998 3.17004H7.16686H7.16685C6.63501 3.17003 6.18633 3.17002 5.8188 3.20005C5.43397 3.23149 5.06561 3.29995 4.71519 3.4785C4.18269 3.74982 3.74976 4.18275 3.47844 4.71525C3.29989 5.06567 3.23143 5.43403 3.19999 5.81886C3.16996 6.18639 3.16997 6.63508 3.16998 7.16691V7.16692V7.20005V9.00005C3.16998 9.45844 3.54159 9.83005 3.99998 9.83005C4.45838 9.83005 4.82998 9.45844 4.82998 9.00005V7.20005C4.82998 6.6263 4.83063 6.2459 4.85448 5.95404C4.87753 5.67186 4.91807 5.54628 4.95751 5.46888C5.06968 5.24873 5.24867 5.06974 5.46882 4.95757C5.54622 4.91813 5.6718 4.87759 5.95398 4.85454C6.24584 4.83069 6.62624 4.83005 7.19998 4.83005H8.99998C9.45838 4.83005 9.82998 4.45844 9.82998 4.00005C9.82998 3.54165 9.45838 3.17004 8.99998 3.17004H7.19998ZM16.8 3.17004H16.8331H16.8331C17.365 3.17003 17.8136 3.17002 18.1812 3.20005C18.566 3.23149 18.9344 3.29995 19.2848 3.4785C19.8173 3.74982 20.2502 4.18275 20.5215 4.71525C20.7001 5.06567 20.7685 5.43403 20.8 5.81886C20.83 6.1864 20.83 6.63508 20.83 7.16692V7.20005V9.00005C20.83 9.45844 20.4584 9.83005 20 9.83005C19.5416 9.83005 19.17 9.45844 19.17 9.00005V7.20005C19.17 6.6263 19.1693 6.2459 19.1455 5.95404C19.1224 5.67186 19.0819 5.54628 19.0425 5.46888C18.9303 5.24873 18.7513 5.06974 18.5312 4.95757C18.4538 4.91813 18.3282 4.87759 18.046 4.85454C17.7541 4.83069 17.3737 4.83005 16.8 4.83005H15C14.5416 4.83005 14.17 4.45844 14.17 4.00005C14.17 3.54165 14.5416 3.17004 15 3.17004H16.8ZM7.16686 20.83H7.19998H8.99998C9.45838 20.83 9.82998 20.4584 9.82998 20C9.82998 19.5416 9.45838 19.17 8.99998 19.17H7.19998C6.62624 19.17 6.24584 19.1694 5.95398 19.1456C5.6718 19.1225 5.54622 19.082 5.46882 19.0425C5.24867 18.9304 5.06968 18.7514 4.95751 18.5312C4.91807 18.4538 4.87753 18.3282 4.85448 18.0461C4.83063 17.7542 4.82998 17.3738 4.82998 16.8V15C4.82998 14.5416 4.45838 14.17 3.99998 14.17C3.54159 14.17 3.16998 14.5416 3.16998 15V16.8V16.8332V16.8332C3.16997 17.365 3.16996 17.8137 3.19999 18.1812C3.23143 18.5661 3.29989 18.9344 3.47844 19.2848C3.74976 19.8173 4.18269 20.2503 4.71519 20.5216C5.06561 20.7001 5.43397 20.7686 5.8188 20.8C6.18634 20.8301 6.63502 20.8301 7.16686 20.83ZM16.8 20.83H16.8331C17.3649 20.8301 17.8136 20.8301 18.1812 20.8C18.566 20.7686 18.9344 20.7001 19.2848 20.5216C19.8173 20.2503 20.2502 19.8173 20.5215 19.2848C20.7001 18.9344 20.7685 18.5661 20.8 18.1812C20.83 17.8137 20.83 17.365 20.83 16.8332V16.8V15C20.83 14.5416 20.4584 14.17 20 14.17C19.5416 14.17 19.17 14.5416 19.17 15V16.8C19.17 17.3738 19.1693 17.7542 19.1455 18.0461C19.1224 18.3282 19.0819 18.4538 19.0425 18.5312C18.9303 18.7514 18.7513 18.9304 18.5312 19.0425C18.4538 19.082 18.3282 19.1225 18.046 19.1456C17.7541 19.1694 17.3737 19.17 16.8 19.17H15C14.5416 19.17 14.17 19.5416 14.17 20C14.17 20.4584 14.5416 20.83 15 20.83H16.8Z" fill="white"/>
</svg>
