<svg width="24" height="24" viewBox="0 0 24 24" fill="none" xmlns="http://www.w3.org/2000/svg">
    <path fill-rule="evenodd" clip-rule="evenodd" d="M7.16686 3.17004H7.19998H16.8H16.8331H16.8331C17.365 3.17003 17.8136 3.17002 18.1812 3.20005C18.566 3.23149 18.9344 3.29995 19.2848 3.4785C19.8173 3.74982 20.2502 4.18275 20.5215 4.71525C20.7001 5.06567 20.7685 5.43403 20.8 5.81886C20.83 6.18641 20.83 6.63511 20.83 7.16696V7.20005V16.8V16.8331C20.83 17.0352 20.83 17.2253 20.8284 17.4035C20.8301 17.4947 20.83 17.5903 20.83 17.6925V17.6927V17.6928L20.83 17.7447V18H20.8121C20.8088 18.0625 20.8047 18.1229 20.8 18.1812C20.7685 18.5661 20.7001 18.9344 20.5215 19.2848C20.2502 19.8173 19.8173 20.2503 19.2848 20.5216C18.9344 20.7001 18.566 20.7686 18.1812 20.8C17.8136 20.8301 17.3649 20.8301 16.8331 20.83H16.8L15 20.83H13.4032H12.9385L7.19998 20.83H7.1669C6.63504 20.8301 6.18635 20.8301 5.8188 20.8C5.43397 20.7686 5.06561 20.7001 4.71519 20.5216C4.18269 20.2503 3.74976 19.8173 3.47844 19.2848C3.29989 18.9344 3.23143 18.5661 3.19999 18.1812C3.16996 17.8137 3.16997 17.365 3.16998 16.8332V16.8332V16.8V7.20005V7.16692V7.16691C3.16997 6.63508 3.16996 6.18639 3.19999 5.81886C3.23143 5.43403 3.29989 5.06567 3.47844 4.71525C3.74976 4.18275 4.18269 3.74982 4.71519 3.4785C5.06561 3.29995 5.43397 3.23149 5.8188 3.20005C6.18633 3.17002 6.63501 3.17003 7.16685 3.17004H7.16686ZM13.868 19.17H15L16.8 19.17C17.3737 19.17 17.7541 19.1694 18.046 19.1456C18.3282 19.1225 18.4538 19.082 18.5312 19.0425C18.7513 18.9304 18.9303 18.7514 19.0425 18.5312C19.0819 18.4538 19.1224 18.3282 19.1455 18.0461C19.1595 17.8742 19.1655 17.6717 19.1681 17.4172C19.166 17.3108 19.1619 17.261 19.1541 17.2141C19.14 17.1294 19.1166 17.0465 19.0844 16.9669C19.054 16.8919 19.01 16.8153 18.8206 16.5062L16.8386 13.2724C16.4917 12.7064 16.2608 12.3312 16.0653 12.0692C15.8688 11.8061 15.7821 11.7625 15.7661 11.7556C15.5963 11.6822 15.4037 11.6822 15.234 11.7556C15.2179 11.7625 15.1312 11.8061 14.9348 12.0692C14.7393 12.3312 14.5083 12.7064 14.1614 13.2724L12.2074 16.4606L13.868 19.17ZM11.2339 14.8722L12.7461 12.4049L12.7666 12.3715C13.0875 11.8479 13.3579 11.4066 13.6045 11.0763C13.8553 10.7403 14.1554 10.4136 14.5747 10.2321C15.1651 9.97665 15.8349 9.97665 16.4253 10.2321C16.8446 10.4136 17.1448 10.7403 17.3956 11.0763C17.6421 11.4066 17.9125 11.8478 18.2334 12.3715L18.2334 12.3715L18.2539 12.4049L19.17 13.8996V7.20005C19.17 6.6263 19.1693 6.2459 19.1455 5.95404C19.1224 5.67186 19.0819 5.54628 19.0425 5.46888C18.9303 5.24873 18.7513 5.06974 18.5312 4.95757C18.4538 4.91813 18.3282 4.87759 18.046 4.85454C17.7541 4.83069 17.3737 4.83005 16.8 4.83005H7.19998C6.62624 4.83005 6.24584 4.83069 5.95398 4.85454C5.6718 4.87759 5.54622 4.91813 5.46882 4.95757C5.24867 5.06974 5.06968 5.24873 4.95751 5.46888C4.91807 5.54628 4.87753 5.67186 4.85448 5.95404C4.83063 6.2459 4.82998 6.6263 4.82998 7.20005V16.3997L5.74612 14.9049L5.7666 14.8715C6.08753 14.3479 6.35794 13.9066 6.60445 13.5763C6.85526 13.2403 7.1554 12.9136 7.57473 12.7321C8.16514 12.4767 8.8349 12.4767 9.42531 12.7321C9.84464 12.9136 10.1448 13.2403 10.3956 13.5763C10.6421 13.9066 10.9125 14.3478 11.2334 14.8714L11.2334 14.8715L11.2339 14.8722ZM5.24716 18.8957L7.16144 15.7724C7.50832 15.2064 7.73927 14.8312 7.93477 14.5692C8.13121 14.3061 8.21794 14.2625 8.23395 14.2556C8.40373 14.1822 8.59632 14.1822 8.76609 14.2556C8.78211 14.2625 8.86884 14.3061 9.06527 14.5692C9.26078 14.8312 9.49173 15.2064 9.83861 15.7724L11.921 19.17H7.19998C6.62624 19.17 6.24584 19.1694 5.95398 19.1456C5.6718 19.1225 5.54622 19.082 5.46882 19.0425C5.38913 19.0019 5.31484 18.9526 5.24716 18.8957Z" fill="white"/>
</svg>
