<svg width="32" height="32" viewBox="0 0 32 32" fill="none" xmlns="http://www.w3.org/2000/svg">
<g clip-path="url(#clip0_227_253)">
<rect width="32" height="32" fill="#016FD0"/>
<path fill-rule="evenodd" clip-rule="evenodd" d="M12.21 5H17.2831L19.0649 8.98321V5H25.3283L26.4083 7.98423L27.4918 5H32.2742L32.2742 6.26337H28.4758L26.4312 11.8561L24.4002 6.27676L20.4535 6.26337V15.2556L16.4145 6.26477H13.1711L9.07687 15.3401H11.8849L12.6569 13.5227H16.842L17.614 15.3401H20.4915L20.4909 15.3387H22.9357V9.10448L25.2911 15.3387H27.5226L29.83 9.12563V15.3599L32.2742 15.3387L32.2742 15.3507L32.2742 16.6134H29.0673L26.4147 19.4918L23.7693 16.6134H20.4578V16.6127H12.6339V25.6958H20.4578V25.6958H23.6783L26.3431 22.7884L29.0351 25.6958H32.2742L32.2742 26.9908H28.3906L26.3266 24.749L24.277 27L11.2281 26.9725V16.6401H7L12.21 5ZM32.2742 25.5675L32.2742 23.7077L29.8415 21.1246L32.2742 18.5662L32.2742 16.6846L28.0375 21.1493L32.2742 25.5675ZM14.7502 8.59689L13.5227 11.4859H15.9769L14.7502 8.59689ZM20.4578 18.7051V16.6538L24.7475 21.1493L20.4578 25.6552V23.5787H15.1676V22.1836H20.3317V20.1257H15.1676V18.7051H20.4578Z" fill="white"/>
</g>
<defs>
<clipPath id="clip0_227_253">
<rect width="32" height="32" fill="white"/>
</clipPath>
</defs>
</svg>
