<svg width="32" height="32" viewBox="0 0 32 32" fill="none" xmlns="http://www.w3.org/2000/svg">
<path d="M0 16C0 12.2801 0 10.4202 0.40889 8.89417C1.5185 4.75307 4.75307 1.5185 8.89417 0.40889C10.4202 0 12.2801 0 16 0C19.7199 0 21.5798 0 23.1058 0.40889C27.2469 1.5185 30.4815 4.75307 31.5911 8.89417C32 10.4202 32 12.2801 32 16C32 19.7199 32 21.5798 31.5911 23.1058C30.4815 27.2469 27.2469 30.4815 23.1058 31.5911C21.5798 32 19.7199 32 16 32C12.2801 32 10.4202 32 8.89417 31.5911C4.75307 30.4815 1.5185 27.2469 0.40889 23.1058C0 21.5798 0 19.7199 0 16Z" fill="#8A8E92"/>
<rect x="6" y="8" width="20" height="16" rx="4" stroke="white" stroke-width="2"/>
<path d="M6 14H26" stroke="white" stroke-width="4"/>
</svg>
