<svg width="32" height="32" viewBox="0 0 32 32" fill="none" xmlns="http://www.w3.org/2000/svg">
<rect width="32" height="32" fill="#2C67A5"/>
<path fill-rule="evenodd" clip-rule="evenodd" d="M28 16.0781C28 20.988 23.2564 25.0239 18.0597 24.9999H13.5876C8.32866 25.0239 4 20.9891 4 16.0781C4 10.7103 8.32866 6.99846 13.5876 7H18.0597C23.2564 6.99846 28 10.7094 28 16.0781ZM14.9887 11.1098V20.859C16.9525 20.1059 18.3466 18.2098 18.35 15.9841C18.3466 13.7588 16.9525 11.8616 14.9887 11.1098ZM11.2427 11.11C9.27997 11.864 7.88805 13.7601 7.88364 15.9841C7.88805 18.2087 9.27997 20.1037 11.2427 20.857V11.11ZM4.86142 15.9841C4.86252 11.4333 8.55691 7.74563 13.116 7.74409C17.6767 7.74563 21.3717 11.4333 21.3724 15.9841C21.3717 20.5344 17.6767 24.2214 13.116 24.2227C8.55691 24.2214 4.86252 20.5344 4.86142 15.9841Z" fill="white"/>
</svg>
