<svg xmlns="http://www.w3.org/2000/svg" width="220" height="205" viewBox="0 0 220 205">
  <g fill="none" fill-rule="evenodd">
    <g transform="translate(70)">
      <path fill="#F5512A" d="M40,0 C62.09139,0 80,17.90861 80,40 C80,62.09139 62.09139,80 40,80 C17.90861,80 0,62.09139 0,40 C0,17.90861 17.90861,0 40,0 Z"/>
      <path fill="#FFF" d="M70.5,42.546875 C70.5,42.5625 70.671875,43.203125 70.65625,43.171875 C70.984375,44.484375 71.1875,45.59375 71.1875,45.578125 C71.34375,46.34375 71.453125,47.03125 71.453125,47.015625 C71.453125,47.03125 71.546875,47.609375 71.546875,47.578125 C71.625,48.15625 71.6875,48.546875 71.6875,48.53125 C71.828125,49.609375 71.859375,50.09375 71.859375,50.078125 C71.921875,50.734375 71.953125,51.296875 71.953125,51.28125 C71.953125,51.296875 71.984375,51.765625 71.984375,51.734375 C71.984375,51.75 72.015625,52.203125 72,52.171875 C72,52.1875 72.015625,52.734375 72.015625,52.703125 C72.0625,54.265625 72.125,56.390625 68.828125,59.734375 C68.859375,59.71875 68.625,59.96875 66.859375,61.5 C69.53125,67.234375 70.28125,94.578125 69.625,100 L10.21875,100 C9.546875,94.4375 10.359375,67.125 12.984375,61.484375 C12.96875,61.46875 12.0625,60.71875 12.078125,60.71875 C11.671875,60.359375 11.3125,60.015625 11.328125,60.03125 C9.5625,58.3125 7.8125,56.046875 7.8125,53.59375 C7.8125,53.578125 7.8125,53.1875 7.8125,53.21875 C7.8125,53.203125 7.828125,52.796875 7.828125,52.828125 C7.828125,52.8125 7.84375,52.390625 7.84375,52.421875 C7.84375,52.40625 7.875,51.859375 7.875,51.890625 C7.875,51.875 7.90625,51.421875 7.90625,51.453125 C7.90625,51.4375 7.953125,50.75 7.953125,50.765625 C7.953125,50.75 8,50.25 8,50.28125 C8,50.265625 8.046875,49.765625 8.046875,49.796875 C8.09375,49.390625 8.15625,48.890625 8.15625,48.90625 C8.15625,48.890625 8.234375,48.34375 8.21875,48.375 C8.328125,47.5625 8.453125,46.859375 8.453125,46.875 C8.453125,46.859375 8.609375,46.015625 8.609375,46.03125 C9.109375,43.34375 9.8125,41.078125 9.8125,41.09375 C9.890625,40.8125 9.90625,40.765625 10.015625,40.328125 C14.21875,25.46875 28.59375,7.96875 33.4375,9.0625 C34.6875,9.34375 35.921875,10.84375 37.046875,13.0625 C37.734375,14.46875 38.140625,15.5625 38.125,15.546875 C38.125,15.5625 38.328125,16.078125 38.3125,16.046875 C38.46875,16.453125 38.5625,16.75 38.71875,17.203125 C41.46875,17.171875 40.984375,17.203125 41.234375,17.203125 C41.78125,15.59375 42.15625,14.71875 42.140625,14.734375 C42.90625,12.875 44.53125,9.515625 46.5,9.0625 C51.5,7.9375 66.890625,26.671875 70.5,42.546875 Z"/>
      <path fill="#CABCB4" fill-rule="nonzero" d="M59.2926434,63.3919473 C59.9736396,63.0185439 60.8283993,63.2678972 61.2018027,63.9488934 C61.5752061,64.6298896 61.3258528,65.4846493 60.6448566,65.8580527 C58.3507142,67.1159753 55.7912541,68.2663326 53.2324626,69.2410655 L52.2734666,69.598225 C47.4838384,71.3415315 42.8134489,72.4375 40.015625,72.4375 C38.1441683,72.4375 35.43503,71.9520891 32.4112068,71.1133465 L31.4951424,70.8512558 C30.7247598,70.6242337 29.9379782,70.3759539 29.1429694,70.1084801 L28.1855327,69.7784305 C25.1444567,68.7049349 22.0317797,67.366198 19.2959061,65.8754611 C18.613925,65.5038597 18.3623125,64.6497623 18.7339139,63.9677811 C19.1055153,63.2858 19.9596127,63.0341875 20.6415939,63.4057889 C22.0014912,64.1467768 23.4631335,64.8489508 24.9610449,65.4963224 L25.8636202,65.8780411 L26.7717573,66.2458399 C26.9234024,66.305937 27.0751482,66.3654222 27.2269294,66.4242794 L28.1375163,66.7697592 C28.7441583,66.9948847 29.3492701,67.2094512 29.9486612,67.4124353 L30.8429335,67.7080968 C30.9910892,67.7558833 31.1387564,67.8029139 31.2858696,67.8491727 L32.1613776,68.1173349 C35.3433576,69.0656966 38.1938355,69.625 40.015625,69.625 C41.5815774,69.625 43.9102204,69.2065681 46.5553552,68.4800135 L47.400661,68.2404616 C47.8280537,68.1156931 48.2621658,67.9835324 48.701241,67.8444137 L49.5854881,67.5570275 C51.5134392,66.9148141 53.5125963,66.1473803 55.4400376,65.2900593 L56.3240132,64.8881188 C57.3481629,64.4120421 58.345144,63.9114796 59.2926434,63.3919473 Z"/>
      <path fill="#F23C57" d="M39.03125,47.40625 C40.1875,49.03125 42.3125,50.171875 44.8125,50.3125 L44.8125,50.625 L44.8125,50.625 L44.8125,51.015625 C44.8125,55.453125 43.5,59.046875 39.953125,59.046875 C36.453125,59.046875 35.125,55.515625 35.09375,51.140625 L35.09375,51 L35.09375,50.609375 C35.09375,50.40625 35.09375,50.203125 35.09375,50 C36.78125,49.546875 38.171875,48.625 39.03125,47.40625 Z"/>
      <path fill="#000" fill-rule="nonzero" d="M53.8914724,42.9728552 C54.6485967,43.1459122 55.1220768,43.8999731 54.9490198,44.6570974 C54.3579696,47.242942 52.8722042,49.495554 50.7598277,50.8918707 C47.0502556,53.3439608 42.4480695,52.4918943 39.5857001,49.2058582 C36.7238055,52.4918943 32.1216194,53.3439608 28.4120473,50.8918707 C26.2996708,49.495554 24.8139054,47.242942 24.2228552,44.6570974 C24.0497982,43.8999731 24.5232783,43.1459122 25.2804026,42.9728552 C26.0375269,42.7997982 26.7915878,43.2732783 26.9646448,44.0304026 C27.3993351,45.9321726 28.4738866,47.5613313 29.9629527,48.5456293 C32.6846402,50.3447108 36.1135382,49.496713 38.0273497,46.6224069 C37.9565522,46.0507844 38.2446589,45.4725174 38.7874298,45.1981276 C39.0438185,45.0685142 39.3211173,45.0248616 39.5865098,45.0563922 C39.8514517,45.024971 40.1283773,45.0686764 40.3844452,45.1981276 C40.9272161,45.4725174 41.2153228,46.0507844 41.1465093,46.6215818 C43.0583368,49.496713 46.4872348,50.3447108 49.2089223,48.5456293 C50.6979884,47.5613313 51.7725399,45.9321726 52.2072302,44.0304026 C52.3802872,43.2732783 53.1343481,42.7997982 53.8914724,42.9728552 Z"/>
      <path fill="#000" fill-rule="nonzero" d="M39.703125 47.453125C41.859375 47.453125 44.875 44.296875 44.875 41.625 44.875 38.953125 43 38.671875 39.625 38.671875 36.25 38.671875 34.375 38.953125 34.375 41.625 34.375 44.296875 37.546875 47.453125 39.703125 47.453125zM29.59375 32.125C27.4375 32.703125 26.234375 35.203125 26.515625 36.25 26.796875 37.296875 28.859375 38 31.015625 37.421875 33.171875 36.84375 34.578125 35.078125 34.328125 34.15625 34.078125 33.21875 31.75 31.546875 29.59375 32.125zM50.375 32.125C52.53125 32.703125 53.734375 35.203125 53.453125 36.25 53.171875 37.296875 51.109375 38 48.953125 37.421875 46.796875 36.84375 45.390625 35.078125 45.640625 34.15625 45.890625 33.234375 48.203125 31.546875 50.375 32.125z"/>
      <path fill="#CABCB4" fill-rule="nonzero" d="M31.6832277 14.0202248C32.7318539 13.935201 33.7209115 14.521273 34.7222442 15.551816L34.9101555 15.7501961C35.0413608 15.8883069 35.1705851 16.0336122 35.3060636 16.1948885L35.5877995 16.5413363 35.9008531 16.9459767C36.3707913 17.5643164 36.2504881 18.4465399 35.6321483 18.9164781 35.0138086 19.3864163 34.1315851 19.2661131 33.6616469 18.6477733L33.3978427 18.3064593C33.3569779 18.2546871 33.3174999 18.2052879 33.2791621 18.157986L33.0608449 17.8971366C32.991318 17.8171057 32.924379 17.7432587 32.8580549 17.6733903 32.5951656 17.3890406 32.350122 17.1651142 32.1396292 17.0116166L31.959597 16.8919453 31.928 16.873 31.8287444 16.9599068 31.7472367 17.0401667C31.4632925 17.331467 31.1330661 17.7864087 30.7839744 18.3797597 30.5528761 18.7649235 30.3156123 19.2291354 30.0434518 19.8214846 29.7192001 20.5272089 28.8842396 20.8364535 28.1785154 20.5122018 27.4727911 20.1879501 27.1635465 19.3529896 27.4877982 18.6472654 27.7474622 18.0821143 27.9861025 17.6056906 28.2235477 17.1874556L28.36603 16.9432529C29.4043261 15.1781496 30.4447187 14.1108038 31.6832277 14.0202248zM48.071372 14.0193745C49.3209063 14.1108038 50.3612989 15.1781496 51.3933494 16.9327403 51.6849074 17.4186703 51.96623 17.9690841 52.2778268 18.6472654 52.6020785 19.3529896 52.2928339 20.1879501 51.5871096 20.5122018 50.8813854 20.8364535 50.0464249 20.5272089 49.7221732 19.8214846 49.4500127 19.2291354 49.2127489 18.7649235 48.975405 18.3692471 48.6325589 17.7864087 48.3023325 17.331467 48.0183883 17.0401667 47.9616319 16.9819398 47.909491 16.9331363 47.863288 16.893859L47.837 16.873 47.7480117 16.9280496C47.5520074 17.0529754 47.3181114 17.2503311 47.0554825 17.5181632L46.7991646 17.7902145 46.5958693 18.0246925 46.3674781 18.3067838 46.1039781 18.6477733C45.6340399 19.2661131 44.7518164 19.3864163 44.1334767 18.9164781 43.5151369 18.4465399 43.3948337 17.5643164 43.8647719 16.9459767L44.1775214 16.5416609C44.2265284 16.4796659 44.2741546 16.4201767 44.3206667 16.3629088L44.5885081 16.0436814C44.6316324 15.9941608 44.6741767 15.9462925 44.716408 15.8997921L44.8424299 15.7641097C45.8578502 14.665798 46.8449546 14.010118 47.8772659 14.0113749L48.071372 14.0193745z"/>
      <path fill="#FFF" d="M30.037375 34.8813125C30.6475634 34.2711241 30.8454255 33.4796755 30.4793125 33.1135625 30.1131995 32.7474495 29.3217509 32.9453116 28.7115625 33.5555 28.1013741 34.1656884 27.903512 34.957137 28.269625 35.32325 28.635738 35.689363 29.4271866 35.4915009 30.037375 34.8813125zM48.7904531 35.0055625C49.514205 34.5356027 49.8723353 33.8025949 49.5903594 33.3683437 49.3083835 32.9340926 48.49308 32.9630402 47.7693281 33.433 47.0455762 33.9029598 46.687446 34.6359676 46.9694219 35.0702187 47.2513978 35.5044699 48.0667012 35.4755223 48.7904531 35.0055625z"/>
    </g>
    <g transform="translate(0 35)">
      <path fill="#F357BE" d="M50,0 C77.6142375,0 100,22.3857625 100,50 C100,77.6142375 77.6142375,100 50,100 C22.3857625,100 0,77.6142375 0,50 C0,22.3857625 22.3857625,0 50,0 Z"/>
      <path fill="#4CBFEA" fill-rule="nonzero" d="M55.6533148,15.2948944 C77.4423607,15.2948944 88.9668011,30.048376 89.9948159,46.3819424 C90.6154194,56.2423731 90.509416,68.8057875 88.9756106,81.3214675 C79.811728,92.7111984 65.7570594,100 50,100 C40.4816782,100 31.5845539,97.3403374 24.0112635,92.7236486 C21.7954091,80.8265628 20.9242207,68.0652488 20.9654634,57.0224932 L19.8555356,56.3828115 L17.9991946,55.3300118 L17.0818112,54.8051372 L16.1803911,54.278279 L15.6569514,53.9645275 L15.0158409,53.5695401 L14.2693716,53.0902473 L14.2693716,53.0902473 L13.9068336,52.8479698 L13.9068336,52.8479698 L13.6694944,52.6853433 C10.5291345,50.5107544 8.37044655,48.0815852 9.01338485,44.7752538 C10.1526384,38.9166044 14.5006711,37.5038632 20.7832331,37.9058269 L21.4400018,37.9537749 L21.4400018,37.9537749 L22.1102588,38.0140223 L22.1102588,38.0140223 L22.7936904,38.0859218 L22.7936904,38.0859218 C26.6471571,25.3738805 37.648708,15.2948944 55.6533148,15.2948944 Z"/>
      <path fill="#FFF" fill-rule="nonzero" d="M8.95524773,46.7015789 C13.7938317,46.7337691 18.6746116,47.6736524 23.2525795,48.9294959 L23.7695279,49.0729848 L24.4119056,49.2558516 L24.4119056,49.2558516 L25.5568668,49.5937008 L26.8106574,49.9799253 L26.8106574,49.9799253 L27.7986267,50.2951864 L27.7986267,50.2951864 L28.7722429,50.6143776 L29.2533903,50.7749698 L30.5054934,51.2007511 L30.5054934,51.2007511 L31.7281648,51.6258767 L33.4197163,52.2250852 L35.9776256,53.1404905 L36.8854871,53.4627966 L37.6525063,53.7317131 L38.3527968,53.9731609 L38.8638239,54.1460801 L39.6876129,54.4171929 L40.1646423,54.5687674 L40.6283705,54.7113908 L40.6283705,54.7113908 L41.2254637,54.8867392 L41.2254637,54.8867392 L41.514719,54.9677189 C42.1823177,55.151287 42.7983593,55.2967428 43.3577439,55.3953385 C47.9131896,56.198271 51.082537,55.289632 52.8657861,52.6694218 L52.9138196,55.9319877 L52.9345413,57.5361173 L52.9615046,59.9083706 L52.9897671,63.0080172 L53.0051971,65.2852341 L53.0156845,67.5217212 L53.0221844,71.1586889 L53.0174896,73.9868036 L53.0040127,76.7425096 L52.9817486,79.4258072 L52.9673211,80.7403026 L52.9268275,83.6317317 L52.8995257,85.1984826 L52.8622326,87.0412483 L52.789093,90.0220135 L52.738619,91.7561662 L52.6832021,93.4495891 L52.5812439,96.1477363 L52.4967477,98.0826226 L52.4058052,99.9431378 C51.6086153,99.9809034 50.8065378,100 50,100 C40.4816782,100 31.5845539,97.3403374 24.0112635,92.7236486 C21.7954364,80.8269624 20.9242202,68.0654217 20.9654634,57.0224932 L19.8555356,56.3828115 L17.9991946,55.3300118 L17.0818112,54.8051372 L16.5386225,54.4894044 L15.8444341,54.0777027 L15.2926665,53.7417264 L14.8595509,53.4711043 L14.4347303,53.1985321 L14.2256955,53.0614237 L13.9166609,52.8546317 L13.6133653,52.6463755 L13.3652609,52.4716219 L13.0254217,52.2249809 L12.6484205,51.9400422 L12.374127,51.7240269 L12.374127,51.7240269 L12.1074802,51.5058951 L11.8488377,51.2855239 L11.8488377,51.2855239 L11.5985572,51.0627912 C10.1773379,49.7688335 9.19274972,48.3504969 8.95524773,46.7015789 Z"/>
      <path fill="#000" fill-rule="nonzero" d="M62.722549,35.8468642 C68.4948736,37.2855008 72.0078303,43.1297459 70.5684701,48.9004362 C70.3170697,49.9087483 69.2957213,50.522229 68.2874324,50.2707355 C67.2791435,50.0192421 66.6656397,48.9979867 66.9171331,47.9896978 C67.8533701,44.236132 65.5681589,40.434396 61.8124842,39.4983691 C58.0565467,38.5622764 54.252804,40.8468979 53.3165016,44.600727 C53.0650081,45.6090159 52.043776,46.2224268 51.0354639,45.9710264 C50.0271519,45.7196259 49.4137641,44.6983008 49.6651646,43.6899888 C51.104459,37.9195613 56.9504875,34.4082928 62.722549,35.8468642 Z"/>
      <path fill="#1683AC" fill-rule="nonzero" d="M51.4388217 50.113143C52.4769371 50.160173 53.2803705 51.0398572 53.2333405 52.0779726 53.0375311 56.4001623 49.5133058 57.9808284 43.9816342 57.0058285 43.1700641 56.8627268 42.3094837 56.6623215 41.3408523 56.3929636L40.5931945 56.1778474 40.202439 56.060264 40.202439 56.060264 39.3836138 55.8043737 38.2397984 55.4292531 32.0171082 53.2691669C24.0841003 50.5368744 17.8196704 48.9076353 10.3206059 47.9889258 9.28913745 47.8625607 8.55540616 46.9239512 8.68177125 45.8924827 8.80813633 44.8610142 9.7467459 44.1272829 10.7782144 44.253648 18.2804535 45.1727464 24.5797428 46.7713568 32.3081472 49.3917196L39.2715665 51.8055089 40.1064131 52.0832992 40.1064131 52.0832992 40.888051 52.3332396 40.888051 52.3332396 41.6170372 52.5560946 42.2980192 52.7528831C42.7370387 52.8756131 43.1471538 52.9816447 43.5345615 53.0723367L44.0994169 53.1970396C44.2825416 53.2348855 44.4607641 53.2690664 44.6348588 53.2997519 48.1360445 53.916863 49.3408586 53.4356065 49.4660339 52.0271737L49.4739921 51.9076618C49.5210222 50.8695464 50.4007063 50.0661129 51.4388217 50.113143zM67.9973959 62.556967L68.1372151 62.6397703 77.1270919 68.4936436C77.6158992 68.8119367 77.9268816 69.3369298 77.9753175 69.9123553L77.9819542 70.0704225 77.9824863 91.4425243C76.2430827 92.6192917 74.4256393 93.6894322 72.5395391 94.6435632 62.3538304 90.9736401 57.284331 80.6673947 57.284331 64.2165493 57.284331 63.1773691 58.1267529 62.3347283 59.1659331 62.3347283 60.2051133 62.3347283 61.0475352 63.1773691 61.0475352 64.2165493 61.0475352 79.2696105 65.3549651 88.0766911 73.922948 91.1355308L74.218 91.238 74.218 71.09 66.0837356 65.7933283C65.2587378 65.2561204 64.994296 64.1816808 65.4508931 63.3296288L65.5336964 63.1898095C66.0709042 62.3648117 67.1453439 62.1003699 67.9973959 62.556967z"/>
      <path fill="#FFF" fill-rule="nonzero" d="M65.2983741,24.1333534 C64.3210241,23.7802494 63.8149728,22.7017034 64.1680768,21.7243534 C64.5211808,20.7470035 65.5997268,20.2409521 66.5770768,20.5940561 C67.9338722,21.0842489 69.2871837,21.7096918 70.6151456,22.4606432 C73.5017448,24.0929913 76.2294336,26.2951107 78.6196891,28.9497584 C81.0099445,31.604406 82.9148795,34.5473365 84.2365534,37.5887493 C84.8445812,38.9879321 85.3251383,40.3992065 85.6708221,41.7998086 C85.919831,42.8087139 85.3038132,43.8284548 84.2949078,44.0774637 C83.2860025,44.3264725 82.2662616,43.7104547 82.0172527,42.7015494 C81.7227788,41.5084342 81.3102483,40.2969364 80.7851496,39.0885885 C79.6268967,36.4232372 77.9440387,33.8233931 75.8230833,31.4678335 C73.7021278,29.1122738 71.2924327,27.1668772 68.7627527,25.736364 C67.6159119,25.0878351 66.4541721,24.5509284 65.2983741,24.1333534 Z"/>
    </g>
    <g transform="translate(120 35)">
      <path fill="#FFDC4E" d="M50,0 C77.6142375,0 100,22.3857625 100,50 C100,77.6142375 77.6142375,100 50,100 C22.3857625,100 0,77.6142375 0,50 C0,22.3857625 22.3857625,0 50,0 Z"/>
      <path fill="#00622A" fill-rule="nonzero" d="M62.2599384,22.0396242 L47.9689733,25.3319934 C48.095577,25.4814852 48.2229698,25.6326057 48.351152,25.7853548 L48.7380665,26.2484887 C48.8029468,26.3264922 48.8680246,26.4049027 48.9332996,26.4837205 L35.843515,29.4992639 C36.4576928,30.1990351 37.0922294,30.9408187 37.747125,31.7246148 L38.1425055,32.1999339 L38.1425055,32.1999339 L16.6749252,37.1460788 L16.8245312,36.5336068 C19.2684138,26.6251883 21.7278981,21.3858483 24.2029836,20.8155867 C25.2302723,20.5788988 26.6084571,21.066316 28.3375382,22.277838 L28.5176604,22.4057509 C28.6688053,22.5144975 28.8225579,22.6286253 28.9789183,22.7481345 L29.1678023,22.8941285 C29.1994918,22.9188912 29.2312854,22.9438694 29.2631832,22.9690628 L29.4558226,23.1228057 L29.4558226,23.1228057 L29.6509653,23.2817148 C29.6836977,23.3086302 29.7165343,23.3357606 29.7494754,23.3631066 L29.8539014,23.0596515 L29.8539014,23.0596515 L29.9583462,22.7618363 L29.9583462,22.7618363 L30.0628097,22.469661 L30.0628097,22.469661 L30.167292,22.1831259 L30.167292,22.1831259 L30.271793,21.902231 C30.2892115,21.855885 30.3066306,21.8097743 30.3240505,21.7638984 L30.4285797,21.4914634 L30.4285797,21.4914634 L30.5331277,21.2246682 L30.5331277,21.2246682 L30.6376943,20.9635133 C30.672553,20.8774016 30.7074148,20.79223 30.7422797,20.7079982 L30.8468838,20.4581234 C30.8643195,20.4169476 30.8817558,20.3760066 30.899193,20.3353008 L31.0038253,20.093886 L31.0038253,20.093886 L31.1084764,19.8581109 C31.1259199,19.8192852 31.1433639,19.7806943 31.160809,19.7423386 L31.2654881,19.5150237 C31.2829363,19.4776078 31.3003852,19.440427 31.3178349,19.4034812 L31.4225423,19.1846264 L31.4225423,19.1846264 L31.5272684,18.9714115 C31.5447244,18.9363457 31.5621811,18.9015149 31.5796386,18.8669191 L31.6843928,18.6621643 C32.7844119,16.541849 33.8875365,15.3542521 34.9937778,15.0993733 C35.7973635,14.9142267 36.815662,15.1721588 38.0486735,15.8731698 L38.2039181,15.9631039 L38.2039181,15.9631039 L38.3613996,16.0576534 C38.4671326,16.1222248 38.5743567,16.1898732 38.6830719,16.2605985 L38.8472632,16.3689942 L38.8472632,16.3689942 L39.0136908,16.4820053 C39.041615,16.5012251 39.0696326,16.5206372 39.0977433,16.5402416 L39.2675259,16.6601758 C39.2960094,16.6805495 39.324586,16.7011154 39.3532559,16.7218737 L39.5263934,16.848731 L39.5263934,16.848731 L39.7017674,16.9802037 C39.7900136,17.0470939 39.8790986,17.1157149 39.9690222,17.1860666 L40.1499877,17.3290779 C40.2106823,17.3775175 40.2717497,17.4267264 40.3331899,17.4767045 L40.5186287,17.6289465 C40.5497214,17.6547048 40.5809074,17.6806554 40.6121867,17.7067983 L40.8009803,17.8659634 L40.8009803,17.8659634 L40.9920105,18.029744 L40.9920105,18.029744 L41.1852774,18.1981399 L41.1852774,18.1981399 L41.3807807,18.3711512 C41.4135511,18.4003711 41.4464144,18.4297832 41.4793712,18.4593877 L41.6782294,18.6393221 L41.6782294,18.6393221 L41.8793244,18.823872 C41.9467287,18.8861578 42.0145058,18.9492129 42.0826558,19.0130372 L42.2882238,19.2068179 C42.3226715,19.2394993 42.3572125,19.272373 42.3918466,19.305439 L42.6007696,19.5061428 L42.6007696,19.5061428 L42.811929,19.711462 L42.811929,19.711462 L42.9215963,19.3778347 L42.9215963,19.3778347 L43.0312838,19.0504318 C43.0495669,18.9963834 43.0678507,18.9425943 43.0861353,18.8890646 L43.1958536,18.5709984 L43.1958536,18.5709984 L43.305592,18.2591566 L43.305592,18.2591566 L43.4153511,17.9535393 L43.4153511,17.9535393 L43.5251304,17.6541465 L43.5251304,17.6541465 L43.6349302,17.3609782 C43.6898353,17.2159501 43.7447478,17.0732563 43.7996682,16.9328966 L43.9095191,16.6552896 C43.9827598,16.4722931 44.0560142,16.2934463 44.1292821,16.1187491 L44.2391943,15.8598158 C44.4956803,15.2628999 44.7523333,14.7168181 45.009154,14.2215711 L45.1192304,14.0124347 L45.1192304,14.0124347 L45.2293271,13.8095231 C46.2569938,11.9447295 47.2873462,10.8932973 48.3204168,10.6552771 C50.3661509,10.1839387 53.8034136,12.5841411 58.6322053,17.8558843 L58.9924388,18.2516358 C60.0203109,19.3878125 61.1094776,20.6504752 62.2599384,22.0396242 Z"/>
      <path fill="#00BD51" fill-rule="nonzero" d="M92.6075489,47.9303431 L92.5170398,48.8893567 L92.5170398,48.8893567 L92.4135504,49.8468372 C90.6495134,65.1499154 83.5868224,79.5514323 56.1421483,78.0345329 L56.1407332,99.6266674 C54.1283387,99.8731153 52.0789871,100 50,100 C30.431856,100 13.4891888,88.7589973 5.27717707,72.3821704 C8.89457776,68.8338755 13.009485,66.3706366 17.0100546,65.1685649 C12.6062134,60.404722 11.2665269,54.5816836 11.2665269,47.9299618 C11.2665269,33.1667864 17.8657768,22.4861505 49.9146784,18.4037259 C83.8148665,14.0854824 94.1091741,30.8370766 92.6075489,47.9303431 Z"/>
      <path fill="#00622A" fill-rule="nonzero" d="M67.6226133 37.0507544C69.4242008 37.6019211 72.3998669 37.458255 72.6934727 36.4972446 72.9870786 35.5362341 70.6867618 33.5034768 68.8851743 32.9523099 67.0835867 32.4011431 66.462953 33.5402825 66.1693474 34.501293 65.8757415 35.4623033 65.8210259 36.4995875 67.6226133 37.0507544zM82.4156678 37.0507544C80.6140803 37.6019211 77.6384142 37.458255 77.3448084 36.4972446 77.0512025 35.5362341 79.3515193 33.5034768 81.1531068 32.9523099 82.7616671 32.4601967 83.4287783 33.3155852 83.7622477 34.1885603L83.8361857 34.3977311 83.8361857 34.3977311 83.8994037 34.6045246 83.8994037 34.6045246 83.9530906 34.8121242C84.1529547 35.6789981 84.024228 36.5586411 82.4156678 37.0507544z"/>
      <path fill="#000" fill-rule="nonzero" d="M28.4407455,42.2369967 C28.4396665,46.631177 31.7507263,50.1925082 35.8362624,50.1914991 L36.3063074,50.1850099 L36.3063074,50.1850099 L36.7898265,50.1655567 L36.7898265,50.1655567 L37.2844358,50.1327857 C37.450889,50.119603 37.6187934,50.1041417 37.7877516,50.0863429 L38.2973902,50.0258747 C41.9667625,49.5414165 45.9396092,47.9491628 46.2675511,44.6631719 C46.6717583,40.6129969 39.9259156,34.2776622 35.8403793,34.2787177 C31.7548433,34.2797737 28.4419402,37.8428164 28.4407455,42.2369967 Z"/>
      <path fill="#FFF" fill-rule="nonzero" d="M32.9756457,45.0754798 C34.0724752,45.3489501 36.3071654,44.4033117 36.8410837,42.2618826 C37.3750018,40.1204538 36.005964,37.5941499 34.9091345,37.3206796 C33.8123051,37.0472093 32.4903229,38.5614891 31.9564047,40.7029179 C31.4224865,42.844347 31.8788162,44.8020095 32.9756457,45.0754798 Z"/>
      <path fill="#00622A" fill-rule="nonzero" d="M49.4673075,50.8100037 C50.5809935,50.4619768 51.765946,51.0826662 52.1139729,52.1963523 L52.4544467,53.2690342 L52.7784267,54.2529328 L52.9863468,54.861321 L53.1885814,55.4329197 L53.3857884,55.968797 L53.5786259,56.4700208 L53.7677519,56.937659 L53.9538243,57.3727796 C53.9846185,57.4426492 54.0153128,57.5112084 54.0459211,57.5784795 L54.228647,57.9668261 L54.4099645,58.3253248 L54.5905314,58.6550438 C55.4625181,60.1808549 56.3312641,60.7355959 57.5311066,60.8618951 C57.5812721,60.8671757 57.6571321,60.8262644 57.761211,60.7274072 L57.857391,60.6282074 L57.9677458,60.498981 L58.0926285,60.338083 L58.2323924,60.1438687 L58.3873908,59.914693 L58.6492258,59.5017787 L58.8438559,59.1780033 L59.1667943,58.615479 L59.403264,58.1868231 L60.1311642,56.8206665 L60.416226,56.2961729 L60.6766222,55.8315509 L60.9188147,55.4172488 L61.1492651,55.0437152 L61.3744352,54.7013984 C61.4493298,54.5914343 61.5244214,54.4850811 61.6007868,54.3807469 L61.8347817,54.072209 C61.8747768,54.0212649 61.9153596,53.9704275 61.9566647,53.9194979 C63.0873864,52.5253066 64.4041588,51.7045483 66.0279757,51.7163273 C67.735565,51.728714 69.0925752,52.5877861 70.1686645,54.0341258 C70.4060863,54.3532373 70.6135151,54.6660433 70.8185139,55.0184259 L71.0237236,55.3857 C71.0925374,55.513655 71.1621021,55.6477068 71.2334384,55.7895546 L71.4537835,56.2401855 L71.6908838,56.7477889 L72.3887897,58.3025948 L72.5967083,58.7507514 L72.7897952,59.1517163 L72.9688389,59.5075779 L73.1346276,59.8204247 L73.2879497,60.0923449 L73.4295937,60.325427 C73.4522717,60.3611536 73.4744959,60.3953488 73.4962828,60.4280564 L73.6218877,60.6067969 L73.7377853,60.7519202 C73.9232967,60.9669381 74.071646,61.0505856 74.1992577,61.0463703 C74.4438273,61.0382917 74.7298191,60.8358129 75.0847777,60.3682621 L75.253602,60.1333904 C75.282589,60.0910224 75.3120092,60.0470216 75.3418751,60.0013558 L75.5265189,59.7071239 C75.5582177,59.6546696 75.5903873,59.6004859 75.6230402,59.5445407 L75.8248576,59.1874747 C75.8594939,59.1243549 75.8946386,59.0594093 75.9303042,58.9926058 L76.1506492,58.5692314 L76.3840981,58.0997215 L77.1047455,56.5713365 L77.3949992,55.9681017 C77.4425802,55.8711821 77.4897972,55.7760621 77.5367003,55.6827264 L77.8147522,55.1440024 C79.0984831,52.7287417 80.2145444,51.6884935 82.2612086,51.6884935 C85.2083429,51.6884935 86.9807123,53.8294308 88.5942946,57.7042404 L88.8547252,58.3477219 L89.0811874,58.944876 L90.2388423,62.1095317 C90.2492787,62.1367707 90.2582623,62.1598305 90.265664,62.1783348 C90.6990022,63.2616802 90.1720672,64.4911953 89.0887218,64.9245334 C88.0053763,65.3578716 86.7758613,64.8309366 86.3425231,63.7475912 L86.2067899,63.3904615 L85.0900387,60.3349931 L84.9232804,59.8960573 C83.9404852,57.4005999 83.024863,56.1059217 82.4001157,55.9336996 L82.374,55.927 L82.3027416,55.9967685 L82.2108221,56.0997894 L82.1328764,56.1965256 C82.0818185,56.2624256 82.0303123,56.333349 81.9777916,56.410237 L81.8166196,56.6597369 C81.7615037,56.749496 81.704807,56.8461612 81.6459633,56.9506741 L81.4624254,57.2886973 L81.2626086,57.6794554 L80.7495931,58.7504931 L80.4561596,59.377995 L80.1518831,60.0154525 C78.400877,63.6168842 77.0360896,65.1803203 74.338754,65.2694191 C72.6330194,65.3257632 71.2695164,64.4967157 70.1979968,63.0665821 C69.8479239,62.5993474 69.5643326,62.1447036 69.2546654,61.5487832 L69.0433418,61.1288845 C69.0071388,61.0548503 68.9703599,60.9786497 68.9328782,60.9000718 L68.6985385,60.3983876 L67.9962811,58.8341147 L67.6771258,58.1539132 L67.4821023,57.7597133 L67.3001898,57.4105264 L67.1304573,57.1042943 L66.9719736,56.8389588 C66.9464453,56.7980299 66.9213469,56.7587193 66.896659,56.7209841 L66.7533027,56.5131343 C66.7301792,56.4815291 66.7074275,56.4514136 66.685028,56.4227447 L66.554704,56.2677498 C66.3440262,56.0372165 66.1646997,55.9427824 65.9973262,55.9415682 C65.8805153,55.9407209 65.7316931,56.0243055 65.5412842,56.2169999 L65.4080789,56.3618981 C65.3382906,56.4427002 65.2636452,56.536235 65.1837879,56.6434164 L65.0170192,56.8762455 L64.8357219,57.1470906 L64.6392654,57.4575765 L64.4270193,57.809328 L64.1983531,58.2039702 L63.9526364,58.6431278 L63.0662673,60.2993375 L62.7713718,60.8377714 C62.6774459,61.0063871 62.5875048,61.1646927 62.5003856,61.3143448 L62.2463305,61.738997 C61.9157765,62.2750034 61.611764,62.6990586 61.2598596,63.1171837 C60.110548,64.4827707 58.7416275,65.2380151 57.0887765,65.0640308 C53.9174243,64.7302043 52.088119,63.3174654 50.4179976,59.8015579 L50.1745886,59.2719022 C50.053315,58.9994487 49.9325847,58.7154674 49.8119344,58.419557 L49.5706031,57.811712 L49.3286611,57.1713429 L49.0852847,56.4977364 C49.0445567,56.3826592 49.0037345,56.2661675 48.9628012,56.1482462 L48.7157285,55.423446 L48.4651619,54.663625 L48.0809589,53.4566692 C47.732932,52.3429831 48.3536214,51.1580306 49.4673075,50.8100037 Z"/>
      <ellipse cx="37.323" cy="56.547" fill="#008539" fill-rule="nonzero" opacity=".396" rx="8.967" ry="5.166"/>
      <path fill="#00A747" fill-rule="nonzero" d="M24.1867465,68.1468011 C25.7758932,65.0279252 29.5924996,63.7878346 32.7113756,65.3769813 C38.6404929,68.3980175 44.9242764,70.1918886 51.1465725,70.7065435 C54.6350564,70.9950809 57.2291256,74.0569618 56.9405882,77.5454457 C56.6520507,81.0339297 53.5901699,83.6279989 50.1016859,83.3394615 C42.2321747,82.688563 34.3491806,80.4381552 26.9565664,76.6714302 C23.8376905,75.0822835 22.5975999,71.2656771 24.1867465,68.1468011 Z"/>
      <path fill="#00BD51" fill-rule="nonzero" d="M64.0029082,94.5137353 C64.9452429,93.5714006 64.9452429,92.0435743 64.0029082,91.1012396 L63.3968673,90.4955351 L64.3637908,90.4954719 C65.676563,90.4954719 66.7444848,89.4471437 66.7760706,88.1419731 L66.7767893,88.0824729 C66.7767893,86.769701 65.7284616,85.7017791 64.423291,85.6701934 L64.3637908,85.6694741 L63.0393624,85.6696092 L64.0029082,84.7062251 C64.9297947,83.7793386 64.9449897,82.2859994 64.0484928,81.3405405 L64.0029082,81.2937294 C63.0760216,80.3668427 61.5826825,80.351648 60.6372238,81.2481448 L60.5904125,81.2937294 L55.7876407,86.0965012 C55.2908175,86.5933242 55.0559324,87.2528947 55.0829852,87.9036035 C55.0558854,88.554438 55.2907678,89.2140906 55.7876407,89.7109635 L60.5904125,94.5137353 C61.5327472,95.45607 63.0605735,95.45607 64.0029082,94.5137353 Z"/>
    </g>
    <g transform="translate(50 85)">
      <path fill="#1B99FF" d="M60,0 C93.137085,0 120,26.862915 120,60 C120,93.137085 93.137085,120 60,120 C26.862915,120 0,93.137085 0,60 C0,26.862915 26.862915,0 60,0 Z"/>
      <path fill="#1C455C" fill-rule="nonzero" d="M59.1549296,5.05391725 C70.8976122,5.05391725 86.6194298,18.8632472 93.7051495,35.0385544 L94.2200071,36.2329295 C94.3051473,36.4336053 94.3899516,36.6350672 94.4744178,36.8372846 L94.9771429,38.0594085 C95.5588858,39.4952227 96.1238691,40.9650448 96.6714041,42.4583429 L97.1364307,43.7438164 L97.1364307,43.7438164 L97.5928148,45.0393145 L97.5928148,45.0393145 L98.0404601,46.3433635 L98.0404601,46.3433635 L98.4792702,47.6544896 L98.4792702,47.6544896 L98.9091487,48.9712189 L98.9091487,48.9712189 L99.5370089,50.9535949 L99.5370089,50.9535949 L99.9441368,52.2778843 L99.9441368,52.2778843 L100.341996,53.6026185 C100.407528,53.8233628 100.47267,54.0440641 100.537419,54.2646919 L100.921194,55.5873301 L100.921194,55.5873301 L101.29546,56.9067286 L101.29546,56.9067286 L101.660119,58.2214135 L101.660119,58.2214135 L102.015075,59.5299112 L102.015075,59.5299112 L102.360233,60.8307477 L102.360233,60.8307477 L102.695495,62.1224493 L102.695495,62.1224493 L103.020766,63.4035421 L103.020766,63.4035421 L103.335948,64.6725523 L103.335948,64.6725523 L103.789596,66.5501887 L103.789596,66.5501887 L104.079137,67.7825445 L104.079137,67.7825445 L104.358252,68.9976593 L104.358252,68.9976593 L104.757167,70.7847807 L104.757167,70.7847807 L105.132083,72.5248198 L105.132083,72.5248198 L105.482675,74.2128023 L105.482675,74.2128023 L105.808616,75.8437541 L105.808616,75.8437541 L106.012056,76.8969153 L106.012056,76.8969153 L106.296193,78.4217625 L106.296193,78.4217625 L106.471461,79.3995815 L106.471461,79.3995815 L106.635292,80.3446844 L106.635292,80.3446844 L106.859383,81.6977723 L106.859383,81.6977723 L106.994199,82.5546371 L106.994199,82.5546371 L107.117241,83.3736276 L107.117241,83.3736276 L107.228412,84.1532698 L107.228412,84.1532698 L107.327615,84.89209 L107.327615,84.89209 L107.414755,85.5886143 L107.414755,85.5886143 L107.489735,86.2413689 L107.489735,86.2413689 L107.552459,86.8488799 C107.561886,86.9462796 107.570798,87.0417327 107.579194,87.1352086 L107.623352,87.672091 L107.623352,87.672091 L107.655013,88.1600454 L107.655013,88.1600454 L107.674081,88.5975979 L107.674081,88.5975979 L107.680458,88.9832746 L107.680458,88.9832746 C107.680458,91.5155313 105.841706,94.1815694 102.836963,96.7823599 L102.438483,97.121207 L102.438483,97.121207 L102.165646,97.3466455 C101.476473,97.9097518 100.734501,98.4690929 99.94664,99.0226244 L99.629065,99.2437223 L99.3066933,99.4641713 L98.4804251,100.012264 L98.4804251,100.012264 L98.1420403,100.230214 C98.8239556,101.692929 99.4215501,103.210529 99.9375807,104.776433 C89.3304338,114.245339 75.3372534,120 60,120 C43.9449331,120 29.3626937,113.694075 18.5949393,103.423883 C18.9354357,102.496195 19.3048658,101.588465 19.7047821,100.700379 L19.0627285,100.27219 L19.0627285,100.27219 L18.5927685,99.9481008 C13.7890259,96.5863705 10.6294014,92.8307994 10.6294014,88.9832746 L10.6309847,88.7704006 L10.6309847,88.7704006 L10.6436139,88.3076717 L10.6436139,88.3076717 L10.6687768,87.7968107 L10.6687768,87.7968107 L10.7063738,87.2392285 C10.7136707,87.142483 10.7214814,87.0438496 10.7298041,86.9433577 L10.7858658,86.3183388 L10.7858658,86.3183388 L10.8927746,85.3002619 L10.8927746,85.3002619 L11.0267642,84.1897592 L11.0267642,84.1897592 L11.1309697,83.4004277 L11.1309697,83.4004277 L11.2469621,82.5735451 L11.2469621,82.5735451 L11.4428338,81.2658987 L11.4428338,81.2658987 L11.5878583,80.3513103 L11.5878583,80.3513103 L11.8268113,78.9187184 L11.8268113,78.9187184 L12.0911651,77.4175077 L12.0911651,77.4175077 L12.2813465,76.3809303 L12.2813465,76.3809303 L12.4825684,75.3173826 L12.4825684,75.3173826 L12.804884,73.6745779 L12.804884,73.6745779 L13.1514803,71.9790257 L13.1514803,71.9790257 L13.3958679,70.8217047 L13.3958679,70.8217047 L13.650798,69.6444674 L13.650798,69.6444674 L14.0527427,67.8443543 L14.0527427,67.8443543 L14.3335937,66.6234982 L14.3335937,66.6234982 L14.6246387,65.3876636 L14.6246387,65.3876636 L14.9257782,64.1382611 L14.9257782,64.1382611 L15.2369127,62.8767015 L15.2369127,62.8767015 L15.5579426,61.6043957 L15.5579426,61.6043957 L15.8887683,60.3227544 L15.8887683,60.3227544 L16.2292904,59.0331885 L16.2292904,59.0331885 L16.5794091,57.7371086 L16.5794091,57.7371086 L16.9390251,56.4359256 C16.9997469,56.2187149 17.0608604,56.0013504 17.1223633,55.7838613 L17.4960383,54.4776689 L17.4960383,54.4776689 L17.8789616,53.1699003 C17.9435473,52.9518859 18.0085142,52.7338646 18.0738602,52.5158658 L18.4704692,51.2083782 L18.4704692,51.2083782 L18.8760775,49.9028414 L18.8760775,49.9028414 L19.2905857,48.6006662 L19.2905857,48.6006662 L19.7138941,47.3032634 C19.8564525,46.8717479 20.0004611,46.441263 20.1459032,46.0120437 L20.5865134,44.728418 L20.5865134,44.728418 L21.0356252,43.453797 L21.0356252,43.453797 L21.493139,42.1895915 L21.493139,42.1895915 L21.9589552,40.9372123 C22.1155999,40.5218804 22.2736118,40.1087547 22.4329743,39.6980703 L22.9150967,38.473576 C23.4012377,37.256876 23.8993842,36.064264 24.4090884,34.9020885 C31.487838,18.7618455 47.4122469,5.05391725 59.1549296,5.05391725 Z"/>
      <path fill="#122F3E" fill-rule="nonzero" d="M59.2322723,62.5712213 C63.2856174,62.5712213 66.000233,62.0169194 68.2523547,61.3702866 L68.5787337,61.2750517 L68.8991198,61.1788207 L69.2141233,61.0819147 L69.5243544,60.9846559 L69.9820878,60.8388095 L70.8776989,60.5512489 L71.3196957,60.4117066 L71.6136076,60.3209851 C71.662585,60.306041 71.7115671,60.2911895 71.7605665,60.2764372 L72.0548716,60.189168 L72.3502016,60.1046024 C73.9291144,59.6613663 75.5778004,59.347208 77.71286,59.3817681 C88.1093376,59.5500556 89.2468383,82.7938839 89.1707669,93.5501555 C89.1120158,101.857394 67.0774648,109.284771 59.1549296,109.284771 C51.2323944,109.284771 27.9599472,101.857394 27.9599472,93.1921215 L27.9613413,92.4314853 L27.9644036,91.8737002 L27.9698258,91.2778275 L27.9781685,90.6459826 C28.1296761,80.800905 29.482171,59.2737676 40.8329409,59.2737676 C42.2609487,59.2737676 43.5218796,59.4966756 44.7798403,59.8265791 L45.0701608,59.9045574 L45.3608243,59.9860176 L45.6522783,60.0706434 L45.9449716,60.1581184 L46.3873152,60.2939799 L47.137099,60.5301767 L48.0661653,60.8236237 L48.5462246,60.9719497 L48.8730418,61.0707018 L49.2058039,61.1689791 C49.2617846,61.1853016 49.3180316,61.201591 49.3745542,61.2178409 L49.7170741,61.3148122 C49.774737,61.3308776 49.8326943,61.3468901 49.8909554,61.3628431 L50.2442413,61.4577964 C52.5652609,62.0696786 55.3766512,62.5712213 59.2322723,62.5712213 Z"/>
      <path fill="#FFF" fill-rule="nonzero" d="M40.8329409,59.2737676 C42.2609487,59.2737676 43.5218796,59.4966756 44.7798403,59.8265791 L45.0701608,59.9045574 L45.0701608,59.9045574 L45.3608243,59.9860176 L45.3608243,59.9860176 L45.6522783,60.0706434 L45.6522783,60.0706434 L45.9449716,60.1581184 L45.9449716,60.1581184 L46.3873152,60.2939799 L46.3873152,60.2939799 L47.137099,60.5301767 L47.137099,60.5301767 L48.0661653,60.8236237 L48.0661653,60.8236237 L48.5462246,60.9719497 L48.5462246,60.9719497 L48.8730418,61.0707018 L48.8730418,61.0707018 L49.2058039,61.1689791 C49.2617846,61.1853016 49.3180316,61.201591 49.3745542,61.2178409 L49.7170741,61.3148122 C49.774737,61.3308776 49.8326943,61.3468901 49.8909554,61.3628431 L50.2442413,61.4577964 C52.5652609,62.0696786 55.3766512,62.5712213 59.2322723,62.5712213 C63.2856174,62.5712213 66.000233,62.0169194 68.2523547,61.3702866 L68.5787337,61.2750517 L68.5787337,61.2750517 L68.8991198,61.1788207 L68.8991198,61.1788207 L69.2141233,61.0819147 L69.2141233,61.0819147 L69.5243544,60.9846559 L69.5243544,60.9846559 L69.9820878,60.8388095 L69.9820878,60.8388095 L70.8776989,60.5512489 L70.8776989,60.5512489 L71.3196957,60.4117066 L71.3196957,60.4117066 L71.6136076,60.3209851 C71.662585,60.306041 71.7115671,60.2911895 71.7605665,60.2764372 L72.0548716,60.189168 L72.0548716,60.189168 L72.3502016,60.1046024 C73.9291144,59.6613663 75.5778004,59.347208 77.71286,59.3817681 C80.0417298,59.4194655 81.9059977,60.6150597 83.3960963,62.5688116 L83.3832158,63.1967404 L83.3832158,63.1967404 L83.3615041,64.123806 L83.3615041,64.123806 L83.3454357,64.7319646 L83.3454357,64.7319646 L83.328092,65.3322154 L83.328092,65.3322154 L83.2996855,66.2177642 L83.2996855,66.2177642 L83.2684096,67.085521 L83.2684096,67.085521 L83.2342639,67.9354853 L83.2342639,67.9354853 L83.1972489,68.767658 L83.1972489,68.767658 L83.1709777,69.3125553 L83.1709777,69.3125553 L83.1434313,69.8495455 L83.1434313,69.8495455 L83.1146094,70.3786282 L83.1146094,70.3786282 L83.0845119,70.8998038 L83.0845119,70.8998038 L83.0531389,71.4130724 L83.0531389,71.4130724 L83.0204907,71.9184339 L83.0204907,71.9184339 L82.9865666,72.4158884 L82.9865666,72.4158884 L82.9513668,72.9054362 L82.9513668,72.9054362 L82.9148915,73.3870771 L82.9148915,73.3870771 L82.8771406,73.860811 L82.8771406,73.860811 L82.8381139,74.3266385 L82.8381139,74.3266385 L82.7978117,74.7845593 L82.7978117,74.7845593 L82.7562335,75.2345736 L82.7562335,75.2345736 L82.7133798,75.6766816 L82.7133798,75.6766816 L82.6692503,76.110883 L82.6692503,76.110883 L82.6238447,76.5371783 L82.6238447,76.5371783 L82.5771634,76.9555674 L82.5771634,76.9555674 L82.5292063,77.36605 L82.5292063,77.36605 L82.4799735,77.768627 C82.4716615,77.8350641 82.4632965,77.901172 82.4548786,77.9669506 L82.4037317,78.3576682 C82.3951008,78.4221292 82.3864168,78.4862604 82.3776797,78.5500625 L82.324619,78.9289214 L82.324619,78.9289214 L82.270282,79.2998745 L82.270282,79.2998745 L82.2146693,79.662922 L82.2146693,79.662922 L82.1577806,80.0180637 L82.1577806,80.0180637 L82.0996155,80.3653 L82.0996155,80.3653 L82.0401745,80.7046309 C82.0301614,80.7605271 82.0200951,80.816094 82.0099755,80.8713317 L81.9486202,81.1988042 L81.9486202,81.1988042 L81.8859888,81.5183716 L81.8859888,81.5183716 L81.8220812,81.8300337 C81.8113236,81.8813187 81.8005128,81.9322743 81.7896491,81.9829005 L81.7238272,82.2827048 C81.7016738,82.3813221 81.6793077,82.4786219 81.656729,82.5746042 L81.5883545,82.8585986 C81.5768525,82.9052723 81.5652972,82.9516164 81.5536887,82.9976314 L81.4833998,83.2697683 C81.4124728,83.537953 81.3396312,83.7942805 81.2648749,84.0387511 L81.1894806,84.2792694 L81.1894806,84.2792694 C76.789618,97.9688938 69.465259,101.857394 59.2787192,101.857394 C49.0921794,101.857394 41.8301363,97.9688938 37.4302737,84.2792694 L37.3525326,84.0311192 C37.3396864,83.9890605 37.3268955,83.9466514 37.31416,83.9038922 L37.2384109,83.6431339 C37.2258968,83.5989739 37.2134379,83.5544634 37.2010344,83.5096027 L37.1272771,83.2362364 C37.1150947,83.1899747 37.102968,83.143363 37.0908963,83.0964009 L37.019131,82.8104264 L37.019131,82.8104264 L36.9486935,82.5160463 L36.9486935,82.5160463 L36.8795837,82.2132606 C36.8453611,82.0597664 36.8116361,81.9031203 36.7784092,81.743322 L36.7126195,81.4195228 L36.7126195,81.4195228 L36.6481575,81.0873181 L36.6481575,81.0873181 L36.5850236,80.746708 L36.5850236,80.746708 L36.5232174,80.3976923 L36.5232174,80.3976923 L36.4627393,80.0402711 L36.4627393,80.0402711 L36.4035891,79.6744446 L36.4035891,79.6744446 L36.3457668,79.3002125 C36.3362404,79.2371399 36.3267693,79.1737173 36.3173536,79.1099444 L36.261523,78.7231043 L36.261523,78.7231043 L36.2070204,78.3278584 C36.1980474,78.2612836 36.1891296,78.1943588 36.1802672,78.1270836 L36.1277564,77.7192297 L36.1277564,77.7192297 L36.0765736,77.3029703 L36.0765736,77.3029703 L36.0267188,76.8783056 C36.0185202,76.8068275 36.0103771,76.7349993 36.0022894,76.6628211 L35.9544264,76.2255481 C35.9465599,76.1519688 35.9387487,76.0780392 35.9309928,76.0037595 L35.8851216,75.5538783 L35.8851216,75.5538783 L35.8405784,75.0955916 L35.8405784,75.0955916 L35.7973632,74.6288993 C35.7902713,74.5504169 35.7832348,74.4715842 35.7762536,74.3924012 L35.7350299,73.913101 L35.7350299,73.913101 L35.6951345,73.4253951 L35.6951345,73.4253951 L35.6565668,72.9292838 L35.6565668,72.9292838 L35.6012054,72.1693567 L35.6012054,72.1693567 L35.5659576,71.6522317 L35.5659576,71.6522317 L35.5320375,71.1267013 L35.5320375,71.1267013 L35.4994456,70.5927652 L35.4994456,70.5927652 L35.4681813,70.0504241 L35.4681813,70.0504241 L35.4382453,69.4996772 L35.4382453,69.4996772 L35.409637,68.940525 L35.409637,68.940525 L35.3823565,68.3729672 L35.3823565,68.3729672 L35.343926,67.5058702 L35.343926,67.5058702 L35.3199653,66.9172989 L35.3199653,66.9172989 L35.2865144,66.0186816 L35.2865144,66.0186816 L35.256051,65.101152 L35.256051,65.101152 L35.2285756,64.1647098 L35.2285756,64.1647098 L35.2040881,63.2093558 L35.2040881,63.2093558 L35.1894227,62.561946 L35.1894227,62.561946 L35.1760856,61.9061309 C35.1739733,61.796128 35.1719164,61.6857748 35.169915,61.5750712 C36.7069987,60.1282227 38.5715441,59.2737676 40.8329409,59.2737676 Z"/>
      <path fill="#193748" fill-rule="nonzero" d="M59.1549296,95.915493 C66.2651096,95.915493 72.0290493,88.7356954 72.0290493,84.5268486 C72.0290493,77.4166686 66.2651096,76.1091549 59.1549296,76.1091549 C52.0447496,76.1091549 46.2808099,77.4166686 46.2808099,84.5268486 C46.2808099,88.7356954 52.0447496,95.915493 59.1549296,95.915493 Z"/>
      <path fill="#51729A" fill-rule="nonzero" d="M54.0591811 84.3143541L53.9908588 84.1164509C53.6244646 82.9416524 52.375081 82.2863113 51.2002825 82.6527056 50.025484 83.0190998 49.3701429 84.2684834 49.7365371 85.4432818 50.4886768 87.8549259 52.6723028 90.4858548 55.3293395 91.9430872 56.4083266 92.5348498 57.7627369 92.1398763 58.3544995 91.0608892 58.9462621 89.981902 58.5512886 88.6274917 57.4723015 88.0357291 55.8995578 87.1731693 54.5388743 85.5853754 54.0591811 84.3143541zM64.6132375 83.9827557L64.7313061 84.0861651C65.6262282 84.9308607 67.036467 84.890144 67.8811626 83.9952219 68.7258582 83.1002997 68.6851415 81.6900609 67.7902194 80.8453654 66.8440288 79.9522787 65.4434975 79.2060999 63.8609734 78.7336215 62.6817984 78.3815669 61.4404915 79.0520806 61.088437 80.2312556 60.7363824 81.4104307 61.4068961 82.6517376 62.5860711 83.0037921 63.4559597 83.2635061 64.1883569 83.6351921 64.6132375 83.9827557z"/>
      <path fill="#122F3E" fill-rule="nonzero" d="M89.7157075,104.03354 C90.7944617,103.441353 92.1490273,103.835793 92.7412145,104.914547 C93.3334018,105.993301 92.9389613,107.347867 91.8602072,107.940054 C89.438897,109.269244 86.8296456,110.522532 84.1576509,111.668014 L83.0090339,112.152242 C82.8170791,112.231815 82.6248955,112.310815 82.4325287,112.389231 L81.2764937,112.85261 L80.1182509,113.301394 C79.7320454,113.448494 79.3458369,113.593068 78.9599905,113.735024 L77.8039024,114.152941 C75.4953585,114.972691 73.212989,115.694819 71.0356355,116.299233 L69.9560751,116.591537 C69.5993821,116.68564 69.2459712,116.776381 68.8962075,116.863665 L67.8582225,117.115057 L66.8443104,117.345156 C63.8408734,118.002954 61.1919849,118.365758 59.1637357,118.365758 C55.7833942,118.365758 50.6633589,117.359124 45.0443323,115.660161 L43.9142413,115.311231 C43.7249065,115.251568 43.5351091,115.19116 43.3448952,115.130017 L42.1989803,114.754441 C42.0072838,114.690408 41.8152627,114.625663 41.6229629,114.560219 L40.4661868,114.159255 L39.304927,113.742064 L38.1413893,113.309204 C34.0675941,111.767429 29.9924707,109.948016 26.3415801,107.958773 C25.260967,107.369984 24.8622644,106.016667 25.4510527,104.936054 C26.0398411,103.855441 27.3931583,103.456739 28.4737713,104.045527 C29.9753589,104.86369 31.5553791,105.652169 33.1786271,106.402344 L34.2668102,106.89669 C34.6314151,107.059518 34.9977683,107.220359 35.3654836,107.379119 L36.4723292,107.849063 C36.6573557,107.926315 36.8426261,108.003023 37.0280921,108.079176 L38.1428497,108.529327 C38.8870714,108.824856 39.6328779,109.111116 40.3771784,109.387349 L41.4921135,109.794083 L42.6024716,110.18521 L43.7059349,110.560161 C44.8051781,110.926835 45.8906019,111.268394 46.9517753,111.582284 L48.0044789,111.886855 C48.352428,111.985241 48.6972963,112.080459 49.0386975,112.172412 L50.0521131,112.438388 L51.0424077,112.684213 C51.3683949,112.762734 51.6901422,112.837801 52.0072633,112.909321 L52.9443619,113.113144 L53.8513854,113.295114 C55.9308832,113.693774 57.7458377,113.909332 59.1637357,113.909332 C61.1878056,113.909332 64.0150208,113.469159 67.2618239,112.683285 L68.2480689,112.437246 L69.2571879,112.171032 L70.2868794,111.885209 C70.633283,111.78673 70.9827317,111.685077 71.3348422,111.580345 L72.3987748,111.257006 C73.2914003,110.980016 74.1982638,110.684373 75.1133723,110.371551 L76.2150765,109.988014 C76.3992257,109.922748 76.5836087,109.856819 76.7681777,109.790238 L77.8774397,109.383028 C78.0625608,109.313887 78.2477719,109.244119 78.4330252,109.173734 L79.544667,108.744126 L80.6550186,108.300293 C80.8398418,108.225167 81.0245154,108.149472 81.2089914,108.07322 L82.3130927,107.609115 C84.8820066,106.511042 87.3933983,105.308383 89.7157075,104.03354 Z"/>
      <path fill="#B4C0C9" fill-rule="nonzero" d="M40.8329409,59.2737676 C42.2609487,59.2737676 43.5218796,59.4966756 44.7798403,59.8265791 L45.0701608,59.9045574 L45.0701608,59.9045574 L45.3608243,59.9860176 L45.3608243,59.9860176 L45.6522783,60.0706434 L45.6522783,60.0706434 L45.9449716,60.1581184 L45.9449716,60.1581184 L46.3873152,60.2939799 L46.3873152,60.2939799 L47.137099,60.5301767 L47.137099,60.5301767 L48.0661653,60.8236237 L48.0661653,60.8236237 L48.5462246,60.9719497 L48.5462246,60.9719497 L48.8730418,61.0707018 L48.8730418,61.0707018 L49.2058039,61.1689791 C49.2617846,61.1853016 49.3180316,61.201591 49.3745542,61.2178409 L49.7170741,61.3148122 C49.774737,61.3308776 49.8326943,61.3468901 49.8909554,61.3628431 L50.2442413,61.4577964 C52.5652609,62.0696786 55.3766512,62.5712213 59.2322723,62.5712213 C63.2856174,62.5712213 66.000233,62.0169194 68.2523547,61.3702866 L68.5787337,61.2750517 L68.5787337,61.2750517 L68.8991198,61.1788207 L68.8991198,61.1788207 L69.2141233,61.0819147 L69.2141233,61.0819147 L69.5243544,60.9846559 L69.5243544,60.9846559 L69.9820878,60.8388095 L69.9820878,60.8388095 L70.8776989,60.5512489 L70.8776989,60.5512489 L71.3196957,60.4117066 L71.3196957,60.4117066 L71.6136076,60.3209851 C71.662585,60.306041 71.7115671,60.2911895 71.7605665,60.2764372 L72.0548716,60.189168 L72.0548716,60.189168 L72.3502016,60.1046024 C73.9291144,59.6613663 75.5778004,59.347208 77.71286,59.3817681 C80.0416318,59.4194638 81.9058407,60.614959 83.3959082,62.5685651 L83.3790909,63.3730309 L83.3790909,63.3730309 L83.3601946,64.1644157 L83.3601946,64.1644157 L83.3392162,64.942728 L83.3392162,64.942728 L83.3161533,65.7079763 C83.3121358,65.8344297 83.3080309,65.9603388 83.3038394,66.0857043 L83.277644,66.831372 L83.277644,66.831372 L83.2493571,67.5639968 L83.2493571,67.5639968 L83.2189759,68.2835868 L83.2189759,68.2835868 L83.1864972,68.9901505 C83.1809091,69.1068259 83.1752336,69.2229591 83.1694705,69.3385499 C82.3185716,69.0630153 81.3982612,68.9108593 80.4036515,68.8986883 C77.9439292,68.8685886 75.8372231,69.1456872 73.8003613,69.5343999 L73.4191992,69.608544 C73.3557855,69.6211034 73.2924228,69.6337597 73.2291022,69.6465073 L72.8496177,69.7240379 L72.8496177,69.7240379 L72.4707334,69.8034683 L72.4707334,69.8034683 L72.0920339,69.8845119 L72.0920339,69.8845119 L71.3335317,70.0502926 L71.3335317,70.0502926 L69.9939609,70.3462845 L69.9939609,70.3462845 L69.4114801,70.4729208 L69.4114801,70.4729208 L69.0193292,70.556556 L69.0193292,70.556556 L68.6236302,70.6392259 L68.6236302,70.6392259 L68.2239685,70.7206441 C68.1570048,70.7340936 68.0898588,70.747479 68.022522,70.7607943 L67.616138,70.8397975 C65.2313863,71.2951886 62.5914335,71.6501281 59.3257657,71.6487142 C56.4333171,71.6474458 53.9088922,71.3682019 51.6132891,70.9851884 L51.1717986,70.9098077 C50.8793268,70.8587524 50.590515,70.8061567 50.3050646,70.7523946 L49.8793722,70.6709235 L49.8793722,70.6709235 L49.4584974,70.5879837 L49.4584974,70.5879837 L49.0422157,70.503856 L49.0422157,70.503856 L48.630303,70.4188208 L48.630303,70.4188208 L48.2225349,70.3331588 L48.2225349,70.3331588 L47.4185349,70.1610782 L47.4185349,70.1610782 L45.6575762,69.7804682 L45.6575762,69.7804682 L45.2737435,69.6990537 L45.2737435,69.6990537 L44.7021207,69.5803187 L44.7021207,69.5803187 L44.3234629,69.5038286 L44.3234629,69.5038286 L43.9464824,69.4297999 C43.8837795,69.4176824 43.8211375,69.4056793 43.7585509,69.393796 L43.3836662,69.3239851 L43.3836662,69.3239851 L43.0098981,69.257337 L43.0098981,69.257337 L42.6370225,69.1941322 C41.20909,68.9588064 39.795885,68.8055678 38.3405561,68.8055678 C37.2941529,68.8055678 36.3222502,68.9268313 35.4195501,69.1542383 L35.3870293,68.4880271 L35.3870293,68.4880271 L35.3563458,67.8101106 L35.3563458,67.8101106 L35.3275001,67.1204891 C35.3228456,67.0045767 35.3182677,66.8881769 35.3137664,66.7712893 L35.287678,66.0641119 L35.287678,66.0641119 L35.2634284,65.3452317 L35.2634284,65.3452317 L35.2410177,64.6146489 L35.2410177,64.6146489 L35.2204469,63.8723645 L35.2204469,63.8723645 L35.201716,63.1183796 L35.201716,63.1183796 L35.1848257,62.3526943 C35.1795025,62.0955159 35.1744858,61.8363879 35.1697763,61.5753096 C36.7068229,60.1283031 38.5714374,59.2737676 40.8329409,59.2737676 Z"/>
    </g>
  </g>
</svg>
