<svg width="32" height="32" viewBox="0 0 32 32" fill="none" xmlns="http://www.w3.org/2000/svg">
<rect width="32" height="32" fill="#016FD0"/>
<path d="M28 21.3714C28 23.3714 26.3276 25 24.2738 25H4V10.6286C4 8.62857 5.67237 7 7.72616 7H28V21.3714Z" fill="white"/>
<path fill-rule="evenodd" clip-rule="evenodd" d="M22.7628 8.21423C21.2959 8.21423 20.0929 9.37138 20.0929 10.8142V13.5142H23.8631C23.9511 13.5142 24.0538 13.5142 24.1271 13.5285C24.978 13.5714 25.6088 13.9999 25.6088 14.7428C25.6088 15.3285 25.1834 15.8285 24.3912 15.9285V15.9571C25.2567 16.0142 25.9169 16.4857 25.9169 17.2142C25.9169 17.9999 25.1834 18.5142 24.2152 18.5142H20.0782V23.7999H23.9951C25.4621 23.7999 26.665 22.6428 26.665 21.1999V8.21423H22.7628ZM21.3984 17.6857H22.9388C22.9608 17.6857 22.9975 17.6821 23.0341 17.6786C23.0708 17.675 23.1075 17.6714 23.1295 17.6714C23.4229 17.6143 23.6723 17.3571 23.6723 17C23.6723 16.6571 23.4229 16.4 23.1295 16.3286C23.0855 16.3143 22.9975 16.3143 22.9388 16.3143H21.3984V17.6857ZM22.9388 14.2999C23.2322 14.3428 23.4816 14.5714 23.4816 14.9142C23.4816 15.2571 23.2322 15.4857 22.9388 15.5285C22.9241 15.5428 22.8361 15.5428 22.7921 15.5428H21.3984V14.2857H22.7921C22.8163 14.2857 22.8494 14.29 22.8792 14.2939C22.9035 14.2971 22.9256 14.2999 22.9388 14.2999Z" fill="#5BB532"/>
<path d="M8.00479 8.21423C6.53779 8.21423 5.33486 9.37138 5.33486 10.8142V17.2285C6.08303 17.5857 6.86053 17.8142 7.63804 17.8142C8.56224 17.8142 9.06102 17.2714 9.06102 16.5285V13.4999H11.3495V16.5142C11.3495 17.6857 10.6014 18.6428 8.06347 18.6428C6.52312 18.6428 5.32019 18.3142 5.32019 18.3142V23.7857H9.23706C10.7041 23.7857 11.907 22.6285 11.907 21.1857V8.21423H8.00479Z" fill="#016DB9"/>
<path d="M15.3839 8.21423C13.9169 8.21423 12.714 9.37138 12.714 10.8142V14.2142C13.3888 13.6571 14.5624 13.2999 16.4548 13.3857C17.467 13.4285 18.5526 13.6999 18.5526 13.6999V14.7999C18.0098 14.5285 17.3644 14.2857 16.5282 14.2285C15.0905 14.1285 14.225 14.8142 14.225 16.0142C14.225 17.2285 15.0905 17.9142 16.5282 17.7999C17.3644 17.7428 18.0098 17.4857 18.5526 17.2285V18.3285C18.5526 18.3285 17.4817 18.5999 16.4548 18.6428C14.5624 18.7285 13.3888 18.3714 12.714 17.8142V23.8142H16.6309C18.0979 23.8142 19.3008 22.6571 19.3008 21.2142V8.21423H15.3839Z" fill="#E7013A"/>
</svg>
