<svg width="160" height="160" viewBox="0 0 160 160" fill="none" xmlns="http://www.w3.org/2000/svg">
<g clip-path="url(#clip0_0_3)">
<rect width="108" height="108" transform="translate(26 26)" fill="white"/>
<path fill-rule="evenodd" clip-rule="evenodd" d="M80 0C124.183 0 160 35.8172 160 80C160 124.183 124.183 160 80 160C35.8172 160 0 124.183 0 80C0 35.8172 35.8172 0 80 0ZM114.263 46.4516H114.124C111.09 46.5056 106.483 48.0771 85.129 56.9377L81.4134 58.485C72.8665 62.0684 57.2608 68.7965 34.5963 78.6692C30.6592 80.2346 28.5967 81.7659 28.409 83.2633C28.0626 86.0254 31.8704 86.9599 36.789 88.5303L38.2643 89.0045C42.3926 90.3144 47.5535 91.7249 50.3251 91.7848C52.9152 91.8407 55.7945 90.8163 58.9629 88.7115L70.5122 80.9327C85.6657 70.7536 93.6286 65.5353 94.4008 65.2779L94.6778 65.2164C95.1594 65.1213 95.7366 65.0718 96.1481 65.4374C96.6344 65.8696 96.5866 66.688 96.5351 66.9076C96.1275 68.6449 75.2839 87.6143 73.6629 89.2418L73.3122 89.6017C68.7645 94.2255 63.9031 97.1721 71.5638 102.355L73.3594 103.545C79.066 107.335 82.9483 110.084 88.8108 113.958L90.3875 114.996C95.0655 118.062 98.733 121.698 103.563 121.253C105.741 121.053 107.989 119.042 109.175 113.097L109.247 112.728C112.002 98.0013 117.418 66.093 118.67 52.9444C118.779 51.7924 118.641 50.3181 118.53 49.6709L118.474 49.3782C118.341 48.7651 118.068 48.0041 117.347 47.419C116.413 46.6611 115.002 46.4639 114.263 46.4516Z" fill="#3390EC"/>
</g>
<defs>
<clipPath id="clip0_0_3">
<rect width="160" height="160" fill="white"/>
</clipPath>
</defs>
</svg>
