<svg width="31" height="26" viewBox="0 0 31 26" fill="none" xmlns="http://www.w3.org/2000/svg">
<path fill-rule="evenodd" clip-rule="evenodd" d="M2.56234 11.2029C10.6154 7.69429 15.9854 5.38122 18.6722 4.26366C26.3438 1.07279 27.9379 0.518498 28.9769 0.500195C29.2054 0.49617 29.7163 0.552803 30.0473 0.821365C30.3268 1.04813 30.4037 1.35446 30.4405 1.56947C30.4773 1.78447 30.5231 2.27425 30.4867 2.65694C30.0709 7.025 28.2721 17.6251 27.357 22.5174C26.9697 24.5875 26.2073 25.2816 25.4691 25.3496C23.8649 25.4972 22.6467 24.2894 21.093 23.2709C18.6617 21.6772 17.2882 20.685 14.9282 19.1298C12.2008 17.3325 13.9688 16.3447 15.5232 14.7303C15.9299 14.3078 22.9981 7.87881 23.1349 7.2956C23.152 7.22266 23.1679 6.95077 23.0063 6.80721C22.8448 6.66364 22.6064 6.71273 22.4344 6.75178C22.1905 6.80712 18.3065 9.37433 10.7823 14.4534C9.67983 15.2104 8.68124 15.5793 7.78655 15.5599C6.80022 15.5386 4.90291 15.0023 3.49246 14.5438C1.76249 13.9814 0.387541 13.6841 0.507268 12.7291C0.569629 12.2316 1.25465 11.7229 2.56234 11.2029Z" fill="#3390ec"/>
</svg>
