<?xml version="1.0" standalone="no"?>
<!DOCTYPE svg PUBLIC "-//W3C//DTD SVG 20010904//EN"
 "http://www.w3.org/TR/2001/REC-SVG-20010904/DTD/svg10.dtd">
<svg version="1.0" xmlns="http://www.w3.org/2000/svg"
 width="700.000000pt" height="700.000000pt" viewBox="0 0 700.000000 700.000000"
 preserveAspectRatio="xMidYMid meet">
<metadata>
Created by potrace 1.11, written by Peter Selinger 2001-2013
</metadata>
<g transform="translate(0.000000,700.000000) scale(0.100000,-0.100000)"
fill="#000000" stroke="none">
<path d="m4356.97 71.3238c18.66-8.128 31.1-13.487 37.32-16.076 17.78-7.393 21.47-8.677 23.88-8.72.53-.009 1.71.122 2.48.745.64.525.82 1.235.91 1.733.08.498.19 1.633.1 2.519-.96 10.12-5.13 34.678-7.25 46.013-.89 4.7962-2.66 6.4042-4.37 6.5612-3.72.342-6.54-2.456-10.14-4.8152-5.63-3.693-8.81-5.991-14.28-9.594-6.32-4.164-2.22-6.453 1.38-10.193.94-.979 17.32-15.874 17.63-17.225.04-.169.08-.799-.3-1.131-.37-.333-.92-.219-1.32-.129-.57.128-9.56 6.076-27 17.843-2.55 1.754-4.86 2.609-6.94 2.564-2.28-.049-6.68-1.292-9.95-2.354-4-1.303-7.19-1.992-6.91-4.205.14-1.152 1.73-2.331 4.76-3.536z"/>
</g>
</svg>
