<svg width="100" height="80" viewBox="0 0 100 80" fill="none" xmlns="http://www.w3.org/2000/svg">
<rect width="100" height="80" fill="white"/>
<g clip-path="url(#clip0_510_6715)">
<path d="M31.558 29.0049V29.0148C31.5481 29.0148 28.4321 29.0049 27.6012 31.9824C26.8395 34.7126 24.6929 42.247 24.6336 42.4547H24.0401C24.0401 42.4547 21.844 34.7521 21.0725 31.9725C20.2415 28.995 17.1157 29.0049 17.1157 29.0049H10V51.651H17.119V38.2011H17.7125L21.8671 51.6509H26.8098L30.9645 38.2109H31.558V51.6509H38.6769V29.0049H31.558V29.0049ZM57.5641 29.0049C57.5641 29.0049 55.4769 29.1928 54.4976 31.3791L49.4559 42.4547H48.8624V29.0049H41.7435V51.651H48.4667C48.4667 51.651 50.6529 51.4532 51.6323 49.2769L56.575 38.2012H57.1685V51.651H64.2875V29.0049H57.5641ZM67.4528 39.2893V51.651H74.5718V44.4331H82.2843C85.6476 44.4331 88.4932 42.2866 89.5517 39.2926H67.4528V39.2893V39.2893Z" fill="#4DB45E"/>
<path d="M82.2875 29.0049H66.4537C67.2451 33.3178 70.4797 36.7767 74.6607 37.9044C75.6313 38.1673 76.6326 38.3004 77.6382 38.3002H89.8416C89.9504 37.7858 89.9999 37.2615 89.9999 36.7175C90 32.4572 86.5477 29.0049 82.2875 29.0049V29.0049Z" fill="url(#paint0_linear_510_6715)"/>
</g>
<defs>
<linearGradient id="paint0_linear_510_6715" x1="66.4537" y1="33.6525" x2="89.9999" y2="33.6525" gradientUnits="userSpaceOnUse">
<stop offset="0.3" stop-color="#00B4E6"/>
<stop offset="1" stop-color="#088CCB"/>
</linearGradient>
<clipPath id="clip0_510_6715">
<rect width="80" height="22.656" fill="white" transform="translate(10 29)"/>
</clipPath>
</defs>
</svg>
