<svg width="32" height="32" viewBox="0 0 32 32" fill="none" xmlns="http://www.w3.org/2000/svg">
<rect width="32" height="32" fill="#1A1F71"/>
<path d="M12.3895 12.0138L9.04695 19.9782H6.85983L5.20917 13.6232C5.12664 13.2518 5.00284 13.0867 4.71398 12.9217C4.21878 12.6741 3.39345 12.3852 2.69193 12.2614L2.73319 12.0138H6.24083C6.69476 12.0138 7.10743 12.3027 7.18996 12.8391L8.05655 17.461L10.2024 12.0551H12.3895V12.0138ZM20.9317 17.3784C20.9317 15.2739 18.043 15.1501 18.043 14.2422C18.043 13.9533 18.3319 13.6645 18.9096 13.5819C19.1985 13.5407 20.0238 13.4994 20.9317 13.9533L21.3031 12.2614C20.8079 12.0963 20.1889 11.89 19.3635 11.89C17.3415 11.89 15.8972 12.9629 15.8972 14.5311C15.8972 15.6865 16.9288 16.3055 17.7129 16.6769C18.4969 17.0483 18.7858 17.2959 18.7858 17.6673C18.7858 18.2038 18.1668 18.4514 17.5478 18.4514C16.5162 18.4514 15.8972 18.1625 15.4432 17.9562L15.0718 19.6894C15.567 19.8957 16.4336 20.102 17.3415 20.102C19.4873 20.102 20.8904 19.0291 20.9317 17.3784ZM26.2963 19.9782H28.1945L26.5439 12.0138H24.7694C24.3568 12.0138 24.0266 12.2614 23.9028 12.5915L20.8079 19.9782H22.9537L23.3664 18.7815H26.0074L26.2963 19.9782ZM23.9854 17.1721L25.0583 14.2009L25.6773 17.1721H23.9854ZM15.3194 12.0138L13.6275 19.9782H11.5642L13.2561 12.0138H15.3194Z" fill="white"/>
</svg>
