<svg xmlns="http://www.w3.org/2000/svg" width="24" height="24" viewBox="0 0 24 24">
  <g fill="none" fill-rule="evenodd">
    <polygon points="0 0 24 0 24 24 0 24"/>
    <path fill="#000" fill-rule="nonzero" d="M4,2 L18,2 C20.1421954,2 21.8910789,3.68396847 21.9951047,5.80035966 L22,6 L22,8 C22,8.55228475 21.5522847,9 21,9 C20.4871642,9 20.0644928,8.61395981 20.0067277,8.11662113 L20,8 L20,6 C20,4.9456382 19.1841222,4.08183488 18.1492623,4.00548574 L18,4 L4,4 C2.9456382,4 2.08183488,4.81587779 2.00548574,5.85073766 L2,6 L2,14 C2,15.0543618 2.81587779,15.9181651 3.85073766,15.9945143 L4,16 L14,16 C14.5522847,16 15,16.4477153 15,17 C15,17.5128358 14.6139598,17.9355072 14.1166211,17.9932723 L14,18 L12,18 L12,20 L14,20 C14.5128358,20 14.9355072,20.3860402 14.9932723,20.8833789 L15,21 C15,21.5128358 14.6139598,21.9355072 14.1166211,21.9932723 L14,22 L8,22 C7.44771525,22 7,21.5522847 7,21 C7,20.4871642 7.38604019,20.0644928 7.88337887,20.0067277 L8,20 L10,20 L10,18 L4,18 C1.85780461,18 0.108921124,16.3160315 0.00489530723,14.1996403 L0,14 L0,6 C0,3.85780461 1.68396847,2.10892112 3.80035966,2.00489531 L4,2 L18,2 L4,2 Z M22,11 C23.1045695,11 24,11.8954305 24,13 L24,20 C24,21.1045695 23.1045695,22 22,22 L19,22 C17.8954305,22 17,21.1045695 17,20 L17,13 C17,11.8954305 17.8954305,11 19,11 L22,11 Z M22,13 L19,13 L19,20 L22,20 L22,13 Z"/>
  </g>
</svg>
