<svg xmlns="http://www.w3.org/2000/svg" width="24" height="24" viewBox="0 0 24 24">
  <g fill="none" fill-rule="evenodd">
    <polygon points="0 0 24 0 24 24 0 24"/>
    <path fill="#000" fill-rule="nonzero" d="M9,13 C12.3229116,13 14.7530244,13.8337117 16.2223821,15.5699359 C16.724477,16.1632234 17,16.915291 17,17.6925226 L17,19 C17,20.1045695 16.1045695,21 15,21 L3,21 C1.8954305,21 1,20.1045695 1,19 L1,17.6925204 C1,16.9152876 1.2755246,16.1632192 1.77762117,15.569932 C3.24697824,13.8337108 5.67709024,13 9,13 Z M18.8833789,7.00672773 L19,7 C19.5128358,7 19.9355072,7.38604019 19.9932723,7.88337887 L20,8 L20,10 L22,10 C22.5128358,10 22.9355072,10.3860402 22.9932723,10.8833789 L23,11 C23,11.5128358 22.6139598,11.9355072 22.1166211,11.9932723 L22,12 L20,12 L20,14 C20,14.5128358 19.6139598,14.9355072 19.1166211,14.9932723 L19,15 C18.4871642,15 18.0644928,14.6139598 18.0067277,14.1166211 L18,14 L18,12 L16,12 C15.4871642,12 15.0644928,11.6139598 15.0067277,11.1166211 L15,11 C15,10.4871642 15.3860402,10.0644928 15.8833789,10.0067277 L16,10 L18,10 L18,8 C18,7.48716416 18.3860402,7.06449284 18.8833789,7.00672773 L19,7 L18.8833789,7.00672773 Z M9,3 C11.209139,3 13,4.790861 13,7 C13,9.209139 11.209139,11 9,11 C6.790861,11 5,9.209139 5,7 C5,4.790861 6.790861,3 9,3 Z"/>
  </g>
</svg>
