<svg xmlns="http://www.w3.org/2000/svg" viewBox="0 0 19 22.34"><defs><style>.cls-1{fill-rule:evenodd;}</style></defs><g id="Слой_2" data-name="Слой 2"><g id="admin"><path class="cls-1" d="M9.23,2a1.63,1.63,0,0,1,.54,0,4.77,4.77,0,0,1,1,.31L15.53,4a4.39,4.39,0,0,1,1.12.46,1,1,0,0,1,.28.4A4.05,4.05,0,0,1,17,6.08v5.25a12.49,12.49,0,0,1-.24,3.59,4.86,4.86,0,0,1-.93,1.68A13.6,13.6,0,0,0,9.5,15.32,13.6,13.6,0,0,0,3.17,16.6a5,5,0,0,1-.93-1.68A12.49,12.49,0,0,1,2,11.33V6.08a4.05,4.05,0,0,1,.07-1.21,1,1,0,0,1,.28-.4A4.39,4.39,0,0,1,3.47,4L8.24,2.33A4.77,4.77,0,0,1,9.23,2ZM5,18l1.27.75,1.33.79a6.09,6.09,0,0,0,1.51.76,2,2,0,0,0,.84,0,6.09,6.09,0,0,0,1.51-.76l1.33-.79L14,18a13.08,13.08,0,0,0-4.53-.67A13.08,13.08,0,0,0,5,18ZM10,0A3.91,3.91,0,0,0,9,0,6.29,6.29,0,0,0,7.65.41l-.08,0L2.8,2.12l-.13,0A4.8,4.8,0,0,0,1.05,3,3,3,0,0,0,.2,4.15,5.07,5.07,0,0,0,0,5.94v5.57a13.2,13.2,0,0,0,.34,4A7,7,0,0,0,1.77,18a13.13,13.13,0,0,0,3.3,2.33l.16.09,1.33.79.12.07a7.07,7.07,0,0,0,2,.93,4,4,0,0,0,1.68,0,7.07,7.07,0,0,0,2-.93l.12-.07,1.33-.79.16-.09A13.13,13.13,0,0,0,17.23,18a7,7,0,0,0,1.43-2.51,13.2,13.2,0,0,0,.34-4V5.94a5.07,5.07,0,0,0-.2-1.79A3,3,0,0,0,18,3a4.8,4.8,0,0,0-1.62-.79l-.13,0L11.43.44l-.08,0A6.29,6.29,0,0,0,10,0ZM9.5,7.32a2,2,0,1,0,2,2A2,2,0,0,0,9.5,7.32Zm-4,2a4,4,0,1,1,4,4A4,4,0,0,1,5.5,9.32Z"/></g></g></svg>