<svg width="24" height="24" viewBox="0 0 24 24" fill="none" xmlns="http://www.w3.org/2000/svg">
<path fill-rule="evenodd" clip-rule="evenodd" d="M11.7294 2.69976C11.909 2.67524 12.091 2.67524 12.2706 2.69976C12.4496 2.7242 12.6347 2.78446 13.2647 3.00682L18.0322 4.68947C18.8798 4.98861 19.0433 5.06363 19.1509 5.15585C19.2762 5.26327 19.3729 5.40002 19.4325 5.55392C19.4837 5.68605 19.5 5.86523 19.5 6.76405V12.0093C19.5 14.0773 19.4886 14.8895 19.259 15.6018C19.0607 16.2174 18.7449 16.7882 18.3297 17.2828C16.6565 16.4019 14.5235 16 12.0007 16C9.47734 16 7.344 16.4021 5.67066 17.2833C5.25526 16.7885 4.93938 16.2176 4.74097 15.6018C4.51143 14.8895 4.5 14.0773 4.5 12.0093V6.76405C4.5 5.86523 4.51631 5.68605 4.56747 5.55392C4.62707 5.40002 4.72383 5.26327 4.84912 5.15585C4.95668 5.06363 5.12022 4.98861 5.9678 4.68947L10.7353 3.00682C11.3653 2.78446 11.5504 2.7242 11.7294 2.69976ZM7.47347 18.6687C7.82259 18.8815 8.23802 19.1269 8.73963 19.4219L10.0733 20.2065C11.0184 20.7624 11.3007 20.9145 11.5778 20.9744C11.8561 21.0345 12.1439 21.0345 12.4222 20.9744C12.6993 20.9145 12.9816 20.7624 13.9267 20.2065L15.2604 19.4219C15.7622 19.1267 16.1778 18.8812 16.527 18.6684C15.3464 18.2355 13.8492 18 12.0007 18C10.1517 18 8.6542 18.2356 7.47347 18.6687ZM12.5412 0.718148C12.1821 0.669105 11.8179 0.669105 11.4588 0.718148C11.052 0.773705 10.6643 0.91071 10.1514 1.09195L10.0696 1.12084L5.30216 2.80349L5.16783 2.85075C4.53378 3.07348 3.97713 3.26903 3.54736 3.63749C3.17148 3.95974 2.88121 4.37002 2.70242 4.83172C2.498 5.35962 2.49887 5.94962 2.49986 6.62165L2.5 6.76405V12.0093L2.49998 12.1878C2.49964 14.0177 2.49942 15.1665 2.83735 16.2152C3.13586 17.1416 3.62429 17.9956 4.27143 18.7226C5.00403 19.5456 5.99435 20.1279 7.57173 21.0553L7.72559 21.1458L9.05928 21.9303L9.18427 22.0039C9.94759 22.4536 10.5233 22.7928 11.1556 22.9293C11.7121 23.0495 12.2879 23.0495 12.8444 22.9293C13.4767 22.7928 14.0524 22.4536 14.8157 22.0039L14.9407 21.9303L16.2744 21.1458L16.4283 21.0553C18.0057 20.1279 18.996 19.5456 19.7286 18.7226C20.3757 17.9956 20.8641 17.1416 21.1626 16.2152C21.5006 15.1665 21.5004 14.0177 21.5 12.1878L21.5 12.0093V6.76405L21.5001 6.62165C21.5011 5.94962 21.502 5.35962 21.2976 4.83172C21.1188 4.37002 20.8285 3.95974 20.4526 3.63749C20.0229 3.26903 19.4662 3.07348 18.8322 2.85075L18.6978 2.80349L13.9304 1.12084L13.8486 1.09195C13.3357 0.91071 12.948 0.773705 12.5412 0.718148ZM12 8C10.8954 8 10 8.89543 10 10C10 11.1046 10.8954 12 12 12C13.1046 12 14 11.1046 14 10C14 8.89543 13.1046 8 12 8ZM8 10C8 7.79086 9.79086 6 12 6C14.2091 6 16 7.79086 16 10C16 12.2091 14.2091 14 12 14C9.79086 14 8 12.2091 8 10Z" fill="black"/>
</svg>
