<svg xmlns="http://www.w3.org/2000/svg" width="24" height="24" viewBox="0 0 24 24">
  <path d="M12.7071068,19.7071068 L19.7071068,12.7071068 C20.0976311,12.3165825 20.0976311,11.6834175 19.7071068,11.2928932 C19.3466228,10.9324093 18.7793918,10.9046797 18.3871006,11.2097046 L18.2928932,11.2928932 L13,16.586 L13,5 C13,4.48716416 12.6139598,4.06449284 12.1166211,4.00672773 L12,4 C11.4871642,4 11.0644928,4.38604019 11.0067277,4.88337887 L11,5 L11,16.586 L5.70710678,11.2928932 C5.34662282,10.9324093 4.77939176,10.9046797 4.38710056,11.2097046 L4.29289322,11.2928932 C3.93240926,11.6533772 3.90467972,12.2206082 4.20970461,12.6128994 L4.29289322,12.7071068 L11.2928932,19.7071068 C11.6533772,20.0675907 12.2206082,20.0953203 12.6128994,19.7902954 L12.7071068,19.7071068 Z"/>
</svg>
