<svg xmlns="http://www.w3.org/2000/svg" viewBox="0 0 18.06 20.47"><g id="Layer_2" data-name="Layer 2"><g id="attach"><path d="M7.24,20.47a7.2,7.2,0,0,1-5.18-2.18,7.29,7.29,0,0,1,0-10.16L8.31,1.76a5.84,5.84,0,0,1,8.36,0,4.9,4.9,0,0,1,0,6.83l-7.2,7.35a3.19,3.19,0,0,1-4.46,0,3.91,3.91,0,0,1,0-5.46L8.54,6.89A1,1,0,1,1,10,8.29L6.44,11.88a1.91,1.91,0,0,0,0,2.66,1.15,1.15,0,0,0,1.6,0l7.2-7.35a2.89,2.89,0,0,0,0-4,3.84,3.84,0,0,0-5.5,0L3.49,9.54a5.27,5.27,0,0,0,0,7.35,5.24,5.24,0,0,0,7.5,0l3.68-3.75a1,1,0,1,1,1.42,1.4l-3.67,3.75A7.23,7.23,0,0,1,7.24,20.47Z"/></g></g></svg>