<svg xmlns="http://www.w3.org/2000/svg" width="54" height="54" viewBox="0 0 54 54">
  <g fill="none" fill-rule="evenodd">
    <polygon points="0 0 54 0 54 54 0 54"/>
    <path fill="#000" fill-rule="nonzero" d="M18.4856429,38.8741573 C17.8191117,39.2444524 17,38.7624843 17,38 L17,19 C17,16.790861 18.790861,15 21,15 L33,15 C35.209139,15 37,16.790861 37,19 L37,38 C37,38.7624843 36.1808883,39.2444524 35.5143571,38.8741573 L27,34.1439589 L18.4856429,38.8741573 Z M35,19 C35,17.8954305 34.1045695,17 33,17 L21,17 C19.8954305,17 19,17.8954305 19,19 L19,36.3004855 L26.5143571,32.1258427 C26.8163796,31.9580524 27.1836204,31.9580524 27.4856429,32.1258427 L35,36.3004855 L35,19 Z"/>
  </g>
</svg>
