<svg xmlns="http://www.w3.org/2000/svg" width="54" height="54" viewBox="0 0 54 54">
  <g fill="none" fill-rule="evenodd">
    <polygon points="0 0 54 0 54 54 0 54"/>
    <path fill="#000" fill-rule="nonzero" d="M21.6985711,15 L32.3014289,15 C33.6325302,15 34.8711667,15.6616379 35.6125162,16.7557074 L35.7314006,16.942017 L37.4299717,19.7729689 C37.7615246,20.325557 37.9540428,20.9490065 37.9927314,21.5899024 L38,21.8309519 L38,35 C38,37.209139 36.209139,39 34,39 L20,39 C17.790861,39 16,37.209139 16,35 L16,21.8309519 C16,21.186529 16.1556791,20.5528756 16.4522421,19.9834067 L16.5700283,19.7729689 L18.2685994,16.942017 C18.9534454,15.800607 20.1580685,15.0788949 21.4776465,15.006087 L21.6985711,15 L32.3014289,15 L21.6985711,15 Z M34,21 L20,21 C18.8954305,21 18,21.8954305 18,23 L18,35 C18,36.1045695 18.8954305,37 20,37 L34,37 C35.1045695,37 36,36.1045695 36,35 L36,23 C36,21.8954305 35.1045695,21 34,21 Z M23.2928932,27.2928932 C23.6533772,26.9324093 24.2206082,26.9046797 24.6128994,27.2097046 L24.7071068,27.2928932 L27,29.5857864 L29.2928932,27.2928932 C29.6834175,26.9023689 30.3165825,26.9023689 30.7071068,27.2928932 C31.0675907,27.6533772 31.0953203,28.2206082 30.7902954,28.6128994 L30.7071068,28.7071068 L27.7071068,31.7071068 C27.3466228,32.0675907 26.7793918,32.0953203 26.3871006,31.7902954 L26.2928932,31.7071068 L23.2928932,28.7071068 C22.9023689,28.3165825 22.9023689,27.6834175 23.2928932,27.2928932 Z M32.3014289,17 L21.6985711,17 C21.0500859,17 20.4454925,17.3140714 20.0720279,17.8362025 L19.9835853,17.9710085 L19.3323982,19.0554626 C19.5494985,19.018987 19.7725319,19 20,19 L34,19 C34.2274681,19 34.4505015,19.018987 34.6676018,19.0554626 L34.0164147,17.9710085 C33.6827718,17.414937 33.1023971,17.0580908 32.4625274,17.0064818 L32.3014289,17 Z"/>
  </g>
</svg>
