<svg xmlns="http://www.w3.org/2000/svg" width="24" height="24" viewBox="0 0 24 24">
  <path d="M18.5,1 C20.9852814,1 23,3.01471863 23,5.5 C23,7.91427333 21.0987635,9.88448909 18.7118357,9.99510201 L18.5,10 L16,10 L16,14 L18.5,14 C20.9142733,14 22.8844891,15.9012365 22.995102,18.2881643 L23,18.5 C23,20.9852814 20.9852814,23 18.5,23 C16.0857267,23 14.1155109,21.0987635 14.004898,18.7118357 L14,18.5 L14,16 L10,16 L10,18.5 C10,20.9142733 8.09876348,22.8844891 5.7118357,22.995102 L5.5,23 C3.01471863,23 1,20.9852814 1,18.5 C1,16.0857267 2.90123652,14.1155109 5.2881643,14.004898 L5.5,14 L8,14 L8,10 L5.5,10 C3.08572667,10 1.11551091,8.09876348 1.00489799,5.7118357 L1,5.5 C1,3.01471863 3.01471863,1 5.5,1 C7.91427333,1 9.88448909,2.90123652 9.99510201,5.2881643 L10,5.5 L10,8 L14,8 L14,5.5 C14,3.08572667 15.9012365,1.11551091 18.2881643,1.00489799 L18.5,1 Z M8,16 L5.5,16 C4.11928813,16 3,17.1192881 3,18.5 C3,19.8807119 4.11928813,21 5.5,21 C6.8254834,21 7.91003867,19.9684641 7.99468232,18.6643757 L8,18.5 L8,16 Z M18.5,16 L16,16 L16,18.5 C16,19.8807119 17.1192881,21 18.5,21 C19.8807119,21 21,19.8807119 21,18.5 C21,17.1745166 19.9684641,16.0899613 18.6643757,16.0053177 L18.5,16 Z M14,10 L10,10 L10,14 L14,14 L14,10 Z M5.5,3 C4.11928813,3 3,4.11928813 3,5.5 C3,6.8254834 4.03153594,7.91003867 5.33562431,7.99468232 L5.5,8 L8,8 L8,5.5 C8,4.22974508 7.05263453,3.18075921 5.82591229,3.02105111 L5.66437569,3.00531768 L5.5,3 Z M18.5,3 C17.1745166,3 16.0899613,4.03153594 16.0053177,5.33562431 L16,5.5 L16,8 L18.5,8 C19.7702549,8 20.8192408,7.05263453 20.9789489,5.82591229 L20.9946823,5.66437569 L21,5.5 C21,4.11928813 19.8807119,3 18.5,3 Z"/>
</svg>
