<svg xmlns="http://www.w3.org/2000/svg" width="24" height="24" viewBox="0 0 24 24">
  <path d="M8.61289944,1.20970461 L8.70710678,1.29289322 L9.9222713,2.50672321 C10.5316581,2.1838399 11.24495,2 12,2 C12.75505,2 13.4683419,2.1838399 14.0777287,2.50672321 L15.2928932,1.29289322 C15.6834175,0.902368927 16.3165825,0.902368927 16.7071068,1.29289322 C17.0675907,1.65337718 17.0953203,2.22060824 16.7902954,2.61289944 L16.7071068,2.70710678 L15.5455922,3.8701326 C15.8351493,4.35308952 16,4.90602422 16,5.5 C16,5.83183527 15.9473269,6.15589962 15.8468649,6.46485882 C16.6346504,7.13032022 17.3095018,7.99616819 17.8299298,9.00305609 L20.6840435,8.0513167 L20.7968075,8.02082035 L20.9099197,8.00386398 C21.3617993,7.96248573 21.7992565,8.23467796 21.9489546,8.68377223 C22.1111275,9.17029103 21.8785581,9.69334888 21.4250081,9.90542197 L21.3164991,9.9486833 L18.5661171,10.8655966 C18.7607739,11.5434008 18.8938766,12.2585524 18.9573465,12.9990468 L22.0002713,13 L22.1168924,13.0067277 C22.6142311,13.0644928 23.0002713,13.4871642 23.0002713,14 C23.0002713,14.5128358 22.6142311,14.9355072 22.1168924,14.9932723 L22.0002713,15 L18.9574322,14.9999532 C18.8939964,15.7408038 18.7608615,16.4562941 18.5661171,17.1344034 L21.3164991,18.0513167 L21.4250081,18.094578 C21.8785581,18.3066511 22.1111275,18.829709 21.9489546,19.3162278 C21.7867817,19.8027466 21.2868914,20.0816512 20.7968075,19.9791796 L20.6840435,19.9486833 L17.8299298,18.9969439 C16.5877512,21.4002247 14.4658214,23 12,23 C9.53452262,23 7.41284091,21.4006711 6.17059022,18.9979498 L3.31622777,19.9486833 C2.79228445,20.1233311 2.22596447,19.8401711 2.0513167,19.3162278 C1.88914377,18.829709 2.12171324,18.3066511 2.57526322,18.094578 L2.68377223,18.0513167 L5.43388295,17.1344034 C5.23913846,16.4562941 5.1060036,15.7408038 5.04256782,14.9999532 L2,15 C1.44771525,15 1,14.5522847 1,14 C1,13.4871642 1.38604019,13.0644928 1.88337887,13.0067277 L2,13 L5.04265349,12.9990468 C5.10612342,12.2585524 5.23922608,11.5434008 5.43388295,10.8655966 L2.68377223,9.9486833 C2.15982892,9.77403553 1.87666893,9.20771555 2.0513167,8.68377223 C2.20101479,8.23467796 2.63847205,7.96248573 3.09035159,8.00386398 L3.20346376,8.02082035 L3.31622777,8.0513167 L6.17059022,9.00205015 C6.69094769,7.99559151 7.3656126,7.13009834 8.15521664,6.46407068 C8.05274154,6.15629638 8,5.83206463 8,5.5 C8,4.90602422 8.16485072,4.35308952 8.45440776,3.8701326 L7.29289322,2.70710678 C6.90236893,2.31658249 6.90236893,1.68341751 7.29289322,1.29289322 C7.65337718,0.932409257 8.22060824,0.904679722 8.61289944,1.20970461 Z M12,7 C9.3112915,7 7,10.081722 7,14 C7,17.918278 9.3112915,21 12,21 C14.6887085,21 17,17.918278 17,14 C17,10.081722 14.6887085,7 12,7 Z M12,4 C10.9251796,4 10.1003113,4.63559637 10.0085076,5.36480207 C10.6377749,5.12700151 11.3052372,5 12,5 C12.6947628,5 13.3622251,5.12700151 13.9904008,5.36319367 C13.8996887,4.63559637 13.0748204,4 12,4 Z"/>
</svg>
