<svg xmlns="http://www.w3.org/2000/svg" width="24" height="24" viewBox="0 0 24 24">
  <path d="M17,1 C17.5128358,1 17.9355072,1.38604019 17.9932723,1.88337887 L18,2 L18,3 L19,3 C20.5976809,3 21.9036609,4.24891996 21.9949073,5.82372721 L22,6 L22,18 C22,19.5976809 20.75108,20.9036609 19.1762728,20.9949073 L19,21 L5,21 C3.40231912,21 2.09633912,19.75108 2.00509269,18.1762728 L2,18 L2,6 C2,4.40231912 3.24891996,3.09633912 4.82372721,3.00509269 L5,3 L6,3 L6,2 C6,1.44771525 6.44771525,1 7,1 C7.51283584,1 7.93550716,1.38604019 7.99327227,1.88337887 L8,2 L8,3 L16,3 L16,2 C16,1.44771525 16.4477153,1 17,1 Z M20,11 L4,11 L4,18 C4,18.5128358 4.38604019,18.9355072 4.88337887,18.9932723 L5,19 L19,19 C19.5128358,19 19.9355072,18.6139598 19.9932723,18.1166211 L20,18 L20,11 Z M19,5 L5,5 C4.48716416,5 4.06449284,5.38604019 4.00672773,5.88337887 L4,6 L4,9 L20,9 L20,6 C20,5.48716416 19.6139598,5.06449284 19.1166211,5.00672773 L19,5 Z"/>
</svg>
