<svg xmlns="http://www.w3.org/2000/svg" width="24" height="24" viewBox="0 0 24 24">
  <path d="M16,4.17 C16.4231351,4.17 16.7723166,4.4866327 16.8235331,4.89588656 L16.83,5 L16.83,6.17 L17,6.17 C18.5050782,6.17 19.7357397,7.34491782 19.8248352,8.82760429 L19.83,9 L19.83,17 C19.83,18.5050782 18.6550822,19.7357397 17.1723957,19.8248352 L17,19.83 L7,19.83 C5.49492178,19.83 4.26426032,18.6550822 4.1751648,17.1723957 L4.17,17 L4.17,9 C4.17,7.49492178 5.34491782,6.26426032 6.82760429,6.1751648 L7,6.17 L7.17,6.17 L7.17,5 C7.17,4.54160366 7.54160366,4.17 8,4.17 C8.42313509,4.17 8.77231664,4.4866327 8.82353312,4.89588656 L8.83,5 L8.83,6.17 L15.17,6.17 L15.17,5 C15.17,4.54160366 15.5416037,4.17 16,4.17 Z M18.17,11.83 L5.83,11.83 L5.83,17 C5.83,17.6030949 6.28631138,18.0996127 6.87251561,18.1631346 L7,18.17 L17,18.17 C17.6030949,18.17 18.0996127,17.7136886 18.1631346,17.1274844 L18.17,17 L18.17,11.83 Z M17,7.83 L7,7.83 C6.39690505,7.83 5.90038734,8.28631138 5.8368654,8.87251561 L5.83,9 L5.83,10.17 L18.17,10.17 L18.17,9 C18.17,8.39690505 17.7136886,7.90038734 17.1274844,7.8368654 L17,7.83 Z"/>
</svg>
