<svg xmlns="http://www.w3.org/2000/svg" width="24" height="24" viewBox="0 0 24 24">
  <g fill="none" fill-rule="evenodd">
    <polygon points="0 0 24 0 24 24 0 24"/>
    <path fill="#000" fill-rule="nonzero" d="M23,20 C23,21.6568542 21.6568542,23 20,23 C18.3431458,23 17,21.6568542 17,20 L7,20 C7,21.6568542 5.65685425,23 4,23 C2.40231912,23 1.09633912,21.75108 1.00509269,20.1762728 L1,20 L1,12.9852013 C1,12.2240301 1.12414777,11.4679546 1.36755405,10.7467508 L3.14552787,5.47868017 C3.8384794,3.4254587 5.58472808,1.90543631 7.71387758,1.50215517 C9.47599505,1.16839337 10.9004569,1 12,1 C13.0995399,1 14.5239966,1.16839239 16.2861025,1.5021514 C18.4152515,1.905422 20.1615039,3.4254409 20.8544661,5.47866229 L22.632446,10.7467508 C22.8758522,11.4679546 23,12.2240301 23,12.9852013 L23,20 Z M2.99987956,19.4648015 L3,20 C3,20.5522847 3.44771525,21 4,21 C4.51283584,21 4.93550716,20.6139598 4.99327227,20.1166211 L5,20 C4.271376,20 3.58825351,19.8051848 2.99987956,19.4648015 Z M19,20 C19,20.5522847 19.4477153,21 20,21 C20.5522847,21 21,20.5522847 21,20 L21.0011092,19.4642293 C20.4125119,19.8049665 19.7290322,20 19,20 Z M20.7374614,11.386308 L20.5176991,10.7365928 C20.1727747,10.9097663 19.7955801,11.0158192 19.4063751,11.0463598 L19.1715729,11.0555556 L4.82842712,11.0555556 C4.35658849,11.0555556 3.89621019,10.944401 3.48230085,10.7365928 L3.26253861,11.386308 C3.08867698,11.9014536 3,12.4415076 3,12.9852013 L3,16 C3,17.1045695 3.8954305,18 5,18 L19,18 C20.1045695,18 21,17.1045695 21,16 L21,12.9852013 C21,12.4415076 20.911323,11.9014536 20.7374614,11.386308 L20.5176991,10.7365928 L20.7374614,11.386308 Z M6.5,13 C7.32842712,13 8,13.6715729 8,14.5 C8,15.3284271 7.32842712,16 6.5,16 C5.67157288,16 5,15.3284271 5,14.5 C5,13.6715729 5.67157288,13 6.5,13 Z M17.5,13 C18.3284271,13 19,13.6715729 19,14.5 C19,15.3284271 18.3284271,16 17.5,16 C16.6715729,16 16,15.3284271 16,14.5 C16,13.6715729 16.6715729,13 17.5,13 Z M12,3 C11.0447555,3 9.73586945,3.15473053 8.08607888,3.46721654 C6.66664615,3.73607058 5.50248207,4.74941736 5.04051393,6.11823302 L4.14145863,8.78224339 C4.29595554,8.92830432 4.49235228,9.02073048 4.70158193,9.04748195 L4.82842712,9.05555556 L12.1289417,9.05543302 C12.5411369,7.58128292 13.8942948,6.5 15.5,6.5 C17.1057052,6.5 18.4588631,7.58128292 18.8710583,9.05543302 L19.1715729,9.05555556 C19.3925866,9.05555556 19.6060569,8.98239108 19.7796024,8.84947493 L19.857,8.78 L18.9594815,6.11821958 C18.4975068,4.74940557 17.3333401,3.73606103 15.9139062,3.46721371 C14.2641226,3.15472959 12.9552416,3 12,3 Z M15.5,8.5 C15.0300269,8.5 14.6105355,8.71613768 14.3355037,9.05443511 L16.6644963,9.05443511 C16.3894645,8.71613768 15.9699731,8.5 15.5,8.5 Z"/>
  </g>
</svg>
