<svg xmlns="http://www.w3.org/2000/svg" width="19" height="14" viewBox="0 0 19 14">
  <g fill="none" fill-rule="evenodd">
    <polygon points="0 0 19 0 19 14 0 14"/>
    <path fill="#000" fill-rule="nonzero" d="M9.5,2 C13.5375661,2 17,6 17,7 C17,8 13.5375661,12 9.5,12 C5.46243388,12 2,8 2,7 C2,6 5.46243388,2 9.5,2 Z M9.5,3.5 C7.56700338,3.5 6,5.06700338 6,7 C6,8.93299662 7.56700338,10.5 9.5,10.5 C11.4329966,10.5 13,8.93299662 13,7 C13,5.06700338 11.4329966,3.5 9.5,3.5 Z M9.5,5.25 C10.4664983,5.25 11.25,6.03350169 11.25,7 C11.25,7.96649831 10.4664983,8.75 9.5,8.75 C8.53350169,8.75 7.75,7.96649831 7.75,7 C7.75,6.03350169 8.53350169,5.25 9.5,5.25 Z"/>
  </g>
</svg>
