<svg xmlns="http://www.w3.org/2000/svg" width="24" height="24" viewBox="0 0 24 24">
  <path d="M12,0 C18.627417,0 24,5.372583 24,12 C24,18.627417 18.627417,24 12,24 C5.372583,24 0,18.627417 0,12 C0,5.372583 5.372583,0 12,0 Z M12,1.66 C6.28937569,1.66 1.66,6.28937569 1.66,12 C1.66,17.7106243 6.28937569,22.34 12,22.34 C17.7106243,22.34 22.34,17.7106243 22.34,12 C22.34,6.28937569 17.7106243,1.66 12,1.66 Z M12.9957579,6.05904069 C13.5159929,5.19198237 14.6406163,4.91082651 15.5076746,5.43106151 C15.5932491,5.48240622 15.6744104,5.54061837 15.7503725,5.60508441 L15.8603181,5.70639721 L18.293754,8.13983316 C19.0087487,8.85482776 19.0087487,10.0140631 18.293754,10.7290577 C18.2231875,10.7996242 18.1470289,10.8642437 18.0660641,10.9223024 L17.9411106,11.0043934 L16.027,12.153 L16.056967,12.3644194 C16.2051815,13.6585733 15.7214156,14.9354938 14.6527815,16.1559196 L14.4455702,16.3840778 L14.2486077,16.5870499 C13.9514838,16.8841738 13.4851348,16.9089341 13.1598068,16.6613309 L13.0748104,16.5870499 L10.83,14.342 L7.58689863,17.5868986 C7.26276347,17.9110338 6.73723653,17.9110338 6.41310137,17.5868986 C6.11597747,17.2897747 6.09121715,16.8234258 6.3388204,16.4980977 L6.41310137,16.4131014 L9.657,13.169 L7.41310137,10.9253408 C7.11597747,10.6282169 7.09121715,10.161868 7.3388204,9.83653994 L7.41310137,9.75154358 C8.69145112,8.47319384 10.038445,7.84518915 11.4073808,7.92357049 L11.6357319,7.94318426 L11.847,7.972 L12.9957579,6.05904069 Z M14.6536117,6.85449976 C14.5888796,6.81566052 14.5087643,6.8246849 14.4544503,6.87127674 L14.4191961,6.91310365 L12.9555748,9.35247255 C12.7554257,9.68605435 12.3504433,9.8358671 11.9813866,9.71284821 C11.1809897,9.44604924 10.3732059,9.5746624 9.52006457,10.1442511 L9.33654048,10.273072 L9.207,10.372 L13.627,14.792 L13.7270793,14.6636108 C14.3146956,13.8652114 14.5192769,13.1082599 14.3773037,12.3623549 L14.3384054,12.1904052 L14.287303,12.0187646 C14.176586,11.6866136 14.2868627,11.3253628 14.5532063,11.1105254 L14.6476787,11.0445765 L17.10429,9.56911679 L17.1199568,9.55526042 C17.1733362,9.50188099 17.1840121,9.42196899 17.1519844,9.35797653 L17.1199568,9.31363041 L14.6865208,6.88019447 L14.6536117,6.85449976 Z"/>
</svg>
