<svg width="24" height="24" viewBox="0 0 24 24" fill="none" xmlns="http://www.w3.org/2000/svg">
<path fill-rule="evenodd" clip-rule="evenodd" d="M8.8 2H8.7587H8.75868C7.95372 1.99999 7.28937 1.99998 6.74818 2.04419C6.18608 2.09012 5.66938 2.18868 5.18404 2.43598C4.43139 2.81947 3.81947 3.43139 3.43598 4.18404C3.18869 4.66937 3.09012 5.18608 3.0442 5.74818C2.99998 6.28936 2.99999 6.9537 3 7.75865V7.7587V7.8V17C3 17.5523 3.44772 18 4 18C4.55229 18 5 17.5523 5 17V7.8C5 6.94342 5.00078 6.36113 5.03755 5.91104C5.07337 5.47262 5.1383 5.24842 5.21799 5.09202C5.40974 4.7157 5.7157 4.40974 6.09202 4.21799C6.24842 4.1383 6.47262 4.07337 6.91104 4.03755C7.36113 4.00078 7.94342 4 8.8 4H14C14.5523 4 15 3.55229 15 3C15 2.44772 14.5523 2 14 2H8.8ZM10.2 5L10.1615 5H10.1615C9.63431 4.99998 9.17955 4.99997 8.80497 5.03057C8.40963 5.06287 8.01641 5.13419 7.63803 5.32698C7.07354 5.6146 6.6146 6.07354 6.32698 6.63803C6.13419 7.01641 6.06287 7.40963 6.03057 7.80497C5.99997 8.17954 5.99998 8.63431 6 9.16145V9.16146L6 9.2V17.8L6 17.8385C5.99998 18.3657 5.99997 18.8205 6.03057 19.195C6.06287 19.5904 6.13419 19.9836 6.32698 20.362C6.6146 20.9265 7.07354 21.3854 7.63803 21.673C8.01641 21.8658 8.40963 21.9371 8.80497 21.9694C9.17954 22 9.6343 22 10.1614 22H10.2H15.8H15.8386C16.3657 22 16.8205 22 17.195 21.9694C17.5904 21.9371 17.9836 21.8658 18.362 21.673C18.9265 21.3854 19.3854 20.9265 19.673 20.362C19.8658 19.9836 19.9371 19.5904 19.9694 19.195C20 18.8205 20 18.3657 20 17.8386V17.8385V17.8V9.2V9.16148V9.16136C20 8.63425 20 8.17952 19.9694 7.80497C19.9371 7.40963 19.8658 7.01641 19.673 6.63803C19.3854 6.07354 18.9265 5.6146 18.362 5.32698C17.9836 5.13419 17.5904 5.06287 17.195 5.03057C16.8205 4.99997 16.3657 4.99998 15.8385 5L15.8 5H10.2ZM8.54601 7.10899C8.59546 7.0838 8.69618 7.04612 8.96784 7.02393C9.25118 7.00078 9.62345 7 10.2 7H15.8C16.3766 7 16.7488 7.00078 17.0322 7.02393C17.3038 7.04612 17.4045 7.0838 17.454 7.10899C17.6422 7.20487 17.7951 7.35785 17.891 7.54601C17.9162 7.59545 17.9539 7.69617 17.9761 7.96784C17.9992 8.25117 18 8.62345 18 9.2V17.8C18 18.3766 17.9992 18.7488 17.9761 19.0322C17.9539 19.3038 17.9162 19.4045 17.891 19.454C17.7951 19.6422 17.6422 19.7951 17.454 19.891C17.4045 19.9162 17.3038 19.9539 17.0322 19.9761C16.7488 19.9992 16.3766 20 15.8 20H10.2C9.62345 20 9.25118 19.9992 8.96784 19.9761C8.69618 19.9539 8.59546 19.9162 8.54601 19.891C8.35785 19.7951 8.20487 19.6422 8.109 19.454C8.0838 19.4045 8.04613 19.3038 8.02393 19.0322C8.00078 18.7488 8 18.3766 8 17.8V9.2C8 8.62345 8.00078 8.25117 8.02393 7.96784C8.04613 7.69617 8.0838 7.59545 8.109 7.54601C8.20487 7.35785 8.35785 7.20487 8.54601 7.10899Z" fill="black"/>
</svg>
