<svg width="24" height="24" viewBox="0 0 24 24" fill="none" xmlns="http://www.w3.org/2000/svg">
<path fill-rule="evenodd" clip-rule="evenodd" d="M5.34763 6.3327C5.06638 6.62362 5 6.84762 5 7C5 7.15238 5.06638 7.37638 5.34763 7.6673C5.63353 7.96302 6.09551 8.27502 6.74396 8.55872C8.03791 9.12482 9.89543 9.5 12 9.5C14.1046 9.5 15.9621 9.12482 17.256 8.55872C17.9045 8.27502 18.3665 7.96302 18.6524 7.6673C18.9336 7.37638 19 7.15238 19 7C19 6.84762 18.9336 6.62362 18.6524 6.3327C18.3665 6.03698 17.9045 5.72498 17.256 5.44128C15.9621 4.87518 14.1046 4.5 12 4.5C9.89543 4.5 8.03791 4.87518 6.74396 5.44128C6.09551 5.72498 5.63353 6.03698 5.34763 6.3327ZM3.90973 4.94258C3.38133 5.48914 3 6.18589 3 7V12V17C3 17.8141 3.38133 18.5109 3.90973 19.0574C4.43348 19.5992 5.14307 20.0414 5.94233 20.391C7.54381 21.0917 9.6863 21.5 12 21.5C14.3137 21.5 16.4562 21.0917 18.0577 20.391C18.8569 20.0414 19.5665 19.5992 20.0903 19.0574C20.6187 18.5109 21 17.8141 21 17V12V7C21 6.18589 20.6187 5.48914 20.0903 4.94258C19.5665 4.40083 18.8569 3.95864 18.0577 3.60897C16.4562 2.90832 14.3137 2.5 12 2.5C9.6863 2.5 7.54381 2.90832 5.94233 3.60897C5.14307 3.95864 4.43348 4.40083 3.90973 4.94258ZM19 12V9.90711C18.7059 10.0847 18.3895 10.2458 18.0577 10.391C16.4562 11.0917 14.3137 11.5 12 11.5C9.6863 11.5 7.54381 11.0917 5.94233 10.391C5.61046 10.2458 5.29406 10.0847 5 9.90711V12C5 12.1524 5.06638 12.3764 5.34763 12.6673C5.63353 12.963 6.09551 13.275 6.74396 13.5587C8.03791 14.1248 9.89543 14.5 12 14.5C14.1046 14.5 15.9621 14.1248 17.256 13.5587C17.9045 13.275 18.3665 12.963 18.6524 12.6673C18.9336 12.3764 19 12.1524 19 12ZM5 14.9071C5.29406 15.0847 5.61046 15.2458 5.94233 15.391C7.54381 16.0917 9.6863 16.5 12 16.5C14.3137 16.5 16.4562 16.0917 18.0577 15.391C18.3895 15.2458 18.7059 15.0847 19 14.9071V17C19 17.1524 18.9336 17.3764 18.6524 17.6673C18.3665 17.963 17.9045 18.275 17.256 18.5587C15.9621 19.1248 14.1046 19.5 12 19.5C9.89543 19.5 8.03791 19.1248 6.74396 18.5587C6.09551 18.275 5.63353 17.963 5.34763 17.6673C5.06638 17.3764 5 17.1524 5 17V14.9071Z" fill="black"/>
</svg>
