<svg xmlns="http://www.w3.org/2000/svg" width="24" height="24" viewBox="0 0 24 24">
  <path d="M21,3 L7.10849528,3 C6.07412518,3 5.11271543,3.53285909 4.56450037,4.41000318 L0.814500371,10.4100032 C0.206493587,11.382814 0.206493587,12.617186 0.814500371,13.5899968 L4.56450037,19.5899968 C5.11271543,20.4671409 6.07412518,21 7.10849528,21 L21,21 C22.6568542,21 24,19.6568542 24,18 L24,6 C24,4.34314575 22.6568542,3 21,3 Z M21,5 C21.5522847,5 22,5.44771525 22,6 L22,18 C22,18.5522847 21.5522847,19 21,19 L7.10849528,19 C6.76370525,19 6.44323533,18.8223803 6.26049698,18.5299989 L2.51049698,12.5299989 C2.30782805,12.2057287 2.30782805,11.7942713 2.51049698,11.4700011 L6.26049698,5.47000106 C6.44323533,5.1776197 6.76370525,5 7.10849528,5 L21,5 Z M9.705,7.705 C9.31563925,8.09436075 9.31563925,8.72563925 9.705,9.115 L12.59,12 L9.705,14.885 C9.31563925,15.2743607 9.31563925,15.9056393 9.705,16.295 C10.0943607,16.6843607 10.7256393,16.6843607 11.115,16.295 L14,13.41 L16.885,16.295 C17.2743607,16.6843607 17.9056393,16.6843607 18.295,16.295 C18.6843607,15.9056393 18.6843607,15.2743607 18.295,14.885 L15.41,12 L18.295,9.115 C18.6843607,8.72563925 18.6843607,8.09436075 18.295,7.705 C17.9056393,7.31563925 17.2743607,7.31563925 16.885,7.705 L14,10.59 L11.115,7.705 C10.7256393,7.31563925 10.0943607,7.31563925 9.705,7.705 Z"/>
</svg>
