<svg width="24" height="24" viewBox="0 0 24 24" fill="none" xmlns="http://www.w3.org/2000/svg">
<path fill-rule="evenodd" clip-rule="evenodd" d="M10.5 6.5C10.5 5.11929 11.6193 4 13 4C14.3807 4 15.5 5.11929 15.5 6.5C15.5 7.88071 14.3807 9 13 9C11.6193 9 10.5 7.88071 10.5 6.5ZM13 2C10.5147 2 8.5 4.01472 8.5 6.5C8.5 8.98528 10.5147 11 13 11C15.4853 11 17.5 8.98528 17.5 6.5C17.5 4.01472 15.4853 2 13 2ZM7.98137 15.1362C9.07471 14.5358 10.6909 14 13 14C17.0223 14 18.976 15.6273 19.7247 16.4615C19.892 16.6479 20 16.9508 20 17.3867C20 18.2777 19.2777 19 18.3867 19H11.5C10.9477 19 10.5 19.4477 10.5 20C10.5 20.5523 10.9477 21 11.5 21H18.3867C20.3823 21 22 19.3823 22 17.3867C22 16.6589 21.8232 15.8053 21.2132 15.1256C20.1266 13.9149 17.6495 12 13 12C10.3661 12 8.41717 12.6151 7.01864 13.3832C6.53455 13.649 6.35763 14.257 6.62348 14.7411C6.88934 15.2252 7.49728 15.4021 7.98137 15.1362ZM9.20711 16.7929C9.59763 17.1834 9.59763 17.8166 9.20711 18.2071L7.41421 20L9.20711 21.7929C9.59763 22.1834 9.59763 22.8166 9.20711 23.2071C8.81658 23.5976 8.18342 23.5976 7.79289 23.2071L6 21.4142L4.20711 23.2071C3.81658 23.5976 3.18342 23.5976 2.79289 23.2071C2.40237 22.8166 2.40237 22.1834 2.79289 21.7929L4.58579 20L2.79289 18.2071C2.40237 17.8166 2.40237 17.1834 2.79289 16.7929C3.18342 16.4024 3.81658 16.4024 4.20711 16.7929L6 18.5858L7.79289 16.7929C8.18342 16.4024 8.81658 16.4024 9.20711 16.7929Z" fill="black"/>
</svg>
