<svg xmlns="http://www.w3.org/2000/svg" width="96" height="96" viewBox="0 0 96 96">
  <path d="M48.6862915,8 C51.8688894,8 54.9211363,9.26428208 57.1715729,11.5147186 L84.4852814,38.8284271 C86.7357179,41.0788637 88,44.1311106 88,47.3137085 L88,76 C88,82.627417 82.627417,88 76,88 L20,88 C13.372583,88 8,82.627417 8,76 L8,20 C8,13.372583 13.372583,8 20,8 L48.6862915,8 Z M44,16 L20,16 C17.790861,16 16,17.790861 16,20 L16,76 C16,78.209139 17.790861,80 20,80 L76,80 C78.209139,80 80,78.209139 80,76 L80,52 L56,52 C49.4745433,52 44.1656072,46.7914556 44.0037999,40.3049748 L44,40 L44,16 Z M78.343,44 L52,17.657 L52,40 C52,42.1421954 53.6839685,43.8910789 55.8003597,43.9951047 L56,44 L78.343,44 Z"/>
</svg>
