<svg xmlns="http://www.w3.org/2000/svg" width="96" height="96" viewBox="0 0 96 96">
  <path d="M76,8 C82.627417,8 88,13.372583 88,20 L88,76 C88,82.627417 82.627417,88 76,88 L20,88 C13.372583,88 8,82.627417 8,76 L8,20 C8,13.372583 13.372583,8 20,8 L76,8 Z M35.8361575,57.861347 L35.5877883,57.6808378 C34.751588,57.166272 33.6853326,57.3408635 33.0521399,58.0467158 L32.8362876,58.3360048 L19.5213331,79.9716552 L19.7587769,79.9928462 L19.7587769,79.9928462 L49.784,80 L36.2356181,58.3241738 C36.1266492,58.1498236 35.9917841,57.9938483 35.8361575,57.861347 L35.5877883,57.6808378 L35.8361575,57.861347 Z M62.6323048,48.7706288 C61.7905211,48.2652486 60.726241,48.4515033 60.1008141,49.1642455 L59.8881419,49.4558804 L50.204,65.584 L59.212,80 L76,80 C78.1642489,80 79.927046,78.2811808 79.9977931,76.1341408 L63.2988458,49.4253382 C63.1314711,49.1575387 62.9030588,48.9331808 62.6323048,48.7706288 Z M76,16 L20,16 C17.790861,16 16,17.790861 16,20 L16,70.424 L26.0229521,54.1433374 C28.7967836,49.6356953 34.5692106,48.1009094 39.1852615,50.5283309 L39.7804557,50.8675024 C40.8748585,51.5409562 41.8271194,52.4177187 42.5870947,53.447994 L43.0196045,54.0841823 L45.444,57.968 L53.0293127,45.338058 C55.7536274,40.8003176 61.5089053,39.2024261 66.1512554,41.5791647 L66.7501273,41.9117996 C67.8782688,42.5890997 68.8593907,43.4810034 69.6393959,44.5343736 L70.0828322,45.1853467 L80,61.056 L80,20 C80,17.790861 78.209139,16 76,16 Z"/>
</svg>
