<svg width="24" height="24" viewBox="0 0 24 24" fill="none" xmlns="http://www.w3.org/2000/svg">
<path fill-rule="evenodd" clip-rule="evenodd" d="M19.4142 3C18.6332 2.21895 17.3668 2.21895 16.5858 3L14.2939 5.29185C14.2936 5.2922 14.2932 5.29255 14.2929 5.29289L13.2929 6.29289L3.29289 16.2929C3.10536 16.4804 3 16.7348 3 17V20C3 20.2652 3.10536 20.5196 3.29289 20.7071C3.48043 20.8946 3.73478 21 4 21H7C7.26522 21 7.51957 20.8946 7.70711 20.7071L17.7071 10.7071L18.7071 9.70711L21 7.41422C21.781 6.63317 21.781 5.36684 21 4.58579L19.4142 3ZM18 7.58579L19.5858 6L18 4.41422L16.4142 6L18 7.58579ZM15 7.41421L14.7071 7.70711L5 17.4142V19H6.58579L16.2929 9.29289L16.5858 9L15 7.41421Z" fill="black"/>
</svg>
