<svg width="24" height="24" viewBox="0 0 24 24" fill="none" xmlns="http://www.w3.org/2000/svg">
<path fill-rule="evenodd" clip-rule="evenodd" d="M19 3C19 2.44772 18.5523 2 18 2C17.4477 2 17 2.44772 17 3V12.8C17 13.3766 16.9992 13.7488 16.9761 14.0322C16.9539 14.3038 16.9162 14.4045 16.891 14.454C16.7951 14.6422 16.6422 14.7951 16.454 14.891C16.4045 14.9162 16.3038 14.9539 16.0322 14.9761C15.7488 14.9992 15.3766 15 14.8 15H6.41421L9.70711 11.7071C10.0976 11.3166 10.0976 10.6834 9.70711 10.2929C9.31658 9.90237 8.68342 9.90237 8.29289 10.2929L3.29289 15.2929C2.90237 15.6834 2.90237 16.3166 3.29289 16.7071L8.29289 21.7071C8.68342 22.0976 9.31658 22.0976 9.70711 21.7071C10.0976 21.3166 10.0976 20.6834 9.70711 20.2929L6.41421 17H14.8H14.8385H14.8386C15.3657 17 15.8205 17 16.195 16.9694C16.5904 16.9371 16.9836 16.8658 17.362 16.673C17.9265 16.3854 18.3854 15.9265 18.673 15.362C18.8658 14.9836 18.9371 14.5904 18.9694 14.195C19 13.8205 19 13.3657 19 12.8386V12.8385V12.8V3Z" fill="black"/>
</svg>
