<svg xmlns="http://www.w3.org/2000/svg" width="24" height="24" viewBox="0 0 24 24">
  <g fill="none" fill-rule="evenodd">
    <polygon points="0 0 24 0 24 24 0 24"/>
    <path fill="#000" fill-rule="nonzero" d="M11.728722,2.98520942 L12.2522683,3.2714636 C14.1464278,4.25646622 16.3810505,4.37155661 18.3726234,3.57607515 L19.6290707,3.07422027 C20.2858685,2.81187966 21,3.29562903 21,4.00288138 L21,14.0345766 C21,14.4456614 20.748424,14.8148664 20.3658358,14.965256 L19.1102288,15.4588159 C16.5628801,16.4601397 13.7117398,16.3039614 11.294742,15.0424643 L10.7570644,14.7512393 C8.95846405,13.8320277 6.83238229,13.7944773 4.99997072,14.6545871 L5,22 C5,22.5522847 4.55228475,23 4,23 C3.48716416,23 3.06449284,22.6139598 3.00672773,22.1166211 L3,22 L3,4 C3,3.91522953 3.01054788,3.83292264 3.03040277,3.7543202 L3.0695609,3.63638303 L3.0695609,3.63638303 C3.16299938,3.39119764 3.35513878,3.19091664 3.59773272,3.08420272 L3.94775911,2.91068314 C6.40752273,1.67902945 9.30407612,1.7121916 11.728722,2.98520942 Z M5.00098925,4.62264644 L5,12.4992604 L5.30117775,12.4020629 C7.41860196,11.760018 9.72089608,11.961226 11.7110378,12.992885 L12.2498741,13.2848643 C14.1480415,14.2646822 16.3817459,14.382373 18.3785571,13.5974571 L19,13.3531774 L19,5.47825595 L18.6963738,5.58896504 C16.2568709,6.43105913 13.5743903,6.22788469 11.2876024,5.02394474 L10.7609732,4.73617574 C8.96458273,3.80805754 6.83600787,3.76448514 5.00098925,4.62264644 Z"/>
  </g>
</svg>
