<svg width="24" height="24" viewBox="0 0 24 24" fill="none" xmlns="http://www.w3.org/2000/svg">
<path fill-rule="evenodd" clip-rule="evenodd" d="M9.00588 4C9.42036 4 9.46462 4.00643 9.49539 4.01381C9.54641 4.02606 9.59518 4.04626 9.63992 4.07368C9.6669 4.09021 9.70274 4.11696 9.99583 4.41005L11.5899 6.00416L11.6392 6.05348L11.6392 6.05348C11.8485 6.26343 12.0593 6.4749 12.3151 6.6316C12.5387 6.76867 12.7826 6.86968 13.0377 6.93092C13.3293 7.00094 13.6279 7.0005 13.9244 7.00007L13.9941 7H17.2C18.0566 7 18.6389 7.00078 19.0889 7.03755C19.5274 7.07337 19.7516 7.1383 19.908 7.21799C20.2843 7.40973 20.5903 7.71569 20.782 8.09202C20.8617 8.24842 20.9266 8.47262 20.9624 8.91104C20.9992 9.36113 21 9.94342 21 10.8V15.2C21 16.0566 20.9992 16.6389 20.9624 17.089C20.9266 17.5274 20.8617 17.7516 20.782 17.908C20.5903 18.2843 20.2843 18.5903 19.908 18.782C19.7516 18.8617 19.5274 18.9266 19.0889 18.9624C18.6389 18.9992 18.0566 19 17.2 19H6.79999C5.94341 19 5.36112 18.9992 4.91103 18.9624C4.47262 18.9266 4.24841 18.8617 4.09201 18.782C3.71569 18.5903 3.40973 18.2843 3.21798 17.908C3.13829 17.7516 3.07336 17.5274 3.03754 17.089C3.00077 16.6389 2.99999 16.0566 2.99999 15.2V7.8C2.99999 6.94342 3.00077 6.36113 3.03754 5.91104C3.07336 5.47262 3.13829 5.24842 3.21798 5.09202C3.40973 4.71569 3.71569 4.40973 4.09201 4.21799C4.24841 4.1383 4.47262 4.07337 4.91103 4.03755C5.36112 4.00078 5.94341 4 6.79999 4H9.00588ZM9.96228 2.06907C9.67066 1.99906 9.37203 1.9995 9.07556 1.99993L9.00588 2H6.79999L6.75869 2C5.95372 1.99999 5.28936 1.99997 4.74817 2.04419C4.18607 2.09012 3.66937 2.18868 3.18403 2.43597C2.43138 2.81947 1.81946 3.43139 1.43597 4.18404C1.18868 4.66937 1.09011 5.18608 1.04419 5.74817C0.99997 6.28937 0.99998 6.95373 0.999993 7.7587L0.999993 7.8V15.2L0.999993 15.2413C0.99998 16.0463 0.99997 16.7106 1.04419 17.2518C1.09011 17.8139 1.18868 18.3306 1.43597 18.816C1.81946 19.5686 2.43138 20.1805 3.18403 20.564C3.66937 20.8113 4.18607 20.9099 4.74817 20.9558C5.28936 21 5.95371 21 6.75867 21H6.79999H17.2H17.2413C18.0463 21 18.7106 21 19.2518 20.9558C19.8139 20.9099 20.3306 20.8113 20.8159 20.564C21.5686 20.1805 22.1805 19.5686 22.564 18.816C22.8113 18.3306 22.9099 17.8139 22.9558 17.2518C23 16.7106 23 16.0463 23 15.2413V15.2V10.8V10.7587C23 9.95372 23 9.28936 22.9558 8.74817C22.9099 8.18608 22.8113 7.66937 22.564 7.18404C22.1805 6.43139 21.5686 5.81947 20.8159 5.43597C20.3306 5.18868 19.8139 5.09012 19.2518 5.04419C18.7106 4.99997 18.0463 4.99999 17.2413 5L17.2 5H13.9941C13.5796 5 13.5354 4.99357 13.5046 4.98618C13.4536 4.97394 13.4048 4.95373 13.3601 4.92632C13.3331 4.90978 13.2972 4.88303 13.0042 4.58995L11.41 2.99584L11.3608 2.94651C11.1515 2.73657 10.9406 2.5251 10.6849 2.3684C10.4612 2.23133 10.2174 2.13032 9.96228 2.06907ZM5.49999 10C4.94771 10 4.49999 10.4477 4.49999 11C4.49999 11.5523 4.94771 12 5.49999 12H18.5C19.0523 12 19.5 11.5523 19.5 11C19.5 10.4477 19.0523 10 18.5 10H5.49999Z" fill="black"/>
</svg>
