<svg width="24" height="24" viewBox="0 0 24 24" fill="none" xmlns="http://www.w3.org/2000/svg">
<path fill-rule="evenodd" clip-rule="evenodd" d="M11.3167 1.98523C11.7458 1.76565 12.2542 1.76565 12.6833 1.98523C13.0685 2.18235 13.2596 2.53273 13.3476 2.70316C13.4468 2.89541 13.5483 3.14354 13.6518 3.39674L13.666 3.43133L17.4255 12.6214C17.6347 13.1325 17.3898 13.7164 16.8786 13.9255C16.3675 14.1347 15.7836 13.8898 15.5745 13.3786L14.6014 11H9.39863L8.42555 13.3786C8.21644 13.8898 7.63253 14.1347 7.12137 13.9255C6.6102 13.7164 6.36534 13.1325 6.57445 12.6214L10.334 3.43133L10.3482 3.39674C10.4517 3.14354 10.5532 2.89541 10.6524 2.70316C10.7404 2.53273 10.9315 2.18235 11.3167 1.98523ZM12 4.64108L13.7832 9H10.2168L12 4.64108ZM7.50078 4.00008C8.05307 3.99965 8.50043 3.55158 8.5 2.9993C8.49957 2.44701 8.05151 1.99965 7.49922 2.00008C6.76812 2.00065 6.15458 2.00488 5.64437 2.05335C5.12264 2.10292 4.63993 2.20369 4.18404 2.43597C3.43139 2.81947 2.81947 3.43139 2.43598 4.18404C2.18868 4.66937 2.09012 5.18608 2.04419 5.74817C1.99998 6.28937 1.99999 6.95372 2 7.75868V7.7587V7.8V22C2 22.4045 2.24364 22.7691 2.61732 22.9239C2.99099 23.0787 3.42111 22.9931 3.70711 22.7071L6.76985 19.6444C7.14941 19.2648 7.22849 19.1948 7.30593 19.1474C7.3954 19.0925 7.49295 19.0521 7.59498 19.0276C7.6833 19.0064 7.78871 19 8.32548 19H16.2H16.2413C17.0463 19 17.7106 19 18.2518 18.9558C18.8139 18.9099 19.3306 18.8113 19.816 18.564C20.5686 18.1805 21.1805 17.5686 21.564 16.816C21.8113 16.3306 21.9099 15.8139 21.9558 15.2518C22 14.7106 22 14.0463 22 13.2413V13.2V7.8V7.75868C22 6.95372 22 6.28936 21.9558 5.74817C21.9099 5.18608 21.8113 4.66937 21.564 4.18404C21.1805 3.43139 20.5686 2.81947 19.816 2.43598C19.3601 2.20369 18.8774 2.10292 18.3556 2.05335C17.8454 2.00488 17.2319 2.00065 16.5008 2.00008C15.9485 1.99965 15.5004 2.44701 15.5 2.9993C15.4996 3.55158 15.9469 3.99965 16.4992 4.00008C17.2506 4.00066 17.7669 4.00643 18.1665 4.04439C18.5545 4.08125 18.7615 4.14336 18.908 4.21799C19.2843 4.40973 19.5903 4.71569 19.782 5.09202C19.8617 5.24842 19.9266 5.47262 19.9624 5.91104C19.9992 6.36113 20 6.94342 20 7.8V13.2C20 14.0566 19.9992 14.6389 19.9624 15.089C19.9266 15.5274 19.8617 15.7516 19.782 15.908C19.5903 16.2843 19.2843 16.5903 18.908 16.782C18.7516 16.8617 18.5274 16.9266 18.089 16.9624C17.6389 16.9992 17.0566 17 16.2 17H8.32548L8.24218 16.9999C7.83528 16.9996 7.47654 16.9992 7.12809 17.0829C6.82198 17.1564 6.52935 17.2776 6.26093 17.4421L6.78343 18.2947L6.26093 17.4421C5.95539 17.6293 5.70195 17.8832 5.4145 18.1712L5.35564 18.2302L4 19.5858V7.8C4 6.94342 4.00078 6.36113 4.03755 5.91104C4.07337 5.47262 4.1383 5.24842 4.21799 5.09202C4.40974 4.7157 4.7157 4.40973 5.09202 4.21799C5.23848 4.14336 5.4455 4.08125 5.83353 4.04439C6.23308 4.00643 6.74935 4.00066 7.50078 4.00008Z" fill="black"/>
</svg>
