<svg xmlns="http://www.w3.org/2000/svg" viewBox="0 0 20 21.18"><defs><style>.cls-1{fill-rule:evenodd;}</style></defs><g id="Слой_2" data-name="Слой 2"><g id="fontsize"><path class="cls-1" d="M9.32.16a1.55,1.55,0,0,1,1.36,0,1.61,1.61,0,0,1,.67.72,7,7,0,0,1,.3.7l0,0,3.76,9.19a1,1,0,0,1-1.86.76l-1-2.38H7.4l-1,2.38a1,1,0,0,1-1.86-.76L8.33,1.61l0,0a7,7,0,0,1,.3-.7A1.61,1.61,0,0,1,9.32.16ZM10,2.82l1.78,4.36H8.22ZM5.5,2.18a1,1,0,0,0,0-2c-.73,0-1.35,0-1.86.05A3.86,3.86,0,0,0,2.18.62,4,4,0,0,0,.44,2.36,4.18,4.18,0,0,0,0,3.93c0,.54,0,1.2,0,2H0V20.18a1,1,0,0,0,.62.92,1,1,0,0,0,1.09-.21l3.06-3.07a2.79,2.79,0,0,1,.54-.49.77.77,0,0,1,.28-.12,3.81,3.81,0,0,1,.74,0h7.91c.81,0,1.47,0,2,0a4.18,4.18,0,0,0,1.57-.4A4,4,0,0,0,19.56,15a4.18,4.18,0,0,0,.4-1.57c0-.54,0-1.2,0-2V5.94c0-.81,0-1.47,0-2a4.18,4.18,0,0,0-.4-1.57A4,4,0,0,0,17.82.62,3.86,3.86,0,0,0,16.36.23C15.85.18,15.23.18,14.5.18a1,1,0,1,0,0,2c.75,0,1.27,0,1.67,0a2,2,0,0,1,.74.18,2,2,0,0,1,.87.87,2.06,2.06,0,0,1,.18.82c0,.45,0,1,0,1.89v5.4c0,.86,0,1.44,0,1.89a2.06,2.06,0,0,1-.18.82,2,2,0,0,1-.87.87,2.06,2.06,0,0,1-.82.18c-.45,0-1,0-1.89,0h-8a5,5,0,0,0-1.11.08,3.33,3.33,0,0,0-.87.36l.52.85-.52-.85a5.09,5.09,0,0,0-.85.73l-.05.06L2,17.77V6c0-.86,0-1.44,0-1.89a2.06,2.06,0,0,1,.18-.82,2,2,0,0,1,.87-.87,2,2,0,0,1,.74-.18C4.23,2.19,4.75,2.18,5.5,2.18Z"/></g></g></svg>