<svg width="24" height="24" viewBox="0 0 24 24" fill="none" xmlns="http://www.w3.org/2000/svg">
<path fill-rule="evenodd" clip-rule="evenodd" d="M12.532 8.25V6.65731C12.532 5.5015 12.532 4.9236 12.764 4.6454C12.9655 4.40381 13.2688 4.27109 13.583 4.28712C13.9447 4.30557 14.3691 4.6978 15.218 5.48226L20.7285 10.575C21.1701 10.983 21.3909 11.187 21.4727 11.426C21.5446 11.636 21.5446 11.864 21.4727 12.074C21.3909 12.313 21.1701 12.517 20.7285 12.925L15.218 18.0177C14.3691 18.8022 13.9447 19.1944 13.583 19.2129C13.2688 19.2289 12.9655 19.0962 12.764 18.8546C12.532 18.5764 12.532 17.9985 12.532 16.8427V15.25C8.69417 15.25 6.18186 16.5567 4.62771 17.8663C3.66879 18.6743 3.18933 19.0783 2.99111 19.0713C2.80353 19.0647 2.67061 18.9875 2.57177 18.828C2.46733 18.6594 2.56292 18.1372 2.75409 17.0929C3.41769 13.468 5.58027 8.25 12.532 8.25Z" stroke="black" stroke-width="2" stroke-linejoin="round"/>
</svg>
