<svg xmlns="http://www.w3.org/2000/svg" viewBox="0 0 21 16.93"><g id="Layer_2" data-name="Layer 2"><g id="forward"><path d="M12,16.93a2,2,0,0,1-1.54-.72C10,15.65,10,15,10,13.56V13a10.49,10.49,0,0,0-6.26,2.35C2.38,16.5,2,16.82,1.43,16.78a1.47,1.47,0,0,1-1.24-.71c-.3-.5-.21-1,0-2.44C.87,10.18,3,4.49,10,4V3.37C10,2,10,1.28,10.47.72A2,2,0,0,1,12.11,0c.72,0,1.23.51,2.26,1.46l5.51,5.1a3,3,0,0,1,1,1.26,2,2,0,0,1,0,1.29,3,3,0,0,1-1,1.26l-5.51,5.1c-1,.94-1.54,1.42-2.26,1.46Zm-1-6a1,1,0,0,1,1,1v1.6c0,.5,0,1,0,1.3.23-.17.61-.52,1-.86l5.51-5.1c.18-.16.37-.34.46-.44L18.52,8,13,2.93a13,13,0,0,0-1-.86c0,.28,0,.8,0,1.3V5a1,1,0,0,1-1,1c-6,0-8.12,4.37-8.79,8v0l.25-.21A12.87,12.87,0,0,1,11,11Zm.89-9h0Z"/></g></g></svg>