<svg xmlns="http://www.w3.org/2000/svg" width="24" height="24" viewBox="0 0 24 24">
  <g fill="none" fill-rule="evenodd">
    <polygon points="0 0 24 0 24 24 0 24"/>
    <path fill="#000" fill-rule="nonzero" d="M5,14 C5.55228475,14 6,14.4477153 6,15 L6,18 L9,18 C9.55228475,18 10,18.4477153 10,19 C10,19.5522847 9.55228475,20 9,20 L5,20 C4.44771525,20 4,19.5522847 4,19 L4,15 C4,14.4477153 4.44771525,14 5,14 Z M19,14 C19.5128358,14 19.9355072,14.3860402 19.9932723,14.8833789 L20,15 L20,19 C20,19.5128358 19.6139598,19.9355072 19.1166211,19.9932723 L19,20 L15,20 C14.4477153,20 14,19.5522847 14,19 C14,18.4871642 14.3860402,18.0644928 14.8833789,18.0067277 L15,18 L18,18 L18,15 C18,14.4477153 18.4477153,14 19,14 Z M5,4 L9,4 C9.55228475,4 10,4.44771525 10,5 C10,5.51283584 9.61395981,5.93550716 9.11662113,5.99327227 L9,6 L6,6 L6,9 C6,9.55228475 5.55228475,10 5,10 C4.48716416,10 4.06449284,9.61395981 4.00672773,9.11662113 L4,9 L4,5 C4,4.48716416 4.38604019,4.06449284 4.88337887,4.00672773 L5,4 L9,4 L5,4 Z M19,4 C19.5522847,4 20,4.44771525 20,5 L20,9 C20,9.55228475 19.5522847,10 19,10 C18.4477153,10 18,9.55228475 18,9 L18,6 L15,6 C14.4477153,6 14,5.55228475 14,5 C14,4.44771525 14.4477153,4 15,4 L19,4 Z"/>
  </g>
</svg>
