<svg xmlns="http://www.w3.org/2000/svg" width="24" height="24" viewBox="0 0 24 24">
  <path d="M16,1 C19.8659932,1 23,4.13400675 23,8 L23,8 L23,16 C23,19.8659932 19.8659932,23 16,23 L16,23 L8,23 C4.13400675,23 1,19.8659932 1,16 L1,16 L1,8 C1,4.13400675 4.13400675,1 8,1 L8,1 Z M16,3 L8,3 C5.23857625,3 3,5.23857625 3,8 L3,8 L3,16 C3,18.7614237 5.23857625,21 8,21 L8,21 L16,21 C18.7614237,21 21,18.7614237 21,16 L21,16 L21,8 C21,5.23857625 18.7614237,3 16,3 L16,3 Z M18.5,8.5 C19.0522847,8.5 19.5,8.94771525 19.5,9.5 C19.5,10.0128358 19.1139598,10.4355072 18.6166211,10.4932723 L18.5,10.5 L17,10.5 L17,11.5 L18.5,11.5 C19.0522847,11.5 19.5,11.9477153 19.5,12.5 C19.5,13.0128358 19.1139598,13.4355072 18.6166211,13.4932723 L18.5,13.5 L17,13.5 L17,14.5 C17,15.0128358 16.6139598,15.4355072 16.1166211,15.4932723 L16,15.5 C15.4871642,15.5 15.0644928,15.1139598 15.0067277,14.6166211 L15,14.5 L15,10 C15,9.22030388 15.5948881,8.57955132 16.35554,8.50686658 L16.5,8.5 L18.5,8.5 Z M13,8.5 C13.5128358,8.5 13.9355072,8.88604019 13.9932723,9.38337887 L14,9.5 L14,14.5 C14,15.0522847 13.5522847,15.5 13,15.5 C12.4871642,15.5 12.0644928,15.1139598 12.0067277,14.6166211 L12,14.5 L12,9.5 C12,8.94771525 12.4477153,8.5 13,8.5 Z M8,8.5 C8.56880575,8.5 9.12015629,8.63658562 9.61506567,8.89433293 C10.1049021,9.14943826 10.2951892,9.75333287 10.0400839,10.2431693 C9.80320038,10.6980174 9.26557509,10.8945807 8.79778961,10.7160889 L8.69124755,10.6681875 C8.4799485,10.5581436 8.24524218,10.5 8,10.5 C7.17157288,10.5 6.5,11.1715729 6.5,12 C6.5,12.8284271 7.17157288,13.5 8,13.5 C8.39617566,13.5 8.7542007,13.3347954 8.98705808,13.078179 L9.05,13 L9,13 C8.48716416,13 8.06449284,12.6139598 8.00672773,12.1166211 L8,12 C8,11.4871642 8.38604019,11.0644928 8.88337887,11.0067277 L9,11 L10.0564605,11.0028723 L10.0876801,11.0051567 C10.7581072,11.0650497 11.2640111,11.6238317 11.2719899,12.2826881 L11.2668479,12.4156755 L11.2227881,12.8541751 C10.9191895,14.4517455 9.54524217,15.5 8,15.5 C6.06700338,15.5 4.5,13.9329966 4.5,12 C4.5,10.0670034 6.06700338,8.5 8,8.5 Z"/>
</svg>
