<svg xmlns="http://www.w3.org/2000/svg" width="24" height="24" viewBox="0 0 24 24">
  <g fill="none" fill-rule="evenodd">
    <polygon points="0 0 24 0 24 24 0 24"/>
    <path fill="#000" fill-rule="nonzero" d="M12,1 C16.9705627,1 21,5.02943725 21,10 C21,13.137474 19.2904667,15.6873283 16,17.5891833 L16,20 C16,21.6568542 14.6568542,23 13,23 L11,23 C9.34314575,23 8,21.6568542 8,20 L8,17.5894511 L7.69615413,17.4094008 C4.604355,15.5292477 3,13.0410624 3,10 C3,5.02943725 7.02943725,1 12,1 Z M10,20 C10,20.5522847 10.4477153,21 11,21 L13,21 C13.5522847,21 14,20.5522847 14,20 L10,20 Z M12,3 C8.13400675,3 5,6.13400675 5,10 C5,12.4959106 6.43944929,14.5111396 9.46829364,16.1164271 C9.79543193,16.2898104 10,16.6297552 10,17 L10,18 L14,18 L14,17 C14,16.6299095 14.2043992,16.29008 14.5313266,16.1166285 C17.5604213,14.5095403 19,12.4941301 19,10 C19,6.13400675 15.8659932,3 12,3 Z M12,10.843335 L14.4347686,9.17506763 C14.8903661,8.86289892 15.5127637,8.97917099 15.8249324,9.43476856 C16.1130881,9.85532016 16.0361819,10.4179972 15.6643052,10.7476035 L15.5652314,10.8249324 L13,12.582 L13,15 C13,15.5128358 12.6139598,15.9355072 12.1166211,15.9932723 L12,16 C11.4871642,16 11.0644928,15.6139598 11.0067277,15.1166211 L11,15 L11,12.583 L8.43476856,10.8249324 C8.01421696,10.5367766 7.88279478,9.98428392 8.11059359,9.54265028 L8.17506763,9.43476856 C8.46322336,9.01421696 9.01571608,8.88279478 9.45734972,9.11059359 L9.56523144,9.17506763 L12,10.843335 L14.4347686,9.17506763 L12,10.843335 Z"/>
  </g>
</svg>
