<svg xmlns="http://www.w3.org/2000/svg" width="36" height="36" viewBox="0 0 36 36">
  <g fill="none" fill-rule="evenodd">
    <polygon points="0 0 36 0 36 36 0 36"/>
    <path fill="#000" fill-rule="nonzero" d="M14,7 C14.5522847,7 15,7.44771525 15,8 L15,28 C15,28.5522847 14.5522847,29 14,29 L9,29 C8.44771525,29 8,28.5522847 8,28 L8,8 C8,7.44771525 8.44771525,7 9,7 L14,7 Z M27,7 C27.5522847,7 28,7.44771525 28,8 L28,28 C28,28.5522847 27.5522847,29 27,29 L22,29 C21.4477153,29 21,28.5522847 21,28 L21,8 C21,7.44771525 21.4477153,7 22,7 L27,7 Z"/>
  </g>
</svg>
