<svg xmlns="http://www.w3.org/2000/svg" width="24" height="24" viewBox="0 0 24 24">
  <path d="M12,1 C16.4222847,1 20,4.57771525 20,9 C20,12.6640802 17.285686,17.215972 13.5382213,21.7501844 C12.7384262,22.7099385 11.2715738,22.7099385 10.4709159,21.7491475 C6.74246572,17.2627158 4,12.667928 4,9 C4,4.57771525 7.57771525,1 12,1 Z M12,3 C8.68228475,3 6,5.68228475 6,9 C6,11.9305145 8.44537411,16.1112774 11.7144553,20.1124572 L12.005,20.465 L12.2913931,20.1164353 C15.3847275,16.3105865 17.7120738,12.4148197 17.9751757,9.52898946 L17.9937543,9.26143524 L18,9 C18,5.68228475 15.3177153,3 12,3 Z M2.11241166,4.07099793 C2.62690889,4.27177402 2.88123013,4.85161761 2.68045404,5.36611485 C2.2326715,6.51357658 2,7.73989529 2,9 C2,10.2625983 2.23359412,11.4912699 2.68310194,12.6406632 C2.88425527,13.155013 2.6303593,13.735043 2.11600944,13.9361963 C1.60165957,14.1373496 1.02162963,13.8834537 0.820476307,13.3691038 C0.280548276,11.9885056 0,10.512862 0,9 C0,7.49012995 0.27943899,6.01731843 0.817294731,4.63904031 C1.01807082,4.12454307 1.59791442,3.87022183 2.11241166,4.07099793 Z M23.1812914,4.63541887 C23.7200681,6.01472882 24,7.48879964 24,9 C24,10.5112036 23.7200668,11.9852776 23.1812879,13.3645901 C22.9803436,13.8790216 22.4004169,14.1331533 21.8859853,13.9322091 C21.3715538,13.7312648 21.1174221,13.1513381 21.3183663,12.6369066 C21.7669175,11.4885836 22,10.2612162 22,9 C22,7.73878655 21.7669185,6.51142167 21.3183692,5.36310087 C21.1174254,4.84866913 21.3715576,4.26874264 21.8859893,4.0677988 C22.400421,3.86685496 22.9803475,4.12098712 23.1812914,4.63541887 Z M12,7 C13.104,7 14,7.896 14,9 C14,10.104 13.104,11 12,11 C10.896,11 10,10.104 10,9 C10,7.896 10.896,7 12,7 Z"/>
</svg>
