<svg width="24" height="24" viewBox="0 0 24 24" fill="none" xmlns="http://www.w3.org/2000/svg">
<path fill-rule="evenodd" clip-rule="evenodd" d="M6.5 8.15032V6.5C6.5 3.46243 8.96243 1 12 1C15.0376 1 17.5 3.46243 17.5 6.5V8.15032C17.7826 8.21225 18.0539 8.30243 18.316 8.43597C19.0686 8.81947 19.6805 9.43139 20.064 10.184C20.3113 10.6694 20.4099 11.1861 20.4558 11.7482C20.5 12.2894 20.5 12.9537 20.5 13.7587V16.2413C20.5 17.0463 20.5 17.7106 20.4558 18.2518C20.4099 18.8139 20.3113 19.3306 20.064 19.816C19.6805 20.5686 19.0686 21.1805 18.316 21.564C17.8306 21.8113 17.3139 21.9099 16.7518 21.9558C16.2106 22 15.5463 22 14.7413 22H9.25873C8.45374 22 7.78938 22 7.24818 21.9558C6.68608 21.9099 6.16937 21.8113 5.68404 21.564C4.93139 21.1805 4.31947 20.5686 3.93598 19.816C3.68868 19.3306 3.59012 18.8139 3.54419 18.2518C3.49998 17.7106 3.49999 17.0463 3.5 16.2413V13.7587C3.49999 12.9537 3.49998 12.2894 3.54419 11.7482C3.59012 11.1861 3.68868 10.6694 3.93598 10.184C4.31947 9.43139 4.93139 8.81947 5.68404 8.43597C5.94614 8.30243 6.21739 8.21225 6.5 8.15032ZM8.5 6.5C8.5 4.567 10.067 3 12 3C13.933 3 15.5 4.567 15.5 6.5V8.00163C15.2623 7.99999 15.0096 8 14.7413 8H9.2587C8.9904 8 8.73771 7.99999 8.5 8.00163V6.5ZM6.59202 10.218C6.74842 10.1383 6.97262 10.0734 7.41104 10.0376C7.86113 10.0008 8.44342 10 9.3 10H14.7C15.5566 10 16.1389 10.0008 16.589 10.0376C17.0274 10.0734 17.2516 10.1383 17.408 10.218C17.7843 10.4097 18.0903 10.7157 18.282 11.092C18.3617 11.2484 18.4266 11.4726 18.4624 11.911C18.4992 12.3611 18.5 12.9434 18.5 13.8V16.2C18.5 17.0566 18.4992 17.6389 18.4624 18.089C18.4266 18.5274 18.3617 18.7516 18.282 18.908C18.0903 19.2843 17.7843 19.5903 17.408 19.782C17.2516 19.8617 17.0274 19.9266 16.589 19.9624C16.1389 19.9992 15.5566 20 14.7 20H9.3C8.44342 20 7.86113 19.9992 7.41104 19.9624C6.97262 19.9266 6.74842 19.8617 6.59202 19.782C6.2157 19.5903 5.90974 19.2843 5.71799 18.908C5.6383 18.7516 5.57337 18.5274 5.53755 18.089C5.50078 17.6389 5.5 17.0566 5.5 16.2V13.8C5.5 12.9434 5.50078 12.3611 5.53755 11.911C5.57337 11.4726 5.6383 11.2484 5.71799 11.092C5.90974 10.7157 6.2157 10.4097 6.59202 10.218Z" fill="black"/>
</svg>
