<svg xmlns="http://www.w3.org/2000/svg" width="24" height="24" viewBox="0 0 24 24">
  <path fill-rule="evenodd" d="M5.63453,8.46163 L7.2284,10.0555 C6.90715,10.0931 6.72506,10.1502 6.59202,10.218 C6.2157,10.4097 5.90974,10.7157 5.71799,11.092 C5.6383,11.2484 5.57337,11.4726 5.53755,11.911 L5.51798209,12.2322112 L5.51798209,12.2322112 L5.50675948,12.6019492 L5.50675948,12.6019492 L5.50050169,13.268011 L5.50050169,13.268011 L5.50156385,16.9704296 L5.50156385,16.9704296 L5.50675948,17.3980508 L5.50675948,17.3980508 L5.51798209,17.7677888 L5.51798209,17.7677888 L5.53755,18.089 L5.53755,18.089 C5.57337,18.5274 5.6383,18.7516 5.71799,18.908 C5.90974,19.2843 6.2157,19.5903 6.59202,19.782 C6.74842,19.8617 6.97262,19.9266 7.41104,19.9624 L7.56616121,19.9733816 L7.56616121,19.9733816 L7.91045926,19.9885037 L7.91045926,19.9885037 L8.30796126,19.9964357 L8.30796126,19.9964357 L9.3,20 L9.3,20 L15.4704296,19.9984296 L15.4704296,19.9984296 L15.8980508,19.9932236 L15.8980508,19.9932236 L16.2677888,19.9819863 C16.3824272,19.9769778 16.4889778,19.9705778 16.589,19.9624 C16.7891,19.9461 16.9446,19.9237 17.0694,19.8965 L18.5859,21.413 C18.4982,21.4667 18.4081,21.5171 18.316,21.564 C17.8306,21.8113 17.3139,21.9099 16.7518,21.9558 C16.4425429,21.9810571 16.0930898,21.9918816 15.7001569,21.9965207 L14.7413,22 L14.7413,22 L8.60277111,21.9989691 C8.08415959,21.9963918 7.63475143,21.9873714 7.24818,21.9558 C6.68608,21.9099 6.16937,21.8113 5.68404,21.564 C4.93139,21.1805 4.31947,20.5686 3.93598,19.816 C3.68868,19.3306 3.59012,18.8139 3.5442,18.2518 C3.51894269,17.9425429 3.50811812,17.5930898 3.50347902,17.2001569 L3.4999997,16.2413 L3.4999997,16.2413 L3.50103061,13.1027466 C3.50360789,12.584149 3.51262836,12.1347714 3.5442,11.7482 C3.59012,11.1861 3.68868,10.6694 3.93598,10.184 C4.31103,9.44796 4.90456,8.84648 5.63453,8.46163 Z M12,1 C15.0376,1 17.5,3.46243 17.5,6.5 L17.5,8.15032 C17.7826,8.21225 18.0539,8.30243 18.316,8.43597 C19.0686,8.81947 19.6805,9.43139 20.064,10.184 C20.3113,10.6694 20.4099,11.1861 20.4558,11.7482 C20.4810571,12.0574571 20.4918816,12.4069102 20.4965207,12.7998431 L20.5,13.7587 L20.5,13.7587 L20.4989691,16.8972534 C20.4963918,17.415851 20.4873714,17.8652286 20.4558,18.2518 C20.4362,18.4914 20.4071,18.7226 20.361,18.9468 L21.7071,20.2929 C22.0976,20.6834 22.0976,21.3166 21.7071,21.7071 C21.3166,22.0976 20.6834,22.0976 20.2929,21.7071 L2.29289,3.70711 C1.90237,3.31658 1.90237,2.68342 2.29289,2.29289 C2.68342,1.90237 3.31658,1.90237 3.70711,2.29289 L6.64676,5.23254 C7.2191,2.80598 9.39865,1 12,1 Z M15.231989,10.0005048 L11.4142,10 L18.4976,17.0834 L18.5,16.2 L18.4984333,13.0295704 L18.4984333,13.0295704 L18.4932407,12.6019492 L18.4932407,12.6019492 L18.4820333,12.2322112 L18.4820333,12.2322112 L18.4625,11.911 L18.4625,11.911 C18.4266,11.4726 18.3617,11.2484 18.282,11.092 C18.0903,10.7157 17.7843,10.4097 17.408,10.218 C17.2516,10.1383 17.0274,10.0734 16.589,10.0376 L16.4338754,10.0266184 L16.4338754,10.0266184 L16.0895704,10.0114963 L16.0895704,10.0114963 L15.6920604,10.0035643 L15.6920604,10.0035643 L15.231989,10.0005048 Z M12,3 C10.1314333,3 8.60487333,4.46427444 8.50517885,6.30796448 L8.5,6.5 L8.5,7.08579 L9.41421,8 L15.5,8.00163 L15.5,6.5 C15.5,4.567 13.933,3 12,3 Z"/>
</svg>
