<svg xmlns="http://www.w3.org/2000/svg" width="120" height="120" viewBox="0 0 120 120">
  <path fill-rule="evenodd" d="M60,0 C93.137085,0 120,26.862915 120,60 C120,93.137085 93.137085,120 60,120 C26.862915,120 0,93.137085 0,60 C0,26.862915 26.862915,0 60,0 Z M85.5929422,34.8387097 C83.2468074,34.8804715 79.6472598,36.1318515 62.324372,43.3356674 C56.2572424,45.8587158 44.1315276,51.0807908 25.9472275,59.0018925 C22.9943809,60.1759173 21.4475496,61.324452 21.3067337,62.4474966 C21.036382,64.6036242 24.1411062,65.2748565 28.0475003,66.5444294 C31.2323878,67.5795136 35.5166216,68.7904567 37.7438187,68.8385649 C39.7640992,68.8822036 42.0189629,68.0494626 44.5084097,66.3403419 C61.4985662,54.87369 70.2689592,49.0778897 70.8195889,48.9529408 C71.2080485,48.8647915 71.7463586,48.753955 72.1110886,49.0780752 C72.4758186,49.4021954 72.4399639,50.0160168 72.4013293,50.1806894 C72.0924177,51.4973673 56.1321447,66.0117044 55.2136202,66.9655412 C51.7038467,70.6102469 47.7114764,72.8404069 53.8700859,76.8980662 C59.19911,80.4091451 62.3006274,82.6489723 67.7906568,86.2470704 C71.2991054,88.5464646 74.0497735,91.2732008 77.6721498,90.9399276 C79.3389654,90.7865738 81.0606766,89.2195524 81.9350717,84.5459903 C84.0015279,73.5009701 88.063412,49.5697725 89.0021454,39.7082981 C89.0843906,38.8443055 88.9809277,37.738566 88.897841,37.2531722 C88.8147543,36.7677784 88.641126,36.0761939 88.0100717,35.5642344 C87.2627138,34.9579207 86.1089529,34.830062 85.5929422,34.8387097 Z"/>
</svg>
