<svg xmlns="http://www.w3.org/2000/svg" width="24" height="24" viewBox="0 0 24 24">
  <g fill="none" fill-rule="evenodd">
    <polygon points="0 0 24 0 24 24 0 24"/>
    <path fill="#000" fill-rule="nonzero" d="M6,2 L11,2 C13.209139,2 15,3.790861 15,6 C15,6.55228475 14.5522847,7 14,7 C13.4871642,7 13.0644928,6.61395981 13.0067277,6.11662113 L12.9945143,5.85073766 C12.9219826,4.86762078 12.1387735,4.08213523 11.1566505,4.00604447 L11,4 L6,4 C4.9456382,4 4.08183488,4.81587779 4.00548574,5.85073766 L4,6 L4,18 C4,19.0543618 4.81587779,19.9181651 5.85073766,19.9945143 L6,20 L11,20 C12.0543618,20 12.9181651,19.1841222 12.9945143,18.1492623 L13.0067277,17.8833789 C13.0644928,17.3860402 13.4871642,17 14,17 C14.5522847,17 15,17.4477153 15,18 C15,20.1421954 13.3160315,21.8910789 11.1996403,21.9951047 L11,22 L6,22 C3.85780461,22 2.10892112,20.3160315 2.00489531,18.1996403 L2,18 L2,6 C2,3.85780461 3.68396847,2.10892112 5.80035966,2.00489531 L6,2 L11,2 L6,2 Z M18.7071068,7.29289322 L22.7071068,11.2928932 C22.7425008,11.3282873 22.774687,11.3656744 22.8036654,11.4046934 L22.8753288,11.5159379 L22.8753288,11.5159379 L22.9287745,11.628664 L22.9287745,11.628664 L22.9641549,11.734007 L22.9641549,11.734007 L22.9889822,11.8515331 L22.9889822,11.8515331 L22.9982536,11.9407399 L22.9982536,11.9407399 L22.9982536,12.0592877 L22.9982536,12.0592877 L22.9931674,12.1174626 L22.9931674,12.1174626 L22.9725773,12.2335141 L22.9725773,12.2335141 L22.9401054,12.3416665 L22.9401054,12.3416665 L22.9063266,12.4232215 L22.9063266,12.4232215 L22.8540045,12.5207088 L22.8540045,12.5207088 L22.7803112,12.625449 L22.7803112,12.625449 L22.7071068,12.7071068 L18.7071068,16.7071068 C18.3165825,17.0976311 17.6834175,17.0976311 17.2928932,16.7071068 C16.9023689,16.3165825 16.9023689,15.6834175 17.2928932,15.2928932 L19.585,13 L13,13 C12.4871642,13 12.0644928,12.6139598 12.0067277,12.1166211 L12,12 C12,11.4871642 12.3860402,11.0644928 12.8833789,11.0067277 L13,11 L19.585,11 L17.2928932,8.70710678 C16.9023689,8.31658249 16.9023689,7.68341751 17.2928932,7.29289322 C17.6834175,6.90236893 18.3165825,6.90236893 18.7071068,7.29289322 Z"/>
  </g>
</svg>
