<svg xmlns="http://www.w3.org/2000/svg" width="24" height="24" viewBox="0 0 24 24">
  <path d="M18.4403017,3.08146967 L18.5770147,3.1819762 L18.5770147,3.1819762 L18.9805071,3.49826324 L18.9805071,3.49826324 L19.2803124,3.75379245 L19.2803124,3.75379245 L19.5835382,4.03191283 L19.5835382,4.03191283 L19.8781256,4.32306905 L19.8781256,4.32306905 L20.0604529,4.51467175 L20.0604529,4.51467175 L20.2455618,4.71895811 L20.2455618,4.71895811 L20.5510058,5.07986151 L20.5510058,5.07986151 L20.8482758,5.46367399 L20.8482758,5.46367399 L20.973629,5.63655576 L20.973629,5.63655576 L21.1944922,5.959434 L21.1944922,5.959434 L21.2892718,6.10592285 L21.2892718,6.10592285 L21.511555,6.47098941 L21.511555,6.47098941 L21.783395,6.96652306 L21.783395,6.96652306 L21.8852509,7.16921702 L21.8852509,7.16921702 L22.1012733,7.63812068 L22.1012733,7.63812068 L22.1773416,7.81845938 L22.1773416,7.81845938 L22.2780813,8.07235683 L22.2780813,8.07235683 L22.3694022,8.32013201 L22.3694022,8.32013201 L22.5056164,8.72943352 L22.5056164,8.72943352 C22.5786873,8.96439378 22.6441234,9.20285797 22.7015931,9.44440973 C22.753297,9.66174211 22.798541,9.88149684 22.8371237,10.1035105 L22.9088244,10.5771628 L22.931254,10.763294 L22.931254,10.763294 L22.9620253,11.079417 L22.9620253,11.079417 L22.984216,11.4056445 L22.984216,11.4056445 L22.9962926,11.7115925 L22.9962926,11.7115925 L23,12 L23,14.5 C23,16.4329966 21.4329966,18 19.5,18 C18.1421588,18 16.9649139,17.2267753 16.3845595,16.0966202 C15.2892745,17.2676886 13.7301575,18 12,18 C8.6862915,18 6,15.3137085 6,12 C6,8.6862915 8.6862915,6 12,6 C13.5771978,6 15.0122609,6.60855083 16.0831932,7.60365633 C16.2357058,7.24809157 16.5888805,7 17,7 C17.5128358,7 17.9355072,7.38604019 17.9932723,7.88337887 L18,8 L18,14.5 C18,15.3284271 18.6715729,16 19.5,16 C20.2796961,16 20.9204487,15.4051119 20.9931334,14.64446 L21,14.5 L21,12 C21,7.1181973 17.1131863,3.14420858 12.2653623,3.00383711 L12,3 C7.02943725,3 3,7.02943725 3,12 L3.00859196,12.3968343 L3.00859196,12.3968343 L3.02444712,12.6690634 C3.04089401,12.8932366 3.06560555,13.115953 3.09847899,13.3369122 L3.12289467,13.4907734 C3.83320651,17.7518821 7.53728396,21 12,21 C13.3832672,21 14.7201031,20.6883816 15.9350577,20.0966801 C16.4315882,19.8548622 17.0301379,20.0613475 17.2719558,20.557878 C17.5137738,21.0544085 17.3072884,21.6529581 16.810758,21.8947761 C15.3244646,22.6186237 13.6883688,23 12,23 C6.48822588,23 1.92327534,18.9461664 1.12403971,13.6573904 L1.07282427,13.2718244 L1.07282427,13.2718244 L1.05291592,13.0857204 L1.05291592,13.0857204 L1.03547432,12.8892483 L1.03547432,12.8892483 L1.00696852,12.3949068 L1.00696852,12.3949068 C1.00233106,12.263797 1,12.1321707 1,12 C1,5.92486775 5.92486775,1 12,1 C12.1212513,1 12.2420445,1.00196181 12.3623494,1.00585541 L12.6138904,1.01684208 L12.6138904,1.01684208 L12.9788973,1.04296173 L12.9788973,1.04296173 L13.3404533,1.08085118 L13.3404533,1.08085118 L13.48784,1.09976763 L13.48784,1.09976763 C13.6238918,1.11816427 13.7591085,1.13904036 13.893489,1.16235487 C14.1413922,1.20537595 14.3862535,1.25664011 14.6279124,1.31587532 L15.1508234,1.4578978 L15.1508234,1.4578978 L15.5180966,1.57461007 L15.5180966,1.57461007 L15.9642483,1.73599085 L15.9642483,1.73599085 L16.1992919,1.8299768 L16.1992919,1.8299768 L16.6237141,2.01604357 L16.6237141,2.01604357 L16.8207649,2.10985121 L16.8207649,2.10985121 L17.2963253,2.35666035 L17.2963253,2.35666035 L17.4500024,2.44285696 L17.4500024,2.44285696 L17.6433167,2.55596213 L17.6433167,2.55596213 L17.995448,2.77596457 L17.995448,2.77596457 L18.4403017,3.08146967 L18.4403017,3.08146967 Z M12,8 C9.790861,8 8,9.790861 8,12 C8,14.209139 9.790861,16 12,16 C14.209139,16 16,14.209139 16,12 C16,9.790861 14.209139,8 12,8 Z"/>
</svg>
