<svg xmlns="http://www.w3.org/2000/svg" viewBox="0 0 20 21"><g id="Layer_2" data-name="Layer 2"><g id="message"><path d="M1,21a.84.84,0,0,1-.38-.08A1,1,0,0,1,0,20V5.8C0,4,0,3,.44,2.18A4,4,0,0,1,2.18.44C3,0,4,0,5.8,0h8.4C16,0,17,0,17.82.44a4,4,0,0,1,1.74,1.74C20,3,20,4,20,5.8v5.4c0,1.84,0,2.76-.44,3.62a4,4,0,0,1-1.74,1.74C17,17,16,17,14.2,17H6.33a4,4,0,0,0-.73,0,.86.86,0,0,0-.3.12,6.18,6.18,0,0,0-.52.48L1.71,20.71A1,1,0,0,1,1,21ZM5.8,2a7.55,7.55,0,0,0-2.71.22,1.93,1.93,0,0,0-.87.87A7.55,7.55,0,0,0,2,5.8V17.59l1.36-1.36a4.85,4.85,0,0,1,.9-.79,3.33,3.33,0,0,1,.87-.36A5.12,5.12,0,0,1,6.33,15H14.2a7.55,7.55,0,0,0,2.71-.22,1.93,1.93,0,0,0,.87-.87A7.55,7.55,0,0,0,18,11.2V5.8a7.55,7.55,0,0,0-.22-2.71,1.93,1.93,0,0,0-.87-.87A7.55,7.55,0,0,0,14.2,2Z"/></g></g></svg>