<svg xmlns="http://www.w3.org/2000/svg" width="24" height="24" viewBox="0 0 24 24">
  <path d="M16.2928932,4.29289322 C16.8954683,3.69031813 17.9071808,4.07233231 17.9940167,4.88636906 L18,5 L18,19 C18,19.5522847 17.5522847,20 17,20 C16.4871642,20 16.0644928,19.6139598 16.0067277,19.1166211 L16,19 L16,7.414 L12.7071068,10.7071068 C12.3466228,11.0675907 11.7793918,11.0953203 11.3871006,10.7902954 L11.2928932,10.7071068 L8,7.415 L8,19 C8,19.5128358 7.61395981,19.9355072 7.11662113,19.9932723 L7,20 C6.48716416,20 6.06449284,19.6139598 6.00672773,19.1166211 L6,19 L6,5 C6,4.14783014 6.98551359,3.70256618 7.62252676,4.21677482 L7.70710678,4.29289322 L12,8.585 L16.2928932,4.29289322 Z"/>
</svg>
