<svg xmlns="http://www.w3.org/2000/svg" width="24" height="24" viewBox="0 0 24 24">
  <g fill="none" fill-rule="evenodd">
    <polygon points="0 0 24 0 24 24 0 24"/>
    <path fill="#000" fill-rule="nonzero" d="M11,20 L13,20 C13.5522847,20 14,20.4477153 14,21 C14,21.5128358 13.6139598,21.9355072 13.1166211,21.9932723 L13,22 L11,22 C10.4477153,22 10,21.5522847 10,21 C10,20.4871642 10.3860402,20.0644928 10.8833789,20.0067277 L11,20 L13,20 L11,20 Z M3.30352462,2.28241931 C3.6693482,1.92735525 4.23692991,1.908094 4.62462533,2.21893936 L4.71758069,2.30352462 L21.2175807,19.3035246 C21.6022334,19.6998335 21.5927842,20.332928 21.1964754,20.7175807 C20.8306518,21.0726447 20.2630701,21.091906 19.8753747,20.7810606 L19.7824193,20.6964754 L18.127874,18.9919007 L18,18.9999993 L4,18.9999993 C3.23933773,18.9999993 2.77101468,18.1926118 3.11084891,17.5416503 L3.16794971,17.4452998 L5,14.6972244 L5,8.9999993 C5,7.98873702 5.21529462,7.00715088 5.62359521,6.10821117 L3.28241931,3.69647538 C2.89776658,3.3001665 2.90721575,2.66707204 3.30352462,2.28241931 Z M7.00817933,8.71121787 L7,9 L7,14.6972244 C7,15.0356672 6.91413188,15.3676193 6.75167088,15.6624466 L6.66410059,15.8066248 L5.86851709,17 L16.1953186,17 L7.16961011,7.7028948 C7.08210009,8.02986218 7.02771758,8.36725335 7.00817933,8.71121787 Z M12,2 C15.7854517,2 18.8690987,5.00478338 18.995941,8.75935025 L19,9 L19,12 C19,12.5522847 18.5522847,13 18,13 C17.4871642,13 17.0644928,12.6139598 17.0067277,12.1166211 L17,12 L17,9 C17,6.23857625 14.7614237,4 12,4 C11.3902636,4 10.7970241,4.10872043 10.239851,4.31831953 C9.72293204,4.51277572 9.14624852,4.25136798 8.95179232,3.734449 C8.75733613,3.21753002 9.01874387,2.6408465 9.53566285,2.4463903 C10.3171048,2.15242503 11.1488212,2 12,2 Z"/>
  </g>
</svg>
