<svg xmlns="http://www.w3.org/2000/svg" width="24" height="24" viewBox="0 0 24 24">
  <g fill="none" fill-rule="evenodd">
    <polygon points="0 0 24 0 24 24 0 24"/>
    <path fill="#000" fill-rule="nonzero" d="M3,17.46 L3,20.5 C3,20.78 3.22,21 3.5,21 L6.54,21 C6.67,21 6.8,20.95 6.89,20.85 L17.4562847,10.2933914 C17.6300744,10.1200486 17.6494989,9.85064903 17.514594,9.65572084 L17.4564466,9.58644661 L17.4564466,9.58644661 L14.4135534,6.54355339 C14.2182912,6.34829124 13.9017088,6.34829124 13.7064466,6.54355339 L3.15,17.1 C3.05,17.2 3,17.32 3,17.46 Z M20.71,7.04 C21.1,6.65 21.1,6.02 20.71,5.63 L18.37,3.29 C17.98,2.9 17.35,2.9 16.96,3.29 L15.4835534,4.76644661 C15.2882912,4.96170876 15.2882912,5.27829124 15.4835534,5.47355339 L18.5264466,8.51644661 C18.7217088,8.71170876 19.0382912,8.71170876 19.2335534,8.51644661 L20.71,7.04 Z"/>
  </g>
</svg>
