<svg xmlns="http://www.w3.org/2000/svg" width="24" height="24" viewBox="0 0 24 24">
  <path d="M2.61289944,4.20970461 L2.70710678,4.29289322 L20.7071068,22.2928932 C21.0976311,22.6834175 21.0976311,23.3165825 20.7071068,23.7071068 C20.3466228,24.0675907 19.7793918,24.0953203 19.3871006,23.7902954 L19.2928932,23.7071068 L16.585,21 L7,21 C5.40231912,21 4.09633912,19.75108 4.00509269,18.1762728 L4,18 L4,10 C4,9.54482251 4.10226014,9.10487291 4.29216063,8.70741499 L1.29289322,5.70710678 C0.902368927,5.31658249 0.902368927,4.68341751 1.29289322,4.29289322 C1.65337718,3.93240926 2.22060824,3.90467972 2.61289944,4.20970461 Z M14.585,19 L6,10.415 L6,18 C6,18.5128358 6.38604019,18.9355072 6.88337887,18.9932723 L7,19 L14.585,19 Z M12,0 C14.6887547,0 16.8818181,2.12230671 16.9953805,4.78311038 L17,5 L17,7 C18.5976809,7 19.9036609,8.24891996 19.9949073,9.82372721 L20,10 L20,17 C20,17.5522847 19.5522847,18 19,18 C18.4871642,18 18.0644928,17.6139598 18.0067277,17.1166211 L18,17 L18,10 C18,9.48716416 17.6139598,9.06449284 17.1166211,9.00672773 L17,9 L10,9 C9.44771525,9 9,8.55228475 9,8 C9,7.48716416 9.38604019,7.06449284 9.88337887,7.00672773 L10,7 L15,7 L15,5 C15,3.34314575 13.6568542,2 12,2 C10.4023191,2 9.09633912,3.24891996 9.00509269,4.82372721 L9,5 L9,6 C9,6.55228475 8.55228475,7 8,7 C7.48716416,7 7.06449284,6.61395981 7.00672773,6.11662113 L7,6 L7,5 C7,2.23857625 9.23857625,0 12,0 Z"/>
</svg>
