<svg xmlns="http://www.w3.org/2000/svg" width="24" height="24" viewBox="0 0 24 24">
  <g fill="none" fill-rule="evenodd">
    <polygon points="0 0 24 0 24 24 0 24"/>
    <path fill="#000" fill-rule="nonzero" d="M9,4 C9.55228475,4 10,4.44771525 10,5 L10,19 C10,19.5522847 9.55228475,20 9,20 L6,20 C5.44771525,20 5,19.5522847 5,19 L5,5 C5,4.44771525 5.44771525,4 6,4 L9,4 Z M18,4 C18.5522847,4 19,4.44771525 19,5 L19,19 C19,19.5522847 18.5522847,20 18,20 L15,20 C14.4477153,20 14,19.5522847 14,19 L14,5 C14,4.44771525 14.4477153,4 15,4 L18,4 Z"/>
  </g>
</svg>
