<svg xmlns="http://www.w3.org/2000/svg" width="24" height="24" viewBox="0 0 24 24">
  <g fill="none" fill-rule="evenodd">
    <polygon points="0 0 24 0 24 24 0 24"/>
    <path fill="#000" fill-rule="nonzero" d="M6,3 L20,3 C21.5976809,3 22.9036609,4.24891996 22.9949073,5.82372721 L23,6 L23,8 C23,8.51283584 22.6139598,8.93550716 22.1166211,8.99327227 L22,9 L19,9 L19,18 C19,19.5976809 17.75108,20.9036609 16.1762728,20.9949073 L16,21 L4,21 C2.34314575,21 1,19.6568542 1,18 L1,16 C1,15.4477153 1.44771525,15 2,15 L3,15 L3,6 C3,4.40231912 4.24891996,3.09633912 5.82372721,3.00509269 L6,3 L20,3 L6,3 Z M13,17 L3,17 L3,18 C3,18.5522847 3.44771525,19 4,19 L13.1709123,19 C13.0601619,18.6867985 13,18.3500996 13,18 L13,17 Z M17.1707057,5 L6,5 C5.48716416,5 5.06449284,5.38604019 5.00672773,5.88337887 L5,6 L5,15 L14,15 C14.5522847,15 15,15.4477153 15,16 L15,18 C15,18.5243235 15.4054732,18.958946 15.8874652,18.9951889 L16.0132427,18.9999141 C16.520411,18.9933318 16.9365218,18.6091957 16.9933786,18.1157023 L17,18 L17,6 C17,5.71949166 17.0384987,5.44797518 17.1105005,5.19044611 L17.1707057,5 Z M20,5 L19.8833789,5.00672773 C19.424297,5.06004937 19.0600494,5.42429701 19.0067277,5.88337887 L19,6 L19,7 L21,7 L21,6 C21,5.48716416 20.6139598,5.06449284 20.1166211,5.00672773 L20,5 L19.8833789,5.00672773 L20,5 Z"/>
  </g>
</svg>
