<svg xmlns="http://www.w3.org/2000/svg" viewBox="0 0 20 20"><g id="Слой_2" data-name="Слой 2"><g id="phone"><path d="M17.05,20h-.19A18,18,0,0,1,0,3.14,2.89,2.89,0,0,1,.8,1,3,3,0,0,1,3,0H4.74a3,3,0,0,1,3,2.66L8,5.18a3,3,0,0,1-.86,2.47l-2.68,3a16,16,0,0,0,4.9,4.89l3-2.7A3,3,0,0,1,14.81,12l2.54.29a3,3,0,0,1,2.65,3V17a3,3,0,0,1-1,2.21A2.87,2.87,0,0,1,17.05,20Zm-5.82-3.46A16.09,16.09,0,0,0,17,18a.93.93,0,0,0,.68-.26A1,1,0,0,0,18,17V15.26a1,1,0,0,0-.88-1L14.58,14a1,1,0,0,0-.82.28ZM3,2a1,1,0,0,0-.75.33A.93.93,0,0,0,2,3,16.09,16.09,0,0,0,3.46,8.77l2.25-2.5A1,1,0,0,0,6,5.41L5.74,2.89a1,1,0,0,0-1-.89Z"/></g></g></svg>