<svg xmlns="http://www.w3.org/2000/svg" width="24" height="24" viewBox="0 0 24 24">
  <path d="M12.5,17 C13.0522847,17 13.5,17.4477153 13.5,18 C13.5,18.5128358 13.1139598,18.9355072 12.6166211,18.9932723 L12.5,19 L3,19 C2.44771525,19 2,18.5522847 2,18 C2,17.4871642 2.38604019,17.0644928 2.88337887,17.0067277 L3,17 L12.5,17 Z M19.8780412,3 C20.8973718,3 21.7077355,3.72878146 21.7077355,4.73984233 C21.7077355,5.18906744 21.5352589,5.62918875 21.2238815,6.02892167 C20.9365312,6.38493609 20.4623333,6.78728783 19.8788608,7.18056466 L19.6550879,7.32750986 L19.491,7.429 L19.608,9.048 L19.6695749,9.07777921 C21.2420388,9.85344324 22.3061341,11.1694638 22.4760921,12.6254926 L22.4942476,12.8344059 L22.5,13.0357793 C22.5,14.1269766 21.7097095,14.9246925 20.6326764,14.9949576 L20.4769183,15 L17.5,15 L17.5,18 C17.5,18.5522847 17.0522847,19 16.5,19 C15.9871642,19 15.5644928,18.6139598 15.5067277,18.1166211 L15.5,18 L15.5,15 L12.5230817,15 C11.4198816,15 10.5794457,14.2518839 10.5053218,13.1896213 L10.5,13.0357793 C10.5,11.4854102 11.5221155,10.0492082 13.1238685,9.18641581 L13.3360436,9.07716728 L13.396,9.049 L13.509,7.429 L13.3480522,7.3288638 C12.8276777,6.99509133 12.3797287,6.64867722 12.0522644,6.32465717 L11.8987951,6.16467551 L11.7820315,6.02851833 C11.4700794,5.64161326 11.2922645,5.19583018 11.2922645,4.73984233 C11.2922645,3.77793772 12.0299484,3.07344417 12.9769998,3.00539957 L13.1281971,3 L19.8780412,3 Z M8,12 C8.55228475,12 9,12.4477153 9,13 C9,13.5128358 8.61395981,13.9355072 8.11662113,13.9932723 L8,14 L3,14 C2.44771525,14 2,13.5522847 2,13 C2,12.4871642 2.38604019,12.0644928 2.88337887,12.0067277 L3,12 L8,12 Z M19.446,5 L13.561,5 L13.5935598,5.03036954 C13.8401172,5.24816585 14.1990654,5.50850873 14.620533,5.76562092 L14.8362459,5.89369587 L15.0324533,6.00432011 C15.3361017,6.17132866 15.5288667,6.48166592 15.5488239,6.821713 L15.5480865,6.95040139 L15.3484608,9.80061364 C15.3208437,10.1949245 15.0635511,10.5359656 14.6919761,10.6707832 C13.3955702,11.1411552 12.5881986,12.0384013 12.5068033,12.8936985 L12.501,13.003 L12.5230817,13 L20.4769183,13 L20.498,13.003 L20.4932028,12.8937645 C20.4212005,12.136769 19.7806484,11.3460878 18.7378835,10.8482526 L18.524017,10.752687 L18.3131979,10.6703964 C17.9840472,10.5505494 17.7447434,10.2688046 17.6756896,9.93162062 L17.657932,9.80278585 L17.452068,6.9525736 C17.4239254,6.56293615 17.6252517,6.19258453 17.9675467,6.00432011 C18.493971,5.71478338 18.9583924,5.4027557 19.2801202,5.14242985 L19.409032,5.03424335 L19.446,5 Z M10,7 C10.5522847,7 11,7.44771525 11,8 C11,8.51283584 10.6139598,8.93550716 10.1166211,8.99327227 L10,9 L3,9 C2.44771525,9 2,8.55228475 2,8 C2,7.48716416 2.38604019,7.06449284 2.88337887,7.00672773 L3,7 L10,7 Z"/>
</svg>
