<svg xmlns="http://www.w3.org/2000/svg" width="24" height="24" viewBox="0 0 24 24">
  <path d="M19,2 C20.5976809,2 21.9036609,3.24891996 21.9949073,4.82372721 L22,5 L22,19 C22,20.5976809 20.75108,21.9036609 19.1762728,21.9949073 L19,22 L5,22 C3.40231912,22 2.09633912,20.75108 2.00509269,19.1762728 L2,19 L2,5 C2,3.40231912 3.24891996,2.09633912 4.82372721,2.00509269 L5,2 L19,2 Z M19,4 L5,4 C4.48716416,4 4.06449284,4.38604019 4.00672773,4.88337887 L4,5 L4,19 C4,19.5128358 4.38604019,19.9355072 4.88337887,19.9932723 L5,20 L19,20 C19.5128358,20 19.9355072,19.6139598 19.9932723,19.1166211 L20,19 L20,5 C20,4.48716416 19.6139598,4.06449284 19.1166211,4.00672773 L19,4 Z M12,6 C12.5128358,6 12.9355072,6.38604019 12.9932723,6.88337887 L13,7 L13,17 C13,17.5522847 12.5522847,18 12,18 C11.4871642,18 11.0644928,17.6139598 11.0067277,17.1166211 L11,17 L11,7 C11,6.44771525 11.4477153,6 12,6 Z M16,12 C16.5128358,12 16.9355072,12.3860402 16.9932723,12.8833789 L17,13 L17,17 C17,17.5522847 16.5522847,18 16,18 C15.4871642,18 15.0644928,17.6139598 15.0067277,17.1166211 L15,17 L15,13 C15,12.4477153 15.4477153,12 16,12 Z M8,9 C8.51283584,9 8.93550716,9.38604019 8.99327227,9.88337887 L9,10 L9,17 C9,17.5522847 8.55228475,18 8,18 C7.48716416,18 7.06449284,17.6139598 7.00672773,17.1166211 L7,17 L7,10 C7,9.44771525 7.44771525,9 8,9 Z"/>
</svg>
