<svg xmlns="http://www.w3.org/2000/svg" width="24" height="24" viewBox="0 0 24 24">
  <g fill="none" fill-rule="evenodd">
    <polygon points="0 0 24 0 24 24 0 24"/>
    <path fill="#000" fill-rule="nonzero" d="M12,1 C18.0751322,1 23,5.92486775 23,12 C23,18.0751322 18.0751322,23 12,23 C5.92486775,23 1,18.0751322 1,12 C1,5.92486775 5.92486775,1 12,1 Z M12,3 C7.02943725,3 3,7.02943725 3,12 C3,16.9705627 7.02943725,21 12,21 C16.9705627,21 21,16.9705627 21,12 C21,7.02943725 16.9705627,3 12,3 Z M12,5 C12.5128358,5 12.9355072,5.38604019 12.9932723,5.88337887 L13,6 L13,11.5576301 L17.0726728,15.2600599 C17.4813304,15.6315669 17.511447,16.2640152 17.1399401,16.6726728 C16.7970106,17.0498952 16.2317405,17.1045738 15.8253848,16.8185535 L15.7273272,16.7399401 L11.6546544,13.0375103 C11.2840333,12.7005819 11.0550363,12.2385759 11.0087237,11.7443105 L11,11.5576301 L11,6 C11,5.44771525 11.4477153,5 12,5 Z"/>
  </g>
</svg>
