<svg width="24" height="24" viewBox="0 0 24 24" fill="none" xmlns="http://www.w3.org/2000/svg">
<path fill-rule="evenodd" clip-rule="evenodd" d="M11.4644 8.25V6.65731C11.4644 5.5015 11.4644 4.9236 11.2324 4.6454C11.0309 4.40381 10.7276 4.27109 10.4134 4.28712C10.0517 4.30557 9.62726 4.6978 8.77843 5.48226L3.26786 10.575C2.82632 10.983 2.60554 11.187 2.52371 11.426C2.4518 11.636 2.4518 11.864 2.52371 12.074C2.60554 12.313 2.82632 12.517 3.26786 12.925L8.77843 18.0177C9.62726 18.8022 10.0517 19.1944 10.4134 19.2129C10.7276 19.2289 11.0309 19.0962 11.2324 18.8546C11.4644 18.5764 11.4644 17.9985 11.4644 16.8427V15.25C15.3022 15.25 17.8145 16.5567 19.3687 17.8663C20.3276 18.6743 20.8071 19.0783 21.0053 19.0713C21.1929 19.0647 21.3258 18.9875 21.4246 18.828C21.5291 18.6594 21.4335 18.1372 21.2423 17.0929C20.5787 13.468 18.4161 8.25 11.4644 8.25Z" stroke="black" stroke-width="2" stroke-linejoin="round"/>
</svg>
