<svg xmlns="http://www.w3.org/2000/svg" viewBox="0 0 21 16.93"><g id="Layer_2" data-name="Layer 2"><g id="reply"><path d="M9,16.93h-.1c-.72,0-1.23-.51-2.25-1.46l-5.52-5.1a3.14,3.14,0,0,1-1-1.26,1.91,1.91,0,0,1,0-1.29,3.14,3.14,0,0,1,1-1.26l5.51-5.1C7.65.52,8.17,0,8.89,0a2,2,0,0,1,1.64.72C11,1.28,11,2,11,3.37V4c7,.49,9.13,6.18,9.77,9.63.26,1.45.35,1.94,0,2.44a1.48,1.48,0,0,1-1.23.72c-.6,0-.95-.29-2.31-1.44A10.52,10.52,0,0,0,11,13v.56c0,1.39,0,2.09-.46,2.65A2,2,0,0,1,9,16.93ZM2,8.46c.09.1.28.28.46.44L8,14c.37.34.75.7,1,.86,0-.28,0-.8,0-1.3V12a1,1,0,0,1,1-1,12.9,12.9,0,0,1,8.55,2.86l.26.21a.06.06,0,0,1,0,0c-.67-3.66-2.74-8-8.8-8A1,1,0,0,1,9,5V3.37c0-.5,0-1,0-1.3-.22.16-.6.52-1,.86L2.48,8C2.3,8.19,2.11,8.36,2,8.46Z"/></g></g></svg>