<svg xmlns="http://www.w3.org/2000/svg" width="24" height="24" viewBox="0 0 24 24">
  <path d="M7.70710678,6.29289322 C8.06759074,6.65337718 8.09532028,7.22060824 7.79029539,7.61289944 L7.70710678,7.70710678 C7.34662282,8.06759074 6.77939176,8.09532028 6.38710056,7.79029539 L6.29289322,7.70710678 L3.29289322,4.70710678 C2.93240926,4.34662282 2.90467972,3.77939176 3.20970461,3.38710056 L3.29289322,3.29289322 L6.29289322,0.292893219 C6.68341751,-0.0976310729 7.31658249,-0.0976310729 7.70710678,0.292893219 C8.06759074,0.65337718 8.09532028,1.22060824 7.79029539,1.61289944 L7.70710678,1.70710678 L6.415,3 L18,3 C19.5976809,3 20.9036609,4.24891996 20.9949073,5.82372721 L21,6 L21,18 C21,19.5976809 19.75108,20.9036609 18.1762728,20.9949073 L18,21 L6,21 C4.40231912,21 3.09633912,19.75108 3.00509269,18.1762728 L3,18 L3,11 C3,10.4477153 3.44771525,10 4,10 C4.51283584,10 4.93550716,10.3860402 4.99327227,10.8833789 L5,11 L5,18 C5,18.5128358 5.38604019,18.9355072 5.88337887,18.9932723 L6,19 L18,19 C18.5128358,19 18.9355072,18.6139598 18.9932723,18.1166211 L19,18 L19,6 C19,5.48716416 18.6139598,5.06449284 18.1166211,5.00672773 L18,5 L6.415,5 L7.70710678,6.29289322 Z M17.2071068,8.29289322 C17.5675907,8.65337718 17.5953203,9.22060824 17.2902954,9.61289944 L17.2071068,9.70710678 L11.2071068,15.7071068 C10.8466228,16.0675907 10.2793918,16.0953203 9.88710056,15.7902954 L9.79289322,15.7071068 L7.29289322,13.2071068 C6.90236893,12.8165825 6.90236893,12.1834175 7.29289322,11.7928932 C7.65337718,11.4324093 8.22060824,11.4046797 8.61289944,11.7097046 L8.70710678,11.7928932 L10.5,13.585 L15.7928932,8.29289322 C16.1834175,7.90236893 16.8165825,7.90236893 17.2071068,8.29289322 Z"/>
</svg>
