<svg width="24" height="24" viewBox="0 0 24 24" fill="none" xmlns="http://www.w3.org/2000/svg">
<path fill-rule="evenodd" clip-rule="evenodd" d="M4 9.4C4 7.15979 4 6.03968 4.43597 5.18404C4.81947 4.43139 5.43139 3.81947 6.18404 3.43597C7.03968 3 8.15979 3 10.4 3H13.6C15.8402 3 16.9603 3 17.816 3.43597C18.5686 3.81947 19.1805 4.43139 19.564 5.18404C20 6.03968 20 7.15979 20 9.4V18.9498C20 20.0568 20 20.6102 19.7752 20.8861C19.5798 21.1259 19.2844 21.2617 18.9752 21.254C18.6194 21.2452 18.1992 20.885 17.3587 20.1646L13.0413 16.4639C12.6717 16.1472 12.4869 15.9888 12.2797 15.9284C12.097 15.8752 11.903 15.8752 11.7203 15.9284C11.5131 15.9888 11.3283 16.1472 10.9587 16.4639L6.64127 20.1646C5.80081 20.885 5.38058 21.2452 5.0248 21.254C4.71559 21.2617 4.42024 21.1259 4.22484 20.8861C4 20.6102 4 20.0568 4 18.9498V9.4Z" stroke="black" stroke-width="2" stroke-linejoin="round"/>
</svg>
