<svg xmlns="http://www.w3.org/2000/svg" viewBox="0 0 18 20.25"><g id="Layer_2" data-name="Layer 2"><g id="saved"><path d="M2,20.25a2,2,0,0,1-1.55-.73C0,19,0,18.29,0,17V7.4C0,5,0,3.8.54,2.73A5,5,0,0,1,2.73.54C3.8,0,5,0,7.4,0h3.2c2.4,0,3.6,0,4.67.54a5,5,0,0,1,2.19,2.19C18,3.8,18,5,18,7.4V17c0,1.34,0,2-.45,2.57a2.08,2.08,0,0,1-1.6.73c-.71,0-1.22-.45-2.23-1.32L9.39,15.22,9,14.87s-.18.21-.35.35l-4.32,3.7c-1,.88-1.53,1.32-2.24,1.33Zm7-7.36a2.1,2.1,0,0,1,.56.08,2.89,2.89,0,0,1,1.13.74L15,17.41c.37.31.74.63,1,.78,0-.26,0-.76,0-1.24V7.4c0-2.08,0-3.12-.33-3.76a3,3,0,0,0-1.31-1.31C13.72,2,12.68,2,10.6,2H7.4c-2.08,0-3.12,0-3.76.33A3,3,0,0,0,2.33,3.64C2,4.28,2,5.32,2,7.4V17c0,.48,0,1,0,1.24.22-.15.59-.47,1-.78l4.32-3.7A3,3,0,0,1,8.44,13,2.1,2.1,0,0,1,9,12.89Z"/></g></g></svg>