<svg xmlns="http://www.w3.org/2000/svg" width="24" height="24" viewBox="0 0 24 24">
  <path d="M8.25,1 C8.76283584,1 9.18550716,1.38604019 9.24327227,1.88337887 L9.25,2 L9.25,6.375 C9.25,6.92728475 8.80228475,7.375 8.25,7.375 C7.73716416,7.375 7.31449284,6.98895981 7.25672773,6.49162113 L7.25,6.375 L7.25048555,4.35278357 C4.65215028,5.96766599 3,8.83163974 3,12 C3,16.9705627 7.02943725,21 12,21 C16.9705627,21 21,16.9705627 21,12 C21,11.4477153 21.4477153,11 22,11 C22.5522847,11 23,11.4477153 23,12 C23,18.0751322 18.0751322,23 12,23 C5.92486775,23 1,18.0751322 1,12 C1,8.34511445 2.79919592,5.02139036 5.67157118,3.00033421 L3.875,3 C3.36216416,3 2.93949284,2.61395981 2.88172773,2.11662113 L2.875,2 C2.875,1.48716416 3.26104019,1.06449284 3.75837887,1.00672773 L3.875,1 L8.25,1 Z M12,4.75 C12.5128358,4.75 12.9355072,5.13604019 12.9932723,5.63337887 L13,5.75 L13,11.585 L16.4571068,15.0428932 C16.8175907,15.4033772 16.8453203,15.9706082 16.5402954,16.3628994 L16.4571068,16.4571068 C16.0966228,16.8175907 15.5293918,16.8453203 15.1371006,16.5402954 L15.0428932,16.4571068 L11.2928932,12.7071068 C11.1366129,12.5508265 11.0374017,12.3481451 11.0086724,12.131444 L11,12 L11,5.75 C11,5.19771525 11.4477153,4.75 12,4.75 Z"/>
</svg>
