<svg width="24" height="24" viewBox="0 0 24 24" fill="none" xmlns="http://www.w3.org/2000/svg">
<path fill-rule="evenodd" clip-rule="evenodd" d="M5 10C5 7.23858 7.23858 5 10 5C12.7614 5 15 7.23858 15 10C15 12.7614 12.7614 15 10 15C7.23858 15 5 12.7614 5 10ZM10 3C6.13401 3 3 6.13401 3 10C3 13.866 6.13401 17 10 17C11.5759 17 13.0302 16.4792 14.2001 15.6004C14.2281 15.6376 14.259 15.6733 14.2929 15.7071L19.2929 20.7071C19.6834 21.0976 20.3166 21.0976 20.7071 20.7071C21.0976 20.3166 21.0976 19.6834 20.7071 19.2929L15.7071 14.2929C15.6733 14.259 15.6376 14.2281 15.6004 14.2001C16.4792 13.0302 17 11.5759 17 10C17 6.13401 13.866 3 10 3Z" fill="black"/>
</svg>
