<svg xmlns="http://www.w3.org/2000/svg" width="24" height="24" viewBox="0 0 24 24">
  <path d="M12,1 C18.0751322,1 23,5.92486775 23,12 C23,18.0751322 18.0751322,23 12,23 C5.92486775,23 1,18.0751322 1,12 C1,5.92486775 5.92486775,1 12,1 Z M12,3 C7.02943725,3 3,7.02943725 3,12 C3,16.9705627 7.02943725,21 12,21 C16.9705627,21 21,16.9705627 21,12 C21,7.02943725 16.9705627,3 12,3 Z M17.2071068,8.29289322 C17.5675907,8.65337718 17.5953203,9.22060824 17.2902954,9.61289944 L17.2071068,9.70710678 L11.2071068,15.7071068 C10.8466228,16.0675907 10.2793918,16.0953203 9.88710056,15.7902954 L9.79289322,15.7071068 L7.29289322,13.2071068 C6.90236893,12.8165825 6.90236893,12.1834175 7.29289322,11.7928932 C7.65337718,11.4324093 8.22060824,11.4046797 8.61289944,11.7097046 L8.70710678,11.7928932 L10.5,13.585 L15.7928932,8.29289322 C16.1834175,7.90236893 16.8165825,7.90236893 17.2071068,8.29289322 Z"/>
</svg>
