<svg xmlns="http://www.w3.org/2000/svg" width="19" height="14" viewBox="0 0 19 14">
  <g fill="none" fill-rule="evenodd">
    <polygon points="0 0 19 0 19 14 0 14"/>
    <path fill="#000" fill-rule="nonzero" d="M10,0.4 C13.6450793,0.4 16.6,3.35492065 16.6,7 C16.6,10.6450793 13.6450793,13.6 10,13.6 C6.35492065,13.6 3.4,10.6450793 3.4,7 C3.4,3.35492065 6.35492065,0.4 10,0.4 Z M10,9.25 C9.58578644,9.25 9.25,9.58578644 9.25,10 C9.25,10.4142136 9.58578644,10.75 10,10.75 C10.4142136,10.75 10.75,10.4142136 10.75,10 C10.75,9.58578644 10.4142136,9.25 10,9.25 Z M10,2.85 C9.64101491,2.85 9.35,3.14101491 9.35,3.5 L9.35,7.5 C9.35,7.85898509 9.64101491,8.15 10,8.15 C10.3589851,8.15 10.65,7.85898509 10.65,7.5 L10.65,3.5 C10.65,3.14101491 10.3589851,2.85 10,2.85 Z"/>
  </g>
</svg>
