<svg width="24" height="24" viewBox="0 0 24 24" fill="none" xmlns="http://www.w3.org/2000/svg">
<path fill-rule="evenodd" clip-rule="evenodd" d="M11.4111 1L11.3826 1C11.1624 0.999976 10.9456 0.99995 10.7601 1.01395C10.5539 1.02949 10.3157 1.06592 10.0697 1.17583C9.72266 1.33083 9.42637 1.58047 9.21475 1.89613C9.06469 2.11997 8.98838 2.34855 8.93808 2.54906C8.89281 2.72957 8.85605 2.94322 8.81873 3.16017L8.81389 3.18831L8.61361 4.35163C8.09973 4.58493 7.61206 4.86912 7.15827 5.20089L6.12023 4.81509L6.09328 4.80507C5.88501 4.72763 5.68007 4.65144 5.49981 4.59957C5.2997 4.54199 5.06177 4.49292 4.79078 4.51115C4.4089 4.53685 4.04216 4.6704 3.73318 4.89627C3.51392 5.05656 3.36325 5.24713 3.24703 5.41991C3.14233 5.57554 3.03438 5.76568 2.92466 5.95891L2.91046 5.98391L2.2984 7.06162L2.28449 7.0861C2.17762 7.27421 2.07222 7.45976 1.99378 7.62552C1.90655 7.80987 1.82158 8.03153 1.79457 8.29572C1.75643 8.66881 1.82281 9.04517 1.98627 9.38271C2.10202 9.62173 2.25769 9.80095 2.40272 9.94433C2.53312 10.0733 2.69563 10.2115 2.86039 10.3517L2.86041 10.3518L2.88186 10.37L3.77985 11.1343C3.74915 11.4147 3.73113 11.7034 3.73113 12C3.73113 12.2966 3.74914 12.5852 3.77984 12.8656L2.88223 13.6293L2.86076 13.6476C2.69596 13.7877 2.53341 13.926 2.40298 14.0549C2.25792 14.1983 2.10221 14.3775 1.98642 14.6165C1.82289 14.9541 1.75647 15.3304 1.79457 15.7036C1.82154 15.9678 1.9065 16.1894 1.99372 16.3738C2.07215 16.5396 2.17754 16.7252 2.2844 16.9133L2.29831 16.9378L2.91047 18.0159L2.92465 18.0408L2.92468 18.0409C3.03438 18.2341 3.14232 18.4243 3.24701 18.5799C3.36323 18.7527 3.51389 18.9433 3.73315 19.1036C4.04214 19.3295 4.4089 19.4631 4.7908 19.4888C5.06181 19.5071 5.29976 19.458 5.49987 19.4004C5.68015 19.3485 5.8851 19.2723 6.0934 19.1949L6.12035 19.1849L7.15827 18.7991C7.61206 19.1309 8.09973 19.4151 8.61361 19.6484L8.81389 20.8117L8.81873 20.8398C8.85605 21.0568 8.89281 21.2704 8.93808 21.4509C8.98838 21.6515 9.06469 21.88 9.21475 22.1039C9.42637 22.4195 9.72266 22.6692 10.0697 22.8242C10.3157 22.9341 10.5539 22.9705 10.7601 22.9861C10.9456 23.0001 11.1624 23 11.3826 23H11.3826L11.4111 23H12.5891L12.6176 23H12.6176C12.8378 23 13.0546 23.0001 13.2402 22.9861C13.4464 22.9705 13.6847 22.9341 13.9308 22.8241C14.2778 22.6691 14.5741 22.4194 14.7857 22.1036C14.9358 21.8797 15.012 21.6511 15.0623 21.4505C15.1076 21.27 15.1443 21.0563 15.1816 20.8393L15.1864 20.8111L15.3863 19.6485C15.9004 19.4152 16.3882 19.131 16.8418 18.7992L17.8801 19.185L17.907 19.195L17.907 19.195C18.1153 19.2724 18.3203 19.3486 18.5006 19.4005C18.7007 19.458 18.9387 19.5071 19.2097 19.4888C19.5916 19.4631 19.9584 19.3295 20.2674 19.1035C20.4866 18.9432 20.6373 18.7525 20.7535 18.5797C20.8581 18.4241 20.966 18.2339 21.0757 18.0407L21.0757 18.0406L21.09 18.0155L21.7018 16.9376L21.7157 16.9132C21.8225 16.725 21.9279 16.5394 22.0063 16.3736C22.0935 16.1893 22.1784 15.9676 22.2054 15.7034C22.2434 15.3303 22.177 14.954 22.0134 14.6165C21.8977 14.3775 21.742 14.1984 21.5969 14.055C21.4665 13.9261 21.304 13.7878 21.1392 13.6477L21.1392 13.6477L21.1177 13.6294L20.2202 12.8658C20.2509 12.5849 20.2687 12.2962 20.2687 12C20.2687 11.7037 20.2509 11.4151 20.2202 11.1341L21.1181 10.3699L21.1395 10.3516L21.1396 10.3516C21.3043 10.2114 21.4668 10.0732 21.5972 9.94426C21.7422 9.80089 21.8978 9.62169 22.0136 9.38271C22.1771 9.04521 22.2434 8.6689 22.2054 8.29584C22.1784 8.03168 22.0934 7.81004 22.0063 7.6257C21.9278 7.45995 21.8225 7.27442 21.7157 7.08632L21.7157 7.0863L21.7018 7.06182L21.09 5.98423L21.0758 5.95922C20.9661 5.76596 20.8581 5.5758 20.7535 5.42014C20.6373 5.24734 20.4866 5.05673 20.2674 4.89641C19.9584 4.67048 19.5916 4.53689 19.2097 4.51115C18.9387 4.49289 18.7008 4.54194 18.5007 4.59951C18.3204 4.65137 18.1154 4.72756 17.9071 4.80498L17.8802 4.815L16.8418 5.20084C16.3882 4.86901 15.9004 4.58481 15.3863 4.35152L15.1864 3.18887L15.1816 3.16071L15.1816 3.16069C15.1443 2.9437 15.1076 2.73001 15.0623 2.54947C15.012 2.34892 14.9358 2.12028 14.7857 1.89639C14.5741 1.58064 14.2778 1.33092 13.9308 1.17588C13.6847 1.06594 13.4464 1.0295 13.2402 1.01395C13.0546 0.99995 12.8378 0.999976 12.6176 1L12.5891 1H11.4111ZM10.9105 3.00828C10.9006 3.00903 10.892 3.00979 10.8846 3.01053C10.8826 3.01768 10.8804 3.02601 10.878 3.03564C10.8533 3.13391 10.829 3.27153 10.7849 3.52763L10.491 5.23449C10.4306 5.58547 10.1881 5.87782 9.85432 6.00204C9.16444 6.25877 8.53253 6.62826 7.98445 7.09508C7.70862 7.33002 7.32728 7.39738 6.98765 7.27115L5.42347 6.6898C5.17769 6.59845 5.0451 6.54988 4.94674 6.52158C4.93709 6.5188 4.92867 6.5165 4.92141 6.5146C4.91707 6.52072 4.9121 6.5279 4.90649 6.53623C4.84936 6.62116 4.77905 6.74361 4.64956 6.97161L4.03749 8.04932C3.91128 8.27155 3.84413 8.39109 3.8016 8.48096C3.79745 8.48974 3.79395 8.49741 3.791 8.50403C3.79604 8.50926 3.80195 8.51526 3.80886 8.52209C3.87956 8.59199 3.98355 8.68135 4.17817 8.847L5.49458 9.96746C5.76318 10.1961 5.89147 10.5493 5.8322 10.897C5.7688 11.269 5.73113 11.6342 5.73113 12C5.73113 12.3658 5.7688 12.7311 5.8322 13.103C5.89148 13.4508 5.76313 13.804 5.49445 14.0327L4.17828 15.1525C3.98362 15.3182 3.8796 15.4075 3.80888 15.4774C3.80197 15.4842 3.79606 15.4902 3.79102 15.4955C3.79396 15.5021 3.79747 15.5098 3.80162 15.5185C3.84414 15.6084 3.91129 15.728 4.03749 15.9502L4.64965 17.0283C4.77913 17.2563 4.84943 17.3788 4.90656 17.4637C4.90919 17.4676 4.91167 17.4713 4.91402 17.4747C4.91668 17.4786 4.91917 17.4821 4.92148 17.4854C4.92874 17.4835 4.93716 17.4812 4.94682 17.4784C5.04519 17.4501 5.17779 17.4015 5.42358 17.3102L6.98765 16.7289C7.32728 16.6026 7.70862 16.67 7.98445 16.9049C8.53253 17.3717 9.16444 17.7412 9.85432 17.998C10.1881 18.1222 10.4306 18.4145 10.491 18.7655L10.7849 20.4724C10.829 20.7285 10.8533 20.8661 10.878 20.9644C10.8795 20.9703 10.8809 20.9758 10.8822 20.9807C10.883 20.9838 10.8838 20.9867 10.8846 20.9895C10.892 20.9902 10.9006 20.991 10.9105 20.9917C11.0115 20.9993 11.1512 21 11.4111 21H12.5891C12.849 21 12.9888 20.9993 13.0898 20.9917C13.0997 20.991 13.1083 20.9902 13.1157 20.9895C13.1177 20.9823 13.1199 20.974 13.1223 20.9644C13.1469 20.8661 13.1713 20.7284 13.2153 20.4722L13.5087 18.7657C13.5691 18.4146 13.8118 18.1221 14.1457 17.9979C14.8362 17.7411 15.4678 17.3718 16.015 16.9053C16.2908 16.6701 16.6723 16.6026 17.0121 16.7288L18.5767 17.3102C18.8225 17.4016 18.9551 17.4501 19.0535 17.4784C19.0632 17.4812 19.0716 17.4835 19.0789 17.4854C19.0832 17.4793 19.0882 17.4721 19.0938 17.4638C19.1509 17.3788 19.2212 17.2563 19.3506 17.0282L19.9625 15.9503C20.0887 15.728 20.1558 15.6085 20.1983 15.5186C20.2024 15.5098 20.2059 15.5022 20.2089 15.4955C20.2058 15.4923 20.2024 15.4888 20.1986 15.4851C20.1962 15.4827 20.1937 15.4801 20.191 15.4775C20.1203 15.4076 20.0163 15.3183 19.8217 15.1527L18.5054 14.0327C18.2362 13.8037 18.1079 13.4497 18.1679 13.1014C18.2315 12.7317 18.2687 12.3667 18.2687 12C18.2687 11.6333 18.2315 11.2683 18.1679 10.8986C18.108 10.5504 18.2362 10.1965 18.5052 9.96746L19.8218 8.84687C20.0164 8.68124 20.1204 8.5919 20.191 8.52201C20.198 8.51518 20.2039 8.50917 20.2089 8.50395C20.206 8.49732 20.2025 8.48965 20.1983 8.48088C20.1558 8.39102 20.0887 8.27149 19.9625 8.04926L19.3507 6.97167C19.2213 6.74364 19.151 6.62116 19.0938 6.53623C19.09 6.53058 19.0865 6.52547 19.0833 6.52086C19.0818 6.51866 19.0803 6.51657 19.0789 6.51459C19.0717 6.51649 19.0632 6.51879 19.0536 6.52156C18.9552 6.54986 18.8226 6.59842 18.5768 6.68976L17.0121 7.27118C16.6723 7.39743 16.2908 7.32993 16.015 7.09474C15.4678 6.62825 14.8362 6.25887 14.1457 6.00213C13.8118 5.87795 13.5691 5.58544 13.5087 5.23428L13.2153 3.52776C13.1713 3.2716 13.1469 3.13395 13.1223 3.03565C13.1199 3.02602 13.1177 3.01768 13.1157 3.01053C13.1083 3.0098 13.0997 3.00903 13.0898 3.00828C12.9888 3.00066 12.849 3 12.5891 3H11.4111C11.1512 3 11.0115 3.00066 10.9105 3.00828ZM11.9999 14C13.1045 14 13.9999 13.1046 13.9999 12C13.9999 10.8954 13.1045 10 11.9999 10C10.8953 10 9.9999 10.8954 9.9999 12C9.9999 13.1046 10.8953 14 11.9999 14Z" fill="black"/>
</svg>
