<svg xmlns="http://www.w3.org/2000/svg" width="24" height="24" viewBox="0 0 24 24">
  <g fill="none" fill-rule="evenodd">
    <polygon points="0 0 24 0 24 24 0 24"/>
    <path fill="#000" fill-rule="nonzero" d="M15,14 L19,14 C19.5522847,14 20,14.4477153 20,15 C20,15.5128358 19.6139598,15.9355072 19.1166211,15.9932723 L19,16 L16,16 L16,19 C16,19.5522847 15.5522847,20 15,20 C14.4871642,20 14.0644928,19.6139598 14.0067277,19.1166211 L14,19 L14,15 C14,14.4871642 14.3860402,14.0644928 14.8833789,14.0067277 L15,14 L19,14 L15,14 Z M9,14 C9.55228475,14 10,14.4477153 10,15 L10,19 C10,19.5522847 9.55228475,20 9,20 C8.44771525,20 8,19.5522847 8,19 L8,16 L5,16 C4.44771525,16 4,15.5522847 4,15 C4,14.4477153 4.44771525,14 5,14 L9,14 Z M15,4 C15.5522847,4 16,4.44771525 16,5 L16,8 L19,8 C19.5522847,8 20,8.44771525 20,9 C20,9.55228475 19.5522847,10 19,10 L15,10 C14.4477153,10 14,9.55228475 14,9 L14,5 C14,4.44771525 14.4477153,4 15,4 Z M9,4 C9.51283584,4 9.93550716,4.38604019 9.99327227,4.88337887 L10,5 L10,9 C10,9.51283584 9.61395981,9.93550716 9.11662113,9.99327227 L9,10 L5,10 C4.44771525,10 4,9.55228475 4,9 C4,8.48716416 4.38604019,8.06449284 4.88337887,8.00672773 L5,8 L8,8 L8,5 C8,4.44771525 8.44771525,4 9,4 Z"/>
  </g>
</svg>
