<svg xmlns="http://www.w3.org/2000/svg" width="24" height="24" viewBox="0 0 24 24">
  <g fill="none" fill-rule="evenodd">
    <polygon points="0 0 24 0 24 24 0 24"/>
    <path fill="#000" fill-rule="nonzero" d="M12,1 C18.0751322,1 23,5.92486775 23,12 C23,18.0751322 18.0751322,23 12,23 C5.92486775,23 1,18.0751322 1,12 C1,5.92486775 5.92486775,1 12,1 Z M14.8448965,3.4588927 L12.5144958,4.85749293 C12.2373987,5.02375118 11.8998598,5.04453346 11.6076523,4.91983977 L11.4855042,4.85749293 L9.15510349,3.4588927 C7.43778128,4.03062913 5.95048921,5.10581906 4.86829192,6.50939785 C4.89891824,6.55976343 4.92406888,6.61359663 4.94403805,6.6703093 L4.9701425,6.75746437 L5.4701425,8.75746437 C5.54468704,9.05564252 5.47755811,9.36891268 5.2932157,9.60896661 L5.20710678,9.70710678 L3.20710678,11.7071068 C3.14452276,11.7696908 3.07570721,11.8222453 3.00265742,11.8647704 L3,12 L3,12 C3,14.304898 3.86643645,16.407429 5.29137396,17.9996575 L7.49984887,18 C7.85111172,18 8.17661855,18.1842988 8.3573418,18.4855042 L9.68521108,20.699526 C10.4238175,20.8955454 11.1997104,21 12,21 C12.8002896,21 13.5761825,20.8955454 14.3147889,20.699526 L15.6425071,18.4855042 C15.8006399,18.2219495 16.0696227,18.0479014 16.3697162,18.0085074 L16.5,18 L18.708626,17.9996575 C20.1335635,16.407429 21,14.304898 21,12 L20.998338,11.8653368 C20.9249258,11.8227123 20.8557766,11.769969 20.7929144,11.7071068 L18.7929144,9.70710678 C18.5445341,9.45872644 18.444685,9.0982394 18.5298787,8.75746437 L19.0298787,6.75746437 C19.0521706,6.66829674 19.0857898,6.58494622 19.1288183,6.50856361 C18.1169675,5.1934906 16.7465365,4.16630738 15.1641553,3.57195018 L14.8448965,3.4588927 Z M12.6,7.2 L16.6,10.2 C16.9729802,10.4797352 17.1031636,10.9800964 16.9138115,11.4061385 L14.9138115,15.9061385 C14.7533102,16.2672665 14.3951887,16.5 14,16.5 L10,16.5 C9.60481128,16.5 9.24668979,16.2672665 9.08618845,15.9061385 L7.08618845,11.4061385 C6.89683642,10.9800964 7.02701976,10.4797352 7.4,10.2 L11.4,7.2 C11.7555556,6.93333333 12.2444444,6.93333333 12.6,7.2 Z M12,9.25 L9.23740482,11.3219464 L10.6498731,14.5 L13.3501269,14.5 L14.7625952,11.3219464 L12,9.25 Z"/>
  </g>
</svg>
