<svg xmlns="http://www.w3.org/2000/svg" width="24" height="24" viewBox="0 0 24 24">
  <path d="M7.99990801,23.0000142 C4.13391476,23.0000142 0.999908007,19.8660075 0.999908007,16.0000142 L0.999908007,8 C0.999908007,4.13400675 4.13391476,1 7.99990801,1 L16,1 C19.8659932,1 23,4.13400675 23,8 L23,13.139783 C23,13.9158578 22.7742383,14.6751699 22.3502271,15.3251679 C21.4264963,16.7412794 20.3786178,18.0355957 19.2071068,19.2071068 C18.035589,20.3786245 16.7412646,21.4265116 15.3251283,22.350263 C14.6751193,22.7742665 13.9158056,23.0000142 13.1397476,23.0000142 L7.99990801,23.0000142 Z M16,3 L7.99990801,3 C5.23848426,3 2.99990801,5.23857625 2.99990801,8 L2.99990801,16.0000142 C2.99990801,18.761438 5.23848426,21.0000142 7.99990801,21.0000142 L12,21 C12.5128358,21 12.9355072,20.6139598 12.9932723,20.1166211 L13,20 L13,15.7 C13,14.2661838 14.1176324,13.0934047 15.5292477,13.0053119 L15.7,13 L20,13 C20.5128358,13 20.9355072,12.6139598 20.9932723,12.1166211 L21,12 L21,8 C21,5.23857625 18.7614237,3 16,3 Z M20.1541039,14.9970613 L20,15 L15.7,15 C15.3456173,15 15.0527418,15.2633436 15.0063902,15.6050141 L15,15.7 L15,20 L14.9970397,20.1541257 C16.0019923,19.4390042 16.9337733,18.6520131 17.7928932,17.7928932 C18.6520069,16.9337795 19.4389907,16.0020057 20.1541039,14.9970613 Z"/>
</svg>
