<svg xmlns="http://www.w3.org/2000/svg" width="24" height="24" viewBox="0 0 24 24">
  <path d="M5,13 C4.44771525,13 4,12.5522847 4,12 C4,11.4871642 4.38604019,11.0644928 4.88337887,11.0067277 L5,11 L7.75827342,11.0007452 C7.31608044,10.3404274 7.04404277,9.55654504 7.00489799,8.7118357 L7,8.5 L7,8 C7,5.85780461 8.68396847,4.10892112 10.8003597,4.00489531 L11,4 L13,4 C15.209139,4 17,5.790861 17,8 C17,8.55228475 16.5522847,9 16,9 C15.4871642,9 15.0644928,8.61395981 15.0067277,8.11662113 L15,8 C15,6.9456382 14.1841222,6.08183488 13.1492623,6.00548574 L13,6 L11,6 C9.9456382,6 9.08183488,6.81587779 9.00548574,7.85073766 L9,8 L9,8.5 C9,9.8254834 10.0315359,10.9100387 11.3356243,10.9946823 L11.5,11 L19,11 C19.5522847,11 20,11.4477153 20,12 C20,12.5128358 19.6139598,12.9355072 19.1166211,12.9932723 L19,13 L16.2423907,13.0002469 C16.6841919,13.6603577 16.9559768,14.443878 16.995102,15.2881643 L17,15.5 L17,16 C17,18.1421954 15.3160315,19.8910789 13.1996403,19.9951047 L13,20 L11,20 C8.790861,20 7,18.209139 7,16 C7,15.4477153 7.44771525,15 8,15 C8.55228475,15 9,15.4477153 9,16 C9,17.0543618 9.81587779,17.9181651 10.8507377,17.9945143 L11,18 L13,18 C14.0543618,18 14.9181651,17.1841222 14.9945143,16.1492623 L15,16 L15,15.5 C15,14.1745166 13.9684641,13.0899613 12.6643757,13.0053177 L12.5,13 L5,13 Z"/>
</svg>
