<svg xmlns="http://www.w3.org/2000/svg" width="24" height="24" viewBox="0 0 24 24">
  <path d="M18,18 C18.5522847,18 19,18.4477153 19,19 C19,19.5128358 18.6139598,19.9355072 18.1166211,19.9932723 L18,20 L6,20 C5.44771525,20 5,19.5522847 5,19 C5,18.4871642 5.38604019,18.0644928 5.88337887,18.0067277 L6,18 L18,18 Z M16,4 C16.5128358,4 16.9355072,4.38604019 16.9932723,4.88337887 L17,5 L17,11 C17,13.7614237 14.7614237,16 12,16 C9.3112453,16 7.11818189,13.8776933 7.00461951,11.2168896 L7,11 L7,5 C7,4.44771525 7.44771525,4 8,4 C8.51283584,4 8.93550716,4.38604019 8.99327227,4.88337887 L9,5 L9,11 C9,12.6568542 10.3431458,14 12,14 C13.5976809,14 14.9036609,12.75108 14.9949073,11.1762728 L15,11 L15,5 C15,4.44771525 15.4477153,4 16,4 Z"/>
</svg>
