<svg width="24" height="24" viewBox="0 0 24 24" fill="none" xmlns="http://www.w3.org/2000/svg">
<path fill-rule="evenodd" clip-rule="evenodd" d="M10.5 2.5C10.5 1.67157 11.1716 1 12 1C12.8284 1 13.5 1.67157 13.5 2.5C13.5 2.552 13.4974 2.60338 13.4922 2.65402C16.676 3.32116 19.104 6.08055 19.239 9.45524L19.4093 13.7132C19.4608 14.9989 19.8656 16.2456 20.5794 17.3163L21.3321 18.4453C21.5366 18.7522 21.5557 19.1467 21.3817 19.4719C21.2077 19.797 20.8688 20 20.5 20H3.5C3.13121 20 2.79235 19.797 2.61833 19.4719C2.44431 19.1467 2.46338 18.7522 2.66795 18.4453L3.42062 17.3163C4.1344 16.2456 4.53924 14.9989 4.59068 13.7132L4.76099 9.45523C4.89598 6.08054 7.32399 3.32116 10.5078 2.65402C10.5026 2.60338 10.5 2.552 10.5 2.5ZM12 4.5C9.18493 4.5 6.87191 6.72235 6.75939 9.53517L6.58908 13.7931C6.52966 15.2785 6.10336 16.7234 5.35166 18H18.6483C17.8966 16.7234 17.4703 15.2785 17.4109 13.7931L17.2406 9.53517C17.1281 6.72235 14.8151 4.5 12 4.5ZM12 23C13.1 23 14 22.1 14 21H10C10 22.1 10.89 23 12 23Z" fill="black"/>
</svg>
