<svg width="24" height="24" viewBox="0 0 24 24" fill="none" xmlns="http://www.w3.org/2000/svg">
<path fill-rule="evenodd" clip-rule="evenodd" d="M9.5 6.5C9.5 5.11929 10.6193 4 12 4C13.3807 4 14.5 5.11929 14.5 6.5C14.5 7.88071 13.3807 9 12 9C10.6193 9 9.5 7.88071 9.5 6.5ZM12 2C9.51472 2 7.5 4.01472 7.5 6.5C7.5 8.98528 9.51472 11 12 11C14.4853 11 16.5 8.98528 16.5 6.5C16.5 4.01472 14.4853 2 12 2ZM5.27526 16.4615C6.024 15.6273 7.97772 14 12 14C16.0223 14 17.976 15.6273 18.7247 16.4615C18.892 16.6479 19 16.9508 19 17.3867C19 18.2777 18.2777 19 17.3867 19H6.61328C5.72229 19 5 18.2777 5 17.3867C5 16.9508 5.10798 16.6479 5.27526 16.4615ZM12 12C7.35051 12 4.87345 13.9149 3.78685 15.1256C3.1768 15.8053 3 16.6589 3 17.3867C3 19.3823 4.61772 21 6.61328 21H17.3867C19.3823 21 21 19.3823 21 17.3867C21 16.6589 20.8232 15.8053 20.2132 15.1256C19.1265 13.9149 16.6495 12 12 12Z" fill="black"/>
</svg>
