<svg xmlns="http://www.w3.org/2000/svg" width="24" height="24" viewBox="0 0 24 24">
  <g fill="none" fill-rule="evenodd">
    <polygon points="0 0 24 0 24 24 0 24"/>
    <path fill="#000" fill-rule="nonzero" d="M7.5,1 L16.5,1 C17.6803399,1 18.7961013,1.52099508 19.5534056,2.41604595 L19.7,2.6 L21.2,4.6 C21.6673597,5.22314622 21.9414719,5.96758975 21.9916208,6.74118254 L22,7 L22,18 C22,20.209139 20.209139,22 18,22 L6,22 C3.790861,22 2,20.209139 2,18 L2,7 C2,6.22106723 2.2273763,5.46104504 2.65141289,4.81208149 L2.8,4.6 L4.3,2.6 C5.00820393,1.65572809 6.09445685,1.07571601 7.26488014,1.00690306 L7.5,1 L16.5,1 L7.5,1 Z M18,7 L6,7 C4.8954305,7 4,7.8954305 4,9 L4,18 C4,19.1045695 4.8954305,20 6,20 L18,20 C19.1045695,20 20,19.1045695 20,18 L20,9 C20,7.8954305 19.1045695,7 18,7 Z M8.29289322,11.2928932 C8.65337718,10.9324093 9.22060824,10.9046797 9.61289944,11.2097046 L9.70710678,11.2928932 L12,13.5857864 L14.2928932,11.2928932 C14.6834175,10.9023689 15.3165825,10.9023689 15.7071068,11.2928932 C16.0675907,11.6533772 16.0953203,12.2206082 15.7902954,12.6128994 L15.7071068,12.7071068 L12.7071068,15.7071068 C12.3466228,16.0675907 11.7793918,16.0953203 11.3871006,15.7902954 L11.2928932,15.7071068 L8.29289322,12.7071068 C7.90236893,12.3165825 7.90236893,11.6834175 8.29289322,11.2928932 Z M16.5,3 L7.5,3 C6.92771399,3 6.38578995,3.24494902 6.00820976,3.66785612 L5.9,3.8 L4.88040369,5.15879948 C5.23567546,5.05542416 5.61136523,5 6,5 L18,5 C18.3882729,5 18.7636249,5.055321 19.1186039,5.15851085 L18.1,3.8 C17.7566284,3.3421712 17.2355148,3.05560137 16.670641,3.00728148 L16.5,3 Z"/>
  </g>
</svg>
