<svg xmlns="http://www.w3.org/2000/svg" width="54" height="54" viewBox="0 0 54 54">
  <g fill="none" fill-rule="evenodd">
    <polygon points="0 0 54 0 54 54 0 54"/>
    <path fill="#000" fill-rule="nonzero" d="M27,14 C32.5228475,14 37,18.4771525 37,24 L37,38 C37,38.8909049 35.9228581,39.3370716 35.2928932,38.7071068 L33,36.4142136 L30.7071068,38.7071068 C30.3165825,39.0976311 29.6834175,39.0976311 29.2928932,38.7071068 L27,36.4142136 L24.7071068,38.7071068 C24.3165825,39.0976311 23.6834175,39.0976311 23.2928932,38.7071068 L21,36.4142136 L18.7071068,38.7071068 C18.0771419,39.3370716 17,38.8909049 17,38 L17,24 C17,18.4771525 21.4771525,14 27,14 Z M27,16 C22.581722,16 19,19.581722 19,24 L19,35.5857864 L20.2928932,34.2928932 C20.6834175,33.9023689 21.3165825,33.9023689 21.7071068,34.2928932 L24,36.5857864 L26.2928932,34.2928932 C26.6834175,33.9023689 27.3165825,33.9023689 27.7071068,34.2928932 L30,36.5857864 L32.2928932,34.2928932 C32.6834175,33.9023689 33.3165825,33.9023689 33.7071068,34.2928932 L35,35.5857864 L35,24 C35,19.581722 31.418278,16 27,16 Z M23,22 C24.1045695,22 25,22.8954305 25,24 C25,25.1045695 24.1045695,26 23,26 C21.8954305,26 21,25.1045695 21,24 C21,22.8954305 21.8954305,22 23,22 Z M31,22 C32.1045695,22 33,22.8954305 33,24 C33,25.1045695 32.1045695,26 31,26 C29.8954305,26 29,25.1045695 29,24 C29,22.8954305 29.8954305,22 31,22 Z"/>
  </g>
</svg>
