<svg xmlns="http://www.w3.org/2000/svg" width="24" height="24" viewBox="0 0 24 24">
  <g fill="none" fill-rule="evenodd">
    <polygon points="0 0 24 0 24 24 0 24"/>
    <path fill="#000" fill-rule="nonzero" d="M19.7071068,11.2928932 L12.7071068,4.29289322 C12.3165825,3.90236893 11.6834175,3.90236893 11.2928932,4.29289322 C10.9324093,4.65337718 10.9046797,5.22060824 11.2097046,5.61289944 L11.2928932,5.70710678 L16.586,11 L5,11 C4.48716416,11 4.06449284,11.3860402 4.00672773,11.8833789 L4,12 C4,12.5128358 4.38604019,12.9355072 4.88337887,12.9932723 L5,13 L16.586,13 L11.2928932,18.2928932 C10.9324093,18.6533772 10.9046797,19.2206082 11.2097046,19.6128994 L11.2928932,19.7071068 C11.6533772,20.0675907 12.2206082,20.0953203 12.6128994,19.7902954 L12.7071068,19.7071068 L19.7071068,12.7071068 C20.0675907,12.3466228 20.0953203,11.7793918 19.7902954,11.3871006 L19.7071068,11.2928932 Z"/>
  </g>
</svg>
