<svg xmlns="http://www.w3.org/2000/svg" width="24" height="24" viewBox="0 0 24 24">
  <g fill="none" fill-rule="evenodd">
    <polygon points="0 0 24 0 24 24 0 24"/>
    <path fill="#000" fill-rule="nonzero" d="M12.9253633,4.79529691 C12.9253633,3.93005081 12.2239428,3.22863025 11.3586967,3.22863025 C10.9645336,3.22863025 10.5848544,3.37720768 10.2953796,3.64473128 L2.49950756,10.8494344 C1.86406771,11.4366882 1.82500519,12.4278772 2.4395558,13.0917108 L2.49950756,13.1505656 L10.2953796,20.3552687 C10.9308195,20.9425225 11.9220085,20.90346 12.5092623,20.2680201 C12.7767859,19.9785454 12.9253633,19.5988662 12.9253633,19.2047031 L12.9253633,16.4249931 C16.5086909,16.6092505 18.933121,17.8111183 20.294784,19.9909578 L20.4362628,20.2262356 C20.7745461,20.8131459 21.5245638,21.0146979 22.1114742,20.6764146 C22.4860555,20.4605134 22.7193069,20.0633528 22.725415,19.6310483 C22.8297602,12.2459874 19.5940281,8.13673748 13.2453884,7.6491321 L12.9253633,7.62777147 L12.9253633,4.79529691 Z M10.9253633,5.78581808 L10.9253633,8.6 C10.9253633,9.15228475 11.3730786,9.6 11.9253633,9.6 C17.2355859,9.6 20.0741525,12.0566924 20.6272529,17.2535243 C18.6314098,15.345115 15.7085544,14.4 11.9253633,14.4 C11.3730786,14.4 10.9253633,14.8477153 10.9253633,15.4 L10.9253633,18.2142808 L4.20073968,12.0005066 L10.9253633,5.78581808 Z"/>
  </g>
</svg>
