<?xml version="1.0" standalone="no"?>
<!DOCTYPE svg PUBLIC "-//W3C//DTD SVG 20010904//EN"
 "http://www.w3.org/TR/2001/REC-SVG-20010904/DTD/svg10.dtd">
<svg version="1.0" xmlns="http://www.w3.org/2000/svg"
 width="700.000000pt" height="700.000000pt" viewBox="0 0 700.000000 700.000000"
 preserveAspectRatio="xMidYMid meet">
<metadata>
Created by potrace 1.11, written by Peter Selinger 2001-2013
</metadata>
<g transform="translate(0.000000,700.000000) scale(0.100000,-0.100000)"
fill="#000000" stroke="none">
<path d="M3278 6995 c-1 -1 -41 -5 -88 -9 -87 -7 -105 -9 -225 -27 -116 -18
-123 -19 -192 -35 -184 -42 -248 -59 -369 -99 -459 -153 -870 -390 -1229 -709
-358 -318 -674 -746 -857 -1159 -27 -62 -53 -121 -58 -132 -46 -95 -150 -427
-176 -560 -2 -11 -10 -54 -19 -95 -29 -147 -36 -200 -52 -370 -15 -165 -8
-592 12 -711 2 -13 6 -46 9 -74 9 -78 23 -156 51 -285 23 -107 88 -333 114
-395 5 -11 25 -65 46 -120 50 -132 181 -398 250 -508 30 -49 55 -90 55 -93 0
-3 4 -10 10 -17 5 -7 46 -64 91 -126 72 -103 179 -239 234 -297 243 -261 429
-421 682 -590 77 -52 145 -94 149 -94 4 0 15 -6 23 -14 29 -25 304 -161 431
-213 269 -110 577 -194 835 -228 22 -2 56 -7 75 -10 186 -26 698 -27 838 0 16
3 104 15 147 20 324 41 870 235 1167 415 37 22 70 40 73 40 3 0 11 5 18 10 7
6 62 43 122 83 253 168 492 376 678 592 33 39 63 72 67 75 17 13 181 236 245
335 221 340 406 777 481 1140 16 79 54 301 59 350 4 33 9 71 11 85 9 46 11
524 4 605 -12 128 -21 202 -25 227 -3 13 -8 43 -11 68 -9 67 -70 335 -94 412
-11 37 -21 70 -21 73 0 2 -16 49 -35 102 -222 616 -576 1124 -1074 1541 -66
56 -304 230 -351 257 -235 137 -500 275 -527 275 -4 0 -26 8 -48 19 -98 47
-408 141 -579 176 -44 9 -89 19 -100 21 -11 2 -38 6 -60 9 -22 3 -51 7 -65 10
-13 2 -52 7 -86 11 -33 3 -74 8 -90 10 -32 5 -540 14 -546 9z m1831 -2053 c39
-25 59 -53 72 -96 12 -44 14 -156 5 -226 -10 -74 -15 -112 -21 -170 -4 -30 -8
-66 -10 -80 -2 -14 -7 -45 -10 -70 -6 -54 -8 -66 -44 -306 -11 -72 -23 -156
-26 -185 -4 -30 -10 -72 -15 -94 -5 -22 -12 -62 -15 -90 -4 -27 -15 -104 -26
-170 -11 -66 -22 -131 -24 -145 -2 -14 -16 -95 -30 -180 -14 -85 -28 -167 -30
-182 -3 -16 -7 -43 -10 -60 -3 -18 -21 -121 -40 -228 -19 -107 -37 -211 -40
-230 -9 -57 -17 -104 -22 -125 -2 -11 -15 -81 -29 -155 -31 -169 -39 -201 -72
-275 -53 -123 -118 -176 -221 -179 -106 -4 -202 35 -371 152 -97 67 -359 244
-785 530 -132 89 -265 184 -296 211 -90 80 -112 153 -73 237 24 52 264 291
625 624 180 166 509 487 582 568 84 93 16 177 -87 107 -20 -14 -39 -25 -41
-25 -2 0 -23 -13 -47 -28 -24 -16 -72 -47 -108 -70 -36 -22 -70 -45 -75 -49
-6 -4 -253 -170 -550 -368 -297 -197 -542 -362 -545 -365 -3 -3 -50 -35 -106
-72 -218 -143 -331 -179 -499 -156 -74 10 -284 62 -400 98 -407 129 -466 158
-480 238 -15 87 53 137 370 275 664 288 651 282 720 312 17 8 47 21 67 29 885
382 1426 611 1743 738 110 43 214 85 230 93 151 66 471 174 550 185 70 10 153
2 184 -18z"/>
</g>
</svg>
