<svg width="24" height="24" viewBox="0 0 24 24" fill="none" xmlns="http://www.w3.org/2000/svg">
    <mask id="path-1-outside-1_1_138" maskUnits="userSpaceOnUse" x="4.6698" y="3.66992" width="15" height="17" fill="black">
        <rect fill="white" x="4.6698" y="3.66992" width="15" height="17"/>
        <path fill-rule="evenodd" clip-rule="evenodd" d="M12.7682 6.18566C12.6406 5.87372 12.337 5.66992 12 5.66992C11.663 5.66992 11.3594 5.87372 11.2318 6.18566L6.73181 17.1857C6.55825 17.6099 6.76149 18.0946 7.18575 18.2681C7.61002 18.4417 8.09466 18.2385 8.26822 17.8142L9.48906 14.8299H14.511L15.7318 17.8142C15.9054 18.2385 16.39 18.4417 16.8143 18.2681C17.2386 18.0946 17.4418 17.6099 17.2682 17.1857L12.7682 6.18566ZM13.8319 13.1699L12 8.69202L10.1681 13.1699H13.8319Z"/>
    </mask>
    <path d="M12.7682 6.18566L11.2318 6.81419L11.2318 6.81419L12.7682 6.18566ZM11.2318 6.18566L9.69541 5.55713V5.55713L11.2318 6.18566ZM6.73181 17.1857L5.19541 16.5571L5.19541 16.5571L6.73181 17.1857ZM8.26822 17.8142L6.73181 17.1857L6.73181 17.1857L8.26822 17.8142ZM9.48906 14.8299V13.1699C8.815 13.1699 8.20787 13.5775 7.95265 14.2014L9.48906 14.8299ZM14.511 14.8299L16.0474 14.2014C15.7922 13.5775 15.185 13.1699 14.511 13.1699V14.8299ZM15.7318 17.8142L17.2682 17.1857L15.7318 17.8142ZM17.2682 17.1857L18.8046 16.5571L17.2682 17.1857ZM13.8319 13.1699V14.8299C14.385 14.8299 14.9018 14.5544 15.2101 14.0952C15.5184 13.636 15.5777 13.0533 15.3683 12.5414L13.8319 13.1699ZM12 8.69202L13.5364 8.06349C13.2812 7.43962 12.6741 7.03202 12 7.03202C11.326 7.03202 10.7188 7.43962 10.4636 8.06349L12 8.69202ZM10.1681 13.1699L8.63174 12.5414C8.42231 13.0533 8.48163 13.636 8.78993 14.0952C9.09824 14.5544 9.61503 14.8299 10.1681 14.8299V13.1699ZM12 7.32992C11.663 7.32992 11.3594 7.12612 11.2318 6.81419L14.3046 5.55713C13.9218 4.62132 13.0111 4.00992 12 4.00992V7.32992ZM12.7682 6.81419C12.6406 7.12612 12.337 7.32992 12 7.32992V4.00992C10.9889 4.00992 10.0782 4.62132 9.69541 5.55713L12.7682 6.81419ZM8.26822 17.8142L12.7682 6.81419L9.69541 5.55713L5.19541 16.5571L8.26822 17.8142ZM7.81428 16.7317C8.23855 16.9053 8.44179 17.3899 8.26822 17.8142L5.19541 16.5571C4.67471 17.8299 5.28442 19.2838 6.55722 19.8045L7.81428 16.7317ZM6.73181 17.1857C6.90538 16.7614 7.39002 16.5582 7.81428 16.7317L6.55722 19.8045C7.83002 20.3252 9.28394 19.7155 9.80463 18.4427L6.73181 17.1857ZM7.95265 14.2014L6.73181 17.1857L9.80463 18.4427L11.0255 15.4585L7.95265 14.2014ZM14.511 13.1699H9.48906V16.4899H14.511V13.1699ZM17.2682 17.1857L16.0474 14.2014L12.9746 15.4585L14.1954 18.4427L17.2682 17.1857ZM16.1858 16.7317C16.61 16.5582 17.0947 16.7614 17.2682 17.1857L14.1954 18.4427C14.7161 19.7155 16.17 20.3252 17.4428 19.8045L16.1858 16.7317ZM15.7318 17.8142C15.5583 17.3899 15.7615 16.9053 16.1858 16.7317L17.4428 19.8045C18.7156 19.2838 19.3253 17.8299 18.8046 16.5571L15.7318 17.8142ZM11.2318 6.81419L15.7318 17.8142L18.8046 16.5571L14.3046 5.55713L11.2318 6.81419ZM15.3683 12.5414L13.5364 8.06349L10.4636 9.32055L12.2955 13.7985L15.3683 12.5414ZM10.4636 8.06349L8.63174 12.5414L11.7046 13.7985L13.5364 9.32055L10.4636 8.06349ZM10.1681 14.8299H13.8319V11.5099H10.1681V14.8299Z" fill="white" mask="url(#path-1-outside-1_1_138)"/>
</svg>
