<svg width="24" height="24" viewBox="0 0 24 24" fill="none" xmlns="http://www.w3.org/2000/svg">
    <path fill-rule="evenodd" clip-rule="evenodd" d="M3.17004 3.99992C3.17004 3.54153 3.54165 3.16992 4.00004 3.16992H20C20.4584 3.16992 20.83 3.54153 20.83 3.99992C20.83 4.45832 20.4584 4.82992 20 4.82992H4.00004C3.54165 4.82992 3.17004 4.45832 3.17004 3.99992ZM3.17004 11.9999C3.17004 11.5415 3.54165 11.1699 4.00004 11.1699H20C20.4584 11.1699 20.83 11.5415 20.83 11.9999C20.83 12.4583 20.4584 12.8299 20 12.8299H4.00004C3.54165 12.8299 3.17004 12.4583 3.17004 11.9999ZM3.17004 19.9999C3.17004 19.5415 3.54165 19.1699 4.00004 19.1699H20C20.4584 19.1699 20.83 19.5415 20.83 19.9999C20.83 20.4583 20.4584 20.8299 20 20.8299H4.00004C3.54165 20.8299 3.17004 20.4583 3.17004 19.9999ZM7.00004 15.1699C6.54165 15.1699 6.17004 15.5415 6.17004 15.9999C6.17004 16.4583 6.54165 16.8299 7.00004 16.8299H17C17.4584 16.8299 17.83 16.4583 17.83 15.9999C17.83 15.5415 17.4584 15.1699 17 15.1699H7.00004ZM7.00004 7.16992C6.54165 7.16992 6.17004 7.54153 6.17004 7.99992C6.17004 8.45832 6.54165 8.82992 7.00004 8.82992H17C17.4584 8.82992 17.83 8.45832 17.83 7.99992C17.83 7.54153 17.4584 7.16992 17 7.16992H7.00004Z" fill="white"/>
</svg>
