<svg width="18" height="18" viewBox="0 0 18 18" xmlns="http://www.w3.org/2000/svg">
    <path fill-rule="evenodd" clip-rule="evenodd" d="M14 1C14 0.447715 13.5523 0 13 0C12.4477 0 12 0.447715 12 1V3V5C12 5.55228 12.4477 6 13 6C13.5523 6 14 5.55228 14 5V4H17C17.5523 4 18 3.55228 18 3C18 2.44772 17.5523 2 17 2H14V1ZM0 3C0 2.44772 0.447715 2 1 2H9C9.55229 2 10 2.44772 10 3C10 3.55228 9.55229 4 9 4H1C0.447715 4 0 3.55228 0 3ZM0 15C0 14.4477 0.447715 14 1 14H5C5.55228 14 6 14.4477 6 15C6 15.5523 5.55228 16 5 16H1C0.447715 16 0 15.5523 0 15ZM9 8C8.44771 8 8 8.44771 8 9C8 9.55229 8.44771 10 9 10H17C17.5523 10 18 9.55229 18 9C18 8.44771 17.5523 8 17 8H9ZM10 13V14H17C17.5523 14 18 14.4477 18 15C18 15.5523 17.5523 16 17 16H10V17C10 17.5523 9.55229 18 9 18C8.44771 18 8 17.5523 8 17V15V13C8 12.4477 8.44771 12 9 12C9.55229 12 10 12.4477 10 13ZM0 9C0 8.44771 0.447715 8 1 8H4V7C4 6.44772 4.44772 6 5 6C5.55228 6 6 6.44772 6 7V9V11C6 11.5523 5.55228 12 5 12C4.44772 12 4 11.5523 4 11V10H1C0.447715 10 0 9.55229 0 9Z" fill="currentcolor"/>
</svg>
