<svg width="80" height="80" viewBox="0 0 80 80" fill="none" xmlns="http://www.w3.org/2000/svg">
<path fill-rule="evenodd" clip-rule="evenodd" d="M50.9334 40.1783C51.5042 40.1783 52.0649 40.2219 52.6121 40.3062C52.6337 40.3095 52.655 40.3145 52.6766 40.3179C57.8863 41.1527 61.8669 45.666 61.867 51.1109C61.867 57.1492 56.9717 62.0445 50.9334 62.0445C46.8676 62.0444 43.323 59.8233 41.4393 56.5298L41.4373 56.5308C41.4171 56.4955 41.3975 56.4599 41.3777 56.4244C41.3474 56.3699 41.3173 56.3153 41.2879 56.2603C41.2249 56.1425 41.1641 56.0233 41.1053 55.9029C41.0861 55.8637 41.0674 55.8242 41.0486 55.7847C40.9886 55.658 40.9301 55.5303 40.8748 55.4009C40.8541 55.3524 40.8343 55.3034 40.8143 55.2545C40.7794 55.1695 40.7464 55.0837 40.7137 54.9976C40.6836 54.9186 40.6541 54.8393 40.6258 54.7593C40.5898 54.6578 40.5553 54.5556 40.5223 54.4527C40.5042 54.3962 40.4858 54.3397 40.4686 54.2828C40.4296 54.1542 40.3925 54.0247 40.3582 53.8941C40.3446 53.8423 40.333 53.79 40.3201 53.7379C40.2931 53.6281 40.2677 53.5178 40.244 53.4068C40.2326 53.3538 40.2203 53.3009 40.2098 53.2476C40.1834 53.1147 40.16 52.9809 40.1385 52.8463C40.1317 52.8034 40.1253 52.7604 40.119 52.7173C40.0982 52.5766 40.0796 52.435 40.0643 52.2925C40.0583 52.237 40.0538 52.1813 40.0486 52.1255C40.0368 51.9966 40.0267 51.8671 40.0193 51.7369C40.0077 51.5298 40.0008 51.3209 40.0008 51.1109C40.0009 45.2614 44.5942 40.4848 50.3709 40.192C50.5572 40.1825 50.7448 40.1783 50.9334 40.1783ZM50.9344 44.4332C50.2651 44.4332 49.7225 44.9758 49.7225 45.6451V49.9H45.4676C44.7983 49.9 44.2557 50.4426 44.2557 51.1119C44.256 51.7808 44.7986 52.3238 45.4676 52.3238H49.7225V56.5787C49.7229 57.2476 50.2654 57.7906 50.9344 57.7906C51.603 57.7901 52.1459 57.2473 52.1463 56.5787V52.3238H56.4012C57.0697 52.3232 57.6127 51.7805 57.6131 51.1119C57.6131 50.443 57.0699 49.9005 56.4012 49.9H52.1463V45.6451C52.1463 44.9761 51.6033 44.4336 50.9344 44.4332Z" fill="white"/>
<path d="M40.0008 20.1334C45.6402 20.1335 50.7356 22.2509 54.3777 25.6588C57.8849 28.9404 60.0447 33.4192 60.0447 38.356C60.0447 39.3006 59.9658 40.2285 59.8133 41.1343C57.4533 39.0322 54.3434 37.7546 50.9344 37.7545C43.5576 37.7545 37.577 43.7351 37.577 51.1119C37.5771 53.0438 37.9873 54.8797 38.7254 56.5377C38.625 56.5319 38.5246 56.5291 38.4246 56.522C38.4092 56.5209 38.3931 56.5202 38.3777 56.5191C37.25 56.437 36.1482 56.2698 35.0809 56.025C34.7832 55.957 34.4448 56.2695 33.8807 56.7906C33.1982 57.421 32.1845 58.3572 30.5115 59.2955C28.3741 60.4939 25.413 60.3904 24.9109 60.1802C24.4303 59.9786 24.8005 59.5773 25.452 58.8716C25.9026 58.3835 26.4877 57.7492 27.0193 56.9341C28.3198 54.9406 27.7825 52.5673 27.199 52.1402C22.637 48.8002 19.956 44.0955 19.9559 38.356C19.9559 28.2922 28.9306 20.1334 40.0008 20.1334Z" fill="white"/>
</svg>
