<svg width="18" height="18" viewBox="0 0 18 18" fill="none" xmlns="http://www.w3.org/2000/svg">
<path d="M9 5.25017L8.28849 5.48734C8.39057 5.7936 8.67718 6.00017 9 6.00017C9.32282 6.00017 9.60943 5.7936 9.71151 5.48734L9 5.25017ZM12.375 3.00391L12.3761 2.25391L12.375 3.00391ZM5.62471 3.00391L5.62471 3.75391L5.62578 3.75391L5.62471 3.00391ZM9.35524 14.7907L8.96495 14.1503L8.96495 14.1503L9.35524 14.7907ZM8.64476 14.7907L9.03505 14.1503L8.64476 14.7907ZM14.4513 8.85702C14.2654 9.22719 14.4148 9.67795 14.785 9.86382C15.1552 10.0497 15.6059 9.90028 15.7918 9.53011L14.4513 8.85702ZM10.0744 15.2262C10.4238 15.0038 10.5268 14.5402 10.3044 14.1908C10.082 13.8414 9.61846 13.7384 9.26901 13.9608L10.0744 15.2262ZM9.03505 14.1503C8.36143 13.7398 6.81949 12.7339 5.45501 11.3741C4.06589 9.98973 3 8.3767 3 6.75016H1.5C1.5 8.9979 2.93578 10.9812 4.39618 12.4366C5.88123 13.9165 7.53667 14.9937 8.25448 15.4312L9.03505 14.1503ZM9 5.25017C9.71151 5.48734 9.71139 5.4877 9.71128 5.48805C9.71124 5.48815 9.71113 5.4885 9.71106 5.48871C9.71092 5.48913 9.71079 5.48952 9.71066 5.48987C9.71042 5.49058 9.71023 5.49117 9.71007 5.49162C9.70976 5.49253 9.70962 5.49293 9.70965 5.49284C9.70971 5.49266 9.71047 5.49052 9.71195 5.48655C9.71491 5.47859 9.72073 5.4634 9.72965 5.44199C9.74754 5.39905 9.77755 5.33197 9.82145 5.24881C9.90992 5.08123 10.0506 4.85626 10.2558 4.63266C10.6544 4.19814 11.3067 3.75239 12.3739 3.75391L12.3761 2.25391C10.8183 2.25169 9.78307 2.92908 9.15047 3.61862C8.83998 3.95705 8.62914 4.29435 8.49495 4.54852C8.42753 4.67624 8.37843 4.78492 8.34506 4.86501C8.32834 4.90512 8.31549 4.93826 8.30618 4.96326C8.30153 4.97577 8.29775 4.98626 8.29482 4.9946C8.29335 4.99876 8.29209 5.00239 8.29104 5.00546C8.29051 5.007 8.29004 5.0084 8.28961 5.00966C8.2894 5.01029 8.2892 5.01088 8.28901 5.01144C8.28892 5.01171 8.28879 5.01211 8.28874 5.01225C8.28861 5.01263 8.28849 5.013 9 5.25017ZM12.3739 3.75391C13.4885 3.7555 15 4.75422 15 6.75016H16.5C16.5 3.8711 14.2615 2.2566 12.3761 2.25391L12.3739 3.75391ZM3 6.75016C3 4.75347 4.51226 3.75391 5.62471 3.75391L5.62471 2.25391C3.73774 2.25391 1.5 3.87215 1.5 6.75016H3ZM5.62578 3.75391C6.69321 3.75239 7.34553 4.19816 7.7442 4.63268C7.94935 4.85628 8.09008 5.08124 8.17855 5.24883C8.22245 5.33198 8.25246 5.39906 8.27035 5.442C8.27927 5.4634 8.28509 5.4786 8.28806 5.48655C8.28953 5.49052 8.29029 5.49266 8.29035 5.49284C8.29038 5.49293 8.29024 5.49253 8.28993 5.49162C8.28977 5.49117 8.28958 5.49058 8.28934 5.48987C8.28922 5.48952 8.28908 5.48913 8.28894 5.48871C8.28887 5.4885 8.28876 5.48815 8.28872 5.48805C8.28861 5.4877 8.28849 5.48734 9 5.25017C9.71151 5.013 9.71139 5.01263 9.71126 5.01225C9.71121 5.01211 9.71108 5.01171 9.71099 5.01144C9.7108 5.01088 9.7106 5.01028 9.71039 5.00966C9.70996 5.0084 9.70949 5.007 9.70896 5.00546C9.70791 5.00239 9.70665 4.99876 9.70518 4.99459C9.70225 4.98626 9.69847 4.97577 9.69382 4.96326C9.68451 4.93826 9.67165 4.90512 9.65494 4.86501C9.62156 4.78491 9.57246 4.67623 9.50504 4.54851C9.37084 4.29434 9.15999 3.95703 8.84948 3.6186C8.21682 2.92905 7.1815 2.25169 5.62364 2.25391L5.62578 3.75391ZM8.96495 14.1503C8.97049 14.1469 8.98299 14.1419 9 14.1419C9.01701 14.1419 9.02951 14.1469 9.03505 14.1503L8.25448 15.4312C8.71545 15.7121 9.28455 15.7121 9.74552 15.4312L8.96495 14.1503ZM15 6.75016C15 7.45472 14.801 8.16056 14.4513 8.85702L15.7918 9.53011C16.2199 8.67762 16.5 7.74115 16.5 6.75016H15ZM9.26901 13.9608C9.15405 14.0339 9.0519 14.0973 8.96495 14.1503L9.74552 15.4312C9.84033 15.3734 9.95077 15.3049 10.0744 15.2262L9.26901 13.9608Z" fill="black"/>
<path d="M15 13H13.5V14.5C13.5 14.9125 13.1625 15.25 12.75 15.25C12.3375 15.25 12 14.9125 12 14.5V13H10.5C10.0875 13 9.75 12.6625 9.75 12.25C9.75 11.8375 10.0875 11.5 10.5 11.5H12V10C12 9.5875 12.3375 9.25 12.75 9.25C13.1625 9.25 13.5 9.5875 13.5 10V11.5H15C15.4125 11.5 15.75 11.8375 15.75 12.25C15.75 12.6625 15.4125 13 15 13Z" fill="black"/>
</svg>
