<svg width="24" height="24" viewBox="0 0 24 24" fill="none" xmlns="http://www.w3.org/2000/svg">
<path fill-rule="evenodd" clip-rule="evenodd" d="M10.5 6.5C10.5 5.11929 11.6193 4 13 4C14.3807 4 15.5 5.11929 15.5 6.5C15.5 7.88071 14.3807 9 13 9C11.6193 9 10.5 7.88071 10.5 6.5ZM13 2C10.5147 2 8.5 4.01472 8.5 6.5C8.5 8.98528 10.5147 11 13 11C15.4853 11 17.5 8.98528 17.5 6.5C17.5 4.01472 15.4853 2 13 2ZM7.98137 15.1362C9.07471 14.5358 10.6909 14 13 14C17.0223 14 18.976 15.6273 19.7247 16.4615C19.892 16.6479 20 16.9508 20 17.3867C20 18.2777 19.2777 19 18.3867 19H12C11.4477 19 11 19.4477 11 20C11 20.5523 11.4477 21 12 21H18.3867C20.3823 21 22 19.3823 22 17.3867C22 16.6589 21.8232 15.8053 21.2132 15.1256C20.1265 13.9149 17.6495 12 13 12C10.3661 12 8.41716 12.6151 7.01863 13.3832C6.53454 13.649 6.35763 14.257 6.62348 14.7411C6.88933 15.2252 7.49728 15.4021 7.98137 15.1362ZM6 16C6.55228 16 7 16.4477 7 17V19H9C9.55228 19 10 19.4477 10 20C10 20.5523 9.55228 21 9 21H7V23C7 23.5523 6.55228 24 6 24C5.44772 24 5 23.5523 5 23V21H3C2.44772 21 2 20.5523 2 20C2 19.4477 2.44772 19 3 19H5V17C5 16.4477 5.44772 16 6 16Z" fill="black"/>
</svg>
