<svg width="24" height="24" viewBox="0 0 24 24" fill="none" xmlns="http://www.w3.org/2000/svg">
<g clip-path="url(#clip0_718_4)">
<path fill-rule="evenodd" clip-rule="evenodd" d="M11.73 3C11.9087 2.96998 12.0913 2.96998 12.27 3C12.6137 3.06633 12.949 3.17029 13.27 3.31L18.03 5C18.4228 5.10087 18.7997 5.25567 19.15 5.46C19.2749 5.56815 19.3711 5.70558 19.43 5.86C19.5149 6.26079 19.5385 6.67213 19.5 7.08V12.33C19.5937 13.532 19.5128 14.7412 19.26 15.92C19.0648 16.5363 18.7486 17.1074 18.33 17.6C16.3534 16.6713 14.1822 16.2322 12 16.32C9.81783 16.2322 7.64662 16.6713 5.67 17.6C5.25437 17.1053 4.93854 16.5348 4.74 15.92C4.48715 14.7412 4.40631 13.532 4.5 12.33V7.08C4.46251 6.67544 4.4861 6.26754 4.57 5.87C4.62885 5.71558 4.72505 5.57815 4.85 5.47C5.19975 5.26219 5.57669 5.10401 5.97 5L10.74 3.33C11.0569 3.18413 11.3889 3.07346 11.73 3ZM7.5 19L8.77 19.75L10.1 20.54C10.5656 20.8623 11.0738 21.1181 11.61 21.3C11.8868 21.3595 12.1732 21.3595 12.45 21.3C12.9862 21.1181 13.4944 20.8623 13.96 20.54L15.29 19.75L16.5 19C15.0411 18.512 13.5076 18.2852 11.97 18.33C10.4524 18.2922 8.93983 18.519 7.5 19ZM12.5 1C12.168 0.957199 11.832 0.957199 11.5 1C11.036 1.08561 10.5832 1.22314 10.15 1.41H10.07L5.3 3.12H5.17C4.57821 3.3059 4.02807 3.60475 3.55 4C3.17811 4.30921 2.88649 4.70375 2.7 5.15C2.52703 5.72995 2.4593 6.33618 2.5 6.94V12.51C2.40873 13.8529 2.52339 15.2018 2.84 16.51C3.13948 17.4299 3.62639 18.2777 4.27 19C5.24322 19.9422 6.35639 20.7282 7.57 21.33L7.73 21.42L9.06 22.21L9.18 22.28C9.79391 22.6927 10.4688 23.0065 11.18 23.21C11.7337 23.3289 12.3063 23.3289 12.86 23.21C13.5712 23.0065 14.2461 22.6927 14.86 22.28L14.98 22.21L16.31 21.42L16.47 21.33C17.6695 20.7247 18.7689 19.9389 19.73 19C20.376 18.2719 20.863 17.417 21.16 16.49C21.4766 15.1818 21.5913 13.8329 21.5 12.49V6.94C21.5407 6.33618 21.473 5.72995 21.3 5.15C21.1278 4.7089 20.8537 4.31483 20.5 4C20.0147 3.63674 19.465 3.36868 18.88 3.21H18.75L13.93 1.44H13.85C13.418 1.24285 12.9652 1.09524 12.5 1ZM12 8.32C11.6044 8.32 11.2178 8.4373 10.8889 8.65706C10.56 8.87682 10.3036 9.18918 10.1522 9.55463C10.0009 9.92008 9.96126 10.3222 10.0384 10.7102C10.1156 11.0981 10.3061 11.4545 10.5858 11.7342C10.8655 12.0139 11.2219 12.2044 11.6098 12.2816C11.9978 12.3587 12.3999 12.3191 12.7654 12.1678C13.1308 12.0164 13.4432 11.76 13.6629 11.4311C13.8827 11.1022 14 10.7156 14 10.32C14 9.78957 13.7893 9.28086 13.4142 8.90579C13.0391 8.53071 12.5304 8.32 12 8.32ZM8 10.32C8 9.52887 8.23459 8.75552 8.67412 8.09772C9.11365 7.43992 9.73836 6.92723 10.4693 6.62448C11.2002 6.32173 12.0044 6.24252 12.7804 6.39686C13.5563 6.5512 14.269 6.93216 14.8284 7.49157C15.3878 8.05098 15.7688 8.76371 15.9231 9.53964C16.0775 10.3156 15.9983 11.1198 15.6955 11.8507C15.3928 12.5816 14.8801 13.2064 14.2223 13.6459C13.5645 14.0854 12.7911 14.32 12 14.32C10.9391 14.32 9.92172 13.8986 9.17157 13.1484C8.42143 12.3983 8 11.3809 8 10.32Z" fill="black"/>
</g>
<defs>
<clipPath id="clip0_718_4">
<rect width="19" height="22.34" fill="white" transform="translate(2.5 1)"/>
</clipPath>
</defs>
</svg>
