<svg width="120" height="120" viewBox="0 0 120 120" fill="none" xmlns="http://www.w3.org/2000/svg">
<path fill-rule="evenodd" clip-rule="evenodd" d="M33.1212 45.4846C32.1817 48.5817 32.1817 52.3878 32.1817 60.0001V60.8557V60.8557C32.1817 64.5369 32.1817 66.3775 31.8937 68.1325C31.3494 71.4489 30.0464 74.5947 28.0862 77.3246C27.0489 78.7692 25.7389 80.0793 23.1188 82.6994L23.1188 82.6995C21.3075 84.5108 20.4018 85.4165 20.1852 86.1455C19.7811 87.5051 20.3846 88.962 21.6317 89.6377C22.3004 90 23.5714 90 26.1135 90H62.1818C69.794 90 73.6001 90 76.6972 89.0605C83.6703 86.9452 89.1272 81.4884 91.2424 74.5152C92.1819 71.4181 92.1819 67.612 92.1818 59.9998C92.1818 52.3877 92.1818 48.5816 91.2423 45.4846C89.127 38.5115 83.6702 33.0547 76.6971 30.9395C73.6 30 69.7939 30 62.1818 30C54.5695 30 50.7634 30 47.6663 30.9395C40.6932 33.0548 35.2364 38.5116 33.1212 45.4846ZM56.5107 66.0256H51.9696C48.1612 66.0256 45.0739 62.9383 45.0739 59.13C45.0739 55.3216 48.1612 52.2344 51.9695 52.2344H56.5107C57.0838 52.2344 57.3703 52.2344 57.6483 52.2042C58.4141 52.1212 59.1517 51.8681 59.8072 51.4635C60.0451 51.3166 60.2713 51.1407 60.7236 50.7889L65.477 47.0918C68.334 44.8697 69.7625 43.7587 70.9618 43.7689C72.0052 43.7777 72.9884 44.2586 73.6359 45.0767C74.3803 46.0172 74.3803 47.8269 74.3803 51.4463V66.8137C74.3803 70.4331 74.3803 72.2428 73.6359 73.1832C72.9884 74.0014 72.0052 74.4822 70.9618 74.4911C69.7625 74.5013 68.334 73.3903 65.477 71.1682L60.7237 67.4711C60.2713 67.1193 60.0451 66.9433 59.8072 66.7965C59.1517 66.3919 58.4141 66.1388 57.6483 66.0558C57.3703 66.0256 57.0838 66.0256 56.5107 66.0256ZM51.9695 71.0013C51.9695 70.1059 51.9695 69.6582 52.1318 69.3111C52.3029 68.9451 52.5972 68.6508 52.9632 68.4797C53.3103 68.3174 53.758 68.3174 54.6535 68.3174H56.1812C57.0766 68.3174 57.5244 68.3174 57.8714 68.4797C58.2374 68.6508 58.5317 68.9451 58.7029 69.3111C58.8651 69.6582 58.8651 70.1059 58.8651 71.0013V72.9214C58.8651 74.8256 57.3215 76.3692 55.4173 76.3692C53.5132 76.3692 51.9695 74.8256 51.9695 72.9214V71.0013Z" fill="white"/>
</svg>
