<?xml version="1.0" encoding="UTF-8"?>
<svg width="24px" height="24px" viewBox="96.5 111.3 766.5 766.5" xmlns="http://www.w3.org/2000/svg">
    <g stroke="none" fill="none" fill-rule="evenodd">
        <path d="M 498.706 365.42 C 515.594 363.348 538.563 365.861 548.485 381.651 C 566.807 410.809 576.751 446.661 588.311 479.176 L 637.399 618.626 L 665.78 698.579 C 676.659 729.146 687.226 748.313 682.54 781.481 C 675.846 788.102 668.071 795.055 658.868 797.629 C 651.616 799.698 643.834 798.72 637.319 794.919 C 631.617 791.632 622.75 782.719 620.419 776.738 C 608.192 745.354 594.733 707.965 586.262 675.669 C 569.761 672.672 533.607 673.757 515.5 673.803 L 465.584 673.663 C 429.007 673.61 428.662 668.91 417.869 707.395 C 410.414 728.146 405.333 752.038 396.071 771.94 C 379.585 807.367 355.479 802.277 330.202 783.696 C 330.019 782.164 329.86 780.629 329.726 779.091 C 328.901 769.751 329.769 760.338 332.289 751.306 C 338.538 728.396 348.963 702.053 357.021 679.401 L 394.065 573.806 L 430.927 469.343 C 440.963 440.571 450.771 403.685 469.355 379.052 C 476.858 369.108 486.798 366.389 498.706 365.42 z M 504.968 436.525 C 508.866 440.798 524.908 486.278 526.975 494.054 C 537.563 533.876 560.589 582.995 564.841 623.288 C 546.777 622.864 528.711 622.571 510.642 622.408 C 489.848 622.27 469.054 622.56 448.271 623.279 C 449.463 605.6 468.851 551.806 475.731 531.511 C 486.173 500.704 494.943 466.856 504.968 436.525 z" fill="#FFFFFF"></path>
        <path d="M 754.216 524.167 C 763.771 523.439 778.578 525.381 783.67 533.512 C 790.57 544.531 788.595 576.397 788.599 589.29 L 788.562 654.629 C 788.553 691.578 790.329 746.525 787.335 782.106 C 781.652 787.948 775.21 792.333 768.254 796.474 C 752.507 799.502 746.874 792.906 735.396 783.22 C 733.424 762.938 733.05 546.574 736.372 537.446 C 738.677 531.114 748.456 526.925 754.216 524.167 z" fill="#FFFFFF"></path>
        <path d="M 757.56 426.311 C 768.63 427.03 775.49 429.481 785.226 434.328 C 797.887 454.333 796.6 461.896 785.005 482.127 C 777.16 485.341 772.393 487.022 764.241 489.32 C 731.637 497.151 705.869 438.865 757.56 426.311 z" fill="#FFFFFF"></path>
    </g>
</svg>
