<?xml version="1.0" encoding="UTF-8"?>
<svg width="24px" height="24px" viewBox="96.5 111.3 766.5 766.5" xmlns="http://www.w3.org/2000/svg">
    <g stroke="none" fill="none" fill-rule="evenodd">
        <path d="M 227.159 367.788 C 233.561 369.307 240.228 369.662 246.771 369.89 C 248.488 420.574 264.795 427.64 311.005 436.455 C 310.491 445.011 310.17 446.339 311.45 454.821 C 305.224 455.372 297.895 455.922 291.885 456.866 C 243.817 464.419 258.4 489.944 240.267 514.706 C 237.443 517.55 234.726 520.712 231.065 522.27 C 229.488 521.415 227.953 519.681 227.797 517.859 C 223.678 469.953 209.284 457.548 161.759 455.794 C 162.291 447.329 162.683 442.73 161.662 434.383 C 213.477 429.408 223.054 418.438 227.159 367.788 z" fill="#FFFFFF"></path>
    </g>
</svg>
