<?xml version="1.0" encoding="UTF-8"?>
<svg width="64px" height="64px" viewBox="86 88 1428 1428" xmlns="http://www.w3.org/2000/svg">
    <g stroke="none" fill="none" fill-rule="evenodd">
        <path d="M 958.553 1299.97 C 934.769 1305.39 906.43 1312.64 882.948 1315.92 C 779.669 1330.36 677.454 1318.71 583.292 1272.15 C 563.463 1262.34 547.132 1254.86 527.944 1242.75 C 435.019 1184.11 363.007 1097.59 322.199 995.568 C 270.377 868.326 271.778 723.336 327.271 597.348 C 339.315 570.005 347.862 549.146 364.195 523.501 C 440.059 406.442 559.396 324.393 695.857 295.468 C 793.87 273.039 896.365 280.647 989.993 317.299 C 1023.84 330.856 1064.3 352.862 1095.4 372.043 C 1131.57 394.356 1165.91 427.689 1193.83 459.345 C 1252.08 524.213 1295 608.113 1312.6 693.716 C 1330.75 781.951 1326.27 882.203 1296.79 967.484 C 1292.99 978.458 1283.28 1006.98 1276.51 1015.69 C 1273.57 1022.68 1268.1 1032.56 1264.61 1040.23 C 1265.07 1028.72 1265.56 1020.16 1264.79 1008.68 C 1254.79 973.218 1242.44 960.874 1212.87 941.129 C 1218.75 927.097 1222.13 912.02 1225.38 897.254 C 1243.43 814.997 1237.73 723.116 1206.19 644.774 C 1159.36 528.464 1073.88 445.913 958.19 399.511 C 767.873 323.175 536.448 406.112 432.131 581.107 C 420.192 601.135 411.979 624.034 402.565 645.324 C 360.668 747.59 363.066 865.571 405.417 967.139 C 441.894 1054.37 505.485 1127.53 586.779 1175.81 C 604.994 1186.4 634.545 1199.51 654.867 1207.68 C 712.277 1230.79 779.141 1236.79 840.406 1232.3 C 860.115 1230.86 879.512 1226.97 898.933 1225.24 C 900.582 1248.18 911.027 1266.69 928.362 1281.83 C 937.274 1289.62 947.496 1295.76 958.553 1299.97 z" fill="#FFFFFF"></path>
        <path d="M 1128.69 1164.62 C 1126.89 1138.94 1129.74 1110.05 1128.91 1083.97 C 1129.53 1062.87 1126.32 1039.59 1128.73 1018.82 C 1131.19 997.636 1150.52 980.952 1171.68 980.635 C 1227.95 979.793 1219.16 1038.37 1219.11 1074.53 L 1219 1164.55 C 1251.14 1165.51 1283.43 1164.42 1315.58 1164.78 C 1333.04 1164.98 1353.69 1163.41 1370.55 1166.9 C 1403.29 1173.68 1416.22 1221.5 1391.21 1244.31 C 1384.38 1250.42 1376.05 1254.61 1367.07 1256.44 C 1352.27 1259.6 1327.65 1258.18 1311.86 1258.37 C 1281.15 1258.74 1249.63 1257.71 1218.96 1258.75 L 1219.1 1356.51 C 1219.12 1377.54 1223.48 1414.32 1207.25 1428.23 C 1172.49 1458.02 1132.23 1439.9 1127.9 1395.53 C 1122.53 1372.19 1117.35 1310 1126.65 1288.84 L 1127.08 1289.83 L 1128.41 1287.22 C 1128.27 1278.01 1127.93 1267.97 1128.08 1258.84 C 1083.86 1257.02 1039.03 1259.47 994.752 1258.25 C 989.7 1258.11 984.635 1257.5 979.69 1256.56 C 956.617 1253.73 941.757 1229.5 943.148 1207.43 C 943.828 1195.73 949.179 1184.79 958 1177.08 C 976.352 1161.03 1014.24 1164.71 1037.73 1164.72 L 1128.69 1164.62 z" fill="#FFFFFF"></path>
        <path d="M 610.973 895.133 C 643.186 892.884 648.43 905.548 667.386 929.45 C 675.615 939.699 684.891 949.062 695.063 957.386 C 730.715 986.644 776.693 1000.22 822.52 995.027 C 865.303 990.469 904.474 969.266 933.418 937.876 C 940.853 929.813 946.51 922.315 953.186 913.72 C 962.084 902.256 970.413 896.331 984.914 894.729 C 1008.49 892.123 1030.8 911.274 1032.5 934.785 C 1034.05 956.385 1017.23 974.884 1003.86 990.297 C 965.325 1032.63 927.972 1059.61 871.965 1074.67 C 801.761 1093.54 733.018 1083.12 670.277 1046.06 C 635.22 1024.35 591.125 986.858 576.88 947.553 C 568.425 924.222 588.241 900.643 610.973 895.133 z" fill="#FFFFFF"></path>
        <path d="M 961.019 634.145 C 970.488 633.512 981.532 632.792 990.535 636.285 C 1051.66 660 1046.51 761.342 981.201 775.898 C 899.252 786.262 882.791 651.991 961.019 634.145 z" fill="#FFFFFF"></path>
        <path d="M 624.902 634.175 C 641.093 632.775 651.579 633.112 666.22 641.676 C 700.598 661.786 706.956 712.893 687.854 745.391 C 679.285 759.97 664.152 771.962 647.31 775.873 C 566.74 787.124 546.445 655.7 624.902 634.175 z" fill="#FFFFFF"></path>
    </g>
</svg>
