<svg width="24" height="24" viewBox="0 0 24 24" fill="none" xmlns="http://www.w3.org/2000/svg">
<path fill-rule="evenodd" clip-rule="evenodd" d="M3.17 3.99992C3.17 3.54153 3.5416 3.16992 4 3.16992H20C20.4584 3.16992 20.83 3.54153 20.83 3.99992C20.83 4.45832 20.4584 4.82992 20 4.82992H4C3.5416 4.82992 3.17 4.45832 3.17 3.99992ZM3.17 11.9999C3.17 11.5415 3.5416 11.1699 4 11.1699H20C20.4584 11.1699 20.83 11.5415 20.83 11.9999C20.83 12.4583 20.4584 12.8299 20 12.8299H4C3.5416 12.8299 3.17 12.4583 3.17 11.9999ZM3.17 19.9999C3.17 19.5415 3.5416 19.1699 4 19.1699H20C20.4584 19.1699 20.83 19.5415 20.83 19.9999C20.83 20.4583 20.4584 20.8299 20 20.8299H4C3.5416 20.8299 3.17 20.4583 3.17 19.9999ZM10 15.1699C9.5416 15.1699 9.17 15.5415 9.17 15.9999C9.17 16.4583 9.5416 16.8299 10 16.8299H20C20.4584 16.8299 20.83 16.4583 20.83 15.9999C20.83 15.5415 20.4584 15.1699 20 15.1699H10ZM10 7.16992C9.5416 7.16992 9.17 7.54153 9.17 7.99992C9.17 8.45832 9.5416 8.82992 10 8.82992H20C20.4584 8.82992 20.83 8.45832 20.83 7.99992C20.83 7.54153 20.4584 7.16992 20 7.16992H10Z" fill="white"/>
</svg>
