<svg width="24" height="24" viewBox="0 0 24 24" fill="none" xmlns="http://www.w3.org/2000/svg">
<path fill-rule="evenodd" clip-rule="evenodd" d="M3.17001 3.99992C3.17001 3.54153 3.54162 3.16992 4.00001 3.16992H20C20.4584 3.16992 20.83 3.54153 20.83 3.99992C20.83 4.45832 20.4584 4.82992 20 4.82992H4.00001C3.54162 4.82992 3.17001 4.45832 3.17001 3.99992ZM3.17001 11.9999C3.17001 11.5415 3.54162 11.1699 4.00001 11.1699H20C20.4584 11.1699 20.83 11.5415 20.83 11.9999C20.83 12.4583 20.4584 12.8299 20 12.8299H4.00001C3.54162 12.8299 3.17001 12.4583 3.17001 11.9999ZM3.17001 19.9999C3.17001 19.5415 3.54162 19.1699 4.00001 19.1699H20C20.4584 19.1699 20.83 19.5415 20.83 19.9999C20.83 20.4583 20.4584 20.8299 20 20.8299H4.00001C3.54162 20.8299 3.17001 20.4583 3.17001 19.9999ZM7.00001 15.1699C6.54162 15.1699 6.17001 15.5415 6.17001 15.9999C6.17001 16.4583 6.54162 16.8299 7.00001 16.8299H17C17.4584 16.8299 17.83 16.4583 17.83 15.9999C17.83 15.5415 17.4584 15.1699 17 15.1699H7.00001ZM7.00001 7.16992C6.54162 7.16992 6.17001 7.54153 6.17001 7.99992C6.17001 8.45832 6.54162 8.82992 7.00001 8.82992H17C17.4584 8.82992 17.83 8.45832 17.83 7.99992C17.83 7.54153 17.4584 7.16992 17 7.16992H7.00001Z" fill="white"/>
</svg>
