<svg width="24" height="24" viewBox="0 0 24 24" fill="none" xmlns="http://www.w3.org/2000/svg">
<path fill-rule="evenodd" clip-rule="evenodd" d="M9 9C9 5.68629 11.6863 3 15 3C18.3137 3 21 5.68629 21 9C21 12.3137 18.3137 15 15 15C11.6863 15 9 12.3137 9 9ZM7.0228 8.39141C7.00769 8.5923 7 8.79525 7 9C7 10.8487 7.62708 12.551 8.68014 13.9056L2.29289 20.2929C1.90237 20.6834 1.90237 21.3166 2.29289 21.7071C2.68342 22.0976 3.31658 22.0976 3.70711 21.7071L10.0944 15.3199C11.449 16.3729 13.1513 17 15 17C15.2048 17 15.4077 16.9923 15.6086 16.9772L12.2929 20.2929C11.9024 20.6834 11.9024 21.3166 12.2929 21.7071C12.6834 22.0976 13.3166 22.0976 13.7071 21.7071L20.7071 14.7071C20.8061 14.6081 20.88 14.4935 20.9288 14.3712C22.2159 12.9514 23 11.0673 23 9C23 4.58172 19.4183 1 15 1C12.9327 1 11.0486 1.78413 9.62877 3.07118C9.50649 3.11999 9.39189 3.19389 9.29289 3.29289L2.29289 10.2929C1.90237 10.6834 1.90237 11.3166 2.29289 11.7071C2.68342 12.0976 3.31658 12.0976 3.70711 11.7071L7.0228 8.39141Z" fill="black"/>
</svg>
