<svg xmlns="http://www.w3.org/2000/svg" width="24" height="24" viewBox="0 0 24 24">
  <g fill="none" fill-rule="evenodd">
    <polygon points="0 0 24 0 24 24 0 24"/>
    <path fill="#000" fill-rule="nonzero" d="M19,1.5 C21.2717057,1.5 22.8535736,5.33945067 22.0351529,9.91116126 C22.2963259,10.6113518 22.5372332,11.3757311 22.7129992,12.0934469 L23.1145921,12.0173383 C23.6573012,11.9149404 24.1802637,12.2718831 24.2826617,12.8145921 C24.3777454,13.3185363 24.0767651,13.805454 23.5987596,13.9544281 L23.4854079,13.9826617 L22.9978191,14.074 L22.9953728,14.2423233 C22.9724715,14.8421599 22.8650535,15.4300698 22.6841129,15.9995108 L23.3,16 C23.8522847,16 24.3001809,16.4477153 24.3001809,17 C24.3001809,17.5128358 23.9139598,17.9355072 23.4166211,17.9932723 L23.3,18 L21.7064795,17.9998672 C19.7420184,20.9299677 15.8287394,23 12,23 C8.17126062,23 4.25798157,20.9299677 2.29352047,17.9998672 L0.7,18 C0.14771525,18 -0.300180911,17.5522847 -0.300180911,17 C-0.300180911,16.4871642 0.0860401902,16.0644928 0.583378875,16.0067277 L0.7,16 L1.31588708,15.9995108 C1.1180755,15.3769748 1.00813626,14.7323653 1.00043439,14.0742302 L0.514592141,13.9826617 C-0.0281169048,13.8802637 -0.385059587,13.3573012 -0.282661654,12.8145921 C-0.187577859,12.310648 0.270135618,11.96688 0.769561377,12.002327 L0.885407859,12.0173383 L1.28709436,12.093599 C1.46293447,11.3758904 1.70397265,10.6113714 1.96537458,9.91059795 C1.20649511,5.54207159 3.06641448,1.5 5,1.5 C5.40685926,1.5 5.64711091,1.62465887 6.0548913,1.97667923 L6.32233608,2.21599644 L7.53741321,3.37651355 L7.82885864,3.64294469 C8.12140987,3.90385361 8.37042113,4.10305906 8.57466091,4.23827933 L8.74730114,4.34312266 L8.83698214,4.38747487 C10.1175274,4.09253224 10.8178877,4 12,4 C13.0700146,4 13.746893,4.07594486 14.8662433,4.32281116 L15.1408191,4.385 L15.1855652,4.36533571 L15.30429,4.30057595 C15.4924608,4.18878374 15.7249619,4.01366876 16.0014157,3.77700085 L16.1725593,3.62762792 C16.3085502,3.50680846 16.4526563,3.37418781 16.614935,3.22114176 L17.6766947,2.21257366 L17.9446605,1.97469584 C18.3533756,1.62465366 18.5947078,1.5 19,1.5 Z M19.1263739,3.59925778 L19.0216299,3.69282676 L18.0783336,4.58914684 L17.6556359,4.9836546 L17.31118,5.28918317 C16.2561603,6.20149374 15.5357681,6.59094577 14.7741473,6.34983537 C13.5924971,6.07587783 13.0327819,6 12,6 C10.9792212,6 10.4225094,6.0739645 9.26756721,6.34066803 C8.45195673,6.59319713 7.72839376,6.20399581 6.69513526,5.30923321 L6.33944442,4.99266139 L6.00034156,4.67619223 L5.00445647,3.7213769 C4.77483509,3.98796539 4.54479099,4.35152725 4.34948114,4.78571777 C3.75996458,6.09626352 3.5768493,7.78754345 3.98060995,9.80791532 L4.03790592,10.0946178 L3.83608268,10.6186887 C3.617102,11.2092119 3.41046348,11.8659851 3.25740062,12.4660971 L6.18540786,13.0173383 C6.7281169,13.1197363 7.08505959,13.6426988 6.98266165,14.1854079 C6.88757786,14.689352 6.42986438,15.03312 5.93043862,14.997673 L5.81459214,14.9826617 L3.02431182,14.4565466 C3.07999184,14.9814236 3.22986631,15.498984 3.45897428,15.9991615 L6,16 C6.55228475,16 7,16.4477153 7,17 C7,17.5128358 6.61395981,17.9355072 6.11662113,17.9932723 L6,18 L4.87494151,17.9994995 C6.61781868,19.7672463 9.33851463,21 12,21 C14.6614854,21 17.3821813,19.7672463 19.1250585,17.9994995 L18,18 C17.4477153,18 17,17.5522847 17,17 C17,16.4871642 17.3860402,16.0644928 17.8833789,16.0067277 L18,16 L20.5410257,15.9991615 C20.7701337,15.498984 20.9200082,14.9814236 20.9756882,14.4565466 L18.1854079,14.9826617 C17.6426988,15.0850596 17.1197363,14.7281169 17.0173383,14.1854079 C16.9222546,13.6814637 17.2232349,13.194546 17.7012404,13.0455719 L17.8145921,13.0173383 L20.7427778,12.4661923 C20.5896642,11.8655599 20.3829172,11.2082901 20.1639121,10.6178217 L19.9620754,10.0938852 L20.0193959,9.80710466 C20.4360618,7.72248183 20.3210086,5.99587944 19.8214836,4.7466793 C19.6136075,4.22682786 19.3583983,3.86016252 19.1866232,3.66455666 L19.1263739,3.59925778 Z M11.5693713,14 L12.5,14 L12.6063529,14.0054599 L12.6063529,14.0054599 L12.7175359,14.0237281 L12.8245241,14.0541217 L12.8245241,14.0541217 L12.9309407,14.0975048 L12.9309407,14.0975048 L12.9862683,14.1259831 L12.9862683,14.1259831 L13.0316815,14.1527825 L13.0316815,14.1527825 L13.1037299,14.2027209 L13.1037299,14.2027209 L13.2012929,14.2868109 L13.2012929,14.2868109 C13.2415927,14.3272897 13.2765117,14.3678619 13.3074229,14.4099801 L13.3509554,14.4744984 C13.3709447,14.5067988 13.3891463,14.5403221 13.4054221,14.5749302 L13.4431834,14.6675107 L13.4431834,14.6675107 L13.4790216,14.7952574 L13.4790216,14.7952574 L13.4965173,14.9136126 L13.5,15 L13.4941,15.1103548 L13.4941,15.1103548 L13.4667514,15.2566806 L13.4667514,15.2566806 L13.4486833,15.3162278 L13.0143231,16.6193084 L13.0409129,16.6984098 C13.1177034,16.8758492 13.2943532,17 13.5,17 C13.7761424,17 14,16.7761424 14,16.5 C14,15.9477153 14.4477153,15.5 15,15.5 C15.5522847,15.5 16,15.9477153 16,16.5 C16,17.8807119 14.8807119,19 13.5,19 C12.9367608,19 12.4170252,18.8137392 11.9990287,18.4994531 C11.5821324,18.814041 11.0627827,19 10.5,19 C9.11928813,19 8,17.8807119 8,16.5 C8,15.9477153 8.44771525,15.5 9,15.5 C9.55228475,15.5 10,15.9477153 10,16.5 C10,16.7761424 10.2238576,17 10.5,17 C10.7056468,17 10.8822966,16.8758492 10.9590871,16.6984098 L10.9856769,16.6193084 L10.5732538,15.3820392 C10.3898737,14.8318987 10.6871917,14.2372627 11.2373321,14.0538825 L11.3490652,14.0242129 L11.4265018,14.0099984 L11.5693713,14 Z M15.5,10 C16.3284271,10 17,10.6715729 17,11.5 C17,12.3284271 16.3284271,13 15.5,13 C14.6715729,13 14,12.3284271 14,11.5 C14,10.6715729 14.6715729,10 15.5,10 Z M8.5,10 C9.32842712,10 10,10.6715729 10,11.5 C10,12.3284271 9.32842712,13 8.5,13 C7.67157288,13 7,12.3284271 7,11.5 C7,10.6715729 7.67157288,10 8.5,10 Z M15.2161582,4.40209367 L15.1408191,4.385 L15.1042243,4.39938851 L15.1459382,4.39544914 L15.1842156,4.39711625 L15.2161582,4.40209367 Z"/>
  </g>
</svg>
