<svg width="24" height="24" viewBox="0 0 24 24" fill="none" xmlns="http://www.w3.org/2000/svg">
<path d="M6 5C5.44772 5 5 5.44772 5 6V13C5 13.5523 5.44772 14 6 14C6.55228 14 7 13.5523 7 13V7H13C13.5523 7 14 6.55228 14 6C14 5.44772 13.5523 5 13 5H6Z" fill="black" style="mix-blend-mode:overlay"/>
<path d="M18 19C18.5523 19 19 18.5523 19 18V11C19 10.4477 18.5523 10 18 10C17.4477 10 17 10.4477 17 11V17H11C10.4477 17 10 17.4477 10 18C10 18.5523 10.4477 19 11 19H18Z" fill="black" style="mix-blend-mode:overlay"/>
</svg>
