<svg width="24" height="24" viewBox="0 0 24 24" fill="none" xmlns="http://www.w3.org/2000/svg">
<path d="M10.5 11.5C11.0523 11.5 11.5 11.0523 11.5 10.5V3.5C11.5 2.94772 11.0523 2.5 10.5 2.5C9.94772 2.5 9.5 2.94772 9.5 3.5V9.5H3.5C2.94772 9.5 2.5 9.94772 2.5 10.5C2.5 11.0523 2.94772 11.5 3.5 11.5H10.5Z" fill="black" style="mix-blend-mode:overlay"/>
<path d="M13.5 12.5C12.9477 12.5 12.5 12.9477 12.5 13.5V20.5C12.5 21.0523 12.9477 21.5 13.5 21.5C14.0523 21.5 14.5 21.0523 14.5 20.5V14.5H20.5C21.0523 14.5 21.5 14.0523 21.5 13.5C21.5 12.9477 21.0523 12.5 20.5 12.5H13.5Z" fill="black" style="mix-blend-mode:overlay"/>
</svg>
