<svg width="24" height="24" viewBox="0 0 24 24" fill="none" xmlns="http://www.w3.org/2000/svg">
<path fill-rule="evenodd" clip-rule="evenodd" d="M14.7998 0.999997C15.9152 0.999997 16.6684 0.99115 17.3731 1.19238C17.9691 1.36261 18.5287 1.64192 19.0225 2.0166C19.6063 2.45957 20.0507 3.06782 20.7198 3.95996L20.8399 4.12011C21.1732 4.56458 21.4223 4.89007 21.6006 5.25879C21.7502 5.56808 21.8599 5.89525 21.9258 6.23242C22.0044 6.63432 22 7.04422 22 7.59961V14C22 16.7999 21.9999 18.2 21.4551 19.2695C20.9758 20.2103 20.2104 20.9757 19.2696 21.4551C18.2001 21.9999 16.8 22 14 22H10C7.2001 22 5.80002 21.9999 4.73051 21.4551C3.78973 20.9757 3.02432 20.2103 2.54497 19.2695C2.00024 18.2 2.00004 16.7998 2.00004 14V7.59961C2.00004 7.04422 1.9957 6.63432 2.07426 6.23242C2.1402 5.89523 2.24988 5.56809 2.39946 5.25879C2.5778 4.89004 2.82683 4.56461 3.1602 4.12011L3.28032 3.95996C3.94946 3.06777 4.39378 2.45958 4.97758 2.0166C5.47143 1.64188 6.03092 1.36263 6.627 1.19238C7.3317 0.991123 8.08492 0.999997 9.20024 0.999997H14.7998ZM15.7071 11.293C15.3166 10.9025 14.6835 10.9025 14.293 11.293L12 13.5859L9.70708 11.293C9.31655 10.9025 8.68352 10.9025 8.29301 11.293C7.9025 11.6835 7.90253 12.3165 8.29301 12.707L11.293 15.707C11.6835 16.0976 12.3166 16.0976 12.7071 15.707L15.7071 12.707C16.0976 12.3165 16.0976 11.6835 15.7071 11.293ZM9.20024 3C7.96901 3 7.54803 3.00893 7.17583 3.11523C6.81828 3.21739 6.4828 3.38557 6.18657 3.61035C5.87827 3.84433 5.61857 4.1753 4.87993 5.16015L4.75981 5.32031C4.65405 5.46132 4.57062 5.57552 4.502 5.66894C4.57683 5.62578 4.65325 5.58429 4.73051 5.54492C5.80002 5.00013 7.20014 5 10 5H14C16.7999 5 18.2001 5.00019 19.2696 5.54492C19.3465 5.58414 19.4226 5.62596 19.4971 5.66894C19.4286 5.57563 19.3458 5.46104 19.2403 5.32031L19.1202 5.16015C18.3816 4.17536 18.1218 3.84432 17.8135 3.61035C17.5173 3.3856 17.1818 3.21738 16.8243 3.11523C16.4521 3.00896 16.031 3 14.7998 3H9.20024Z" fill="black"/>
</svg>
