<svg width="24" height="24" viewBox="0 0 24 24" fill="none" xmlns="http://www.w3.org/2000/svg">
<path fill-rule="evenodd" clip-rule="evenodd" d="M9.0622 0.999939L9.2 0.99997H14.8L14.9378 0.999939C15.9781 0.999582 16.6978 0.999335 17.3731 1.1922C17.9692 1.36245 18.5285 1.64209 19.0224 2.01685C19.5818 2.44138 20.0134 3.01723 20.6374 3.84973L20.72 3.95997L20.84 4.11997L20.8892 4.18547C21.198 4.59697 21.4315 4.90806 21.601 5.25848C21.7506 5.56788 21.8598 5.89527 21.9257 6.23256C22.0004 6.61457 22.0002 7.00355 22 7.51807L22 7.59997V12.2372L22 12.357V12.3571V12.4L22 13L22 14.6V14.6428V14.6429C22 15.7266 22 16.6007 21.9422 17.3086C21.8826 18.0374 21.7568 18.6776 21.455 19.2699C20.9757 20.2107 20.2108 20.9756 19.27 21.455C18.6777 21.7568 18.0375 21.8826 17.3086 21.9422C16.6008 22 15.7267 22 14.6429 22H14.6428H14.6H9.4H9.35717H9.35706C8.27334 22 7.39923 22 6.69137 21.9422C5.96252 21.8826 5.32234 21.7568 4.73005 21.455C3.78924 20.9756 3.02433 20.2107 2.54497 19.2699C2.24318 18.6776 2.11737 18.0374 2.05782 17.3086C1.99998 16.6007 1.99999 15.7266 2 14.6428L2 14.6V13.0023L2 13V7.59997L1.99997 7.51807C1.99977 7.00355 1.99962 6.61457 2.0743 6.23256C2.14024 5.89527 2.24937 5.56788 2.39899 5.25848C2.56846 4.90807 2.80197 4.59697 3.11084 4.18548L3.16 4.11997L3.28 3.95997L3.36265 3.84971C3.98657 3.01722 4.41815 2.44137 4.97762 2.01685C5.47151 1.64209 6.03079 1.36245 6.62693 1.1922C7.30223 0.999335 8.02186 0.999582 9.0622 0.999939ZM19.24 5.31997C19.3467 5.46227 19.4319 5.57636 19.5008 5.6703C19.4251 5.62659 19.3481 5.58477 19.27 5.54494C18.6777 5.24315 18.0375 5.11734 17.3086 5.05779C16.6007 4.99995 15.7266 4.99996 14.6428 4.99997H14.6428L14.6 4.99997H9.4L9.35719 4.99997H9.35717C8.27339 4.99996 7.39925 4.99995 6.69137 5.05779C5.96252 5.11734 5.32234 5.24315 4.73005 5.54494C4.65186 5.58477 4.57489 5.62658 4.4992 5.6703C4.56813 5.57636 4.65327 5.46226 4.76 5.31997L4.88 5.15997C5.61877 4.17494 5.8782 3.84409 6.18657 3.6101C6.4829 3.38524 6.81847 3.21746 7.17615 3.11531C7.54837 3.009 7.9687 2.99997 9.2 2.99997H14.8C16.0313 2.99997 16.4516 3.009 16.8238 3.11531C17.1815 3.21746 17.5171 3.38524 17.8134 3.6101C18.1218 3.84409 18.3812 4.17494 19.12 5.15997L19.24 5.31997ZM20 13L20 13.0019V14.6C20 15.7366 19.9992 16.5289 19.9488 17.1457C19.8994 17.7509 19.8072 18.0986 19.673 18.3619C19.3854 18.9264 18.9265 19.3854 18.362 19.673C18.0986 19.8072 17.7509 19.8994 17.1458 19.9488C16.5289 19.9992 15.7366 20 14.6 20H9.4C8.26339 20 7.47108 19.9992 6.85424 19.9488C6.24907 19.8994 5.90138 19.8072 5.63803 19.673C5.07354 19.3854 4.6146 18.9264 4.32698 18.3619C4.19279 18.0986 4.10062 17.7509 4.05117 17.1457C4.00078 16.5289 4 15.7366 4 14.6V12.4C4 11.2634 4.00078 10.4711 4.05117 9.85421C4.10062 9.24904 4.19279 8.90135 4.32698 8.638C4.6146 8.07351 5.07354 7.61457 5.63803 7.32695C5.90138 7.19276 6.24907 7.10059 6.85424 7.05115C7.47108 7.00075 8.26339 6.99997 9.4 6.99997H14.6C15.7366 6.99997 16.5289 7.00075 17.1458 7.05115C17.7509 7.10059 18.0986 7.19276 18.362 7.32695C18.9265 7.61457 19.3854 8.07351 19.673 8.638C19.8072 8.90135 19.8994 9.24904 19.9488 9.85421C19.998 10.4566 19.9999 11.2264 20 12.3207L20 12.4L20 13ZM9.7071 11.2929C9.31658 10.9023 8.68341 10.9023 8.29289 11.2929C7.90237 11.6834 7.90237 12.3166 8.29289 12.7071L11.2929 15.7071C11.6834 16.0976 12.3166 16.0976 12.7071 15.7071L15.7071 12.7071C16.0976 12.3166 16.0976 11.6834 15.7071 11.2929C15.3166 10.9023 14.6834 10.9023 14.2929 11.2929L12 13.5858L9.7071 11.2929Z" fill="black"/>
</svg>
