<svg width="24" height="24" viewBox="0 0 24 24" fill="none" xmlns="http://www.w3.org/2000/svg">
<path fill-rule="evenodd" clip-rule="evenodd" d="M19.5869 12.5869C19.9111 12.2628 19.9111 11.7372 19.5869 11.4131C19.2628 11.089 18.7372 11.089 18.4131 11.4131L12.8301 16.9961L12.8301 5C12.8301 4.5416 12.4584 4.16992 12 4.16992C11.5416 4.16996 11.1699 4.54163 11.1699 5L11.1699 16.9961L5.58692 11.4131C5.26278 11.089 4.73721 11.089 4.41309 11.4131C4.08899 11.7372 4.08899 12.2628 4.41309 12.5869L11.4131 19.5869C11.5687 19.7426 11.7799 19.8301 12 19.8301C12.2201 19.8301 12.4313 19.7425 12.5869 19.5869L19.5869 12.5869Z" fill="black"/>
</svg>
