<svg width="21" height="20" viewBox="0 0 21 20" fill="none" xmlns="http://www.w3.org/2000/svg">
<path fill-rule="evenodd" clip-rule="evenodd" d="M10.5 1.66602C15.1024 1.66602 18.834 5.39763 18.834 10C18.8339 14.6023 15.1023 18.333 10.5 18.333C5.89783 18.3328 2.16708 14.6022 2.16699 10C2.16699 5.39774 5.89778 1.66619 10.5 1.66602ZM11.0889 5.58887C10.7635 5.26395 10.2365 5.26395 9.91113 5.58887L6.21094 9.28906C5.94899 9.55158 6.13486 9.99995 6.50586 10H8.41699C8.64696 10.0002 8.83301 10.187 8.83301 10.417V13.75C8.83301 13.9801 9.01988 14.167 9.25 14.167H11.75C11.9801 14.167 12.167 13.9801 12.167 13.75V10.417C12.167 10.187 12.353 10.0002 12.583 10H14.4941C14.8651 9.99995 15.051 9.55158 14.7891 9.28906L11.0889 5.58887Z" fill="#000"/>
</svg>
