<svg width="24" height="24" viewBox="0 0 24 24" fill="none" xmlns="http://www.w3.org/2000/svg">
<path fill-rule="evenodd" clip-rule="evenodd" d="M12 4.82992C8.0401 4.82992 4.82998 8.04004 4.82998 12C4.82998 15.9598 8.0401 19.17 12 19.17C15.9599 19.17 19.17 15.9598 19.17 12C19.17 8.04004 15.9599 4.82992 12 4.82992ZM3.16998 12C3.16998 7.12325 7.12331 3.16992 12 3.16992C16.8767 3.16992 20.83 7.12325 20.83 12C20.83 16.8766 16.8767 20.83 12 20.83C7.12331 20.83 3.16998 16.8766 3.16998 12ZM12 7.56997C12.4584 7.56997 12.83 7.94157 12.83 8.39997V13.5962L14.6131 11.8131C14.9372 11.489 15.4628 11.489 15.7869 11.8131C16.111 12.1372 16.111 12.6628 15.7869 12.9869L12.5869 16.1869C12.2628 16.511 11.7372 16.511 11.4131 16.1869L8.21308 12.9869C7.88895 12.6628 7.88895 12.1372 8.21308 11.8131C8.53722 11.489 9.06274 11.489 9.38688 11.8131L11.17 13.5962V8.39997C11.17 7.94157 11.5416 7.56997 12 7.56997Z" fill="black"/>
</svg>
