<svg width="24" height="24" viewBox="0 0 24 24" fill="none" xmlns="http://www.w3.org/2000/svg">
<g clip-path="url(#clip0_969_2)">
<path d="M4.29289 11.2929L11.2929 4.29289C11.6834 3.90237 12.3166 3.90237 12.7071 4.29289C13.0676 4.65338 13.0953 5.22061 12.7903 5.6129L12.7071 5.70711L7.414 11H19C19.5128 11 19.9355 11.386 19.9933 11.8834L20 12C20 12.5128 19.614 12.9355 19.1166 12.9933L19 13H7.414L12.7071 18.2929C13.0676 18.6534 13.0953 19.2206 12.7903 19.6129L12.7071 19.7071C12.3466 20.0676 11.7794 20.0953 11.3871 19.7903L11.2929 19.7071L4.29289 12.7071C3.93241 12.3466 3.90468 11.7794 4.20971 11.3871L4.29289 11.2929Z" fill="black"/>
</g>
<defs>
<clipPath id="clip0_969_2">
<rect width="24" height="24" fill="white" transform="matrix(-1 0 0 1 24 0)"/>
</clipPath>
</defs>
</svg>
