<svg width="240" height="240" viewBox="0 0 240 240" fill="none" xmlns="http://www.w3.org/2000/svg">
<path d="M114.344 35.5608C137.292 12.1547 174.986 12.1547 197.933 35.5608C216.547 54.5465 216.547 84.9362 197.933 103.922L192.461 109.502C186.382 105.791 179.71 102.956 172.619 101.172L183.652 89.9202C194.641 78.7116 194.641 60.7713 183.652 49.5627C168.546 34.1545 143.732 34.1545 128.626 49.5627L66.0822 113.356C46.0547 133.784 46.0547 166.481 66.0822 186.909C72.7635 193.724 80.8384 198.327 89.4016 200.72C93.1511 208.983 98.4157 216.412 104.841 222.653C85.6405 222.981 66.3342 215.735 51.801 200.911C24.1487 172.705 24.1487 127.559 51.801 99.3538L114.344 35.5608Z" fill="black"/>
<path d="M116.579 86.8733C120.446 82.9297 126.777 82.8665 130.721 86.7327C134.665 90.599 134.727 96.9309 130.861 100.874L127.272 104.533C101.272 115.393 83.0002 141.063 83.0002 171C83.0002 173.854 83.1665 176.669 83.4895 179.437C82.7409 178.804 82.0137 178.133 81.3137 177.419C66.4541 162.263 66.4543 138.002 81.3137 122.845L116.579 86.8733Z" fill="black"/>
<path fill-rule="evenodd" clip-rule="evenodd" d="M116.573 171C116.573 149.777 133.777 132.573 155 132.573C176.223 132.573 193.427 149.777 193.427 171H215C215 137.863 188.137 111 155 111C121.863 111 94.9999 137.863 94.9999 171C94.9999 204.137 121.863 231 155 231V209.427C133.777 209.427 116.573 192.223 116.573 171Z" fill="black"/>
<path d="M236 171L204 203L172 171H236Z" fill="black"/>
</svg>
