<svg width="24" height="24" viewBox="0 0 24 24" fill="none" xmlns="http://www.w3.org/2000/svg">
<path fill-rule="evenodd" clip-rule="evenodd" d="M11.4343 3.5561C13.7291 1.21547 17.4985 1.21547 19.7932 3.5561C21.6546 5.45467 21.6546 8.49361 19.7932 10.3922L12.5875 17.7419C11.3642 18.9897 9.35466 18.9897 8.1313 17.7419C6.64534 16.2263 6.64531 13.8002 8.13125 12.2845L11.6578 8.68731C12.0445 8.29293 12.6776 8.28666 13.072 8.67329C13.4664 9.05992 13.4726 9.69306 13.086 10.0874L9.55942 13.6847C8.83594 14.4226 8.83595 15.6038 9.55944 16.3418C9.99867 16.7898 10.7202 16.7898 11.1594 16.3418L18.3651 8.99204C19.464 7.87118 19.464 6.0771 18.3651 4.95624C16.8545 3.41542 14.3731 3.41542 12.8625 4.95624L6.60817 11.3356C4.60542 13.3784 4.60542 16.6481 6.60817 18.6909C8.6678 20.7917 12.051 20.7917 14.1106 18.6909L17.7879 14.9399C18.1746 14.5456 18.8077 14.5393 19.2021 14.9259C19.5964 15.3126 19.6027 15.9457 19.2161 16.3401L15.5388 20.091C12.695 22.9916 8.02379 22.9917 5.18003 20.0911C2.4148 17.2705 2.4148 12.7559 5.18003 9.93542L11.4343 3.5561Z" fill="black"/>
</svg>
