<svg width="24" height="24" viewBox="0 0 24 24" fill="none" xmlns="http://www.w3.org/2000/svg">
<g clip-path="url(#clip0_757_64)">
<g clip-path="url(#clip1_757_64)">
<path fill-rule="evenodd" clip-rule="evenodd" d="M14.2929 4.29289C14.6834 3.90237 15.3166 3.90237 15.7071 4.29289L17.7071 6.29289C18.0976 6.68342 18.0976 7.31658 17.7071 7.70711C17.3166 8.09763 16.6834 8.09763 16.2929 7.70711L14.2929 5.70711C13.9024 5.31658 13.9024 4.68342 14.2929 4.29289Z" fill="black"/>
<path fill-rule="evenodd" clip-rule="evenodd" d="M17.7071 6.29289C18.0976 6.68342 18.0976 7.31658 17.7071 7.70711L15.7071 9.70711C15.3166 10.0976 14.6834 10.0976 14.2929 9.70711C13.9024 9.31658 13.9024 8.68342 14.2929 8.29289L16.2929 6.29289C16.6834 5.90237 17.3166 5.90237 17.7071 6.29289Z" fill="black"/>
<path fill-rule="evenodd" clip-rule="evenodd" d="M6 8C5.44772 8 5 8.44772 5 9V12C5 12.5523 4.55228 13 4 13C3.44772 13 3 12.5523 3 12V9C3 7.34315 4.34315 6 6 6H15C15.5523 6 16 6.44772 16 7C16 7.55228 15.5523 8 15 8H6Z" fill="black"/>
</g>
<g clip-path="url(#clip2_757_64)">
<path fill-rule="evenodd" clip-rule="evenodd" d="M9.70711 19.7071C9.31658 20.0976 8.68342 20.0976 8.29289 19.7071L6.29289 17.7071C5.90237 17.3166 5.90237 16.6834 6.29289 16.2929C6.68342 15.9024 7.31658 15.9024 7.70711 16.2929L9.70711 18.2929C10.0976 18.6834 10.0976 19.3166 9.70711 19.7071Z" fill="black"/>
<path fill-rule="evenodd" clip-rule="evenodd" d="M6.29289 17.7071C5.90237 17.3166 5.90237 16.6834 6.29289 16.2929L8.29289 14.2929C8.68342 13.9024 9.31658 13.9024 9.70711 14.2929C10.0976 14.6834 10.0976 15.3166 9.70711 15.7071L7.70711 17.7071C7.31658 18.0976 6.68342 18.0976 6.29289 17.7071Z" fill="black"/>
<path fill-rule="evenodd" clip-rule="evenodd" d="M18 16C18.5523 16 19 15.5523 19 15V12C19 11.4477 19.4477 11 20 11C20.5523 11 21 11.4477 21 12V15C21 16.6569 19.6569 18 18 18H9C8.44771 18 8 17.5523 8 17C8 16.4477 8.44771 16 9 16L18 16Z" fill="black"/>
</g>
</g>
<defs>
<clipPath id="clip0_757_64">
<rect width="24" height="24" fill="white"/>
</clipPath>
<clipPath id="clip1_757_64">
<rect width="16" height="16" fill="white" transform="translate(3 -1)"/>
</clipPath>
<clipPath id="clip2_757_64">
<rect width="16" height="16" fill="white" transform="translate(21 25) rotate(-180)"/>
</clipPath>
</defs>
</svg>
