<svg width="24" height="24" viewBox="0 0 24 24" fill="none" xmlns="http://www.w3.org/2000/svg">
<g clip-path="url(#clip0_764_261)">
<g clip-path="url(#clip1_764_261)">
<path fill-rule="evenodd" clip-rule="evenodd" d="M12.2929 4.29289C12.6834 3.90237 13.3166 3.90237 13.7071 4.29289L15.7071 6.29289C16.0976 6.68342 16.0976 7.31658 15.7071 7.70711C15.3166 8.09763 14.6834 8.09763 14.2929 7.70711L12.2929 5.70711C11.9024 5.31658 11.9024 4.68342 12.2929 4.29289Z" fill="black"/>
<path fill-rule="evenodd" clip-rule="evenodd" d="M15.7071 6.29289C16.0976 6.68342 16.0976 7.31658 15.7071 7.70711L13.7071 9.70711C13.3166 10.0976 12.6834 10.0976 12.2929 9.70711C11.9024 9.31658 11.9024 8.68342 12.2929 8.29289L14.2929 6.29289C14.6834 5.90237 15.3166 5.90237 15.7071 6.29289Z" fill="black"/>
<path fill-rule="evenodd" clip-rule="evenodd" d="M6 8C5.44772 8 5 8.44772 5 9V12C5 12.5523 4.55228 13 4 13C3.44772 13 3 12.5523 3 12V9C3 7.34315 4.34315 6 6 6H14C14.5523 6 15 6.44772 15 7C15 7.55228 14.5523 8 14 8H6Z" fill="black"/>
</g>
<path fill-rule="evenodd" clip-rule="evenodd" d="M20.8944 3.05301C21.1414 3.54698 20.9412 4.14766 20.4472 4.39465L18.4472 5.39465C17.9532 5.64164 17.3526 5.44141 17.1056 4.94743C16.8586 4.45345 17.0588 3.85278 17.5528 3.60579L19.5528 2.60579C20.0468 2.3588 20.6474 2.55903 20.8944 3.05301Z" fill="black"/>
<path fill-rule="evenodd" clip-rule="evenodd" d="M20 2.5C20.5523 2.5 21 2.94772 21 3.5V8.5C21 9.05228 20.5523 9.5 20 9.5C19.4477 9.5 19 9.05228 19 8.5V3.5C19 2.94772 19.4477 2.5 20 2.5Z" fill="black"/>
<g clip-path="url(#clip2_764_261)">
<path fill-rule="evenodd" clip-rule="evenodd" d="M9.70711 19.7071C9.31658 20.0976 8.68342 20.0976 8.29289 19.7071L6.29289 17.7071C5.90237 17.3166 5.90237 16.6834 6.29289 16.2929C6.68342 15.9024 7.31658 15.9024 7.70711 16.2929L9.70711 18.2929C10.0976 18.6834 10.0976 19.3166 9.70711 19.7071Z" fill="black"/>
<path fill-rule="evenodd" clip-rule="evenodd" d="M6.29289 17.7071C5.90237 17.3166 5.90237 16.6834 6.29289 16.2929L8.29289 14.2929C8.68342 13.9024 9.31658 13.9024 9.70711 14.2929C10.0976 14.6834 10.0976 15.3166 9.70711 15.7071L7.70711 17.7071C7.31658 18.0976 6.68342 18.0976 6.29289 17.7071Z" fill="black"/>
<path fill-rule="evenodd" clip-rule="evenodd" d="M18 16C18.5523 16 19 15.5523 19 15V12C19 11.4477 19.4477 11 20 11C20.5523 11 21 11.4477 21 12V15C21 16.6569 19.6569 18 18 18H9C8.44771 18 8 17.5523 8 17C8 16.4477 8.44771 16 9 16L18 16Z" fill="black"/>
</g>
</g>
<defs>
<clipPath id="clip0_764_261">
<rect width="24" height="24" fill="white"/>
</clipPath>
<clipPath id="clip1_764_261">
<rect width="16" height="16" fill="white" transform="translate(3 -1)"/>
</clipPath>
<clipPath id="clip2_764_261">
<rect width="16" height="16" fill="white" transform="translate(21 25) rotate(-180)"/>
</clipPath>
</defs>
</svg>
