<svg width="54" height="54" viewBox="0 0 54 54" fill="none" xmlns="http://www.w3.org/2000/svg">
<path fill-rule="evenodd" clip-rule="evenodd" d="M41.2892 25.9135L44.3772 29.8128C44.4262 29.8739 44.4639 29.9432 44.489 30.0175C44.6101 30.3752 44.4182 30.7633 44.0605 30.8844C42.999 31.2433 42.01 31.7065 41.0937 32.2739C40.1736 32.8435 39.4037 33.4706 38.784 34.1551C38.7642 34.1759 38.7462 34.1984 38.7298 34.2219C38.5134 34.5315 38.589 34.9578 38.8983 35.1744L39.916 35.8835C40.0426 35.97 40.1354 36.0974 40.1802 36.244C40.2905 36.6052 40.0871 36.9874 39.7259 37.0977C36.9421 37.9433 34.2952 39.0241 31.7851 40.3402C29.6206 41.4751 27.6949 42.684 26.0079 43.9669C25.8255 44.1059 25.5855 44.1439 25.369 44.0683C25.0124 43.9438 24.8243 43.5539 24.9487 43.1974L25.0378 42.9487C25.8823 40.6357 27.1435 38.5542 28.8213 36.7042C31.057 34.2388 33.8366 32.3894 37.1599 31.1558V27.2951C37.1594 27.1169 37.296 26.9682 37.4737 26.9535C38.1041 26.9022 38.696 26.7846 39.2495 26.6007C39.8005 26.4177 40.3298 26.1635 40.8373 25.8383C40.9849 25.7437 41.1802 25.7762 41.2892 25.9135ZM13.5673 25.7876L16.0825 26.5564C16.6424 29.078 17.5638 31.2814 18.8467 33.1667C20.0346 34.9123 21.6905 36.6174 23.8144 38.2822C24.1028 38.5071 24.1625 38.9192 23.9505 39.2172L23.2544 40.1923C23.0592 40.4656 22.6944 40.5568 22.3936 40.4073L14.2172 36.3452C14.1123 36.2931 14.0225 36.2149 13.9565 36.1181C13.7437 35.8061 13.8241 35.3807 14.1361 35.1679L14.8774 34.6624C14.9563 34.6086 15.0231 34.5388 15.0735 34.4575C15.2723 34.1364 15.1732 33.715 14.8521 33.5161L9.72907 30.3439C9.68552 30.3169 9.64514 30.2852 9.60868 30.2492C9.33993 29.9839 9.33713 29.5509 9.60244 29.2822L12.8808 25.9612C13.0596 25.7801 13.324 25.7133 13.5673 25.7876ZM35.0237 26.9857C35.2373 27.3452 35.3564 27.7452 35.3564 28.1667C35.3564 29.7315 33.7148 31 31.6897 31C29.6647 31 28.023 29.7315 28.023 28.1667C28.023 27.9563 28.0527 27.7512 28.109 27.5539C30.5449 27.5049 32.843 27.312 34.9016 27.0045L35.0237 26.9857ZM18.8964 27.0102C20.9947 27.3221 23.3404 27.5146 25.8261 27.5571L25.8441 27.6239C25.8883 27.7995 25.9114 27.981 25.9114 28.1667C25.9114 29.7315 24.2697 31 22.2447 31C20.2197 31 18.578 29.7315 18.578 28.1667C18.578 27.7547 18.6918 27.3633 18.8964 27.0102ZM31.2235 9.66669C33.1635 9.66669 34.4137 12.6817 34.9739 18.7116C38.6156 19.4341 41 20.6375 41 22C41 24.2092 34.732 26 27 26C19.268 26 13 24.2092 13 22C13 20.6368 15.3868 19.4329 19.0315 18.7107C19.7088 12.6813 20.9676 9.66669 22.8082 9.66669C25.6129 9.66669 24.5372 13.1378 26.9061 13.1378C29.275 13.1378 28.2674 9.66669 31.2235 9.66669Z" fill="white"/>
</svg>
