<svg width="240" height="240" viewBox="0 0 240 240" fill="none" xmlns="http://www.w3.org/2000/svg">
<path d="M98.298 127.316C101.095 127.316 103.362 129.583 103.362 132.38V135.109C103.362 137.906 101.095 140.173 98.298 140.173H56.1335C53.5264 140.173 51.3454 138.193 51.0935 135.598L50.7143 131.693C50.6068 130.586 50.8667 129.474 51.4539 128.53L77.9912 85.8434C78.9153 84.357 80.5414 83.4531 82.2916 83.4531H83.603C87.5572 83.4531 89.9856 87.7827 87.924 91.157L78.3398 106.843L66.4717 127.316H98.298ZM91.0288 83.4531C93.8254 83.4531 96.0925 85.7202 96.0925 88.5169V150.389C96.0925 153.186 93.8254 155.453 91.0288 155.453H84.4914C81.6948 155.453 79.4277 153.186 79.4277 150.389V86.4914C79.4277 84.8134 80.788 83.4531 82.4659 83.4531H91.0288Z" fill="black"/>
</svg>
