<svg width="240" height="240" viewBox="0 0 240 240" fill="none" xmlns="http://www.w3.org/2000/svg">
<path d="M68.0563 155C64.3309 155 61.9139 151.072 63.593 147.746L87.4174 100.559C87.4421 100.51 87.4549 100.456 87.4549 100.401C87.4549 100.208 87.2983 100.052 87.1051 100.052H60.2656C57.5042 100.052 55.2656 97.813 55.2656 95.0516V91.756C55.2656 88.9946 57.5042 86.756 60.2656 86.756H99.5159C102.277 86.756 104.516 88.9946 104.516 91.756V98.9635C104.516 99.7446 104.333 100.515 103.982 101.213L78.2773 152.249C77.4277 153.936 75.7003 155 73.8117 155H68.0563Z" fill="black"/>
</svg>
