<svg width="240" height="240" viewBox="0 0 240 240" fill="none" xmlns="http://www.w3.org/2000/svg">
<path d="M96.97 142.266C99.7269 142.266 101.962 144.501 101.962 147.258V149.949C101.962 152.706 99.7269 154.94 96.97 154.94H57.4261C54.6692 154.94 52.4343 152.706 52.4343 149.949V146.211C52.4343 144.93 52.9266 143.698 53.8093 142.771L75.2482 120.232C77.2631 117.925 78.888 115.861 80.1229 114.041C81.3578 112.189 82.2515 110.515 82.804 109.02C83.389 107.525 83.6815 106.177 83.6815 104.974C83.6815 102.927 83.3727 101.221 82.7553 99.8558C82.1703 98.4584 81.2928 97.4022 80.1229 96.6872C78.9855 95.9723 77.5718 95.6148 75.8819 95.6148C74.192 95.6148 72.7133 96.1022 71.4459 97.0772C70.1784 98.0521 69.1872 99.3846 68.4723 101.074C68.3682 101.332 68.2721 101.595 68.184 101.862C67.3207 104.48 65.2137 106.778 62.4568 106.778H55.9637C53.2068 106.778 50.909 104.52 51.461 101.819C51.9648 99.3529 52.858 97.025 54.1405 94.8348C56.2854 91.2275 59.259 88.3514 63.0613 86.2065C66.8636 84.0291 71.2671 82.9404 76.2719 82.9404C81.5041 82.9404 85.8914 83.7529 89.4337 85.3778C92.976 87.0027 95.6408 89.3588 97.4283 92.4462C99.2482 95.501 100.158 99.1896 100.158 103.512C100.158 105.982 99.7681 108.354 98.9882 110.629C98.2082 112.904 97.087 115.163 95.6246 117.405C94.1622 119.615 92.3748 121.89 90.2624 124.23C88.1825 126.569 85.8101 129.056 83.1452 131.688L73.9807 142.266H96.97Z" fill="black"/>
</svg>
