<svg width="240" height="240" viewBox="0 0 240 240" fill="none" xmlns="http://www.w3.org/2000/svg">
<path d="M127.885 148.035L141.136 87.5378C141.772 84.6328 144.345 82.5624 147.319 82.5624H150.78L155.429 88.1504L141.278 149.652C140.617 152.526 138.059 154.562 135.11 154.562H130.704L127.885 148.035ZM118.804 82.5624C121.859 82.5624 124.478 84.7442 125.03 87.7487L136.193 148.529L133.077 154.562H127.276C124.287 154.562 121.705 152.471 121.084 149.547L108.491 90.2062C107.655 86.2692 110.658 82.5624 114.682 82.5624H118.804ZM163.291 148.183L174.358 87.752C174.908 84.7459 177.528 82.5624 180.584 82.5624H184.653C188.678 82.5624 191.681 86.2692 190.845 90.2062L178.252 149.547C177.631 152.471 175.049 154.562 172.06 154.562H166.308L163.291 148.183ZM151.888 82.5624C154.853 82.5624 157.421 84.6206 158.066 87.5146L171.649 148.431L168.682 154.562H164.251C161.313 154.562 158.762 152.541 158.09 149.68L143.61 88.0515L148.456 82.5624H151.888Z" fill="black"/>
</svg>
