<svg width="240" height="240" viewBox="0 0 240 240" fill="none" xmlns="http://www.w3.org/2000/svg">
<path d="M85.9763 83.7515C89.2234 83.4201 91.8747 86.0747 91.8747 89.3388V90.2641C91.8747 93.5282 89.2131 96.1294 85.9879 96.6315C84.6464 96.8404 83.3635 97.1208 82.2554 97.4728C79.562 98.3385 77.1893 99.6532 75.1372 101.417C73.1172 103.148 71.53 105.345 70.3757 108.006C69.2534 110.667 68.6923 113.793 68.6923 117.385V129.649C68.6923 131.894 68.8847 133.85 69.2695 135.517C69.6542 137.184 70.2314 138.563 71.0009 139.653C71.7705 140.743 72.7164 141.561 73.8386 142.106C74.9929 142.651 76.3236 142.924 77.8306 142.924C79.0811 142.924 80.2354 142.635 81.2935 142.058C82.3516 141.481 83.2655 140.663 84.035 139.605C84.8366 138.547 85.4458 137.312 85.8626 135.902C86.2795 134.491 86.4879 132.952 86.4879 131.284C86.4879 129.489 86.2634 127.87 85.8145 126.427C85.3657 124.984 84.7244 123.765 83.8907 122.771C83.0891 121.745 82.1111 120.976 80.9568 120.463C79.8346 119.918 78.6001 119.645 77.2534 119.645C75.2013 119.645 73.4538 120.11 72.0109 121.04C70.6001 121.938 69.526 123.092 68.7885 124.503C68.0831 125.914 67.7304 127.341 67.7304 128.783L63.8346 124.84C63.7705 122.916 64.1392 120.928 64.9408 118.876C65.7424 116.824 66.9448 114.916 68.548 113.152C70.1512 111.389 72.1552 109.962 74.56 108.872C76.9648 107.781 79.7544 107.236 82.9288 107.236C86.1352 107.236 88.9568 107.846 91.3937 109.064C93.8626 110.282 95.9308 111.982 97.5981 114.162C99.2975 116.343 100.58 118.892 101.446 121.809C102.312 124.727 102.744 127.886 102.744 131.284C102.744 134.715 102.135 137.906 100.917 140.856C99.7304 143.773 98.047 146.322 95.8667 148.503C93.6863 150.683 91.1051 152.383 88.1232 153.601C85.1412 154.819 81.8546 155.429 78.2634 155.429C74.5761 155.429 71.1612 154.803 68.019 153.553C64.9087 152.27 62.1833 150.427 59.8426 148.022C57.534 145.585 55.7224 142.619 54.4077 139.124C53.1252 135.629 52.4839 131.669 52.4839 127.244V121.329C52.4839 115.333 53.4618 109.994 55.4178 105.312C57.4057 100.631 60.0991 96.6712 63.4979 93.4327C66.9288 90.1622 70.8566 87.6772 75.2815 85.9778C78.1318 84.8831 82.1595 84.141 85.9763 83.7515Z" fill="black"/>
</svg>
