<svg width="240" height="240" viewBox="0 0 240 240" fill="none" xmlns="http://www.w3.org/2000/svg">
<path d="M118.78 82.5625H128.307C131.057 82.5625 133.493 84.3392 134.334 86.9585L147.789 128.899C148.165 130.071 149.824 130.071 150.2 128.899L163.656 86.9585C164.496 84.3392 166.932 82.5625 169.683 82.5625H179.209L156.19 150.27C155.318 152.837 152.908 154.563 150.197 154.563H147.792C145.081 154.563 142.672 152.837 141.799 150.27L118.78 82.5625ZM110.176 88.8922C110.176 85.3964 113.01 82.5625 116.506 82.5625H124.813L127.533 137.749V148.233C127.533 151.729 124.699 154.563 121.203 154.563H116.506C113.01 154.563 110.176 151.729 110.176 148.233V88.8922ZM173.176 82.5625H181.533C185.029 82.5625 187.863 85.3964 187.863 88.8922V148.233C187.863 151.729 185.029 154.563 181.533 154.563H176.786C173.29 154.563 170.456 151.729 170.456 148.233V137.749L173.176 82.5625Z" fill="black"/>
</svg>
