<svg width="240" height="240" viewBox="0 0 240 240" fill="none" xmlns="http://www.w3.org/2000/svg">
<path d="M67.5165 116.611C67.5165 114.435 69.2805 112.671 71.4566 112.671H75.4043C77.4243 112.671 79.0756 112.318 80.3582 111.613C81.6728 110.876 82.6508 109.85 83.2921 108.535C83.9334 107.188 84.254 105.601 84.254 103.773C84.254 102.363 83.9494 101.064 83.3402 99.8776C82.763 98.6912 81.8652 97.7453 80.6468 97.0399C79.4284 96.3025 77.8732 95.9337 75.9815 95.9337C74.6989 95.9337 73.4484 96.2063 72.23 96.7514C71.0115 97.2644 70.0015 98.0019 69.1999 98.9638C67.8992 100.59 66.3577 102.475 64.2757 102.475H55.7291C53.5531 102.475 51.731 100.69 52.1793 98.5611C52.6723 96.2196 53.6324 94.1254 55.0596 92.2784C57.272 89.4247 60.1738 87.2443 63.765 85.7373C67.3883 84.1983 71.2841 83.4287 75.4524 83.4287C80.4223 83.4287 84.7831 84.1983 88.5346 85.7373C92.2861 87.2443 95.2039 89.4888 97.2881 92.4708C99.4043 95.4207 100.462 99.076 100.462 103.437C100.462 105.842 99.9013 108.102 98.7791 110.218C97.6568 112.335 96.0857 114.194 94.0656 115.797C92.0456 117.401 89.6728 118.667 86.9474 119.597C84.254 120.495 81.3041 120.944 78.0977 120.944H67.5165V116.611ZM71.4566 124.743C69.2805 124.743 67.5165 122.979 67.5165 120.803V116.663H78.0977C81.5927 116.663 84.7831 117.064 87.6688 117.866C90.5546 118.635 93.0396 119.789 95.1237 121.329C97.2079 122.868 98.8111 124.775 99.9334 127.052C101.056 129.296 101.617 131.878 101.617 134.795C101.617 138.066 100.959 140.984 99.6448 143.549C98.3302 146.114 96.4865 148.278 94.1137 150.042C91.741 151.805 88.9674 153.152 85.7931 154.082C82.6187 154.98 79.1718 155.429 75.4524 155.429C72.5346 155.429 69.6167 155.044 66.6989 154.274C63.7811 153.473 61.1197 152.254 58.7149 150.619C56.3101 148.952 54.3702 146.836 52.8953 144.27C52.0073 142.672 51.3925 140.885 51.051 138.91C50.6803 136.766 52.495 134.988 54.671 134.988H63.0474C65.2235 134.988 66.895 136.874 68.0106 138.742C68.068 138.838 68.1277 138.933 68.1899 139.028C69.0235 140.214 70.1298 141.16 71.5085 141.866C72.8873 142.571 74.3783 142.924 75.9815 142.924C77.9694 142.924 79.6528 142.555 81.0316 141.817C82.4424 141.048 83.5165 140.022 84.254 138.739C84.9915 137.457 85.3602 136.03 85.3602 134.459C85.3602 132.086 84.9594 130.194 84.1578 128.783C83.3883 127.373 82.25 126.347 80.743 125.705C79.268 125.064 77.4885 124.743 75.4043 124.743H71.4566Z" fill="black"/>
</svg>
