<svg width="240" height="240" viewBox="0 0 240 240" fill="none" xmlns="http://www.w3.org/2000/svg">
<path d="M120.165 153C117.404 153 115.165 150.761 115.165 148V89.756C115.165 86.9946 117.404 84.756 120.165 84.756H126.66C129.421 84.756 131.66 86.9946 131.66 89.756V107.147C131.66 109.908 133.898 112.147 136.66 112.147H153.551C156.312 112.147 158.551 109.908 158.551 107.147V89.756C158.551 86.9946 160.789 84.756 163.551 84.756H170.012C172.773 84.756 175.012 86.9946 175.012 89.756V148C175.012 150.761 172.773 153 170.012 153H163.551C160.789 153 158.551 150.761 158.551 148V130.576C158.551 127.814 156.312 125.576 153.551 125.576H136.66C133.898 125.576 131.66 127.814 131.66 130.576V148C131.66 150.761 129.421 153 126.66 153H120.165Z" fill="black"/>
</svg>
