<svg width="240" height="240" viewBox="0 0 240 240" fill="none" xmlns="http://www.w3.org/2000/svg">
<path d="M78.6896 153.933C73.3802 153.933 68.6374 153.089 64.461 151.401C60.3068 149.69 57.0412 147.38 54.6642 144.47C52.3095 141.537 51.1321 138.227 51.1321 134.539C51.1321 131.718 51.8096 129.13 53.1647 126.775C54.5198 124.421 56.3526 122.466 58.6629 120.911C60.9955 119.333 63.5946 118.323 66.4603 117.878V117.345C62.706 116.657 59.6293 114.913 57.2301 112.114C54.8531 109.315 53.6646 106.038 53.6646 102.284C53.6646 98.7292 54.742 95.5635 56.8968 92.7867C59.0739 90.0098 62.0396 87.8217 65.7939 86.2222C69.5704 84.6227 73.869 83.823 78.6896 83.823C83.5102 83.823 87.7977 84.6227 91.552 86.2222C95.3285 87.8217 98.2942 90.0098 100.449 92.7867C102.626 95.5635 103.715 98.7292 103.715 102.284C103.715 106.06 102.504 109.348 100.082 112.147C97.6833 114.924 94.6287 116.657 90.9189 117.345V117.878C93.7624 118.323 96.3393 119.333 98.6496 120.911C100.982 122.466 102.826 124.421 104.181 126.775C105.558 129.13 106.247 131.718 106.247 134.539C106.247 138.227 105.059 141.537 102.682 144.47C100.305 147.38 97.039 149.69 92.8849 151.401C88.7529 153.089 84.0212 153.933 78.6896 153.933ZM78.6896 142.237C80.7111 142.237 82.4883 141.859 84.0211 141.104C85.554 140.326 86.7536 139.249 87.62 137.872C88.5085 136.494 88.9528 134.939 88.9528 133.207C88.9528 131.429 88.5085 129.852 87.62 128.475C86.7314 127.098 85.5095 126.02 83.9545 125.243C82.4217 124.443 80.6667 124.043 78.6896 124.043C76.7347 124.043 74.9797 124.443 73.4247 125.243C71.8696 126.02 70.6478 127.098 69.7592 128.475C68.8706 129.852 68.4263 131.429 68.4263 133.207C68.4263 134.939 68.8595 136.494 69.7259 137.872C70.6145 139.227 71.8252 140.293 73.358 141.071C74.9131 141.848 76.6903 142.237 78.6896 142.237ZM78.6896 112.413C80.4223 112.413 81.9552 112.058 83.2881 111.347C84.6432 110.636 85.6984 109.648 86.4537 108.382C87.2312 107.115 87.62 105.682 87.62 104.083C87.62 102.483 87.2312 101.073 86.4537 99.851C85.6984 98.6292 84.6543 97.674 83.3214 96.9853C81.9885 96.2744 80.4446 95.919 78.6896 95.919C76.9568 95.919 75.4129 96.2744 74.0578 96.9853C72.7027 97.674 71.6475 98.6292 70.8922 99.851C70.1369 101.073 69.7592 102.483 69.7592 104.083C69.7592 105.682 70.1369 107.115 70.8922 108.382C71.6697 109.626 72.736 110.614 74.0911 111.347C75.4462 112.058 76.979 112.413 78.6896 112.413Z" fill="black"/>
</svg>
