<svg width="240" height="240" viewBox="0 0 240 240" fill="none" xmlns="http://www.w3.org/2000/svg">
<path d="M139.454 155.453H123.482L123.581 142.101H139.454C142.751 142.101 145.537 141.31 147.811 139.728C150.119 138.145 151.866 135.788 153.053 132.656C154.273 129.492 154.883 125.601 154.883 120.986V117.871C154.883 114.409 154.537 111.376 153.844 108.772C153.185 106.134 152.196 103.942 150.877 102.195C149.559 100.415 147.91 99.0795 145.932 98.1894C143.987 97.2993 141.746 96.8542 139.207 96.8542H123.185V83.4531H139.207C144.086 83.4531 148.553 84.2938 152.608 85.9751C156.696 87.6235 160.224 89.9971 163.191 93.096C166.191 96.1619 168.498 99.8048 170.114 104.025C171.762 108.211 172.586 112.86 172.586 117.97V120.986C172.586 126.063 171.762 130.711 170.114 134.931C168.498 139.151 166.207 142.794 163.24 145.86C160.273 148.926 156.762 151.299 152.707 152.981C148.685 154.629 144.268 155.453 139.454 155.453ZM133.421 83.4531V155.453H124.166C119.692 155.453 116.064 151.826 116.064 147.351V91.5551C116.064 87.0805 119.692 83.4531 124.166 83.4531H133.421Z" fill="black"/>
</svg>
