<svg width="240" height="240" viewBox="0 0 240 240" fill="none" xmlns="http://www.w3.org/2000/svg">
<path d="M68.9383 121.131C67.2506 122.217 65.1979 123.009 63.2444 122.55L57.7353 121.255C55.2623 120.673 53.6195 118.328 53.9179 115.805L57.1653 88.3498C57.4627 85.8356 59.5941 83.9414 62.1258 83.9414H94.2038C96.9625 83.9414 99.1989 86.1778 99.1989 88.9365V91.7268C99.1989 94.4855 96.9625 96.7219 94.2038 96.7219H75.5586C73.0191 96.7219 70.8838 98.6273 70.5957 101.15L69.4916 110.819C70.2721 110.364 71.5892 109.828 73.4428 109.21C75.329 108.559 77.4103 108.234 79.6867 108.234C83.1989 108.234 86.3046 108.771 89.0038 109.844C91.7355 110.884 94.0444 112.429 95.9306 114.478C97.8168 116.494 99.2314 118.982 100.175 121.941C101.15 124.901 101.638 128.283 101.638 132.088C101.638 135.145 101.134 138.104 100.126 140.966C99.1501 143.795 97.6379 146.348 95.5892 148.624C93.5729 150.868 91.0201 152.657 87.9306 153.99C84.8412 155.291 81.1827 155.941 76.955 155.941C73.8005 155.941 70.7274 155.454 67.7355 154.478C64.7436 153.502 62.0444 152.104 59.6379 150.283C57.264 148.429 55.3778 146.202 53.9794 143.6C53.3364 142.36 52.8484 141.051 52.5153 139.674C51.8712 137.012 54.1856 134.771 56.9248 134.771H63.8243C66.4573 134.771 68.4419 136.965 69.7355 139.258C70.4509 140.527 71.4103 141.519 72.6136 142.234C73.8493 142.917 75.264 143.258 76.8575 143.258C78.4835 143.258 79.8331 142.933 80.9062 142.283C81.9794 141.632 82.8249 140.738 83.4428 139.6C84.0607 138.462 84.4997 137.161 84.7599 135.698C85.0201 134.202 85.1501 132.624 85.1501 130.966C85.1501 129.21 84.955 127.632 84.5648 126.234C84.207 124.836 83.6217 123.649 82.8087 122.673C81.9957 121.665 80.9388 120.901 79.6379 120.38C78.3696 119.86 76.8412 119.6 75.0526 119.6C72.6786 119.6 70.8087 120.006 69.4428 120.819C69.2686 120.923 69.1004 121.027 68.9383 121.131Z" fill="black"/>
</svg>
