<svg width="20" height="20" viewBox="0 0 20 20" fill="none" xmlns="http://www.w3.org/2000/svg">
<path fill-rule="evenodd" clip-rule="evenodd" d="M14.7682 4.18566C14.6406 3.87372 14.337 3.66992 14 3.66992C13.663 3.66992 13.3594 3.87372 13.2318 4.18566L8.73181 15.1857C8.55825 15.6099 8.76149 16.0946 9.18575 16.2681C9.61002 16.4417 10.0947 16.2385 10.2682 15.8142L11.4891 12.8299H16.511L17.7318 15.8142C17.9054 16.2385 18.39 16.4417 18.8143 16.2681C19.2386 16.0946 19.4418 15.6099 19.2682 15.1857L14.7682 4.18566ZM15.8319 11.1699L14 6.69202L12.1681 11.1699H15.8319Z" fill="black"/>
<path fill-rule="evenodd" clip-rule="evenodd" d="M4.40957 6.4096C4.73566 6.08352 5.26436 6.08352 5.59044 6.4096L8.59044 9.40961C8.91653 9.73569 8.91653 10.2644 8.59044 10.5905L5.59044 13.5905C5.26436 13.9166 4.73566 13.9166 4.40957 13.5905C4.08349 13.2644 4.08349 12.7357 4.40957 12.4096L5.98414 10.835H0.999642C0.538485 10.835 0.164642 10.4612 0.164642 10C0.164642 9.53888 0.538485 9.16504 0.999642 9.16504H5.98414L4.40957 7.59047C4.08349 7.26439 4.08349 6.73569 4.40957 6.4096Z" fill="black"/>
</svg>
