<svg width="24" height="24" viewBox="0 0 24 24" fill="none" xmlns="http://www.w3.org/2000/svg">
<path d="M13.4999 1.5C19.2989 1.50004 23.9999 6.20103 23.9999 12C23.9999 17.799 19.2989 22.5 13.4999 22.5C12.9476 22.5 12.4999 22.0523 12.4999 21.5C12.4999 20.9477 12.9476 20.5 13.4999 20.5C18.1943 20.5 21.9999 16.6944 21.9999 12C21.9999 7.3056 18.1943 3.50004 13.4999 3.5C8.94794 3.5 5.23102 7.07812 5.00969 11.5752L6.29289 10.293C6.68342 9.90248 7.31644 9.90246 7.70696 10.293C8.09743 10.6835 8.09743 11.3165 7.70696 11.707L4.70696 14.707L4.63078 14.7754C4.23802 15.0957 3.65901 15.0731 3.29289 14.707L0.292893 11.707C-0.0976311 11.3165 -0.0976311 10.6835 0.292893 10.293C0.68342 9.90248 1.31644 9.90246 1.70696 10.293L3.00969 11.5957C3.22218 5.98412 7.83634 1.5 13.4999 1.5Z" fill="black"/>
<path d="M10.75 14.377C10.75 13.9844 11.002 13.6738 11.3945 13.6738C11.6406 13.6738 11.8281 13.7793 12.0215 14.0547C12.3906 14.6055 12.8594 14.8809 13.457 14.8809C14.3418 14.8809 14.9688 14.2656 14.9688 13.3809C14.9688 12.5254 14.3652 11.9395 13.5215 11.9395C13.1289 11.9395 12.7305 12.0859 12.3848 12.3555C12.0391 12.6484 11.8691 12.7188 11.6523 12.7188C11.1719 12.7188 10.8438 12.373 10.8789 11.834L11.0957 8.82227C11.1367 8.26562 11.4707 7.99609 12.1152 7.99609H15.4316C15.9004 7.99609 16.1758 8.23633 16.1758 8.64648C16.1758 9.05664 15.9062 9.28516 15.4316 9.28516H12.4023L12.2383 11.3535H12.3203C12.5957 10.9785 13.2461 10.7207 13.9316 10.7207C15.4551 10.7207 16.5039 11.7754 16.5039 13.3223C16.5039 15.0273 15.2793 16.1699 13.4629 16.1699C11.875 16.1699 10.75 15.2734 10.75 14.377Z" fill="black"/>
</svg>
