<svg width="24" height="24" viewBox="0 0 24 24" fill="none" xmlns="http://www.w3.org/2000/svg">
<path d="M9.29289 2.29289C9.48043 2.10536 9.73478 2 10 2H14C14.2652 2 14.5196 2.10536 14.7071 2.29289L15.4142 3H19C19.5523 3 20 3.44772 20 4C20 4.55228 19.5523 5 19 5H5C4.44772 5 4 4.55228 4 4C4 3.44772 4.44772 3 5 3H8.58579L9.29289 2.29289Z" fill="black"/>
<path d="M17.954 7.10899C17.7401 7 17.4601 7 16.9 7H7.1C6.53995 7 6.25992 7 6.04601 7.10899C5.85785 7.20487 5.70487 7.35785 5.60899 7.54601C5.5 7.75992 5.5 8.03995 5.5 8.6V16.2C5.5 17.8802 5.5 18.7202 5.82698 19.362C6.1146 19.9265 6.57354 20.3854 7.13803 20.673C7.77976 21 8.61984 21 10.3 21H13.7C15.3802 21 16.2202 21 16.862 20.673C17.4265 20.3854 17.8854 19.9265 18.173 19.362C18.5 18.7202 18.5 17.8802 18.5 16.2V8.6C18.5 8.03995 18.5 7.75992 18.391 7.54601C18.2951 7.35785 18.1422 7.20487 17.954 7.10899Z" fill="black"/>
</svg>
