<svg xmlns="http://www.w3.org/2000/svg" width="24" height="24" viewBox="0 0 24 24">
  <path d="M15.6,11.79 C16.57,11.12 17.25,10.02 17.25,9 C17.25,6.74 15.5,5 13.25,5 L8,5 C7.45,5 7,5.45 7,6 L7,18 C7,18.55 7.45,19 8,19 L13.78,19 C15.85,19 17.74,17.31 17.7500863,15.23 C17.76,13.7 16.9,12.39 15.6,11.79 Z M10,7.5 L13,7.5 C13.83,7.5 14.5,8.17 14.5,9 C14.5,9.83 13.83,10.5 13,10.5 L10,10.5 L10,7.5 Z M13.5,16.5 L10,16.5 L10,13.5 L13.5,13.5 C14.33,13.5 15,14.17 15,15 C15,15.83 14.33,16.5 13.5,16.5 Z"/>
</svg>
