<svg width="18" height="18" viewBox="0 0 18 18" fill="none" xmlns="http://www.w3.org/2000/svg">
<path fill-rule="evenodd" clip-rule="evenodd" d="M3.16719 4.43345C3.23866 4.16672 3.51283 4.00843 3.77956 4.0799L4.90648 4.38186C5.17321 4.45333 5.3315 4.72749 5.26003 4.99423C5.18856 5.26096 4.91439 5.41925 4.64766 5.34778L3.52074 5.04583C3.25401 4.97435 3.09572 4.70019 3.16719 4.43345ZM7.67492 5.64128C7.74639 5.37454 8.02056 5.21625 8.28728 5.28772L9.41421 5.58968C9.68094 5.66115 9.83923 5.93532 9.76776 6.20205C9.69629 6.46879 9.42211 6.62708 9.15539 6.55561L8.02847 6.25365C7.76173 6.18218 7.60345 5.90801 7.67492 5.64128ZM6.19586 2.37071C6.12439 2.10398 5.85022 1.94569 5.58349 2.01716C5.31676 2.08863 5.15847 2.3628 5.22994 2.62953L5.53189 3.75645C5.60336 4.02318 5.87753 4.18147 6.14427 4.11C6.411 4.03853 6.56929 3.76436 6.49782 3.49763L6.19586 2.37071ZM7.35137 4.43384C7.15611 4.23857 7.15611 3.92199 7.35137 3.72673L8.17632 2.90177C8.37158 2.70651 8.68817 2.70651 8.88344 2.90177C9.0787 3.09703 9.0787 3.41362 8.88344 3.60888L8.05848 4.43384C7.86322 4.6291 7.54663 4.6291 7.35137 4.43384ZM6.47184 4.82153C6.33924 4.82155 6.21208 4.87424 6.11833 4.96802C5.38627 5.70007 5.26704 6.82328 5.76063 7.68276L5.64665 7.79674C5.19103 8.25236 5.19103 8.99105 5.64665 9.44666L5.8866 9.68661C5.16687 11.3854 5.49942 13.424 6.88423 14.8089C8.70667 16.6313 11.6615 16.6313 13.4839 14.8089C15.3064 12.9864 15.3064 10.0316 13.4839 8.2092C12.099 6.82431 10.0603 6.49181 8.36141 7.21168L8.12152 6.97179C7.67966 6.52993 6.97153 6.51659 6.5136 6.93178C6.37813 6.50294 6.48205 6.01836 6.82536 5.67505C6.9191 5.58128 6.97177 5.45412 6.97177 5.32153C6.97177 5.18894 6.9191 5.06178 6.82536 4.96802C6.7316 4.87424 6.60444 4.82155 6.47184 4.82153ZM7.76871 9.09302C7.86246 8.99924 7.98962 8.94655 8.12222 8.94653C8.25482 8.94655 8.38199 8.99924 8.47574 9.09302C8.56948 9.18678 8.62215 9.31394 8.62215 9.44653C8.62215 9.57912 8.56948 9.70628 8.47574 9.80005C7.5278 10.748 7.5278 12.2701 8.47574 13.218C8.56948 13.3118 8.62215 13.4389 8.62215 13.5715C8.62215 13.7041 8.56948 13.8313 8.47574 13.925C8.38197 14.0188 8.25481 14.0715 8.12222 14.0715C7.98963 14.0715 7.86247 14.0188 7.76871 13.925C6.43859 12.595 6.43859 10.4231 7.76871 9.09302Z" fill="black"/>
</svg>
