<svg width="24" height="24" viewBox="0 0 24 24" fill="none" xmlns="http://www.w3.org/2000/svg">
<path fill-rule="evenodd" clip-rule="evenodd" d="M12 23C18.0751 23 23 18.0751 23 12C23 5.92487 18.0751 1 12 1C5.92487 1 1 5.92487 1 12C1 18.0751 5.92487 23 12 23ZM13.0821 9.98818C13.0294 10.322 13.2874 10.624 13.6253 10.624H15.9048C16.3471 10.624 16.6084 11.1195 16.3587 11.4846L11.1753 19.0604C10.8441 19.5444 10.0865 19.2433 10.178 18.6641L10.9129 14.0096C10.9656 13.6758 10.7077 13.3738 10.3697 13.3738H8.09025C7.64796 13.3738 7.38657 12.8783 7.63633 12.5132L12.8198 4.9374C13.151 4.45342 13.9085 4.75451 13.817 5.33375L13.0821 9.98818Z" fill="black"/>
</svg>
