<svg width="20" height="20" viewBox="0 0 20 20" fill="none" xmlns="http://www.w3.org/2000/svg">
<path d="M8.23253 7.56216C8.16891 7.96668 8.48161 8.33241 8.8911 8.33241H11.6398C12.1754 8.33241 12.4923 8.93202 12.1907 9.37457L5.93676 18.5492C5.53618 19.1369 4.61685 18.7727 4.72733 18.0701L5.61346 12.435C5.67707 12.0305 5.36438 11.6647 4.95489 11.6647H2.20626C1.67066 11.6647 1.35372 11.0651 1.65542 10.6225L7.90919 1.44919C8.30981 0.861542 9.2291 1.22572 9.1186 1.92829L8.23253 7.56216Z" fill="black"/>
<path d="M14.0638 1.44967C14.4644 0.862041 15.3833 1.22565 15.2728 1.92819L14.3871 7.56197C14.3235 7.96638 14.636 8.33228 15.0453 8.33248H17.7933C18.3289 8.33248 18.6458 8.93193 18.3441 9.37447L12.0902 18.5483C11.6895 19.1357 10.7707 18.7713 10.8812 18.0688L11.7084 12.812L13.4613 10.2407C14.459 8.77689 13.4105 6.7944 11.639 6.7944H10.4193L14.0638 1.44967ZM11.639 8.33248C12.1746 8.33248 12.4924 8.93291 12.1908 9.37545L10.6293 11.6655H8.36072C7.82526 11.6655 7.50765 11.066 7.80896 10.6235L9.37146 8.33248H11.639ZM9.75232 7.80123C9.75403 7.79035 9.75395 7.77887 9.75525 7.76803L9.7572 7.76412L9.75232 7.80123Z" fill="black"/>
</svg>
