<svg width="30" height="30" viewBox="0 0 30 30" fill="none" xmlns="http://www.w3.org/2000/svg">
<path fill-rule="evenodd" clip-rule="evenodd" d="M24.0394 18.2574V12.3174C24.0394 7.32521 19.9924 3.27826 15.0003 3.27826C10.0081 3.27826 5.96112 7.32522 5.96112 12.3174V18.2574C5.96112 21.1502 5.96112 22.5966 6.5241 23.7015C7.0193 24.6734 7.80948 25.4636 8.78138 25.9588C9.88628 26.5217 11.3327 26.5217 14.2255 26.5217H15.775C18.6678 26.5217 20.1142 26.5217 21.2191 25.9588C22.191 25.4636 22.9812 24.6734 23.4764 23.7015C24.0394 22.5966 24.0394 21.1502 24.0394 18.2574ZM8.5433 12.3174C8.5433 8.75156 11.434 5.86088 14.9998 5.86088C18.5657 5.86088 21.4563 8.75156 21.4563 12.3174V13.7772C21.4563 15.2549 20.6079 16.6077 19.1746 16.9675C18.0835 17.2414 16.6532 17.4826 14.9998 17.4826C13.3465 17.4826 11.9162 17.2414 10.825 16.9675C9.39179 16.6077 8.5433 15.2549 8.5433 13.7772V12.3174ZM18.1159 13.8597C18.8885 13.8597 19.5148 13.0768 19.5148 12.1111C19.5148 11.1453 18.8885 10.3625 18.1159 10.3625C17.3433 10.3625 16.717 11.1453 16.717 12.1111C16.717 13.0768 17.3433 13.8597 18.1159 13.8597ZM11.8789 13.8597C12.6515 13.8597 13.2779 13.0768 13.2779 12.1111C13.2779 11.1453 12.6515 10.3625 11.8789 10.3625C11.1063 10.3625 10.48 11.1453 10.48 12.1111C10.48 13.0768 11.1063 13.8597 11.8789 13.8597ZM27.2675 13.4C28.0959 13.4 28.7675 14.0716 28.7675 14.9V21.3565C28.7675 22.1849 28.0959 22.8565 27.2675 22.8565C26.439 22.8565 25.7675 22.1849 25.7675 21.3565V14.9C25.7675 14.0716 26.439 13.4 27.2675 13.4ZM4.23279 14.9C4.23279 14.0716 3.56122 13.4 2.73279 13.4C1.90436 13.4 1.23279 14.0716 1.23279 14.9V21.3565C1.23279 22.1849 1.90436 22.8565 2.73279 22.8565C3.56122 22.8565 4.23279 22.1849 4.23279 21.3565V14.9Z" fill="#717579"/>
</svg>
