<svg width="24" height="24" viewBox="0 0 24 24" fill="none" xmlns="http://www.w3.org/2000/svg">
<path fill-rule="evenodd" clip-rule="evenodd" d="M13.294 2.22081C12.5793 1.50615 11.4206 1.50615 10.706 2.22081L8.80647 4.1203C8.77459 4.15218 8.73135 4.1701 8.68626 4.1701H6.00002C4.98933 4.1701 4.17002 4.98941 4.17002 6.0001V8.68635C4.17002 8.73143 4.1521 8.77467 4.12022 8.80655L2.22069 10.7061C1.50603 11.4207 1.50603 12.5794 2.22069 13.2941L4.12022 15.1936C4.1521 15.2255 4.17002 15.2688 4.17002 15.3138V18.0001C4.17002 19.0108 4.98933 19.8301 6.00002 19.8301H8.68627C8.73135 19.8301 8.77459 19.848 8.80647 19.8799L10.706 21.7794C11.4206 22.494 12.5793 22.494 13.294 21.7794L15.1935 19.8799C15.2254 19.848 15.2686 19.8301 15.3137 19.8301H18C19.0107 19.8301 19.83 19.0108 19.83 18.0001V15.3138C19.83 15.2687 19.8479 15.2254 19.8798 15.1936L21.7793 13.2941C22.4939 12.5794 22.4939 11.4207 21.7793 10.7061L19.8798 8.80664C19.8479 8.77476 19.83 8.73152 19.83 8.68643V6.0001C19.83 4.98941 19.0107 4.1701 18 4.1701H15.3137C15.2686 4.1701 15.2254 4.15218 15.1935 4.1203L13.294 2.22081ZM11.8798 3.39461C11.9462 3.32822 12.0538 3.32822 12.1202 3.39461L14.0197 5.2941C14.3629 5.63729 14.8283 5.8301 15.3137 5.8301H18C18.0939 5.8301 18.17 5.90621 18.17 6.0001V8.68643C18.17 9.17178 18.3628 9.63724 18.706 9.98044L20.6055 11.8799C20.6719 11.9463 20.6719 12.0539 20.6055 12.1203L18.706 14.0198C18.3628 14.3629 18.17 14.8284 18.17 15.3138V18.0001C18.17 18.094 18.0939 18.1701 18 18.1701H15.3137C14.8283 18.1701 14.3629 18.3629 14.0197 18.7061L12.1202 20.6056C12.0538 20.672 11.9462 20.672 11.8798 20.6056L9.98027 18.7061C9.63708 18.3629 9.17161 18.1701 8.68627 18.1701H6.00002C5.90613 18.1701 5.83002 18.094 5.83002 18.0001V15.3138C5.83002 14.8285 5.63721 14.363 5.29402 14.0198L3.39448 12.1203C3.3281 12.0539 3.32809 11.9463 3.39448 11.8799L5.29402 9.98035C5.63721 9.63716 5.83002 9.17169 5.83002 8.68635V6.0001C5.83002 5.90621 5.90613 5.8301 6.00002 5.8301H8.68626C9.17161 5.8301 9.63708 5.63729 9.98027 5.2941L11.8798 3.39461ZM17 12.0001C17 14.593 15.0263 16.725 12.4993 16.9755C12.2245 17.0027 12 16.7762 12 16.5001V7.50011C12 7.22396 12.2245 6.99748 12.4993 7.02472C15.0263 7.27526 17 9.40719 17 12.0001Z" fill="white"/>
</svg>
