<svg width="24" height="24" viewBox="0 0 24 24" fill="none" xmlns="http://www.w3.org/2000/svg">
<path fill-rule="evenodd" clip-rule="evenodd" d="M21.1213 3.70705C19.9498 2.53548 18.0503 2.53548 16.8787 3.70705L9.70711 10.8786C8.53554 12.0502 8.53554 13.9497 9.70712 15.1213L9.87869 15.2928C11.0503 16.4644 12.9498 16.4644 14.1213 15.2928L21.2929 8.12126C22.4645 6.94969 22.4645 5.05019 21.2929 3.87862L21.1213 3.70705ZM18.2929 5.12126C18.6834 4.73074 19.3166 4.73074 19.7071 5.12126L19.8787 5.29284C20.2692 5.68336 20.2692 6.31652 19.8787 6.70705L12.7071 13.8786C12.3166 14.2691 11.6834 14.2691 11.2929 13.8786L11.1213 13.707C10.7308 13.3165 10.7308 12.6834 11.1213 12.2928L18.2929 5.12126ZM5.84591 17.3491C6.09048 17.1162 6.37197 16.9999 6.75001 16.9999C7.12805 16.9999 7.40954 17.1162 7.6541 17.3491C7.89679 17.5802 8.00001 17.8258 8.00001 18.1428C8.00001 18.645 7.8257 19.0588 7.4291 19.4365C7.03101 19.8157 6.57306 19.9999 6.00001 19.9999C5.63539 19.9999 5.26385 19.9238 4.87901 19.7577C5.30241 19.3223 5.50001 18.7557 5.50001 18.1428C5.50001 17.8258 5.60323 17.5802 5.84591 17.3491ZM6.75001 14.9999C5.87805 14.9999 5.09704 15.3004 4.4666 15.9008C3.83429 16.503 3.50001 17.2693 3.50001 18.1428C3.50001 18.3283 3.45281 18.3624 3.40818 18.3947L3.4078 18.395C3.19269 18.5505 3.06212 18.5714 3.00001 18.5714C2.61699 18.5714 2.26762 18.7901 2.10037 19.1347C1.93313 19.4793 1.9774 19.8891 2.21437 20.1901C2.65763 20.7529 3.22886 21.1897 3.90132 21.5099C4.5743 21.8304 5.2767 21.9999 6.00001 21.9999C7.07696 21.9999 8.03151 21.6247 8.80841 20.8848C9.58682 20.1435 10 19.2121 10 18.1428C10 17.2693 9.66573 16.503 9.03341 15.9008C8.40298 15.3004 7.62197 14.9999 6.75001 14.9999Z" fill="white"/>
</svg>
