<svg width="24" height="24" viewBox="0 0 24 24" fill="none" xmlns="http://www.w3.org/2000/svg">
<path fill-rule="evenodd" clip-rule="evenodd" d="M9.29289 6.29289C8.90237 6.68342 8.90237 7.31658 9.29289 7.70711C9.68342 8.09763 10.3166 8.09763 10.7071 7.70711L13.7071 4.70711C14.0976 4.31658 14.0976 3.68342 13.7071 3.29289L10.7071 0.292893C10.3166 -0.097631 9.68342 -0.097631 9.29289 0.292893C8.90237 0.683417 8.90237 1.31658 9.29289 1.70711L10.5858 3H7C4.23858 3 2 5.23858 2 8V11C2 11.5523 2.44771 12 3 12C3.55228 12 4 11.5523 4 11V8C4 6.34315 5.34315 5 7 5H10.5858L9.29289 6.29289ZM18.908 5.21799C18.5275 5.0241 18.2691 5 16.5 5C15.9477 5 15.5 4.55228 15.5 4C15.5 3.44772 15.9477 3 16.5 3L16.7261 2.99989C18.1711 2.9988 18.9568 2.99821 19.816 3.43597C20.5686 3.81947 21.1805 4.43139 21.564 5.18404C21.8113 5.66937 21.9099 6.18608 21.9558 6.74817C22 7.28936 22 7.95372 22 8.75868V8.8V13.2V13.2413C22 14.0463 22 14.7106 21.9558 15.2518C21.9099 15.8139 21.8113 16.3306 21.564 16.816C21.1805 17.5686 20.5686 18.1805 19.816 18.564C19.3306 18.8113 18.8139 18.9099 18.2518 18.9558C17.7106 19 17.0463 19 16.2413 19H16.2H8.32548C7.7887 19 7.6833 19.0064 7.59498 19.0276C7.49295 19.0521 7.3954 19.0925 7.30593 19.1474C7.22849 19.1948 7.14941 19.2648 6.76985 19.6444L3.70711 22.7071C3.42111 22.9931 2.99099 23.0787 2.61732 22.9239C2.24364 22.7691 2 22.4045 2 22V15C2 14.4477 2.44772 14 3 14C3.55228 14 4 14.4477 4 15V19.5858L5.35564 18.2302L5.4145 18.1712C5.70195 17.8832 5.95539 17.6293 6.26093 17.4421L6.78343 18.2947L6.26093 17.4421C6.52935 17.2776 6.82198 17.1564 7.12809 17.0829C7.47654 16.9992 7.83528 16.9996 8.24218 16.9999L8.32548 17H16.2C17.0566 17 17.6389 16.9992 18.089 16.9624C18.5274 16.9266 18.7516 16.8617 18.908 16.782C19.2843 16.5903 19.5903 16.2843 19.782 15.908C19.8617 15.7516 19.9266 15.5274 19.9624 15.089C19.9992 14.6389 20 14.0566 20 13.2V8.8C20 7.94342 19.9992 7.36113 19.9624 6.91104C19.9266 6.47262 19.8617 6.24842 19.782 6.09202C19.5903 5.71569 19.2843 5.40973 18.908 5.21799Z" fill="white"/>
</svg>
