<svg width="24" height="24" viewBox="0 0 24 24" fill="none" xmlns="http://www.w3.org/2000/svg">
<path fill-rule="evenodd" clip-rule="evenodd" d="M18 1C18 0.447715 17.5523 0 17 0C16.4477 0 16 0.447715 16 1V2.00549C15.5885 1.99999 15.1375 2 14.6428 2H9.35719C8.86249 2 8.41147 1.99999 8 2.00549V1C8 0.447715 7.55229 0 7 0C6.44772 0 6 0.447715 6 1V2.1419C5.54688 2.21908 5.12767 2.34237 4.73005 2.54497C3.78924 3.02433 3.02434 3.78924 2.54497 4.73005C2.24318 5.32234 2.11737 5.96253 2.05782 6.69138C1.99998 7.39925 1.99999 8.27341 2 9.35719V14.6428C1.99999 15.7266 1.99998 16.6007 2.05782 17.3086C2.11737 18.0375 2.24318 18.6777 2.54497 19.27C3.02434 20.2108 3.78924 20.9757 4.73005 21.455C5.32234 21.7568 5.96253 21.8826 6.69138 21.9422C7.39923 22 8.27334 22 9.35707 22H14.6428C15.7266 22 16.6008 22 17.3086 21.9422C18.0375 21.8826 18.6777 21.7568 19.27 21.455C20.2108 20.9757 20.9757 20.2108 21.455 19.27C21.7568 18.6777 21.8826 18.0375 21.9422 17.3086C22 16.6008 22 15.7267 22 14.6429V9.35717C22 8.27344 22 7.39923 21.9422 6.69138C21.8826 5.96253 21.7568 5.32234 21.455 4.73005C20.9757 3.78924 20.2108 3.02433 19.27 2.54497C18.8723 2.34237 18.4531 2.21908 18 2.1419V1ZM5.63803 4.32698C5.90138 4.19279 6.24907 4.10062 6.85424 4.05118C7.47108 4.00078 8.2634 4 9.4 4H14.6C15.7366 4 16.5289 4.00078 17.1458 4.05118C17.7509 4.10062 18.0986 4.19279 18.362 4.32698C18.9265 4.6146 19.3854 5.07354 19.673 5.63803C19.8072 5.90138 19.8994 6.24907 19.9488 6.85424C19.9754 7.17922 19.9882 7.55291 19.9943 8H4.0057C4.01185 7.55291 4.02462 7.17922 4.05118 6.85424C4.10062 6.24907 4.19279 5.90138 4.32698 5.63803C4.6146 5.07354 5.07354 4.6146 5.63803 4.32698ZM4 10V14.6C4 15.7366 4.00078 16.5289 4.05118 17.1458C4.10062 17.7509 4.19279 18.0986 4.32698 18.362C4.6146 18.9265 5.07354 19.3854 5.63803 19.673C5.90138 19.8072 6.24907 19.8994 6.85424 19.9488C7.47108 19.9992 8.26339 20 9.4 20H14.6C15.7366 20 16.5289 19.9992 17.1458 19.9488C17.7509 19.8994 18.0986 19.8072 18.362 19.673C18.9265 19.3854 19.3854 18.9265 19.673 18.362C19.8072 18.0986 19.8994 17.7509 19.9488 17.1458C19.9992 16.5289 20 15.7366 20 14.6V10H4Z" fill="#717579"/>
</svg>
