<svg xmlns="http://www.w3.org/2000/svg" width="24" height="24" viewBox="0 0 24 24">
  <g fill="none" fill-rule="evenodd">
    <polygon points="0 0 24 0 24 24 0 24"/>
    <path fill="#000" fill-rule="nonzero" d="M14.5857864,2 C15.1162194,2 15.6249272,2.21071368 16,2.58578644 L17.4142136,4 L19,4 C20.6568542,4 22,5.34314575 22,7 L22,18 C22,19.6568542 20.6568542,21 19,21 L5,21 C3.34314575,21 2,19.6568542 2,18 L2,7 C2,5.34314575 3.34314575,4 5,4 L6.58578644,4 L8,2.58578644 C8.37507276,2.21071368 8.88378058,2 9.41421356,2 L14.5857864,2 Z M14.5857864,4 L9.41421356,4 L8,5.41421356 C7.62492724,5.78928632 7.11621942,6 6.58578644,6 L5,6 C4.44771525,6 4,6.44771525 4,7 L4,18 C4,18.5522847 4.44771525,19 5,19 L19,19 C19.5522847,19 20,18.5522847 20,18 L20,7 C20,6.44771525 19.5522847,6 19,6 L17.4142136,6 C16.8837806,6 16.3750728,5.78928632 16,5.41421356 L14.5857864,4 Z M12,7 C14.7614237,7 17,9.23857625 17,12 C17,14.7614237 14.7614237,17 12,17 C9.23857625,17 7,14.7614237 7,12 C7,9.23857625 9.23857625,7 12,7 Z M12,9 C10.3431458,9 9,10.3431458 9,12 C9,13.6568542 10.3431458,15 12,15 C13.6568542,15 15,13.6568542 15,12 C15,10.3431458 13.6568542,9 12,9 Z"/>
  </g>
</svg>
