<svg width="24" height="24" viewBox="0 0 24 24" fill="none" xmlns="http://www.w3.org/2000/svg">
<path fill-rule="evenodd" clip-rule="evenodd" d="M3.99996 6.00002C3.44768 6.00002 2.99996 6.44774 2.99996 7.00002C2.99996 7.55231 3.44768 8.00002 3.99996 8.00002H18C18.5522 8.00002 19 7.55231 19 7.00002C19 6.44774 18.5522 6.00002 18 6.00002H3.99996ZM3.99996 11C3.44768 11 2.99996 11.4477 2.99996 12C2.99996 12.5523 3.44768 13 3.99996 13H14C14.5522 13 15 12.5523 15 12C15 11.4477 14.5522 11 14 11H3.99996ZM2.99996 17C2.99996 16.4477 3.44768 16 3.99996 16H11C11.5522 16 12 16.4477 12 17C12 17.5523 11.5522 18 11 18H3.99996C3.44768 18 2.99996 17.5523 2.99996 17ZM18.707 20.7071C18.3165 21.0976 17.6834 21.0976 17.2928 20.7071L14.2928 17.7071C13.9023 17.3166 13.9023 16.6834 14.2928 16.2929C14.6834 15.9024 15.3165 15.9024 15.707 16.2929L16.9999 17.5858V12C16.9999 11.4477 17.4477 11 17.9999 11C18.5522 11 18.9999 11.4477 18.9999 12V17.5858L20.2928 16.2929C20.6834 15.9024 21.3165 15.9024 21.707 16.2929C22.0976 16.6834 22.0976 17.3166 21.707 17.7071L18.707 20.7071Z" fill="black"/>
</svg>
