<svg width="24" height="24" viewBox="0 0 24 24" fill="none" xmlns="http://www.w3.org/2000/svg">
<path fill-rule="evenodd" clip-rule="evenodd" d="M17.2928 3.29285C17.6833 2.90233 18.3165 2.90233 18.707 3.29285L21.707 6.29285C22.0976 6.68338 22.0976 7.31654 21.707 7.70707C21.3165 8.09759 20.6833 8.09759 20.2928 7.70707L18.9999 6.41417V12C18.9999 12.5522 18.5522 13 17.9999 13C17.4476 13 16.9999 12.5522 16.9999 12V6.41417L15.707 7.70707C15.3165 8.09759 14.6833 8.09759 14.2928 7.70707C13.9023 7.31654 13.9023 6.68338 14.2928 6.29285L17.2928 3.29285ZM2.99996 7C2.99996 6.44772 3.44768 6 3.99996 6H11C11.5522 6 12 6.44772 12 7C12 7.55228 11.5522 8 11 8H3.99996C3.44768 8 2.99996 7.55228 2.99996 7ZM3.99998 11C3.4477 11 2.99998 11.4477 2.99998 12C2.99998 12.5523 3.4477 13 3.99998 13H14C14.5523 13 15 12.5523 15 12C15 11.4477 14.5523 11 14 11H3.99998ZM3.99996 16C3.44768 16 2.99996 16.4477 2.99996 17C2.99996 17.5523 3.44768 18 3.99996 18H18C18.5522 18 19 17.5523 19 17C19 16.4477 18.5522 16 18 16H3.99996Z" fill="black"/>
</svg>
