<svg width="10" height="8" viewBox="0 0 10 8" fill="none" xmlns="http://www.w3.org/2000/svg">
<path fill-rule="evenodd" clip-rule="evenodd" d="M0.217987 1.09202C0 1.51984 0 2.0799 0 3.2V4H10V3.2C10 2.0799 10 1.51984 9.78201 1.09202C9.59027 0.715695 9.28431 0.409734 8.90798 0.217987C8.48016 0 7.9201 0 6.8 0H3.2C2.0799 0 1.51984 0 1.09202 0.217987C0.715695 0.409734 0.409734 0.715695 0.217987 1.09202ZM9.98081 6H0.0191893C0.0431369 6.39221 0.0969705 6.67047 0.217987 6.90798C0.409734 7.28431 0.715695 7.59027 1.09202 7.78201C1.51984 8 2.0799 8 3.2 8H6.8C7.9201 8 8.48016 8 8.90798 7.78201C9.28431 7.59027 9.59027 7.28431 9.78201 6.90798C9.90303 6.67047 9.95686 6.39221 9.98081 6Z" fill="black"/>
</svg>
