<svg width="24" height="24" viewBox="0 0 24 24" fill="none" xmlns="http://www.w3.org/2000/svg">
<path fill-rule="evenodd" clip-rule="evenodd" d="M3 12C3 7.02944 7.02944 3 12 3C16.9706 3 21 7.02944 21 12C21 16.9706 16.9706 21 12 21C7.02944 21 3 16.9706 3 12ZM12 1C5.92487 1 1 5.92487 1 12C1 18.0751 5.92487 23 12 23C18.0751 23 23 18.0751 23 12C23 5.92487 18.0751 1 12 1ZM12.9953 4.99988C12.9953 4.44759 12.5475 3.99988 11.9953 3.99988C11.443 3.99988 10.9953 4.44759 10.9953 4.99988V5.80817C9.25425 6.11959 7.9328 7.64152 7.9328 9.4721V9.74988C7.9328 11.5448 9.38787 12.9999 11.1828 12.9999H12.8078C13.4982 12.9999 14.0578 13.5595 14.0578 14.2499V14.5277C14.0578 15.4788 13.2867 16.2499 12.3356 16.2499H11.9967L11.9953 16.2499L11.9939 16.2499H11.5578C10.6603 16.2499 9.9328 15.5223 9.9328 14.6249C9.9328 14.0726 9.48509 13.6249 8.9328 13.6249C8.38052 13.6249 7.9328 14.0726 7.9328 14.6249C7.9328 16.4356 9.26037 17.9362 10.9953 18.2065V18.9999C10.9953 19.5522 11.443 19.9999 11.9953 19.9999C12.5475 19.9999 12.9953 19.5522 12.9953 18.9999V18.1916C14.7363 17.8802 16.0578 16.3583 16.0578 14.5277V14.2499C16.0578 12.455 14.6027 10.9999 12.8078 10.9999H11.1828C10.4924 10.9999 9.9328 10.4402 9.9328 9.74988V9.4721C9.9328 8.52094 10.7039 7.74988 11.655 7.74988H11.9953H12.4953C13.3582 7.74988 14.0578 8.44943 14.0578 9.31238C14.0578 9.86466 14.5055 10.3124 15.0578 10.3124C15.6101 10.3124 16.0578 9.86466 16.0578 9.31238C16.0578 7.51455 14.7261 6.02776 12.9953 5.78468V4.99988Z" fill="white"/>
</svg>
