<svg width="30" height="30" viewBox="0 0 30 30" fill="none" xmlns="http://www.w3.org/2000/svg">
<path fill-rule="evenodd" clip-rule="evenodd" d="M9.17647 19.708H12.5855C13.0157 19.708 13.2308 19.708 13.4395 19.7306C14.0143 19.7929 14.568 19.9829 15.0601 20.2866C15.2387 20.3969 15.4085 20.5289 15.7481 20.7931L19.3164 23.5684C21.4611 25.2365 22.5335 26.0706 23.4338 26.0629C24.217 26.0562 24.9551 25.6953 25.4412 25.0811C26 24.3751 26 23.0166 26 20.2996V8.7634C26 6.04635 26 4.68782 25.4412 3.98185C24.9551 3.3677 24.217 3.00672 23.4338 3.00005C22.5335 2.99239 21.4611 3.82644 19.3164 5.49455L19.3164 5.49455L15.7481 8.2699C15.4085 8.53402 15.2387 8.66607 15.0601 8.77633C14.568 9.08006 14.0143 9.27003 13.4395 9.33238C13.2308 9.35501 13.0157 9.35501 12.5855 9.35501H9.17647C6.31759 9.35501 4 11.6726 4 14.5315C4 17.3904 6.31758 19.708 9.17647 19.708ZM9.29821 22.1742C9.17639 22.4348 9.17639 22.7709 9.17639 23.4431V24.8844C9.17639 26.3139 10.3352 27.4727 11.7646 27.4727C13.1941 27.4727 14.3529 26.3139 14.3529 24.8844V23.4431C14.3529 22.7709 14.3529 22.4348 14.231 22.1742C14.1026 21.8995 13.8817 21.6786 13.6069 21.5501C13.3464 21.4283 13.0103 21.4283 12.3381 21.4283H11.1912C10.519 21.4283 10.1829 21.4283 9.92236 21.5501C9.6476 21.6786 9.42669 21.8995 9.29821 22.1742Z" fill="#717579"/>
</svg>
