<svg width="17" height="16" viewBox="0 0 17 16" fill="none" xmlns="http://www.w3.org/2000/svg">
<path d="M8.5 1C10.3613 1 11.2918 1.00041 12.0449 1.24512C13.5671 1.73971 14.7603 2.93289 15.2549 4.45508C15.4996 5.20824 15.5 6.13874 15.5 8C15.5 9.86126 15.4996 10.7918 15.2549 11.5449C14.7603 13.0671 13.5671 14.2603 12.0449 14.7549C11.2918 14.9996 10.3613 15 8.5 15C6.63874 15 5.70824 14.9996 4.95508 14.7549C3.43289 14.2603 2.23971 13.0671 1.74512 11.5449C1.50041 10.7918 1.5 9.86126 1.5 8C1.5 6.13874 1.50041 5.20824 1.74512 4.45508C2.23971 2.93289 3.43289 1.73971 4.95508 1.24512C5.70824 1.00041 6.63874 1 8.5 1ZM13.0312 4.3623C12.6791 4.06894 12.1557 4.11663 11.8623 4.46875L7.44336 9.76953L5.08691 7.41309L5.02344 7.35645C4.69744 7.09064 4.21693 7.10924 3.91309 7.41309C3.60924 7.71693 3.59064 8.19744 3.85645 8.52344L3.91309 8.58691L6.91309 11.5869C7.07798 11.7518 7.30513 11.8397 7.53809 11.8291C7.77086 11.8184 7.98851 11.7103 8.1377 11.5312L13.1377 5.53125C13.4311 5.1791 13.3834 4.65574 13.0312 4.3623Z" fill="white"/>
</svg>
