<svg width="16" height="16" viewBox="0 0 16 16" fill="none" xmlns="http://www.w3.org/2000/svg">
<path d="M8 1C9.86126 1 10.7918 1.00041 11.5449 1.24512C13.0671 1.73971 14.2603 2.93289 14.7549 4.45508C14.9996 5.20824 15 6.13874 15 8C15 9.86126 14.9996 10.7918 14.7549 11.5449C14.2603 13.0671 13.0671 14.2603 11.5449 14.7549C10.7918 14.9996 9.86126 15 8 15C6.13874 15 5.20824 14.9996 4.45508 14.7549C2.93289 14.2603 1.73971 13.0671 1.24512 11.5449C1.00041 10.7918 1 9.86126 1 8C1 6.13874 1.00041 5.20824 1.24512 4.45508C1.73971 2.93289 2.93289 1.73971 4.45508 1.24512C5.20824 1.00041 6.13874 1 8 1ZM11.5869 4.41309C11.2628 4.08895 10.7372 4.08895 10.4131 4.41309L8 6.82617L5.58691 4.41309C5.26278 4.08895 4.73722 4.08895 4.41309 4.41309C4.08895 4.73722 4.08895 5.26278 4.41309 5.58691L6.82617 8L4.41309 10.4131C4.08895 10.7372 4.08895 11.2628 4.41309 11.5869C4.73722 11.911 5.26278 11.911 5.58691 11.5869L8 9.17383L10.4131 11.5869C10.7372 11.911 11.2628 11.911 11.5869 11.5869C11.911 11.2628 11.911 10.7372 11.5869 10.4131L9.17383 8L11.5869 5.58691C11.911 5.26278 11.911 4.73722 11.5869 4.41309Z" fill="black"/>
</svg>
