<svg width="24" height="24" viewBox="0 0 24 24" fill="none" xmlns="http://www.w3.org/2000/svg">
<path fill-rule="evenodd" clip-rule="evenodd" d="M7.70711 0.292893C8.09763 0.683417 8.09763 1.31658 7.70711 1.70711L6.41421 3H17C19.2091 3 21 4.79086 21 7V17C21 19.2091 19.2091 21 17 21H7C4.79086 21 3 19.2091 3 17V10C3 9.44772 3.44772 9 4 9C4.55228 9 5 9.44772 5 10V17C5 18.1046 5.89543 19 7 19H17C18.1046 19 19 18.1046 19 17V7C19 5.89543 18.1046 5 17 5H6.41421L7.70711 6.29289C8.09763 6.68342 8.09763 7.31658 7.70711 7.70711C7.31658 8.09763 6.68342 8.09763 6.29289 7.70711L3.29289 4.70711C3.10536 4.51957 3 4.26522 3 4C3 3.73478 3.10536 3.48043 3.29289 3.29289L6.29289 0.292893C6.68342 -0.0976311 7.31658 -0.0976311 7.70711 0.292893ZM15.7929 8.29289C16.1834 7.90237 16.8166 7.90237 17.2071 8.29289C17.5976 8.68342 17.5976 9.31658 17.2071 9.70711L11.2071 15.7071C10.8166 16.0976 10.1834 16.0976 9.79289 15.7071L7.29289 13.2071C6.90237 12.8166 6.90237 12.1834 7.29289 11.7929C7.68342 11.4024 8.31658 11.4024 8.70711 11.7929L10.5 13.5858L15.7929 8.29289Z" fill="black"/>
</svg>
