<svg width="16" height="16" viewBox="0 0 16 16" fill="none" xmlns="http://www.w3.org/2000/svg">
<path d="M8 1C9.86126 1 10.7918 1.00041 11.5449 1.24512C13.0671 1.73971 14.2603 2.93289 14.7549 4.45508C14.9996 5.20824 15 6.13874 15 8C15 9.86126 14.9996 10.7918 14.7549 11.5449C14.2603 13.0671 13.0671 14.2603 11.5449 14.7549C10.7918 14.9996 9.86126 15 8 15C6.13874 15 5.20824 14.9996 4.45508 14.7549C2.93289 14.2603 1.73971 13.0671 1.24512 11.5449C1.00041 10.7918 1 9.86126 1 8C1 6.13874 1.00041 5.20824 1.24512 4.45508C1.73971 2.93289 2.93289 1.73971 4.45508 1.24512C5.20824 1.00041 6.13874 1 8 1ZM8 3.66992C7.5416 3.66992 7.16992 4.0416 7.16992 4.5V7.16992H4.5C4.0416 7.16992 3.66992 7.5416 3.66992 8C3.66992 8.4584 4.0416 8.83008 4.5 8.83008H7.16992V11.5C7.16992 11.9584 7.5416 12.3301 8 12.3301C8.4584 12.3301 8.83008 11.9584 8.83008 11.5V8.83008H11.5C11.9584 8.83008 12.3301 8.4584 12.3301 8C12.3301 7.5416 11.9584 7.16992 11.5 7.16992H8.83008V4.5C8.83008 4.0416 8.4584 3.66992 8 3.66992Z" fill="black"/>
</svg>
