<svg width="240" height="240" viewBox="0 0 240 240" fill="none" xmlns="http://www.w3.org/2000/svg">
<path d="M173 27C195.091 27 213 44.9086 213 67V187C213 209.091 195.091 227 173 227H66L64.9678 226.987C43.6965 226.448 26.5515 209.304 26.0127 188.032L26 187V67C26 45.2537 43.3534 27.5602 64.9678 27.0127L66 27H77.0811C75.738 30.406 75 34.1168 75 38C75 41.1357 75.4816 44.1588 76.374 47H66C54.9543 47 46 55.9543 46 67V187C46 198.046 54.9543 207 66 207H173C184.046 207 193 198.046 193 187V67C193 55.9543 184.046 47 173 47H163.626C164.518 44.1588 165 41.1357 165 38C165 34.1168 164.262 30.406 162.919 27H173Z" fill="black"/>
<path d="M135 48V68H105V48H135ZM145 38C145 32.4772 140.523 28 135 28H105C99.4772 28 95 32.4772 95 38C95 43.5228 99.4772 48 105 48V68L104.226 67.9902C88.0149 67.5795 75 54.3096 75 38C75 21.4315 88.4315 8 105 8H135C151.569 8 165 21.4315 165 38C165 54.3096 151.985 67.5795 135.774 67.9902L135 68V48C140.523 48 145 43.5228 145 38Z" fill="black"/>
<path d="M105 97C105 93.6863 107.686 91 111 91H163C166.314 91 169 93.6863 169 97V101C169 104.314 166.314 107 163 107H111C107.686 107 105 104.314 105 101V97Z" fill="black"/>
<path d="M105 129C105 125.686 107.686 123 111 123H163C166.314 123 169 125.686 169 129V133C169 136.314 166.314 139 163 139H111C107.686 139 105 136.314 105 133V129Z" fill="black"/>
<path d="M105 161C105 157.686 107.686 155 111 155H151C154.314 155 157 157.686 157 161V165C157 168.314 154.314 171 151 171H111C107.686 171 105 168.314 105 165V161Z" fill="black"/>
<path d="M71 97C71 93.6863 73.6863 91 77 91H85C88.3137 91 91 93.6863 91 97V101C91 104.314 88.3137 107 85 107H77C73.6863 107 71 104.314 71 101V97Z" fill="black"/>
<path d="M71 129C71 125.686 73.6863 123 77 123H85C88.3137 123 91 125.686 91 129V133C91 136.314 88.3137 139 85 139H77C73.6863 139 71 136.314 71 133V129Z" fill="black"/>
<path d="M71 161C71 157.686 73.6863 155 77 155H85C88.3137 155 91 157.686 91 161V165C91 168.314 88.3137 171 85 171H77C73.6863 171 71 168.314 71 165V161Z" fill="black"/>
</svg>
