<svg width="24" height="24" viewBox="0 0 24 24" fill="none" xmlns="http://www.w3.org/2000/svg">
<path fill-rule="evenodd" clip-rule="evenodd" d="M12 22C17.5228 22 22 17.5228 22 12C22 6.47715 17.5228 2 12 2C6.47715 2 2 6.47715 2 12C2 17.5228 6.47715 22 12 22ZM13 5.88889C13 5.3366 12.5523 4.88889 12 4.88889C11.4477 4.88889 11 5.3366 11 5.88889V11.9999C11 12.2652 11.1054 12.5195 11.2929 12.707L15.1818 16.596C15.5723 16.9865 16.2055 16.9865 16.596 16.596C16.9865 16.2055 16.9865 15.5723 16.596 15.1818L13 11.5857V5.88889Z" fill="black"/>
</svg>
