<svg xmlns="http://www.w3.org/2000/svg" width="24" height="24" viewBox="0 0 24 24">
  <path d="M12,4 C15.7502822,4 18.7923804,7.06411785 19.0344671,10.9202651 L19.038,11 L19.7,11 C22.0215196,11 23.8873385,12.9064806 23.9950843,15.2827238 L24,15.5 C24,17.9033943 22.2024611,19.880563 19.9097556,19.994788 L19.7,20 L17,20 C16.4477153,20 16,19.5522847 16,19 C16,18.4871642 16.3860402,18.0644928 16.8833789,18.0067277 L17,18 L19.7,18 C20.9601313,18 22,16.8971089 22,15.5 C22,14.1611039 21.0449817,13.0924184 19.8563099,13.0056857 L19.7,13 L18.05,13 C17.5371642,13 17.1144928,12.6139598 17.0567277,12.1166211 L17.05,12 L17.05,11.4166667 C17.05,8.40955773 14.7781313,6 12,6 C9.74137129,6 7.7716811,7.60632188 7.1465777,9.92678147 C7.03966886,10.32364 6.70278375,10.6104129 6.3027408,10.6592736 L6.181,10.6666667 L5.4,10.6666667 C3.53486872,10.6666667 2,12.2945577 2,14.3333333 C2,16.3041497 3.43424955,17.8910174 5.21463236,17.9946188 L5.4,18 L7,18 C7.55228475,18 8,18.4477153 8,19 C8,19.5128358 7.61395981,19.9355072 7.11662113,19.9932723 L7,20 L5.4,20 C2.40313128,20 0,17.4512244 0,14.3333333 C0,11.2896778 2.29005878,8.78835956 5.18697213,8.6709746 L5.455,8.666 L5.45964147,8.65445546 C6.48598674,5.96944274 8.92098236,4.11182323 11.7424653,4.00487417 L12,4 Z M12,10 C12.5128358,10 12.9355072,10.3860402 12.9932723,10.8833789 L13,11 L13,16.584 L14.2928932,15.2928932 C14.6533772,14.9324093 15.2206082,14.9046797 15.6128994,15.2097046 L15.7071068,15.2928932 C16.0675907,15.6533772 16.0953203,16.2206082 15.7902954,16.6128994 L15.7071068,16.7071068 L12.7071068,19.7071068 C12.3466228,20.0675907 11.7793918,20.0953203 11.3871006,19.7902954 L11.2928932,19.7071068 L8.29289322,16.7071068 C7.90236893,16.3165825 7.90236893,15.6834175 8.29289322,15.2928932 C8.65337718,14.9324093 9.22060824,14.9046797 9.61289944,15.2097046 L9.70710678,15.2928932 L11,16.584 L11,11 C11,10.4477153 11.4477153,10 12,10 Z"/>
</svg>
