<svg xmlns="http://www.w3.org/2000/svg" width="24" height="24" viewBox="0 0 24 24">
  <path d="M12,1 C5.9660211,1 1,5.50465853 1,11.1638652 L1.00521073,11.4895053 C1.09194663,14.1898085 2.25877079,16.5527995 4.30016266,18.3375001 L4.449,18.463 L4.37662256,18.5630032 L4.20980798,18.7612979 L3.74946932,19.2754339 C3.45335939,19.624283 3.27270046,19.9050297 3.17122839,20.3940236 C2.94570375,21.480827 3.55392818,22.4102963 4.4526111,22.7864241 C5.43392109,23.197134 7.41874226,23.0165881 8.7163329,22.2904803 L9.01456491,22.117174 C9.39705143,21.8860543 9.72300781,21.652606 10.0415678,21.3910386 L10.265,21.201 L10.6575367,21.2527249 C11.1006269,21.3025647 11.5487234,21.3277304 12,21.3277304 C18.0339789,21.3277304 23,16.8230718 23,11.1638652 C23,5.50465853 18.0339789,1 12,1 Z M12,3 C16.9705627,3 21,6.65508694 21,11.1638652 C21,15.6726434 16.9705627,19.3277304 12,19.3277304 C11.2379351,19.3277304 10.497992,19.2418151 9.7913003,19.0800801 C9.70691582,19.0607677 9.61531687,19.1093908 9.49550171,19.2066195 L9.29199161,19.3865004 L9.0304059,19.6247921 L8.81597277,19.8089444 L8.56406064,20.0083182 C8.3372212,20.1796121 8.06647962,20.3622871 7.73968211,20.545157 C6.77978962,21.0822952 5.4498528,21.0356974 5.22477364,20.9414945 C5.07105429,20.877158 5.11112029,20.7675509 5.25262286,20.5955325 L5.44973684,20.374778 L5.61426506,20.1956747 L5.79518773,19.9891498 C5.91934374,19.8419688 6.04865758,19.6754355 6.17158568,19.4874072 C6.75549411,18.5942725 6.51421625,17.5309826 6.25225682,17.3396169 C4.20381566,15.8431972 3,13.7353624 3,11.1638652 C3,6.65508694 7.02943725,3 12,3 Z"/>
</svg>
