<svg xmlns="http://www.w3.org/2000/svg" width="24" height="24" viewBox="0 0 24 24">
  <path fill-rule="evenodd" d="M12,20.1419226 C17.5228475,20.1419226 22,16.0807149 22,11.0709613 C22,6.06120771 17.5228475,2 12,2 C6.4771525,2 2,6.06120771 2,11.0709613 C2,13.9281805 3.33757296,16.2702191 5.61361869,17.9329077 C5.90468472,18.1455362 6.17277123,19.3269694 5.52398408,20.3193413 C5.40040558,20.5083645 5.27101892,20.6778369 5.14532361,20.8295218 L4.96073662,21.0439289 L4.96073662,21.0439289 L4.57024915,21.4718939 C4.361041,21.7089644 4.27880486,21.8541478 4.47197071,21.9349939 C4.72205867,22.0396638 6.19976625,22.0914391 7.26631345,21.4946189 C7.6641539,21.2719947 7.98722486,21.0496304 8.25328812,20.8438738 L8.50100665,20.6442587 L8.50100665,20.6442587 L8.71466713,20.4593484 L8.71466713,20.4593484 L9.12571691,20.0852467 L9.12571691,20.0852467 L9.25125732,19.980412 C9.36799175,19.8904981 9.46028178,19.8471634 9.54588922,19.8667557 C10.3311022,20.0464612 11.1532612,20.1419226 12,20.1419226 Z"/>
</svg>
