<svg width="24" height="24" viewBox="0 0 24 24" fill="none" xmlns="http://www.w3.org/2000/svg">
<path fill-rule="evenodd" clip-rule="evenodd" d="M7 2C7 1.44772 6.55228 1 6 1C5.44772 1 5 1.44772 5 2V5H2C1.44772 5 1 5.44772 1 6C1 6.55228 1.44772 7 2 7H5V16C5 17.6569 6.34315 19 8 19H17V22C17 22.5523 17.4477 23 18 23C18.5523 23 19 22.5523 19 22V19H22C22.5523 19 23 18.5523 23 18C23 17.4477 22.5523 17 22 17H18H8C7.44772 17 7 16.5523 7 16V6V2ZM10 5C9.44771 5 9 5.44772 9 6C9 6.55228 9.44771 7 10 7H16C16.5523 7 17 7.44772 17 8V14C17 14.5523 17.4477 15 18 15C18.5523 15 19 14.5523 19 14V8C19 6.34315 17.6569 5 16 5H10Z" fill="white"/>
</svg>
