<svg width="24" height="24" viewBox="0 0 24 24" fill="none" xmlns="http://www.w3.org/2000/svg">
<path fill-rule="evenodd" clip-rule="evenodd" d="M2.70711 1.29289C2.31658 0.902369 1.68342 0.902369 1.29289 1.29289C0.902369 1.68342 0.902369 2.31658 1.29289 2.70711L11.2929 12.7071L21.2929 22.7071C21.6834 23.0976 22.3166 23.0976 22.7071 22.7071C23.0976 22.3166 23.0976 21.6834 22.7071 21.2929L21.9262 20.512C22.3766 20.0308 22.7602 19.486 23.0631 18.8915C23.4779 18.0773 23.6598 17.1776 23.7474 16.0979C23.8333 15.0386 23.8333 13.72 23.8333 12.0442V12V11.9558C23.8333 10.28 23.8333 8.96144 23.7474 7.90207C23.6598 6.82238 23.4779 5.92266 23.0631 5.10847C22.3856 3.77879 21.3045 2.69773 19.9748 2.02022C19.1615 1.60581 18.2661 1.42368 17.1926 1.33598C16.1402 1.24999 14.8323 1.24999 13.1711 1.25H13.1711H13.1266H10.8733H10.8288H10.8288C9.16765 1.24999 7.85971 1.24999 6.80729 1.33597C5.73382 1.42368 4.83843 1.60581 4.02509 2.02022C3.89557 2.08621 3.76841 2.15604 3.64376 2.22954L2.70711 1.29289ZM5.12613 3.71192L12.1807 10.7665V9.29166C12.1807 8.79431 12.5838 8.39114 13.0812 8.39114C13.5785 8.39114 13.9817 8.79431 13.9817 9.29166V12.5675L15.7036 14.2894V12V10.1583L15.7036 10.1353V10.1352V10.1352V10.1352V10.1352V10.1352V10.1352C15.7036 10.004 15.7035 9.85715 15.714 9.72923C15.7259 9.58321 15.7558 9.38462 15.8608 9.17858C15.9991 8.90722 16.2197 8.68659 16.4911 8.54832C16.6971 8.44334 16.8957 8.41344 17.0417 8.40151C17.1696 8.39105 17.3166 8.39109 17.4477 8.39113L17.4708 8.39114H19.3125C19.8098 8.39114 20.213 8.79431 20.213 9.29166C20.213 9.789 19.8098 10.1922 19.3125 10.1922H17.5046V11.0995H19.3125C19.8098 11.0995 20.213 11.5027 20.213 12C20.213 12.4974 19.8098 12.9005 19.3125 12.9005H17.5046V14.7083C17.5046 15.082 17.2771 15.4025 16.953 15.5388L20.5109 19.0967C20.8145 18.7638 21.074 18.3899 21.2811 17.9836C21.5274 17.5 21.6762 16.8942 21.7539 15.9362C21.8325 14.9672 21.8333 13.7297 21.8333 12C21.8333 10.2703 21.8325 9.03281 21.7539 8.06378C21.6762 7.10576 21.5274 6.49998 21.2811 6.01645C20.7953 5.06309 20.0202 4.28799 19.0668 3.80223C18.5824 3.55542 17.9796 3.40693 17.0298 3.32933C16.0683 3.25078 14.842 3.25 13.1266 3.25H10.8733C9.15797 3.25 7.93161 3.25078 6.97015 3.32933C6.14239 3.39696 5.57811 3.51844 5.12613 3.71192ZM17.6365 20.605L19.2982 22.2667C18.6664 22.4854 17.9771 22.5999 17.1926 22.664C16.1402 22.75 14.8323 22.75 13.1711 22.75H13.1266H10.8733H10.8288C9.16764 22.75 7.85971 22.75 6.80728 22.664C5.73382 22.5763 4.83843 22.3942 4.02509 21.9798C2.69541 21.3023 1.61435 20.2212 0.936847 18.8915C0.521993 18.0773 0.340142 17.1776 0.252554 16.0979C0.166615 15.0386 0.16662 13.7201 0.166626 12.0443V12.0443V12V11.9557V11.9557C0.16662 10.2799 0.166615 8.96143 0.252554 7.90207C0.340142 6.82238 0.521993 5.92266 0.936847 5.10847C1.07045 4.84627 1.21974 4.59373 1.38353 4.35205L2.83426 5.80278C2.79416 5.87295 2.75568 5.94419 2.71886 6.01645C2.47249 6.49998 2.32372 7.10576 2.24601 8.06378C2.16739 9.03281 2.16663 10.2703 2.16663 12C2.16663 13.7297 2.16739 14.9672 2.24601 15.9362C2.32372 16.8942 2.47249 17.5 2.71886 17.9836C3.20462 18.9369 3.97972 19.712 4.93307 20.1978C5.41747 20.4446 6.02036 20.5931 6.97015 20.6707C7.93161 20.7492 9.15796 20.75 10.8733 20.75H13.1266C14.842 20.75 16.0683 20.7492 17.0298 20.6707C17.2497 20.6527 17.451 20.6309 17.6365 20.605ZM3.78695 12C3.78695 10.5815 4.60538 9.35409 5.79579 8.76432L7.23106 10.1996C6.30984 10.2828 5.58799 11.0571 5.58799 12C5.58799 12.9984 6.39738 13.8078 7.3958 13.8078C7.99911 13.8078 8.57589 13.4809 8.83154 12.9005H8.47914C7.98179 12.9005 7.57862 12.4973 7.57862 12C7.57862 11.607 7.83034 11.2728 8.18135 11.1499L10.5334 13.5019C10.0005 14.8738 8.67046 15.6088 7.3958 15.6088C5.40269 15.6088 3.78695 13.9931 3.78695 12Z" fill="white"/>
</svg>
