<svg width="24" height="24" viewBox="0 0 24 24" fill="none" xmlns="http://www.w3.org/2000/svg">
<path fill-rule="evenodd" clip-rule="evenodd" d="M3.70711 2.29289C3.31658 1.90237 2.68342 1.90237 2.29289 2.29289C1.90237 2.68342 1.90237 3.31658 2.29289 3.70711L11.2929 12.7071L20.2929 21.7071C20.6834 22.0976 21.3166 22.0976 21.7071 21.7071C22.0976 21.3166 22.0976 20.6834 21.7071 20.2929L17.8242 16.41L17.4245 14.7013L21.2549 11.3922C22.2599 10.524 21.7241 8.87437 20.4008 8.76241L15.3541 8.33544L13.3805 3.6916C12.8629 2.47389 11.137 2.4739 10.6195 3.6916L8.97504 7.56083L3.70711 2.29289ZM10.5 9.08583L12.7071 11.2929L15.4495 14.0352C15.534 13.7881 15.6831 13.5627 15.8881 13.3856L19.0487 10.6552L14.8854 10.3029C14.3314 10.2561 13.8488 9.90663 13.6313 9.39498L12 5.55661L10.5 9.08583ZM15.6977 18.5248L18.1853 21.0124C17.731 21.4706 16.9927 21.6385 16.3409 21.2463L12 18.6335L7.65905 21.2463C6.52262 21.9303 5.12282 20.911 5.42496 19.6194L6.57548 14.7013L2.74503 11.3922C1.74006 10.524 2.27585 8.87437 3.59917 8.76241L5.75307 8.58018L7.60365 10.4308L4.95127 10.6552L8.11183 13.3856C8.53399 13.7503 8.71887 14.3191 8.5918 14.8623L7.64207 18.9222L11.2265 16.7648C11.7024 16.4783 12.2976 16.4783 12.7735 16.7648L15.6977 18.5248Z" fill="white"/>
</svg>
