<svg width="24" height="24" viewBox="0 0 24 24" fill="none" xmlns="http://www.w3.org/2000/svg">
<path fill-rule="evenodd" clip-rule="evenodd" d="M3 12C3 7.02944 7.02944 3 12 3C16.9706 3 21 7.02944 21 12C21 16.9706 16.9706 21 12 21C7.02944 21 3 16.9706 3 12ZM12 1C5.92487 1 1 5.92487 1 12C1 18.0751 5.92487 23 12 23C18.0751 23 23 18.0751 23 12C23 5.92487 18.0751 1 12 1ZM7.29289 7.29289C7.68342 6.90237 8.31658 6.90237 8.70711 7.29289L12 10.5858L15.2929 7.29289C15.6834 6.90237 16.3166 6.90237 16.7071 7.29289C17.0976 7.68342 17.0976 8.31658 16.7071 8.70711L13.4142 12L16.7071 15.2929C17.0976 15.6834 17.0976 16.3166 16.7071 16.7071C16.3166 17.0976 15.6834 17.0976 15.2929 16.7071L12 13.4142L8.70711 16.7071C8.31658 17.0976 7.68342 17.0976 7.29289 16.7071C6.90237 16.3166 6.90237 15.6834 7.29289 15.2929L10.5858 12L7.29289 8.70711C6.90237 8.31658 6.90237 7.68342 7.29289 7.29289Z" fill="black"/>
</svg>
