<svg width="24" height="24" viewBox="0 0 24 24" fill="none" xmlns="http://www.w3.org/2000/svg">
<path d="M2.29289 2.29289C2.68342 1.90237 3.31643 1.90237 3.70696 2.29289L21.707 20.2929C22.0975 20.6834 22.0975 21.3164 21.707 21.707C21.3164 22.0975 20.6834 22.0975 20.2929 21.707L2.29289 3.70696C1.90237 3.31643 1.90237 2.68342 2.29289 2.29289Z" fill="black"/>
<path d="M3.93652 6.76367C3.45503 7.06109 3.13386 7.59264 3.13379 8.2002C3.13394 8.9228 3.58822 9.53779 4.22656 9.77832C4.42281 9.85241 4.59155 10.0043 4.63281 10.21L6.10449 17.5635C6.34149 18.7474 7.38143 19.6006 8.58887 19.6006H15.4121C15.8058 19.6005 16.1806 19.5071 16.5166 19.3438L17.9766 20.8037C17.2421 21.3082 16.3561 21.6005 15.4121 21.6006H8.58887C6.42771 21.6006 4.56758 20.0741 4.14355 17.9561L2.80957 11.2881C1.80365 10.6321 1.13294 9.49771 1.13281 8.2002L1.1377 8.00977C1.19274 6.92841 1.71413 5.96994 2.50391 5.33105L3.93652 6.76367ZM12 2.40039C14.0359 2.40065 15.689 4.05118 15.6895 6.08887C15.6894 6.73946 15.5184 7.35126 15.2227 7.88184L15.4951 8.39258C15.4918 8.32893 15.4893 8.26458 15.4893 8.2002L15.4941 8.00977C15.5933 6.06111 17.2048 4.51208 19.1777 4.51172C21.1498 4.51197 22.7631 6.06013 22.8623 8.00977L22.8672 8.2002C22.8671 9.49865 22.1957 10.6325 21.1895 11.2881L19.8574 17.9551V17.9561C19.6883 18.801 19.2885 19.5502 18.7344 20.1475L17.3193 18.7324C17.6027 18.4082 17.8072 18.0097 17.8965 17.5635L19.3662 10.2109C19.4074 10.0049 19.5759 9.85333 19.7725 9.7793C20.4114 9.53907 20.867 8.92316 20.8672 8.2002C20.8671 7.2677 20.1102 6.51198 19.1777 6.51172C18.2452 6.51189 17.4894 7.26764 17.4893 8.2002C17.4893 8.49243 17.5643 8.76736 17.6953 9.00684C17.8178 9.23135 17.8349 9.51752 17.6699 9.71289L15.8535 11.8604L15.8086 11.9072C15.5888 12.1084 15.2381 12.0708 15.0654 11.8281L15.0312 11.7725L14.4395 10.6641L13.0303 8.01953C12.9005 7.77606 12.9992 7.4773 13.1943 7.28223C13.4998 6.97678 13.6894 6.55488 13.6895 6.08887C13.6892 5.15646 12.9324 4.40065 12 4.40039C11.0675 4.40056 10.3117 5.1564 10.3115 6.08887C10.3116 6.55472 10.5005 6.97673 10.8057 7.28223C11.0004 7.47739 11.0994 7.77627 10.9697 8.01953L9.45215 10.8652L6.48145 7.89453C6.35555 7.20688 5.8148 6.66561 5.12695 6.54004L3.3877 4.80078C3.82856 4.61451 4.31364 4.51181 4.82227 4.51172C6.79429 4.51197 8.40759 6.06013 8.50684 8.00977L8.51172 8.2002C8.51171 8.26427 8.50816 8.32827 8.50488 8.3916L8.77637 7.88184C8.48086 7.35118 8.31159 6.73885 8.31152 6.08887L8.31641 5.89844C8.41569 3.95013 10.0269 2.40075 12 2.40039ZM8.95996 11.7871L8.93555 11.8281C8.76312 12.0711 8.41236 12.108 8.19238 11.9072L8.14648 11.8604L6.33008 9.71387C6.18478 9.54216 6.17915 9.29936 6.26367 9.09082L8.95996 11.7871Z" fill="black"/>
</svg>
