<svg width="24" height="24" viewBox="0 0 24 24" fill="none" xmlns="http://www.w3.org/2000/svg">
<path fill-rule="evenodd" clip-rule="evenodd" d="M15.6885 6.08838C15.6885 6.73912 15.5175 7.35067 15.2217 7.88135L15.4941 8.39209L15.4883 8.19971L15.4932 8.00928C15.5923 6.06062 17.2038 4.51159 19.1768 4.51123L19.3662 4.51611C21.3143 4.61472 22.866 6.225 22.8662 8.19971C22.8662 9.49838 22.1949 10.6319 21.1885 11.2876L19.8564 17.9556C19.4326 20.0739 17.5725 21.6001 15.4111 21.6001H8.58789C6.4266 21.6001 4.56645 20.074 4.14258 17.9556L2.80762 11.2876C1.87875 10.6815 1.23708 9.66737 1.14453 8.49365L1.13281 8.19971L1.1377 8.00928C1.23691 6.06063 2.8484 4.51159 4.82129 4.51123C6.85726 4.51123 8.51051 6.16137 8.51074 8.19971C8.51074 8.26391 8.50719 8.32766 8.50391 8.39111L8.77539 7.88135C8.50875 7.40243 8.34497 6.85725 8.31543 6.27783L8.31055 6.08838L8.31543 5.89795C8.41473 3.94964 10.0259 2.40027 11.999 2.3999L12.1885 2.40479C14.1367 2.5034 15.688 4.11414 15.6885 6.08838ZM13.6885 6.08838C13.6883 5.15581 12.9316 4.39991 11.999 4.3999C11.0665 4.40007 10.3107 5.15592 10.3105 6.08838C10.3105 6.55437 10.4995 6.97617 10.8047 7.28174C10.9996 7.4769 11.0986 7.7756 10.9688 8.01904L8.96875 11.772L8.93457 11.8276C8.76203 12.0708 8.41137 12.108 8.19141 11.9067L8.14551 11.8599L6.3291 9.71338C6.16359 9.51777 6.18153 9.23104 6.30469 9.00635C6.43596 8.76683 6.51074 8.49213 6.51074 8.19971C6.51064 7.26705 5.75397 6.51123 4.82129 6.51123C3.88875 6.5114 3.13292 7.26715 3.13281 8.19971C3.13281 8.92247 3.58715 9.53726 4.22559 9.77783C4.42207 9.85184 4.59054 10.0037 4.63184 10.2095L6.10352 17.563C6.32553 18.6731 7.25327 19.4922 8.36328 19.5903L8.58789 19.6001H15.4111L15.6357 19.5903C16.6718 19.4987 17.549 18.7789 17.8418 17.7808L17.8955 17.563L19.3652 10.2104C19.4065 10.0044 19.5749 9.85284 19.7715 9.77881C20.4107 9.53862 20.8662 8.92295 20.8662 8.19971C20.8661 7.26706 20.1094 6.51126 19.1768 6.51123C18.2443 6.5114 17.4884 7.26716 17.4883 8.19971C17.4883 8.49208 17.5633 8.76678 17.6943 9.00635C17.8171 9.23095 17.8341 9.51689 17.6689 9.7124L15.8525 11.8599L15.8076 11.9067C15.5877 12.108 15.237 12.0707 15.0645 11.8276L15.0303 11.772L13.0293 8.01904C12.8995 7.77558 12.9982 7.47682 13.1934 7.28174C13.499 6.97621 13.6885 6.55457 13.6885 6.08838Z" fill="black"/>
</svg>
