<svg width="23" height="20" viewBox="0 0 23 20" fill="none" xmlns="http://www.w3.org/2000/svg">
<path fill-rule="evenodd" clip-rule="evenodd" d="M12.66 4.47424C13.325 4.11884 13.7775 3.41782 13.7775 2.61111C13.7775 1.44518 12.8323 0.5 11.6664 0.5C10.5004 0.5 9.5552 1.44518 9.5552 2.61111C9.5552 3.41779 10.0077 4.1188 10.6727 4.47421L7.4441 10.5278L4.21616 6.7129C4.58096 6.3335 4.80523 5.8179 4.80523 5.25C4.80523 4.08407 3.86005 3.13889 2.69412 3.13889C1.52818 3.13889 0.583008 4.08407 0.583008 5.25C0.583008 6.3066 1.35924 7.1819 2.37256 7.3368L3.78554 14.4017H19.5471L20.9601 7.3368C21.9734 7.182 22.7497 6.3066 22.7497 5.25C22.7497 4.08407 21.8045 3.13889 20.6386 3.13889C19.4727 3.13889 18.5275 4.08407 18.5275 5.25C18.5275 5.8179 18.7517 6.3335 19.1165 6.7129L15.8885 10.5278L12.66 4.47424ZM19.1966 16.1539H4.13598L4.29608 16.9544C4.59211 18.4345 5.89176 19.5 7.4012 19.5H15.9314C17.4409 19.5 18.7405 18.4345 19.0366 16.9544L19.1966 16.1539Z" fill="black"/>
</svg>
