<svg width="30" height="30" viewBox="0 0 30 30" fill="none" xmlns="http://www.w3.org/2000/svg">
<path d="M14.9996 2.94971C16.3701 2.95001 17.4818 4.06137 17.4818 5.43192C17.4817 6.38022 16.9489 7.20358 16.1672 7.62136L19.964 14.7385L23.7585 10.2517C23.3305 9.80575 23.0662 9.20106 23.0662 8.53411C23.0662 7.16338 24.1776 6.05193 25.5484 6.0519C26.9188 6.05226 28.0306 7.16359 28.0306 8.53411C28.0306 9.77606 27.1171 10.8017 25.9262 10.9842L24.2648 19.293H19.4853L21.545 21.3527H23.8527L23.6644 22.2942C23.6021 22.6055 23.5008 22.9005 23.3682 23.1759L25.2361 25.0439C25.6952 25.503 25.6952 26.2473 25.2361 26.7064C24.7771 27.1655 24.0328 27.1654 23.5737 26.7064L2.41175 5.54443C1.95262 5.08531 1.95262 4.3411 2.41175 3.88197C2.87087 3.42285 3.61508 3.42285 4.07421 3.88197L11.7367 11.5444L13.8308 7.62136C13.0496 7.20338 12.5187 6.37977 12.5185 5.43192C12.5185 4.06131 13.629 2.94992 14.9996 2.94971Z" fill="black"/>
<path d="M20.4623 25.2563C20.3151 25.2742 20.166 25.2873 20.0145 25.2873H9.98582C8.21117 25.2873 6.68291 24.0343 6.33484 22.2942L6.14655 21.3527H16.5587L20.4623 25.2563Z" fill="black"/>
<path d="M14.499 19.293H5.73437L4.07306 10.9842C2.88227 10.8016 1.96973 9.77596 1.96973 8.53411C1.96973 8.03066 2.11967 7.56257 2.37731 7.1713L14.499 19.293Z" fill="black"/>
</svg>
