<svg width="25" height="20" viewBox="0 0 25 20" fill="none" xmlns="http://www.w3.org/2000/svg">
<path d="M12.4355 0.393555C13.5934 0.393671 14.5322 1.33241 14.5322 2.49023C14.5322 2.84595 14.4424 3.18011 14.2854 3.47302C14.1504 3.72465 14.1031 4.02776 14.2337 4.28169L16.3994 8.49414C16.7312 9.13917 17.6099 9.24343 18.084 8.69434L20.0115 6.46182C20.1876 6.25784 20.2204 5.97239 20.166 5.70846C20.1379 5.57207 20.1231 5.43085 20.123 5.28613C20.123 4.12818 21.0618 3.18945 22.2197 3.18945C23.3777 3.18948 24.3164 4.12819 24.3164 5.28613C24.3163 6.15877 23.7827 6.90459 23.0242 7.21948C22.7616 7.32851 22.5331 7.53119 22.4717 7.80884L20.251 17.8516C20.0953 18.5546 19.473 19.0547 18.7529 19.0547H6.11914C5.3991 19.0547 4.77676 18.5545 4.62109 17.8516L2.39947 7.80989C2.33803 7.53221 2.10943 7.32955 1.84677 7.22049C1.08817 6.9055 0.554762 6.15895 0.554688 5.28613C0.554688 4.12818 1.49341 3.18945 2.65137 3.18945C3.80914 3.18967 4.74805 4.12831 4.74805 5.28613C4.74803 5.43067 4.73294 5.57163 4.70461 5.70777C4.64971 5.97153 4.68244 6.25681 4.8585 6.46072L6.78711 8.69434C7.2612 9.24347 8.14085 9.13924 8.47266 8.49414L10.6364 4.28384C10.767 4.02981 10.7195 3.72657 10.5849 3.47468C10.428 3.18124 10.3389 2.84629 10.3389 2.49023C10.3389 1.33234 11.2776 0.393555 12.4355 0.393555Z" fill="white"/>
</svg>
