<svg width="24" height="24" viewBox="0 0 24 24" fill="none" xmlns="http://www.w3.org/2000/svg">
<path fill-rule="evenodd" clip-rule="evenodd" d="M4.47941 2C4.63282 2 4.75718 2.1198 4.75719 2.26757V2.41667C4.75719 3.33714 5.66286 4.21045 6.58333 4.21045H6.70847C6.86948 4.21043 7 4.33616 7 4.49126C7 4.64634 6.86949 4.77206 6.70849 4.77206H6.58333C5.66286 4.77206 4.75719 5.66286 4.75719 6.58333V6.73243C4.75718 6.8802 4.63282 7 4.47941 7C4.326 7 4.20164 6.8802 4.20163 6.73243V6.58333C4.20163 5.66286 3.33714 4.77206 2.41667 4.77206H2.29151C2.13051 4.77206 2 4.64634 2 4.49126C2 4.33616 2.13052 4.21043 2.29153 4.21045H2.41667C3.33714 4.21045 4.20163 3.33714 4.20163 2.41667V2.26758C4.20163 2.1198 4.326 2 4.47941 2ZM8.48765 6C8.5797 6 8.65433 6.07189 8.65431 6.16056V6.25C8.65431 6.80228 9.19772 7.32627 9.75 7.32627H9.82506C9.92168 7.32624 10 7.40169 10 7.49475C10 7.5878 9.92169 7.66323 9.82509 7.66323H9.75C9.19772 7.66323 8.65431 8.19772 8.65431 8.75V8.83944C8.65433 8.92811 8.5797 9 8.48765 9C8.39559 9 8.32096 8.92811 8.32098 8.83944V8.75C8.32098 8.19772 7.80228 7.66323 7.25 7.66323H7.17491C7.07831 7.66323 7 7.5878 7 7.49475C7 7.4017 7.07831 7.32627 7.17491 7.32627H7.25C7.80228 7.32627 8.32098 6.80228 8.32098 6.25V6.16055C8.32098 6.07188 8.3956 6 8.48765 6ZM13.9973 2.51702C14.6088 1.84095 15.4925 1.95092 16.059 2.16776L16.0667 2.17073C19.8187 3.64231 22.25 7.55613 22.25 11.8517C22.25 17.6578 17.9071 22 11.9053 22C7.62593 22 4.12758 19.826 2.46167 16.13C2.1982 15.556 2.08009 14.6722 2.73015 14.0612L2.73285 14.0587C3.30899 13.5212 4.08086 13.6135 4.55913 13.7824C4.57017 13.7863 4.58114 13.7904 4.59204 13.7947C5.32626 14.0833 6.22453 14.242 7.30863 14.242C9.55484 14.242 11.2988 13.5464 12.4761 12.401C13.6505 11.2582 14.3555 9.57634 14.3555 7.41752C14.3555 6.14123 14.1047 5.01383 13.8671 4.54083L13.8619 4.5305C13.6047 4.00338 13.4433 3.21203 13.9556 2.56628C13.969 2.54941 13.9829 2.53298 13.9973 2.51702Z" fill="black"></path>
</svg>