<svg width="24" height="24" viewBox="0 0 24 24" fill="none" xmlns="http://www.w3.org/2000/svg">
<path fill-rule="evenodd" clip-rule="evenodd" d="M11.9999 1.88892C7.7044 1.88892 4.22217 5.37115 4.22217 9.6667V18.8747C4.22217 19.4067 4.22217 19.6727 4.30029 19.8336C4.45008 20.1421 4.78423 20.316 5.12285 20.2618C5.29945 20.2336 5.51735 20.0811 5.95316 19.776C6.18918 19.6108 6.30719 19.5282 6.42584 19.4922C6.65127 19.4238 6.89554 19.4612 7.09011 19.5941C7.19252 19.664 7.28035 19.7781 7.45601 20.0065L8.54321 21.4198C8.84168 21.8079 8.99092 22.0019 9.17732 22.0818C9.34099 22.1519 9.52377 22.1638 9.69514 22.1154C9.89031 22.0603 10.0634 21.8872 10.4095 21.5411L11.12 20.8306C11.428 20.5226 11.582 20.3686 11.7596 20.3109C11.9158 20.2601 12.0841 20.2601 12.2403 20.3109C12.4179 20.3686 12.5719 20.5226 12.8799 20.8306L13.5904 21.5411C13.9365 21.8872 14.1096 22.0603 14.3048 22.1154C14.4761 22.1638 14.6589 22.1519 14.8226 22.0818C15.009 22.0019 15.1582 21.8079 15.4567 21.4198L16.5439 20.0065C16.7195 19.7781 16.8074 19.664 16.9098 19.5941C17.1044 19.4612 17.3486 19.4238 17.5741 19.4922C17.6927 19.5282 17.8107 19.6108 18.0467 19.776C18.4825 20.0811 18.7004 20.2336 18.877 20.2618C19.2157 20.316 19.5498 20.1421 19.6996 19.8336C19.7777 19.6727 19.7777 19.4067 19.7777 18.8747V9.66669C19.7777 5.37114 16.2955 1.88892 11.9999 1.88892ZM16.6667 9.6667C16.6667 10.5258 15.9703 11.2223 15.1112 11.2223C14.2521 11.2223 13.5556 10.5258 13.5556 9.6667C13.5556 8.80759 14.2521 8.11114 15.1112 8.11114C15.9703 8.11114 16.6667 8.80759 16.6667 9.6667ZM10.4444 9.6667C10.4444 10.5258 9.748 11.2223 8.88889 11.2223C8.02978 11.2223 7.33333 10.5258 7.33333 9.6667C7.33333 8.80759 8.02978 8.11115 8.88889 8.11115C9.748 8.11115 10.4444 8.80759 10.4444 9.6667Z" fill="black"/>
</svg>
