<svg width="24" height="24" viewBox="0 0 24 24" fill="none" xmlns="http://www.w3.org/2000/svg">
<path fill-rule="evenodd" clip-rule="evenodd" d="M10 2C9.73478 2 9.48043 2.10536 9.29289 2.29289L8.58579 3H4.5C3.94772 3 3.5 3.44772 3.5 4C3.5 4.55228 3.94772 5 4.5 5H9H15H19.5C20.0523 5 20.5 4.55228 20.5 4C20.5 3.44772 20.0523 3 19.5 3H15.4142L14.7071 2.29289C14.5196 2.10536 14.2652 2 14 2H10ZM4.79289 6.79289C4.98043 6.60536 5.23478 6.5 5.5 6.5H18.5C19.0523 6.5 19.5 6.94772 19.5 7.5V16.2V16.2413C19.5 17.0463 19.5 17.7106 19.4558 18.2518C19.4099 18.8139 19.3113 19.3306 19.064 19.816C18.6805 20.5686 18.0686 21.1805 17.316 21.564C16.8306 21.8113 16.3139 21.9099 15.7518 21.9558C15.2106 22 14.5463 22 13.7413 22H13.7H10.3H10.2587C9.45374 22 8.78937 22 8.24817 21.9558C7.68608 21.9099 7.16937 21.8113 6.68404 21.564C5.93139 21.1805 5.31947 20.5686 4.93597 19.816C4.68868 19.3306 4.59012 18.8139 4.54419 18.2518C4.49998 17.7106 4.49999 17.0463 4.5 16.2413L4.5 16.2V7.5C4.5 7.23478 4.60536 6.98043 4.79289 6.79289ZM6.5 8.5V16.2C6.5 17.0566 6.50078 17.6389 6.53755 18.089C6.57337 18.5274 6.6383 18.7516 6.71799 18.908C6.90973 19.2843 7.21569 19.5903 7.59202 19.782C7.74842 19.8617 7.97262 19.9266 8.41104 19.9624C8.86113 19.9992 9.44342 20 10.3 20H13.7C14.5566 20 15.1389 19.9992 15.589 19.9624C16.0274 19.9266 16.2516 19.8617 16.408 19.782C16.7843 19.5903 17.0903 19.2843 17.282 18.908C17.3617 18.7516 17.4266 18.5274 17.4624 18.089C17.4992 17.6389 17.5 17.0566 17.5 16.2V8.5H6.5Z" fill="black"/>
</svg>
