<svg width="24" height="24" viewBox="0 0 24 24" fill="none" xmlns="http://www.w3.org/2000/svg">
<path fill-rule="evenodd" clip-rule="evenodd" d="M5.89999 2L5.77618 1.99996C5.06045 1.99961 4.52926 1.99935 4.06621 2.11052C2.60361 2.46166 1.46165 3.60362 1.11051 5.06622C0.999338 5.52927 0.999597 6.06046 0.999947 6.77619L0.999987 6.9V13.1L0.999947 13.2238C0.999597 13.9395 0.999338 14.4707 1.11051 14.9338C1.46165 16.3964 2.60361 17.5383 4.06621 17.8895C4.52926 18.0007 5.06045 18.0004 5.77618 18L5.89999 18H9.99999V20H8.49999C7.94771 20 7.49999 20.4477 7.49999 21C7.49999 21.5523 7.94771 22 8.49999 22H13.5C14.0523 22 14.5 21.5523 14.5 21C14.5 20.4477 14.0523 20 13.5 20H12V18H13.5C14.0523 18 14.5 17.5523 14.5 17C14.5 16.4477 14.0523 16 13.5 16H5.89999C5.00551 16 4.73426 15.993 4.5331 15.9447C3.8018 15.7692 3.23082 15.1982 3.05525 14.4669C3.00695 14.2657 2.99999 13.9945 2.99999 13.1V6.9C2.99999 6.00553 3.00695 5.73428 3.05525 5.53311C3.23082 4.80181 3.8018 4.23083 4.5331 4.05526C4.73426 4.00697 5.00551 4 5.89999 4H16.1C16.9945 4 17.2657 4.00697 17.4669 4.05526C18.1982 4.23083 18.7692 4.80181 18.9447 5.53311C18.993 5.73428 19 6.00553 19 6.9V8.5C19 9.05229 19.4477 9.5 20 9.5C20.5523 9.5 21 9.05229 21 8.5V6.9L21 6.77618C21.0004 6.06045 21.0006 5.52927 20.8895 5.06622C20.5383 3.60362 19.3964 2.46166 17.9338 2.11052C17.4707 1.99935 16.9395 1.99961 16.2238 1.99996L16.1 2H5.89999ZM19.4 11L19.3639 11C18.9748 11 18.6247 11 18.3334 11.0238C18.0214 11.0492 17.6899 11.1069 17.365 11.2725C16.8946 11.5122 16.5122 11.8946 16.2725 12.365C16.1069 12.6899 16.0492 13.0214 16.0237 13.3334C15.9999 13.6247 16 13.9748 16 14.3639V14.3639L16 14.4V18.6L16 18.6361C16 19.0252 15.9999 19.3753 16.0237 19.6666C16.0492 19.9786 16.1069 20.3101 16.2725 20.635C16.5122 21.1054 16.8946 21.4878 17.365 21.7275C17.6899 21.8931 18.0214 21.9508 18.3334 21.9762C18.6247 22 18.9748 22 19.3639 22L19.4 22H19.6L19.6361 22C20.0252 22 20.3753 22 20.6666 21.9762C20.9786 21.9508 21.3101 21.8931 21.635 21.7275C22.1054 21.4878 22.4878 21.1054 22.7275 20.635C22.8931 20.3101 22.9507 19.9786 22.9762 19.6666C23 19.3753 23 19.0252 23 18.6361V18.6361V18.6V14.4V14.3639V14.3639C23 13.9748 23 13.6247 22.9762 13.3334C22.9507 13.0214 22.8931 12.6899 22.7275 12.365C22.4878 11.8946 22.1054 11.5122 21.635 11.2725C21.3101 11.1069 20.9786 11.0492 20.6666 11.0238C20.3753 11 20.0252 11 19.6361 11L19.6 11H19.4ZM18.273 13.0545C18.2734 13.0543 18.2756 13.0532 18.2808 13.0513C18.2862 13.0494 18.2962 13.0462 18.3125 13.0423C18.3467 13.0343 18.4031 13.0247 18.4962 13.0171C18.6962 13.0008 18.9634 13 19.4 13H19.6C20.0365 13 20.3038 13.0008 20.5038 13.0171C20.5969 13.0247 20.6533 13.0343 20.6875 13.0423C20.7038 13.0462 20.7138 13.0494 20.7192 13.0513C20.7244 13.0532 20.7266 13.0543 20.727 13.0545C20.8211 13.1024 20.8976 13.1789 20.9455 13.273C20.9457 13.2734 20.9468 13.2756 20.9487 13.2808C20.9506 13.2862 20.9538 13.2962 20.9576 13.3125C20.9657 13.3467 20.9753 13.4031 20.9829 13.4962C20.9992 13.6962 21 13.9635 21 14.4V18.6C21 19.0365 20.9992 19.3038 20.9829 19.5038C20.9753 19.5969 20.9657 19.6533 20.9576 19.6875C20.9538 19.7038 20.9506 19.7138 20.9487 19.7192C20.9478 19.7217 20.947 19.7235 20.9465 19.7248C20.9459 19.7261 20.9456 19.7268 20.9455 19.727C20.8976 19.8211 20.8211 19.8976 20.727 19.9455C20.7268 19.9456 20.7263 19.9458 20.7254 19.9463C20.7241 19.9468 20.7222 19.9476 20.7192 19.9487C20.7138 19.9506 20.7038 19.9538 20.6875 19.9577C20.6533 19.9657 20.5969 19.9753 20.5038 19.9829C20.3038 19.9992 20.0365 20 19.6 20H19.4C18.9634 20 18.6962 19.9992 18.4962 19.9829C18.4031 19.9753 18.3467 19.9657 18.3125 19.9577C18.2962 19.9538 18.2862 19.9506 18.2808 19.9487C18.2756 19.9468 18.2734 19.9457 18.273 19.9455C18.1789 19.8976 18.1024 19.8211 18.0545 19.727C18.0543 19.7266 18.0532 19.7244 18.0513 19.7192C18.0494 19.7138 18.0462 19.7038 18.0423 19.6875C18.0343 19.6533 18.0247 19.5969 18.0171 19.5038C18.0008 19.3038 18 19.0365 18 18.6V14.4C18 13.9635 18.0008 13.6962 18.0171 13.4962C18.0247 13.4031 18.0343 13.3467 18.0423 13.3125C18.0462 13.2962 18.0494 13.2862 18.0513 13.2808C18.0532 13.2756 18.0543 13.2734 18.0545 13.273C18.1024 13.1789 18.1789 13.1024 18.273 13.0545Z" fill="black"/>
</svg>
