<svg width="24" height="24" viewBox="0 0 24 24" fill="none" xmlns="http://www.w3.org/2000/svg">
<path fill-rule="evenodd" clip-rule="evenodd" d="M11 4.00218C10.8183 4.0004 10.6047 4 10.349 4H9.4C8.26339 4 7.47108 4.00077 6.85424 4.05117C6.24907 4.10062 5.90138 4.19279 5.63803 4.32698C5.07354 4.6146 4.6146 5.07354 4.32698 5.63803C4.19279 5.90138 4.10062 6.24907 4.05118 6.85424C4.00078 7.47108 4 8.26339 4 9.4V14.6C4 15.7366 4.00078 16.5289 4.05118 17.1458C4.10062 17.7509 4.19279 18.0986 4.32698 18.362C4.6146 18.9265 5.07354 19.3854 5.63803 19.673C5.90138 19.8072 6.24907 19.8994 6.85424 19.9488C7.47108 19.9992 8.26339 20 9.4 20H14.6C15.7366 20 16.5289 19.9992 17.1458 19.9488C17.7509 19.8994 18.0986 19.8072 18.362 19.673C18.9265 19.3854 19.3854 18.9265 19.673 18.362C19.8072 18.0986 19.8994 17.7509 19.9488 17.1458C19.9992 16.5289 20 15.7366 20 14.6V13.651C20 13.3953 19.9996 13.1817 19.9978 13H16.8H16.7587C15.9537 13 15.2894 13 14.7482 12.9558C14.1861 12.9099 13.6694 12.8113 13.184 12.564C12.4314 12.1805 11.8195 11.5686 11.436 10.816C11.1887 10.3306 11.0901 9.81392 11.0442 9.25182C11 8.71063 11 8.04627 11 7.24131V7.2413L11 7.2V4.00218ZM19.5 11C19.3292 10.7507 19.0662 10.4804 18.4184 9.83259L14.1674 5.58162C13.5196 4.93381 13.2493 4.67075 13 4.50001V7.2C13 8.05658 13.0008 8.63887 13.0376 9.08896C13.0734 9.52737 13.1383 9.75158 13.218 9.90798C13.4097 10.2843 13.7157 10.5903 14.092 10.782C14.2484 10.8617 14.4726 10.9266 14.911 10.9624C15.3611 10.9992 15.9434 11 16.8 11H19.5ZM12.5104 2.13815C11.9331 1.99955 11.3317 1.99972 10.463 1.99998L10.349 2H9.4L9.35719 2C8.27341 1.99999 7.39926 1.99998 6.69138 2.05781C5.96253 2.11736 5.32234 2.24318 4.73005 2.54496C3.78924 3.02433 3.02434 3.78923 2.54497 4.73004C2.24318 5.32234 2.11737 5.96252 2.05782 6.69137C1.99998 7.39925 1.99999 8.2734 2 9.35718V9.35719V9.4V14.6V14.6428C1.99999 15.7266 1.99998 16.6007 2.05782 17.3086C2.11737 18.0375 2.24318 18.6777 2.54497 19.2699C3.02434 20.2108 3.78924 20.9757 4.73005 21.455C5.32234 21.7568 5.96253 21.8826 6.69138 21.9422C7.39923 22 8.27334 22 9.35707 22H9.35717H9.4H14.6H14.6428H14.6429C15.7267 22 16.6008 22 17.3086 21.9422C18.0375 21.8826 18.6777 21.7568 19.27 21.455C20.2108 20.9757 20.9757 20.2108 21.455 19.2699C21.7568 18.6777 21.8826 18.0375 21.9422 17.3086C22 16.6008 22 15.7267 22 14.6429V14.6428V14.6V13.651L22 13.537C22.0003 12.6683 22.0004 12.0669 21.8618 11.4896C21.7394 10.9794 21.5373 10.4917 21.2632 10.0444C20.953 9.53814 20.5277 9.11306 19.9132 8.49894L19.8326 8.41838L15.5816 4.16741L15.5011 4.08681C14.8869 3.47234 14.4619 3.047 13.9556 2.7368C13.5083 2.46265 13.0206 2.26063 12.5104 2.13815Z" fill="black"/>
</svg>
