<svg width="100" height="100" viewBox="0 0 100 100" fill="none" xmlns="http://www.w3.org/2000/svg">
<path d="M50 5C74.8528 5 95 25.1472 95 50C95 50.5411 94.9867 51.0798 94.9678 51.6162C92.7365 50.0305 90.1534 49.1662 87.5381 49.0225C87.0197 28.735 70.4124 12.4482 50 12.4482C29.2608 12.4482 12.4482 29.2608 12.4482 50C12.4482 70.2207 28.4307 86.7048 48.4521 87.5166C48.4224 90.1048 49.0863 92.6991 50.4434 94.9941C50.2957 94.9956 50.148 95 50 95C25.1472 95 5 74.8528 5 50C5 25.1472 25.1472 5 50 5Z" fill="black"/>
<path d="M38.665 55.5693C40.9433 55.5706 42.7923 57.4189 42.793 59.6973C42.793 62.6964 45.1626 65.1403 48.1318 65.2617C48.5356 68.2334 49.8684 71.1023 52.1309 73.3945L54.1035 75.3916V75.8633C54.1035 75.9288 54.1007 75.9938 54.0977 76.0586L52.582 77.5977C51.8691 78.32 51.2481 79.0995 50.7197 79.9219C50.4782 79.9659 50.2298 79.9912 49.9756 79.9912C47.6977 79.9899 45.8488 78.1412 45.8477 75.8633V73.2812C39.4133 72.0975 34.5371 66.4732 34.5371 59.6973C34.5377 57.4183 36.3859 55.5694 38.665 55.5693Z" fill="black"/>
<path d="M49.9756 20.0078C52.2541 20.0078 54.1021 21.8566 54.1035 24.1348V26.6807C60.5244 27.7668 65.4192 33.3407 65.4199 40.0703C65.4193 42.349 63.5705 44.1971 61.292 44.1982C59.0135 44.197 57.165 42.3489 57.165 40.0703C57.1643 37.1224 54.7724 34.7315 51.8242 34.7305H48.7207C45.4475 34.7315 42.7945 37.3851 42.793 40.6582V41.6895C42.7946 43.9986 44.6663 45.8697 46.9756 45.8711H52.9824C56.1636 45.8717 59.0643 47.0687 61.2637 49.0342C58.0477 49.256 54.8923 50.5688 52.3945 52.9736L52.1309 53.2344C51.8461 53.5229 51.5766 53.8211 51.3213 54.127H46.9756C40.1071 54.1257 34.5388 48.5579 34.5371 41.6895V40.6582C34.5384 33.8094 39.3915 28.0936 45.8477 26.7656V24.1348C45.8494 21.8574 47.6981 20.0089 49.9756 20.0078Z" fill="black"/>
<path d="M83.0458 59.5567C85.0946 57.4816 88.4156 57.4813 90.4642 59.5567C92.5117 61.6322 92.5121 64.997 90.4642 67.0722L81.9187 75.7192L90.0134 83.9198C92.0621 85.9954 92.0621 89.3702 90.0134 91.4457C87.9661 93.5195 84.644 93.5167 82.595 91.4457L74.5003 83.2451L66.4057 91.4457C64.357 93.5172 61.0349 93.519 58.9873 91.4457C56.9385 89.3702 56.9385 85.9954 58.9873 83.9198L67.0717 75.7192L58.5364 67.0722C56.4878 64.9967 56.488 61.6323 58.5364 59.5567C60.5852 57.4811 63.9061 57.4811 65.9548 59.5567L74.5003 68.2037L83.0458 59.5567Z" fill="black"/>
</svg>
