<svg width="100" height="100" viewBox="0 0 100 100" fill="none" xmlns="http://www.w3.org/2000/svg">
<path d="M49.9757 20.0073C52.2543 20.0073 54.1021 21.8569 54.1034 24.1352V26.6809C60.5244 27.767 65.4198 33.3409 65.4204 40.0706C65.4198 42.3493 63.5708 44.1973 61.2922 44.1985C59.0137 44.1973 57.1646 42.3493 57.1646 40.0706C57.164 37.1226 54.7725 34.7316 51.8242 34.7305H48.7211C45.4475 34.7313 42.7943 37.3852 42.793 40.6586V41.689C42.7943 43.9984 44.666 45.87 46.9754 45.8714H52.9824C59.8503 45.8728 65.4185 51.4412 65.4204 58.3092V59.3401C65.4198 66.1901 60.5617 71.906 54.1034 73.2324V75.8635C54.1028 78.1421 52.255 79.9911 49.9757 79.9911C47.6977 79.9898 45.849 78.1414 45.8479 75.8635V73.2814C39.4135 72.0978 34.5373 66.4737 34.5373 59.6976C34.5377 57.4185 36.3858 55.5694 38.6651 55.5694C40.9435 55.5707 42.7925 57.4191 42.793 59.6976C42.793 62.7744 45.2868 65.2677 48.3634 65.2677H51.2364C54.5099 65.2671 57.164 62.6136 57.1646 59.3401V58.3092C57.1628 56.0002 55.2914 54.1282 52.9824 54.1269H46.9754C40.1068 54.1257 34.5387 48.5576 34.5373 41.689V40.6586C34.5384 33.8095 39.3915 28.0937 45.8479 26.7658V24.1352C45.8494 21.8575 47.698 20.0084 49.9757 20.0073Z" fill="black"/>
<path d="M87.5518 50C87.5518 29.2608 70.7392 12.4482 50 12.4482C29.2608 12.4482 12.4482 29.2608 12.4482 50C12.4482 70.7392 29.2608 87.5518 50 87.5518V95C25.1472 95 5 74.8528 5 50C5 25.1472 25.1472 5 50 5C74.8528 5 95 25.1472 95 50C95 74.8528 74.8528 95 50 95V87.5518C70.7392 87.5518 87.5518 70.7392 87.5518 50Z" fill="black"/>
</svg>
