<svg width="24" height="24" viewBox="0 0 24 24" fill="none" xmlns="http://www.w3.org/2000/svg">
<path d="M5.55518 8.46957C4.94861 9.50597 4.60018 10.7123 4.6001 11.9998C4.60026 15.8657 7.73423 18.9998 11.6001 18.9998C12.8878 18.9998 14.0929 18.6495 15.1294 18.0428L16.5815 19.495C15.155 20.445 13.4425 20.9998 11.6001 20.9998C6.62966 20.9998 2.60026 16.9703 2.6001 11.9998C2.60019 10.1577 3.15425 8.44476 4.104 7.0184L5.55518 8.46957ZM11.6001 2.99985C16.5705 2.9999 20.5999 7.02952 20.6001 11.9998C20.6 14.0221 19.9296 15.8861 18.8032 17.3885L20.7075 19.2928C21.0978 19.6832 21.0977 20.3164 20.7075 20.7069C20.317 21.0973 19.684 21.0972 19.2935 20.7069L3.29346 4.70688C2.90293 4.31635 2.90293 3.68334 3.29346 3.29282C3.68401 2.90261 4.3171 2.9024 4.70752 3.29282L6.20947 4.79477C7.71209 3.66851 9.57771 2.99986 11.6001 2.99985ZM12.7993 15.7137L12.3071 16.2069C11.9411 16.5728 11.362 16.5954 10.9692 16.2752L10.8931 16.2069L7.89307 13.2069C7.50284 12.8164 7.50276 12.1833 7.89307 11.7928C8.08481 11.6012 8.33523 11.5033 8.58643 11.4998L12.7993 15.7137ZM11.6001 4.99985C10.1308 4.99986 8.76782 5.45361 7.64209 6.22739L10.6001 9.18539V8.49985C10.6003 7.94778 11.048 7.49988 11.6001 7.49985C12.1522 7.4999 12.5999 7.9478 12.6001 8.49985V11.1854L13.5503 12.1356L13.8931 11.7928C14.2835 11.4026 14.9167 11.4026 15.3071 11.7928C15.6974 12.1833 15.6974 12.8164 15.3071 13.2069L14.9644 13.5497L17.3706 15.9559C18.1445 14.8305 18.6 13.4689 18.6001 11.9998C18.5999 8.13409 15.4659 4.9999 11.6001 4.99985Z" fill="black"/>
</svg>
