<svg width="10" height="20" viewBox="0 0 10 20" fill="none" xmlns="http://www.w3.org/2000/svg">
<path d="M4.63423 8.0557C4.89236 8.22621 5.24387 8.19801 5.47114 7.97074L8.47114 4.97074L8.5561 4.86625C8.72661 4.60812 8.69841 4.2566 8.47114 4.02933C8.24387 3.80207 7.89236 3.77387 7.63423 3.94437L7.52974 4.02933L5.00044 6.55863L2.47114 4.02933C2.21144 3.76964 1.78943 3.76964 1.52973 4.02933C1.27004 4.28903 1.27004 4.71104 1.52973 4.97074L4.52973 7.97074L4.63423 8.0557Z" fill="black"/>
<path d="M4.63423 11.9443C4.89236 11.7738 5.24387 11.802 5.47114 12.0293L8.47114 15.0293L8.5561 15.1338C8.72661 15.3919 8.69841 15.7434 8.47114 15.9707C8.24387 16.1979 7.89236 16.2261 7.63423 16.0556L7.52974 15.9707L5.00044 13.4414L2.47114 15.9707C2.21144 16.2304 1.78943 16.2304 1.52973 15.9707C1.27004 15.711 1.27004 15.289 1.52973 15.0293L4.52973 12.0293L4.63423 11.9443Z" fill="black"/>
</svg>
