<svg xmlns="http://www.w3.org/2000/svg" width="24" height="24" viewBox="0 0 24 24">
  <g fill="none" fill-rule="evenodd">
    <polygon points="0 0 24 0 24 24 0 24"/>
    <path fill="#000" fill-rule="nonzero" d="M8.17574073,1.43423531 C8.48845128,0.979009479 9.11098672,0.863478025 9.56621255,1.17618858 C10.3500951,1.71466498 11.0928938,2.45729732 11.7999678,3.399957 C12.0192731,3.69233139 12.2094146,3.96874917 12.369675,4.23159866 C12.5464308,3.9403622 12.7785282,3.6234175 13.0643362,3.28044785 C14.0214454,2.13191682 15.354795,1.46510087 17.064385,1.28 C16.8573798,2.41964866 16.4568165,3.38314429 15.862695,4.17048687 L16.0135437,4.15042504 C17.4330131,4.00171802 18.651106,4.26419812 19.6357769,5.06397821 L20.0197821,5.39471293 C25.1926095,9.99495983 22.9758912,20.7287955 16.3162278,22.9486833 L16.2164136,22.9763018 C15.185378,23.204848 14.5036325,23.1603416 13.6581132,22.8900222 L13.0686694,22.6862465 C12.6551248,22.5478999 12.3939733,22.5 12,22.5 C11.606365,22.5 11.3452744,22.5479548 10.9319146,22.6864082 L10.3416201,22.8907206 C9.49594272,23.1613367 8.8136796,23.2056694 7.78265638,22.9760952 L7.68377223,22.9486833 C0.898045243,20.6867743 -1.21626065,9.69238367 4.4452998,5.16794971 C6.25970815,3.95834414 7.75762651,3.8615757 9.83213542,4.43692502 L10.1443114,4.52635381 C9.57864437,3.78432929 9.00684842,3.21836277 8.43378745,2.82470713 C7.97856162,2.51199657 7.86303017,1.88946113 8.17574073,1.43423531 Z M5.62469505,6.78086881 C1.29615577,10.2437002 3.00923586,19.2308456 8.26791533,21.0349775 C8.88034968,21.1667139 9.21496441,21.1501444 9.71372738,20.9919308 L9.90932116,20.9259741 L10.3337496,20.7776591 C10.9217456,20.5832857 11.3686577,20.5 12,20.5 C12.6313978,20.5 13.0781721,20.5831503 13.666176,20.777292 L14.285538,20.9910762 C14.7223216,21.1295014 15.0333357,21.1596219 15.5148467,21.077103 L15.7325109,21.0348289 L15.9608473,20.9510515 C20.9335461,19.0074665 22.6249221,10.4641054 18.7009596,6.89938783 L18.3796134,6.62267526 C17.823953,6.18452849 17.1373815,6.04363431 16.221928,6.1395394 C15.7703238,6.18685054 15.3186891,6.28016655 14.6610913,6.45249746 L13.4460943,6.77609202 L13.0949484,6.86318749 C12.6790563,6.96128644 12.45207,6.99107087 12.1703418,6.99812675 L11.894442,6.99926773 C11.4852041,6.99316799 11.217508,6.94612191 10.5734328,6.75377868 L9.52583722,6.42964083 C7.83617031,5.92655834 6.85436695,5.96539064 5.62469505,6.78086881 Z"/>
  </g>
</svg>
