<svg xmlns="http://www.w3.org/2000/svg" width="24" height="24" viewBox="0 0 24 24">
  <path d="M19,4 C20.5976809,4 21.9036609,5.24891996 21.9949073,6.82372721 L22,7 L22,17 C22,18.5976809 20.75108,19.9036609 19.1762728,19.9949073 L19,20 L5,20 C3.40231912,20 2.09633912,18.75108 2.00509269,17.1762728 L2,17 L2,7 C2,5.40231912 3.24891996,4.09633912 4.82372721,4.00509269 L5,4 L19,4 Z M20,7.868 L13.6641006,12.09245 C12.7156787,12.7247313 11.4969895,12.7619243 10.5167715,12.2040291 L10.3358994,12.09245 L4,7.869 L4,17 C4,17.5128358 4.38604019,17.9355072 4.88337887,17.9932723 L5,18 L19,18 C19.5128358,18 19.9355072,17.6139598 19.9932723,17.1166211 L20,17 L20,7.868 Z M19,6 L5,6 C4.94100119,6 4.88319572,6.00510931 4.82700192,6.0149096 L11.4452998,10.4283494 C11.7438771,10.6274009 12.1228116,10.6495178 12.439246,10.4946999 L12.5547002,10.4283494 L19.1729981,6.0149096 L19.0875509,6.00377969 L19.0875509,6.00377969 L19,6 Z"/>
</svg>
