<svg width="24" height="24" viewBox="0 0 24 24" fill="none" xmlns="http://www.w3.org/2000/svg">
<path d="M1.70463 10.8107L1.8194 10.7007C4.62991 8.31613 8.25176 7 12.003 7C15.7543 7 19.3761 8.31613 22.1866 10.7007C22.4351 10.917 22.6351 11.1797 22.7742 11.4727C22.9135 11.7657 22.9888 12.0829 22.996 12.4048C23.0159 12.7453 22.9616 13.0861 22.8368 13.4054C22.7121 13.7249 22.5195 14.0158 22.2712 14.2599L21.2202 15.2685C20.776 15.7002 20.1813 15.9593 19.5502 15.9956C18.9192 16.032 18.2963 15.8432 17.8015 15.4656L16.1224 14.1555C15.8189 13.925 15.5737 13.6317 15.4055 13.2974C15.237 12.9631 15.1496 12.5965 15.15 12.2252L14.9566 8.93259C13.0087 8.52032 10.9904 8.52237 9.04335 8.93841L8.86217 12.2426C8.85884 12.6099 8.76974 12.972 8.60147 13.3019C8.4331 13.632 8.18991 13.9217 7.88966 14.1496L6.18034 15.4539C5.68525 15.8293 5.06331 16.0161 4.43361 15.9786C3.80392 15.9412 3.21075 15.6822 2.76769 15.251L1.73483 14.2599C1.48474 14.0156 1.29056 13.7239 1.16469 13.4035C1.03885 13.0831 0.984106 12.7409 1.00398 12.3991C1.01961 11.8036 1.27001 11.236 1.70463 10.8107Z" fill="black"/>
</svg>
