<svg width="24" height="24" viewBox="0 0 24 24" fill="none" xmlns="http://www.w3.org/2000/svg">
<path fill-rule="evenodd" clip-rule="evenodd" d="M12.5397 4.07351C12.4523 4.02756 12.3479 4.02756 12.2605 4.07351L11.2923 4.5825C11.0723 4.6982 10.815 4.51131 10.8571 4.26624L11.042 3.18819C11.0586 3.09087 11.0264 2.99157 10.9557 2.92265L10.1724 2.15916C9.99437 1.9856 10.0926 1.68321 10.3387 1.64746L11.4211 1.49017C11.5188 1.47597 11.6033 1.4146 11.647 1.32606L12.1311 0.345209C12.2411 0.122235 12.5591 0.122235 12.6691 0.345209L13.1532 1.32606C13.1969 1.4146 13.2814 1.47597 13.3791 1.49017L14.4615 1.64746C14.7076 1.68321 14.8058 1.9856 14.6278 2.15916L13.8445 2.92265C13.7738 2.99157 13.7415 3.09087 13.7582 3.18819L13.9431 4.26624C13.9852 4.51131 13.7279 4.6982 13.5079 4.5825L12.5397 4.07351ZM2.49975 5.05251C2.43733 5.01969 2.36275 5.01969 2.30032 5.05251L1.60878 5.41607C1.45158 5.49872 1.26784 5.36523 1.29787 5.19018L1.42994 4.42013C1.44186 4.35062 1.41881 4.27969 1.36831 4.23046L0.808842 3.68512C0.68166 3.56115 0.751841 3.34515 0.927603 3.31961L1.70077 3.20727C1.77056 3.19712 1.8309 3.15329 1.86211 3.09004L2.20788 2.38944C2.28648 2.23017 2.51359 2.23017 2.5922 2.38944L2.93797 3.09004C2.96918 3.15329 3.02951 3.19712 3.09931 3.20727L3.87247 3.31961C4.04824 3.34515 4.11842 3.56115 3.99123 3.68512L3.43177 4.23046C3.38126 4.27969 3.35822 4.35062 3.37014 4.42013L3.50221 5.19018C3.53223 5.36523 3.3485 5.49872 3.19129 5.41607L2.49975 5.05251ZM3.9003 15.8525C3.96272 15.8197 4.0373 15.8197 4.09973 15.8525L4.79127 16.2161C4.94847 16.2987 5.13221 16.1652 5.10219 15.9902L4.97011 15.2202C4.95819 15.1506 4.98124 15.0797 5.03174 15.0305L5.59121 14.4851C5.71839 14.3612 5.64821 14.1452 5.47245 14.1196L4.69928 14.0073C4.62949 13.9971 4.56915 13.9533 4.53794 13.8901L4.19217 13.1895C4.11357 13.0302 3.88646 13.0302 3.80786 13.1895L3.46209 13.8901C3.43087 13.9533 3.37054 13.9971 3.30074 14.0073L2.52758 14.1196C2.35182 14.1452 2.28164 14.3612 2.40882 14.4851L2.96829 15.0305C3.01879 15.0797 3.04184 15.1506 3.02991 15.2202L2.89784 15.9902C2.86782 16.1652 3.05155 16.2987 3.20876 16.2161L3.9003 15.8525ZM9.32744 6.17984L21.4203 18.2727C22.2639 19.1163 22.2639 20.4839 21.4203 21.3274L20.5274 22.2203C19.6839 23.0639 18.3163 23.0639 17.4727 22.2203L5.37984 10.1274C4.53631 9.2839 4.53631 7.91627 5.37984 7.07273L6.27274 6.17984C7.11627 5.33631 8.4839 5.33631 9.32744 6.17984ZM20.2465 19.4465L11.0001 10.2001L9.40009 11.8001L18.6465 21.0465C18.8418 21.2418 19.1584 21.2418 19.3536 21.0465L20.2465 20.1536C20.4418 19.9584 20.4418 19.6418 20.2465 19.4465Z" fill="white"/>
</svg>
