<svg width="24" height="24" viewBox="0 0 24 24" fill="none" xmlns="http://www.w3.org/2000/svg">
<path fill-rule="evenodd" clip-rule="evenodd" d="M3.00028 12.0013L3.00012 12.0001L3.00035 11.9986C3.00246 11.9838 3.01663 11.8846 3.10525 11.6861C3.19841 11.4775 3.34872 11.2151 3.56286 10.9143C3.99061 10.3132 4.63309 9.61451 5.45636 8.95072C7.10769 7.61925 9.39399 6.5 12.0037 6.5C14.6407 6.5 16.9246 7.62024 18.5651 8.94926C19.3835 9.61222 20.0199 10.3101 20.4429 10.9104C20.6547 11.211 20.8033 11.4732 20.8954 11.682C20.9852 11.8856 20.9981 11.9861 20.9998 11.9989L20.9999 12.0001L20.9998 12.001C20.9984 12.0128 20.986 12.1137 20.8956 12.3196C20.8039 12.5284 20.656 12.7906 20.4451 13.091C20.0238 13.691 19.3896 14.3886 18.5729 15.0512C16.9361 16.3793 14.6525 17.5 12.0037 17.5C9.37834 17.5 7.09229 16.3801 5.44598 15.0499C4.62497 14.3866 3.98542 13.6882 3.55998 13.0876C3.347 12.7869 3.19757 12.5246 3.10494 12.3159C3.01575 12.115 3.00216 12.0151 3.00028 12.0013ZM12.0037 4.5C8.8183 4.5 6.10274 5.8604 4.201 7.39377C3.24773 8.16239 2.47587 8.99236 1.93342 9.75455C1.66246 10.1353 1.43869 10.5131 1.27906 10.8706C1.12675 11.2117 1 11.6062 1 12C1 12.3924 1.12547 12.7861 1.27693 13.1273C1.43558 13.4848 1.65812 13.8627 1.92791 14.2436C2.46802 15.0061 3.23723 15.8365 4.18903 16.6056C6.08834 18.1402 8.80416 19.5 12.0037 19.5C15.2246 19.5 17.9391 18.141 19.8331 16.6043C20.7818 15.8345 21.5461 15.0034 22.0819 14.2402C22.3496 13.859 22.5699 13.481 22.7268 13.1237C22.8768 12.7823 23 12.39 23 12C23 11.6089 22.8758 11.2161 22.7252 10.8747C22.5676 10.5174 22.3463 10.1394 22.0778 9.75835C21.5402 8.99549 20.7739 8.16468 19.8241 7.39522C17.9283 5.85942 15.214 4.5 12.0037 4.5ZM14 12C14 13.1046 13.1046 14 12 14C10.8954 14 10 13.1046 10 12C10 10.8954 10.8954 10 12 10C13.1046 10 14 10.8954 14 12ZM16 12C16 14.2091 14.2091 16 12 16C9.79086 16 8 14.2091 8 12C8 9.79086 9.79086 8 12 8C14.2091 8 16 9.79086 16 12Z" fill="white"/>
</svg>
