<svg width="24" height="24" viewBox="0 0 24 24" fill="none" xmlns="http://www.w3.org/2000/svg">
<path fill-rule="evenodd" clip-rule="evenodd" d="M3.70711 2.29289C3.31658 1.90237 2.68342 1.90237 2.29289 2.29289C1.90237 2.68342 1.90237 3.31658 2.29289 3.70711L20.2929 21.7071C20.6834 22.0976 21.3166 22.0976 21.7071 21.7071C22.0976 21.3166 22.0976 20.6834 21.7071 20.2929L18.7876 17.3734C19.1592 17.1262 19.5082 16.8679 19.8331 16.6043C20.7818 15.8345 21.5461 15.0034 22.0819 14.2402C22.3496 13.859 22.5699 13.481 22.7268 13.1237C22.8768 12.7823 23 12.39 23 12C23 11.6089 22.8758 11.2161 22.7252 10.8747C22.5676 10.5174 22.3463 10.1394 22.0778 9.75835C21.5402 8.99549 20.7739 8.16468 19.8241 7.39522C17.9283 5.85942 15.214 4.5 12.0037 4.5C10.1714 4.5 8.49453 4.95013 7.03861 5.62439L3.70711 2.29289ZM8.56423 7.15002L9.96803 8.55382C10.5635 8.20193 11.2582 8 12 8C14.2091 8 16 9.79086 16 12C16 12.7418 15.7981 13.4365 15.4462 14.032L17.3403 15.9261C17.7833 15.653 18.1953 15.3576 18.5729 15.0512C19.3896 14.3886 20.0238 13.691 20.4451 13.091C20.656 12.7906 20.8039 12.5284 20.8956 12.3196C20.986 12.1137 20.9984 12.0128 20.9998 12.001L20.9999 12.0001L20.9998 11.9989C20.9981 11.9861 20.9852 11.8856 20.8954 11.682C20.8033 11.4732 20.6547 11.211 20.4429 10.9104C20.0199 10.3101 19.3835 9.61222 18.5651 8.94926C16.9246 7.62024 14.6407 6.5 12.0037 6.5C10.7746 6.5 9.61729 6.74826 8.56423 7.15002ZM13.9323 12.518C13.9764 12.3528 14 12.1792 14 12C14 10.8954 13.1046 10 12 10C11.8208 10 11.6472 10.0236 11.482 10.0677L13.9323 12.518ZM4.201 7.39377C4.26805 7.33971 4.33611 7.28586 4.40517 7.23228L5.83247 8.65957C5.70372 8.75522 5.57831 8.85239 5.45636 8.95072C4.63309 9.61451 3.99061 10.3132 3.56286 10.9143C3.34872 11.2151 3.19841 11.4775 3.10525 11.6861C3.01663 11.8846 3.00246 11.9838 3.00035 11.9986L3.00012 12.0001L3.00028 12.0013C3.00216 12.0151 3.01575 12.115 3.10494 12.3159C3.19757 12.5246 3.347 12.7869 3.55998 13.0876C3.98542 13.6882 4.62497 14.3866 5.44598 15.0499C7.09229 16.3801 9.37834 17.5 12.0037 17.5C12.8318 17.5 13.6241 17.3905 14.3722 17.1993L15.9711 18.7982C14.7671 19.2315 13.4354 19.5 12.0037 19.5C8.80416 19.5 6.08834 18.1402 4.18903 16.6056C3.23723 15.8365 2.46802 15.0061 1.92791 14.2436C1.65812 13.8627 1.43558 13.4848 1.27693 13.1273C1.12547 12.7861 1 12.3924 1 12C1 11.6062 1.12675 11.2117 1.27906 10.8706C1.43869 10.5131 1.66246 10.1353 1.93342 9.75455C2.47587 8.99236 3.24773 8.16239 4.201 7.39377ZM8 12C8 11.6413 8.04721 11.2936 8.13577 10.9629L10.543 13.3701C10.5711 13.4 10.6 13.4289 10.6299 13.457L13.0371 15.8642C12.7064 15.9528 12.3587 16 12 16C9.79086 16 8 14.2091 8 12Z" fill="white"/>
</svg>
