<svg width="24" height="24" viewBox="0 0 24 24" fill="none" xmlns="http://www.w3.org/2000/svg">
<path d="M3 15.0417C3.55227 15.0417 4 15.4894 4 16.0417V16.2419C4 17.0983 4.00035 17.6805 4.03711 18.1306C4.07293 18.5689 4.13809 18.7935 4.21778 18.9499C4.40951 19.3261 4.71556 19.6322 5.0918 19.8239C5.2482 19.9036 5.47276 19.9688 5.91113 20.0046C6.36117 20.0413 6.94344 20.0417 7.79981 20.0417H8C8.55227 20.0417 9 20.4894 9 21.0417C8.99998 21.5939 8.55226 22.0417 8 22.0417H7.79981C6.97634 22.0417 6.29842 22.0427 5.74805 21.9977C5.18601 21.9518 4.66889 21.8534 4.1836 21.6061C3.4311 21.2227 2.81902 20.6106 2.43555 19.8581C2.18828 19.3728 2.08988 18.8557 2.04395 18.2936C1.99898 17.7433 2 17.0654 2 16.2419V16.0417C2 15.4894 2.44772 15.0417 3 15.0417ZM21 15.0417C21.5523 15.0417 22 15.4894 22 16.0417V16.2419C22 17.0654 22.001 17.7433 21.9561 18.2936C21.9101 18.8557 21.8117 19.3728 21.5645 19.8581C21.181 20.6106 20.5689 21.2227 19.8164 21.6061C19.3311 21.8534 18.814 21.9518 18.252 21.9977C17.7016 22.0427 17.0237 22.0417 16.2002 22.0417H16C15.4477 22.0417 15 21.594 15 21.0417C15 20.4894 15.4477 20.0417 16 20.0417H16.2002C17.0566 20.0417 17.6388 20.0413 18.0889 20.0046C18.5273 19.9688 18.7518 19.9036 18.9082 19.8239C19.2844 19.6322 19.5905 19.3261 19.7822 18.9499C19.8619 18.7935 19.9271 18.5689 19.9629 18.1306C19.9997 17.6805 20 17.0983 20 16.2419V16.0417C20 15.4894 20.4477 15.0417 21 15.0417ZM14.6006 15.0056C14.8941 14.7852 15.3107 14.8441 15.5313 15.1374C15.7517 15.4309 15.6927 15.8474 15.3994 16.0681C14.4526 16.7792 13.2745 17.2018 12 17.2018C10.7255 17.2018 9.54744 16.7793 8.60059 16.0681C8.30724 15.8474 8.24833 15.4309 8.46875 15.1374C8.68939 14.8442 9.10592 14.7852 9.39942 15.0056C10.1238 15.5496 11.0235 15.8718 12 15.8718C12.9765 15.8717 13.8762 15.5496 14.6006 15.0056ZM12 7.87177C12.3672 7.87181 12.665 8.16956 12.665 8.53681V11.237C12.6648 12.0458 12.009 12.7017 11.2002 12.7018H11C10.6328 12.7018 10.3351 12.404 10.335 12.0368C10.335 11.6696 10.6328 11.3718 11 11.3718H11.2002C11.2745 11.3716 11.3348 11.3113 11.335 11.237V8.53681C11.335 8.16955 11.6328 7.87179 12 7.87177ZM8 7.87177C8.36724 7.87181 8.66504 8.16956 8.66504 8.53681V10.0368C8.66496 10.404 8.36718 10.7018 8 10.7018C7.6328 10.7018 7.33505 10.404 7.33496 10.0368V8.53681C7.33496 8.16955 7.63275 7.87179 8 7.87177ZM16 7.87177C16.3672 7.87181 16.665 8.16956 16.665 8.53681V10.0368C16.665 10.404 16.3672 10.7018 16 10.7018C15.6328 10.7018 15.335 10.404 15.335 10.0368V8.53681C15.335 8.16955 15.6328 7.87179 16 7.87177ZM8 2.04169C8.55227 2.04171 9 2.48942 9 3.04169C8.99998 3.59394 8.55226 4.04167 8 4.04169H7.79981C6.94344 4.04169 6.36117 4.04204 5.91113 4.0788C5.47273 4.11462 5.2482 4.17978 5.0918 4.25946C4.71555 4.4512 4.40951 4.75723 4.21778 5.13349C4.13809 5.28988 4.07293 5.51442 4.03711 5.95282C4.00035 6.40285 4 6.98512 4 7.84149V8.04169C3.99998 8.59394 3.55226 9.04167 3 9.04169C2.44773 9.04169 2.00002 8.59396 2 8.04169V7.84149C2 7.01802 1.99898 6.34011 2.04395 5.78974C2.08988 5.22769 2.18828 4.71058 2.43555 4.22528C2.81902 3.47278 3.43109 2.8607 4.1836 2.47724C4.6689 2.22997 5.186 2.13156 5.74805 2.08563C6.29842 2.04067 6.97633 2.04169 7.79981 2.04169H8ZM16.2002 2.04169C17.0237 2.04169 17.7016 2.04067 18.252 2.08563C18.814 2.13156 19.3311 2.22997 19.8164 2.47724C20.5689 2.86071 21.181 3.47279 21.5645 4.22528C21.8117 4.71057 21.9101 5.2277 21.9561 5.78974C22.001 6.34011 22 7.01802 22 7.84149V8.04169C22 8.59394 21.5523 9.04167 21 9.04169C20.4477 9.04169 20 8.59396 20 8.04169V7.84149C20 6.98513 19.9996 6.40285 19.9629 5.95282C19.9271 5.51445 19.8619 5.28988 19.7822 5.13349C19.5905 4.75725 19.2844 4.4512 18.9082 4.25946C18.7518 4.17978 18.5273 4.11462 18.0889 4.0788C17.6388 4.04204 17.0566 4.04169 16.2002 4.04169H16C15.4477 4.04169 15 3.59396 15 3.04169C15 2.4894 15.4477 2.04169 16 2.04169H16.2002Z" fill="#4E8EE5"/>
</svg>
