<svg width="24" height="24" viewBox="0 0 24 24" fill="none" xmlns="http://www.w3.org/2000/svg">
<path d="M5.75 14.5889H6.75V14.1747L6.45711 13.8818L5.75 14.5889ZM9.41119 18.2501L10.1183 17.543L9.82541 17.2501H9.41119V18.2501ZM14.5889 18.2501V17.2501H14.1746L13.8818 17.543L14.5889 18.2501ZM18.25 14.5889L17.5429 13.8818L17.25 14.1747V14.5889H18.25ZM18.25 9.41117H17.25V9.82538L17.5429 10.1183L18.25 9.41117ZM14.5889 5.75003L13.8818 6.45714L14.1746 6.75003H14.5889V5.75003ZM9.41119 5.75003V6.75003H9.82541L10.1183 6.45714L9.41119 5.75003ZM5.75 9.41122L6.45711 10.1184L6.75 9.82544V9.41122H5.75ZM5.28251 12.7072C5.02334 12.448 4.87203 12.2956 4.76926 12.1745C4.67406 12.0624 4.68052 12.0445 4.6912 12.0773L2.78908 12.6954C2.89249 13.0136 3.06907 13.2622 3.24458 13.4689C3.4125 13.6667 3.63246 13.8855 3.8683 14.1214L5.28251 12.7072ZM6.45711 13.8818L5.28251 12.7072L3.8683 14.1214L5.04289 15.296L6.45711 13.8818ZM6.75 16.2501V14.5889H4.75V16.2501H6.75ZM6.77725 17.1136C6.79293 17.1443 6.77569 17.1362 6.76371 16.9896C6.75078 16.8314 6.75 16.6166 6.75 16.2501H4.75C4.75 16.5836 4.74922 16.8939 4.77035 17.1525C4.79243 17.4228 4.84331 17.7234 4.99524 18.0215L6.77725 17.1136ZM6.8865 17.2228C6.83946 17.1989 6.80122 17.1606 6.77725 17.1136L4.99524 18.0215C5.21095 18.4449 5.55516 18.7891 5.97852 19.0048L6.8865 17.2228ZM7.75 17.2501C7.38347 17.2501 7.16871 17.2493 7.01043 17.2364C6.86384 17.2244 6.85573 17.2071 6.8865 17.2228L5.97852 19.0048C6.27668 19.1568 6.57729 19.2076 6.84757 19.2297C7.10618 19.2508 7.41647 19.2501 7.75 19.2501V17.2501ZM9.41119 17.2501H7.75V19.2501H9.41119V17.2501ZM11.2929 18.7176L10.1183 17.543L8.70409 18.9572L9.87872 20.1318L11.2929 18.7176ZM11.9228 19.3089C11.9556 19.3196 11.9377 19.326 11.8256 19.2308C11.7045 19.1281 11.5521 18.9768 11.2929 18.7176L9.87872 20.1318C10.1146 20.3676 10.3334 20.5876 10.5312 20.7555C10.7379 20.931 10.9865 21.1076 11.3047 21.211L11.9228 19.3089ZM12.0773 19.3089C12.0271 19.3252 11.973 19.3252 11.9228 19.3089L11.3047 21.211C11.7566 21.3578 12.2434 21.3578 12.6953 21.211L12.0773 19.3089ZM12.7071 18.7176C12.448 18.9768 12.2955 19.1281 12.1745 19.2308C12.0624 19.326 12.0444 19.3196 12.0773 19.3089L12.6953 21.211C13.0136 21.1076 13.2621 20.931 13.4688 20.7555C13.6666 20.5876 13.8855 20.3676 14.1213 20.1318L12.7071 18.7176ZM13.8818 17.543L12.7071 18.7176L14.1213 20.1318L15.296 18.9572L13.8818 17.543ZM16.25 17.2501H14.5889V19.2501H16.25V17.2501ZM17.1135 17.2228C17.1443 17.2071 17.1362 17.2244 16.9896 17.2364C16.8313 17.2493 16.6165 17.2501 16.25 17.2501V19.2501C16.5835 19.2501 16.8938 19.2508 17.1524 19.2297C17.4227 19.2076 17.7233 19.1568 18.0215 19.0048L17.1135 17.2228ZM17.2228 17.1136C17.1988 17.1606 17.1605 17.1989 17.1135 17.2228L18.0215 19.0048C18.4448 18.7891 18.789 18.4449 19.0048 18.0215L17.2228 17.1136ZM17.25 16.2501C17.25 16.6166 17.2492 16.8314 17.2363 16.9896C17.2243 17.1362 17.2071 17.1443 17.2228 17.1136L19.0048 18.0215C19.1567 17.7234 19.2076 17.4228 19.2296 17.1525C19.2508 16.8939 19.25 16.5836 19.25 16.2501H17.25ZM17.25 14.5889V16.2501H19.25V14.5889H17.25ZM18.7175 12.7072L17.5429 13.8818L18.9571 15.296L20.1318 14.1214L18.7175 12.7072ZM19.3089 12.0773C19.3195 12.0445 19.326 12.0624 19.2308 12.1745C19.128 12.2956 18.9767 12.448 18.7175 12.7072L20.1318 14.1214C20.3676 13.8855 20.5876 13.6667 20.7555 13.4689C20.931 13.2622 21.1076 13.0136 21.211 12.6954L19.3089 12.0773ZM19.3089 11.9228C19.3252 11.973 19.3252 12.0271 19.3089 12.0773L21.211 12.6954C21.3578 12.2435 21.3578 11.7567 21.211 11.3048L19.3089 11.9228ZM18.7175 11.293C18.9767 11.5521 19.128 11.7046 19.2308 11.8256C19.326 11.9377 19.3195 11.9557 19.3089 11.9228L21.211 11.3048C21.1076 10.9865 20.931 10.738 20.7555 10.5313C20.5876 10.3335 20.3676 10.1146 20.1318 9.87872L18.7175 11.293ZM17.5429 10.1183L18.7175 11.293L20.1318 9.87872L18.9571 8.70406L17.5429 10.1183ZM17.25 7.75003V9.41117H19.25V7.75003H17.25ZM17.2228 6.88653C17.2071 6.85576 17.2243 6.86386 17.2363 7.01046C17.2492 7.16874 17.25 7.3835 17.25 7.75003H19.25C19.25 7.4165 19.2508 7.10621 19.2296 6.8476C19.2076 6.57732 19.1567 6.27671 19.0048 5.97855L17.2228 6.88653ZM17.1135 6.77728C17.1605 6.80125 17.1988 6.83949 17.2228 6.88653L19.0048 5.97855C18.789 5.55519 18.4448 5.21098 18.0215 4.99526L17.1135 6.77728ZM16.25 6.75003C16.6165 6.75003 16.8313 6.75081 16.9896 6.76374C17.1362 6.77572 17.1443 6.79296 17.1135 6.77728L18.0215 4.99526C17.7233 4.84333 17.4227 4.79246 17.1524 4.77038C16.8938 4.74925 16.5835 4.75003 16.25 4.75003V6.75003ZM14.5889 6.75003H16.25V4.75003H14.5889V6.75003ZM12.7071 5.28251L13.8818 6.45714L15.296 5.04292L14.1213 3.8683L12.7071 5.28251ZM12.0773 4.6912C12.0444 4.68052 12.0624 4.67407 12.1745 4.76926C12.2955 4.87203 12.448 5.02334 12.7071 5.28251L14.1213 3.8683C13.8855 3.63246 13.6666 3.4125 13.4688 3.24458C13.2621 3.06908 13.0136 2.89249 12.6953 2.78908L12.0773 4.6912ZM11.9228 4.6912C11.973 4.67488 12.0271 4.67488 12.0773 4.6912L12.6953 2.78908C12.2434 2.64225 11.7566 2.64225 11.3047 2.78908L11.9228 4.6912ZM11.2929 5.28252C11.5521 5.02334 11.7045 4.87203 11.8256 4.76926C11.9377 4.67407 11.9556 4.68052 11.9228 4.6912L11.3047 2.78908C10.9865 2.89249 10.7379 3.06908 10.5312 3.24458C10.3334 3.4125 10.1146 3.63246 9.87871 3.8683L11.2929 5.28252ZM10.1183 6.45714L11.2929 5.28252L9.87871 3.8683L8.70409 5.04292L10.1183 6.45714ZM7.75 6.75003H9.41119V4.75003H7.75V6.75003ZM6.8865 6.77728C6.85573 6.79296 6.86384 6.77572 7.01043 6.76374C7.16871 6.75081 7.38347 6.75003 7.75 6.75003V4.75003C7.41647 4.75003 7.10618 4.74925 6.84757 4.77038C6.57729 4.79246 6.27668 4.84334 5.97852 4.99526L6.8865 6.77728ZM6.77725 6.88653C6.80122 6.83949 6.83946 6.80125 6.8865 6.77728L5.97852 4.99526C5.55516 5.21098 5.21095 5.55519 4.99524 5.97855L6.77725 6.88653ZM6.75 7.75003C6.75 7.3835 6.75078 7.16874 6.76371 7.01046C6.77569 6.86386 6.79293 6.85576 6.77725 6.88653L4.99524 5.97855C4.84331 6.27671 4.79243 6.57732 4.77035 6.8476C4.74922 7.10621 4.75 7.4165 4.75 7.75003H6.75ZM6.75 9.41122V7.75003H4.75V9.41122H6.75ZM5.28251 11.293L6.45711 10.1184L5.04289 8.70412L3.8683 9.87871L5.28251 11.293ZM4.6912 11.9228C4.68052 11.9557 4.67406 11.9377 4.76926 11.8256C4.87203 11.7045 5.02334 11.5521 5.28251 11.293L3.8683 9.87871C3.63246 10.1146 3.4125 10.3335 3.24458 10.5313C3.06907 10.738 2.89249 10.9865 2.78908 11.3048L4.6912 11.9228ZM4.6912 12.0773C4.67488 12.0271 4.67488 11.973 4.6912 11.9228L2.78908 11.3048C2.64225 11.7567 2.64225 12.2435 2.78908 12.6954L4.6912 12.0773Z" fill="black"/>
<path fill-rule="evenodd" clip-rule="evenodd" d="M15.9884 9.4699C16.3789 9.86042 16.3789 10.4936 15.9884 10.8841L11.6134 15.2591C11.2229 15.6496 10.5897 15.6496 10.1992 15.2591L8.01165 13.0716C7.62112 12.6811 7.62112 12.0479 8.01164 11.6574C8.40216 11.2669 9.03532 11.2669 9.42585 11.6574L10.9063 13.1378L14.5742 9.4699C14.9647 9.07937 15.5979 9.07937 15.9884 9.4699Z" fill="black"/>
</svg>
