<svg width="24" height="24" viewBox="0 0 24 24" fill="none" xmlns="http://www.w3.org/2000/svg">
<path fill-rule="evenodd" clip-rule="evenodd" d="M12 2.16992C11.5416 2.16992 11.17 2.54153 11.17 2.99992C11.17 3.45832 11.5416 3.82992 12 3.82992C16.5122 3.82992 20.17 7.48776 20.17 11.9999C20.17 16.5121 16.5122 20.1699 12 20.1699C11.5416 20.1699 11.17 20.5415 11.17 20.9999C11.17 21.4583 11.5416 21.8299 12 21.8299C17.429 21.8299 21.83 17.4289 21.83 11.9999C21.83 6.57096 17.429 2.16992 12 2.16992ZM4.2875 14.7124C4.47917 14.9041 4.71667 14.9999 5 14.9999C5.28333 14.9999 5.52083 14.9041 5.7125 14.7124C5.90417 14.5208 6 14.2833 6 13.9999C6 13.7166 5.90417 13.4791 5.7125 13.2874C5.52083 13.0958 5.28333 12.9999 5 12.9999C4.71667 12.9999 4.47917 13.0958 4.2875 13.2874C4.09583 13.4791 4 13.7166 4 13.9999C4 14.2833 4.09583 14.5208 4.2875 14.7124ZM4.2875 18.7124C4.47917 18.9041 4.71667 18.9999 5 18.9999C5.28333 18.9999 5.52083 18.9041 5.7125 18.7124C5.90417 18.5208 6 18.2833 6 17.9999C6 17.7166 5.90417 17.4791 5.7125 17.2874C5.52083 17.0958 5.28333 16.9999 5 16.9999C4.71667 16.9999 4.47917 17.0958 4.2875 17.2874C4.09583 17.4791 4 17.7166 4 17.9999C4 18.2833 4.09583 18.5208 4.2875 18.7124ZM4.2875 10.7124C4.47917 10.9041 4.71667 10.9999 5 10.9999C5.28333 10.9999 5.52083 10.9041 5.7125 10.7124C5.90417 10.5208 6 10.2833 6 9.99992C6 9.71659 5.90417 9.47909 5.7125 9.28742C5.52083 9.09576 5.28333 8.99992 5 8.99992C4.71667 8.99992 4.47917 9.09576 4.2875 9.28742C4.09583 9.47909 4 9.71659 4 9.99992C4 10.2833 4.09583 10.5208 4.2875 10.7124ZM1.65 10.3499C1.75 10.4499 1.86667 10.4999 2 10.4999C2.13333 10.4999 2.25 10.4499 2.35 10.3499C2.45 10.2499 2.5 10.1333 2.5 9.99992C2.5 9.86659 2.45 9.74992 2.35 9.64992C2.25 9.54992 2.13333 9.49992 2 9.49992C1.86667 9.49992 1.75 9.54992 1.65 9.64992C1.55 9.74992 1.5 9.86659 1.5 9.99992C1.5 10.1333 1.55 10.2499 1.65 10.3499ZM4.2875 6.71242C4.47917 6.90409 4.71667 6.99992 5 6.99992C5.28333 6.99992 5.52083 6.90409 5.7125 6.71242C5.90417 6.52076 6 6.28326 6 5.99992C6 5.71659 5.90417 5.47909 5.7125 5.28742C5.52083 5.09576 5.28333 4.99992 5 4.99992C4.71667 4.99992 4.47917 5.09576 4.2875 5.28742C4.09583 5.47909 4 5.71659 4 5.99992C4 6.28326 4.09583 6.52076 4.2875 6.71242ZM1.65 14.3499C1.75 14.4499 1.86667 14.4999 2 14.4999C2.13333 14.4999 2.25 14.4499 2.35 14.3499C2.45 14.2499 2.5 14.1333 2.5 13.9999C2.5 13.8666 2.45 13.7499 2.35 13.6499C2.25 13.5499 2.13333 13.4999 2 13.4999C1.86667 13.4999 1.75 13.5499 1.65 13.6499C1.55 13.7499 1.5 13.8666 1.5 13.9999C1.5 14.1333 1.55 14.2499 1.65 14.3499ZM8.65 21.3499C8.75 21.4499 8.86667 21.4999 9 21.4999C9.13333 21.4999 9.25 21.4499 9.35 21.3499C9.45 21.2499 9.5 21.1333 9.5 20.9999C9.5 20.8666 9.45 20.7499 9.35 20.6499C9.25 20.5499 9.13333 20.4999 9 20.4999C8.86667 20.4999 8.75 20.5499 8.65 20.6499C8.55 20.7499 8.5 20.8666 8.5 20.9999C8.5 21.1333 8.55 21.2499 8.65 21.3499ZM8.65 3.34992C8.75 3.44992 8.86667 3.49992 9 3.49992C9.13333 3.49992 9.25 3.44992 9.35 3.34992C9.45 3.24992 9.5 3.13326 9.5 2.99992C9.5 2.86659 9.45 2.74992 9.35 2.64992C9.25 2.54992 9.13333 2.49992 9 2.49992C8.86667 2.49992 8.75 2.54992 8.65 2.64992C8.55 2.74992 8.5 2.86659 8.5 2.99992C8.5 3.13326 8.55 3.24992 8.65 3.34992ZM8.2875 6.71242C8.47917 6.90409 8.71667 6.99992 9 6.99992C9.28333 6.99992 9.52083 6.90409 9.7125 6.71242C9.90417 6.52076 10 6.28326 10 5.99992C10 5.71659 9.90417 5.47909 9.7125 5.28742C9.52083 5.09576 9.28333 4.99992 9 4.99992C8.71667 4.99992 8.47917 5.09576 8.2875 5.28742C8.09583 5.47909 8 5.71659 8 5.99992C8 6.28326 8.09583 6.52076 8.2875 6.71242ZM7.9375 15.0624C8.22917 15.3541 8.58333 15.4999 9 15.4999C9.41667 15.4999 9.77083 15.3541 10.0625 15.0624C10.3542 14.7708 10.5 14.4166 10.5 13.9999C10.5 13.5833 10.3542 13.2291 10.0625 12.9374C9.77083 12.6458 9.41667 12.4999 9 12.4999C8.58333 12.4999 8.22917 12.6458 7.9375 12.9374C7.64583 13.2291 7.5 13.5833 7.5 13.9999C7.5 14.4166 7.64583 14.7708 7.9375 15.0624ZM7.9375 11.0624C8.22917 11.3541 8.58333 11.4999 9 11.4999C9.41667 11.4999 9.77083 11.3541 10.0625 11.0624C10.3542 10.7708 10.5 10.4166 10.5 9.99992C10.5 9.58326 10.3542 9.22909 10.0625 8.93742C9.77083 8.64576 9.41667 8.49992 9 8.49992C8.58333 8.49992 8.22917 8.64576 7.9375 8.93742C7.64583 9.22909 7.5 9.58326 7.5 9.99992C7.5 10.4166 7.64583 10.7708 7.9375 11.0624ZM8.2875 18.7124C8.47917 18.9041 8.71667 18.9999 9 18.9999C9.28333 18.9999 9.52083 18.9041 9.7125 18.7124C9.90417 18.5208 10 18.2833 10 17.9999C10 17.7166 9.90417 17.4791 9.7125 17.2874C9.52083 17.0958 9.28333 16.9999 9 16.9999C8.71667 16.9999 8.47917 17.0958 8.2875 17.2874C8.09583 17.4791 8 17.7166 8 17.9999C8 18.2833 8.09583 18.5208 8.2875 18.7124Z" fill="white"/>
</svg>
