<svg xmlns="http://www.w3.org/2000/svg" width="24" height="24" viewBox="0 0 24 24">
  <path d="M11.3435992,0.715287539 C11.0831863,0.860885014 10.8772007,1.08983377 10.7603511,1.36742491 L8.08,7.732 L1.22512053,8.31757443 C0.484992991,8.38079796 -0.0637461305,9.03204268 -0.000522599173,9.77217022 L0.0202913999,9.91936013 C0.0779030204,10.2098713 0.23020961,10.4747912 0.455489374,10.6712909 L5.669,15.219 L4.10375057,21.9760646 C3.93608353,22.6997176 4.38679926,23.4222753 5.11045232,23.5899424 L5.25796218,23.6155703 C5.55422067,23.6501904 5.85522143,23.5854272 6.11253656,23.4290559 L12,19.851 L17.8874634,23.4290559 C18.5222614,23.8148248 19.3495942,23.6129467 19.735363,22.9781488 L19.8058786,22.846075 C19.9314979,22.5755432 19.9642132,22.2693971 19.8962494,21.9760646 L18.33,15.219 L23.5445106,10.6712909 C24.1043048,10.1830118 24.1622793,9.33338059 23.6740002,8.7735864 L23.5702469,8.66712818 C23.3521302,8.46677619 23.0727314,8.34301768 22.7748795,8.31757443 L15.919,7.732 L13.2396489,1.36742491 C12.951456,0.682785712 12.1628197,0.361402507 11.4781806,0.64959543 L11.3435992,0.715287539 Z M12,3.577 L14.2289424,8.87265804 L14.2876281,8.99458099 C14.5021584,9.38833005 14.9014238,9.65228805 15.354115,9.69095805 L21.066,10.178 L16.7197318,13.9702727 L16.6137749,14.0734543 C16.3152505,14.3979722 16.1926067,14.8517876 16.2935495,15.2874577 L17.596,20.911 L12.6984962,17.9353587 L12.5666841,17.8649439 C12.1627035,17.6771712 11.6877383,17.7006428 11.3015038,17.9353587 L6.403,20.911 L7.70645053,15.2874577 L7.73188257,15.1417645 C7.78372838,14.7038824 7.61728833,14.2642376 7.28026824,13.9702727 L2.933,10.178 L8.64588499,9.69095805 C9.14384527,9.64842105 9.57716043,9.33328558 9.77105759,8.87265804 L12,3.577 Z"/>
</svg>
