<svg width="240" height="240" viewBox="0 0 240 240" fill="none" xmlns="http://www.w3.org/2000/svg">
<path d="M140.115 110.583C140.115 103.693 142.85 97.084 147.719 92.209L177.651 62.2402C181.428 58.4594 178.75 52 173.406 52H61.5937C56.2501 52.0001 53.5724 58.4594 57.3486 62.2402L87.2812 92.209C92.1502 97.084 94.8847 103.693 94.8847 110.583V173.181C94.8847 175.095 95.7986 176.894 97.3437 178.023L130.573 202.322C134.537 205.221 140.115 202.39 140.115 197.479V110.583ZM160.115 197.479C160.115 218.76 135.946 231.027 118.769 218.467L85.538 194.168C78.8426 189.272 74.8847 181.475 74.8847 173.181V110.583C74.8847 108.993 74.2535 107.468 73.1298 106.343L43.1972 76.373C26.8343 59.9893 38.4382 32.0001 61.5937 32H173.406C196.562 32 208.166 59.9893 191.803 76.373L161.87 106.343C160.746 107.468 160.115 108.993 160.115 110.583V197.479Z" fill="black"/>
</svg>
