<svg width="240" height="240" viewBox="0 0 240 240" fill="none" xmlns="http://www.w3.org/2000/svg">
<path d="M170.904 132.935C170.904 105.385 156.395 74.6426 128.213 56.1826C128.448 66.3129 127.815 76.0182 126.386 84.8223C124.294 97.7073 120.349 109.588 114.11 117.9L103.841 131.584L96.957 115.921C94.7573 110.915 92.4185 106.475 89.7119 102.514C89.2278 103.438 88.7293 104.338 88.2207 105.215C85.5025 109.9 81.8425 115.003 79.1953 119.054C73.5629 127.673 69.0001 136.461 69 149.476C69 161.918 73.6029 171.759 81.292 178.59C89.0857 185.514 100.817 190 116.011 190C135.224 190 148.599 183.175 157.291 173.234C166.155 163.097 170.904 148.833 170.904 132.935ZM190.904 132.935C190.904 152.636 185.022 171.905 172.347 186.4C159.499 201.093 140.427 210 116.011 210C96.9253 210 80.1505 204.328 68.0088 193.541C55.7626 182.662 49 167.24 49 149.476C49.0001 130.846 55.8952 118.148 62.4531 108.112C65.901 102.836 68.5187 99.3197 70.9219 95.1777C73.132 91.3684 74.4674 88.1016 74.9502 84.7569L75.0068 84.3643L75.0947 83.9766C75.595 81.7684 77.2095 77.4314 82.0039 75.416C87 73.3162 91.3201 75.3623 93.6035 77.1084L94.0322 77.4531L94.1064 77.5147L94.1787 77.5781C98.4027 81.2709 101.957 85.2801 105.028 89.5283C105.64 87.0899 106.184 84.45 106.645 81.6162C108.458 70.4491 108.825 57.143 107.35 43.1856V43.1846C107.013 40.0378 107.787 35.5538 111.717 32.4697C115.372 29.602 119.541 29.6892 122.412 30.4844L122.969 30.6524L123.521 30.833L124.05 31.0762C167.932 51.3194 190.904 94.1906 190.904 132.935Z" fill="black"/>
</svg>
