<svg width="24" height="24" viewBox="0 0 24 24" fill="none" xmlns="http://www.w3.org/2000/svg">
<path fill-rule="evenodd" clip-rule="evenodd" d="M12 1.16992C12.4584 1.16992 12.83 1.54153 12.83 1.99992V21.9999C12.83 22.4583 12.4584 22.8299 12 22.8299C11.5416 22.8299 11.17 22.4583 11.17 21.9999V1.99992C11.17 1.54153 11.5416 1.16992 12 1.16992ZM3.17001 4.99992C3.17001 3.98924 3.98933 3.16992 5.00001 3.16992H8.00001C8.45841 3.16992 8.83001 3.54153 8.83001 3.99992C8.83001 4.45832 8.45841 4.82992 8.00001 4.82992H5.00001C4.90612 4.82992 4.83001 4.90603 4.83001 4.99992V18.9999C4.83001 19.0938 4.90612 19.1699 5.00001 19.1699H8.00001C8.45841 19.1699 8.83001 19.5415 8.83001 19.9999C8.83001 20.4583 8.45841 20.8299 8.00001 20.8299H5.00001C3.98933 20.8299 3.17001 20.0106 3.17001 18.9999V4.99992ZM16 4.99992C16.5523 4.99992 17 4.55221 17 3.99992C17 3.44764 16.5523 2.99992 16 2.99992C15.4477 2.99992 15 3.44764 15 3.99992C15 4.55221 15.4477 4.99992 16 4.99992ZM21 3.99992C21 4.55221 20.5523 4.99992 20 4.99992C19.4477 4.99992 19 4.55221 19 3.99992C19 3.44764 19.4477 2.99992 20 2.99992C20.5523 2.99992 21 3.44764 21 3.99992ZM20 12.9999C20.5523 12.9999 21 12.5522 21 11.9999C21 11.4476 20.5523 10.9999 20 10.9999C19.4477 10.9999 19 11.4476 19 11.9999C19 12.5522 19.4477 12.9999 20 12.9999ZM21 19.9999C21 20.5522 20.5523 20.9999 20 20.9999C19.4477 20.9999 19 20.5522 19 19.9999C19 19.4476 19.4477 18.9999 20 18.9999C20.5523 18.9999 21 19.4476 21 19.9999ZM16 20.9999C16.5523 20.9999 17 20.5522 17 19.9999C17 19.4476 16.5523 18.9999 16 18.9999C15.4477 18.9999 15 19.4476 15 19.9999C15 20.5522 15.4477 20.9999 16 20.9999ZM21 15.9999C21 16.5522 20.5523 16.9999 20 16.9999C19.4477 16.9999 19 16.5522 19 15.9999C19 15.4476 19.4477 14.9999 20 14.9999C20.5523 14.9999 21 15.4476 21 15.9999ZM20 8.99992C20.5523 8.99992 21 8.55221 21 7.99992C21 7.44764 20.5523 6.99992 20 6.99992C19.4477 6.99992 19 7.44764 19 7.99992C19 8.55221 19.4477 8.99992 20 8.99992Z" fill="white"/>
</svg>
