<svg width="24" height="24" viewBox="0 0 24 24" fill="none" xmlns="http://www.w3.org/2000/svg">
<path fill-rule="evenodd" clip-rule="evenodd" d="M12 5C9.80144 5 7.84007 6.01241 6.55515 7.6003C6.20773 8.02963 5.57806 8.09604 5.14873 7.74863C4.7194 7.40121 4.653 6.77154 5.00041 6.34221C6.64874 4.30522 9.17231 3 12 3C16.9706 3 21 7.02944 21 12C21 12.5523 20.5523 13 20 13C19.4477 13 19 12.5523 19 12C19 8.13401 15.866 5 12 5ZM4 11C4.55228 11 5 11.4477 5 12C5 15.866 8.13401 19 12 19C14.1986 19 16.1599 17.9876 17.4449 16.3997C17.7923 15.9704 18.4219 15.904 18.8513 16.2514C19.2806 16.5988 19.347 17.2285 18.9996 17.6578C17.3513 19.6948 14.8277 21 12 21C7.02944 21 3 16.9706 3 12C3 11.4477 3.44772 11 4 11Z" fill="black"/>
<path fill-rule="evenodd" clip-rule="evenodd" d="M3.29289 9.29289C3.68342 8.90237 4.31658 8.90237 4.70711 9.29289L7.70711 12.2929C8.09763 12.6834 8.09763 13.3166 7.70711 13.7071C7.31658 14.0976 6.68342 14.0976 6.29289 13.7071L4 11.4142L1.70711 13.7071C1.31658 14.0976 0.683417 14.0976 0.292893 13.7071C-0.0976311 13.3166 -0.0976311 12.6834 0.292893 12.2929L3.29289 9.29289Z" fill="black"/>
<path fill-rule="evenodd" clip-rule="evenodd" d="M20.7071 14.7071C20.3166 15.0976 19.6834 15.0976 19.2929 14.7071L16.2929 11.7071C15.9024 11.3166 15.9024 10.6834 16.2929 10.2929C16.6834 9.90237 17.3166 9.90237 17.7071 10.2929L20 12.5858L22.2929 10.2929C22.6834 9.90237 23.3166 9.90237 23.7071 10.2929C24.0976 10.6834 24.0976 11.3166 23.7071 11.7071L20.7071 14.7071Z" fill="black"/>
</svg>
