<svg width="24" height="24" viewBox="0 0 24 24" fill="none" xmlns="http://www.w3.org/2000/svg">
<g clip-path="url(#clip0_718_5)">
<path fill-rule="evenodd" clip-rule="evenodd" d="M11.32 1.56997C11.5318 1.46658 11.7643 1.41284 12 1.41284C12.2357 1.41284 12.4682 1.46658 12.68 1.56997C12.973 1.73421 13.2072 1.98596 13.35 2.28997C13.4626 2.51768 13.5628 2.75136 13.65 2.98997L17.41 12.18C17.4599 12.3021 17.4853 12.4329 17.4846 12.5648C17.484 12.6967 17.4574 12.8272 17.4063 12.9489C17.3552 13.0705 17.2807 13.1809 17.187 13.2738C17.0932 13.3666 16.9821 13.4401 16.86 13.49C16.7379 13.5399 16.6071 13.5652 16.4752 13.5646C16.3432 13.564 16.2127 13.5373 16.0911 13.4863C15.9694 13.4352 15.8591 13.3607 15.7662 13.2669C15.6734 13.1732 15.5999 13.0621 15.55 12.94L14.55 10.56H9.4L8.4 12.94C8.3501 13.0621 8.27663 13.1732 8.18379 13.2669C8.09095 13.3607 7.98055 13.4352 7.85891 13.4863C7.73726 13.5373 7.60675 13.564 7.47482 13.5646C7.34289 13.5652 7.21213 13.5399 7.09 13.49C6.96787 13.4401 6.85677 13.3666 6.76303 13.2738C6.66929 13.1809 6.59476 13.0705 6.54369 12.9489C6.49262 12.8272 6.46601 12.6967 6.46537 12.5648C6.46474 12.4329 6.4901 12.3021 6.54 12.18L10.33 3.01997C10.4172 2.78136 10.5174 2.54768 10.63 2.31997C10.7727 2.00185 11.0149 1.73866 11.32 1.56997ZM12 4.22997L13.78 8.58997H10.22L12 4.22997ZM7.5 3.58997C7.76522 3.58997 8.01957 3.48461 8.20711 3.29707C8.39464 3.10954 8.5 2.85518 8.5 2.58997C8.5 2.32475 8.39464 2.0704 8.20711 1.88286C8.01957 1.69532 7.76522 1.58997 7.5 1.58997C6.77 1.58997 6.15 1.58997 5.64 1.63997C5.13239 1.6725 4.63622 1.80504 4.18 2.02997C3.43157 2.41272 2.82276 3.02154 2.44 3.76997C2.1917 4.25934 2.04219 4.79283 2 5.33997C2 5.87997 2 6.53997 2 7.33997V21.59C2.00099 21.7874 2.06039 21.9801 2.17072 22.1438C2.28105 22.3076 2.43738 22.4349 2.62 22.51C2.80211 22.5865 3.00282 22.6075 3.19681 22.5701C3.3908 22.5327 3.56938 22.4387 3.71 22.3L6.77 19.23C6.92779 19.0437 7.10934 18.879 7.31 18.74C7.39441 18.6817 7.48961 18.6409 7.59 18.62C7.83608 18.596 8.08392 18.596 8.33 18.62H16.24C17.05 18.62 17.71 18.62 18.24 18.62C18.7844 18.5903 19.3178 18.4544 19.81 18.22C20.573 17.8207 21.1867 17.1859 21.56 16.41C21.7944 15.9177 21.9303 15.3844 21.96 14.84C21.96 14.3 21.96 13.64 21.96 12.84V7.34997C21.96 6.53997 21.96 5.87997 21.96 5.34997C21.9303 4.80556 21.7944 4.27221 21.56 3.77997C21.1789 3.02783 20.5699 2.41533 19.82 2.02997C19.3638 1.80504 18.8676 1.6725 18.36 1.63997C17.85 1.58997 17.23 1.58997 16.5 1.58997C16.2348 1.58997 15.9804 1.69532 15.7929 1.88286C15.6054 2.0704 15.5 2.32475 15.5 2.58997C15.5 2.85518 15.6054 3.10954 15.7929 3.29707C15.9804 3.48461 16.2348 3.58997 16.5 3.58997C17.25 3.58997 17.77 3.58997 18.17 3.58997C18.4259 3.60202 18.6771 3.66312 18.91 3.76997C19.2842 3.96135 19.5886 4.26575 19.78 4.63997C19.8957 4.89805 19.9569 5.17718 19.96 5.45997C19.96 5.90997 19.96 6.45997 19.96 7.34997V12.75C19.96 13.61 19.96 14.19 19.96 14.64C19.9569 14.9228 19.8957 15.2019 19.78 15.46C19.5886 15.8342 19.2842 16.1386 18.91 16.33C18.6519 16.4456 18.3728 16.5069 18.09 16.51C17.64 16.51 17.09 16.51 16.2 16.51H8.2C7.82818 16.4952 7.45587 16.5221 7.09 16.59C6.78441 16.6682 6.49149 16.7894 6.22 16.95C5.91067 17.1613 5.62561 17.4061 5.37 17.68L5.32 17.74L4 19.18V7.40997C4 6.54997 4 5.96997 4 5.51997C4.00308 5.23718 4.06435 4.95805 4.18 4.69997C4.37138 4.32575 4.67579 4.02135 5.05 3.82997C5.28286 3.72312 5.53408 3.66202 5.79 3.64997C6.23 3.59997 6.75 3.58997 7.5 3.58997Z" fill="black"/>
</g>
<defs>
<clipPath id="clip0_718_5">
<rect width="20" height="21.18" fill="white" transform="translate(2 1.40997)"/>
</clipPath>
</defs>
</svg>
