<svg width="24" height="24" viewBox="0 0 24 24" fill="none" xmlns="http://www.w3.org/2000/svg">
<path fill-rule="evenodd" clip-rule="evenodd" d="M3.82698 5.13803C3.5 5.77976 3.5 6.61984 3.5 8.3V15.7C3.5 17.3802 3.5 18.2202 3.82698 18.862C4.1146 19.4265 4.57354 19.8854 5.13803 20.173C5.77976 20.5 6.61984 20.5 8.3 20.5H15.7C17.3802 20.5 18.2202 20.5 18.862 20.173C19.4265 19.8854 19.8854 19.4265 20.173 18.862C20.5 18.2202 20.5 17.3802 20.5 15.7V8.3C20.5 6.61984 20.5 5.77976 20.173 5.13803C19.8854 4.57354 19.4265 4.1146 18.862 3.82698C18.2202 3.5 17.3802 3.5 15.7 3.5H8.3C6.61984 3.5 5.77976 3.5 5.13803 3.82698C4.57354 4.1146 4.1146 4.57354 3.82698 5.13803ZM12 5.67001C12.337 5.67001 12.6406 5.87381 12.7682 6.18575L17.2682 17.1857C17.4418 17.61 17.2386 18.0947 16.8143 18.2682C16.39 18.4418 15.9054 18.2385 15.7318 17.8143L14.511 14.83H9.48906L8.26822 17.8143C8.09466 18.2385 7.61002 18.4418 7.18575 18.2682C6.76149 18.0947 6.55825 17.61 6.73181 17.1857L11.2318 6.18575C11.3594 5.87381 11.663 5.67001 12 5.67001ZM12 8.69211L13.8319 13.17H10.1681L12 8.69211Z" fill="white"/>
</svg>
