<svg width="24" height="24" viewBox="0 0 24 24" fill="none" xmlns="http://www.w3.org/2000/svg">
<path fill-rule="evenodd" clip-rule="evenodd" d="M9.69027 5.5C10.1403 4.55 11.0403 4 11.9903 4C12.9403 4 13.8469 4.55 14.2903 5.5C14.7336 6.45 17.3903 13.2 18.8903 16.9C19.1903 17.95 18.5703 20.08 16.4903 20C15.9236 19.9833 14.6803 19.64 14.2403 18.6C13.8003 17.56 13.4903 16.7667 13.3903 16.5H10.5903L9.74027 18.6C9.50694 19.0667 8.73027 20 7.49027 20C5.94027 20 4.64027 18.35 5.09027 16.9C5.53027 15.78 9.24027 6.45 9.69027 5.5ZM11.9903 5.7C11.5403 5.7 11.2903 6 11.1903 6.2C11.0903 6.4 6.85027 16.86 6.69027 17.3C6.53027 17.74 6.94027 18.35 7.49027 18.35C7.99027 18.35 8.19027 18 8.24027 17.9C8.29027 17.8 9.49027 14.85 9.49027 14.85H14.4903C14.8736 15.8 15.6503 17.72 15.6903 17.8C15.7403 17.9 16.0403 18.35 16.4903 18.35C17.1264 18.35 17.3998 17.5739 17.2903 17.3C17.1807 17.0261 12.8903 6.4 12.7903 6.2C12.6903 6 12.4403 5.7 11.9903 5.7Z" fill="black"/>
<path d="M10.1903 13.15H13.7903L11.9903 8.7L10.1903 13.15Z" fill="black"/>
</svg>
