<svg width="24" height="24" viewBox="0 0 24 24" fill="none" xmlns="http://www.w3.org/2000/svg">
<g clip-path="url(#clip0_109_4919)">
<path fill-rule="evenodd" clip-rule="evenodd" d="M12.0001 4.00488C12.403 3.5217 13.0097 3.25626 13.638 3.28831C14.1457 3.31421 14.5526 3.58961 14.8324 3.8053C15.1257 4.03134 15.4716 4.35108 15.8675 4.717L21.436 9.8632C21.6354 10.0475 21.828 10.2255 21.9775 10.3889C22.1405 10.5671 22.3183 10.7967 22.4229 11.102C22.5667 11.5219 22.5667 11.9778 22.4229 12.3978C22.3183 12.7031 22.1405 12.9327 21.9775 13.1109C21.828 13.2743 21.6354 13.4523 21.436 13.6366L15.8676 18.7827C15.4716 19.1487 15.1257 19.4684 14.8324 19.6945C14.5526 19.9102 14.1457 20.1856 13.638 20.2115C13.0097 20.2435 12.403 19.9781 12.0001 19.4949C11.6745 19.1044 11.6006 18.6188 11.5691 18.2669C11.5361 17.8981 11.5361 17.427 11.5361 16.8879L11.5361 16.2825C8.51637 16.4831 6.52782 17.5762 5.27619 18.6309L5.25246 18.6509C4.79307 19.038 4.41811 19.354 4.13353 19.5704C3.98967 19.6797 3.83845 19.7874 3.69089 19.8706C3.58374 19.931 3.30653 20.0829 2.9598 20.0706C2.73419 20.0626 2.48706 20.0092 2.25033 19.8718C2.0136 19.7344 1.84461 19.5463 1.72573 19.3544C1.55775 19.0832 1.53812 18.801 1.53388 18.6632C1.52881 18.4984 1.54407 18.3257 1.56366 18.1665C1.60202 17.855 1.67803 17.4399 1.76843 16.9461L1.77453 16.9127C2.12204 15.0145 2.87488 12.6101 4.52685 10.6647C6.05904 8.86045 8.31246 7.51524 11.5361 7.28489L11.5361 6.61192C11.5361 6.07281 11.5361 5.60172 11.5691 5.23293C11.6006 4.88102 11.6745 4.39533 12.0001 4.00488ZM13.5667 5.35566C13.5648 5.37264 13.5629 5.39118 13.5611 5.41136C13.5371 5.67973 13.5361 6.05942 13.5361 6.6572V8.24989C13.5361 8.80218 13.0884 9.24989 12.5361 9.24989C9.34853 9.24989 7.35053 10.4294 6.05134 11.9593C4.71818 13.5292 4.05793 15.5463 3.74184 17.2729C3.73926 17.287 3.73671 17.3009 3.73418 17.3147C3.81372 17.2478 3.89803 17.1768 3.98743 17.1015C5.71082 15.6493 8.44834 14.2499 12.5361 14.2499C12.8013 14.2499 13.0557 14.3552 13.2432 14.5428C13.4308 14.7303 13.5361 14.9847 13.5361 15.2499V16.8426C13.5361 17.4404 13.5371 17.8201 13.5611 18.0884C13.5629 18.1086 13.5648 18.1271 13.5667 18.1441C13.5805 18.134 13.5954 18.1228 13.6114 18.1104C13.8248 17.9459 14.1043 17.6889 14.5433 17.2832L20.0539 12.1905C20.2873 11.9749 20.4161 11.8547 20.5017 11.7611C20.5053 11.7572 20.5086 11.7534 20.5118 11.7499C20.5086 11.7463 20.5053 11.7426 20.5017 11.7387C20.4161 11.6451 20.2873 11.5249 20.0539 11.3093L14.5434 6.21656C14.1043 5.81084 13.8248 5.55385 13.6114 5.38935C13.5954 5.37699 13.5805 5.36579 13.5667 5.35566ZM2.70415 18.1308C2.70416 18.1308 2.70472 18.1305 2.70582 18.13ZM3.53287 18.5961C3.53402 18.6094 3.53326 18.6123 3.53293 18.6017C3.53289 18.6003 3.53286 18.5985 3.53287 18.5961Z" fill="black"/>
<path fill-rule="evenodd" clip-rule="evenodd" d="M12.5361 8.24989V6.6572C12.5361 5.50139 12.5361 4.92349 12.7681 4.64529C12.9695 4.40371 13.2729 4.27098 13.5871 4.28701C13.9488 4.30546 14.3732 4.69769 15.2221 5.48215L20.7326 10.5748C21.1742 10.9829 21.3949 11.1869 21.4768 11.4259C21.5487 11.6359 21.5487 11.8639 21.4768 12.0739C21.3949 12.3128 21.1742 12.5169 20.7326 12.9249L15.2221 18.0176C14.3732 18.8021 13.9488 19.1943 13.5871 19.2128C13.2729 19.2288 12.9695 19.0961 12.7681 18.8545C12.5361 18.5763 12.5361 17.9984 12.5361 16.8426V15.2499C8.69826 15.2499 6.18595 16.5566 4.6318 17.8662C3.67288 18.6742 3.19342 19.0782 2.9952 19.0712C2.80762 19.0646 2.67469 18.9874 2.57586 18.8279C2.47142 18.6592 2.56701 18.1371 2.75818 17.0928C3.42178 13.4679 5.58436 8.24989 12.5361 8.24989Z" fill="black"/>
</g>
<defs>
<clipPath id="clip0_109_4919">
<rect width="24" height="24" fill="white" transform="matrix(-1 0 0 1 24.0005 -0.000106812)"/>
</clipPath>
</defs>
</svg>
