<svg width="24" height="24" viewBox="0 0 24 24" fill="none" xmlns="http://www.w3.org/2000/svg">
<path fill-rule="evenodd" clip-rule="evenodd" d="M11.996 4.00498C12.3989 3.52181 13.0056 3.25636 13.6339 3.28841C14.1417 3.31431 14.5485 3.58972 14.8283 3.80541C15.1216 4.03145 15.4675 4.35119 15.8634 4.7171L21.4319 9.86331C21.6313 10.0476 21.824 10.2256 21.9735 10.389C22.1364 10.5672 22.3142 10.7968 22.4188 11.1021C22.5626 11.5221 22.5626 11.9779 22.4188 12.3979C22.3142 12.7032 22.1364 12.9328 21.9735 13.111C21.824 13.2744 21.6314 13.4524 21.4319 13.6367L15.8635 18.7828C15.4676 19.1488 15.1216 19.4685 14.8283 19.6946C14.5485 19.9103 14.1417 20.1857 13.6339 20.2116C13.0056 20.2436 12.3989 19.9782 11.996 19.495C11.6704 19.1046 11.5965 18.6189 11.565 18.267C11.532 17.8982 11.532 17.4271 11.532 16.888L11.532 16.2826C8.51229 16.4832 6.52374 17.5763 5.2721 18.631L5.24837 18.651C4.78898 19.0381 4.41402 19.3541 4.12944 19.5705C3.98558 19.6799 3.83436 19.7875 3.6868 19.8707C3.57965 19.9311 3.30245 20.083 2.95572 20.0707C2.7301 20.0627 2.48297 20.0093 2.24624 19.8719C2.00951 19.7345 1.84052 19.5465 1.72164 19.3545C1.55366 19.0833 1.53403 18.8011 1.52979 18.6633C1.52472 18.4985 1.53998 18.3258 1.55958 18.1666C1.59793 17.8551 1.67394 17.44 1.76434 16.9462L1.77044 16.9129C2.11795 15.0146 2.87079 12.6102 4.52276 10.6648C6.05495 8.86056 8.30837 7.51535 11.532 7.285L11.532 6.61203C11.532 6.07292 11.532 5.60183 11.565 5.23304C11.5965 4.88113 11.6704 4.39544 11.996 4.00498ZM13.5626 5.35577C13.5607 5.37275 13.5589 5.39128 13.557 5.41146C13.533 5.67983 13.532 6.05953 13.532 6.65731V8.25C13.532 8.80228 13.0843 9.25 12.532 9.25C9.34444 9.25 7.34644 10.4295 6.04725 11.9594C4.71409 13.5293 4.05384 15.5464 3.73775 17.273C3.73517 17.2871 3.73262 17.301 3.73009 17.3148C3.80963 17.248 3.89394 17.1769 3.98334 17.1016C5.70673 15.6494 8.44425 14.25 12.532 14.25C12.7973 14.25 13.0516 14.3554 13.2391 14.5429C13.4267 14.7304 13.532 14.9848 13.532 15.25V16.8427C13.532 17.4405 13.533 17.8202 13.557 18.0885C13.5589 18.1087 13.5607 18.1272 13.5626 18.1442C13.5764 18.1341 13.5913 18.1229 13.6073 18.1105C13.8207 17.946 14.1002 17.6891 14.5393 17.2833L20.0498 12.1906C20.2832 11.975 20.412 11.8548 20.4976 11.7612C20.5012 11.7573 20.5046 11.7535 20.5077 11.75C20.5046 11.7465 20.5012 11.7427 20.4976 11.7388C20.412 11.6452 20.2832 11.525 20.0498 11.3094L14.5393 6.21667C14.1003 5.81094 13.8207 5.55395 13.6073 5.38946C13.5913 5.37709 13.5764 5.3659 13.5626 5.35577ZM2.70006 18.1309C2.70007 18.1309 2.70063 18.1306 2.70173 18.1301ZM3.52878 18.5962C3.52994 18.6095 3.52917 18.6124 3.52885 18.6018C3.5288 18.6004 3.52878 18.5986 3.52878 18.5962Z" fill="black"/>
</svg>
