<svg width="24" height="24" viewBox="0 0 24 24" fill="none" xmlns="http://www.w3.org/2000/svg">
<path d="M10.5001 1.5C4.70112 1.50004 7.5575e-05 6.20103 7.5575e-05 12C7.5575e-05 17.799 4.70112 22.5 10.5001 22.5C11.0524 22.5 11.5001 22.0523 11.5001 21.5C11.5001 20.9477 11.0524 20.5 10.5001 20.5C5.80569 20.5 2.00008 16.6944 2.00008 12C2.00008 7.3056 5.80569 3.50004 10.5001 3.5C15.0521 3.5 18.769 7.07812 18.9903 11.5752L17.7071 10.293C17.3166 9.90248 16.6836 9.90246 16.293 10.293C15.9026 10.6835 15.9026 11.3165 16.293 11.707L19.293 14.707L19.3692 14.7754C19.762 15.0957 20.341 15.0731 20.7071 14.707L23.7071 11.707C24.0976 11.3165 24.0976 10.6835 23.7071 10.293C23.3166 9.90248 22.6836 9.90246 22.293 10.293L20.9903 11.5957C20.7778 5.98412 16.1637 1.5 10.5001 1.5Z" fill="black"/>
<path d="M5.53711 14.8213C5.53711 14.5283 5.69824 14.2744 6.18652 13.7959L7.87598 12.0576C8.39844 11.5254 8.61816 11.1738 8.61816 10.8027C8.61816 10.3242 8.27148 10.002 7.75879 10.002C7.34375 10.002 7.04102 10.2119 6.82617 10.6465C6.61133 10.9785 6.42578 11.1055 6.14258 11.1055C5.75684 11.1055 5.48828 10.8418 5.48828 10.4707C5.48828 9.5625 6.51367 8.71289 7.84668 8.71289C9.18945 8.71289 10.1709 9.5332 10.1709 10.6514C10.1709 11.3398 9.83887 11.9453 9.02344 12.7461L7.63184 14.1523V14.2207H9.66309C10.1172 14.2207 10.4004 14.4648 10.4004 14.8652C10.4004 15.2607 10.1221 15.5 9.66309 15.5H6.32324C5.84961 15.5 5.53711 15.2314 5.53711 14.8213ZM10.8354 14.1328C10.8354 13.752 11.0844 13.4346 11.4799 13.4346C11.7143 13.4346 11.8949 13.5225 12.0805 13.7422C12.4174 14.1572 12.7689 14.3525 13.2133 14.3525C13.8578 14.3525 14.3168 13.918 14.3168 13.2734C14.3168 12.6631 13.8773 12.2432 13.2621 12.2432C12.9594 12.2432 12.6371 12.3604 12.3441 12.5703C12.1 12.7607 11.9291 12.8193 11.7338 12.8193C11.2553 12.8193 10.8988 12.4824 10.933 11.9893L11.0941 9.61621C11.1283 9.09375 11.4506 8.83008 12.0609 8.83008H14.8344C15.3031 8.83008 15.5668 9.06934 15.5668 9.47949C15.5668 9.88477 15.308 10.1094 14.8344 10.1094H12.3832L12.2758 11.5547H12.3588C12.5932 11.2471 13.1205 11.0469 13.6967 11.0469C14.9857 11.0469 15.8549 11.9209 15.8549 13.2295C15.8549 14.6895 14.81 15.6465 13.1986 15.6465C11.8559 15.6465 10.8354 14.9189 10.8354 14.1328Z" fill="black"/>
</svg>
