<svg width="24" height="24" viewBox="0 0 24 24" fill="none" xmlns="http://www.w3.org/2000/svg">
<path d="M7.16688 3.16992C6.63504 3.16991 6.18635 3.1699 5.81882 3.19993C5.43398 3.23137 5.06563 3.29983 4.71521 3.47837C4.18271 3.7497 3.74977 4.18263 3.47845 4.71513C3.2999 5.06555 3.23145 5.43391 3.20001 5.81874C3.16998 6.18627 3.16999 6.63495 3.17 7.16678V8.99992C3.17 9.45832 3.5416 9.82992 4 9.82992C4.4584 9.82992 4.83 9.45832 4.83 8.99992V7.19992C4.83 6.62617 4.83065 6.24578 4.85449 5.95392C4.87755 5.67174 4.91808 5.54616 4.95752 5.46875C5.06969 5.2486 5.24868 5.06962 5.46883 4.95745C5.54624 4.91801 5.67182 4.87747 5.95399 4.85442C6.24586 4.83057 6.62625 4.82992 7.2 4.82992H9C9.4584 4.82992 9.83 4.45832 9.83 3.99992C9.83 3.54153 9.4584 3.16992 9 3.16992H7.16688Z" fill="white"/>
<path d="M16.8331 3.16992C17.365 3.16991 17.8137 3.1699 18.1812 3.19993C18.566 3.23137 18.9344 3.29983 19.2848 3.47837C19.8173 3.7497 20.2502 4.18263 20.5216 4.71513C20.7001 5.06555 20.7686 5.43391 20.8 5.81874C20.83 6.18628 20.83 6.63496 20.83 7.1668V8.99992C20.83 9.45832 20.4584 9.82992 20 9.82992C19.5416 9.82992 19.17 9.45832 19.17 8.99992V7.19992C19.17 6.62617 19.1694 6.24578 19.1455 5.95392C19.1225 5.67174 19.0819 5.54616 19.0425 5.46875C18.9303 5.2486 18.7513 5.06962 18.5312 4.95745C18.4538 4.91801 18.3282 4.87747 18.046 4.85442C17.7541 4.83057 17.3738 4.82992 16.8 4.82992H15C14.5416 4.82992 14.17 4.45832 14.17 3.99992C14.17 3.54153 14.5416 3.16992 15 3.16992H16.8331Z" fill="white"/>
<path d="M7.16688 20.8299H9C9.4584 20.8299 9.83 20.4583 9.83 19.9999C9.83 19.5415 9.4584 19.1699 9 19.1699H7.2C6.62625 19.1699 6.24586 19.1693 5.95399 19.1454C5.67182 19.1224 5.54624 19.0818 5.46883 19.0424C5.24868 18.9302 5.06969 18.7512 4.95752 18.5311C4.91808 18.4537 4.87755 18.3281 4.85449 18.0459C4.83065 17.7541 4.83 17.3737 4.83 16.7999V14.9999C4.83 14.5415 4.4584 14.1699 4 14.1699C3.5416 14.1699 3.17 14.5415 3.17 14.9999V16.833C3.16999 17.3649 3.16998 17.8136 3.20001 18.1811C3.23145 18.5659 3.2999 18.9343 3.47845 19.2847C3.74977 19.8172 4.18271 20.2502 4.71521 20.5215C5.06563 20.7 5.43398 20.7685 5.81882 20.7999C6.18635 20.8299 6.63504 20.8299 7.16688 20.8299Z" fill="white"/>
<path d="M16.8331 20.8299C17.365 20.8299 17.8136 20.8299 18.1812 20.7999C18.566 20.7685 18.9344 20.7 19.2848 20.5215C19.8173 20.2502 20.2502 19.8172 20.5216 19.2847C20.7001 18.9343 20.7686 18.5659 20.8 18.1811C20.83 17.8136 20.83 17.3649 20.83 16.833V14.9999C20.83 14.5415 20.4584 14.1699 20 14.1699C19.5416 14.1699 19.17 14.5415 19.17 14.9999V16.7999C19.17 17.3737 19.1694 17.7541 19.1455 18.0459C19.1225 18.3281 19.0819 18.4537 19.0425 18.5311C18.9303 18.7512 18.7513 18.9302 18.5312 19.0424C18.4538 19.0818 18.3282 19.1224 18.046 19.1454C17.7541 19.1693 17.3738 19.1699 16.8 19.1699H15C14.5416 19.1699 14.17 19.5415 14.17 19.9999C14.17 20.4583 14.5416 20.8299 15 20.8299H16.8331Z" fill="white"/>
</svg>
