<svg width="24" height="24" viewBox="0 0 24 24" fill="none" xmlns="http://www.w3.org/2000/svg">
<path fill-rule="evenodd" clip-rule="evenodd" d="M7.5 6C7.5 3.51472 9.51472 1.5 12 1.5C14.4853 1.5 16.5 3.51472 16.5 6V11C16.5 12.1372 16.0781 13.1759 15.3824 13.9682L16.7987 15.3844C17.8554 14.2285 18.5 12.6896 18.5 11C18.5 10.4477 18.9477 10 19.5 10C20.0523 10 20.5 10.4477 20.5 11C20.5 13.2418 19.6321 15.281 18.214 16.7998L21.7071 20.2929C22.0976 20.6834 22.0976 21.3166 21.7071 21.7071C21.3166 22.0976 20.6834 22.0976 20.2929 21.7071L2.29289 3.70711C1.90237 3.31658 1.90237 2.68342 2.29289 2.29289C2.68342 1.90237 3.31658 1.90237 3.70711 2.29289L7.5 6.08579V6ZM9.5 8.08579L13.9628 12.5486C14.2992 12.1227 14.5 11.5848 14.5 11V6C14.5 4.61929 13.3807 3.5 12 3.5C10.6193 3.5 9.5 4.61929 9.5 6V8.08579ZM7.5 10.3271L12.6293 15.4564C12.4236 15.4851 12.2136 15.5 12 15.5C9.51472 15.5 7.5 13.4853 7.5 11V10.3271ZM15.7855 18.6126L14.2667 17.0938C13.561 17.3565 12.7972 17.5 12 17.5C8.41015 17.5 5.5 14.5899 5.5 11C5.5 10.4477 5.05228 10 4.5 10C3.94772 10 3.5 10.4477 3.5 11C3.5 15.3561 6.77683 18.9469 11 19.4418V21.5C11 22.0523 11.4477 22.5 12 22.5C12.5523 22.5 13 22.0523 13 21.5V19.4418C13.9906 19.3257 14.9291 19.0393 15.7855 18.6126Z" fill="black"/>
</svg>
