<svg width="28" height="26" viewBox="0 0 28 26" fill="none" xmlns="http://www.w3.org/2000/svg">
<path d="M0.999573 7.66054C0.999573 8.32719 0.999573 8.99389 0.999573 9.66059C9.6662 9.66059 18.3329 9.66059 26.9996 9.66059C26.9996 8.99389 26.9996 8.32719 26.9996 7.66054C18.3329 7.66054 9.6662 7.66054 0.999573 7.66054ZM13.3179 1.00039C11.8599 0.954857 10.707 2.10239 10.3008 3.42445C9.6115 5.09962 8.82294 6.73855 8.2023 8.43879C7.93458 9.77199 8.6321 11.0184 8.92551 12.2908C9.9987 15.921 11.0524 19.5573 12.1378 23.1836C12.6182 24.5504 14.6195 24.8988 15.5169 23.7497C16.1216 22.8739 16.2226 21.7624 16.5787 20.7724C17.6549 17.0873 18.76 13.4101 19.818 9.71999C20.0913 8.29689 19.1704 7.0721 18.7122 5.79208C18.1702 4.61334 17.7579 3.36728 17.112 2.2423C16.3854 1.14221 15.0213 0.915937 13.8027 1.00039C13.6411 1.00039 13.4795 1.00039 13.3179 1.00039ZM13.3179 3.00039C14.118 3.06793 15.2431 2.71242 15.628 3.67315C16.3643 5.41628 17.1377 7.14538 17.8508 8.89729C17.8661 9.77169 17.43 10.5952 17.2383 11.4454C16.1587 15.1154 15.0792 18.7855 13.9996 22.4555C12.7137 18.0487 11.3889 13.6517 10.1275 9.23889C10.2269 8.34619 10.7675 7.55822 11.0679 6.71407C11.5742 5.60039 11.9853 4.43513 12.5537 3.35504C12.7389 3.12993 13.0284 2.99855 13.3179 3.00039ZM7.02887 1.00039C5.74106 0.949277 4.74133 1.87823 4.11931 2.91151C3.01991 4.49075 1.83961 6.01825 0.795053 7.63258C0.137813 8.86819 0.598483 10.3358 1.50334 11.305C4.91412 15.759 8.31336 20.2222 11.7314 24.6705C12.9602 26.1767 15.5681 25.9602 16.5603 24.2971C20.0497 19.7232 23.5606 15.1651 27.0366 10.5814C27.8791 9.35489 27.5096 7.73119 26.5716 6.67911C25.3914 5.07661 24.3025 3.40047 23.0604 1.84789C21.9684 0.708287 20.3287 1.05559 18.9204 1.00039C14.9565 1.00039 10.9927 1.00039 7.02887 1.00039ZM7.02887 3.00039C11.676 3.00039 16.3231 3.00039 20.9703 3.00039C21.8663 3.08467 22.1502 4.0766 22.6779 4.66971C23.585 5.95532 24.5208 7.22208 25.41 8.51949C25.7973 9.39679 24.8713 10.0063 24.4632 10.6717C21.2403 14.8861 18.0174 19.1005 14.7945 23.3149C14.0906 24.2309 13.1263 23.4001 12.7155 22.6751C9.3486 18.2574 5.95343 13.8595 2.60415 9.42939C2.18686 8.56899 3.09804 7.92335 3.48153 7.24712C4.45322 5.9177 5.36685 4.54134 6.37555 3.24184C6.55497 3.08633 6.79156 2.99949 7.02887 3.00039Z" fill="black"/>
</svg>
