<svg width="22" height="21" viewBox="0 0 22 21" fill="none" xmlns="http://www.w3.org/2000/svg">
<path fill-rule="evenodd" clip-rule="evenodd" d="M9.5382 1.61061C9.6884 1.22656 10.0587 0.973808 10.4711 0.973808H11.5289C11.9413 0.973808 12.3116 1.22655 12.4618 1.61061L14.0817 5.7522H7.9183L9.5382 1.61061ZM6.4902 5.7522H0.84576C0.85775 5.734 0.87013 5.7159 0.88292 5.698L3.83498 1.56512C4.14783 1.12713 4.65295 0.867188 5.1912 0.867188H8.4196C8.3747 0.950258 8.3346 1.03667 8.2996 1.12614L6.4902 5.7522ZM0.91521 7.6792C0.77629 7.4975 0.67948 7.2941 0.625 7.0822H6.2687C6.2814 7.1873 6.3013 7.2918 6.3285 7.3951L9.2828 18.6214L0.91521 7.6792ZM11.2593 14.9909L12.8556 12.8694L12.8591 12.8561C12.1305 13.385 11.5667 14.1272 11.2593 14.9909ZM11.0132 16.8468C11.0544 17.388 11.1914 17.9025 11.4072 18.3733L11.5642 17.7769L11.0763 16.9622C11.0536 16.9243 11.0326 16.8858 11.0132 16.8468ZM9.7894 15.3205L7.6214 7.0822H14.3786L13.324 11.0897C11.5352 11.8098 10.1858 13.3913 9.7894 15.3205ZM14.7987 10.7118L15.6715 7.3951C15.6987 7.2918 15.7186 7.1873 15.7314 7.0822H21.3753C21.3209 7.2941 21.2241 7.4975 21.0851 7.6792L19.1252 10.2422L18.2713 11.3588C18.2694 11.3613 18.2674 11.3639 18.2654 11.3664C17.4426 10.9222 16.5007 10.6701 15.5 10.6701C15.2627 10.6701 15.0286 10.6842 14.7987 10.7118ZM15.1559 12.013C15.2695 12.0044 15.3842 12.0001 15.5 12.0001C15.6158 12.0001 15.7305 12.0044 15.8441 12.013H15.1559ZM21.1174 5.698C21.1302 5.7159 21.1426 5.734 21.1546 5.7522H15.5098L13.7004 1.12614C13.6654 1.03667 13.6253 0.950247 13.5805 0.867188H16.8091C17.3474 0.867188 17.8525 1.12713 18.1654 1.56512L21.1174 5.698Z" fill="black"/>
<path fill-rule="evenodd" clip-rule="evenodd" d="M15.5 21C17.9853 21 20 18.9853 20 16.5C20 14.0147 17.9853 12 15.5 12C13.0147 12 11 14.0147 11 16.5C11 18.9853 13.0147 21 15.5 21ZM16.2202 14.0298C15.9605 13.7701 15.5395 13.7701 15.2798 14.0298C15.0201 14.2895 15.0201 14.7105 15.2798 14.9702L16.1445 15.835H13.25C12.8827 15.835 12.585 16.1327 12.585 16.5C12.585 16.8673 12.8827 17.165 13.25 17.165H16.1445L15.2798 18.0298C15.0201 18.2895 15.0201 18.7105 15.2798 18.9702C15.5395 19.2299 15.9605 19.2299 16.2202 18.9702L18.2202 16.9702C18.4799 16.7105 18.4799 16.2895 18.2202 16.0298L16.2202 14.0298Z" fill="black"/>
</svg>
