<svg width="24" height="24" viewBox="0 0 24 24" fill="none" xmlns="http://www.w3.org/2000/svg">
<path d="M17.3136 2.5L17.4542 2.50391C18.1544 2.5461 18.8013 2.90265 19.212 3.47754L21.9903 7.36719C22.5489 8.14927 22.5678 9.18682 22.0548 9.98438L21.9454 10.1406L21.9346 10.1553C21.5988 10.5937 20.9707 10.6766 20.5323 10.3408C20.0939 10.005 20.0109 9.37692 20.3468 8.93848L20.3575 8.9248C20.4458 8.80857 20.4482 8.64815 20.3634 8.5293L17.585 4.63965C17.5381 4.57397 17.4694 4.52851 17.3927 4.50977L17.3136 4.5H6.68562C6.57815 4.50011 6.47762 4.55224 6.41512 4.63965L3.6368 8.5293C3.55168 8.64845 3.55371 8.80947 3.64266 8.92578L11.7354 19.5078C11.8688 19.6818 12.1314 19.682 12.2647 19.5078L13.6427 17.7051C13.9781 17.2664 14.6063 17.1831 15.045 17.5186C15.4834 17.8541 15.5669 18.4813 15.2315 18.9199L13.8536 20.7227C12.9198 21.9438 11.0805 21.9436 10.1466 20.7227L2.05379 10.1406C1.4312 9.32648 1.41331 8.20126 2.00887 7.36719L4.78719 3.47754C5.22512 2.86442 5.9322 2.50011 6.68562 2.5H17.3136Z" fill="black"/>
<path d="M12.393 2.84961C13.3372 2.84961 14.1804 3.44362 14.4975 4.33301L16.0425 8.66992C16.1935 9.09365 16.2135 9.55329 16.0991 9.98828L13.5151 19.8066C13.1049 21.3635 10.8946 21.3627 10.4848 19.8057L7.90183 9.98828C7.78734 9.55324 7.80648 9.09361 7.95749 8.66992L9.50339 4.33301C9.82052 3.44379 10.6628 2.84972 11.6069 2.84961H12.393ZM11.6069 4.65039C11.4238 4.6505 11.2602 4.76509 11.1987 4.9375L9.6528 9.27441C9.62357 9.35659 9.61988 9.44597 9.64206 9.53027L12.0005 18.4902L14.3579 9.53027L14.3706 9.46582C14.3774 9.40137 14.3691 9.33596 14.3471 9.27441L12.8012 4.9375C12.7396 4.76516 12.5761 4.65039 12.393 4.65039H11.6069Z" fill="black"/>
<path d="M20.667 8.2334V10.0342H3.33398V8.2334H20.667Z" fill="black"/>
<path d="M19.293 11.7929C19.6835 11.4024 20.3165 11.4024 20.707 11.7929L23.707 14.7929C24.0976 15.1834 24.0976 15.8164 23.707 16.207L20.707 19.207C20.3165 19.5975 19.6835 19.5975 19.293 19.207C18.9024 18.8164 18.9024 18.1834 19.293 17.7929L20.5859 16.4999H17C16.4477 16.4999 16 16.0522 16 15.4999C16 14.9476 16.4477 14.4999 17 14.4999H20.5859L19.293 13.207C18.9024 12.8164 18.9024 12.1834 19.293 11.7929Z" fill="black"/>
</svg>
