<svg width="30" height="25" viewBox="0 0 30 25" fill="none" xmlns="http://www.w3.org/2000/svg">
<path d="M18.0391 0.998047C17.2837 1.00829 16.5266 0.987427 15.7724 1.01294C14.8115 1.1624 14.791 2.76275 15.7191 2.98033C17.2818 3.04184 18.8538 2.95311 20.4192 3.02938C21.1806 2.96323 21.9732 3.57098 21.947 4.36797C22.0633 6.33423 21.954 8.3086 22.0175 10.2732C22.2279 11.2037 23.8302 11.1945 23.9857 10.2336C24.0124 8.2669 24.0037 6.29653 23.9902 4.32852C23.9409 2.69158 22.5828 1.18602 20.9309 1.0641C19.9713 0.961727 19.0024 1.02097 18.0391 0.998047ZM19.293 6.29297C18.7964 6.71649 19.0204 7.4717 19.4397 7.8657C20.4389 8.8329 21.4045 9.8361 22.4006 10.8067C22.9367 11.2436 23.6714 10.8444 24.0384 10.3756C24.9778 9.4093 25.975 8.4946 26.8759 7.4938C27.3937 6.72644 26.3875 5.71008 25.5902 6.06116C25.2415 6.25406 25.0185 6.60667 24.719 6.86695C24.146 7.4399 23.573 8.0129 23 8.5859C22.2108 7.7996 21.4273 7.0073 20.6343 6.22479C20.2561 5.90573 19.6348 5.93106 19.293 6.29297Z" fill="black"/>
<path d="M7.00012 14C6.12579 13.9812 5.94557 14.8769 6.00012 15.5506C6.01518 16.9813 5.96402 18.414 6.03663 19.8428C6.13306 21.4944 7.5968 22.9146 9.24864 22.9719C10.9095 23.0275 12.5728 22.9882 14.2348 23C14.8232 23 15.4117 23 16.0001 23C17.375 23.0462 17.228 20.8909 15.9657 21C13.8691 20.9894 11.7717 21.0251 9.67566 20.9738C9.01828 21.0188 8.29399 20.6958 8.10737 20.0185C7.92894 18.7935 8.02373 17.5485 8.00012 16.3139C7.97721 15.7624 8.05563 15.1993 7.93981 14.658C7.80414 14.2699 7.41126 13.9948 7.00012 14ZM6.29308 13.293C5.29308 14.293 4.29308 15.293 3.29308 16.293C2.29795 17.2048 3.91523 18.7087 4.75581 17.6584C5.50391 16.9103 6.25201 16.1622 7.00012 15.4141C7.76444 16.1784 8.52876 16.9427 9.29308 17.7071C10.2326 18.7117 11.6523 17.084 10.6828 16.2687C9.69093 15.2768 8.69904 14.2849 7.70715 13.293C7.33975 12.9049 6.66048 12.9049 6.29308 13.293Z" fill="black"/>
<path d="M4.13125 0C3.48633 0 2.87719 0.31312 2.50234 0.83789L1.11562 2.7793C0.607402 3.49081 0.623542 4.46168 1.15469 5.15625L5.4125 10.7227C6.19757 11.7493 7.8032 11.7493 8.58828 10.7227L12.8461 5.15625C13.3771 4.46171 13.3933 3.49085 12.8852 2.7793L11.4984 0.83789C11.1236 0.31305 10.5145 0 9.86953 0H4.13125ZM4.13125 2H9.86953L11.2563 3.94141L7.00039 9.5078L2.74453 3.94141L4.13125 2Z" fill="black"/>
<path d="M20.1312 13C19.4862 13 18.8771 13.3131 18.5023 13.8379L17.1156 15.7793C16.6074 16.4909 16.6235 17.4617 17.1546 18.1562L21.4124 23.7227C22.1975 24.7492 23.8031 24.7492 24.5882 23.7227L28.846 18.1562C29.3772 17.4617 29.3933 16.4909 28.8851 15.7793L27.4984 13.8379C27.1235 13.3131 26.5144 13 25.8695 13H20.1312ZM20.1312 15H25.8695L27.2562 16.9414L23.0003 22.5078L18.7445 16.9414L20.1312 15Z" fill="black"/>
</svg>
