<svg width="9" height="12" viewBox="0 0 9 12" fill="none" xmlns="http://www.w3.org/2000/svg">
<path fill-rule="evenodd" clip-rule="evenodd" d="M7.5 2C7.5 1.44772 7.05228 1 6.5 1H3.5C2.11929 1 1 2.11929 1 3.5V4.5C1 5.88071 2.11929 7 3.5 7H5.5C5.77614 7 6 7.22386 6 7.5V8.5C6 8.77614 5.77614 9 5.5 9H2.5C1.94772 9 1.5 9.44772 1.5 10C1.5 10.5523 1.94772 11 2.5 11H5.5C6.88071 11 8 9.88071 8 8.5V7.5C8 6.11929 6.88071 5 5.5 5H3.5C3.22386 5 3 4.77614 3 4.5V3.5C3 3.22386 3.22386 3 3.5 3H6.5C7.05228 3 7.5 2.55228 7.5 2Z" fill="white"/>
</svg>
