<svg width="9" height="12" viewBox="0 0 9 12" fill="none" xmlns="http://www.w3.org/2000/svg">
<path fill-rule="evenodd" clip-rule="evenodd" d="M1.5 10C1.5 10.5523 1.94772 11 2.5 11L5.5 11C6.88071 11 8 9.88071 8 8.5L8 3.5C8 2.11929 6.88071 1 5.5 1L3.5 1C2.11929 1 1 2.11929 1 3.5L1 4.5C1 5.88071 2.11929 7 3.5 7L6 7L6 8.5C6 8.77614 5.77614 9 5.5 9L2.5 9C1.94772 9 1.5 9.44772 1.5 10ZM6 5L3.5 5C3.22386 5 3 4.77614 3 4.5L3 3.5C3 3.22386 3.22386 3 3.5 3L5.5 3C5.77614 3 6 3.22386 6 3.5L6 5Z" fill="white"/>
</svg>
