<svg width="9" height="12" viewBox="0 0 9 12" fill="none" xmlns="http://www.w3.org/2000/svg">
<path fill-rule="evenodd" clip-rule="evenodd" d="M1 2C1 1.44772 1.44772 1 2 1H5.5C6.88071 1 8 2.11929 8 3.5V4.5C8 5.88071 6.88071 7 5.5 7H2C1.44772 7 1 6.55228 1 6C1 5.44772 1.44772 5 2 5H5.5C5.77614 5 6 4.77614 6 4.5V3.5C6 3.22386 5.77614 3 5.5 3H2C1.44772 3 1 2.55228 1 2Z" fill="white"/>
<path fill-rule="evenodd" clip-rule="evenodd" d="M1 6C1 5.44772 1.44772 5 2 5H5.5C6.88071 5 8 6.11929 8 7.5V8.5C8 9.88071 6.88071 11 5.5 11H2C1.44772 11 1 10.5523 1 10C1 9.44772 1.44772 9 2 9H5.5C5.77614 9 6 8.77614 6 8.5V7.5C6 7.22386 5.77614 7 5.5 7H2C1.44772 7 1 6.55228 1 6Z" fill="white"/>
</svg>
