<svg width="9" height="12" viewBox="0 0 9 12" fill="none" xmlns="http://www.w3.org/2000/svg">
<path fill-rule="evenodd" clip-rule="evenodd" d="M1 3.5C1 2.11929 2.11929 1 3.5 1H5.5C6.88071 1 8 2.11929 8 3.5V4.5C8 5.88071 6.88071 7 5.5 7H3.5C2.11929 7 1 5.88071 1 4.5V3.5ZM3.5 3C3.22386 3 3 3.22386 3 3.5V4.5C3 4.77614 3.22386 5 3.5 5H5.5C5.77614 5 6 4.77614 6 4.5V3.5C6 3.22386 5.77614 3 5.5 3H3.5Z" fill="white"/>
<path fill-rule="evenodd" clip-rule="evenodd" d="M1 7.5C1 6.11929 2.11929 5 3.5 5H5.5C6.88071 5 8 6.11929 8 7.5V8.5C8 9.88071 6.88071 11 5.5 11H3.5C2.11929 11 1 9.88071 1 8.5V7.5ZM3.5 7C3.22386 7 3 7.22386 3 7.5V8.5C3 8.77614 3.22386 9 3.5 9H5.5C5.77614 9 6 8.77614 6 8.5V7.5C6 7.22386 5.77614 7 5.5 7H3.5Z" fill="white"/>
</svg>
