<svg width="9" height="12" viewBox="0 0 9 12" fill="none" xmlns="http://www.w3.org/2000/svg">
<path fill-rule="evenodd" clip-rule="evenodd" d="M7.84813 2.53013C8.14084 2.0618 7.99847 1.44485 7.53013 1.15214C7.0618 0.859425 6.44485 1.0018 6.15214 1.47013L4.50014 4.11333L2.84813 1.47013C2.55542 1.0018 1.93847 0.859425 1.47013 1.15214C1.0018 1.44485 0.859426 2.0618 1.15214 2.53014L3.32089 6.00012L1.15214 9.47013C0.859425 9.93847 1.0018 10.5554 1.47013 10.8481C1.93847 11.1408 2.55542 10.9985 2.84813 10.5301L4.50015 7.88691L6.15214 10.5301C6.44485 10.9984 7.0618 11.1408 7.53014 10.8481C7.99847 10.5554 8.14084 9.93841 7.84813 9.47007L5.67939 6.00012L7.84813 2.53013Z" fill="white"/>
</svg>
