<svg width="9" height="12" viewBox="0 0 9 12" fill="none" xmlns="http://www.w3.org/2000/svg">
<path fill-rule="evenodd" clip-rule="evenodd" d="M1.5 2C1.5 1.44772 1.94772 1 2.5 1H5.5C6.88071 1 8 2.11929 8 3.5V4.5C8 5.88071 6.88071 7 5.5 7H3.5C3.22386 7 3 7.22386 3 7.5V8.5C3 8.77614 3.22386 9 3.5 9H6.5C7.05228 9 7.5 9.44772 7.5 10C7.5 10.5523 7.05228 11 6.5 11H3.5C2.11929 11 1 9.88071 1 8.5V7.5C1 6.11929 2.11929 5 3.5 5H5.5C5.77614 5 6 4.77614 6 4.5V3.5C6 3.22386 5.77614 3 5.5 3H2.5C1.94772 3 1.5 2.55228 1.5 2Z" fill="white"/>
</svg>
