<svg width="24" height="24" viewBox="0 0 24 24" fill="none" xmlns="http://www.w3.org/2000/svg">
<path d="M15 2.1699C16.3864 2.1699 17.4762 2.16967 18.3516 2.24119C19.2366 2.3135 19.9752 2.46365 20.6465 2.80564C21.7435 3.36458 22.6354 4.25652 23.1943 5.35349C23.5363 6.02474 23.6865 6.7634 23.7588 7.64841C23.8303 8.52381 23.8301 9.61355 23.8301 11V13C23.8301 14.3864 23.8303 15.4761 23.7588 16.3515C23.6865 17.2366 23.5363 17.9752 23.1943 18.6465C22.6354 19.7434 21.7435 20.6354 20.6465 21.1943C19.9752 21.5363 19.2366 21.6865 18.3516 21.7588C17.4762 21.8303 16.3864 21.8301 15 21.8301H9C7.61356 21.8301 6.52384 21.8303 5.64844 21.7588C4.76341 21.6865 4.02477 21.5363 3.35352 21.1943C2.25654 20.6354 1.3646 19.7434 0.805664 18.6465C0.46368 17.9752 0.313521 17.2366 0.241211 16.3515C0.16969 15.4761 0.169922 14.3864 0.169922 13V11C0.169922 9.61355 0.169688 8.52381 0.241211 7.64841C0.313522 6.7634 0.463677 6.02474 0.805664 5.35349C1.36461 4.25652 2.25654 3.36458 3.35352 2.80564C4.02476 2.46365 4.76341 2.3135 5.64844 2.24119C6.52384 2.16967 7.61357 2.1699 9 2.1699H15ZM9 3.83006C7.58617 3.83006 6.57532 3.83077 5.7832 3.89548C5.00101 3.95942 4.50465 4.08127 4.10645 4.28416C3.32197 4.68392 2.68394 5.32195 2.28418 6.10642C2.08129 6.50462 1.95944 7.00099 1.89551 7.78318C1.83079 8.5753 1.83008 9.58616 1.83008 11V13C1.83008 14.4138 1.83079 15.4247 1.89551 16.2168C1.95944 16.999 2.08129 17.4953 2.28418 17.8935C2.68394 18.678 3.32197 19.316 4.10645 19.7158C4.50465 19.9187 5.00101 20.0405 5.7832 20.1045C6.57533 20.1692 7.58617 20.1699 9 20.1699H15C16.4138 20.1699 17.4247 20.1692 18.2168 20.1045C18.999 20.0405 19.4954 19.9187 19.8936 19.7158C20.678 19.316 21.3161 18.678 21.7158 17.8935C21.9187 17.4953 22.0406 16.999 22.1045 16.2168C22.1692 15.4247 22.1699 14.4138 22.1699 13V11C22.1699 9.58616 22.1692 8.5753 22.1045 7.78318C22.0406 7.00099 21.9187 6.50462 21.7158 6.10642C21.3161 5.32195 20.678 4.68392 19.8936 4.28416C19.4954 4.08127 18.999 3.95942 18.2168 3.89548C17.4247 3.83077 16.4138 3.83006 15 3.83006H9ZM7.39551 8.46189C7.98263 8.46189 8.53901 8.60554 9.02832 8.86033C9.43479 9.0721 9.59257 9.57392 9.38086 9.98045C9.16895 10.3864 8.66801 10.5444 8.26172 10.333C8.00351 10.1985 7.70948 10.122 7.39551 10.122C6.35839 10.1222 5.51775 10.9629 5.51758 12C5.51775 13.0371 6.35839 13.8787 7.39551 13.8789C8.05672 13.8789 8.69108 13.4998 8.93457 12.8301H8.47949C8.0212 12.8301 7.64958 12.4582 7.64941 12C7.64959 11.5417 8.0212 11.1699 8.47949 11.1699H9.53223C10.2105 11.1699 10.7428 11.7521 10.6826 12.4277L10.6494 12.7969L10.6455 12.8379L10.6387 12.8779C10.3107 14.6031 8.81892 15.539 7.39551 15.539C5.44159 15.5389 3.85759 13.9539 3.85742 12C3.8576 10.0461 5.4416 8.46207 7.39551 8.46189ZM13.082 8.46189C13.5401 8.46233 13.9121 8.83384 13.9121 9.29197V14.709C13.9118 15.1668 13.5398 15.5386 13.082 15.539C12.6238 15.539 12.2523 15.1671 12.252 14.709V9.29197C12.252 8.83357 12.6236 8.46189 13.082 8.46189ZM19.3125 8.46189C19.7707 8.46207 20.1426 8.83368 20.1426 9.29197C20.1424 9.75011 19.7706 10.1219 19.3125 10.122H17.4346V11.1699H19.3125C19.7706 11.1701 20.1424 11.5419 20.1426 12C20.1424 12.4581 19.7706 12.8299 19.3125 12.8301H17.4346V14.709C17.4342 15.167 17.0625 15.5389 16.6045 15.539C16.1463 15.539 15.7748 15.1671 15.7744 14.709V10.1582C15.7744 10.0204 15.7734 9.86706 15.7842 9.73533C15.7957 9.59372 15.8248 9.40529 15.9238 9.21091L15.9766 9.11619C16.1084 8.90133 16.2976 8.72637 16.5234 8.61131L16.667 8.54978C16.8087 8.49928 16.9415 8.48034 17.0479 8.47166C17.1796 8.46092 17.333 8.46189 17.4707 8.46189H19.3125Z" fill="black"/>
</svg>
