<svg width="24" height="24" viewBox="0 0 24 24" fill="none" xmlns="http://www.w3.org/2000/svg">
<path d="M11.0034 6.61919H9.40065C8.58398 6.61919 7.94999 6.41229 7.4987 5.99848C7.0474 5.58468 6.82176 5.09884 6.82176 4.54098C6.82176 3.99513 7.00361 3.56764 7.36732 3.25849C7.73102 2.94935 8.20194 2.79478 8.78008 2.79478C9.39314 2.79478 9.91696 3.00989 10.3515 3.44011C10.7861 3.87033 11.0034 4.44756 11.0034 5.17179V6.61919H13V5.17179C13 4.44756 13.0797 3.87033 13.5147 3.44011C13.9497 3.00989 14.4766 2.79478 15.0956 2.79478C15.6671 2.79478 16.1346 2.94935 16.4979 3.25849C16.8612 3.56764 17.0428 3.99513 17.0428 4.54098C17.0428 5.09884 16.8173 5.58468 16.3664 5.99848C15.9155 6.41229 15.2816 6.61919 14.465 6.61919H13H17.9593C18.2612 6.33865 18.4989 6.01022 18.6725 5.63392C18.846 5.25761 18.9328 4.84511 18.9328 4.39642C18.9328 3.73796 18.7673 3.15211 18.4364 2.63887C18.1055 2.12563 17.6617 1.72418 17.1052 1.43451C16.5486 1.14484 15.9256 1 15.2363 1C14.4769 1 13.8029 1.19361 13.2142 1.58082C12.6255 1.96803 12.2001 2.51573 11.9379 3.22394C11.6758 2.51573 11.2487 1.96803 10.6565 1.58082C10.0644 1.19361 9.38875 1 8.62954 1C7.94676 1 7.32543 1.14484 6.76556 1.43451C6.20569 1.72418 5.76027 2.12563 5.42929 2.63887C5.0983 3.15211 4.93281 3.73796 4.93281 4.39642C4.93281 4.84511 5.01959 5.25761 5.19315 5.63392C5.3667 6.01022 5.60449 6.33865 5.90651 6.61919H11.0034Z" fill="white"/>
<path fill-rule="evenodd" clip-rule="evenodd" d="M10.9999 6.60011V9.45684C10.9999 9.48382 11.0064 9.51039 11.019 9.53428C11.0617 9.61579 11.1625 9.6472 11.244 9.60443L11.6901 9.37034C11.8841 9.26859 12.1157 9.26859 12.3096 9.37034L12.7558 9.60443C12.7797 9.61696 12.8062 9.62351 12.8332 9.62351C12.9253 9.62351 12.9999 9.54889 12.9999 9.45684V6.60011H20.6665C21.4029 6.60011 21.9999 7.19706 21.9999 7.93344V10.6001C21.9999 11.3365 21.4029 11.9334 20.6665 11.9334H19.9999L20 11.9501C19.9461 11.9392 19.8903 11.9334 19.8332 11.9334L16.5742 11.9329C17.1945 12.117 17.6312 12.6996 17.6133 13.3656L17.6098 13.4361C17.6056 13.4914 17.5984 13.5462 17.5881 13.6002L19.8332 13.6001C19.8903 13.6001 19.9461 13.5944 20 13.5834L19.9999 19.6001C19.9999 21.0729 18.806 22.2668 17.3332 22.2668H12.9999V19.5523C12.9999 19.342 12.9007 19.1452 12.7345 19.02L12.6876 18.9876L12.1771 18.6673C12.0687 18.5993 11.931 18.5993 11.8227 18.6673L11.3122 18.9876C11.1179 19.1096 10.9999 19.3229 10.9999 19.5523V22.2668H6.66654C5.19379 22.2668 3.99988 21.0729 3.99988 19.6001V13.6001L6.4259 13.6001C6.35377 13.2221 6.43116 12.8179 6.66885 12.4839L6.71853 12.4181C6.90448 12.1855 7.15554 12.0176 7.43603 11.9333L3.33321 11.9334C2.59683 11.9334 1.99988 11.3365 1.99988 10.6001V7.93344C1.99988 7.19706 2.59683 6.60011 3.33321 6.60011H10.9999ZM11.5825 10.5612L10.6309 12.7526C10.5636 12.9076 10.4159 13.0125 10.2474 13.0251L7.82115 13.2062C7.69506 13.2157 7.57857 13.2771 7.49962 13.3759C7.3427 13.5722 7.37461 13.8585 7.5709 14.0154L8.36924 14.6536C8.7493 14.9575 9.23848 15.0898 9.71988 15.019L11.884 14.7009C11.975 14.6875 12.0642 14.7348 12.1042 14.8177C12.1547 14.9224 12.1108 15.0483 12.0061 15.0988L10.1432 15.998C9.72875 16.198 9.42221 16.5689 9.30378 17.0136L8.98792 18.1996C8.95671 18.3168 8.97357 18.4416 9.03476 18.5463C9.16155 18.7633 9.44023 18.8364 9.6572 18.7096L11.7703 17.4747C11.9121 17.3918 12.0876 17.3918 12.2295 17.4747L14.36 18.7198C14.4629 18.7799 14.5854 18.7973 14.7009 18.7681C14.9446 18.7066 15.0923 18.4592 15.0308 18.2156L14.4631 15.9657C14.4198 15.7941 14.4799 15.613 14.6172 15.5013L16.4459 14.0141C16.543 13.9351 16.6032 13.8197 16.6125 13.6949C16.6313 13.4443 16.4433 13.226 16.1927 13.2073L13.7524 13.0251C13.5839 13.0125 13.4362 12.9076 13.3689 12.7526L12.4172 10.5612C12.3713 10.4554 12.2869 10.371 12.1811 10.3251C11.9506 10.225 11.6826 10.3307 11.5825 10.5612Z" fill="white"/>
</svg>
