<?xml version="1.0" encoding="UTF-8" standalone="no"?>
<svg
   width="24"
   height="24"
   viewBox="0 0 24 24"
   fill="none"
   version="1.1"
   id="svg240"
   xmlns="http://www.w3.org/2000/svg"
   xmlns:svg="http://www.w3.org/2000/svg">
  <defs
     id="defs244" />
  <path
     style="color:#000000;fill:#000000;-inkscape-stroke:none"
     d="m 3,11 v 3.599609 c 0,2.240198 -0.051289,3.499709 0.5449219,4.669922 0.4793194,0.940641 1.2448666,1.70624 2.1855468,2.185547 C 6.9006637,22.051363 8.1601829,22 10.400391,22 h 3.199218 c 2.240198,0 3.499701,0.05134 4.669922,-0.544922 0.940629,-0.479313 1.706234,-1.244918 2.185547,-2.185547 C 21.051335,18.09931 21,16.839807 21,14.599609 V 11 h -2 v 3.599609 c 0,2.240198 -0.05043,3.220543 -0.326172,3.761719 -0.287686,0.56457 -0.74793,1.024814 -1.3125,1.3125 C 16.820152,19.949571 15.839807,20 13.599609,20 H 10.400391 C 8.1601829,20 7.1797552,19.949543 6.6386719,19.673828 6.0740536,19.386137 5.6138517,18.925886 5.3261719,18.361328 5.050444,17.820143 5,16.839807 5,14.599609 V 11 Z"
     id="path230" />
  <path
     style="color:#000000;fill:#000000;-inkscape-stroke:none"
     d="M 6,5 C 3.802709,5 2,6.802709 2,9 c 0,1.645023 1.3550102,3 3,3 h 14 c 1.645005,0 3,-1.354995 3,-3 0,-2.1972709 -1.802675,-4 -4,-4 z m 0,2 h 12 c 1.116472,0 2,0.8835742 2,2 0,0.5641927 -0.435807,1 -1,1 H 5 C 4.435852,10 4,9.5641745 4,9 4,7.8835943 4.8835943,7 6,7 Z"
     id="path232" />
  <path
     style="color:#000000;fill:#000000;-inkscape-stroke:none"
     d="M 9.5,0 C 7.5788502,0 6,1.5788502 6,3.5 6,5.4211498 7.5788502,7 9.5,7 H 13 V 3.5 C 13,1.5788453 11.421144,0 9.5,0 Z m 0,2 C 10.340253,2 11,2.6597374 11,3.5 V 5 H 9.5 C 8.6597326,5 8,4.3402674 8,3.5 8,2.6597326 8.6597326,2 9.5,2 Z"
     id="path234" />
  <path
     style="color:#000000;fill:#000000;-inkscape-stroke:none"
     d="M 14.5,0 C 12.578856,0 11,1.5788453 11,3.5 V 7 h 3.5 C 16.421144,7 18,5.4211547 18,3.5 18,1.5788453 16.421144,0 14.5,0 Z m 0,2 C 15.340253,2 16,2.6597374 16,3.5 16,4.3402626 15.340253,5 14.5,5 H 13 V 3.5 C 13,2.6597374 13.659747,2 14.5,2 Z"
     id="path236" />
  <path
     style="color:#000000;fill:#000000;-inkscape-stroke:none"
     d="m 11,5 v 16 h 2 V 5 Z"
     id="path238" />
</svg>
