<svg width="24" height="24" viewBox="0 0 24 24" fill="none" xmlns="http://www.w3.org/2000/svg">
<path d="M6 20C5.45 20 4.97917 19.8042 4.5875 19.4125C4.19583 19.0208 4 18.55 4 18C4 17.45 4.19583 16.9792 4.5875 16.5875C4.97917 16.1958 5.45 16 6 16C6.55 16 7.02083 16.1958 7.4125 16.5875C7.80417 16.9792 8 17.45 8 18C8 18.55 7.80417 19.0208 7.4125 19.4125C7.02083 19.8042 6.55 20 6 20ZM14 20C13.45 20 12.9792 19.8042 12.5875 19.4125C12.1958 19.0208 12 18.55 12 18C12 17.45 12.1958 16.9792 12.5875 16.5875C12.9792 16.1958 13.45 16 14 16C14.55 16 15.0208 16.1958 15.4125 16.5875C15.8042 16.9792 16 17.45 16 18C16 18.55 15.8042 19.0208 15.4125 19.4125C15.0208 19.8042 14.55 20 14 20ZM10 16C9.45 16 8.97917 15.8042 8.5875 15.4125C8.19583 15.0208 8 14.55 8 14C8 13.45 8.19583 12.9792 8.5875 12.5875C8.97917 12.1958 9.45 12 10 12C10.55 12 11.0208 12.1958 11.4125 12.5875C11.8042 12.9792 12 13.45 12 14C12 14.55 11.8042 15.0208 11.4125 15.4125C11.0208 15.8042 10.55 16 10 16ZM18 16C17.45 16 16.9792 15.8042 16.5875 15.4125C16.1958 15.0208 16 14.55 16 14C16 13.45 16.1958 12.9792 16.5875 12.5875C16.9792 12.1958 17.45 12 18 12C18.55 12 19.0208 12.1958 19.4125 12.5875C19.8042 12.9792 20 13.45 20 14C20 14.55 19.8042 15.0208 19.4125 15.4125C19.0208 15.8042 18.55 16 18 16ZM6 12C5.45 12 4.97917 11.8042 4.5875 11.4125C4.19583 11.0208 4 10.55 4 10C4 9.45 4.19583 8.97917 4.5875 8.5875C4.97917 8.19583 5.45 8 6 8C6.55 8 7.02083 8.19583 7.4125 8.5875C7.80417 8.97917 8 9.45 8 10C8 10.55 7.80417 11.0208 7.4125 11.4125C7.02083 11.8042 6.55 12 6 12ZM14 12C13.45 12 12.9792 11.8042 12.5875 11.4125C12.1958 11.0208 12 10.55 12 10C12 9.45 12.1958 8.97917 12.5875 8.5875C12.9792 8.19583 13.45 8 14 8C14.55 8 15.0208 8.19583 15.4125 8.5875C15.8042 8.97917 16 9.45 16 10C16 10.55 15.8042 11.0208 15.4125 11.4125C15.0208 11.8042 14.55 12 14 12ZM10 8C9.45 8 8.97917 7.80417 8.5875 7.4125C8.19583 7.02083 8 6.55 8 6C8 5.45 8.19583 4.97917 8.5875 4.5875C8.97917 4.19583 9.45 4 10 4C10.55 4 11.0208 4.19583 11.4125 4.5875C11.8042 4.97917 12 5.45 12 6C12 6.55 11.8042 7.02083 11.4125 7.4125C11.0208 7.80417 10.55 8 10 8ZM18 8C17.45 8 16.9792 7.80417 16.5875 7.4125C16.1958 7.02083 16 6.55 16 6C16 5.45 16.1958 4.97917 16.5875 4.5875C16.9792 4.19583 17.45 4 18 4C18.55 4 19.0208 4.19583 19.4125 4.5875C19.8042 4.97917 20 5.45 20 6C20 6.55 19.8042 7.02083 19.4125 7.4125C19.0208 7.80417 18.55 8 18 8Z" fill="white"/>
</svg>
