<svg width="15" height="18" viewBox="0 0 15 18" fill="none" xmlns="http://www.w3.org/2000/svg">
<path fill-rule="evenodd" clip-rule="evenodd" d="M4.95004 8.4C6.30314 8.4 7.40004 7.3031 7.40004 5.95C7.40004 4.5969 6.30314 3.5 4.95004 3.5C3.59694 3.5 2.50004 4.5969 2.50004 5.95C2.50004 7.3031 3.59694 8.4 4.95004 8.4ZM0.0500488 12.6168C0.0500488 13.3807 0.669316 14 1.43322 14H7.49065H8.46687H8.46688C9.03981 14 9.53138 13.6517 9.74135 13.1552C9.81135 12.9897 9.85005 12.8078 9.85005 12.6168C9.85005 12.2989 9.79654 11.9811 9.65869 11.7062C9.59272 11.5747 9.50745 11.453 9.39948 11.3458C9.22327 11.1708 8.99006 10.9719 8.69078 10.7765C8.6746 10.766 8.65823 10.7554 8.64167 10.7449C7.87508 10.2572 6.69194 9.8 4.95005 9.8C2.47418 9.8 1.12715 10.7236 0.500617 11.3458C0.16703 11.677 0.0500488 12.1467 0.0500488 12.6168ZM10.6038 14H13.6071C14.2383 14 14.7501 13.4883 14.7501 12.8571C14.7501 12.4592 14.6482 12.0622 14.3618 11.7861C13.8239 11.2677 12.6695 10.5 10.5501 10.5C10.4317 10.5 10.3163 10.5024 10.2039 10.507L10.2183 10.5212C10.8568 11.1554 11.012 11.9827 11.012 12.6168C11.012 13.1268 10.862 13.6018 10.6038 14ZM10.5501 9.10001C11.7099 9.10001 12.6501 8.1598 12.6501 7.00001C12.6501 5.84021 11.7099 4.90001 10.5501 4.90001C9.39026 4.90001 8.45005 5.84021 8.45005 7.00001C8.45005 8.1598 9.39026 9.10001 10.5501 9.10001Z" fill="black"/>
</svg>
