<svg width="24" height="24" viewBox="0 0 24 24" fill="none" xmlns="http://www.w3.org/2000/svg">
<path fill-rule="evenodd" clip-rule="evenodd" d="M6 7C6 5.89543 6.89543 5 8 5C9.10457 5 10 5.89543 10 7C10 8.10457 9.10457 9 8 9C6.89543 9 6 8.10457 6 7ZM8 3C5.79086 3 4 4.79086 4 7C4 9.20914 5.79086 11 8 11C10.2091 11 12 9.20914 12 7C12 4.79086 10.2091 3 8 3ZM2.3483 15.9178C3.06824 15.2029 4.74379 14 8 14C11.2562 14 12.9318 15.2029 13.6517 15.9178C13.8658 16.1304 14 16.4936 14 17.024C14 17.563 13.563 18 13.024 18H2.97596C2.43695 18 2 17.563 2 17.024C2 16.4936 2.13422 16.1304 2.3483 15.9178ZM8 12C4.18231 12 2.0092 13.436 0.939037 14.4987C0.20001 15.2325 0 16.2113 0 17.024C0 18.6676 1.33238 20 2.97596 20H13.024C14.6676 20 16 18.6676 16 17.024C16 16.2113 15.8 15.2325 15.061 14.4987C13.9908 13.436 11.8177 12 8 12ZM16.5009 13.825C16.5245 13.2732 16.9909 12.845 17.5427 12.8686C20.5256 12.9959 22.266 14.1597 23.1528 15.0402C23.8237 15.7064 24 16.5894 24 17.3063C24 18.794 22.794 20 21.3063 20H18C17.4477 20 17 19.5523 17 19C17 18.4477 17.4477 18 18 18H21.3063C21.6894 18 22 17.6894 22 17.3063C22 16.8719 21.8896 16.6044 21.7436 16.4594C21.1824 15.9022 19.904 14.9712 17.4573 14.8668C16.9056 14.8432 16.4774 14.3768 16.5009 13.825ZM15.5 8.5C15.5 7.67157 16.1716 7 17 7C17.8284 7 18.5 7.67157 18.5 8.5C18.5 9.32843 17.8284 10 17 10C16.1716 10 15.5 9.32843 15.5 8.5ZM17 5C15.067 5 13.5 6.567 13.5 8.5C13.5 10.433 15.067 12 17 12C18.933 12 20.5 10.433 20.5 8.5C20.5 6.567 18.933 5 17 5Z" fill="black"/>
</svg>
