<svg width="30" height="30" viewBox="0 0 30 30" fill="none" xmlns="http://www.w3.org/2000/svg">
<path d="M10.938 15.25C13.8303 15.25 15.9226 16.0205 17.4136 17.165C18.8955 18.3025 19.7034 19.7482 20.1431 20.9707C20.5075 21.9839 20.2538 22.9705 19.6431 23.6729C19.0506 24.3542 18.1472 24.75 17.188 24.75H4.68804C3.72884 24.75 2.82543 24.3542 2.23296 23.6729C1.62232 22.9705 1.36858 21.9839 1.73296 20.9707C2.17272 19.7482 2.98058 18.3025 4.46245 17.165C5.95352 16.0205 8.0458 15.25 10.938 15.25ZM10.938 17.25C8.41784 17.25 6.77138 17.9144 5.68023 18.752C4.57998 19.5966 3.96248 20.6809 3.6148 21.6475C3.51196 21.9334 3.57459 22.167 3.74273 22.3604C3.92913 22.5747 4.26657 22.75 4.68804 22.75H17.188C17.6095 22.75 17.9469 22.5747 18.1334 22.3604C18.3015 22.167 18.3641 21.9334 18.2613 21.6475C17.9136 20.6809 17.2961 19.5966 16.1959 18.752C15.1047 17.9144 13.4582 17.25 10.938 17.25Z" fill="#4E8EE5"/>
<path d="M20.3125 15.0713C20.0817 15.0713 19.8562 15.0768 19.6367 15.0879C19.0854 15.1159 18.6609 15.5855 18.6884 16.1367C18.7163 16.6883 19.1867 17.1138 19.7382 17.0859C19.9232 17.0766 20.1145 17.0713 20.3125 17.0713C22.4967 17.0713 23.891 17.6602 24.7978 18.3809C25.7155 19.1103 26.2196 20.0431 26.4961 20.8623C26.5513 21.0262 26.5165 21.1467 26.4218 21.2549C26.3104 21.3822 26.0959 21.5 25.8125 21.5H22.1875C21.6352 21.5 21.1875 21.9477 21.1875 22.5C21.1875 23.0522 21.6352 23.5 22.1875 23.5H25.8125C26.6336 23.5 27.4106 23.1618 27.9267 22.5723C28.4596 21.9635 28.6884 21.1054 28.3906 20.2227C28.0289 19.1509 27.3428 17.8488 26.0429 16.8154C24.7317 15.7732 22.8796 15.0713 20.3125 15.0713Z" fill="#4E8EE5"/>
<path d="M18.9902 5.919C19.5648 4.89019 20.8104 4.50139 21.8476 4.91314C22.3278 5.10379 22.7419 5.45606 23.0039 5.92486L23.1064 6.13287L23.3066 6.59771L23.875 6.6397C25.065 6.72913 26.1016 7.76155 25.9921 9.10357C25.9405 9.73592 25.6301 10.3012 25.1611 10.6846L24.791 10.9854L24.8984 11.4102C25.2274 12.7202 24.3663 13.9185 23.1875 14.1905C22.6175 14.3219 22.0126 14.2337 21.5 13.9327L20.9951 13.6358L20.5019 13.9258C19.4643 14.535 18.078 14.2536 17.3945 13.1846C17.0541 12.6522 16.9465 11.9967 17.1113 11.3751L17.2148 10.9854L16.8544 10.6963C15.8531 9.89212 15.7001 8.4064 16.5644 7.41802L16.7236 7.25298C17.1121 6.88936 17.6097 6.67743 18.125 6.63872L18.6835 6.59771L18.8847 6.13287L18.9902 5.919ZM21.1093 6.77154C20.9573 6.71145 20.7836 6.78117 20.7207 6.92681L20.1093 8.33892C20.0664 8.43819 19.9692 8.50632 19.8574 8.5147L18.2744 8.63287C18.1947 8.63895 18.1206 8.67571 18.0693 8.73443C17.9637 8.85529 17.9805 9.03541 18.1064 9.13677L18.625 9.55279C18.8841 9.76088 19.2254 9.84916 19.5585 9.794L21.1982 9.52251C21.2589 9.51245 21.3199 9.54165 21.3466 9.59478C21.3796 9.66052 21.3507 9.73987 21.2822 9.77154L19.8085 10.4493C19.5325 10.5764 19.3293 10.8143 19.2539 11.0987L19.0449 11.8877C19.0252 11.9624 19.0381 12.0418 19.08 12.1075C19.1661 12.2416 19.349 12.2834 19.4892 12.2012L20.8398 11.4083C20.9353 11.3523 21.0558 11.3523 21.1513 11.4083L22.5126 12.2081C22.5801 12.2477 22.6613 12.26 22.7382 12.2422C22.8983 12.2053 22.9965 12.0509 22.958 11.8975L22.5849 10.4122C22.5587 10.3076 22.5963 10.1978 22.6816 10.128L23.8955 9.1358C23.9554 9.08667 23.9927 9.01683 23.999 8.94146C24.0118 8.78429 23.8895 8.64638 23.7255 8.63384L22.1337 8.5147C22.0219 8.50632 21.9247 8.43821 21.8818 8.33892L21.2714 6.92681C21.2412 6.85681 21.1824 6.80054 21.1093 6.77154Z" fill="#4E8EE5"/>
<path d="M8.85684 3.61909C9.42659 2.59896 10.621 2.16751 11.6791 2.47261L11.9027 2.54878L12.1176 2.64643C12.5375 2.86195 12.8957 3.19819 13.1342 3.62495L13.2426 3.84565L13.7826 5.09663L15.2377 5.206C16.51 5.30144 17.6086 6.4033 17.4926 7.82417C17.4378 8.49452 17.1082 9.09485 16.6088 9.50288L15.5629 10.3564L15.8773 11.6093C16.2254 12.9959 15.3158 14.2711 14.057 14.5615C13.4486 14.7018 12.8036 14.6069 12.2572 14.2861L10.9936 13.5439L9.74747 14.2763C8.63955 14.9268 7.16145 14.6238 6.43497 13.4873C6.07369 12.9219 5.9595 12.2272 6.13418 11.5683L6.44864 10.3857C6.45273 10.3702 6.45801 10.3551 6.46231 10.3398C6.36749 10.277 6.27449 10.2105 6.18497 10.1386L5.40762 9.5146C4.34349 8.65968 4.18208 7.08387 5.09903 6.03511L5.26895 5.85932C5.68239 5.47247 6.21291 5.2463 6.76309 5.20503L8.20352 5.09663L8.74454 3.84565L8.85684 3.61909ZM11.1654 4.40815C10.9373 4.31756 10.675 4.42092 10.5805 4.6396L9.66446 6.75874C9.59996 6.90742 9.45405 7.00887 9.28653 7.02143L6.9125 7.19917C6.79285 7.20819 6.682 7.26337 6.60489 7.35151C6.44627 7.53291 6.47132 7.80299 6.66055 7.95503L7.43692 8.57905C7.82582 8.8914 8.33929 9.02431 8.83926 8.94136L11.2982 8.53315C11.3893 8.51804 11.4798 8.56272 11.5199 8.64253C11.5694 8.74125 11.5263 8.85978 11.4232 8.90718L9.21329 9.92378C8.79911 10.1145 8.4944 10.4716 8.38125 10.8984L8.06778 12.081C8.03812 12.1929 8.05676 12.3116 8.11954 12.4101C8.24855 12.6119 8.52417 12.6754 8.73477 12.5517L10.7602 11.3632C10.9035 11.2791 11.0846 11.2791 11.2279 11.3632L13.2699 12.5615C13.3711 12.6208 13.4925 12.6398 13.6078 12.6132C13.8479 12.5578 13.9957 12.3258 13.9379 12.0957L13.3783 9.86811C13.3389 9.7112 13.3947 9.54606 13.5229 9.44136L15.3432 7.95405C15.4336 7.88018 15.4901 7.7746 15.4994 7.66108C15.5185 7.42528 15.3343 7.21869 15.0883 7.20014L12.7016 7.02143C12.534 7.00886 12.3871 6.90754 12.3227 6.75874L11.4066 4.6396C11.3613 4.53483 11.2747 4.45169 11.1654 4.40815Z" fill="#4E8EE5"/>
</svg>
