<svg width="24" height="24" viewBox="0 0 24 24" fill="none" xmlns="http://www.w3.org/2000/svg">
<path fill-rule="evenodd" clip-rule="evenodd" d="M9.4 2H9.35719H9.35719C8.27341 1.99999 7.39925 1.99998 6.69138 2.05782C5.96253 2.11737 5.32234 2.24318 4.73005 2.54497C3.78924 3.02434 3.02434 3.78924 2.54497 4.73005C2.24318 5.32234 2.11737 5.96253 2.05782 6.69138C1.99998 7.39925 1.99999 8.2734 2 9.35718V9.35719V9.4V14.6V14.6428V14.6428C1.99999 15.7266 1.99998 16.6007 2.05782 17.3086C2.11737 18.0375 2.24318 18.6777 2.54497 19.27C3.02434 20.2108 3.78924 20.9757 4.73005 21.455C5.32234 21.7568 5.96253 21.8826 6.69138 21.9422C7.39923 22 8.27334 22 9.35707 22H9.35717H9.4H14.6H14.6428H14.6429C15.7267 22 16.6008 22 17.3086 21.9422C18.0375 21.8826 18.6777 21.7568 19.27 21.455C20.2108 20.9757 20.9757 20.2108 21.455 19.27C21.7568 18.6777 21.8826 18.0375 21.9422 17.3086C22 16.6008 22 15.7267 22 14.6429V14.6428V14.6V9.4V9.35717V9.35707C22 8.27334 22 7.39923 21.9422 6.69138C21.8826 5.96253 21.7568 5.32234 21.455 4.73005C20.9757 3.78924 20.2108 3.02434 19.27 2.54497C18.6777 2.24318 18.0375 2.11737 17.3086 2.05782C16.6007 1.99998 15.7266 1.99999 14.6428 2H14.6H9.4ZM5.63803 4.32698C5.90139 4.19279 6.24907 4.10062 6.85424 4.05118C7.47108 4.00078 8.2634 4 9.4 4H11V20H9.4C8.26339 20 7.47108 19.9992 6.85424 19.9488C6.24907 19.8994 5.90139 19.8072 5.63803 19.673C5.07354 19.3854 4.6146 18.9265 4.32698 18.362C4.1928 18.0986 4.10062 17.7509 4.05118 17.1458C4.00078 16.5289 4 15.7366 4 14.6V9.4C4 8.26339 4.00078 7.47108 4.05118 6.85424C4.10062 6.24907 4.1928 5.90138 4.32698 5.63803C4.6146 5.07354 5.07354 4.6146 5.63803 4.32698ZM13 20H14.6C15.7366 20 16.5289 19.9992 17.1458 19.9488C17.7509 19.8994 18.0986 19.8072 18.362 19.673C18.9265 19.3854 19.3854 18.9265 19.673 18.362C19.8072 18.0986 19.8994 17.7509 19.9488 17.1458C19.9992 16.5289 20 15.7366 20 14.6V9.4C20 8.2634 19.9992 7.47108 19.9488 6.85424C19.8994 6.24907 19.8072 5.90138 19.673 5.63803C19.3854 5.07354 18.9265 4.6146 18.362 4.32698C18.0986 4.19279 17.7509 4.10062 17.1458 4.05118C16.5289 4.00078 15.7366 4 14.6 4H13V20Z" fill="black"/>
<path fill-rule="evenodd" clip-rule="evenodd" d="M20 13H13V11H20V13Z" fill="black"/>
</svg>
