<svg width="24" height="24" viewBox="0 0 24 24" fill="none" xmlns="http://www.w3.org/2000/svg">
<path fill-rule="evenodd" clip-rule="evenodd" d="M20.25 12.8334L12.75 12.8334V11.1667L20.25 11.1667V12.8334Z" fill="black"/>
<path fill-rule="evenodd" clip-rule="evenodd" d="M8.29765 2.16669H8.33332H15.6667H15.7023H15.7023H15.7024C16.6055 2.16668 17.3339 2.16667 17.9238 2.21487C18.5312 2.26449 19.0647 2.36934 19.5583 2.62083C20.3423 3.0203 20.9797 3.65772 21.3792 4.44173C21.6307 4.9353 21.7355 5.46879 21.7851 6.07617C21.8333 6.66607 21.8333 7.39453 21.8333 8.29768V8.29776V8.33335V15.6667V15.7023V15.7024C21.8333 16.6055 21.8333 17.334 21.7851 17.9239C21.7355 18.5312 21.6307 19.0647 21.3792 19.5583C21.3077 19.6986 21.2286 19.8342 21.1424 19.9646L19.9219 18.7442C20.0188 18.5315 20.0863 18.2497 20.124 17.7882C20.166 17.2741 20.1667 16.6139 20.1667 15.6667V8.33335C20.1667 7.38618 20.166 6.72592 20.124 6.21189C20.0828 5.70758 20.006 5.41784 19.8942 5.19838C19.6545 4.72797 19.272 4.34552 18.8016 4.10584C18.5822 3.99402 18.2924 3.9172 17.7881 3.876C17.2741 3.834 16.6138 3.83335 15.6667 3.83335H12.8333V11.6556L11.1667 9.98895V3.83335H8.33332C7.38615 3.83335 6.72589 3.834 6.21186 3.876C5.75035 3.91371 5.46854 3.98123 5.25583 4.07812L4.29389 3.11618C4.20099 3.02328 4.0971 2.94806 3.98641 2.89051C4.13172 2.79146 4.28374 2.70131 4.4417 2.62083C4.93527 2.36934 5.46876 2.26449 6.07614 2.21487C6.66603 2.16667 7.39449 2.16668 8.29763 2.16669H8.29764H8.29765ZM2.46062 4.81328C2.32112 5.20193 2.25227 5.61803 2.21484 6.07617C2.16664 6.66606 2.16665 7.39452 2.16666 8.29766V8.29767V8.29768V8.33336V15.6667V15.7024V15.7024V15.7024C2.16665 16.6055 2.16664 17.334 2.21484 17.9239C2.26446 18.5312 2.36931 19.0647 2.6208 19.5583C3.02027 20.3423 3.65769 20.9797 4.4417 21.3792C4.93527 21.6307 5.46876 21.7355 6.07614 21.7852C6.66604 21.8334 7.3945 21.8334 8.29765 21.8334H8.29773H8.33332H15.6667H15.7022H15.7023C16.6055 21.8334 17.3339 21.8334 17.9238 21.7852C18.3805 21.7479 18.7954 21.6793 19.1829 21.5408L17.7678 20.1257C17.2567 20.1661 16.6014 20.1667 15.6667 20.1667H12.8333V15.1911L11.1667 13.5245V20.1667H8.33332C7.38615 20.1667 6.72589 20.166 6.21186 20.124C5.70755 20.0828 5.41781 20.006 5.19835 19.8942C4.72794 19.6545 4.34549 19.2721 4.10581 18.8017C3.99399 18.5822 3.91717 18.2925 3.87597 17.7882C3.83397 17.2741 3.83332 16.6139 3.83332 15.6667V8.33336C3.83332 7.39859 3.83396 6.74327 3.87434 6.23217L2.52612 4.88394C2.50321 4.86104 2.48138 4.83746 2.46062 4.81328Z" fill="black"/>
<path fill-rule="evenodd" clip-rule="evenodd" d="M2.41073 2.41076C2.73617 2.08533 3.26381 2.08533 3.58925 2.41076L21.5892 20.4108C21.9147 20.7362 21.9147 21.2638 21.5892 21.5893C21.2638 21.9147 20.7362 21.9147 20.4107 21.5893L2.41073 3.58928C2.0853 3.26384 2.0853 2.7362 2.41073 2.41076Z" fill="black"/>
</svg>
