<svg width="24" height="24" viewBox="0 0 24 24" fill="none" xmlns="http://www.w3.org/2000/svg">
<path fill-rule="evenodd" clip-rule="evenodd" d="M11.7114 4.46657C11.5273 4.46657 11.378 4.61581 11.378 4.7999V5.86657V9.86657V11.4666C11.378 12.0189 10.9303 12.4666 10.378 12.4666C9.82573 12.4666 9.37802 12.0189 9.37802 11.4666V9.86657V5.86657C9.37802 5.68247 9.22878 5.53324 9.04468 5.53324C8.86059 5.53324 8.71135 5.68247 8.71135 5.86657V7.9999V10.9332V11.9999C8.71135 12.5522 8.26364 12.9999 7.71135 12.9999C7.15907 12.9999 6.71135 12.5522 6.71135 11.9999V10.9339V7.9999C6.71113 7.81599 6.56198 7.66657 6.37802 7.66657C6.19392 7.66657 6.04468 7.81581 6.04468 7.9999V13.5999C6.04468 14.111 6.04522 14.3182 6.05625 14.4864C6.23348 17.1905 8.38742 19.3444 11.0915 19.5217C11.2597 19.5327 11.467 19.5332 11.978 19.5332C13.8495 19.5332 15.5516 18.4305 16.3103 16.7235L18.5909 11.5921C18.6386 11.4848 18.5934 11.359 18.4884 11.3064C18.3799 11.2522 18.2479 11.2962 18.1937 11.4047L16.6058 14.5805C16.3984 14.9953 15.933 15.213 15.4816 15.1065C15.0302 14.9999 14.7114 14.597 14.7114 14.1332V5.86657C14.7114 5.68247 14.5621 5.53324 14.378 5.53324C14.1939 5.53324 14.0447 5.68247 14.0447 5.86657V10.9332V11.4666C14.0447 12.0189 13.597 12.4666 13.0447 12.4666C12.4924 12.4666 12.0447 12.0189 12.0447 11.4666V10.9332V5.86657V4.7999C12.0447 4.61581 11.8955 4.46657 11.7114 4.46657ZM13.7278 3.62505C13.3232 2.93213 12.5716 2.46657 11.7114 2.46657C10.8511 2.46657 10.0995 2.93213 9.69494 3.62505C9.48853 3.56527 9.27035 3.53324 9.04468 3.53324C7.81503 3.53324 6.80754 4.48441 6.71785 5.69114C6.60691 5.67495 6.49344 5.66657 6.37802 5.66657C5.08935 5.66657 4.04468 6.71124 4.04468 7.9999V13.5999V13.6443C4.04467 14.0973 4.04466 14.3751 4.06053 14.6172C4.30341 18.3228 7.2551 21.2745 10.9607 21.5174C11.2028 21.5333 11.4806 21.5333 11.9335 21.5332H11.978C11.9791 21.5332 11.9802 21.5332 11.9813 21.5332C14.6384 21.532 17.0572 19.9672 18.1379 17.5357L20.4185 12.4044C20.9005 11.32 20.4442 10.0483 19.3828 9.51759C18.4557 9.05406 17.3594 9.30016 16.7114 10.05V5.86657C16.7114 4.5779 15.6667 3.53324 14.378 3.53324C14.1524 3.53324 13.9342 3.56527 13.7278 3.62505Z" fill="black"/>
</svg>
