<svg width="24" height="24" viewBox="0 0 24 24" fill="none" xmlns="http://www.w3.org/2000/svg">
<path fill-rule="evenodd" clip-rule="evenodd" d="M4.759 7.68032C3.99398 8.30483 3.3547 8.98666 2.88628 9.66022C2.38399 10.3825 2 11.2081 2 12C2 12.7919 2.38399 13.6175 2.88628 14.3398C3.40822 15.0903 4.14228 15.8511 5.02607 16.5314C6.78898 17.8884 9.24777 19 12 19C13.2333 19 14.4077 18.7768 15.487 18.4083L13.8685 16.7899C13.2664 16.9247 12.6406 17 12 17C9.78167 17 7.74045 16.0969 6.24601 14.9465C5.50112 14.3732 4.91716 13.7571 4.52825 13.1979C4.11969 12.6104 4 12.1934 4 12C4 11.8066 4.11969 11.3896 4.52825 10.8021C4.90593 10.259 5.46757 9.66236 6.1819 9.10322L4.759 7.68032ZM9.00099 11.9223C9.00033 11.9481 9 11.974 9 12C9 13.6569 10.3431 15 12 15C12.026 15 12.0519 14.9997 12.0777 14.999L9.00099 11.9223ZM14.677 13.3557L10.6443 9.32303C11.0515 9.11643 11.5122 9 12 9C13.6569 9 15 10.3431 15 12C15 12.4878 14.8836 12.9485 14.677 13.3557ZM16.8745 15.5531C17.1847 15.3621 17.4786 15.1585 17.754 14.9465C18.4989 14.3732 19.0828 13.7571 19.4718 13.1979C19.8803 12.6104 20 12.1934 20 12C20 11.8066 19.8803 11.3896 19.4718 10.8021C19.0828 10.2429 18.4989 9.62684 17.754 9.05346C16.2595 7.90311 14.2183 7 12 7C10.9088 7 9.86038 7.21854 8.89886 7.57754L7.37088 6.04956C8.74271 5.41594 10.3165 5 12 5C14.7522 5 17.211 6.11161 18.9739 7.46861C19.8577 8.14892 20.5918 8.9097 21.1137 9.66022C21.616 10.3825 22 11.2081 22 12C22 12.7919 21.616 13.6175 21.1137 14.3398C20.5918 15.0903 19.8577 15.8511 18.9739 16.5314C18.7659 16.6915 18.5482 16.8482 18.3214 17.0001L16.8745 15.5531Z" fill="black"/>
<path fill-rule="evenodd" clip-rule="evenodd" d="M2.29289 2.29289C2.68342 1.90237 3.31658 1.90237 3.70711 2.29289L21.7071 20.2929C22.0976 20.6834 22.0976 21.3166 21.7071 21.7071C21.3166 22.0976 20.6834 22.0976 20.2929 21.7071L2.29289 3.70711C1.90237 3.31658 1.90237 2.68342 2.29289 2.29289Z" fill="black"/>
</svg>
