<svg width="24" height="24" viewBox="0 0 24 24" fill="none" xmlns="http://www.w3.org/2000/svg">
<path d="M18.6387 2.99207C19.137 2.01468 20.323 1.61115 21.3135 2.08289C22.2888 2.54751 22.774 3.65904 22.4521 4.69031L20.8887 9.69519C21.6375 10.0696 22.0135 10.9268 21.7744 11.7343H21.7754C21.3304 13.2451 20.871 14.6742 20.3965 16.0204C19.9284 17.3483 19.2325 18.8029 18.3184 20.3798C17.7895 21.2917 16.8178 21.8567 15.7637 21.8641L14.9326 21.869V21.8622C14.719 21.8596 14.5577 21.8551 14.4551 21.8466C14.2977 21.8334 14.1451 21.7886 14.0049 21.7118C13.8672 21.6363 13.7637 21.5416 13.6885 21.455C13.6289 21.3862 13.5791 21.309 13.54 21.244C13.3004 21.244 12.9586 21.244 12.7207 21.244C12.2298 21.2439 11.4517 21.0641 10.7031 20.826C10.2299 20.6775 9.84841 20.442 9.58105 20.1102C9.31148 19.7754 9.21367 19.4104 9.18945 19.1044C9.18568 19.0563 9.18616 19.0087 9.18555 18.9628C9.08208 18.9471 8.9697 18.9321 8.85645 18.9081C8.29028 18.7878 7.43563 18.4997 6.96289 17.6512C6.64019 17.0716 6.39755 16.5603 6.27734 16.1444L6.27637 16.1425L6.25293 16.0399C6.16049 15.53 6.45456 15.0201 6.95508 14.8505C9.05022 14.1423 10.5128 13.2826 11.4238 12.3173C12.2655 11.4254 13.0775 10.1007 13.8418 8.29968L13.8447 8.30066C13.8574 8.26925 13.8658 8.24434 13.8711 8.23328C14.2749 7.38472 15.2899 7.02394 16.1387 7.42761H16.1396L16.3301 7.51843L18.6387 2.99207ZM13.9648 11.6913C13.5425 12.3665 13.1001 12.9577 12.6299 13.4559C11.5681 14.581 10.0319 15.4865 8.08496 16.2089C8.16941 16.3874 8.27701 16.5992 8.41309 16.8436C8.5269 17.0476 8.77223 17.192 9.20117 17.2831C9.40609 17.3266 9.59924 17.3475 9.79883 17.3719C9.88683 17.3827 10.0013 17.397 10.1035 17.4188C10.1103 17.4203 10.1175 17.422 10.125 17.4237C10.2873 17.3827 10.4556 17.3389 10.6289 17.288C11.0015 17.1785 11.3503 17.0685 11.6748 16.9589L11.7354 16.9452C11.8764 16.9279 12.0146 17.0113 12.0615 17.1512C12.0805 17.2079 12.0827 17.2693 12.0674 17.327C11.9539 17.751 11.7782 18.0824 11.54 18.3212C11.3952 18.5432 11.1647 18.7709 10.8506 19.0067C10.8565 19.0413 10.8637 19.0576 10.873 19.0692C10.8875 19.0871 10.9596 19.1665 11.2002 19.2421H11.2041C11.9371 19.4753 12.5051 19.5847 12.7207 19.5848H13.4502C13.5169 19.5602 13.5765 19.5358 13.6289 19.5106C13.7764 19.4396 14.1245 19.131 14.6729 18.5848C14.8167 18.4423 15.0488 18.443 15.1914 18.5868C15.2507 18.6466 15.2876 18.7256 15.2959 18.8094C15.3252 19.1019 15.3273 19.3357 15.3018 19.5106C15.2724 19.712 15.1862 19.9426 15.0449 20.203H15.752C16.2183 20.1996 16.6489 19.9502 16.8828 19.5468C17.7606 18.0324 18.4064 16.6742 18.8311 15.4696C18.9734 15.0658 19.1131 14.6532 19.2529 14.2333L13.9648 11.6913ZM15.3721 8.94324L15.3701 8.94812C15.1781 9.40062 14.9789 9.8309 14.7754 10.2391L19.7656 12.6385C19.9056 12.1888 20.0462 11.7309 20.1836 11.2645V11.2635L20.1865 11.2382C20.1847 11.2133 20.1702 11.1885 20.1455 11.1766L15.4248 8.92566C15.4054 8.91704 15.3828 8.92506 15.3721 8.94324ZM6.80566 1.42273C9.77846 1.42275 12.1885 3.83275 12.1885 6.80554C12.1885 9.77834 9.77846 12.1883 6.80566 12.1884C3.83287 12.1883 1.42287 9.77834 1.42285 6.80554C1.42288 3.83275 3.83287 1.42275 6.80566 1.42273ZM6.80566 3.08289C4.74966 3.08291 3.08303 4.74954 3.08301 6.80554C3.08303 8.86154 4.74966 10.5282 6.80566 10.5282C8.86167 10.5282 10.5283 8.86154 10.5283 6.80554C10.5283 4.74954 8.86166 3.08291 6.80566 3.08289ZM6.80469 4.07605C7.26302 4.07605 7.63465 4.44783 7.63477 4.90613V6.80554L8.91992 7.42468C9.33287 7.62368 9.50661 8.12013 9.30762 8.53308C9.10859 8.94597 8.61214 9.11976 8.19922 8.92078L6.54297 8.12195C6.19605 7.95456 5.97461 7.60287 5.97461 7.21765V4.90613C5.97472 4.44798 6.34657 4.07629 6.80469 4.07605ZM20.5986 3.58191C20.4204 3.49741 20.2071 3.56939 20.1172 3.745L17.8281 8.23328L19.376 8.97156L20.8682 4.19617C20.9439 3.95336 20.8283 3.69129 20.5986 3.58191Z" fill="black"/>
</svg>
