<?xml version="1.0" encoding="UTF-8" standalone="no"?>
<svg
   width="24"
   height="24"
   viewBox="0 0 24 24"
   fill="none"
   version="1.1"
   id="svg170"
   xmlns="http://www.w3.org/2000/svg"
   xmlns:svg="http://www.w3.org/2000/svg">
  <defs
     id="defs174" />
  <path
     style="color:#000000;fill:#4e8ee5;-inkscape-stroke:none"
     d="m 12,11 c -4.406425,0 -8,3.593565 -8,8 v 0.333984 C 4,21.347209 5.6528211,23 7.6660156,23 H 16.333984 C 18.347204,23 20,21.347204 20,19.333984 V 19 c 0,-4.406434 -3.593566,-8 -8,-8 z m 0,2 c 3.325559,0 6,2.674441 6,6 v 0.333984 C 18,20.266362 17.266362,21 16.333984,21 H 7.6660156 C 6.7336931,21 6,20.266357 6,19.333984 V 19 c 0,-3.325557 2.6744527,-6 6,-6 z"
     id="path299" />
  <path
     style="color:#000000;fill:#4e8ee5;-inkscape-stroke:none"
     d="M 7.6660156,1 C 5.6528166,1 4,2.6528166 4,4.6660156 V 5 c 0,4.4064267 3.5935733,8 8,8 4.406435,0 8,-3.593575 8,-8 V 4.6660156 C 20,2.6528211 18.347209,1 16.333984,1 Z m 0,2 H 16.333984 C 17.266357,3 18,3.7336931 18,4.6660156 V 5 c 0,3.3255473 -2.674443,6 -6,6 C 8.6744545,11 6,8.3255455 6,5 V 4.6660156 C 6,3.7336976 6.7336976,3 7.6660156,3 Z"
     id="path304" />
  <path
     style="color:#000000;fill:#4e8ee5;stroke-linecap:round;-inkscape-stroke:none"
     d="M 8.8359375,5.2597656 7.7578125,5.5292969 A 1,1 0 0 0 7.0292969,6.7421875 1,1 0 0 0 8.2421875,7.4707031 l 1.078125,-0.2695312 c 0.3639016,-0.090977 0.7465605,-0.048601 1.0820315,0.1191406 1.004376,0.502216 2.190936,0.502216 3.195312,0 0.335471,-0.1677413 0.718082,-0.2101249 1.082032,-0.1191406 l 1.078125,0.2695312 A 1,1 0 0 0 16.970703,6.7421875 1,1 0 0 0 16.242187,5.5292969 L 15.164063,5.2597656 c -0.82665,-0.2066554 -1.69881,-0.1095937 -2.460938,0.2714844 -0.442822,0.2214232 -0.963428,0.2214232 -1.40625,0 C 10.534747,5.1501719 9.6625747,5.0531029 8.8359375,5.2597656 Z"
     id="path309" />
  <path
     style="color:#000000;fill:#4e8ee5;stroke-linecap:round;-inkscape-stroke:none"
     d="m 12,15.837891 c -0.771881,0 -1.543811,0.291857 -2.1269531,0.875 -0.3528328,0.352832 -0.7296904,0.679099 -1.1289063,0.978515 l -1.34375,1.007813 a 1,1 0 0 0 -0.2011719,1.40039 1,1 0 0 0 1.4003907,0.201172 l 1.34375,-1.007812 c 0.4749036,-0.356183 0.9239836,-0.746249 1.3437496,-1.166016 0.401914,-0.401914 1.023868,-0.401914 1.425782,0 0.419797,0.419797 0.868969,0.809876 1.34375,1.166016 l 1.34375,1.007812 a 1,1 0 0 0 1.40039,-0.201172 1,1 0 0 0 -0.201172,-1.40039 l -1.34375,-1.007813 c -0.399218,-0.29946 -0.776104,-0.625713 -1.128906,-0.978515 -0.583142,-0.583143 -1.355072,-0.875 -2.126953,-0.875 z"
     id="path314" />
</svg>
