<svg width="30" height="31" viewBox="0 0 30 31" fill="none" xmlns="http://www.w3.org/2000/svg">
<path d="M8 22.9583C8 19.0923 11.134 15.9583 15 15.9583C18.866 15.9583 22 19.0923 22 22.9583V23.2916C22 24.7644 20.8061 25.9583 19.3333 25.9583H10.6667C9.19391 25.9583 8 24.7644 8 23.2916V22.9583Z" stroke="#4E8EE5" stroke-width="2"/>
<path d="M8 8.95831C8 12.8243 11.134 15.9583 15 15.9583C18.866 15.9583 22 12.8243 22 8.95831V8.62498C22 7.15222 20.8061 5.95831 19.3333 5.95831H10.6667C9.19391 5.95831 8 7.15222 8 8.62498V8.95831Z" stroke="#4E8EE5" stroke-width="2"/>
<path d="M11 10.4583L12.0775 10.1889C12.6728 10.0401 13.3017 10.1091 13.8505 10.3836C14.5741 10.7454 15.4259 10.7454 16.1495 10.3836C16.6983 10.1091 17.3272 10.0401 17.9225 10.1889L19 10.4583" stroke="#4E8EE5" stroke-width="2" stroke-linecap="round"/>
<path d="M11 23.4583L12.3436 22.4506C12.7806 22.1228 13.1939 21.7644 13.5802 21.3781C14.3643 20.594 15.6357 20.594 16.4198 21.3781C16.8061 21.7644 17.2194 22.1228 17.6564 22.4506L19 23.4583" stroke="#4E8EE5" stroke-width="2" stroke-linecap="round"/>
</svg>
