<svg width="30" height="31" viewBox="0 0 30 31" fill="none" xmlns="http://www.w3.org/2000/svg">
<path d="M21 22.9585C21 19.6448 18.3137 16.9585 15 16.9585C11.6863 16.9585 9 19.6448 9 22.9585V23.2915C9 24.212 9.74648 24.9585 10.667 24.9585H19.333C20.2535 24.9585 21 24.212 21 23.2915V22.9585ZM23 23.2915C23 25.3166 21.3581 26.9585 19.333 26.9585H10.667C8.64192 26.9585 7 25.3166 7 23.2915V22.9585C7 18.5402 10.5817 14.9585 15 14.9585C19.4183 14.9585 23 18.5402 23 22.9585V23.2915Z" fill="#4E8EE5"/>
<path d="M21 8.62549C21 7.70502 20.2535 6.9585 19.333 6.9585H10.667C9.74648 6.9585 9 7.70502 9 8.62549V8.9585C9 12.2722 11.6863 14.9585 15 14.9585C18.3137 14.9585 21 12.2722 21 8.9585V8.62549ZM23 8.9585C23 13.3768 19.4183 16.9585 15 16.9585C10.5817 16.9585 7 13.3768 7 8.9585V8.62549C7 6.60044 8.64193 4.9585 10.667 4.9585H19.333C21.3581 4.9585 23 6.60044 23 8.62549V8.9585Z" fill="#4E8EE5"/>
<path d="M15.702 9.48906C16.4644 9.10773 17.3381 9.01189 18.1649 9.21856L19.242 9.48809C19.7778 9.62205 20.1035 10.1652 19.9696 10.701C19.8355 11.2365 19.2932 11.5622 18.7576 11.4285L17.6795 11.159C17.3158 11.0682 16.9316 11.1105 16.5965 11.2781C15.5914 11.7806 14.4082 11.7806 13.4031 11.2781C13.0681 11.1105 12.6838 11.0682 12.3201 11.159L11.242 11.4285C10.7064 11.5622 10.1641 11.2365 10.0301 10.701C9.89614 10.1652 10.2218 9.62205 10.7576 9.48809L11.8348 9.21856L12.1463 9.15508C12.878 9.04008 13.6304 9.15534 14.2977 9.48906C14.7397 9.71004 15.26 9.71004 15.702 9.48906Z" fill="#4E8EE5"/>
<path d="M12.8728 20.671C14.0475 19.4964 15.9521 19.4964 17.1267 20.671C17.4796 21.0238 17.8574 21.351 18.2566 21.6505L19.5994 22.6583C20.0412 22.9897 20.131 23.6168 19.7996 24.0587C19.4683 24.5001 18.8419 24.5897 18.4002 24.2589L17.0564 23.2511C16.5817 22.8949 16.1325 22.5048 15.7127 22.085C15.3191 21.6915 14.6805 21.6915 14.2869 22.085C13.8671 22.5048 13.4179 22.8949 12.9432 23.2511L11.5994 24.2589C11.1577 24.5897 10.5313 24.5001 10.2 24.0587C9.86862 23.6168 9.95836 22.9897 10.4002 22.6583L11.743 21.6505C12.1422 21.351 12.52 21.0238 12.8728 20.671Z" fill="#4E8EE5"/>
</svg>
