<svg width="24" height="24" viewBox="0 0 24 24" fill="none" xmlns="http://www.w3.org/2000/svg">
<path d="M3.86914 7.04297C3.83236 7.63729 3.83008 8.38534 3.83008 9.40039V14.5996C3.83008 15.7332 3.83077 16.5339 3.88184 17.1592C3.90248 17.4119 3.93143 17.6236 3.96777 17.8057L5.74609 14.9053C6.07601 14.367 6.35276 13.9134 6.60449 13.5762C6.85528 13.2402 7.15592 12.9138 7.5752 12.7324C8.16554 12.4771 8.83547 12.477 9.42578 12.7324C9.84476 12.9139 10.1448 13.2403 10.3955 13.5762C10.642 13.9065 10.9124 14.3483 11.2334 14.8721L11.4092 14.583L12.6172 15.791L12.207 16.4609L14.4805 20.1699H14.5996C15.6141 20.1699 16.3619 20.1666 16.9561 20.1299L18.4189 21.5928C18.0706 21.6844 17.6993 21.7394 17.2949 21.7725C16.5863 21.8304 15.706 21.8301 14.5996 21.8301H9.40039C8.29398 21.8301 7.41372 21.8304 6.70508 21.7725C5.98697 21.7138 5.3718 21.5911 4.80762 21.3037C3.89879 20.8406 3.15936 20.1012 2.69629 19.1924C2.4089 18.6282 2.28622 18.013 2.22754 17.2949C2.16964 16.5863 2.16992 15.706 2.16992 14.5996V9.40039C2.16992 8.29398 2.16964 7.41372 2.22754 6.70508C2.26061 6.30045 2.31453 5.92864 2.40625 5.58008L3.86914 7.04297ZM14.5996 2.16992C15.706 2.16992 16.5863 2.16964 17.2949 2.22754C18.013 2.28622 18.6282 2.4089 19.1924 2.69629C20.1012 3.15936 20.8406 3.89879 21.3037 4.80762C21.5911 5.3718 21.7138 5.98697 21.7725 6.70508C21.8304 7.41372 21.8301 8.29398 21.8301 9.40039V14.5996C21.8301 15.706 21.8304 16.5863 21.7725 17.2949C21.7138 18.013 21.5911 18.6282 21.3037 19.1924C21.1998 19.3962 21.0791 19.5893 20.9482 19.7744L21.5869 20.4131C21.911 20.7372 21.911 21.2628 21.5869 21.5869C21.2628 21.911 20.7372 21.911 20.4131 21.5869L2.41309 3.58691C2.08895 3.26278 2.08895 2.73722 2.41309 2.41309C2.73722 2.08895 3.26278 2.08895 3.58691 2.41309L4.22363 3.0498C4.40895 2.91894 4.60364 2.80022 4.80762 2.69629C5.3718 2.4089 5.98697 2.28622 6.70508 2.22754C7.41372 2.16964 8.29398 2.16992 9.40039 2.16992H14.5996ZM8.7666 14.2559C8.59692 14.1824 8.40408 14.1825 8.23438 14.2559C8.21836 14.2628 8.13098 14.3062 7.93457 14.5693C7.7391 14.8313 7.5079 15.2067 7.16113 15.7725L4.93457 19.4043C5.12475 19.5677 5.33455 19.709 5.56055 19.8242C5.85186 19.9727 6.22514 20.0679 6.84082 20.1182C7.46613 20.1692 8.26684 20.1699 9.40039 20.1699H12.5342L9.83887 15.7725C9.49206 15.2066 9.26091 14.8313 9.06543 14.5693C8.87115 14.309 8.78398 14.2635 8.7666 14.2559ZM15.7666 11.7559C15.5969 11.6824 15.4041 11.6825 15.2344 11.7559C15.2184 11.7628 15.1309 11.8063 14.9346 12.0693C14.7602 12.3031 14.5584 12.6276 14.2705 13.0967L19.749 18.5752C19.7747 18.5304 19.8007 18.4856 19.8242 18.4395C19.8518 18.3853 19.8754 18.3275 19.8994 18.2666L16.8389 13.2725C16.4921 12.7066 16.2609 12.3313 16.0654 12.0693C15.8711 11.809 15.784 11.7635 15.7666 11.7559ZM9.40039 3.83008C8.26684 3.83008 7.46613 3.83077 6.84082 3.88184C6.22514 3.93214 5.85186 4.02735 5.56055 4.17578C5.51425 4.19938 5.46873 4.22424 5.42383 4.25L13.0645 11.8906C13.2613 11.5745 13.4378 11.2995 13.6045 11.0762C13.8553 10.7402 14.1559 10.4138 14.5752 10.2324C15.1655 9.97707 15.8355 9.97699 16.4258 10.2324C16.8447 10.4139 17.1448 10.7404 17.3955 11.0762C17.6472 11.4134 17.924 11.867 18.2539 12.4053L20.165 15.5234C20.1665 15.242 20.1699 14.9354 20.1699 14.5996V9.40039C20.1699 8.26684 20.1692 7.46613 20.1182 6.84082C20.0679 6.22514 19.9727 5.85186 19.8242 5.56055C19.5203 4.96435 19.0356 4.47965 18.4395 4.17578C18.1481 4.02735 17.7749 3.93214 17.1592 3.88184C16.5339 3.83077 15.7332 3.83008 14.5996 3.83008H9.40039Z" fill="black"/>
</svg>
