<svg width="24" height="24" viewBox="0 0 24 24" fill="none" xmlns="http://www.w3.org/2000/svg">
<path fill-rule="evenodd" clip-rule="evenodd" d="M7.16687 3.16992H16.8331C17.365 3.16991 17.8137 3.1699 18.1812 3.19993C18.566 3.23137 18.9344 3.29983 19.2848 3.47837C19.8173 3.7497 20.2502 4.18263 20.5215 4.71513C20.7001 5.06555 20.7686 5.43391 20.8 5.81874C20.83 6.18628 20.83 6.63498 20.83 7.16684V16.833C20.83 17.0351 20.83 17.2252 20.8284 17.4033C20.8301 17.4946 20.8301 17.5902 20.83 17.6924L20.83 17.9999H20.8121C20.8088 18.0624 20.8048 18.1228 20.8 18.1811C20.7686 18.5659 20.7001 18.9343 20.5215 19.2847C20.2502 19.8172 19.8173 20.2502 19.2848 20.5215C18.9344 20.7 18.566 20.7685 18.1812 20.7999C17.8136 20.8299 17.3649 20.8299 16.8331 20.8299H7.16691C6.63506 20.8299 6.18636 20.8299 5.81881 20.7999C5.43398 20.7685 5.06563 20.7 4.71521 20.5215C4.18271 20.2502 3.74977 19.8172 3.47845 19.2847C3.2999 18.9343 3.23145 18.5659 3.2 18.1811C3.16998 17.8136 3.16999 17.3649 3.17 16.8331V7.1668C3.16999 6.63497 3.16998 6.18627 3.2 5.81874C3.23145 5.43391 3.2999 5.06555 3.47845 4.71513C3.74977 4.18263 4.18271 3.7497 4.71521 3.47837C5.06563 3.29983 5.43398 3.23137 5.81881 3.19993C6.18635 3.1699 6.63504 3.16991 7.16687 3.16992ZM13.868 19.1699L16.8 19.1699C17.3737 19.1699 17.7541 19.1693 18.046 19.1454C18.3282 19.1224 18.4538 19.0818 18.5312 19.0424C18.7513 18.9302 18.9303 18.7512 19.0425 18.5311C19.0819 18.4537 19.1225 18.3281 19.1455 18.0459C19.1595 17.8741 19.1655 17.6716 19.1681 17.4171C19.166 17.3106 19.1619 17.2609 19.1541 17.214C19.14 17.1293 19.1166 17.0464 19.0844 16.9668C19.054 16.8918 19.0101 16.8151 18.8207 16.5061L16.8386 13.2723C16.4917 12.7063 16.2608 12.3311 16.0653 12.0691C15.8689 11.8059 15.7821 11.7624 15.7661 11.7555C15.5963 11.682 15.4037 11.682 15.234 11.7555C15.218 11.7624 15.1312 11.8059 14.9348 12.0691C14.7393 12.3311 14.5083 12.7063 14.1615 13.2723L12.2074 16.4605L13.868 19.1699ZM11.2339 14.8721L12.7666 12.3714C13.0875 11.8477 13.358 11.4065 13.6045 11.0762C13.8553 10.7402 14.1554 10.4134 14.5747 10.232C15.1652 9.97653 15.8349 9.97653 16.4253 10.232C16.8447 10.4134 17.1448 10.7402 17.3956 11.0762C17.6421 11.4065 17.9125 11.8477 18.2334 12.3714L19.17 13.8994V7.19992C19.17 6.62617 19.1694 6.24578 19.1455 5.95392C19.1225 5.67174 19.0819 5.54616 19.0425 5.46875C18.9303 5.2486 18.7513 5.06962 18.5312 4.95745C18.4538 4.91801 18.3282 4.87747 18.046 4.85442C17.7541 4.83057 17.3737 4.82992 16.8 4.82992H7.2C6.62625 4.82992 6.24586 4.83057 5.95399 4.85442C5.67182 4.87747 5.54623 4.91801 5.46883 4.95745C5.24868 5.06962 5.06969 5.2486 4.95752 5.46875C4.91808 5.54616 4.87755 5.67174 4.85449 5.95392C4.83065 6.24578 4.83 6.62617 4.83 7.19992V16.3996L5.76662 14.8714C6.08755 14.3477 6.35796 13.9065 6.60447 13.5762C6.85527 13.2402 7.15542 12.9134 7.57475 12.732C8.16516 12.4765 8.83492 12.4765 9.42533 12.732C9.84466 12.9134 10.1448 13.2402 10.3956 13.5762C10.6421 13.9065 10.913 14.3485 11.2339 14.8721ZM5.24717 18.8956L7.16145 15.7723C7.50833 15.2063 7.73928 14.8311 7.93479 14.5691C8.13122 14.3059 8.21795 14.2624 8.23397 14.2555C8.40374 14.182 8.59633 14.182 8.76611 14.2555C8.78212 14.2624 8.86885 14.3059 9.06529 14.5691C9.26079 14.8311 9.49174 15.2063 9.83862 15.7723L11.9211 19.1699H7.2C6.62625 19.1699 6.24586 19.1693 5.95399 19.1454C5.67182 19.1224 5.54623 19.0818 5.46883 19.0424C5.38915 19.0018 5.31486 18.9524 5.24717 18.8956Z" fill="white"/>
</svg>
