<svg width="24" height="24" viewBox="0 0 24 24" fill="none" xmlns="http://www.w3.org/2000/svg">
<path fill-rule="evenodd" clip-rule="evenodd" d="M9.35719 2H9.4H14.6H14.6428C15.7266 1.99999 16.6007 1.99998 17.3086 2.05782C18.0375 2.11737 18.6777 2.24318 19.27 2.54497C20.2108 3.02433 20.9757 3.78924 21.455 4.73005C21.7568 5.32234 21.8826 5.96253 21.9422 6.69138C22 7.39923 22 8.27334 22 9.35707V9.35717V9.4V14.6V14.6428V14.6429C22 15.7267 22 16.6008 21.9422 17.3086C21.8826 18.0375 21.7568 18.6777 21.455 19.27C20.9757 20.2108 20.2108 20.9757 19.27 21.455C18.6777 21.7568 18.0375 21.8826 17.3086 21.9422C16.6008 22 15.7267 22 14.6429 22H14.6428H14.6H9.4H9.35717H9.35706C8.27334 22 7.39923 22 6.69138 21.9422C5.96253 21.8826 5.32234 21.7568 4.73005 21.455C3.78924 20.9757 3.02433 20.2108 2.54497 19.27C2.24318 18.6777 2.11737 18.0375 2.05782 17.3086C1.99998 16.6007 1.99999 15.7266 2 14.6428V14.6V9.4V9.35719V9.35719C1.99999 8.27341 1.99998 7.39925 2.05782 6.69138C2.11737 5.96253 2.24318 5.32234 2.54497 4.73005C3.02433 3.78924 3.78924 3.02433 4.73005 2.54497C5.32234 2.24318 5.96253 2.11737 6.69138 2.05782C7.39925 1.99998 8.27341 1.99999 9.35719 2H9.35719ZM6.85424 4.05118C6.24907 4.10062 5.90138 4.19279 5.63803 4.32698C5.07354 4.6146 4.6146 5.07354 4.32698 5.63803C4.19279 5.90138 4.10062 6.24907 4.05118 6.85424C4.00078 7.47108 4 8.26339 4 9.4V14.6C4 15.7366 4.00078 16.5289 4.05118 17.1458C4.05609 17.2059 4.06143 17.2636 4.06719 17.3188L5.60116 14.816L5.62497 14.7772C5.943 14.2583 6.21695 13.8112 6.46819 13.4746C6.72457 13.1311 7.04657 12.7754 7.5072 12.5761C8.14069 12.3019 8.85931 12.3019 9.4928 12.5761C9.95343 12.7754 10.2754 13.1311 10.5318 13.4746C10.7451 13.7604 10.9747 14.1257 11.2338 14.547L12.6012 12.316L12.625 12.2772C12.943 11.7583 13.2169 11.3112 13.4682 10.9746C13.7246 10.6311 14.0466 10.2754 14.5072 10.0761C15.1407 9.80195 15.8593 9.80195 16.4928 10.0761C16.9534 10.2754 17.2754 10.6311 17.5318 10.9746C17.7831 11.3112 18.057 11.7583 18.375 12.2772L18.3988 12.316L19.9999 14.9283L20 14.6V9.4C20 8.26339 19.9992 7.47108 19.9488 6.85424C19.8994 6.24907 19.8072 5.90138 19.673 5.63803C19.3854 5.07354 18.9265 4.6146 18.362 4.32698C18.0986 4.19279 17.7509 4.10062 17.1458 4.05118C16.5289 4.00078 15.7366 4 14.6 4H9.4C8.26339 4 7.47108 4.00078 6.85424 4.05118ZM12.4068 16.4605L14.5761 20H14.6C15.7366 20 16.5289 19.9992 17.1458 19.9488C17.7509 19.8994 18.0986 19.8072 18.362 19.673C18.9265 19.3854 19.3854 18.9265 19.673 18.362C19.6859 18.3366 19.6984 18.3105 19.7106 18.2835L16.6936 13.3612C16.345 12.7924 16.1188 12.4251 15.929 12.1709C15.7774 11.9677 15.7052 11.9168 15.6947 11.9099C15.5702 11.8573 15.4298 11.8573 15.3053 11.9099C15.2948 11.9168 15.2226 11.9677 15.071 12.1709C14.8812 12.4251 14.655 12.7924 14.3064 13.3612L12.4068 16.4605ZM12.2303 20L9.69364 15.8612C9.34502 15.2924 9.11876 14.9251 8.92901 14.6709C8.77736 14.4677 8.70524 14.4168 8.6947 14.4099C8.57024 14.3573 8.42976 14.3573 8.3053 14.4099C8.29475 14.4168 8.22264 14.4677 8.07099 14.6709C7.88124 14.9251 7.65497 15.2924 7.30636 15.8612L5.15736 19.3674C5.30675 19.4837 5.46758 19.5862 5.63803 19.673C5.90138 19.8072 6.24907 19.8994 6.85424 19.9488C7.47108 19.9992 8.26339 20 9.4 20H12.2303Z" fill="black"/>
</svg>
