<svg xmlns="http://www.w3.org/2000/svg" width="24" height="24" viewBox="0 0 24 24">
  <path fill-rule="evenodd" d="M12,0 C18.627417,0 24,5.372583 24,12 C24,18.627417 18.627417,24 12,24 C5.372583,24 0,18.627417 0,12 C0,5.372583 5.372583,0 12,0 Z M12,10 C11.4477153,10 11,10.4477153 11,11 L11,11 L11,18 L11.0067277,18.1166211 C11.0644928,18.6139598 11.4871642,19 12,19 C12.5522847,19 13,18.5522847 13,18 L13,18 L13,11 L12.9932723,10.8833789 C12.9355072,10.3860402 12.5128358,10 12,10 Z M12,5.5 C11.1715729,5.5 10.5,6.17157288 10.5,7 C10.5,7.82842712 11.1715729,8.5 12,8.5 C12.8284271,8.5 13.5,7.82842712 13.5,7 C13.5,6.17157288 12.8284271,5.5 12,5.5 Z"/>
</svg>
