<svg xmlns="http://www.w3.org/2000/svg" width="24" height="24" viewBox="0 0 24 24">
  <path d="M17,5 C17.5522847,5 18,5.44771525 18,6 C18,6.51283584 17.6139598,6.93550716 17.1166211,6.99327227 L17,7 L15.666,7 L11.5,17 L13,17 C13.5522847,17 14,17.4477153 14,18 C14,18.5128358 13.6139598,18.9355072 13.1166211,18.9932723 L13,19 L8,19 C7.44771525,19 7,18.5522847 7,18 C7,17.4871642 7.38604019,17.0644928 7.88337887,17.0067277 L8,17 L9.332,17 L13.499,7 L12,7 C11.4477153,7 11,6.55228475 11,6 C11,5.48716416 11.3860402,5.06449284 11.8833789,5.00672773 L12,5 L17,5 Z"/>
</svg>
