<svg width="20" height="20" viewBox="0 0 20 20" fill="none" xmlns="http://www.w3.org/2000/svg">
<path fill-rule="evenodd" clip-rule="evenodd" d="M5.18262 15C5.22176 15.1292 5.2693 15.2487 5.32703 15.362C5.61465 15.9264 6.07359 16.3854 6.63807 16.673C7.27981 17 8.11989 17 9.80005 17H14.3373C14.5819 17 14.7042 17 14.8193 17.0276C14.9213 17.0521 15.0189 17.0925 15.1083 17.1473C15.2092 17.2092 15.2957 17.2957 15.4687 17.4686L16.2687 18.2686L16.2687 18.2686C17.1254 19.1254 17.5538 19.5537 17.9216 19.5827C18.2407 19.6078 18.5526 19.4786 18.7605 19.2352C19 18.9547 19 18.3489 19 17.1372V10.8C19 9.11983 19 8.27975 18.6731 7.63801C18.3854 7.07353 17.9265 6.61458 17.362 6.32696C17.2487 6.26924 17.1292 6.2217 17 6.18256V9.99998C17 12.7614 14.7615 15 12 15H5.18262Z" fill="black"/>
<path d="M1 13.1373V6.8C1 5.11984 1 4.27976 1.32698 3.63803C1.6146 3.07354 2.07354 2.6146 2.63803 2.32698C3.27976 2 4.11984 2 5.8 2H10.2C11.8802 2 12.7202 2 13.362 2.32698C13.9265 2.6146 14.3854 3.07354 14.673 3.63803C15 4.27976 15 5.11984 15 6.8V8.2C15 9.88016 15 10.7202 14.673 11.362C14.3854 11.9265 13.9265 12.3854 13.362 12.673C12.7202 13 11.8802 13 10.2 13H5.66274C5.41815 13 5.29586 13 5.18077 13.0276C5.07873 13.0521 4.98119 13.0925 4.89172 13.1474C4.7908 13.2092 4.70432 13.2957 4.53137 13.4686L3.73137 14.2686C2.87462 15.1254 2.44624 15.5538 2.07846 15.5827C1.75934 15.6078 1.44749 15.4786 1.23959 15.2352C1 14.9547 1 14.3489 1 13.1373Z" fill="black"/>
</svg>
