<svg width="20" height="20" viewBox="0 0 20 20" fill="none" xmlns="http://www.w3.org/2000/svg">
<path fill-rule="evenodd" clip-rule="evenodd" d="M6.72302 1.50061C7.07032 1.50206 7.32501 1.50702 7.53217 1.52395C7.80383 1.54614 7.90455 1.58382 7.95399 1.60902C8.14215 1.70489 8.29513 1.85787 8.39101 2.04603C8.4162 2.09548 8.45388 2.19619 8.47607 2.46786C8.49922 2.75119 8.5 3.12347 8.5 3.70002V4.70002L8.5 4.74132C8.49999 5.54629 8.49998 6.21065 8.54419 6.75185C8.59012 7.31395 8.68868 7.83065 8.93598 8.31598C9.31947 9.06863 9.93139 9.68055 10.684 10.064C11.1694 10.3113 11.6861 10.4099 12.2482 10.4558C12.7894 10.5 13.4537 10.5 14.2587 10.5H14.3H15.3C15.8766 10.5 16.2488 10.5008 16.5322 10.5239C16.8038 10.5461 16.9045 10.5838 16.954 10.609C17.1422 10.7049 17.2951 10.8579 17.391 11.046C17.4162 11.0955 17.4539 11.1962 17.4761 11.4679C17.4988 11.7459 17.5 12.1096 17.5 12.6679C17.5 12.6786 17.5 12.6893 17.5 12.7V13.5L17.5 13.7C17.5 15.3802 17.5 16.2203 17.173 16.862C16.8854 17.4265 16.4265 17.8854 15.862 18.173C15.2202 18.5 14.3802 18.5 12.7 18.5H7.3C5.61984 18.5 4.77976 18.5 4.13803 18.173C3.57354 17.8854 3.1146 17.4265 2.82698 16.862C2.5 16.2203 2.5 15.3802 2.5 13.7V6.30002C2.5 4.61986 2.5 3.77979 2.82698 3.13805C3.1146 2.57356 3.57354 2.11462 4.13803 1.827C4.7017 1.5398 5.41841 1.50486 6.72302 1.50061ZM17.2811 8.61773C17.2191 8.46454 17.1445 8.3165 17.0579 8.17517C16.8724 7.87242 16.613 7.61299 16.0941 7.09414L11.9059 2.90591C11.387 2.38705 11.1276 2.12763 10.8249 1.9421C10.6835 1.85549 10.5355 1.78088 10.3823 1.71892C10.4277 1.91271 10.4534 2.10859 10.4694 2.30499C10.5 2.67957 10.5 3.13433 10.5 3.66148L10.5 3.70002V4.70002C10.5 5.5566 10.5008 6.13889 10.5376 6.58898C10.5734 7.0274 10.6383 7.2516 10.718 7.408C10.9097 7.78433 11.2157 8.09029 11.592 8.28203C11.7484 8.36172 11.9726 8.42665 12.411 8.46247C12.8611 8.49924 13.4434 8.50002 14.3 8.50002H15.3L15.3385 8.50002C15.8657 8.5 16.3205 8.49999 16.695 8.53059C16.8914 8.54664 17.0873 8.57231 17.2811 8.61773Z" fill="black"/>
</svg>
