<svg width="20" height="20" viewBox="0 0 20 20" fill="none" xmlns="http://www.w3.org/2000/svg">
<path d="M1.5 16.1373V6.8C1.5 5.11984 1.5 4.27976 1.82698 3.63803C2.1146 3.07354 2.57354 2.6146 3.13803 2.32698C3.77976 2 4.61984 2 6.3 2H13.7C15.3802 2 16.2202 2 16.862 2.32698C17.4265 2.6146 17.8854 3.07354 18.173 3.63803C18.5 4.27976 18.5 5.11984 18.5 6.8V10.2C18.5 11.8802 18.5 12.7202 18.173 13.362C17.8854 13.9265 17.4265 14.3854 16.862 14.673C16.2202 15 15.3802 15 13.7 15H7.82548C7.3363 15 7.09171 15 6.86154 15.0553C6.65746 15.1043 6.46237 15.1851 6.28343 15.2947C6.0816 15.4184 5.90865 15.5914 5.56274 15.9373L4.23137 17.2686L4.23136 17.2686C3.37462 18.1254 2.94624 18.5538 2.57846 18.5827C2.25934 18.6078 1.94749 18.4786 1.73959 18.2352C1.5 17.9547 1.5 17.3489 1.5 16.1373Z" fill="black"/>
</svg>
