<svg width="20" height="20" viewBox="0 0 20 20" fill="none" xmlns="http://www.w3.org/2000/svg">
<path fill-rule="evenodd" clip-rule="evenodd" d="M11.3724 4.26333C12.5769 3.05887 14.5297 3.05887 15.7342 4.26333C16.9386 5.4678 16.9386 7.42062 15.7342 8.62509L13.8089 10.5504C12.6044 11.7549 10.6516 11.7549 9.44711 10.5504C9.05658 10.1599 8.42342 10.1599 8.03289 10.5504C7.64237 10.9409 7.64237 11.5741 8.03289 11.9646C10.0184 13.9501 13.2376 13.9501 15.2231 11.9646L17.1484 10.0393C19.1339 8.05379 19.1339 4.83463 17.1484 2.84912C15.1629 0.863607 11.9437 0.863607 9.95821 2.84912L8.99555 3.81178C8.60503 4.20231 8.60503 4.83547 8.99555 5.22599C9.38608 5.61652 10.0192 5.61652 10.4098 5.22599L11.3724 4.26333ZM8.62765 15.7366C7.42318 16.9411 5.47036 16.9411 4.2659 15.7366C3.06143 14.5322 3.06143 12.5793 4.2659 11.3749L6.19122 9.44956C7.39568 8.2451 9.34851 8.2451 10.553 9.44956C10.9435 9.84009 11.5767 9.84009 11.9672 9.44956C12.3577 9.05904 12.3577 8.42587 11.9672 8.03535C9.98167 6.04983 6.76252 6.04983 4.77701 8.03535L2.85168 9.96067C0.866171 11.9462 0.866171 15.1653 2.85168 17.1508C4.8372 19.1364 8.05635 19.1364 10.0419 17.1508L11.0045 16.1882C11.395 15.7977 11.395 15.1645 11.0045 14.774C10.614 14.3835 9.98083 14.3835 9.59031 14.774L8.62765 15.7366Z" fill="black"/>
</svg>
