<svg width="20" height="20" viewBox="0 0 20 20" fill="none" xmlns="http://www.w3.org/2000/svg">
<path fill-rule="evenodd" clip-rule="evenodd" d="M1.82698 3.63803C1.5 4.27976 1.5 5.11984 1.5 6.8V7.17825C1.76461 7.09309 2.03429 7.05269 2.30497 7.03057C2.67954 6.99997 3.13431 6.99998 3.66146 7L3.7 7H16.3L16.3385 7C16.8657 6.99998 17.3205 6.99997 17.695 7.03057C17.959 7.05214 18.222 7.0911 18.4803 7.17199C18.4497 6.49135 18.3717 6.02806 18.173 5.63803C17.8854 5.07354 17.4265 4.6146 16.862 4.32698C16.2202 4 15.3802 4 13.7 4H12.6046C12.1969 4 11.9931 4 11.8013 3.95395C11.6312 3.91312 11.4686 3.84578 11.3195 3.7544C11.1513 3.65133 11.0072 3.5072 10.719 3.21895L10.281 2.78105C9.9928 2.4928 9.84867 2.34867 9.68048 2.2456C9.53135 2.15422 9.36878 2.08688 9.19872 2.04605C9.00691 2 8.80308 2 8.39543 2H6.3C4.61984 2 3.77976 2 3.13803 2.32698C2.57354 2.6146 2.1146 3.07354 1.82698 3.63803ZM18.5 12.2V11.2C18.5 10.6234 18.4992 10.2512 18.4761 9.96784C18.4539 9.69617 18.4162 9.59545 18.391 9.54601C18.2951 9.35785 18.1422 9.20487 17.954 9.10899C17.9045 9.0838 17.8038 9.04612 17.5322 9.02393C17.2488 9.00078 16.8766 9 16.3 9H3.7C3.12345 9 2.75117 9.00078 2.46784 9.02393C2.19617 9.04612 2.09545 9.0838 2.04601 9.10899C1.85785 9.20487 1.70487 9.35785 1.60899 9.54601C1.5838 9.59545 1.54612 9.69617 1.52393 9.96784C1.50078 10.2512 1.5 10.6234 1.5 11.2V12.2C1.5 13.8802 1.5 14.7202 1.82698 15.362C2.1146 15.9265 2.57354 16.3854 3.13803 16.673C3.77976 17 4.61984 17 6.3 17H13.7C15.3802 17 16.2202 17 16.862 16.673C17.4265 16.3854 17.8854 15.9265 18.173 15.362C18.5 14.7202 18.5 13.8802 18.5 12.2Z" fill="black"/>
</svg>
