<svg width="20" height="20" viewBox="0 0 20 20" fill="none" xmlns="http://www.w3.org/2000/svg">
<path fill-rule="evenodd" clip-rule="evenodd" d="M6.27289 4.74251C5.67986 4.21537 5.38334 3.95179 5.30356 3.74058C5.13989 3.30728 5.32516 2.81997 5.73536 2.60486C5.93531 2.5 6.33204 2.5 7.1255 2.5H12.8747C13.6681 2.5 14.0648 2.5 14.2648 2.60486C14.675 2.81997 14.8603 3.30728 14.6966 3.74058C14.6168 3.95179 14.3203 4.21537 13.7273 4.74251L12.9588 5.42561C12.831 5.53913 12.7672 5.59589 12.7182 5.66032C12.6197 5.78969 12.5613 5.94503 12.55 6.1072C12.5444 6.18797 12.555 6.27275 12.5762 6.4423L12.796 8.20037C12.8299 8.47179 12.8468 8.6075 12.8837 8.73433C12.9575 8.98866 13.0908 9.22173 13.2727 9.41424C13.3634 9.51025 13.4718 9.59364 13.6886 9.76041L14.2552 10.1962C15.1997 10.9228 15.6719 11.286 15.8007 11.576C16.0653 12.1719 15.8275 12.871 15.2544 13.182C14.9756 13.3333 14.3798 13.3333 13.1882 13.3333H6.81195C5.62038 13.3333 5.02459 13.3333 4.74571 13.182C4.17266 12.871 3.93486 12.1719 4.19947 11.576C4.32825 11.286 4.80049 10.9228 5.74496 10.1962L6.31154 9.76041C6.52835 9.59364 6.63675 9.51025 6.72744 9.41424C6.9093 9.22173 7.04266 8.98866 7.11649 8.73433C7.1533 8.6075 7.17027 8.47179 7.20419 8.20037L7.42395 6.4423C7.44515 6.27275 7.45574 6.18797 7.45013 6.1072C7.43887 5.94503 7.38042 5.78969 7.28198 5.66032C7.23295 5.59589 7.1691 5.53913 7.04139 5.42561L6.27289 4.74251Z" fill="black"/>
<path fill-rule="evenodd" clip-rule="evenodd" d="M10 12.3334C10.5523 12.3334 11 12.7811 11 13.3334V18.3334C11 18.8857 10.5523 19.3334 10 19.3334C9.44772 19.3334 9 18.8857 9 18.3334V13.3334C9 12.7811 9.44772 12.3334 10 12.3334Z" fill="black"/>
</svg>
