<svg xmlns="http://www.w3.org/2000/svg" width="24" height="24" viewBox="0 0 24 24">
  <path d="M6.70710678,10.2928932 C7.06759074,10.6533772 7.09532028,11.2206082 6.79029539,11.6128994 L6.70710678,11.7071068 L5.20710678,13.2071068 C3.66463445,14.7495791 3.66463445,17.2504209 5.20710678,18.7928932 C6.69816337,20.2839498 9.08476296,20.3336517 10.6355224,18.9419989 L10.7928932,18.7928932 L12.2928932,17.2928932 C12.6834175,16.9023689 13.3165825,16.9023689 13.7071068,17.2928932 C14.0675907,17.6533772 14.0953203,18.2206082 13.7902954,18.6128994 L13.7071068,18.7071068 L12.2071068,20.2071068 C9.88358587,22.5306277 6.11641413,22.5306277 3.79289322,20.2071068 C1.53051759,17.9447312 1.47098139,14.3136866 3.61428462,11.9792757 L3.79289322,11.7928932 L5.29289322,10.2928932 C5.68341751,9.90236893 6.31658249,9.90236893 6.70710678,10.2928932 Z M13.7071068,10.2928932 C14.0675907,10.6533772 14.0953203,11.2206082 13.7902954,11.6128994 L13.7071068,11.7071068 L9.70710678,15.7071068 C9.31658249,16.0976311 8.68341751,16.0976311 8.29289322,15.7071068 C7.93240926,15.3466228 7.90467972,14.7793918 8.20970461,14.3871006 L8.29289322,14.2928932 L12.2928932,10.2928932 C12.6834175,9.90236893 13.3165825,9.90236893 13.7071068,10.2928932 Z M20.2573593,3.74264069 C22.5197349,6.00501632 22.5792711,9.6360609 20.4359679,11.9704717 L20.2573593,12.1568542 L18.7573593,13.6568542 C18.366835,14.0473785 17.73367,14.0473785 17.3431458,13.6568542 C16.9826618,13.2963703 16.9549323,12.7291392 17.2599571,12.336848 L17.3431458,12.2426407 L18.8431458,10.7426407 C20.3856181,9.20016835 20.3856181,6.69932658 18.8431458,5.15685425 C17.3520892,3.66579766 14.9654896,3.61609577 13.4147301,5.00774859 L13.2573593,5.15685425 L11.7573593,6.65685425 C11.366835,7.04737854 10.73367,7.04737854 10.3431458,6.65685425 C9.98266179,6.29637029 9.95493225,5.72913923 10.2599571,5.33684803 L10.3431458,5.24264069 L11.8431458,3.74264069 C14.1666667,1.41911977 17.9338384,1.41911977 20.2573593,3.74264069 Z"/>
</svg>
