<svg width="28" height="28" viewBox="0 0 28 28" fill="none" xmlns="http://www.w3.org/2000/svg">
<g clip-path="url(#clip0_6657_5874)">
<path fill-rule="evenodd" clip-rule="evenodd" d="M13.9962 6.75452C14.5181 6.75452 14.9412 7.17761 14.9412 7.69952V8.36696C16.5019 8.60536 17.6974 9.95344 17.6974 11.5808C17.6974 12.1027 17.2743 12.5258 16.7524 12.5258C16.2305 12.5258 15.8074 12.1027 15.8074 11.5808C15.8074 10.829 15.198 10.2195 14.4462 10.2195H13.9962H13.6899C12.8587 10.2195 12.1849 10.8933 12.1849 11.7245V12.1095C12.1849 12.6314 12.608 13.0545 13.1299 13.0545H14.8624C16.4281 13.0545 17.6974 14.3238 17.6974 15.8895V16.2745C17.6974 17.9312 16.5108 19.3107 14.9412 19.6095V20.2995C14.9412 20.8214 14.5181 21.2445 13.9962 21.2445C13.4743 21.2445 13.0512 20.8214 13.0512 20.2995V19.6238C11.4869 19.3613 10.2949 18.0009 10.2949 16.362C10.2949 15.8401 10.718 15.417 11.2399 15.417C11.7618 15.417 12.1849 15.8401 12.1849 16.362C12.1849 17.1449 12.8196 17.7795 13.6024 17.7795L13.9962 17.7795L14.3024 17.7795C15.1336 17.7795 15.8074 17.1057 15.8074 16.2745V15.8895C15.8074 15.3676 15.3843 14.9445 14.8624 14.9445H13.1299C11.5642 14.9445 10.2949 13.6752 10.2949 12.1095V11.7245C10.2949 10.0679 11.4815 8.68834 13.0512 8.38951V7.69952C13.0512 7.17761 13.4743 6.75452 13.9962 6.75452Z" fill="white"/>
<g clip-path="url(#clip1_6657_5874)">
<path fill-rule="evenodd" clip-rule="evenodd" d="M26.6004 12.9503C27.1803 12.9503 27.6504 13.4204 27.6504 14.0003C27.6504 14.9106 27.5611 15.8011 27.3906 16.6632C27.2781 17.232 26.7257 17.602 26.1568 17.4894C25.5879 17.3769 25.218 16.8245 25.3305 16.2556C25.4747 15.527 25.5504 14.7731 25.5504 14.0003C25.5504 13.4204 26.0205 12.9503 26.6004 12.9503ZM26.0089 10.0315C25.4754 10.2588 24.8587 10.0106 24.6314 9.47713C24.4099 8.95733 24.1514 8.45696 23.859 7.97933C23.5562 7.48475 23.7117 6.83836 24.2063 6.5356C24.7009 6.23283 25.3473 6.38833 25.65 6.88292C25.9956 7.44738 26.3013 8.03904 26.5633 8.65399C26.7906 9.18748 26.5424 9.80423 26.0089 10.0315ZM25.0623 20.1286C25.5441 20.4512 25.6732 21.1034 25.3506 21.5852C24.3544 23.0733 23.0734 24.3543 21.5853 25.3506C21.1034 25.6732 20.4512 25.5441 20.1286 25.0622C19.806 24.5803 19.9351 23.9282 20.417 23.6055C21.677 22.762 22.7621 21.677 23.6056 20.417C23.9282 19.9351 24.5804 19.806 25.0623 20.1286ZM23.1877 5.31418C22.8007 5.74607 22.1369 5.78246 21.705 5.39548C20.8704 4.64763 19.9269 4.01973 18.9015 3.53848C18.3766 3.29209 18.1508 2.66679 18.3971 2.14184C18.6435 1.61689 19.2688 1.39107 19.7938 1.63747C21.0065 2.20666 22.1212 2.94868 23.1064 3.83149C23.5383 4.21847 23.5747 4.8823 23.1877 5.31418ZM17.4895 26.1567C17.602 26.7256 17.2321 27.278 16.6632 27.3905C15.8011 27.5611 14.9107 27.6503 14.0004 27.6503C13.0901 27.6503 12.1996 27.5611 11.3376 27.3905C10.7687 27.278 10.3988 26.7256 10.5113 26.1567C10.6239 25.5879 11.1762 25.2179 11.7451 25.3305C12.4737 25.4746 13.2277 25.5503 14.0004 25.5503C14.7731 25.5503 15.5271 25.4746 16.2557 25.3305C16.8245 25.2179 17.3769 25.5879 17.4895 26.1567ZM16.8738 1.68447C16.7901 2.25829 16.2571 2.65562 15.6833 2.57192C15.1345 2.49187 14.5726 2.45034 14.0004 2.45034C13.2277 2.45034 12.4737 2.52608 11.7451 2.67021C11.1762 2.78275 10.6239 2.41282 10.5113 1.84394C10.3988 1.27507 10.7687 0.722674 11.3376 0.610133C12.1996 0.439591 13.0901 0.350342 14.0004 0.350342C14.6743 0.350342 15.3375 0.399265 15.9864 0.49391C16.5602 0.577609 16.9575 1.11064 16.8738 1.68447ZM7.87215 25.0622C7.54954 25.5441 6.89738 25.6732 6.4155 25.3506C4.9274 24.3543 3.64641 23.0733 2.65015 21.5852C2.32754 21.1034 2.45665 20.4512 2.93853 20.1286C3.42041 19.806 4.07257 19.9351 4.39518 20.417C5.23873 21.677 6.32377 22.762 7.58377 23.6055C8.06565 23.9282 8.19476 24.5803 7.87215 25.0622ZM7.87215 2.93848C8.19476 3.42036 8.06565 4.07252 7.58377 4.39513C6.32377 5.23868 5.23873 6.32372 4.39518 7.58372C4.07257 8.0656 3.42041 8.19471 2.93853 7.8721C2.45665 7.54949 2.32754 6.89733 2.65015 6.41545C3.64641 4.92735 4.9274 3.64636 6.4155 2.6501C6.89738 2.32749 7.54954 2.4566 7.87215 2.93848ZM1.84399 10.5113C2.41287 10.6238 2.7828 11.1762 2.67026 11.7451C2.52612 12.4736 2.45039 13.2276 2.45039 14.0003C2.45039 14.7731 2.52612 15.527 2.67026 16.2556C2.7828 16.8245 2.41287 17.3769 1.84399 17.4894C1.27512 17.602 0.722723 17.232 0.610183 16.6632C0.43964 15.8011 0.350391 14.9106 0.350391 14.0003C0.350391 13.0901 0.43964 12.1996 0.610183 11.3375C0.722723 10.7687 1.27512 10.3987 1.84399 10.5113Z" fill="white"/>
<path fill-rule="evenodd" clip-rule="evenodd" d="M26.009 10.0313C25.4755 10.2586 24.8588 10.0104 24.6315 9.47688C22.8706 5.34409 18.7723 2.4501 14.0005 2.4501C7.62158 2.4501 2.45047 7.62121 2.45047 14.0001C2.45047 14.58 1.98037 15.0501 1.40047 15.0501C0.820568 15.0501 0.350467 14.58 0.350467 14.0001C0.350467 6.46141 6.46178 0.350098 14.0005 0.350098C19.6435 0.350098 24.4844 3.77414 26.5634 8.65374C26.7907 9.18724 26.5425 9.80399 26.009 10.0313Z" fill="white"/>
<path fill-rule="evenodd" clip-rule="evenodd" d="M26.6004 2.71277C27.1803 2.71277 27.6504 3.18287 27.6504 3.76277V9.27527C27.6504 9.85517 27.1803 10.3253 26.6004 10.3253H21.0879C20.508 10.3253 20.0379 9.85517 20.0379 9.27527C20.0379 8.69537 20.508 8.22527 21.0879 8.22527H25.5504V3.76277C25.5504 3.18287 26.0205 2.71277 26.6004 2.71277Z" fill="white"/>
</g>
</g>
<defs>
<clipPath id="clip0_6657_5874">
<rect width="28" height="28" fill="white"/>
</clipPath>
<clipPath id="clip1_6657_5874">
<rect width="37.8" height="37.8" fill="white" transform="translate(14 -12.7286) rotate(45)"/>
</clipPath>
</defs>
</svg>
