<svg width="16" height="18" viewBox="0 0 16 18" fill="none" xmlns="http://www.w3.org/2000/svg">
<path fill-rule="evenodd" clip-rule="evenodd" d="M0 7.8C0 6.11984 0 5.27976 0.32698 4.63803C0.614601 4.07354 1.07354 3.6146 1.63803 3.32698C2.27976 3 3.11984 3 4.8 3H9.2C10.8802 3 11.7202 3 12.362 3.32698C12.9265 3.6146 13.3854 4.07354 13.673 4.63803C14 5.27976 14 6.11984 14 7.8V8.75114L12.1959 7.05981C11.2379 6.16169 9.67 6.84096 9.67 8.15412V9.06132C7.69734 9.31164 6.35568 10.3018 5.4894 11.5413C4.69722 12.6747 4.32928 13.9737 4.15634 14.9992C2.89384 14.9939 2.19203 14.9553 1.63803 14.673C1.07354 14.3854 0.614601 13.9265 0.32698 13.362C0 12.7202 0 11.8802 0 10.2V7.8ZM11.512 7.78935L14 10.1219V10.1244L15.6111 11.6353C15.8217 11.8328 15.8217 12.1672 15.6111 12.3647L11.5103 16.2104C11.191 16.5098 10.6683 16.2834 10.6683 15.8456V14C10.316 14.0001 9.98352 14.02 9.67 14.0565C8.49201 14.1936 7.58138 14.5651 6.89057 15H6.89C6.3954 15.3114 6.01352 15.6553 5.7269 15.9689C5.51352 16.2023 5.02721 16.0538 5.06221 15.7395C5.28666 13.724 6.29333 10 10.6683 10V8.15436C10.6683 7.88128 10.8717 7.69045 11.1022 7.65821C11.2417 7.63821 11.3914 7.67627 11.512 7.78935Z" fill="black"/>
</svg>
