<svg width="24" height="24" viewBox="0 0 24 24" fill="none" xmlns="http://www.w3.org/2000/svg">
<path d="M11.8301 5.65039C11.7211 5.65038 11.6131 5.67184 11.5124 5.71356C11.4117 5.75527 11.3202 5.81641 11.2431 5.89349C11.166 5.97057 11.1049 6.06209 11.0632 6.1628C11.0215 6.26351 11 6.37146 11 6.48047C11 6.58948 11.0215 6.69742 11.0632 6.79814C11.1049 6.89885 11.166 6.99036 11.2431 7.06745C11.3202 7.14453 11.4117 7.20567 11.5124 7.24738C11.6131 7.28909 11.7211 7.31056 11.8301 7.31055H19.8301C19.9391 7.31056 20.047 7.28909 20.1477 7.24738C20.2485 7.20567 20.34 7.14453 20.4171 7.06745C20.4941 6.99036 20.5553 6.89885 20.597 6.79814C20.6387 6.69742 20.6602 6.58948 20.6602 6.48047C20.6602 6.37146 20.6387 6.26351 20.597 6.1628C20.5553 6.06209 20.4941 5.97057 20.4171 5.89349C20.34 5.81641 20.2485 5.75527 20.1477 5.71356C20.047 5.67184 19.9391 5.65038 19.8301 5.65039H11.8301Z" fill="black"/>
<path d="M8.12497 6.68164C8.02317 6.72071 7.93006 6.77946 7.85097 6.85452C7.77188 6.92959 7.70836 7.01951 7.66403 7.11914C7.59701 7.26968 7.50667 7.40885 7.39646 7.53125C7.24939 7.69496 7.17336 7.91037 7.18508 8.13012C7.1968 8.34988 7.29531 8.55598 7.45896 8.70312C7.62267 8.85019 7.83808 8.92622 8.05783 8.9145C8.27759 8.90278 8.48369 8.80427 8.63083 8.64062C8.85766 8.38872 9.04376 8.10257 9.18161 7.79296C9.22589 7.69332 9.25009 7.58594 9.25285 7.47694C9.25561 7.36794 9.23687 7.25946 9.19769 7.15771C9.15851 7.05595 9.09967 6.96292 9.02452 6.88391C8.94938 6.80491 8.8594 6.74148 8.75974 6.69726C8.55858 6.60813 8.33027 6.60251 8.12497 6.68164Z" fill="black"/>
<path d="M8.01367 4.01364C7.79408 4.00635 7.58057 4.08642 7.41992 4.2363C7.34009 4.31064 7.2757 4.39999 7.23043 4.49924C7.18516 4.59849 7.15989 4.70569 7.15609 4.81471C7.15228 4.92373 7.16999 5.03243 7.20823 5.1346C7.24646 5.23676 7.30446 5.33039 7.3789 5.41013C7.49125 5.53061 7.5827 5.66703 7.65234 5.81638C7.69832 5.9153 7.76336 6.00419 7.84372 6.07796C7.92408 6.15173 8.0182 6.20894 8.12069 6.24631C8.22318 6.28368 8.33203 6.30047 8.44102 6.29574C8.55001 6.29101 8.65699 6.26483 8.75586 6.21872C8.85478 6.17274 8.94367 6.1077 9.01744 6.02734C9.09122 5.94698 9.14842 5.85286 9.18579 5.75037C9.22316 5.64788 9.23995 5.53903 9.23522 5.43004C9.23049 5.32105 9.20431 5.21407 9.1582 5.1152C9.01496 4.80805 8.82296 4.52521 8.59179 4.27731C8.51747 4.19755 8.42816 4.13321 8.32896 4.08796C8.22977 4.04272 8.12263 4.01747 8.01367 4.01364Z" fill="black"/>
<path d="M6.23047 3.25C4.45642 3.25 3 4.70642 3 6.48047C3 8.25451 4.45642 9.71094 6.23047 9.71094C6.33948 9.71095 6.44742 9.68948 6.54814 9.64777C6.64885 9.60606 6.74036 9.54492 6.81745 9.46784C6.89453 9.39075 6.95567 9.29924 6.99738 9.19853C7.03909 9.09781 7.06056 8.98987 7.06055 8.88086C7.06056 8.77185 7.03909 8.6639 6.99738 8.56319C6.95567 8.46248 6.89453 8.37096 6.81745 8.29388C6.74036 8.2168 6.64885 8.15566 6.54814 8.11395C6.44742 8.07223 6.33948 8.05077 6.23047 8.05078C5.35356 8.05078 4.66016 7.35738 4.66016 6.48047C4.66016 5.60356 5.35356 4.91016 6.23047 4.91016C6.33948 4.91017 6.44742 4.8887 6.54814 4.84699C6.64885 4.80528 6.74036 4.74414 6.81745 4.66705C6.89453 4.58997 6.95567 4.49846 6.99738 4.39775C7.03909 4.29703 7.06056 4.18909 7.06055 4.08008C7.06056 3.97107 7.03909 3.86312 6.99738 3.76241C6.95567 3.66169 6.89453 3.57018 6.81745 3.4931C6.74036 3.41602 6.64885 3.35488 6.54814 3.31316C6.44742 3.27145 6.33948 3.24999 6.23047 3.25Z" fill="black"/>
<path d="M3.83008 11.25C3.72107 11.25 3.61312 11.2715 3.51241 11.3132C3.41169 11.3549 3.32018 11.416 3.2431 11.4931C3.16602 11.5702 3.10488 11.6617 3.06317 11.7624C3.02145 11.8631 2.99999 11.9711 3 12.0801C2.99999 12.1891 3.02145 12.297 3.06317 12.3977C3.10488 12.4985 3.16602 12.59 3.2431 12.6671C3.32018 12.7441 3.41169 12.8053 3.51241 12.847C3.61312 12.8887 3.72107 12.9102 3.83008 12.9102H19.8301C19.9391 12.9102 20.047 12.8887 20.1477 12.847C20.2485 12.8053 20.34 12.7441 20.4171 12.6671C20.4941 12.59 20.5553 12.4985 20.597 12.3977C20.6387 12.297 20.6602 12.1891 20.6602 12.0801C20.6602 11.9711 20.6387 11.8631 20.597 11.7624C20.5553 11.6617 20.4941 11.5702 20.4171 11.4931C20.34 11.416 20.2485 11.3549 20.1477 11.3132C20.047 11.2715 19.9391 11.25 19.8301 11.25H3.83008Z" fill="black"/>
<path d="M3.83008 16.8496C3.72107 16.8496 3.61312 16.8711 3.51241 16.9128C3.41169 16.9545 3.32018 17.0156 3.2431 17.0927C3.16602 17.1698 3.10488 17.2613 3.06317 17.362C3.02145 17.4627 2.99999 17.5707 3 17.6797C2.99999 17.7887 3.02145 17.8966 3.06317 17.9974C3.10488 18.0981 3.16602 18.1896 3.2431 18.2667C3.32018 18.3437 3.41169 18.4049 3.51241 18.4466C3.61312 18.4883 3.72107 18.5098 3.83008 18.5098H11.8301C11.9391 18.5098 12.047 18.4883 12.1477 18.4466C12.2485 18.4049 12.34 18.3437 12.4171 18.2667C12.4941 18.1896 12.5553 18.0981 12.597 17.9974C12.6387 17.8966 12.6602 17.7887 12.6602 17.6797C12.6602 17.5707 12.6387 17.4627 12.597 17.362C12.5553 17.2613 12.4941 17.1698 12.4171 17.0927C12.34 17.0156 12.2485 16.9545 12.1477 16.9128C12.047 16.8711 11.9391 16.8496 11.8301 16.8496H3.83008Z" fill="black"/>
</svg>
