<svg width="24" height="24" viewBox="0 0 24 24" fill="none" xmlns="http://www.w3.org/2000/svg">
<path d="M5.63477 3.23828C6.00554 2.96927 6.52459 3.05129 6.79395 3.42187C7.06319 3.79257 6.98079 4.31154 6.61035 4.58105C5.43966 5.43161 4.48608 6.54759 3.8291 7.83691C3.17221 9.1262 2.83011 10.553 2.83008 12C2.83008 13.447 3.17223 14.8738 3.8291 16.1631C4.48606 17.4524 5.43965 18.5684 6.61035 19.4189C6.98083 19.6884 7.0631 20.2074 6.79395 20.5781C6.52459 20.9489 6.00559 21.0309 5.63477 20.7617C4.25222 19.7572 3.12647 18.4396 2.35059 16.917C1.57474 15.3942 1.16992 13.709 1.16992 12C1.16996 10.291 1.57471 8.60575 2.35059 7.083C3.12649 5.5604 4.25223 4.24275 5.63477 3.23828ZM17.2061 3.42187C17.4754 3.05129 17.9945 2.96927 18.3652 3.23828C19.7478 4.24275 20.8735 5.5604 21.6494 7.083C22.4253 8.60575 22.83 10.291 22.8301 12C22.8301 13.709 22.4253 15.3942 21.6494 16.917C20.8735 18.4396 19.7478 19.7572 18.3652 20.7617C17.9944 21.0309 17.4754 20.9489 17.2061 20.5781C16.9369 20.2074 17.0192 19.6884 17.3896 19.4189C18.5603 18.5684 19.5139 17.4524 20.1709 16.1631C20.8278 14.8738 21.1699 13.447 21.1699 12C21.1699 10.553 20.8278 9.1262 20.1709 7.83691C19.5139 6.54759 18.5603 5.43161 17.3896 4.58105C17.0192 4.31154 16.9368 3.79257 17.2061 3.42187ZM8.15332 6.70605C8.52409 6.43715 9.04415 6.5191 9.31348 6.88965C9.58218 7.26016 9.49978 7.77935 9.12988 8.04882C8.50643 8.50179 7.99836 9.09661 7.64844 9.7832C7.29869 10.4697 7.11634 11.2296 7.11621 12C7.11625 12.7706 7.29863 13.5311 7.64844 14.2178C7.99836 14.9044 8.50642 15.4992 9.12988 15.9521C9.49985 16.2216 9.58222 16.7408 9.31348 17.1113C9.04414 17.482 8.52414 17.564 8.15332 17.2949C7.31805 16.688 6.63775 15.8916 6.16895 14.9717C5.70019 14.0516 5.45609 13.0326 5.45605 12C5.45618 10.9676 5.70025 9.94921 6.16895 9.02929C6.63774 8.10941 7.31809 7.31296 8.15332 6.70605ZM14.6875 6.88965C14.9571 6.51926 15.477 6.43674 15.8477 6.70605C16.6827 7.31298 17.3633 8.10948 17.832 9.02929C18.3006 9.9491 18.5448 10.9677 18.5449 12C18.5449 13.0325 18.3007 14.0517 17.832 14.9717C17.3633 15.8915 16.6827 16.688 15.8477 17.2949C15.4769 17.5643 14.957 17.4818 14.6875 17.1113C14.4183 16.7406 14.5006 16.2216 14.8711 15.9521C15.4944 15.4991 16.0027 14.9043 16.3525 14.2178C16.7022 13.5312 16.8847 12.7705 16.8848 12C16.8846 11.2297 16.7022 10.4696 16.3525 9.7832C16.0027 9.09668 15.4944 8.5018 14.8711 8.04882C14.5006 7.77937 14.4183 7.26038 14.6875 6.88965ZM12 10.25C12.9665 10.25 13.7499 11.0336 13.75 12C13.75 12.9665 12.9665 13.75 12 13.75C11.0335 13.75 10.25 12.9665 10.25 12C10.2501 11.0336 11.0335 10.25 12 10.25Z" fill="#CE4C47"/>
</svg>
