<svg width="24" height="24" viewBox="0 0 24 24" fill="none" xmlns="http://www.w3.org/2000/svg">
<path fill-rule="evenodd" clip-rule="evenodd" d="M6 10C6 6.68629 8.68629 4 12 4C15.3137 4 18 6.68629 18 10C18 12.6656 16.8216 15.4723 15.3686 17.6436C14.6474 18.7215 13.8837 19.6045 13.2135 20.2053C12.8776 20.5064 12.5835 20.7201 12.3467 20.8531C12.1294 20.9752 12.0196 20.9959 12.0013 20.9993L12 20.9996L11.9987 20.9993C11.9804 20.9959 11.8706 20.9752 11.6533 20.8531C11.4165 20.7201 11.1224 20.5064 10.7865 20.2053C10.1163 19.6045 9.35256 18.7215 8.63136 17.6436C7.17845 15.4723 6 12.6656 6 10ZM12 2C7.58172 2 4 5.58172 4 10C4 13.2004 5.38855 16.3937 6.96915 18.7559C7.76469 19.9448 8.63432 20.9619 9.45152 21.6945C9.85937 22.0601 10.2726 22.3715 10.6737 22.5968C11.0565 22.8119 11.5182 23 12 23C12.4818 23 12.9435 22.8119 13.3263 22.5968C13.7274 22.3715 14.1406 22.0601 14.5485 21.6945C15.3657 20.9619 16.2353 19.9448 17.0309 18.7559C18.6114 16.3937 20 13.2004 20 10C20 5.58172 16.4183 2 12 2ZM12 12C13.1046 12 14 11.1046 14 10C14 8.89543 13.1046 8 12 8C10.8954 8 10 8.89543 10 10C10 11.1046 10.8954 12 12 12Z" fill="black"/>
</svg>
