<svg xmlns="http://www.w3.org/2000/svg" width="160" height="160" viewBox="0 0 160 160">
  <path fill-rule="evenodd" d="M80,0 C124.18278,0 160,35.81722 160,80 C160,124.18278 124.18278,160 80,160 C35.81722,160 0,124.18278 0,80 C0,35.81722 35.81722,0 80,0 Z M114.262551,46.4516952 L114.123923,46.4516129 C110.995743,46.5072954 106.196346,48.175802 83.0991626,57.7808899 C75.0096566,61.1449544 58.8420368,68.1077211 34.5963033,78.66919 C30.6591745,80.2345564 28.5967328,81.765936 28.4089783,83.2633288 C28.0485093,86.1381656 32.1881416,87.033142 37.3966671,88.7259059 C41.6431837,90.1060181 47.3554955,91.7206089 50.3250916,91.7847532 C53.0187989,91.8429382 56.0252838,90.7326168 59.3445463,88.4537891 C81.9980882,73.16492 93.6919457,65.4371862 94.4261186,65.2705877 C94.9440646,65.1530554 95.6618114,65.0052734 96.1481181,65.4374337 C96.6344248,65.8695939 96.5866185,66.6880224 96.5351057,66.9075859 C96.1232236,68.6631563 74.8428596,88.0156059 73.6181603,89.2873883 C68.9384622,94.1469958 63.6153018,97.1205426 71.8267811,102.530755 C78.9321467,107.212193 83.0675031,110.19863 90.3875424,114.996094 C95.0654739,118.061953 98.7330313,121.697601 103.562866,121.253237 C105.785287,121.048765 108.080902,118.959403 109.246762,112.727987 C112.002037,98.0012935 117.417883,66.09303 118.669527,52.9443975 C118.779187,51.7924073 118.641237,50.318088 118.530455,49.6708963 C118.419672,49.0237045 118.188168,48.1015919 117.346762,47.4189793 C116.350285,46.6105609 114.811937,46.4400827 114.123923,46.4516129 Z"/>
</svg>
