<svg width="25" height="21" viewBox="0 0 25 21" fill="none" xmlns="http://www.w3.org/2000/svg">
<path fill-rule="evenodd" clip-rule="evenodd" d="M1.71862 8.8631C1.71862 8.8631 11.7849 4.50489 15.1435 3.1167C21.5365 0.474327 22.8649 0.0153183 23.7307 0.000161607C23.9212 -0.00317198 24.347 0.0437268 24.6228 0.266124C24.8557 0.453912 24.9197 0.707586 24.9504 0.885629C24.9811 1.06367 25.0192 1.46926 24.9889 1.78617C24.6425 5.40338 23.1434 14.1814 22.3808 18.2327C22.0581 19.947 21.4227 20.5218 20.8076 20.578C19.4708 20.7003 18.4556 19.7001 17.1608 18.8567C15.1348 17.5369 13.9901 16.7153 12.0235 15.4275C9.75066 13.9391 11.224 13.1211 12.5193 11.7842C12.8583 11.4343 18.7484 6.11043 18.8624 5.62747C18.8767 5.56706 18.8899 5.34191 18.7553 5.22303C18.6207 5.10414 18.422 5.14479 18.2787 5.17713C17.9738 5.24587 8.56858 11.5549 8.56858 11.5549C8.56858 11.5549 7.19049 12.4952 6.07212 12.4712C5.25018 12.4536 3.6691 12.0094 2.49372 11.6297C1.05208 11.164 -0.0937162 10.9178 0.00605648 10.127C0.0840081 9.50905 1.71862 8.8631 1.71862 8.8631Z" fill="white"/>
</svg>
