<svg width="24" height="24" viewBox="0 0 24 24" fill="none" xmlns="http://www.w3.org/2000/svg">
<path d="M18 9.75C18.7956 9.75 19.5587 9.43393 20.1213 8.87132C20.6839 8.30871 21 7.54565 21 6.75V6C21 5.20435 20.6839 4.44129 20.1213 3.87868C19.5587 3.31607 18.7956 3 18 3H17.25C16.4544 3 15.6913 3.31607 15.1287 3.87868C14.5661 4.44129 14.25 5.20435 14.25 6V8.25H9.75V6C9.75 5.20435 9.43393 4.44129 8.87132 3.87868C8.30871 3.31607 7.54565 3 6.75 3H6C5.20435 3 4.44129 3.31607 3.87868 3.87868C3.31607 4.44129 3 5.20435 3 6V6.75C3 7.54565 3.31607 8.30871 3.87868 8.87132C4.44129 9.43393 5.20435 9.75 6 9.75H8.25V14.25H6C5.20435 14.25 4.44129 14.5661 3.87868 15.1287C3.31607 15.6913 3 16.4544 3 17.25V18C3 18.7956 3.31607 19.5587 3.87868 20.1213C4.44129 20.6839 5.20435 21 6 21H6.75C7.54565 21 8.30871 20.6839 8.87132 20.1213C9.43393 19.5587 9.75 18.7956 9.75 18V15.75H14.25V18C14.25 18.7956 14.5661 19.5587 15.1287 20.1213C15.6913 20.6839 16.4544 21 17.25 21H18C18.7956 21 19.5587 20.6839 20.1213 20.1213C20.6839 19.5587 21 18.7956 21 18V17.25C21 16.4544 20.6839 15.6913 20.1213 15.1287C19.5587 14.5661 18.7956 14.25 18 14.25H15.75V9.75H18ZM15.75 6C15.75 5.60218 15.908 5.22064 16.1893 4.93934C16.4706 4.65804 16.8522 4.5 17.25 4.5H18C18.3978 4.5 18.7794 4.65804 19.0607 4.93934C19.342 5.22064 19.5 5.60218 19.5 6V6.75C19.5 7.14782 19.342 7.52936 19.0607 7.81066C18.7794 8.09196 18.3978 8.25 18 8.25H15.75V6ZM6 8.25C5.60218 8.25 5.22064 8.09196 4.93934 7.81066C4.65804 7.52936 4.5 7.14782 4.5 6.75V6C4.5 5.60218 4.65804 5.22064 4.93934 4.93934C5.22064 4.65804 5.60218 4.5 6 4.5H6.75C7.14782 4.5 7.52936 4.65804 7.81066 4.93934C8.09196 5.22064 8.25 5.60218 8.25 6V8.25H6ZM8.25 18C8.25 18.3978 8.09196 18.7794 7.81066 19.0607C7.52936 19.342 7.14782 19.5 6.75 19.5H6C5.60218 19.5 5.22064 19.342 4.93934 19.0607C4.65804 18.7794 4.5 18.3978 4.5 18V17.25C4.5 16.8522 4.65804 16.4706 4.93934 16.1893C5.22064 15.908 5.60218 15.75 6 15.75H8.25V18ZM14.25 14.25H9.75V9.75H14.25V14.25ZM15.75 15.75H18C18.3978 15.75 18.7794 15.908 19.0607 16.1893C19.342 16.4706 19.5 16.8522 19.5 17.25V18C19.5 18.3978 19.342 18.7794 19.0607 19.0607C18.7794 19.342 18.3978 19.5 18 19.5H17.25C16.8522 19.5 16.4706 19.342 16.1893 19.0607C15.908 18.7794 15.75 18.3978 15.75 18V15.75Z" fill="black"/>
<path fill-rule="evenodd" clip-rule="evenodd" d="M3.77681 3.77681C4.36643 3.1872 5.16612 2.85596 5.99996 2.85596H6.74996C7.5838 2.85596 8.38349 3.1872 8.9731 3.77681C9.56272 4.36643 9.89396 5.16612 9.89396 5.99996V8.10596H14.106V5.99996C14.106 5.16612 14.4372 4.36643 15.0268 3.77681C15.6164 3.1872 16.4161 2.85596 17.25 2.85596H18C18.8338 2.85596 19.6335 3.1872 20.2231 3.77681C20.8127 4.36643 21.144 5.16612 21.144 5.99996V6.74996C21.144 7.5838 20.8127 8.38349 20.2231 8.9731C19.6335 9.56272 18.8338 9.89396 18 9.89396H15.894V14.106H18C18.8338 14.106 19.6335 14.4372 20.2231 15.0268C20.8127 15.6164 21.144 16.4161 21.144 17.25V18C21.144 18.8338 20.8127 19.6335 20.2231 20.2231C19.6335 20.8127 18.8338 21.144 18 21.144H17.25C16.4161 21.144 15.6164 20.8127 15.0268 20.2231C14.4372 19.6335 14.106 18.8338 14.106 18V15.894H9.89396V18C9.89396 18.8338 9.56272 19.6335 8.9731 20.2231C8.38349 20.8127 7.5838 21.144 6.74996 21.144H5.99996C5.16612 21.144 4.36643 20.8127 3.77681 20.2231C3.1872 19.6335 2.85596 18.8338 2.85596 18V17.25C2.85596 16.4161 3.1872 15.6164 3.77681 15.0268C4.36643 14.4372 5.16612 14.106 5.99996 14.106H8.10596V9.89396H5.99996C5.16612 9.89396 4.36643 9.56272 3.77681 8.9731C3.1872 8.38349 2.85596 7.5838 2.85596 6.74996V5.99996C2.85596 5.16612 3.1872 4.36643 3.77681 3.77681ZM5.99996 3.14396C5.2425 3.14396 4.51606 3.44486 3.98046 3.98046C3.44486 4.51606 3.14396 5.2425 3.14396 5.99996V6.74996C3.14396 7.50742 3.44486 8.23385 3.98046 8.76945C4.51606 9.30506 5.2425 9.60596 5.99996 9.60596H8.39396V14.394H5.99996C5.2425 14.394 4.51606 14.6949 3.98046 15.2305C3.44486 15.7661 3.14396 16.4925 3.14396 17.25V18C3.14396 18.7574 3.44486 19.4838 3.98046 20.0195C4.51606 20.5551 5.2425 20.856 5.99996 20.856H6.74996C7.50742 20.856 8.23385 20.5551 8.76945 20.0195C9.30506 19.4838 9.60596 18.7574 9.60596 18V15.606H14.394V18C14.394 18.7574 14.6949 19.4838 15.2305 20.0195C15.7661 20.5551 16.4925 20.856 17.25 20.856H18C18.7574 20.856 19.4838 20.5551 20.0195 20.0195C20.5551 19.4838 20.856 18.7574 20.856 18V17.25C20.856 16.4925 20.5551 15.7661 20.0195 15.2305C19.4838 14.6949 18.7574 14.394 18 14.394H15.606V9.60596H18C18.7574 9.60596 19.4838 9.30506 20.0195 8.76945C20.5551 8.23385 20.856 7.50742 20.856 6.74996V5.99996C20.856 5.2425 20.5551 4.51606 20.0195 3.98046C19.4838 3.44486 18.7574 3.14396 18 3.14396H17.25C16.4925 3.14396 15.7661 3.44486 15.2305 3.98046C14.6949 4.51606 14.394 5.2425 14.394 5.99996V8.39396H9.60596V5.99996C9.60596 5.2425 9.30506 4.51606 8.76945 3.98046C8.23385 3.44486 7.50742 3.14396 6.74996 3.14396H5.99996ZM5.99996 4.64396C5.64032 4.64396 5.29542 4.78682 5.04112 5.04112C4.78682 5.29542 4.64396 5.64032 4.64396 5.99996V6.74996C4.64396 7.10959 4.78682 7.45449 5.04112 7.70879C5.29542 7.96309 5.64032 8.10596 5.99996 8.10596H8.10596V5.99996C8.10596 5.64032 7.96309 5.29542 7.70879 5.04112C7.45449 4.78682 7.10959 4.64396 6.74996 4.64396H5.99996ZM4.83747 4.83747C5.14578 4.52916 5.56394 4.35596 5.99996 4.35596H6.74996C7.18597 4.35596 7.60413 4.52916 7.91244 4.83747C8.22075 5.14578 8.39396 5.56394 8.39396 5.99996V8.39396H5.99996C5.56394 8.39396 5.14578 8.22075 4.83747 7.91244C4.52916 7.60413 4.35596 7.18597 4.35596 6.74996V5.99996C4.35596 5.56394 4.52916 5.14578 4.83747 4.83747ZM17.25 4.64396C16.8903 4.64396 16.5454 4.78682 16.2911 5.04112C16.0368 5.29542 15.894 5.64032 15.894 5.99996V8.10596H18C18.3596 8.10596 18.7045 7.96309 18.9588 7.70879C19.2131 7.45449 19.356 7.10959 19.356 6.74996V5.99996C19.356 5.64032 19.2131 5.29542 18.9588 5.04112C18.7045 4.78682 18.3596 4.64396 18 4.64396H17.25ZM16.0875 4.83747C16.3958 4.52916 16.8139 4.35596 17.25 4.35596H18C18.436 4.35596 18.8541 4.52916 19.1624 4.83747C19.4707 5.14578 19.644 5.56394 19.644 5.99996V6.74996C19.644 7.18597 19.4707 7.60413 19.1624 7.91244C18.8541 8.22075 18.436 8.39396 18 8.39396H15.606V5.99996C15.606 5.56394 15.7792 5.14578 16.0875 4.83747ZM9.60596 9.60596H14.394V14.394H9.60596V9.60596ZM9.89396 9.89396V14.106H14.106V9.89396H9.89396ZM5.99996 15.894C5.64032 15.894 5.29542 16.0368 5.04112 16.2911C4.78682 16.5454 4.64396 16.8903 4.64396 17.25V18C4.64396 18.3596 4.78682 18.7045 5.04112 18.9588C5.29542 19.2131 5.64032 19.356 5.99996 19.356H6.74996C7.10959 19.356 7.45449 19.2131 7.70879 18.9588C7.96309 18.7045 8.10596 18.3596 8.10596 18V15.894H5.99996ZM4.83747 16.0875C5.14578 15.7792 5.56394 15.606 5.99996 15.606H8.39396V18C8.39396 18.436 8.22075 18.8541 7.91244 19.1624C7.60413 19.4707 7.18597 19.644 6.74996 19.644H5.99996C5.56394 19.644 5.14578 19.4707 4.83747 19.1624C4.52916 18.8541 4.35596 18.436 4.35596 18V17.25C4.35596 16.8139 4.52916 16.3958 4.83747 16.0875ZM15.606 15.606H18C18.436 15.606 18.8541 15.7792 19.1624 16.0875C19.4707 16.3958 19.644 16.8139 19.644 17.25V18C19.644 18.436 19.4707 18.8541 19.1624 19.1624C18.8541 19.4707 18.436 19.644 18 19.644H17.25C16.8139 19.644 16.3958 19.4707 16.0875 19.1624C15.7792 18.8541 15.606 18.436 15.606 18V15.606ZM15.894 15.894V18C15.894 18.3596 16.0368 18.7045 16.2911 18.9588C16.5454 19.2131 16.8903 19.356 17.25 19.356H18C18.3596 19.356 18.7045 19.2131 18.9588 18.9588C19.2131 18.7045 19.356 18.3596 19.356 18V17.25C19.356 16.8903 19.2131 16.5454 18.9588 16.2911C18.7045 16.0368 18.3596 15.894 18 15.894H15.894Z" fill="black"/>
</svg>
