<svg width="24" height="24" viewBox="0 0 24 24" fill="none" xmlns="http://www.w3.org/2000/svg">
<path fill-rule="evenodd" clip-rule="evenodd" d="M2.35061 5.18193C2.18465 5.64658 2.10254 6.14397 2.05782 6.69138C1.99998 7.39925 1.99999 8.27339 2 9.35717V9.35718V9.35719V9.35719V9.4V14.6V14.6428V14.6428V14.6428C1.99999 15.7266 1.99998 16.6008 2.05782 17.3086C2.11737 18.0375 2.24318 18.6777 2.54497 19.27C3.02434 20.2108 3.78924 20.9757 4.73005 21.455C5.32234 21.7568 5.96253 21.8826 6.69138 21.9422C7.39923 22 8.27334 22 9.35707 22H9.35717H9.4H11C11.5523 22 12 21.5523 12 21C12 20.4477 11.5523 20 11 20H9.4C8.2634 20 7.47108 19.9992 6.85424 19.9488C6.24907 19.8994 5.90139 19.8072 5.63803 19.673C5.46758 19.5862 5.30676 19.4837 5.15736 19.3674L7.30636 15.8612C7.65497 15.2924 7.88124 14.9251 8.07099 14.6709C8.22264 14.4677 8.29475 14.4168 8.3053 14.4099C8.42976 14.3573 8.57024 14.3573 8.6947 14.4099C8.70525 14.4168 8.77736 14.4677 8.92901 14.6709C9.11876 14.9251 9.34503 15.2924 9.69364 15.8612L9.79256 16.0226C10.0812 16.4934 10.6968 16.6412 11.1677 16.3526C11.6386 16.064 11.7864 15.4483 11.4978 14.9774L11.3988 14.816L11.375 14.7772L11.375 14.7772C11.057 14.2582 10.783 13.8112 10.5318 13.4746C10.2754 13.1311 9.95343 12.7754 9.4928 12.5761C8.85931 12.3019 8.14069 12.3019 7.5072 12.5761C7.04657 12.7754 6.72457 13.1311 6.46819 13.4746C6.21695 13.8112 5.94301 14.2582 5.62499 14.7772L5.62498 14.7772L5.60116 14.816L4.06719 17.3188C4.06143 17.2636 4.05609 17.2059 4.05118 17.1458C4.00078 16.5289 4 15.7366 4 14.6V9.4C4 8.2794 4.00076 7.49346 4.04908 6.8804L2.35061 5.18193ZM5.70566 4.29434C5.96106 4.17774 6.29946 4.0965 6.85424 4.05118C7.47108 4.00078 8.2634 4 9.4 4H11C11.5523 4 12 3.55229 12 3C12 2.44772 11.5523 2 11 2H9.4H9.35719H9.35719H9.35718H9.35717C8.27339 1.99999 7.39925 1.99998 6.69138 2.05782C5.96253 2.11737 5.32234 2.24318 4.73005 2.54497C4.56125 2.63098 4.3981 2.72618 4.24126 2.82994L5.70566 4.29434ZM15.5 3C15.5 3.55229 15.0523 4 14.5 4C13.9477 4 13.5 3.55229 13.5 3C13.5 2.44772 13.9477 2 14.5 2C15.0523 2 15.5 2.44772 15.5 3ZM14.5 8.5C15.1904 8.5 15.75 7.94036 15.75 7.25C15.75 6.55964 15.1904 6 14.5 6C13.8096 6 13.25 6.55964 13.25 7.25C13.25 7.94036 13.8096 8.5 14.5 8.5ZM18.5 13.25C19.1904 13.25 19.75 12.6904 19.75 12C19.75 11.3096 19.1904 10.75 18.5 10.75C17.8096 10.75 17.25 11.3096 17.25 12C17.25 12.6904 17.8096 13.25 18.5 13.25ZM23 12C23 12.5523 22.5523 13 22 13C21.4477 13 21 12.5523 21 12C21 11.4477 21.4477 11 22 11C22.5523 11 23 11.4477 23 12ZM14.5 22C15.0523 22 15.5 21.5523 15.5 21C15.5 20.4477 15.0523 20 14.5 20C13.9477 20 13.5 20.4477 13.5 21C13.5 21.5523 13.9477 22 14.5 22ZM18.5 8.25C19.0523 8.25 19.5 7.80229 19.5 7.25C19.5 6.69772 19.0523 6.25 18.5 6.25C17.9477 6.25 17.5 6.69772 17.5 7.25C17.5 7.80229 17.9477 8.25 18.5 8.25ZM19.25 3C19.25 3.41421 18.9142 3.75 18.5 3.75C18.0858 3.75 17.75 3.41421 17.75 3C17.75 2.58579 18.0858 2.25 18.5 2.25C18.9142 2.25 19.25 2.58579 19.25 3ZM22 8C22.4142 8 22.75 7.66421 22.75 7.25C22.75 6.83579 22.4142 6.5 22 6.5C21.5858 6.5 21.25 6.83579 21.25 7.25C21.25 7.66421 21.5858 8 22 8ZM22.75 17C22.75 17.4142 22.4142 17.75 22 17.75C21.5858 17.75 21.25 17.4142 21.25 17C21.25 16.5858 21.5858 16.25 22 16.25C22.4142 16.25 22.75 16.5858 22.75 17ZM22 3.5C22.2761 3.5 22.5 3.27614 22.5 3C22.5 2.72386 22.2761 2.5 22 2.5C21.7239 2.5 21.5 2.72386 21.5 3C21.5 3.27614 21.7239 3.5 22 3.5Z" fill="black"/>
<path fill-rule="evenodd" clip-rule="evenodd" d="M2.29289 2.29289C2.68342 1.90237 3.31658 1.90237 3.70711 2.29289L21.7071 20.2929C22.0976 20.6834 22.0976 21.3166 21.7071 21.7071C21.3166 22.0976 20.6834 22.0976 20.2929 21.7071L2.29289 3.70711C1.90237 3.31658 1.90237 2.68342 2.29289 2.29289Z" fill="black"/>
</svg>
