<svg width="24" height="24" viewBox="0 0 24 24" fill="none" xmlns="http://www.w3.org/2000/svg">
<path fill-rule="evenodd" clip-rule="evenodd" d="M9.35719 2H9.4H11C11.5523 2 12 2.44772 12 3C12 3.55229 11.5523 4 11 4H9.4C8.2634 4 7.47108 4.00078 6.85424 4.05118C6.24907 4.10062 5.90139 4.1928 5.63803 4.32698C5.07354 4.6146 4.6146 5.07354 4.32698 5.63803C4.1928 5.90139 4.10062 6.24907 4.05118 6.85424C4.00078 7.47108 4 8.2634 4 9.4V14.6C4 15.7366 4.00078 16.5289 4.05118 17.1458C4.05609 17.2059 4.06143 17.2636 4.06719 17.3188L5.60116 14.816L5.62498 14.7772L5.62499 14.7772C5.94301 14.2582 6.21695 13.8112 6.46819 13.4746C6.72457 13.1311 7.04657 12.7754 7.5072 12.5761C8.14069 12.3019 8.85931 12.3019 9.4928 12.5761C9.95343 12.7754 10.2754 13.1311 10.5318 13.4746C10.783 13.8112 11.057 14.2582 11.375 14.7772L11.375 14.7772L11.3988 14.816L11.4978 14.9774C11.7864 15.4483 11.6386 16.064 11.1677 16.3526C10.6968 16.6412 10.0812 16.4934 9.79256 16.0226L9.69364 15.8612C9.34503 15.2924 9.11876 14.9251 8.92901 14.6709C8.77736 14.4677 8.70525 14.4168 8.6947 14.4099C8.57024 14.3573 8.42976 14.3573 8.3053 14.4099C8.29475 14.4168 8.22264 14.4677 8.07099 14.6709C7.88124 14.9251 7.65497 15.2924 7.30636 15.8612L5.15736 19.3674C5.30676 19.4837 5.46758 19.5862 5.63803 19.673C5.90139 19.8072 6.24907 19.8994 6.85424 19.9488C7.47108 19.9992 8.2634 20 9.4 20H11C11.5523 20 12 20.4477 12 21C12 21.5523 11.5523 22 11 22H9.4H9.35717H9.35707C8.27334 22 7.39923 22 6.69138 21.9422C5.96253 21.8826 5.32234 21.7568 4.73005 21.455C3.78924 20.9757 3.02434 20.2108 2.54497 19.27C2.24318 18.6777 2.11737 18.0375 2.05782 17.3086C1.99998 16.6007 1.99999 15.7266 2 14.6428V14.6428V14.6V9.4V9.35719V9.35719V9.35718C1.99999 8.2734 1.99998 7.39925 2.05782 6.69138C2.11737 5.96253 2.24318 5.32234 2.54497 4.73005C3.02434 3.78924 3.78924 3.02434 4.73005 2.54497C5.32234 2.24318 5.96253 2.11737 6.69138 2.05782C7.39925 1.99998 8.2734 1.99999 9.35718 2H9.35719H9.35719ZM15.5 3C15.5 3.55228 15.0523 4 14.5 4C13.9477 4 13.5 3.55228 13.5 3C13.5 2.44772 13.9477 2 14.5 2C15.0523 2 15.5 2.44772 15.5 3ZM15.75 7.25C15.75 7.94036 15.1904 8.5 14.5 8.5C13.8096 8.5 13.25 7.94036 13.25 7.25C13.25 6.55964 13.8096 6 14.5 6C15.1904 6 15.75 6.55964 15.75 7.25ZM14.5 13.5C15.3284 13.5 16 12.8284 16 12C16 11.1716 15.3284 10.5 14.5 10.5C13.6716 10.5 13 11.1716 13 12C13 12.8284 13.6716 13.5 14.5 13.5ZM18.5 13.25C19.1904 13.25 19.75 12.6904 19.75 12C19.75 11.3096 19.1904 10.75 18.5 10.75C17.8096 10.75 17.25 11.3096 17.25 12C17.25 12.6904 17.8096 13.25 18.5 13.25ZM14.5 18C15.1904 18 15.75 17.4404 15.75 16.75C15.75 16.0596 15.1904 15.5 14.5 15.5C13.8096 15.5 13.25 16.0596 13.25 16.75C13.25 17.4404 13.8096 18 14.5 18ZM23 12C23 12.5523 22.5523 13 22 13C21.4477 13 21 12.5523 21 12C21 11.4477 21.4477 11 22 11C22.5523 11 23 11.4477 23 12ZM14.5 22C15.0523 22 15.5 21.5523 15.5 21C15.5 20.4477 15.0523 20 14.5 20C13.9477 20 13.5 20.4477 13.5 21C13.5 21.5523 13.9477 22 14.5 22ZM18.5 18C19.0523 18 19.5 17.5523 19.5 17C19.5 16.4477 19.0523 16 18.5 16C17.9477 16 17.5 16.4477 17.5 17C17.5 17.5523 17.9477 18 18.5 18ZM19.5 7.25C19.5 7.80229 19.0523 8.25 18.5 8.25C17.9477 8.25 17.5 7.80229 17.5 7.25C17.5 6.69772 17.9477 6.25 18.5 6.25C19.0523 6.25 19.5 6.69772 19.5 7.25ZM18.5 3.75C18.9142 3.75 19.25 3.41421 19.25 3C19.25 2.58579 18.9142 2.25 18.5 2.25C18.0858 2.25 17.75 2.58579 17.75 3C17.75 3.41421 18.0858 3.75 18.5 3.75ZM22.75 7.25C22.75 7.66421 22.4142 8 22 8C21.5858 8 21.25 7.66421 21.25 7.25C21.25 6.83579 21.5858 6.5 22 6.5C22.4142 6.5 22.75 6.83579 22.75 7.25ZM22 17.75C22.4142 17.75 22.75 17.4142 22.75 17C22.75 16.5858 22.4142 16.25 22 16.25C21.5858 16.25 21.25 16.5858 21.25 17C21.25 17.4142 21.5858 17.75 22 17.75ZM22.5 21C22.5 21.2761 22.2761 21.5 22 21.5C21.7239 21.5 21.5 21.2761 21.5 21C21.5 20.7239 21.7239 20.5 22 20.5C22.2761 20.5 22.5 20.7239 22.5 21ZM22 3.5C22.2761 3.5 22.5 3.27614 22.5 3C22.5 2.72386 22.2761 2.5 22 2.5C21.7239 2.5 21.5 2.72386 21.5 3C21.5 3.27614 21.7239 3.5 22 3.5ZM19.25 21C19.25 21.4142 18.9142 21.75 18.5 21.75C18.0858 21.75 17.75 21.4142 17.75 21C17.75 20.5858 18.0858 20.25 18.5 20.25C18.9142 20.25 19.25 20.5858 19.25 21Z" fill="black"/>
</svg>
