<svg width="24" height="24" viewBox="0 0 24 24" fill="none" xmlns="http://www.w3.org/2000/svg">
<path fill-rule="evenodd" clip-rule="evenodd" d="M13 21C13 20.4477 13.4477 20 14 20H21C21.5523 20 22 20.4477 22 21C22 21.5523 21.5523 22 21 22H14C13.4477 22 13 21.5523 13 21Z" fill="white"/>
<path fill-rule="evenodd" clip-rule="evenodd" d="M13 3C13 2.44772 13.4477 2 14 2H21C21.5523 2 22 2.44772 22 3C22 3.55228 21.5523 4 21 4H14C13.4477 4 13 3.55228 13 3Z" fill="white"/>
<path fill-rule="evenodd" clip-rule="evenodd" d="M6 21C6 20.4477 6.44772 20 7 20H11C11.5523 20 12 20.4477 12 21C12 21.5523 11.5523 22 11 22H7C6.44772 22 6 21.5523 6 21Z" fill="white"/>
<path fill-rule="evenodd" clip-rule="evenodd" d="M6 3C6 2.44772 6.44772 2 7 2H11C11.5523 2 12 2.44772 12 3C12 3.55228 11.5523 4 11 4H7C6.44772 4 6 3.55228 6 3Z" fill="white"/>
<path fill-rule="evenodd" clip-rule="evenodd" d="M2 21C2 20.4477 2.44772 20 3 20H4C4.55228 20 5 20.4477 5 21C5 21.5523 4.55228 22 4 22H3C2.44772 22 2 21.5523 2 21Z" fill="white"/>
<path fill-rule="evenodd" clip-rule="evenodd" d="M2 3C2 2.44772 2.44772 2 3 2H4C4.55228 2 5 2.44772 5 3C5 3.55228 4.55228 4 4 4H3C2.44772 4 2 3.55228 2 3Z" fill="white"/>
</svg>
