<svg width="24" height="24" viewBox="0 0 24 24" fill="none" xmlns="http://www.w3.org/2000/svg">
<path fill-rule="evenodd" clip-rule="evenodd" d="M12 1C5.92487 1 1 5.92487 1 12C1 18.0751 5.92487 23 12 23C12.9875 23 13.9462 22.8696 14.8589 22.6246C15.3923 22.4814 15.7086 21.9329 15.5654 21.3995C15.4222 20.8661 14.8737 20.5498 14.3403 20.693C13.5952 20.893 12.8109 21 12 21C7.02944 21 3 16.9706 3 12C3 7.02944 7.02944 3 12 3C16.9706 3 21 7.02944 21 12C21 13.3644 20.6642 14.2441 20.2673 14.7648C19.8768 15.277 19.3979 15.4877 18.9584 15.506C18.1217 15.5408 17 14.8263 17 13V8C17 7.44772 16.5523 7 16 7C15.4477 7 15 7.44772 15 8V8.1395C14.1718 7.49498 13.1307 7.11111 12 7.11111C9.29994 7.11111 7.11111 9.29994 7.11111 12C7.11111 14.7001 9.29994 16.8889 12 16.8889C13.3942 16.8889 14.652 16.3053 15.5426 15.3691C16.2537 16.7522 17.5828 17.5649 19.0416 17.5042C20.1021 17.4601 21.1232 16.9408 21.8577 15.9774C22.5858 15.0224 23 13.6808 23 12C23 5.92487 18.0751 1 12 1ZM9.11111 12C9.11111 10.4045 10.4045 9.11111 12 9.11111C13.5955 9.11111 14.8889 10.4045 14.8889 12C14.8889 13.5955 13.5955 14.8889 12 14.8889C10.4045 14.8889 9.11111 13.5955 9.11111 12Z" fill="black"/>
</svg>
