<svg width="24" height="24" viewBox="0 0 24 24" fill="none" xmlns="http://www.w3.org/2000/svg">
<path fill-rule="evenodd" clip-rule="evenodd" d="M19.2346 20.863L18.0134 20.5698C17.7906 20.5163 17.6534 20.2924 17.7069 20.0697C17.7433 19.918 17.8617 19.7996 18.0134 19.7632L19.2346 19.47C19.5161 19.4024 19.7359 19.1826 19.8035 18.9011L20.0967 17.6799C20.1502 17.4571 20.3741 17.3199 20.5968 17.3734C20.7485 17.4098 20.8669 17.5282 20.9033 17.6799L21.1965 18.9011C21.2641 19.1826 21.4839 19.4024 21.7654 19.47L22.9866 19.7632C23.2094 19.8167 23.3466 20.0406 23.2931 20.2633C23.2567 20.415 23.1383 20.5334 22.9866 20.5698L21.7654 20.863C21.4839 20.9306 21.2641 21.1504 21.1965 21.4319L20.9033 22.6531C20.8498 22.8759 20.6259 23.0131 20.4032 22.9596C20.2515 22.9232 20.1331 22.8048 20.0967 22.6531L19.8035 21.4319C19.7359 21.1504 19.5161 20.9306 19.2346 20.863Z" fill="#000"/>
<path fill-rule="evenodd" clip-rule="evenodd" d="M20.4076 2.89004L19.5161 2.65063C19.3407 2.60354 19.2367 2.4232 19.2838 2.24783C19.3142 2.13451 19.4027 2.046 19.5161 2.01557L20.4076 1.77617C20.5876 1.72781 20.7283 1.58715 20.7767 1.40708L21.0161 0.515568C21.0631 0.3402 21.2435 0.236211 21.4189 0.283304C21.5322 0.313734 21.6207 0.402249 21.6511 0.515568L21.8905 1.40708C21.9389 1.58715 22.0795 1.72781 22.2596 1.77617L23.1511 2.01557C23.3265 2.06266 23.4305 2.243 23.3834 2.41837C23.353 2.53169 23.2644 2.6202 23.1511 2.65063L22.2596 2.89004C22.0795 2.93839 21.9389 3.07905 21.8905 3.25912L21.6511 4.15063C21.604 4.326 21.4237 4.42999 21.2483 4.3829C21.135 4.35247 21.0465 4.26395 21.0161 4.15063L20.7767 3.25912C20.7283 3.07905 20.5876 2.93839 20.4076 2.89004Z" fill="#000"/>
<path fill-rule="evenodd" clip-rule="evenodd" d="M1.72894 19.2204L0.849064 18.9841C0.673696 18.937 0.569707 18.7567 0.6168 18.5813C0.64723 18.468 0.735745 18.3795 0.849064 18.3491L1.72894 18.1128C1.91621 18.0625 2.0625 17.9162 2.11279 17.7289L2.34906 16.8491C2.39616 16.6737 2.5765 16.5697 2.75187 16.6168C2.86519 16.6472 2.9537 16.7357 2.98413 16.8491L3.22041 17.7289C3.2707 17.9162 3.41698 18.0625 3.60426 18.1128L4.48413 18.3491C4.6595 18.3962 4.76349 18.5765 4.71639 18.7519C4.68596 18.8652 4.59745 18.9537 4.48413 18.9841L3.60426 19.2204C3.41698 19.2707 3.2707 19.417 3.22041 19.6043L2.98413 20.4841C2.93704 20.6595 2.7567 20.7635 2.58133 20.7164C2.46801 20.686 2.37949 20.5974 2.34906 20.4841L2.11279 19.6043C2.0625 19.417 1.91621 19.2707 1.72894 19.2204Z" fill="#000"/>
<path fill-rule="evenodd" clip-rule="evenodd" d="M17.1836 2.61946C17.834 2.60016 18.4461 2.92713 18.791 3.47884L21.7119 8.15267C22.0204 8.64668 21.989 9.28069 21.6328 9.74153L12.9629 20.9534C12.5517 21.4853 11.7867 21.5834 11.2549 21.1722C11.1732 21.109 11.1003 21.0352 11.0371 20.9534L2.37598 9.75325C2.01042 9.2805 1.98705 8.62658 2.31836 8.12923L5.23926 3.74544C5.56821 3.25164 6.11591 2.94761 6.70899 2.93001L17.1836 2.61946ZM13.2822 18.139L19.9775 9.48372H15.96L13.2822 18.139ZM10.5752 17.9603L7.9541 9.48372H4.02149L10.5752 17.9603ZM11.9561 17.8021L14.5303 9.48372H9.38477L11.9561 17.8021ZM6.75196 4.39583C6.63419 4.39946 6.52543 4.45998 6.45996 4.55794L4.08789 8.11751H7.96094L9.18946 4.32259L6.75196 4.39583ZM14.6719 4.16048L15.9531 8.11751H19.9609L17.5479 4.25618C17.4868 4.15856 17.3836 4.09627 17.2705 4.08626L17.2275 4.08528L14.6719 4.16048ZM10.6397 4.27962L9.39746 8.11751H14.5176L13.248 4.20247L10.6397 4.27962Z" fill="#000"/>
</svg>
