<svg width="24" height="24" viewBox="0 0 24 24" fill="none" xmlns="http://www.w3.org/2000/svg">
<path d="M20.6664 5.57773L20.6658 5.653L20.6017 8.31312L22.4958 10.1826C23.4398 11.1141 23.4689 12.6225 22.5758 13.5895L22.5188 13.6492C22.4922 13.6759 22.4922 13.6759 22.4651 13.702L20.5384 15.5377L20.5563 18.1989C20.5651 19.5245 19.52 20.6113 18.2055 20.6644L18.0836 20.6664L15.3856 20.6016L13.5164 22.4958C12.5849 23.4398 11.0765 23.4689 10.1095 22.5758L10.0125 22.4812L8.16125 20.5384L5.50008 20.5563C4.17448 20.5651 3.08766 19.52 3.03452 18.2055L3.03254 18.1212C3.03249 18.0836 3.03249 18.0836 3.0332 18.046L3.09712 15.3854L1.20314 13.5164C0.259175 12.5849 0.230038 11.0765 1.12314 10.1095L1.18016 10.0498L1.23385 9.99701L3.16023 8.16112L3.14269 5.50008C3.1339 4.17448 4.17897 3.08766 5.49346 3.03452L5.57773 3.03254C5.61537 3.03249 5.61537 3.03249 5.653 3.0332L8.31325 3.09699L10.1826 1.20314C11.1141 0.259175 12.6225 0.230038 13.5895 1.12314L13.702 1.23385L15.5379 3.16023L18.1989 3.14269C19.5527 3.13371 20.6575 4.22392 20.6664 5.57773ZM19.1957 5.58748C19.1921 5.04595 18.7502 4.60987 18.2086 4.61346L15.3356 4.6325C15.0651 4.6343 14.8059 4.52426 14.6193 4.32844L12.6161 2.22705C12.2307 1.84667 11.6098 1.85079 11.2294 2.23624L9.21138 4.28124C9.02137 4.47378 8.76027 4.57928 8.48984 4.57276L5.58748 4.50332C5.04595 4.50691 4.60987 4.94881 4.61346 5.49033L4.6325 8.36336C4.6343 8.63386 4.52426 8.89308 4.32844 9.07969L2.22705 11.0829C1.84667 11.4683 1.85079 12.0892 2.23624 12.4695L4.28124 14.4876C4.47378 14.6776 4.57928 14.9387 4.57276 15.2091L4.50332 18.1115C4.50691 18.653 4.94881 19.0891 5.49033 19.0855L8.36336 19.0665C8.63386 19.0647 8.89308 19.1747 9.07969 19.3705L11.0829 21.4719C11.4683 21.8523 12.0892 21.8482 12.4695 21.4627L14.4876 19.4177C14.6776 19.2252 14.9387 19.1197 15.2091 19.1262L18.1115 19.1957C18.653 19.1921 19.0891 18.7502 19.0855 18.2086L19.0665 15.3356C19.0647 15.0651 19.1747 14.8059 19.3705 14.6193L21.4719 12.6161C21.8523 12.2307 21.8482 11.6098 21.4627 11.2294L19.4177 9.21138C19.2252 9.02137 19.1197 8.76027 19.1262 8.48984L19.1957 5.58748Z" fill="white"/>
<path d="M16.54 9.7832L11.251 16.0479C11.2359 16.0658 11.2192 16.0828 11.2021 16.0996C10.8942 16.4033 10.3985 16.4004 10.0947 16.0928L7.43262 13.3936L8.50098 12.3408L10.6104 14.4795L15.3936 8.81641L16.54 9.7832Z" fill="white"/>
</svg>
