<svg width="24" height="24" viewBox="0 0 24 24" fill="none" xmlns="http://www.w3.org/2000/svg">
<path d="M6.79492 17.5004C6.96154 17.5005 7.05094 17.6 7.07324 17.7552C7.52959 19.9219 7.47353 19.9667 9.74414 20.4222C9.91093 20.4556 9.99985 20.5332 10 20.6996C10 20.8662 9.91103 20.9442 9.74414 20.9886C7.4624 21.422 7.47394 21.4671 7.07324 23.6449C7.05091 23.8001 6.96149 23.8996 6.79492 23.8998C6.63926 23.8998 6.56115 23.8002 6.5166 23.6449C6.10479 21.4672 6.14902 21.433 3.85645 20.9886C3.70062 20.9442 3.59961 20.8663 3.59961 20.6996C3.59978 20.5332 3.70075 20.4555 3.85645 20.4222C6.14898 19.9667 6.06028 19.9218 6.5166 17.7552C6.56114 17.5999 6.63922 17.5004 6.79492 17.5004ZM21.5957 7.19958C21.7209 7.19958 21.788 7.2753 21.8047 7.39197C22.1469 9.01655 22.1051 9.05038 23.8076 9.39197C23.9328 9.41697 24 9.47499 24 9.59998C24 9.72498 23.9328 9.78344 23.8076 9.81677C22.0968 10.1417 22.1051 10.1751 21.8047 11.808C21.788 11.9247 21.7209 12.0004 21.5957 12.0004C21.4789 12.0003 21.4201 11.9246 21.3867 11.808C21.0779 10.1751 21.1111 10.1501 19.3916 9.81677C19.2749 9.78342 19.2002 9.72485 19.2002 9.59998C19.2002 9.47515 19.275 9.41702 19.3916 9.39197C21.1111 9.05033 21.0445 9.0166 21.3867 7.39197C21.4201 7.27534 21.4789 7.19964 21.5957 7.19958ZM5.20508 1.59998C5.31273 1.60013 5.3842 1.6634 5.41113 1.78064C5.68978 3.10794 5.65442 3.11718 7.01172 3.38806C7.12838 3.41521 7.2002 3.48759 7.2002 3.60486C7.20003 3.7129 7.12824 3.78477 7.01172 3.81189C5.6545 4.0647 5.65378 4.07395 5.41113 5.4281C5.3842 5.54533 5.30378 5.59983 5.20508 5.59998C5.09721 5.59998 5.01602 5.53645 4.99805 5.4281C4.73743 4.07399 4.75487 4.08275 3.38867 3.81189C3.27216 3.78476 3.20037 3.70392 3.2002 3.60486C3.2002 3.49661 3.27202 3.41523 3.38867 3.38806C4.75495 3.11718 4.71042 3.1079 4.99805 1.78064C5.01602 1.67229 5.09721 1.59998 5.20508 1.59998Z" fill="black"/>
<path d="M20.0801 12.0557L20.0918 12.1162L20.1084 12.1748C20.1541 12.3344 20.2592 12.6288 20.5205 12.8896C20.8249 13.1935 21.2171 13.33 21.5957 13.3301C21.723 13.3301 21.8583 13.3139 21.9951 13.2783C21.9908 14.0802 21.9805 14.7624 21.9404 15.3506C21.8799 16.238 21.754 16.9854 21.4668 17.6787C20.7563 19.3937 19.3937 20.7564 17.6787 21.4668C16.9853 21.754 16.2382 21.8799 15.3506 21.9404C14.472 22.0004 13.3839 22 12 22C11.5275 22 11.0896 21.9974 10.6826 21.9951C10.7571 21.9408 10.8321 21.8774 10.9033 21.8018C11.2304 21.4541 11.331 21.0378 11.3311 20.7002C11.3311 20.4899 11.292 20.2407 11.1758 19.9961C11.4345 19.9966 11.7086 20 12 20C13.4115 20 14.42 19.9995 15.2148 19.9453C16.0005 19.8917 16.504 19.7885 16.9131 19.6191C18.1381 19.1117 19.1117 18.1381 19.6191 16.9131C19.7885 16.504 19.8917 16.0003 19.9453 15.2148C19.9995 14.4201 20 13.4112 20 12C20 11.8748 19.9981 11.7528 19.998 11.6338C20.0212 11.749 20.0481 11.8868 20.0801 12.0557ZM6.19238 19.1357C6.4715 19.3253 6.77055 19.4881 7.08691 19.6191C7.30437 19.7092 7.54867 19.7798 7.84766 19.835C8.18698 20.0972 8.73562 20.2195 9.74414 20.4219C9.9108 20.4553 10.001 20.5337 10.001 20.7002L9.99609 20.7588C9.97667 20.8855 9.8898 20.9504 9.74414 20.9893L9.62598 21.0117C8.41009 21.2439 7.87816 21.3705 7.57617 21.8174C7.12978 21.7407 6.7167 21.6306 6.32129 21.4668C5.62691 21.1792 4.99154 20.7833 4.43262 20.3018C5.60795 20.0506 5.95364 19.8701 6.19238 19.1357ZM3.59863 5.21289C3.62078 5.31694 3.64887 5.45409 3.68555 5.64453V5.64551C3.74216 5.98673 3.91598 6.33139 4.22656 6.58496C4.32161 6.66253 4.42223 6.72391 4.52441 6.77344C4.47336 6.87604 4.425 6.98036 4.38086 7.08691C4.2115 7.49596 4.10829 7.99973 4.05469 8.78516C4.00048 9.57988 4 10.5888 4 12C4 13.4112 4.00048 14.4201 4.05469 15.2148C4.10829 16.0003 4.2115 16.504 4.38086 16.9131C4.55982 17.3451 4.79755 17.7454 5.08301 18.1055C5.03424 18.3347 4.99613 18.5064 4.9541 18.6514C4.93373 18.7216 4.91262 18.7686 4.90039 18.7998C4.87244 18.8116 4.83196 18.8316 4.77246 18.8506C4.53602 18.9257 4.18956 19.0006 3.59766 19.1182L3.58789 19.1191L3.57812 19.1221C3.52185 19.1341 3.45529 19.1516 3.38184 19.1758C3.0412 18.7175 2.75542 18.2151 2.5332 17.6787C2.24605 16.9854 2.12013 16.238 2.05957 15.3506C1.99967 14.4721 2 13.3837 2 12C2 10.6163 1.99967 9.52792 2.05957 8.64941C2.12013 7.76195 2.24605 7.01464 2.5332 6.32129C2.70801 5.89931 2.92258 5.49885 3.17188 5.12402C3.35938 5.16135 3.49541 5.19007 3.59863 5.21289ZM14.4004 15.5C14.9524 15.5003 15.4003 15.948 15.4004 16.5C15.4003 17.052 14.9524 17.4997 14.4004 17.5H9.60059C9.04838 17.5 8.60072 17.0522 8.60059 16.5C8.60072 15.9478 9.04838 15.5 9.60059 15.5H14.4004ZM12 6.09961C14.3194 6.09971 16.2 7.98044 16.2002 10.2998C16.2001 12.6192 14.3194 14.4999 12 14.5C9.68047 14.5 7.79991 12.6193 7.7998 10.2998C7.8 7.98038 9.68053 6.09961 12 6.09961ZM12 8.09961C10.7851 8.09961 9.8 9.08495 9.7998 10.2998C9.79991 11.5147 10.785 12.5 12 12.5C13.2149 12.4999 14.2001 11.5147 14.2002 10.2998C14.2 9.08501 13.2148 8.09971 12 8.09961ZM21.5957 7.2002C21.672 7.2002 21.7239 7.23014 21.7588 7.27832C21.8502 7.70174 21.9066 8.15342 21.9404 8.64941C21.9832 9.27631 21.9917 10.0102 21.9951 10.8818C21.9304 11.1158 21.8769 11.4161 21.8047 11.8086C21.7879 11.9251 21.7208 12 21.5957 12C21.4792 11.9999 21.4211 11.9249 21.3877 11.8086C21.1197 10.3912 21.1092 10.1842 19.9873 9.93652C19.9831 9.6991 19.9771 9.47794 19.9688 9.27051C21.0763 9.01986 21.0889 8.81787 21.3682 7.4834L21.3877 7.3916C21.4211 7.27523 21.4792 7.20033 21.5957 7.2002ZM12 2C13.3839 2 14.472 1.99965 15.3506 2.05957C16.2382 2.12013 16.9853 2.24599 17.6787 2.5332C19.252 3.18491 20.5266 4.38643 21.2754 5.9043C21.0036 5.96128 20.7393 6.09219 20.5205 6.31055C20.259 6.57161 20.154 6.86693 20.1084 7.02637L20.0957 7.07129L20.0859 7.11816C20.0017 7.51814 19.9541 7.74554 19.9092 7.91406C19.8903 7.91938 19.8699 7.92314 19.8486 7.92871C19.7917 7.59241 19.7171 7.32362 19.6191 7.08691C19.1117 5.8619 18.1381 4.88831 16.9131 4.38086C16.504 4.21145 16.0005 4.10829 15.2148 4.05469C14.42 4.00046 13.4115 4 12 4C10.5885 4 9.57996 4.00046 8.78516 4.05469C8.66764 4.06271 8.55669 4.07467 8.45117 4.08496C8.50262 3.92849 8.53024 3.76652 8.53027 3.60449C8.53019 3.25609 8.41465 2.87935 8.13672 2.57129C7.96455 2.38054 7.76803 2.25843 7.58398 2.18066C7.91808 2.12366 8.27093 2.08539 8.64941 2.05957C9.52801 1.99965 10.6161 2 12 2ZM5.69727 2.82812C5.87642 3.1547 6.18627 3.22296 7.01172 3.3877L7.08984 3.41602C7.1595 3.45319 7.20008 3.51649 7.2002 3.60449L7.1875 3.67871C7.16182 3.74586 7.09911 3.79117 7.01172 3.81152L6.5625 3.89844C5.6505 4.08798 5.62336 4.24339 5.41113 5.42773C5.3842 5.54496 5.30378 5.59947 5.20508 5.59961L5.12988 5.58789C5.06064 5.56509 5.01155 5.50911 4.99805 5.42773C4.79717 4.38401 4.7608 4.15217 4.12891 3.97559C4.59384 3.52486 5.12027 3.13685 5.69727 2.82812Z" fill="black"/>
</svg>
