<svg width="24" height="24" viewBox="0 0 24 24" fill="none" xmlns="http://www.w3.org/2000/svg">
<path d="M3.12505 16.6749V15.6759L2.41899 14.9698C2.17008 14.7209 1.89671 14.4504 1.68266 14.1983C1.45355 13.9285 1.17689 13.5511 1.01177 13.0431C0.791486 12.3652 0.791816 11.6345 1.01177 10.9571C1.17687 10.449 1.45355 10.0717 1.68266 9.80184C1.89671 9.54973 2.17008 9.27927 2.41899 9.03036L3.12505 8.32431V7.32528C3.12505 6.97363 3.12366 6.58916 3.15044 6.25985C3.17911 5.90758 3.25004 5.44492 3.49223 4.96884C3.81581 4.33381 4.33377 3.81584 4.9688 3.49227L5.14653 3.40927C5.55893 3.23291 5.95145 3.17556 6.25981 3.15048C6.58907 3.12372 6.97371 3.12509 7.32524 3.12509V5.12509L6.81548 5.12704C6.36846 5.13396 6.09662 5.1622 5.87602 5.2745C5.61729 5.40632 5.40629 5.61734 5.27446 5.87606L5.22466 5.9913C5.12458 6.27259 5.12505 6.6521 5.12505 7.32528V9.15243L3.83306 10.4444L3.47368 10.8067C3.16269 11.1276 2.9906 11.3399 2.91411 11.5753C2.82448 11.8514 2.82442 12.1488 2.91411 12.4249C3.01616 12.7388 3.28862 13.0113 3.83306 13.5558L5.12505 14.8477V16.6749L5.127 17.1847C5.13392 17.6316 5.16213 17.9035 5.27446 18.1241C5.4063 18.3828 5.61735 18.5929 5.87602 18.7247C6.09663 18.8371 6.36846 18.865 6.81548 18.8722L7.32524 18.8751H9.15239L10.4444 20.1671C10.9889 20.7115 11.2613 20.984 11.5752 21.086C11.8168 21.1644 12.0747 21.1741 12.3204 21.1153L12.4249 21.086C12.6604 21.0095 12.8723 20.8367 13.1934 20.5255L13.5557 20.1671L14.8477 18.8751H16.6749L17.1846 18.8722C17.557 18.8662 17.8079 18.8463 18.0088 18.7745L18.1241 18.7247C18.3504 18.6094 18.5407 18.4342 18.6729 18.2188L18.7256 18.1241C18.838 17.9035 18.8662 17.6316 18.8731 17.1847L18.875 16.6749V14.8477L20.167 13.5558C20.6434 13.0794 20.9112 12.811 21.0391 12.5411L21.086 12.4249C21.1757 12.1488 21.1756 11.8513 21.086 11.5753C21.0095 11.3398 20.8366 11.1279 20.5254 10.8067L20.167 10.4444L18.875 9.15243V7.32528C18.875 6.6519 18.8746 6.27261 18.7745 5.9913L18.7256 5.87606C18.5939 5.6174 18.3827 5.40633 18.1241 5.2745C17.9035 5.1622 17.6315 5.13397 17.1846 5.12704L16.6749 5.12509V3.12509C17.0262 3.12509 17.4102 3.12375 17.7393 3.15048C18.0478 3.17555 18.4417 3.23263 18.8545 3.40927L19.0323 3.49227L19.2647 3.62216C19.7179 3.90018 20.0989 4.28225 20.377 4.73544L20.5079 4.96786C20.75 5.44395 20.821 5.90757 20.8497 6.25985C20.8765 6.58916 20.875 6.97363 20.875 7.32528V8.32431L21.5811 9.03036C21.8299 9.27918 22.1025 9.54982 22.3165 9.80184C22.5169 10.0379 22.7542 10.3563 22.9209 10.7725L22.9883 10.9571L23.0606 11.214C23.2049 11.8167 23.181 12.4499 22.9883 13.0431C22.8232 13.5512 22.5456 13.9284 22.3165 14.1983C22.1025 14.4503 21.8299 14.721 21.5811 14.9698L20.875 15.6759V16.6749C20.875 17.0262 20.8763 17.4103 20.8497 17.7393C20.821 18.0919 20.7506 18.5558 20.5079 19.0323C20.1828 19.6703 19.6641 20.1849 19.0323 20.5069C18.5573 20.7489 18.0955 20.8206 17.7422 20.8497C17.4122 20.8768 17.0276 20.8751 16.6749 20.8751H15.6758L14.9698 21.5811C14.7209 21.83 14.4504 22.1034 14.1983 22.3175C13.9284 22.5466 13.5502 22.8232 13.042 22.9884C12.3647 23.2082 11.6347 23.2085 10.9571 22.9884C10.449 22.8232 10.0717 22.5465 9.80181 22.3175C9.54973 22.1034 9.27921 21.83 9.03032 21.5811L8.32427 20.8751H7.32524C6.97246 20.8751 6.58795 20.8768 6.25786 20.8497C5.90456 20.8206 5.44289 20.749 4.96782 20.5069C4.33578 20.1849 3.81733 19.6694 3.49223 19.0313C3.24961 18.5549 3.17908 18.0919 3.15044 17.7393C3.12372 17.4103 3.12505 17.0262 3.12505 16.6749Z" fill="black"/>
<path d="M10.9571 1.01181C11.5502 0.819098 12.1833 0.795133 12.7862 0.93954L13.043 1.01181L13.2276 1.07919C13.6437 1.2459 13.9622 1.48227 14.1983 1.6827C14.4504 1.89674 14.7209 2.17011 14.9698 2.41903L15.6758 3.12509H16.6749V5.12509H14.8477L13.5557 3.83309C13.0112 3.28866 12.7388 3.0162 12.4249 2.91415C12.1488 2.82448 11.8513 2.82446 11.5752 2.91415C11.2612 3.01616 10.989 3.28859 10.4444 3.83309L9.15239 5.12509H7.32524V3.12509H8.32427L9.03032 2.41903C9.27924 2.17012 9.54969 1.89674 9.80181 1.6827C10.0717 1.45357 10.449 1.1769 10.9571 1.01181Z" fill="black"/>
<path d="M15.2304 9.10539C15.6209 8.71487 16.2539 8.71487 16.6445 9.10539C17.035 9.49592 17.035 10.1289 16.6445 10.5195L11.3945 15.7695C11.2069 15.957 10.9526 16.0624 10.6874 16.0624C10.4222 16.0624 10.1679 15.957 9.98039 15.7695L7.35539 13.1445C6.96487 12.7539 6.96487 12.1209 7.35539 11.7304C7.74591 11.3399 8.37893 11.3399 8.76945 11.7304L10.6874 13.6484L15.2304 9.10539Z" fill="black"/>
</svg>
