<svg width="24" height="24" viewBox="0 0 24 24" fill="none" xmlns="http://www.w3.org/2000/svg">
<path fill-rule="evenodd" clip-rule="evenodd" d="M1.52806 6.09688L0.436588 5.83486C0.237518 5.78707 0.114881 5.58695 0.162669 5.38788C0.195209 5.25234 0.301041 5.1465 0.436588 5.11396L1.52806 4.85195C1.77967 4.79155 1.97612 4.5951 2.03652 4.34349L2.29854 3.25202C2.34632 3.05295 2.54644 2.93031 2.74551 2.9781C2.88106 3.01064 2.98689 3.11647 3.01943 3.25202L3.28145 4.34349C3.34185 4.5951 3.5383 4.79155 3.7899 4.85195L4.88138 5.11396C5.08045 5.16175 5.20309 5.36187 5.1553 5.56094C5.12276 5.69649 5.01693 5.80232 4.88138 5.83486L3.7899 6.09688C3.5383 6.15728 3.34185 6.35373 3.28145 6.60533L3.01943 7.69681C2.97164 7.89588 2.77153 8.01852 2.57245 7.97073C2.43691 7.93819 2.33107 7.83236 2.29854 7.69681L2.03652 6.60533C1.97612 6.35373 1.77967 6.15728 1.52806 6.09688Z" fill="black"/>
<path fill-rule="evenodd" clip-rule="evenodd" d="M20.0912 11.468L18.9997 11.206C18.8007 11.1582 18.678 10.958 18.7258 10.759C18.7584 10.6234 18.8642 10.5176 18.9997 10.4851L20.0912 10.223C20.3428 10.1626 20.5393 9.96619 20.5997 9.71458L20.8617 8.62311C20.9095 8.42404 21.1096 8.3014 21.3087 8.34919C21.4442 8.38173 21.55 8.48756 21.5826 8.62311L21.8446 9.71458C21.905 9.96619 22.1014 10.1626 22.353 10.223L23.4445 10.4851C23.6436 10.5328 23.7662 10.733 23.7184 10.932C23.6859 11.0676 23.5801 11.1734 23.4445 11.206L22.353 11.468C22.1014 11.5284 21.905 11.7248 21.8446 11.9764L21.5826 13.0679C21.5348 13.267 21.3347 13.3896 21.1356 13.3418C21 13.3093 20.8942 13.2034 20.8617 13.0679L20.5997 11.9764C20.5393 11.7248 20.3428 11.5284 20.0912 11.468Z" fill="black"/>
<path fill-rule="evenodd" clip-rule="evenodd" d="M12.6238 21.8507L11.4626 21.5518C11.2509 21.4973 11.1204 21.269 11.1712 21.0419C11.2058 20.8873 11.3184 20.7666 11.4626 20.7295L12.6238 20.4306C12.8914 20.3617 13.1004 20.1376 13.1647 19.8506L13.4434 18.6055C13.4942 18.3784 13.7071 18.2385 13.9189 18.293C14.0631 18.3301 14.1757 18.4509 14.2103 18.6055L14.489 19.8506C14.5533 20.1376 14.7623 20.3617 15.0299 20.4306L16.1911 20.7295C16.4028 20.784 16.5333 21.0122 16.4825 21.2393C16.4478 21.394 16.3353 21.5147 16.1911 21.5518L15.0299 21.8507C14.7623 21.9196 14.5533 22.1437 14.489 22.4307L14.2103 23.6758C14.1595 23.9028 13.9466 24.0427 13.7348 23.9882C13.5906 23.9511 13.478 23.8304 13.4434 23.6758L13.1647 22.4307C13.1004 22.1437 12.8914 21.9196 12.6238 21.8507Z" fill="black"/>
<path d="M14.6074 9.97227C14.6074 8.51512 13.4353 7.34238 12 7.34238C10.5647 7.34238 9.39258 8.51512 9.39258 9.97227C9.39259 11.4294 10.5647 12.6021 12 12.6021C13.4353 12.6021 14.6074 11.4294 14.6074 9.97227ZM16.1074 9.97227C16.1074 12.2484 14.2732 14.1021 12 14.1021C9.72684 14.1021 7.89259 12.2484 7.89258 9.97227C7.89258 7.69612 9.72683 5.84238 12 5.84238C14.2732 5.84238 16.1074 7.69612 16.1074 9.97227Z" fill="black"/>
<path d="M16.7887 15.9287C17.2027 15.9289 17.5387 16.2646 17.5387 16.6787C17.5387 17.0928 17.2027 17.4285 16.7887 17.4287L7.26328 17.4287C6.84907 17.4287 6.51328 17.0929 6.51328 16.6787C6.51328 16.2645 6.84907 15.9287 7.26328 15.9287L16.7887 15.9287Z" fill="black"/>
<path d="M1.88867 17.2856V9.76904C1.88867 9.35483 2.22446 9.01904 2.63867 9.01904C3.05289 9.01904 3.38867 9.35483 3.38867 9.76904V17.2856C3.38867 19.0806 4.84375 20.5356 6.63867 20.5356H8.96094C9.37515 20.5356 9.71094 20.8714 9.71094 21.2856C9.71094 21.6999 9.37515 22.0356 8.96094 22.0356H6.63867C4.01532 22.0356 1.88867 19.909 1.88867 17.2856ZM20.5977 17.2856V15.2056C20.5978 14.7915 20.9335 14.4556 21.3477 14.4556C21.7618 14.4556 22.0975 14.7915 22.0977 15.2056V17.2856C22.0977 19.2668 20.8848 20.9626 19.1641 21.6753C18.7815 21.8337 18.3432 21.6525 18.1846 21.27C18.0261 20.8874 18.2073 20.4481 18.5898 20.2896C19.7696 19.8009 20.5977 18.6392 20.5977 17.2856ZM20.5977 6.67432C20.5977 4.87939 19.1426 3.42432 17.3477 3.42432H6.63867C6.19997 3.42432 5.78312 3.51129 5.40332 3.66748C5.02032 3.82476 4.5823 3.64127 4.4248 3.2583C4.26744 2.87529 4.45003 2.43731 4.83301 2.27979C5.39066 2.05045 6.00089 1.92432 6.63867 1.92432H17.3477C19.971 1.92432 22.0977 4.05096 22.0977 6.67432C22.0977 7.08853 21.7619 7.42432 21.3477 7.42432C20.9334 7.42432 20.5977 7.08853 20.5977 6.67432Z" fill="black"/>
</svg>
