<svg width="24" height="24" viewBox="0 0 24 24" fill="none" xmlns="http://www.w3.org/2000/svg">
<path fill-rule="evenodd" clip-rule="evenodd" d="M15 2C13.8954 2 13 2.89543 13 4C13 5.03643 13.7884 5.88874 14.7981 5.98994C14.7147 6.27477 14.6057 6.55249 14.4721 6.81966L14.1056 7.55279C13.8586 8.04676 14.0588 8.64744 14.5528 8.89443C15.0468 9.14142 15.6474 8.94119 15.8944 8.44721L16.261 7.71409C16.747 6.7421 17 5.67031 17 4.58359V4C17 2.89543 16.1046 2 15 2ZM20 2C18.8954 2 18 2.89543 18 4C18 5.03643 18.7884 5.88874 19.7981 5.98994C19.7147 6.27477 19.6057 6.55249 19.4721 6.81966L19.1056 7.55279C18.8586 8.04676 19.0588 8.64744 19.5528 8.89443C20.0468 9.14142 20.6474 8.94119 20.8944 8.44721L21.261 7.71409C21.747 6.7421 22 5.67031 22 4.58359V4C22 2.89543 21.1046 2 20 2ZM4 5C3.44772 5 3 5.44772 3 6C3 6.55228 3.44772 7 4 7H10.5C11.0523 7 11.5 6.55228 11.5 6C11.5 5.44772 11.0523 5 10.5 5H4ZM4 11C3.44772 11 3 11.4477 3 12C3 12.5523 3.44772 13 4 13H20C20.5523 13 21 12.5523 21 12C21 11.4477 20.5523 11 20 11H4ZM3 18C3 17.4477 3.44772 17 4 17H20C20.5523 17 21 17.4477 21 18C21 18.5523 20.5523 19 20 19H4C3.44772 19 3 18.5523 3 18Z" fill="white"/>
</svg>
