<svg width="24" height="24" viewBox="0 0 24 24" fill="none" xmlns="http://www.w3.org/2000/svg">
<g clip-path="url(#clip0_2614_2536)">
<path fill-rule="evenodd" clip-rule="evenodd" d="M7.75871 2H16.2413C17.0463 1.99999 17.7106 1.99998 18.2518 2.04419C18.8139 2.09012 19.3306 2.18868 19.816 2.43598C20.5686 2.81947 21.1805 3.43139 21.564 4.18404C21.8113 4.66937 21.9099 5.18608 21.9558 5.74818C22 6.28937 22 6.95372 22 7.75868V13.2413C22 14.0463 22 14.7106 21.9558 15.2518C21.9099 15.8139 21.8113 16.3306 21.564 16.816C21.1805 17.5686 20.5686 18.1805 19.816 18.564C19.3306 18.8113 18.8139 18.9099 18.2518 18.9558C17.7106 19 17.0463 19 16.2413 19H8.32549C7.78871 19 7.68331 19.0064 7.59499 19.0276C7.49296 19.0521 7.39541 19.0925 7.30594 19.1474C7.22849 19.1948 7.14942 19.2648 6.76986 19.6444L3.70712 22.7071C3.42112 22.9931 2.991 23.0787 2.61733 22.9239C2.24365 22.7691 2.00001 22.4045 2.00001 22V14C2.00001 13.4477 2.44772 13 3.00001 13C3.55229 13 4.00001 13.4477 4.00001 14V19.5858L5.35564 18.2302C5.37544 18.2104 5.39505 18.1907 5.41451 18.1712C5.70196 17.8832 5.9554 17.6293 6.26094 17.4421C6.52936 17.2776 6.82199 17.1564 7.1281 17.0829C7.47655 16.9992 7.83529 16.9996 8.24219 17C8.26973 17 8.2975 17 8.32549 17H16.2C17.0566 17 17.6389 16.9992 18.089 16.9625C18.5274 16.9266 18.7516 16.8617 18.908 16.782C19.2843 16.5903 19.5903 16.2843 19.782 15.908C19.8617 15.7516 19.9266 15.5274 19.9625 15.089C19.9992 14.6389 20 14.0566 20 13.2V7.8C20 6.94342 19.9992 6.36113 19.9625 5.91104C19.9266 5.47262 19.8617 5.24842 19.782 5.09202C19.5903 4.7157 19.2843 4.40973 18.908 4.21799C18.7516 4.1383 18.5274 4.07337 18.089 4.03755C17.6389 4.00078 17.0566 4 16.2 4H7.80001C6.94343 4 6.36114 4.00078 5.91105 4.03755C5.47263 4.07337 5.24843 4.1383 5.09203 4.21799C4.7157 4.40973 4.40974 4.7157 4.218 5.09202C4.07274 5.3771 4.01008 5.79825 4.00168 7.00695C3.99784 7.55922 3.54703 8.00382 2.99475 7.99998C2.44248 7.99614 1.99789 7.54532 2.00173 6.99305C2.00952 5.8719 2.04043 4.96036 2.43598 4.18404C2.81948 3.43139 3.4314 2.81947 4.18405 2.43597C4.66938 2.18868 5.18609 2.09012 5.74818 2.04419C6.28938 1.99998 6.95374 1.99999 7.75871 2Z" fill="black"/>
<path fill-rule="evenodd" clip-rule="evenodd" d="M9.7929 13.2929C9.40238 13.6834 9.40238 14.3166 9.7929 14.7071C10.1834 15.0976 10.8166 15.0976 11.2071 14.7071L14.7071 11.2071C14.8129 11.1013 14.8901 10.9777 14.9386 10.8459C14.9732 10.752 14.9941 10.6515 14.9989 10.5469C15.006 10.3951 14.9787 10.2421 14.917 10.1004C14.8782 10.0113 14.8258 9.92668 14.7598 9.84973C14.7411 9.82799 14.7216 9.80707 14.7012 9.78701L11.2071 6.29291C10.8166 5.90238 10.1834 5.90238 9.7929 6.29291C9.40238 6.68343 9.40238 7.3166 9.7929 7.70712L11.5857 9.49996H1C0.447715 9.49996 0 9.94767 0 10.5C0 11.0522 0.447715 11.5 1 11.5H11.5859L9.7929 13.2929Z" fill="black"/>
</g>
<defs>
<clipPath id="clip0_2614_2536">
<rect width="24" height="24" fill="white"/>
</clipPath>
</defs>
</svg>
