<svg width="24" height="24" viewBox="0 0 24 24" fill="none" xmlns="http://www.w3.org/2000/svg">
<path fill-rule="evenodd" clip-rule="evenodd" d="M7.8 2H7.7587H7.75868C6.95372 1.99999 6.28937 1.99998 5.74817 2.04419C5.18608 2.09012 4.66937 2.18868 4.18404 2.43598C3.43139 2.81947 2.81947 3.43139 2.43597 4.18404C2.18868 4.66937 2.09012 5.18608 2.04419 5.74818C1.99998 6.28937 1.99999 6.95372 2 7.75868V7.7587V7.8V22C2 22.4045 2.24364 22.7691 2.61732 22.9239C2.99099 23.0787 3.42111 22.9931 3.70711 22.7071L6.76985 19.6444C7.14941 19.2648 7.22849 19.1948 7.30593 19.1474C7.3954 19.0925 7.49295 19.0521 7.59498 19.0276C7.6833 19.0064 7.7887 19 8.32548 19H13C13.5523 19 14 18.5523 14 18C14 17.4477 13.5523 17 13 17H8.32548L8.24218 16.9999C7.83528 16.9996 7.47654 16.9992 7.12809 17.0829C6.82198 17.1564 6.52935 17.2776 6.26093 17.4421C5.95539 17.6293 5.70196 17.8832 5.41451 18.1712L5.35564 18.2302L4 19.5858V7.8C4 6.94342 4.00078 6.36113 4.03755 5.91104C4.07337 5.47262 4.1383 5.24842 4.21799 5.09202C4.40973 4.7157 4.7157 4.40974 5.09202 4.21799C5.24842 4.1383 5.47262 4.07337 5.91104 4.03755C6.36113 4.00078 6.94342 4 7.8 4H16.2C17.0566 4 17.6389 4.00078 18.089 4.03755C18.5274 4.07337 18.7516 4.1383 18.908 4.21799C19.2843 4.40974 19.5903 4.7157 19.782 5.09202C19.8617 5.24842 19.9266 5.47262 19.9624 5.91104C19.9992 6.36113 20 6.94342 20 7.8V10C20 10.5523 20.4477 11 21 11C21.5523 11 22 10.5523 22 10V7.8V7.75868C22 6.95372 22 6.28937 21.9558 5.74818C21.9099 5.18608 21.8113 4.66937 21.564 4.18404C21.1805 3.43139 20.5686 2.81947 19.816 2.43598C19.3306 2.18868 18.8139 2.09012 18.2518 2.04419C17.7106 1.99998 17.0463 1.99999 16.2413 2H16.2413H16.2H7.8ZM17 16C17 14.8954 17.8954 14 19 14C20.1046 14 21 14.8954 21 16C21 17.1046 20.1046 18 19 18C17.8954 18 17 17.1046 17 16ZM19 12C16.7909 12 15 13.7909 15 16C15 18.2091 16.7909 20 19 20C21.2091 20 23 18.2091 23 16C23 13.7909 21.2091 12 19 12Z" fill="black"/>
</svg>
