<svg width="24" height="24" viewBox="0 0 24 24" fill="none" xmlns="http://www.w3.org/2000/svg">
<path fill-rule="evenodd" clip-rule="evenodd" d="M7.7587 2H16.2413C17.0463 1.99999 17.7106 1.99998 18.2518 2.04419C18.8139 2.09012 19.3306 2.18868 19.816 2.43597C20.5686 2.81947 21.1805 3.43139 21.564 4.18404C21.8113 4.66937 21.9099 5.18608 21.9558 5.74817C22 6.28936 22 6.95372 22 7.75868V13.2413C22 14.0463 22 14.7106 21.9558 15.2518C21.9099 15.8139 21.8113 16.3306 21.564 16.816C21.1805 17.5686 20.5686 18.1805 19.816 18.564C19.3306 18.8113 18.8139 18.9099 18.2518 18.9558C17.7106 19 17.0463 19 16.2413 19H8.32548C7.7887 19 7.6833 19.0064 7.59498 19.0276C7.49295 19.0521 7.3954 19.0925 7.30593 19.1474C7.22849 19.1948 7.14941 19.2648 6.76985 19.6444L3.70711 22.7071C3.42111 22.9931 2.99099 23.0787 2.61732 22.9239C2.24364 22.7691 2 22.4045 2 22L2 7.7587C1.99999 6.95373 1.99998 6.28937 2.04419 5.74817C2.09012 5.18608 2.18868 4.66937 2.43597 4.18404C2.81947 3.43139 3.43139 2.81947 4.18404 2.43597C4.66937 2.18868 5.18608 2.09012 5.74817 2.04419C6.28937 1.99998 6.95373 1.99999 7.7587 2ZM5.91104 4.03755C5.47262 4.07337 5.24842 4.1383 5.09202 4.21799C4.7157 4.40973 4.40973 4.7157 4.21799 5.09202C4.1383 5.24842 4.07337 5.47262 4.03755 5.91104C4.00078 6.36113 4 6.94342 4 7.8V19.5858L5.35564 18.2302C5.37544 18.2104 5.39505 18.1907 5.41451 18.1712C5.70196 17.8832 5.95539 17.6293 6.26093 17.4421C6.52935 17.2776 6.82198 17.1564 7.12809 17.0829C7.47654 16.9992 7.83528 16.9996 8.24218 16.9999C8.26972 17 8.29749 17 8.32548 17H16.2C17.0566 17 17.6389 16.9992 18.089 16.9624C18.5274 16.9266 18.7516 16.8617 18.908 16.782C19.2843 16.5903 19.5903 16.2843 19.782 15.908C19.8617 15.7516 19.9266 15.5274 19.9624 15.089C19.9992 14.6389 20 14.0566 20 13.2V7.8C20 6.94342 19.9992 6.36113 19.9624 5.91104C19.9266 5.47262 19.8617 5.24842 19.782 5.09202C19.5903 4.7157 19.2843 4.40973 18.908 4.21799C18.7516 4.1383 18.5274 4.07337 18.089 4.03755C17.6389 4.00078 17.0566 4 16.2 4H7.8C6.94342 4 6.36113 4.00078 5.91104 4.03755Z" fill="black"/>
</svg>
