<svg width="24" height="24" viewBox="0 0 24 24" fill="none" xmlns="http://www.w3.org/2000/svg">
<path fill-rule="evenodd" clip-rule="evenodd" d="M7.5 6C7.5 3.51472 9.51472 1.5 12 1.5C14.4853 1.5 16.5 3.51472 16.5 6V11C16.5 13.4853 14.4853 15.5 12 15.5C9.51472 15.5 7.5 13.4853 7.5 11V6ZM12 3.5C10.6193 3.5 9.5 4.61929 9.5 6V11C9.5 12.3807 10.6193 13.5 12 13.5C13.3807 13.5 14.5 12.3807 14.5 11V6C14.5 4.61929 13.3807 3.5 12 3.5ZM4.5 10C5.05228 10 5.5 10.4477 5.5 11C5.5 14.5899 8.41015 17.5 12 17.5C15.5899 17.5 18.5 14.5899 18.5 11C18.5 10.4477 18.9477 10 19.5 10C20.0523 10 20.5 10.4477 20.5 11C20.5 15.3561 17.2232 18.9469 13 19.4418V21.5C13 22.0523 12.5523 22.5 12 22.5C11.4477 22.5 11 22.0523 11 21.5V19.4418C6.77683 18.9469 3.5 15.3561 3.5 11C3.5 10.4477 3.94772 10 4.5 10Z" fill="black"/>
</svg>
