<svg width="24" height="24" viewBox="0 0 24 24" fill="none" xmlns="http://www.w3.org/2000/svg">
<path fill-rule="evenodd" clip-rule="evenodd" d="M3.70711 2.29289C3.31658 1.90237 2.68342 1.90237 2.29289 2.29289C1.90237 2.68342 1.90237 3.31658 2.29289 3.70711L20.2929 21.7071C20.6834 22.0976 21.3166 22.0976 21.7071 21.7071C22.0976 21.3166 22.0976 20.6834 21.7071 20.2929L18.214 16.7998C19.6321 15.281 20.5 13.2418 20.5 11C20.5 10.4477 20.0523 10 19.5 10C18.9477 10 18.5 10.4477 18.5 11C18.5 12.6896 17.8554 14.2285 16.7987 15.3844L15.028 13.6138C15.6337 12.9127 16 11.9991 16 11V6C16 3.79086 14.2091 2 12 2C9.79086 2 8 3.79086 8 6V6.58579L3.70711 2.29289ZM8 11V10.8271L12.1694 14.9965C12.1132 14.9988 12.0567 15 12 15C9.79086 15 8 13.2091 8 11ZM12 17.5C12.7972 17.5 13.561 17.3565 14.2667 17.0938L15.7855 18.6126C14.9291 19.0393 13.9906 19.3257 13 19.4418V21.5C13 22.0523 12.5523 22.5 12 22.5C11.4477 22.5 11 22.0523 11 21.5V19.4418C6.77683 18.9469 3.5 15.3561 3.5 11C3.5 10.4477 3.94772 10 4.5 10C5.05228 10 5.5 10.4477 5.5 11C5.5 14.5899 8.41015 17.5 12 17.5Z" fill="black"/>
</svg>
