<svg width="24" height="24" viewBox="0 0 24 24" fill="none" xmlns="http://www.w3.org/2000/svg">
<path fill-rule="evenodd" clip-rule="evenodd" d="M12 2C9.79086 2 8 3.79086 8 6V11C8 13.2091 9.79086 15 12 15C14.2091 15 16 13.2091 16 11V6C16 3.79086 14.2091 2 12 2ZM4.5 10C5.05228 10 5.5 10.4477 5.5 11C5.5 14.5899 8.41015 17.5 12 17.5C15.5899 17.5 18.5 14.5899 18.5 11C18.5 10.4477 18.9477 10 19.5 10C20.0523 10 20.5 10.4477 20.5 11C20.5 15.3561 17.2232 18.9469 13 19.4418V21.5C13 22.0523 12.5523 22.5 12 22.5C11.4477 22.5 11 22.0523 11 21.5V19.4418C6.77683 18.9469 3.5 15.3561 3.5 11C3.5 10.4477 3.94772 10 4.5 10Z" fill="black"/>
</svg>
