<svg width="24" height="24" viewBox="0 0 24 24" fill="none" xmlns="http://www.w3.org/2000/svg">
<path d="M14 16C14.5523 16 15 16.4477 15 17C15 17.5523 14.5523 18 14 18H4C3.44772 18 3 17.5523 3 17C3 16.4477 3.44772 16 4 16H14ZM18.293 7.29297C18.6834 6.90266 19.3165 6.90268 19.707 7.29297C20.0975 7.68344 20.0974 8.3165 19.707 8.70703L17.4141 11H22C22.5521 11.0001 22.9999 11.4479 23 12C23 12.5522 22.5522 12.9999 22 13H17.4141L19.707 15.293C20.0975 15.6834 20.0974 16.3165 19.707 16.707C19.3165 17.0974 18.6834 17.0975 18.293 16.707L14.293 12.707C13.9027 12.3165 13.9027 11.6834 14.293 11.293L18.293 7.29297ZM11 11C11.5523 11 12 11.4477 12 12C12 12.5523 11.5523 13 11 13H4C3.44772 13 3 12.5523 3 12C3 11.4477 3.44772 11 4 11H11ZM14 6C14.5523 6 15 6.44772 15 7C15 7.55228 14.5523 8 14 8H4C3.44772 8 3 7.55228 3 7C3 6.44772 3.44772 6 4 6H14Z" fill="black"/>
</svg>
