<svg width="24" height="24" viewBox="0 0 24 24" fill="none" xmlns="http://www.w3.org/2000/svg">
<path d="M4.7071 7.2932C4.31658 6.90267 3.68356 6.90267 3.29304 7.2932C2.90253 7.68372 2.90252 8.31674 3.29304 8.70726L5.58601 11.0002H1.00007C0.447784 11.0002 6.83349e-05 11.4479 6.83349e-05 12.0002C0.000135853 12.5525 0.447825 13.0002 1.00007 13.0002H5.58601L3.29304 15.2932C2.90253 15.6837 2.90252 16.3167 3.29304 16.7073C3.68356 17.0977 4.31661 17.0977 4.7071 16.7073L8.7071 12.7073C9.09759 12.3168 9.09752 11.6837 8.7071 11.2932L4.7071 7.2932Z" fill="black"/>
<path d="M13 12.5C11.3431 12.5 10 13.8431 10 15.5C10 17.1569 11.3431 18.5 13 18.5C14.6569 18.5 16 17.1569 16 15.5C16 13.8431 14.6569 12.5 13 12.5ZM18 14.5C17.4477 14.5 17 14.9477 17 15.5C17 16.0523 17.4477 16.5 18 16.5H21C21.5523 16.5 22 16.0523 22 15.5C22 14.9477 21.5523 14.5 21 14.5H18ZM13 14.5C13.5523 14.5 14 14.9477 14 15.5C14 16.0523 13.5523 16.5 13 16.5C12.4477 16.5 12 16.0523 12 15.5C12 14.9477 12.4477 14.5 13 14.5ZM13 5.5C11.3431 5.5 10 6.84315 10 8.5C10 10.1569 11.3431 11.5 13 11.5C14.6569 11.5 16 10.1569 16 8.5C16 6.84315 14.6569 5.5 13 5.5ZM18 7.5C17.4477 7.5 17 7.94772 17 8.5C17 9.05228 17.4477 9.5 18 9.5H21C21.5523 9.5 22 9.05228 22 8.5C22 7.94772 21.5523 7.5 21 7.5H18ZM13 7.5C13.5523 7.5 14 7.94772 14 8.5C14 9.05228 13.5523 9.5 13 9.5C12.4477 9.5 12 9.05228 12 8.5C12 7.94772 12.4477 7.5 13 7.5Z" fill="black"/>
</svg>
