<svg width="24" height="24" viewBox="0 0 24 24" fill="none" xmlns="http://www.w3.org/2000/svg">
<path fill-rule="evenodd" clip-rule="evenodd" d="M8.87954 5.89215C8.59268 5.85126 8.29906 5.83004 8 5.83004V4.17004C8.37768 4.17004 8.74958 4.19684 9.1138 4.24876L8.87954 5.89215ZM12.9401 8.30284C12.587 7.83191 12.1681 7.41302 11.6972 7.05993L12.693 5.73178C13.2899 6.17933 13.8207 6.71012 14.2683 7.30704L12.9401 8.30284ZM14.17 12C14.17 11.701 14.1488 11.4074 14.1079 11.1205L15.7513 10.8862C15.8032 11.2505 15.83 11.6224 15.83 12C15.83 12.3777 15.8032 12.7496 15.7513 13.1138L14.1079 12.8796C14.1488 12.5927 14.17 12.2991 14.17 12ZM11.6972 16.9402C12.1681 16.5871 12.587 16.1682 12.9401 15.6973L14.2683 16.6931C13.8207 17.29 13.2899 17.8208 12.693 18.2683L11.6972 16.9402ZM8 18.17C8.29906 18.17 8.59268 18.1488 8.87954 18.1079L9.11381 19.7513C8.74958 19.8032 8.37768 19.83 8 19.83V18.17Z" fill="black"/>
<path fill-rule="evenodd" clip-rule="evenodd" d="M7.99998 5.83004C4.59239 5.83004 1.82998 8.59245 1.82998 12C1.82998 15.4076 4.59239 18.17 7.99998 18.17V19.83C3.6756 19.83 0.169983 16.3244 0.169983 12C0.169983 7.67566 3.6756 4.17004 7.99998 4.17004V5.83004Z" fill="black"/>
<path fill-rule="evenodd" clip-rule="evenodd" d="M8.75946 8.0519C9.04703 8.19011 9.22992 8.48092 9.22992 8.79998V15.2C9.22992 15.6584 8.85831 16.03 8.39992 16.03C7.94152 16.03 7.56992 15.6584 7.56992 15.2V10.5269L6.91841 11.0481C6.56047 11.3345 6.03816 11.2764 5.7518 10.9185C5.46544 10.5605 5.52347 10.0382 5.88142 9.75187L7.88142 8.15186C8.13056 7.95255 8.47189 7.91368 8.75946 8.0519Z" fill="black"/>
<path fill-rule="evenodd" clip-rule="evenodd" d="M8.72727 5.83004H8V4.17004H8.72727V5.83004ZM12 5.83004H11.2727V4.17004H12C12.3777 4.17004 12.7496 4.19684 13.1138 4.24876L12.8795 5.89215C12.5927 5.85126 12.2991 5.83004 12 5.83004ZM16.9401 8.30284C16.587 7.83191 16.1681 7.41302 15.6972 7.05993L16.693 5.73178C17.2899 6.17933 17.8207 6.71012 18.2683 7.30704L16.9401 8.30284ZM18.17 12C18.17 11.701 18.1488 11.4074 18.1079 11.1205L19.7513 10.8862C19.8032 11.2505 19.83 11.6224 19.83 12C19.83 12.3777 19.8032 12.7496 19.7513 13.1138L18.1079 12.8796C18.1488 12.5927 18.17 12.2991 18.17 12ZM15.6972 16.9402C16.1681 16.5871 16.587 16.1682 16.9401 15.6973L18.2683 16.6931C17.8207 17.29 17.2899 17.8208 16.693 18.2683L15.6972 16.9402ZM12 18.17C12.2991 18.17 12.5927 18.1488 12.8795 18.1079L13.1138 19.7513C12.7496 19.8032 12.3777 19.83 12 19.83H11.2727V18.17H12ZM8 18.17H8.72727V19.83H8V18.17Z" fill="black"/>
<path fill-rule="evenodd" clip-rule="evenodd" d="M12.7273 5.83004H12V4.17004H12.7273V5.83004ZM16 5.83004H15.2727V4.17004H16C16.3777 4.17004 16.7496 4.19684 17.1138 4.24876L16.8795 5.89215C16.5927 5.85126 16.2991 5.83004 16 5.83004ZM20.9401 8.30284C20.587 7.83191 20.1681 7.41302 19.6972 7.05993L20.693 5.73178C21.2899 6.17933 21.8207 6.71012 22.2683 7.30704L20.9401 8.30284ZM22.17 12C22.17 11.701 22.1488 11.4074 22.1079 11.1205L23.7513 10.8862C23.8032 11.2505 23.83 11.6224 23.83 12C23.83 12.3777 23.8032 12.7496 23.7513 13.1138L22.1079 12.8796C22.1488 12.5927 22.17 12.2991 22.17 12ZM19.6972 16.9402C20.1681 16.5871 20.587 16.1682 20.9401 15.6973L22.2683 16.6931C21.8207 17.29 21.2899 17.8208 20.693 18.2683L19.6972 16.9402ZM16 18.17C16.2991 18.17 16.5927 18.1488 16.8795 18.1079L17.1138 19.7513C16.7496 19.8032 16.3777 19.83 16 19.83H15.2727V18.17H16ZM12 18.17H12.7273V19.83H12V18.17Z" fill="black"/>
</svg>
