<svg width="10" height="12" viewBox="0 0 10 12" fill="none" xmlns="http://www.w3.org/2000/svg">
<path d="M0 8V4C0 3.44772 0.447715 3 1 3C1.55228 3 2 3.44772 2 4V8C2 8.55228 1.55228 9 1 9C0.447715 9 0 8.55228 0 8Z" fill="currentColor"/>
<path d="M4 11V1C4 0.447715 4.44772 0 5 0C5.55228 0 6 0.447715 6 1V11C6 11.5523 5.55228 12 5 12C4.44772 12 4 11.5523 4 11Z" fill="currentColor"/>
<path d="M8 7V5C8 4.44772 8.44772 4 9 4C9.55228 4 10 4.44772 10 5V7C10 7.55228 9.55228 8 9 8C8.44772 8 8 7.55228 8 7Z" fill="currentColor"/>
</svg>
