<svg xmlns="http://www.w3.org/2000/svg" width="14" height="10" viewBox="0 0 14 10">
  <path d="M5.86,0.98 C5.95087549,1.10116732 6,1.24854085 6,1.4 L6,8.6 C6,8.98659932 5.68659932,9.3 5.3,9.3 C5.14854085,9.3 5.00116732,9.25087549 4.88,9.16 L2,7 L2,3 L4.88,0.84 C5.18927946,0.608040405 5.62804041,0.67072054 5.86,0.98 Z M9.2843055,2.58859116 L9.35355339,2.64644661 L11,4.293 L12.6464466,2.64644661 L12.7156945,2.58859116 C12.9105626,2.45359511 13.179987,2.47288026 13.3535534,2.64644661 C13.5271197,2.82001296 13.5464049,3.08943736 13.4114088,3.2843055 L13.3535534,3.35355339 L11.707,5 L13.3535534,6.64644661 C13.5488155,6.84170876 13.5488155,7.15829124 13.3535534,7.35355339 C13.179987,7.52711974 12.9105626,7.54640489 12.7156945,7.41140884 L12.6464466,7.35355339 L11,5.707 L9.35355339,7.35355339 L9.2843055,7.41140884 C9.08943736,7.54640489 8.82001296,7.52711974 8.64644661,7.35355339 C8.47288026,7.17998704 8.45359511,6.91056264 8.58859116,6.7156945 L8.64644661,6.64644661 L10.293,5 L8.64644661,3.35355339 C8.45118446,3.15829124 8.45118446,2.84170876 8.64644661,2.64644661 C8.82001296,2.47288026 9.08943736,2.45359511 9.2843055,2.58859116 Z M1,3 L1,7 C0.44771525,7 6.76353751e-17,6.55228475 0,6 L0,4 C-6.28042769e-17,3.48716416 0.38604019,3.06449284 0.883378875,3.00672773 L1,3 Z"/>
</svg>
