<svg width="24" height="24" viewBox="0 0 24 24" fill="none" xmlns="http://www.w3.org/2000/svg">
<path fill-rule="evenodd" clip-rule="evenodd" d="M10.5 2.5C10.5 1.67157 11.1716 1 12 1C12.8284 1 13.5 1.67157 13.5 2.5C13.5 2.552 13.4974 2.60338 13.4922 2.65402C16.676 3.32116 19.104 6.08055 19.239 9.45524L19.4093 13.7132C19.4608 14.9989 19.8656 16.2456 20.5794 17.3163L21.3321 18.4453C21.5366 18.7522 21.5557 19.1467 21.3817 19.4719C21.3248 19.5781 21.2503 19.6714 21.1629 19.7487L21.7071 20.2929C22.0976 20.6834 22.0976 21.3166 21.7071 21.7071C21.3166 22.0976 20.6834 22.0976 20.2929 21.7071L2.29289 3.70711C1.90237 3.31658 1.90237 2.68342 2.29289 2.29289C2.68342 1.90237 3.31658 1.90237 3.70711 2.29289L6.4738 5.05959C7.49709 3.85392 8.90691 2.98947 10.5078 2.65402C10.5026 2.60338 10.5 2.552 10.5 2.5ZM7.89461 6.4804L17.9585 16.5442C17.6348 15.6655 17.4487 14.7375 17.4109 13.7931L17.2406 9.53517C17.1281 6.72235 14.8151 4.5 12 4.5C10.3415 4.5 8.85727 5.27137 7.89461 6.4804ZM15.1729 18L17.1729 20H3.5C3.13121 20 2.79235 19.797 2.61833 19.4719C2.44431 19.1467 2.46338 18.7522 2.66795 18.4453L3.42062 17.3163C4.1344 16.2456 4.53924 14.9989 4.59067 13.7132L4.76099 9.45523C4.78334 8.89661 4.86851 8.35485 5.00955 7.83665L6.75742 9.58452L6.58908 13.7931C6.52966 15.2785 6.10336 16.7234 5.35166 18H15.1729ZM12 23C13.1 23 14 22.1 14 21H10C10 22.1 10.89 23 12 23Z" fill="black"/>
</svg>
