<svg width="54" height="54" viewBox="0 0 54 54" fill="none" xmlns="http://www.w3.org/2000/svg">
<path fill-rule="evenodd" clip-rule="evenodd" d="M12.3489 21.4655C12.0148 19.0886 11.8478 17.9002 12.1828 16.9273C12.4775 16.0716 13.0355 15.3311 13.7768 14.812C14.6197 14.2218 15.8081 14.0548 18.185 13.7207L27.9462 12.3489C30.323 12.0148 31.5115 11.8478 32.4843 12.1828C33.3401 12.4775 34.0806 13.0355 34.5997 13.7768C35.1678 14.5882 35.3438 15.7199 35.6542 17.9237H26.1468H26.1468C24.9968 17.9237 24.0478 17.9237 23.2748 17.9868C22.4721 18.0524 21.7344 18.1932 21.0417 18.5461C19.9671 19.0937 19.0935 19.9673 18.546 21.0418C18.193 21.7346 18.0523 22.4722 17.9867 23.275C17.9235 24.048 17.9236 24.9969 17.9236 26.147V26.147V36.1219V36.1219C17.9236 36.5815 17.9236 37.0089 17.9276 37.4058C17.5537 37.3887 17.2301 37.3331 16.9273 37.2289C16.0716 36.9342 15.3311 36.3762 14.812 35.6348C14.2218 34.792 14.0548 33.6036 13.7207 31.2267L12.3489 21.4655ZM19.3486 26.2058C19.3486 23.8056 19.3486 22.6055 19.8157 21.6887C20.2266 20.8823 20.8822 20.2267 21.6886 19.8158C22.6054 19.3487 23.8055 19.3487 26.2057 19.3487H36.0628C38.4631 19.3487 39.6632 19.3487 40.5799 19.8158C41.3863 20.2267 42.042 20.8823 42.4529 21.6887C42.92 22.6055 42.92 23.8056 42.92 26.2058V36.063C42.92 38.4632 42.92 39.6633 42.4529 40.5801C42.042 41.3865 41.3863 42.0421 40.5799 42.453C39.6632 42.9201 38.4631 42.9201 36.0628 42.9201H26.2057C23.8055 42.9201 22.6054 42.9201 21.6886 42.453C20.8822 42.0421 20.2266 41.3865 19.8157 40.5801C19.3486 39.6633 19.3486 38.4632 19.3486 36.063V26.2058ZM24.706 25.7773C24.706 25.1855 25.1857 24.7058 25.7775 24.7058H36.4918C37.0835 24.7058 37.5632 25.1855 37.5632 25.7773C37.5632 26.369 37.0835 26.8487 36.4918 26.8487H25.7775C25.1857 26.8487 24.706 26.369 24.706 25.7773ZM24.706 31.1344C24.706 30.5427 25.1857 30.063 25.7775 30.063H36.4918C37.0835 30.063 37.5632 30.5427 37.5632 31.1344C37.5632 31.7262 37.0835 32.2058 36.4918 32.2058H25.7775C25.1857 32.2058 24.706 31.7262 24.706 31.1344ZM25.7775 35.4201C25.1857 35.4201 24.706 35.8998 24.706 36.4916C24.706 37.0833 25.1857 37.563 25.7775 37.563H33.2775C33.8692 37.563 34.3489 37.0833 34.3489 36.4916C34.3489 35.8998 33.8692 35.4201 33.2775 35.4201H25.7775Z" fill="white"/>
</svg>
