<svg width="16" height="16" viewBox="0 0 16 16" fill="none" xmlns="http://www.w3.org/2000/svg">
<path fill-rule="evenodd" clip-rule="evenodd" d="M4.58823 10.3368H6.29275L6.32785 10.3368C6.87722 10.3406 7.41035 10.5235 7.84629 10.8578L7.87404 10.8793L10.1595 12.6569L10.1595 12.6569L10.1595 12.6569C11.071 13.3658 11.5267 13.7203 11.9094 13.7171C12.2422 13.7142 12.5559 13.5608 12.7625 13.2998C13 12.9998 13 12.4224 13 11.2676V4.22947C13 3.07473 13 2.49735 12.7625 2.19731C12.5559 1.9363 12.2422 1.78288 11.9094 1.78005C11.5267 1.7768 11.071 2.13127 10.1595 2.84021L7.87404 4.61777L7.84629 4.63927C7.41035 4.97359 6.87722 5.15651 6.32785 5.16026L6.29275 5.16032H4.58824C3.15879 5.16032 2 6.31911 2 7.74856C2 9.178 3.15879 10.3368 4.58823 10.3368ZM4.5979 11.9083C4.58779 11.9729 4.58779 12.0501 4.58779 12.2045V12.9252C4.58779 13.6399 5.16719 14.2193 5.88191 14.2193C6.59663 14.2193 7.17603 13.6399 7.17603 12.9252V12.2045C7.17603 12.0501 7.17603 11.9729 7.16592 11.9083C7.10941 11.5471 6.82607 11.2637 6.46488 11.2072C6.40026 11.1971 6.32305 11.1971 6.16863 11.1971H5.59519C5.44077 11.1971 5.36356 11.1971 5.29894 11.2072C4.93775 11.2637 4.65442 11.5471 4.5979 11.9083Z" fill="black"/>
</svg>
