<svg width="16" height="16" viewBox="0 0 16 16" fill="none" xmlns="http://www.w3.org/2000/svg">
<path d="M5.43809 7.13805C6.85693 7.13805 8.00712 5.98786 8.00712 4.56903C8.00712 3.15019 6.85693 2 5.43809 2C4.01926 2 2.86907 3.15019 2.86907 4.56903C2.86907 5.98786 4.01926 7.13805 5.43809 7.13805Z" fill="black"/>
<path d="M0.299988 11.5597C0.299988 12.3608 0.949341 13.0101 1.75036 13.0101H9.12572C9.14428 13.0101 9.16275 13.0098 9.18114 13.0091C9.26197 13.006 9.3411 12.9964 9.41802 12.9806C10.079 12.8454 10.5761 12.2606 10.5761 11.5597C10.5761 11.0668 10.4535 10.5743 10.1037 10.2269C9.90893 10.0335 9.64776 9.81232 9.30904 9.59682C8.5052 9.08542 7.26454 8.60607 5.43804 8.60607C2.84189 8.60607 1.42942 9.57453 0.772445 10.2269C0.422652 10.5743 0.299988 11.0668 0.299988 11.5597Z" fill="black"/>
<path d="M11.3665 13.0101H14.5156C15.1775 13.0101 15.7141 12.4735 15.7141 11.8116C15.7141 11.3945 15.6073 10.9782 15.3069 10.6887C14.7429 10.1451 13.5325 9.34008 11.31 9.34008C11.186 9.34008 11.065 9.34259 10.9472 9.34742L10.9623 9.36234C11.6319 10.0273 11.7946 10.8948 11.7946 11.5597C11.7946 12.0945 11.6373 12.5926 11.3665 13.0101Z" fill="black"/>
<path d="M11.31 7.87207C12.5262 7.87207 13.5121 6.88619 13.5121 5.67004C13.5121 4.4539 12.5262 3.46802 11.31 3.46802C10.0939 3.46802 9.10801 4.4539 9.10801 5.67004C9.10801 6.88619 10.0939 7.87207 11.31 7.87207Z" fill="black"/>
</svg>
