<svg width="16" height="16" viewBox="0 0 16 16" fill="none" xmlns="http://www.w3.org/2000/svg">
<path d="M8.00001 7.55C9.67067 7.55 11.025 6.19566 11.025 4.525C11.025 2.85434 9.67067 1.5 8.00001 1.5C6.32935 1.5 4.97501 2.85434 4.97501 4.525C4.97501 6.19566 6.32935 7.55 8.00001 7.55Z" fill="black"/>
<path d="M1.95001 12.38C1.95001 13.4714 2.83483 14.3562 3.9263 14.3562H12.0737C13.1652 14.3562 14.05 13.4714 14.05 12.38C14.05 11.9399 13.9423 11.5026 13.6484 11.1751C12.9544 10.4019 11.279 9.0625 8.00001 9.0625C4.721 9.0625 3.04561 10.4019 2.35162 11.1751C2.0577 11.5026 1.95001 11.9399 1.95001 12.38Z" fill="black"/>
</svg>
