<svg width="24" height="24" viewBox="0 0 24 24" fill="none" xmlns="http://www.w3.org/2000/svg">
<path fill-rule="evenodd" clip-rule="evenodd" d="M14.5 2.00003L14.4161 1.99998L14.4152 1.99998L14.4143 1.99998C14.3604 1.99994 14.3075 1.9999 14.2557 2.00003H9.4L9.35719 2.00003C8.27341 2.00002 7.39926 2.00001 6.69138 2.05784C5.96253 2.11739 5.32234 2.24321 4.73005 2.54499C3.78924 3.02436 3.02434 3.78926 2.54497 4.73007C2.24318 5.32236 2.11737 5.96255 2.05782 6.6914C1.99998 7.39928 1.99999 8.27342 2 9.3572V9.35722V9.40003V10.9139V10.968V10.968V11V14.6V14.6428V14.6428C1.99999 15.7266 1.99998 16.6008 2.05782 17.3087C2.11737 18.0375 2.24318 18.6777 2.54497 19.27C3.02434 20.2108 3.78924 20.9757 4.73005 21.4551C5.32234 21.7568 5.96253 21.8827 6.69138 21.9422C7.39923 22 8.27334 22 9.35707 22H9.35717H9.4H14.6H14.6428H14.6429C15.7267 22 16.6008 22 17.3086 21.9422C18.0375 21.8827 18.6777 21.7568 19.27 21.4551C20.2108 20.9757 20.9757 20.2108 21.455 19.27C21.7568 18.6777 21.8826 18.0375 21.9422 17.3087C22 16.6008 22 15.7267 22 14.643V14.6429V14.6V9.40003V9.35719V9.35709C22 8.27336 22 7.39925 21.9422 6.6914C21.8826 5.96255 21.7568 5.32236 21.455 4.73007C20.9757 3.78926 20.2108 3.02436 19.27 2.54499C18.6777 2.24321 18.0375 2.11739 17.3086 2.05784C16.6802 2.0065 15.9208 2.00074 15 2.0001V2.00003H14.7269L14.6428 2.00003L14.6 2.00003H14.5ZM14.6 4.00003H14.5C13.9874 4.00003 13.8772 4.00487 13.8049 4.01924C13.4082 4.09815 13.0981 4.40824 13.0192 4.80494C13.0048 4.87718 13 4.98744 13 5.50003L13 5.58391C13.0003 5.96461 13.0006 6.29244 12.9424 6.5853C12.7056 7.77537 11.7753 8.70566 10.5853 8.94238C10.2924 9.00063 9.96458 9.00037 9.58389 9.00007L9.5 9.00003H6C5.52038 9.00003 5.21074 9.00057 4.97376 9.01674C4.74576 9.03229 4.65893 9.05891 4.61732 9.07615C4.37229 9.17764 4.17762 9.37231 4.07612 9.61734C4.05888 9.65896 4.03227 9.74579 4.01671 9.97379C4.00054 10.2108 4 10.5204 4 11V14.6C4 15.7366 4.00078 16.5289 4.05118 17.1458C4.10062 17.751 4.1928 18.0986 4.32698 18.362C4.6146 18.9265 5.07354 19.3854 5.63803 19.673C5.90139 19.8072 6.24907 19.8994 6.85424 19.9489C7.47108 19.9992 8.26339 20 9.4 20H14.6C15.7366 20 16.5289 19.9992 17.1458 19.9489C17.7509 19.8994 18.0986 19.8072 18.362 19.673C18.9265 19.3854 19.3854 18.9265 19.673 18.362C19.8072 18.0986 19.8994 17.751 19.9488 17.1458C19.9992 16.5289 20 15.7366 20 14.6V9.40003C20 8.26342 19.9992 7.47111 19.9488 6.85427C19.8994 6.2491 19.8072 5.90141 19.673 5.63805C19.3854 5.07357 18.9265 4.61463 18.362 4.32701C18.0986 4.19282 17.7509 4.10065 17.1458 4.0512C16.5289 4.0008 15.7366 4.00003 14.6 4.00003ZM4.03069 7.16268C4.29824 7.07622 4.56796 7.03977 4.83762 7.02138C5.15087 7 5.52936 7.00001 5.96801 7.00003H5.96802L6 7.00003H9.5C10.0126 7.00003 10.1228 6.99518 10.1951 6.98081C10.5918 6.9019 10.9019 6.59181 10.9808 6.19512C10.9952 6.12287 11 6.01261 11 5.50003L11 5.41614C10.9997 5.03544 10.9994 4.70761 11.0576 4.41475C11.0859 4.27256 11.1241 4.13407 11.1715 4.00003H9.4C8.2634 4.00003 7.47108 4.0008 6.85424 4.0512C6.24907 4.10065 5.90139 4.19282 5.63803 4.32701C5.07354 4.61463 4.6146 5.07357 4.32698 5.63805C4.1928 5.90141 4.10062 6.2491 4.05118 6.85427C4.04316 6.9524 4.0364 7.05498 4.03069 7.16268ZM12 10C12.5523 10 13 10.4477 13 11V13H15C15.5523 13 16 13.4477 16 14C16 14.5523 15.5523 15 15 15H13V17C13 17.5523 12.5523 18 12 18C11.4477 18 11 17.5523 11 17V15H9C8.44772 15 8 14.5523 8 14C8 13.4477 8.44772 13 9 13H11V11C11 10.4477 11.4477 10 12 10Z" fill="white"/>
</svg>
