<svg width="24" height="24" viewBox="0 0 24 24" fill="none" xmlns="http://www.w3.org/2000/svg">
<g clip-path="url(#clip0_427_83808)">
<path fill-rule="evenodd" clip-rule="evenodd" d="M5.70711 3.29289C5.31658 2.90237 4.68342 2.90237 4.29289 3.29289C3.90237 3.68342 3.90237 4.31658 4.29289 4.70711L20.2929 20.7071C20.6834 21.0976 21.3166 21.0976 21.7071 20.7071C22.0976 20.3166 22.0976 19.6834 21.7071 19.2929L19.8889 17.4747C19.9608 17.2362 20 16.9796 20 16.708V5.79192C20 3.6224 17.4996 2.40712 15.7936 3.74749L11.6541 6.99998H9.41419L5.70711 3.29289ZM11.4142 8.99998L18 15.5858V5.79192C18 5.29126 17.4229 5.01081 17.0293 5.32013L12.6469 8.76341C12.4519 8.91667 12.211 8.99998 11.9629 8.99998H11.4142ZM3.99996 11.25C3.99996 9.67667 4.85486 8.30304 6.12546 7.56827L7.64065 9.08346C6.69405 9.34913 5.99996 10.2185 5.99996 11.25C5.99996 12.4926 7.00732 13.5 8.24996 13.5H11.9629C11.996 13.5 12.0289 13.5015 12.0616 13.5044L17.8316 19.2744C17.154 19.3923 16.4202 19.2448 15.7936 18.7525L13 16.5574V17C13 18.6568 11.6568 20 9.99996 20C8.34311 20 6.99996 18.6568 6.99996 17V15.3132C5.2628 14.7794 3.99996 13.1622 3.99996 11.25ZM11 15.5H8.99996V17C8.99996 17.5522 9.44768 18 9.99996 18C10.5522 18 11 17.5522 11 17V15.5Z" fill="black"/>
</g>
<defs>
<clipPath id="clip0_427_83808">
<rect width="24" height="24" fill="white"/>
</clipPath>
</defs>
</svg>
