<svg xmlns="http://www.w3.org/2000/svg" width="19" height="14" viewBox="0 0 19 14">
  <path d="M10.1908263,2.25169462 C10.2840755,2.40711003 10.3333333,2.58494643 10.3333333,2.76619038 L10.3333333,11.2338096 C10.3333333,11.7860944 9.88561808,12.2338096 9.33333333,12.2338096 C9.15208939,12.2338096 8.97425298,12.1845518 8.81883758,12.0913025 L6.14250707,10.4855042 C5.64049806,10.1842988 5.33333333,9.64178746 5.33333333,9.05634937 L5.33333333,4.94365063 C5.33333333,4.35821254 5.64049806,3.81570117 6.14250707,3.51449576 L8.81883758,1.90869745 C9.29241784,1.62454929 9.9066781,1.77811436 10.1908263,2.25169462 Z M3.33333333,4 C3.88561808,4 4.33333333,4.44771525 4.33333333,5 L4.33333333,9 C4.33333333,9.55228475 3.88561808,10 3.33333333,10 C2.78104858,10 2.33333333,9.55228475 2.33333333,9 L2.33333333,5 C2.33333333,4.44771525 2.78104858,4 3.33333333,4 Z M15.696681,4.92415462 C15.8904902,4.78764268 16.1600568,4.80482571 16.3349717,4.97703294 C16.5098866,5.14924018 16.5312728,5.41850596 16.3978008,5.61442116 L16.3404872,5.68411821 L15.0263333,7.01803925 L16.3404872,8.35223112 C16.5342204,8.54901039 16.531751,8.86558325 16.3349717,9.05931639 C16.1600568,9.23152363 15.8904902,9.24870665 15.696681,9.11219471 L15.6278865,9.05380088 L14.3253333,7.73003925 L13.0229671,9.05380088 L12.9541726,9.11219471 C12.7603633,9.24870665 12.4907967,9.23152363 12.3158818,9.05931639 C12.1409669,8.88710915 12.1195808,8.61784337 12.2530527,8.42192818 L12.3103663,8.35223112 L13.6233333,7.01803925 L12.3103663,5.68411821 C12.1166331,5.48733894 12.1191025,5.17076608 12.3158818,4.97703294 C12.4907967,4.80482571 12.7603633,4.78764268 12.9541726,4.92415462 L13.0229671,4.98254845 L14.3253333,6.30503925 L15.6278865,4.98254845 L15.696681,4.92415462 Z"/>
</svg>
