<svg width="14" height="14" viewBox="0 0 14 14" fill="none" xmlns="http://www.w3.org/2000/svg">
<path d="M3.52595 12.9831C3.08305 13.0381 2.71626 12.959 2.42561 12.746C2.14187 12.5261 2 12.2134 2 11.8079C2 10.9627 2.52249 10.3579 3.56747 9.99371L4.37716 9.72569C4.55709 9.65697 4.64706 9.51609 4.64706 9.30306L4.6263 3.52016C4.6263 3.1903 4.81661 2.96008 5.19723 2.82951L10.1384 1.09774C10.436 0.987783 10.654 0.970603 10.7924 1.0462C10.9308 1.11492 11 1.28328 11 1.5513V8.69488C11 9.20341 10.8927 9.62261 10.6782 9.95247C10.4637 10.2823 10.2042 10.5366 9.89965 10.7153C9.60208 10.894 9.32526 11.0005 9.0692 11.0348C8.61938 11.1036 8.24914 11.028 7.95848 10.8081C7.66782 10.5881 7.52249 10.2755 7.52249 9.87001C7.52249 9.07284 8.0519 8.48528 9.11073 8.10731L9.87889 7.81868C10.1003 7.74309 10.2111 7.5919 10.2111 7.36512L10.1799 4.13865C10.1799 3.98747 10.083 3.9428 9.88927 4.00465L5.70588 5.47872C5.60208 5.51308 5.53633 5.54744 5.50865 5.5818C5.48789 5.60929 5.47751 5.68145 5.47751 5.79827V10.6019C5.47751 11.1036 5.36678 11.5262 5.14533 11.8698C4.9308 12.2065 4.66782 12.4677 4.3564 12.6532C4.0519 12.8319 3.77509 12.9419 3.52595 12.9831Z" fill="black"/>
</svg>
