<svg width="16" height="14" viewBox="0 0 16 14" fill="none" xmlns="http://www.w3.org/2000/svg">
<path d="M0.679688 11.082C0.679688 10.6172 0.826172 10.2324 1.11914 9.92773C1.41602 9.61914 1.86719 9.40039 2.47266 9.27148L3.4043 9.07812C3.61133 9.03906 3.71484 8.88672 3.71484 8.62109V4.30859C3.71484 4.17969 3.75977 4.07031 3.84961 3.98047C3.94336 3.89062 4.05469 3.8457 4.18359 3.8457C4.3125 3.8457 4.42188 3.89062 4.51172 3.98047C4.60547 4.07031 4.65234 4.17969 4.65234 4.30859V10.2617C4.65234 10.6992 4.57812 11.0723 4.42969 11.3809C4.28516 11.6934 4.09766 11.9434 3.86719 12.1309C3.63672 12.3223 3.39258 12.4609 3.13477 12.5469C2.88086 12.6367 2.64258 12.6816 2.41992 12.6816C2.08398 12.6816 1.7832 12.6133 1.51758 12.4766C1.25586 12.3438 1.05078 12.1562 0.902344 11.9141C0.753906 11.6719 0.679688 11.3945 0.679688 11.082ZM6.01172 8.09375C6.01172 7.625 6.1582 7.23828 6.45117 6.93359C6.74414 6.62891 7.19531 6.41211 7.80469 6.2832L8.73633 6.08984C8.94336 6.04688 9.04688 5.89453 9.04688 5.63281V1.31445C9.04688 1.18945 9.0918 1.08203 9.18164 0.992188C9.27539 0.898438 9.38672 0.851562 9.51562 0.851562C9.64453 0.851562 9.75391 0.898438 9.84375 0.992188C9.9375 1.08203 9.98438 1.18945 9.98438 1.31445V7.26758C9.98438 7.70898 9.91016 8.08398 9.76172 8.39258C9.61719 8.70117 9.42969 8.95117 9.19922 9.14258C8.96875 9.33398 8.72461 9.47461 8.4668 9.56445C8.20898 9.65039 7.9707 9.69336 7.75195 9.69336C7.41602 9.69336 7.11523 9.625 6.84961 9.48828C6.58789 9.35156 6.38281 9.16406 6.23438 8.92578C6.08594 8.68359 6.01172 8.40625 6.01172 8.09375ZM10.3535 11.082C10.3535 10.6172 10.5 10.2324 10.793 9.92773C11.0859 9.61914 11.5352 9.40234 12.1406 9.27734L13.0781 9.07812C13.2852 9.03906 13.3887 8.88672 13.3887 8.62109V4.30859C13.3887 4.18359 13.4336 4.07617 13.5234 3.98633C13.6172 3.89258 13.7285 3.8457 13.8574 3.8457C13.9824 3.8457 14.0898 3.89258 14.1797 3.98633C14.2734 4.07617 14.3203 4.18359 14.3203 4.30859V10.2617C14.3203 10.7031 14.2461 11.0781 14.0977 11.3867C13.9531 11.6953 13.7656 11.9453 13.5352 12.1367C13.3047 12.3281 13.0605 12.4668 12.8027 12.5527C12.5488 12.6387 12.3125 12.6816 12.0938 12.6816C11.7539 12.6816 11.4531 12.6133 11.1914 12.4766C10.9297 12.3438 10.7246 12.1562 10.5762 11.9141C10.4277 11.6719 10.3535 11.3945 10.3535 11.082Z" fill="black"/>
</svg>
