<svg width="25" height="24" viewBox="0 0 25 24" fill="none" xmlns="http://www.w3.org/2000/svg">
<path d="M13.0325 2.70115C14.1237 1.78879 15.1035 2.73963 15.9388 3.75686L16.0327 3.87221C16.8897 4.93038 17.2897 5.6574 18.0006 6.95189C18.6621 8.15757 19.5007 10.4109 19.5007 11.737L19.4988 12.1441C19.4876 13.2669 19.4184 14.1439 19.1114 15.2065L18.9091 15.9013C18.1011 18.635 17.4148 20.2497 14.7927 20.7728C13.3003 21.0708 10.7201 21.1973 9.68002 20.3724C7.93286 18.9864 7.14334 17.668 6.56286 16.5522L6.34288 16.1226C6.05209 15.5491 5.2982 13.8346 6.46443 13.0083C6.96446 12.6546 7.81067 12.7554 8.163 13.1001C9.46924 14.378 9.60001 16.0705 12.0448 16.0705C13.591 16.0705 14.1803 15.0756 14.1803 13.3145C14.1803 12.032 12.2879 10.7977 10.0093 11.7189C8.19539 12.8221 7.07354 12.2342 6.74148 11.4053L6.70425 11.3048L6.66584 11.1945C6.40681 10.4195 6.47768 9.76192 10.2401 8.37282C10.6843 8.20905 11.4931 8.24333 12.1587 8.33579C13.077 8.60365 13.8394 8.92533 14.4454 9.29845C15.2216 9.77635 16.0726 10.4521 16.9958 11.3258C17.1897 11.5093 17.498 11.5006 17.6844 11.3063C17.8708 11.112 17.8648 10.8057 17.6709 10.6223C17.1672 10.1456 16.6815 9.7232 16.2135 9.35496L16.2022 9.31972C15.6722 7.88291 15.1532 6.74659 14.6414 5.90742C14.1859 5.16069 13.53 4.40007 12.6745 3.62259C12.6407 3.26685 12.738 2.94672 13.0325 2.70115ZM11.0555 4.45623L11.1449 4.38906C11.379 4.22036 11.5864 4.14089 11.9638 4.28836C12.78 5.02353 13.3934 5.7304 13.8055 6.40614C14.1218 6.9247 14.4467 7.57801 14.7796 8.365C14.0277 7.93223 13.1015 7.57331 12.0006 7.28546L11.7969 7.03358C11.7622 6.99047 11.7272 6.94687 11.6922 6.90285L11.5068 6.66594C10.8945 5.86638 10.3744 4.98322 11.0555 4.45623Z" fill="white"/>
</svg>
