<svg width="24" height="24" viewBox="0 0 24 24" fill="none" xmlns="http://www.w3.org/2000/svg">
<path fill-rule="evenodd" clip-rule="evenodd" d="M12 3C7.02944 3 3 7.02944 3 12C3 14.2047 3.79276 16.2243 5.10877 17.7892C5.19608 17.6166 5.33426 17.4675 5.51617 17.3668C7.21194 16.4274 9.39902 16 12.0007 16C13.0174 16 13.9708 16.0653 14.8563 16.2009C14.4734 16.7666 14.2033 17.415 14.0783 18.1136C13.442 18.0387 12.7502 18 12.0007 18C9.59224 18 7.78013 18.3998 6.48771 19.1149C8.01066 20.2966 9.92318 21 12 21C12.7942 21 13.5643 20.8971 14.2979 20.704C14.5386 21.3681 14.916 21.9667 15.396 22.4658C14.3265 22.8126 13.1851 23 12 23C5.92487 23 1 18.0751 1 12C1 5.92487 5.92487 1 12 1C18.0751 1 23 5.92487 23 12C23 13.1851 22.8126 14.3265 22.4658 15.396C21.9667 14.916 21.3681 14.5386 20.704 14.2979C20.8971 13.5643 21 12.7942 21 12C21 7.02944 16.9706 3 12 3ZM12 8C10.8954 8 10 8.89543 10 10C10 11.1046 10.8954 12 12 12C13.1046 12 14 11.1046 14 10C14 8.89543 13.1046 8 12 8ZM8 10C8 7.79086 9.79086 6 12 6C14.2091 6 16 7.79086 16 10C16 12.2091 14.2091 14 12 14C9.79086 14 8 12.2091 8 10ZM19 22C20.6569 22 22 20.6569 22 19C22 17.3431 20.6569 16 19 16C17.3431 16 16 17.3431 16 19C16 20.6569 17.3431 22 19 22Z" fill="white"/>
</svg>
