<svg width="24" height="24" viewBox="0 0 24 24" fill="none" xmlns="http://www.w3.org/2000/svg">
<path d="M16.7998 3.6001C15.4798 3.6001 14.3998 4.6801 14.3998 6.0001V8.4001V18.0001C14.3998 19.3201 15.4798 20.4001 16.7998 20.4001C18.1198 20.4001 19.1998 19.3201 19.1998 18.0001V6.0001C19.1998 4.6801 18.1198 3.6001 16.7998 3.6001ZM9.5998 6.0001C9.5998 4.6801 8.5198 3.6001 7.1998 3.6001C5.8798 3.6001 4.7998 4.6801 4.7998 6.0001V18.0001C4.7998 19.3201 5.8798 20.4001 7.1998 20.4001C8.5198 20.4001 9.5998 19.3201 9.5998 18.0001C9.5998 17.0256 9.5998 11.6684 9.5998 8.4001C9.5998 7.24162 9.5998 6.34558 9.5998 6.0001Z" fill="black"/>
</svg>
