<svg width="20" height="20" viewBox="0 0 20 20" fill="none" xmlns="http://www.w3.org/2000/svg">
<path d="M14.6316 5C14.6316 7.20914 12.7465 9 10.4211 9C8.09564 9 6.21053 7.20914 6.21053 5C6.21053 2.79086 8.09564 1 10.4211 1C12.7465 1 14.6316 2.79086 14.6316 5Z" fill="white"/>
<path fill-rule="evenodd" clip-rule="evenodd" d="M4.75082 18C3.23158 18 2 16.83 2 15.3867C2 14.8048 2.14988 14.2266 2.55901 13.7935C3.52498 12.7711 5.85696 11 10.4211 11C14.9851 11 17.3171 12.7711 18.2831 13.7935C18.6922 14.2266 18.8421 14.8048 18.8421 15.3867C18.8421 16.83 17.6105 18 16.0913 18H4.75082Z" fill="white"/>
</svg>
