<svg width="24" height="24" viewBox="0 0 24 24" fill="none" xmlns="http://www.w3.org/2000/svg">
<g clip-path="url(#clip0_104_4990)">
<path d="M19.05 22H18.86C14.4767 21.7302 10.3434 19.8672 7.23806 16.7619C4.13277 13.6566 2.26983 9.52325 2 5.14C1.98091 4.74765 2.042 4.35553 2.17955 3.98759C2.3171 3.61965 2.52821 3.28361 2.8 3C3.07732 2.68988 3.41611 2.44084 3.79485 2.26868C4.17359 2.09653 4.584 2.00503 5 2H6.74C7.4801 1.99523 8.19584 2.26422 8.74962 2.75524C9.3034 3.24626 9.65613 3.92465 9.74 4.66L10 7.18C10.0524 7.62992 10.0023 8.08588 9.85334 8.51365C9.70439 8.94143 9.46051 9.32993 9.14 9.65L6.46 12.65C7.71692 14.618 9.38939 16.2871 11.36 17.54L14.36 14.84C14.6797 14.5259 15.0657 14.2873 15.4897 14.142C15.9137 13.9966 16.3648 13.9481 16.81 14L19.35 14.29C20.0835 14.3762 20.7595 14.7299 21.2485 15.2834C21.7375 15.837 22.005 16.5514 22 17.29V19C21.9964 19.4177 21.9055 19.83 21.7333 20.2106C21.5611 20.5911 21.3114 20.9315 21 21.21C20.4734 21.7107 19.7766 21.993 19.05 22V22ZM13.23 18.54C15.0458 19.3813 17.0026 19.8764 19 20C19.125 20.0046 19.2497 19.984 19.3665 19.9393C19.4833 19.8946 19.59 19.8268 19.68 19.74C19.7818 19.6456 19.8628 19.5311 19.9179 19.4037C19.973 19.2763 20.0009 19.1388 20 19V17.26C20.0018 17.0143 19.913 16.7766 19.7507 16.5921C19.5884 16.4077 19.3639 16.2895 19.12 16.26L16.58 16C16.4311 15.9822 16.28 15.9981 16.1381 16.0466C15.9962 16.095 15.8669 16.1748 15.76 16.28L13.23 18.54ZM5 4C4.85877 3.99893 4.71892 4.02778 4.58965 4.08466C4.46037 4.14154 4.34462 4.22515 4.25 4.33C4.16618 4.41966 4.10093 4.52502 4.05802 4.64001C4.01512 4.755 3.99539 4.87735 4 5C4.1236 6.99739 4.61874 8.9542 5.46 10.77L7.71 8.27C7.82273 8.15968 7.90778 8.02426 7.95818 7.8748C8.00858 7.72533 8.02291 7.56606 8 7.41L7.74 4.89C7.71281 4.64428 7.59556 4.41734 7.41089 4.25299C7.22622 4.08863 6.98721 3.9985 6.74 4H5Z" fill="black"/>
</g>
<defs>
<clipPath id="clip0_104_4990">
<rect width="20" height="20" fill="white" transform="translate(2 2)"/>
</clipPath>
</defs>
</svg>
