<svg width="24" height="24" viewBox="0 0 24 24" fill="none" xmlns="http://www.w3.org/2000/svg">
<path d="M18.8658 19.8815L18.7035 19.8814C14.9593 19.651 11.4286 18.0597 8.77606 15.4072C6.12347 12.7546 4.53217 9.22386 4.30171 5.47962C4.2854 5.14455 4.33757 4.80955 4.45505 4.49531C4.57246 4.181 4.75291 3.89394 4.985 3.65174C5.22184 3.3868 5.51132 3.17404 5.83484 3.02704C6.15836 2.87989 6.50892 2.80174 6.8643 2.79744L8.35062 2.79744C8.98279 2.79344 9.5942 3.02311 10.0672 3.44267C10.5402 3.86201 10.8416 4.44156 10.9132 5.06965L11.1353 7.22227C11.18 7.60665 11.1373 7.99608 11.01 8.36136C10.8828 8.72686 10.6745 9.05869 10.4006 9.33208L8.11145 11.8947C9.18506 13.5759 10.6137 15.0015 12.297 16.0717L14.8596 13.7654C15.1326 13.4971 15.4624 13.2933 15.8245 13.1692C16.1867 13.0451 16.5721 13.0036 16.9524 13.048L19.122 13.2957C19.7486 13.3692 20.3261 13.6713 20.7437 14.1442C21.1614 14.617 21.39 15.2273 21.3856 15.8583L21.3857 17.3189C21.3826 17.6757 21.305 18.0279 21.1579 18.353C21.0108 18.678 20.7974 18.9689 20.5315 19.2067C20.0817 19.6344 19.4864 19.8755 18.8658 19.8815Z" fill="black"/>
</svg>
