<svg width="24" height="24" viewBox="0 0 24 24" fill="none" xmlns="http://www.w3.org/2000/svg">
<path fill-rule="evenodd" clip-rule="evenodd" d="M8.5505 2L8.51949 2H8.51949C8.06987 1.99999 7.68835 1.99998 7.39076 2.01745C7.11615 2.03356 6.74468 2.06886 6.41791 2.24022C5.47819 2.73303 5.05374 3.84942 5.42869 4.84206C5.55907 5.18723 5.81327 5.4604 6.00781 5.65489C6.21863 5.86565 6.50378 6.11911 6.83983 6.41782L6.83985 6.41783L6.86302 6.43842L7.78521 7.25814C7.86712 7.33096 7.90854 7.36798 7.93779 7.39598L7.94056 7.39865L7.94023 7.40249C7.9367 7.44283 7.92997 7.49797 7.91637 7.60672L7.65266 9.71641C7.60802 10.0736 7.59628 10.144 7.57933 10.2024C7.53504 10.355 7.45502 10.4949 7.3459 10.6104C7.30415 10.6546 7.24933 10.7004 6.96404 10.9199L6.28415 11.4429L6.25838 11.4627L6.25836 11.4627C5.71356 11.8818 5.27009 12.2229 4.94579 12.503C4.64603 12.762 4.30288 13.0856 4.12534 13.4853C3.59612 14.6771 4.07172 16.0754 5.21781 16.6973C5.60228 16.906 6.07155 16.9532 6.46703 16.9757C6.89487 17 7.45433 17 8.14161 17H8.1417H8.17425H11V22C11 22.5523 11.4477 23 12 23C12.5523 23 13 22.5523 13 22V17H15.8257H15.8583H15.8584C16.5457 17 17.1051 17 17.533 16.9757C17.9284 16.9532 18.3977 16.906 18.7822 16.6973C19.9283 16.0754 20.4039 14.6771 19.8746 13.4853C19.6971 13.0856 19.354 12.762 19.0542 12.503C18.7299 12.2229 18.2865 11.8818 17.7417 11.4628L17.7158 11.4429L17.0359 10.9199C16.7507 10.7004 16.6958 10.6546 16.6541 10.6104C16.545 10.4949 16.465 10.355 16.4207 10.2024C16.4037 10.144 16.392 10.0736 16.3473 9.71641L16.0836 7.60672C16.07 7.49797 16.0633 7.44283 16.0598 7.40249L16.0594 7.39865L16.0622 7.39598C16.0915 7.36798 16.1329 7.33096 16.2148 7.25814L17.137 6.43842L17.1602 6.41779C17.4962 6.1191 17.7814 5.86564 17.9922 5.65489C18.1867 5.4604 18.4409 5.18723 18.5713 4.84206C18.9463 3.84942 18.5218 2.73303 17.5821 2.24022C17.2553 2.06886 16.8838 2.03356 16.6092 2.01745C16.3116 1.99998 15.9301 1.99999 15.4805 2L15.4495 2H8.5505ZM12.0014 15H15.8257C16.5534 15 17.0554 14.9996 17.4194 14.9789C17.6847 14.9638 17.7994 14.9398 17.8327 14.9329C17.8392 14.9315 17.8426 14.9308 17.8434 14.9309C18.0567 14.8056 18.1462 14.5425 18.0536 14.3131C18.0528 14.3127 18.0506 14.31 18.0463 14.305C18.0241 14.2792 17.9478 14.1902 17.7468 14.0165C17.4709 13.7782 17.0732 13.4718 16.4964 13.0281L15.8165 12.5051L15.7722 12.471L15.7721 12.471C15.5555 12.3046 15.365 12.1582 15.2002 11.9838C14.8729 11.6373 14.6328 11.2178 14.4999 10.76C14.4331 10.5296 14.4034 10.2911 14.3697 10.02L14.3628 9.96448L14.0991 7.85479L14.0936 7.812V7.81199C14.0736 7.65465 14.0486 7.45763 14.0623 7.25935C14.0894 6.87014 14.2296 6.49733 14.4659 6.18684C14.5863 6.02867 14.735 5.89705 14.8538 5.79194L14.8861 5.76333L15.8082 4.9436C16.1738 4.6187 16.4141 4.40454 16.5782 4.24048C16.647 4.1717 16.6863 4.12685 16.7068 4.10235C16.7074 4.07629 16.6977 4.05089 16.6799 4.03181C16.6484 4.0271 16.5892 4.01971 16.4921 4.01401C16.2604 4.00042 15.9385 4 15.4495 4H8.5505C8.06146 4 7.73958 4.00042 7.50793 4.01401C7.41081 4.01971 7.35163 4.0271 7.32005 4.03181C7.30227 4.05089 7.29261 4.07629 7.29322 4.10236C7.3137 4.12686 7.35302 4.1717 7.42182 4.24048C7.58593 4.40454 7.82623 4.6187 8.19174 4.9436L9.11393 5.76333L9.14622 5.79194C9.265 5.89705 9.41373 6.02867 9.53409 6.18684C9.77035 6.49733 9.91063 6.87014 9.93766 7.25935C9.95144 7.45763 9.92636 7.65465 9.90634 7.81199L9.90093 7.85479L9.63722 9.96448L9.6303 10.02C9.59659 10.2911 9.56693 10.5296 9.50005 10.76C9.36717 11.2178 9.12711 11.6373 8.79977 11.9838C8.63502 12.1582 8.44443 12.3046 8.22782 12.471L8.18346 12.5051L7.50357 13.0281C6.92681 13.4718 6.52914 13.7782 6.25322 14.0165C6.05219 14.1902 5.97586 14.2792 5.95372 14.305C5.94941 14.31 5.94715 14.3127 5.94643 14.3131C5.85383 14.5425 5.94332 14.8056 6.15657 14.9309C6.15739 14.9308 6.16078 14.9315 6.16727 14.9329C6.20057 14.9398 6.31533 14.9638 6.58055 14.9789C6.94457 14.9996 7.44659 15 8.17425 15H11.9986C11.9991 15 11.9995 15 12 15C12.0005 15 12.0009 15 12.0014 15Z" fill="black"/>
</svg>
