<svg width="24" height="24" viewBox="0 0 24 24" fill="none" xmlns="http://www.w3.org/2000/svg">
<path d="M16.0928 11.5279L16.4315 11.283C17.1092 10.8085 17.2732 9.87783 16.7987 9.20013L15.9227 7.949C15.4481 7.2713 14.5175 7.10721 13.8398 7.58174L13.4947 7.82856L13.4945 7.83394L11.7492 9.08961L8.40985 8.59218C8.23259 8.56092 8.0397 8.6183 7.8833 8.72781C7.51839 8.98332 7.44025 9.42649 7.69576 9.7914L9.55827 12.4737C7.48273 14.1238 6.29682 15.2164 6.09026 15.6702C6.05266 15.7529 6.04751 15.8143 6.07538 15.8541C6.11227 15.9068 6.19479 15.9227 6.32372 15.9021C6.83282 15.8205 8.06527 15.1682 10.0661 13.9532L10.4247 13.7214L12.3213 16.4528C12.4308 16.6092 12.618 16.6879 12.7885 16.7058C13.2226 16.7488 13.5934 16.4943 13.6637 16.0955L14.3384 12.7874L16.0928 11.5279Z" fill="black"/>
</svg>
