<svg xmlns="http://www.w3.org/2000/svg" width="24" height="24" viewBox="0 0 24 24">
  <g fill="none" fill-rule="evenodd">
    <polygon points="0 0 24 0 24 24 0 24"></polygon>
    <path fill="#000" fill-rule="nonzero" d="M15.5076746,5.43106151 C15.6360364,5.50807857 15.7544683,5.60054738 15.8603181,5.70639721 L18.293754,8.13983316 C19.0087487,8.85482776 19.0087487,10.0140631 18.293754,10.7290577 C18.1879042,10.8349075 18.0694723,10.9273763 17.9411106,11.0043934 L16.0271139,12.1527914 C16.2818698,13.6727594 15.6636956,15.1719619 14.2486077,16.5870499 C13.9244725,16.911185 13.3989456,16.911185 13.0748104,16.5870499 L10.83,14.3428746 L7.58689863,17.5868986 C7.28977473,17.8840225 6.8234258,17.9087829 6.49809773,17.6611796 L6.41310137,17.5868986 C6.11597747,17.2897747 6.09121715,16.8234258 6.3388204,16.4980977 L6.41310137,16.4131014 L9.657,13.1688746 L7.41310137,10.9253408 C7.08896621,10.6012057 7.08896621,10.0756787 7.41310137,9.75154358 C8.75743492,8.40721003 10.1776819,7.78209116 11.6195283,7.94136145 L11.8473599,7.97303736 L12.9957579,6.05904069 C13.5159929,5.19198237 14.6406163,4.91082651 15.5076746,5.43106151 Z"></path>
  </g>
</svg>