<svg width="24" height="24" viewBox="0 0 24 24" fill="none" xmlns="http://www.w3.org/2000/svg">
<path fill-rule="evenodd" clip-rule="evenodd" d="M1 6C1 4.34315 2.34315 3 4 3H20C21.6569 3 23 4.34315 23 6V18C23 19.6569 21.6569 21 20 21H4C2.34315 21 1 19.6569 1 18V6ZM4 5C3.44772 5 3 5.44772 3 6V18C3 18.5523 3.44772 19 4 19H20C20.5523 19 21 18.5523 21 18V6C21 5.44772 20.5523 5 20 5H4Z" fill="white"/>
<path d="M11 12C11 11.4477 11.4477 11 12 11H18C18.5523 11 19 11.4477 19 12V16C19 16.5523 18.5523 17 18 17H12C11.4477 17 11 16.5523 11 16V12Z" fill="white"/>
</svg>
