<svg width="24" height="24" viewBox="0 0 24 24" fill="none" xmlns="http://www.w3.org/2000/svg">
<path d="M7.2002 5.78225V11.9999C7.2002 12.9479 7.7522 13.1999 9.0002 13.1999C12.7572 13.2363 15.5571 13.2363 17.4002 13.1999C17.7385 13.1932 18.2104 13.1286 18.8162 13.0062C19.5602 12.5382 19.5602 11.4582 18.8162 10.9782L9.04819 4.77425C8.24419 4.25825 7.2002 4.83425 7.2002 5.78225V5.78225ZM7.2002 11.9999V18.2142C7.2002 19.1622 8.24419 19.7382 9.04819 19.2222L18.8162 13.0062C19.5602 12.5382 19.5602 11.4582 18.8162 10.9782C18.1891 10.8589 17.7171 10.7994 17.4002 10.7999C15.5464 10.8025 12.7464 10.8025 9.0002 10.7999C7.7522 10.7999 7.2002 11.0519 7.2002 11.9999V11.9999Z" fill="black"/>
</svg>
