<svg fill="none" height="24" viewBox="0 0 24 24" width="24" xmlns="http://www.w3.org/2000/svg"><path clip-rule="evenodd" d="m21.0735 6.18073c.4524.31672.5624.94025.2457 1.3927l-3.0985 4.42657 3.0985 4.4265c.3167.4525.2067 1.076-.2457 1.3927-.4525.3167-1.076.2067-1.3927-.2458l-2.6808-3.8296-2.6808 3.8296c-.3167.4525-.9402.5625-1.3927.2458-.4524-.3167-.5624-.9402-.2457-1.3927l3.0985-4.4265-3.0985-4.42657c-.3167-.45245-.2067-1.07598.2457-1.3927.4525-.31671 1.076-.20668 1.3927.24577l2.6808 3.8297 2.6808-3.8297c.3167-.45245.9402-.56248 1.3927-.24577zm-17.5735-.18075c-.55228 0-1 .44771-1 1 0 .55228.44772 1 1 1h4v3.00002h-3c-1.10457 0-2 .8954-2 2v3c0 1.1045.89543 2 2 2h4c.55228 0 1-.4477 1-1s-.44772-1-1-1h-4v-3h3c1.10457 0 2-.8955 2-2v-3.00002c0-1.10457-.89543-2-2-2z" fill="#000" fill-rule="evenodd"/></svg>