<svg fill="none" height="24" viewBox="0 0 24 24" width="24" xmlns="http://www.w3.org/2000/svg"><path clip-rule="evenodd" d="m3 7c0-.55228.44772-1 1-1h1.5c1.10457 0 2 .89543 2 2v9c0 .5523-.44772 1-1 1s-1-.4477-1-1v-9h-1.5c-.55228 0-1-.44772-1-1zm17.4961 0c0-.55228-.4477-1-1-1h-3.9961c-1.1046 0-2 .89543-2 2v3c0 1.1046.8954 2 2 2h2.9961v3h-3.9961c-.5523 0-1 .4477-1 1s.4477 1 1 1h3.9961c1.1045 0 2-.8954 2-2v-3c0-1.1046-.8955-2-2-2h-2.9961v-3h3.9961c.5523 0 1-.44772 1-1zm-9.9961 11c.8284 0 1.5-.6716 1.5-1.5s-.6716-1.5-1.5-1.5c-.82843 0-1.5.6716-1.5 1.5s.67157 1.5 1.5 1.5z" fill="#000" fill-rule="evenodd"/></svg>