<svg width="240" height="240" viewBox="0 0 240 240" fill="none" xmlns="http://www.w3.org/2000/svg">
<path d="M20.7704 164.104C20.7704 152.641 30.0626 143.349 41.5252 143.349H72.6573C84.1198 143.349 93.412 152.641 93.412 164.104V195.236C93.412 206.698 84.1198 215.991 72.6572 215.991H41.5252C30.0626 215.991 20.7704 206.698 20.7704 195.236V164.104Z" fill="black"/>
<path d="M10.3931 55.1415C10.3931 43.679 19.6853 34.3868 31.1478 34.3868H76.8082C88.2707 34.3868 97.5629 43.679 97.5629 55.1415V100.802C97.5629 112.264 88.2707 121.557 76.8082 121.557H31.1478C19.6853 121.557 10.3931 112.264 10.3931 100.802V55.1415Z" fill="black"/>
<path d="M116.243 166.179C116.243 154.717 125.535 145.425 136.997 145.425H182.658C194.12 145.425 203.412 154.717 203.412 166.179V211.84C203.412 223.302 194.12 232.594 182.658 232.594H136.997C125.535 232.594 116.243 223.302 116.243 211.84V166.179Z" fill="black"/>
<path fill-rule="evenodd" clip-rule="evenodd" d="M209.639 7.40555C221.101 7.40565 230.394 16.698 230.394 28.1604V100.802C230.394 112.264 221.101 121.557 209.639 121.557H136.997C125.535 121.557 116.243 112.264 116.243 100.802V28.1604C116.243 16.6979 125.535 7.40555 136.997 7.40555H209.639ZM208.97 37.5598C205.564 34.4903 200.314 34.7633 197.245 38.1692L165.454 73.4427L152.431 59.3636C149.318 55.9977 144.064 55.7922 140.699 58.9055C137.333 62.019 137.128 67.2722 140.242 70.638L159.44 91.3929C161.024 93.1051 163.256 94.0719 165.588 94.0569C167.921 94.0418 170.14 93.0454 171.702 91.3128L209.579 49.2845C212.648 45.8786 212.376 40.6294 208.97 37.5598Z" fill="black"/>
</svg>
