<svg width="24" height="24" viewBox="0 0 24 24" fill="none" xmlns="http://www.w3.org/2000/svg">
<path fill-rule="evenodd" clip-rule="evenodd" d="M12.5629 1.13666C9.84342 0.657149 7.25013 2.47299 6.77061 5.19246L6.59696 6.17727C6.50106 6.72116 6.86423 7.23982 7.40812 7.33573C7.95202 7.43163 8.47068 7.06846 8.56658 6.52457L8.74023 5.53976C9.02794 3.90808 10.5839 2.81857 12.2156 3.10628C13.8473 3.39399 14.9368 4.94997 14.6491 6.58165L14.3009 8.55617C13.712 8.60558 12.9716 8.73614 11.943 8.91752L9.97335 9.26481L9.97334 9.26482C8.1379 9.58845 7.22017 9.75027 6.54913 10.1778C5.6544 10.7478 5.02276 11.6499 4.79314 12.6856C4.62093 13.4624 4.78275 14.3801 5.10639 16.2155C5.43003 18.051 5.59185 18.9687 6.01936 19.6398C6.58936 20.5345 7.49144 21.1661 8.52716 21.3958C9.30395 21.568 10.2217 21.4061 12.0571 21.0825L14.0267 20.7352C15.8622 20.4116 16.7799 20.2498 17.451 19.8222C18.3457 19.2522 18.9773 18.3502 19.207 17.3144C19.3792 16.5377 19.2173 15.6199 18.8937 13.7845C18.5701 11.949 18.4082 11.0313 17.9807 10.3603C17.564 9.70615 16.9698 9.19266 16.2757 8.87406L16.6187 6.92894C17.0982 4.20947 15.2824 1.61618 12.5629 1.13666Z" fill="black"/>
</svg>
