<svg width="32" height="32" viewBox="0 0 32 32" fill="none" xmlns="http://www.w3.org/2000/svg">
<path d="M16.6649 1.60864C17.1431 1.13045 17.9184 1.13045 18.3966 1.60864L21.4578 4.66983C21.936 5.14802 21.936 5.92332 21.4578 6.4015C20.9796 6.87969 20.2043 6.87969 19.7261 6.4015L16.6649 3.34031C16.1867 2.86212 16.1867 2.08683 16.6649 1.60864Z" fill="white"/>
<path fill-rule="evenodd" clip-rule="evenodd" d="M28.2449 7.37238C28.9212 7.37238 29.4694 7.9206 29.4694 8.59686C29.4694 9.27312 28.9212 9.82134 28.2449 9.82134H26.381C26.1911 13.9991 25.0037 17.3634 22.6592 19.7404C24.4866 20.6573 26.8355 21.1477 29.7755 21.1477C30.4518 21.1477 31 21.696 31 22.3722C31 23.0485 30.4518 23.5967 29.7755 23.5967C26.1082 23.5967 23.0119 22.8929 20.592 21.3884C19.058 22.342 17.2523 22.974 15.2017 23.3089L17.1335 28.0311C17.3895 28.657 17.0897 29.372 16.4638 29.628C15.8379 29.8841 15.1229 29.5842 14.8669 28.9583L12.6735 23.5968H5.55146L3.35811 28.9583C3.10206 29.5842 2.38708 29.8841 1.76117 29.628C1.13526 29.372 0.835434 28.657 1.09149 28.0311L7.97917 11.1945C8.16743 10.7343 8.61527 10.4337 9.11248 10.4337C9.60969 10.4337 10.0575 10.7343 10.2458 11.1945L14.2468 20.9748C15.9092 20.758 17.3287 20.3406 18.5247 19.7404C16.1802 17.3634 14.9928 13.9991 14.8029 9.82134H12.939C12.2627 9.82134 11.7145 9.27312 11.7145 8.59686C11.7145 7.9206 12.2627 7.37238 12.939 7.37238H28.2449ZM11.6711 21.1464L9.11248 14.8921L6.55331 21.1478H11.3931C11.3982 21.1478 11.4033 21.1477 11.4084 21.1477C11.4965 21.1477 11.584 21.1473 11.6711 21.1464ZM17.2545 9.82134C17.4426 13.5773 18.514 16.2667 20.3098 18.0625C20.4015 18.1542 20.4956 18.2441 20.592 18.332C20.6883 18.2441 20.7824 18.1542 20.8741 18.0625C22.6699 16.2667 23.7413 13.5773 23.9294 9.82134H17.2545Z" fill="white"/>
</svg>
