<svg width="32" height="32" viewBox="0 0 32 32" fill="none" xmlns="http://www.w3.org/2000/svg">
<path d="M22.9571 20.7788C22.5403 19.7913 18.7325 17.1204 17.6305 16.9677C16.9476 16.873 15.4594 18.7692 15.0944 20.9264C14.8705 22.2501 15.2005 23.5736 16.1009 24.3774C18.4683 26.4913 23.374 21.7664 22.9571 20.7788Z" fill="white"/>
<path d="M28.7156 4.13155C26.3382 3.32697 20.7166 6.14769 19.1585 14.4011C19.1585 14.8021 22.3998 17.1253 24.6329 17.9276C25.773 18.3372 29.9616 14.0908 30.8567 9.83943C31.39 7.30663 29.9309 4.54284 28.7156 4.13155Z" fill="white"/>
<path d="M9.10841 23.5732C8.45468 23.0141 3.57333 21.5911 2.63738 22.041C1.70143 22.4909 1.34732 28.2352 4.81571 29.0036C8.28409 29.772 9.76215 24.1322 9.10841 23.5732Z" fill="white"/>
<path d="M3.40464 18.8472C4.05837 19.4063 9.04948 21.1333 9.98543 20.6834C10.9214 20.2335 16.8934 7.88296 10.7837 6.59877C8.85084 6.1925 5.07433 8.70942 3.93343 12.0112C2.82108 15.2304 3.08191 18.5713 3.40464 18.8472Z" fill="white"/>
</svg>
