<svg width="32" height="32" viewBox="0 0 32 32" fill="none" xmlns="http://www.w3.org/2000/svg">
<path fill-rule="evenodd" clip-rule="evenodd" d="M3.76765 6.26411C3.14502 7.48609 3.14502 9.08575 3.14502 12.2851V20.9417C3.14502 22.9861 3.14502 24.0083 3.40368 24.8384C3.9622 26.6307 5.36571 28.0342 7.15805 28.5927C7.98812 28.8514 9.0103 28.8514 11.0547 28.8514C13.3317 28.8514 15.0451 28.8514 16.4215 28.7808C16.5582 28.7582 16.6525 28.7303 16.7278 28.6991C17.1949 28.5056 17.5661 28.1345 17.7596 27.6673C17.8118 27.5413 17.8556 27.3573 17.8797 26.9997C17.9042 26.6346 17.9047 26.1638 17.9047 25.4735V25.4373C17.9047 24.5378 17.9047 23.7933 17.9352 23.172C17.3233 23.3086 16.6764 23.3745 15.9982 23.3745C13.9513 23.3745 12.3312 22.5551 11.2444 21.7647C10.6993 21.3682 10.2778 20.9718 9.99047 20.6719C9.84639 20.5216 9.73487 20.3943 9.65721 20.3018C9.61836 20.2555 9.58788 20.2178 9.56596 20.1901L9.53948 20.1562L9.53106 20.1452L9.52807 20.1413L9.52687 20.1397C9.52663 20.1394 9.52588 20.1384 10.2856 19.5685L11.0454 18.9987C11.0456 18.999 11.0454 18.9987 10.2856 19.5685L9.52588 20.1384C9.21117 19.7188 9.29621 19.1235 9.71582 18.8088C10.1352 18.4942 10.7306 18.5797 11.0454 18.9987L11.0443 18.9973L11.0552 19.0111C11.0664 19.0253 11.0854 19.0489 11.1121 19.0807C11.1656 19.1444 11.2493 19.2403 11.3618 19.3577C11.5877 19.5934 11.925 19.9111 12.3616 20.2286C13.2386 20.8664 14.4747 21.4751 15.9982 21.4751C16.8981 21.4751 17.6705 21.3335 18.3311 21.0701C18.3389 21.0517 18.3469 21.0333 18.355 21.015C18.8814 19.8294 19.8293 18.8814 21.0149 18.3551C21.5736 18.107 22.1755 18.0029 22.8697 17.9533C23.548 17.9048 24.3869 17.9048 25.4372 17.9048H25.4734C26.1638 17.9048 26.6345 17.9043 26.9996 17.8797C27.3573 17.8557 27.5413 17.8118 27.6673 17.7596C28.1344 17.5661 28.5056 17.195 28.6991 16.7278C28.7303 16.6525 28.7582 16.5581 28.7808 16.4212C28.8514 15.0448 28.8514 13.3315 28.8514 11.0547C28.8514 9.0103 28.8514 7.98812 28.5927 7.15805C28.0342 5.36571 26.6307 3.9622 24.8384 3.40368C24.0083 3.14502 22.9861 3.14502 20.9417 3.14502H12.2851C9.08575 3.14502 7.48609 3.14502 6.26411 3.76765C5.18923 4.31533 4.31533 5.18923 3.76765 6.26411ZM13.856 12.8742C13.856 14.1066 13.0567 15.1056 12.0708 15.1056C11.0849 15.1056 10.2856 14.1066 10.2856 12.8742C10.2856 11.6418 11.0849 10.6427 12.0708 10.6427C13.0567 10.6427 13.856 11.6418 13.856 12.8742ZM21.7107 12.8742C21.7107 14.1066 20.9114 15.1056 19.9255 15.1056C18.9396 15.1056 18.1404 14.1066 18.1404 12.8742C18.1404 11.6418 18.9396 10.6427 19.9255 10.6427C20.9114 10.6427 21.7107 11.6418 21.7107 12.8742Z" fill="white"/>
<path d="M28.3546 19.5305C27.9676 19.684 27.5632 19.7456 27.127 19.7749C26.6906 19.8042 26.1558 19.8042 25.5058 19.8042H25.4734C24.3787 19.8042 23.6077 19.8048 23.0052 19.8478C22.4109 19.8903 22.0572 19.9705 21.7857 20.0911C21.0303 20.4264 20.4264 21.0304 20.091 21.7857C19.9705 22.0572 19.8903 22.4109 19.8478 23.0052C19.8047 23.6078 19.8041 24.3788 19.8041 25.4735V25.5058C19.8042 26.1558 19.8042 26.6907 19.7748 27.1271C19.7455 27.5632 19.6839 27.9677 19.5305 28.3546C19.629 28.3277 19.7261 28.2993 19.8221 28.2694C23.8548 27.0127 27.0127 23.8548 28.2694 19.8221C28.2993 19.7261 28.3277 19.629 28.3546 19.5305Z" fill="white"/>
</svg>
