<svg width="24" height="24" viewBox="0 0 24 24" fill="none" xmlns="http://www.w3.org/2000/svg">
<path fill-rule="evenodd" clip-rule="evenodd" d="M12 2C9.23858 2 7 4.23858 7 7V9.53588C6.24163 9.9737 5.64327 10.6514 5.30448 11.4693C5 12.2044 5 13.1362 5 15C5 16.8638 5 17.7956 5.30448 18.5307C5.71046 19.5108 6.48915 20.2895 7.46927 20.6955C8.20435 21 9.13623 21 11 21H13C14.8638 21 15.7956 21 16.5307 20.6955C17.5108 20.2895 18.2895 19.5108 18.6955 18.5307C19 17.7956 19 16.8638 19 15C19 13.1362 19 12.2044 18.6955 11.4693C18.3567 10.6514 17.7584 9.9737 17 9.53588V7C17 4.23858 14.7614 2 12 2ZM15 9.02687V7C15 5.34315 13.6569 4 12 4C10.3431 4 9 5.34315 9 7V9.02687C9.52521 9 10.1703 9 11 9H13C13.8297 9 14.4748 9 15 9.02687Z" fill="black"/>
</svg>
