<svg width="32" height="32" viewBox="0 0 32 32" fill="none" xmlns="http://www.w3.org/2000/svg">
<path fill-rule="evenodd" clip-rule="evenodd" d="M21.4923 5.80633L24.3289 8.52139C23.6958 8.38085 23.0433 8.308 22.3817 8.308H10.93C7.16525 8.308 4.11328 11.36 4.11328 15.1248V22.2733C3.32934 21.6383 2.76212 20.7284 2.57318 19.6569L1.06663 11.1128C0.650606 8.75343 2.22601 6.50352 4.58539 6.0875L15.8631 4.09893C17.9043 3.73901 19.9949 4.37311 21.4923 5.80633ZM6.59218 23.2351V23.8006C6.59218 26.1964 8.53434 28.1386 10.9301 28.1386H22.3818C24.4545 28.1386 26.4033 27.1511 27.629 25.4796L30.1602 22.028C31.2799 20.5011 31.2799 18.4243 30.1602 16.8974L27.629 13.4458C26.4033 11.7743 24.4545 10.7868 22.3818 10.7868H10.9301C10.6096 10.7868 10.2972 10.8216 9.99642 10.8875C8.04937 11.3146 6.59211 13.0495 6.59211 15.1248L6.59218 23.2351C6.59215 23.2351 6.5922 23.2351 6.59218 23.2351ZM26.5469 19.4627C26.5469 20.6606 25.5758 21.6316 24.3779 21.6316C23.18 21.6316 22.209 20.6606 22.209 19.4627C22.209 18.2648 23.18 17.2937 24.3779 17.2937C25.5758 17.2937 26.5469 18.2648 26.5469 19.4627Z" fill="white"/>
</svg>
