<svg width="32" height="32" viewBox="0 0 32 32" fill="none" xmlns="http://www.w3.org/2000/svg">
<path d="M9.35549 20.6259H12.8824C13.3275 20.6259 13.55 20.6259 13.7659 20.6493C14.3607 20.7138 14.9335 20.9103 15.4426 21.2246C15.6274 21.3386 15.8031 21.4753 16.1544 21.7485L19.8461 24.6198C22.065 26.3456 23.1744 27.2085 24.1059 27.2006C24.9162 27.1937 25.6798 26.8202 26.1827 26.1849C26.7608 25.4545 26.7608 24.049 26.7608 21.2379V9.30281C26.7608 6.49179 26.7608 5.08628 26.1827 4.35589C25.6798 3.7205 24.9162 3.34704 24.1059 3.34014C23.1744 3.33222 22.065 4.19511 19.8461 5.92089L16.1544 8.79224C15.8031 9.06549 15.6274 9.20212 15.4426 9.31619C14.9335 9.63042 14.3607 9.82696 13.7659 9.89146C13.55 9.91488 13.3275 9.91488 12.8824 9.91488H9.35549C6.39774 9.91488 4 12.3126 4 15.2704C4 18.2281 6.39774 20.6259 9.35549 20.6259Z" fill="white"/>
<path d="M9.48153 23.1774C9.35549 23.447 9.35549 23.7947 9.35549 24.4902V25.9814C9.35549 27.4602 10.5544 28.6591 12.0332 28.6591C13.5121 28.6591 14.711 27.4602 14.711 25.9814V24.4902C14.711 23.7947 14.711 23.447 14.585 23.1774C14.452 22.8932 14.2235 22.6646 13.9392 22.5317C13.6697 22.4057 13.322 22.4057 12.6265 22.4057H11.44C10.7445 22.4057 10.3968 22.4057 10.1273 22.5317C9.843 22.6646 9.61445 22.8932 9.48153 23.1774Z" fill="white"/>
</svg>
