<svg width="32" height="32" viewBox="0 0 32 32" fill="none" xmlns="http://www.w3.org/2000/svg">
<path fill-rule="evenodd" clip-rule="evenodd" d="M2.65991 12.5331V25.5158C2.65991 27.1313 2.65991 27.939 2.97936 28.313C3.25654 28.6376 3.67234 28.8098 4.09782 28.7763C4.58819 28.7377 5.15934 28.1666 6.30165 27.0243L8.07677 25.2491C8.53796 24.788 8.76856 24.5574 9.03766 24.3924C9.27625 24.2462 9.53636 24.1385 9.80845 24.0732C10.1153 23.9995 10.4415 23.9995 11.0937 23.9995H20.7928C23.7797 23.9995 25.2731 23.9995 26.4139 23.4182C27.4174 22.9069 28.2333 22.091 28.7446 21.0875C29.3259 19.9467 29.3259 18.4533 29.3259 15.4664V12.5331C29.3259 9.54625 29.3259 8.05281 28.7446 6.91198C28.2333 5.90847 27.4174 5.0926 26.4139 4.58128C25.2731 4 23.7797 4 20.7928 4H11.193C8.20616 4 6.71272 4 5.57189 4.58128C4.56838 5.0926 3.75251 5.90847 3.2412 6.91198C2.65991 8.05281 2.65991 9.54625 2.65991 12.5331ZM17.7729 10.6699C17.7729 9.68595 16.9746 8.88867 15.9907 8.88991C15.0085 8.89115 14.213 9.6877 14.213 10.6699V12.0002C14.3524 11.9998 14.5009 11.9998 14.6596 11.9998H17.3262C17.4849 11.9998 17.6334 11.9998 17.7729 12.0002V10.6699ZM12.4397 10.6699V12.1534C12.3938 12.1684 12.3493 12.1848 12.3058 12.2028C11.6525 12.4734 11.1333 12.9926 10.8627 13.6459C10.6597 14.136 10.6597 14.7572 10.6597 15.9997C10.6597 17.2422 10.6597 17.8634 10.8627 18.3535C11.1333 19.0069 11.6525 19.526 12.3058 19.7966C12.7959 19.9996 13.4171 19.9996 14.6596 19.9996H17.3262C18.5687 19.9996 19.1899 19.9996 19.68 19.7966C20.3334 19.526 20.8525 19.0069 21.1231 18.3535C21.3261 17.8634 21.3261 17.2422 21.3261 15.9997C21.3261 14.7572 21.3261 14.136 21.1231 13.6459C20.8525 12.9926 20.3334 12.4734 19.68 12.2028C19.6365 12.1848 19.592 12.1684 19.5462 12.1534V10.6699C19.5462 8.70572 17.9526 7.11415 15.9884 7.11662C14.0278 7.11909 12.4397 8.70921 12.4397 10.6699Z" fill="white"/>
</svg>
