<?xml version="1.0" encoding="UTF-8"?>
<svg width="72px" height="72px" viewBox="0 0 72 72" version="1.1" xmlns="http://www.w3.org/2000/svg" xmlns:xlink="http://www.w3.org/1999/xlink">
    <title>Premium / premium_colors</title>
    <g id="Premium-/-premium_colors" stroke="none" stroke-width="1" fill="none" fill-rule="evenodd">
        <path d="M21.8566626,31.1772725 L43.9437542,52.8477012 C44.6663042,53.5566206 44.6663042,54.7060061 43.9437542,55.4149255 L41.2137515,58.0934279 C40.4912015,58.8023473 39.3197165,58.8023473 38.5971665,58.0934279 C35.0099569,54.6242423 32.3129435,52.0030378 30.5061262,50.2298144 C30.1682845,49.8982541 29.1385091,50.1065818 28.8209266,50.5523314 C28.6474179,50.7958633 26.3431021,53.7954161 21.9079793,59.5509898 C19.3681895,63.1561455 15.6509236,62.4957103 13.5737825,60.4577536 C11.5337333,58.4561889 11.7428665,55.0401902 15.2072652,52.4189429 C20.5922054,48.1870547 23.4882994,45.9205087 23.8955473,45.619305 C24.3142571,45.309624 24.8111408,44.8891649 24.4779991,44.5623777 C22.8434722,42.959028 20.1874975,40.2459019 16.510075,36.4229993 C15.787525,35.7140799 15.787525,34.5646944 16.510075,33.855775 L19.2400776,31.1772725 C19.9626276,30.4683531 21.1341126,30.4683531 21.8566626,31.1772725 Z M41.9680302,6.07273383 C42.3283884,6.17660391 42.6544141,6.37495071 42.9094061,6.64998203 L55.031123,19.4554718 C55.4280766,19.8748172 55.5185101,20.4984502 55.2570213,21.0132767 L50.7351511,29.9160651 C50.5440566,30.2922974 50.6941405,30.7522066 51.0703728,30.9433011 C51.30465,31.0622943 51.5836351,31.052556 51.8090451,30.917517 L59.5482546,26.2810962 C60.127965,25.9338023 60.8744854,26.0625416 61.3043865,26.5839457 L63.3731981,29.093097 C64.3101949,30.2295305 64.1802986,31.9035831 63.079212,32.8818737 L46.3258812,47.7668297 L27.0084512,28.7452265 C30.1729628,25.5183591 32.9004076,21.8358686 35.1907857,17.6977551 C36.9214303,14.5709335 38.3127364,11.175324 39.364704,7.51092651 C39.6865665,6.39498205 40.8520321,5.75105725 41.9680302,6.07273383 Z" id="Combined-Shape" fill="#FFFFFF"></path>
    </g>
</svg>