<svg width="32" height="32" viewBox="0 0 32 32" fill="none" xmlns="http://www.w3.org/2000/svg">
<path d="M2.61011 26.9147V10.4C2.61011 8.15979 2.61011 7.03969 3.04608 6.18404C3.42957 5.43139 4.0415 4.81947 4.79415 4.43597C5.64979 4 6.7699 4 9.01011 4H22.9876C25.2278 4 26.3479 4 27.2035 4.43597C27.9562 4.81947 28.5681 5.43139 28.9516 6.18404C29.3876 7.03969 29.3876 8.15979 29.3876 10.4V17.6831C29.3876 19.9233 29.3876 21.0434 28.9516 21.8991C28.5681 22.6517 27.9562 23.2636 27.2035 23.6471C26.3479 24.0831 25.2278 24.0831 22.9876 24.0831H10.63C10.1408 24.0831 9.89619 24.0831 9.66601 24.1384C9.46194 24.1874 9.26685 24.2682 9.0879 24.3778C8.88607 24.5015 8.71312 24.6745 8.36723 25.0203L8.36722 25.0204L5.34148 28.0461C4.48473 28.9029 4.05635 29.3312 3.68857 29.3602C3.36945 29.3853 3.05759 29.2561 2.8497 29.0127C2.61011 28.7322 2.61011 28.1264 2.61011 26.9147Z" fill="white"/>
</svg>
