<svg width="32" height="32" viewBox="0 0 32 32" fill="none" xmlns="http://www.w3.org/2000/svg">
<path d="M12.1835 3.14505C12.8653 3.14505 13.3172 3.14569 13.6659 3.16948C14.004 3.19254 14.1575 3.23334 14.2515 3.27226C14.661 3.44188 14.9863 3.76723 15.1559 4.17673C15.1949 4.27069 15.2357 4.42424 15.2587 4.76228C15.2825 5.11096 15.2832 5.56292 15.2832 6.2447V9.57735C15.2831 10.337 15.2831 10.9779 15.326 11.5029C15.3709 12.0526 15.4687 12.5788 15.7238 13.0793C16.1113 13.84 16.7297 14.4584 17.4904 14.8459C17.9909 15.101 18.5171 15.1988 19.0668 15.2437C19.5918 15.2866 20.2327 15.2866 20.9923 15.2865H24.325C25.0068 15.2865 25.4587 15.2872 25.8074 15.311C26.1455 15.334 26.299 15.3748 26.393 15.4137C26.8025 15.5834 27.1278 15.9087 27.2974 16.3182C27.3364 16.4122 27.3772 16.5657 27.4002 16.9038C27.4227 17.2327 27.4245 17.6536 27.4246 18.2727V22C27.4246 24.4 27.4246 25.6 26.9576 26.5166C26.5467 27.323 25.8912 27.9785 25.0849 28.3893C24.1682 28.8564 22.9682 28.8564 20.5683 28.8564H11.4264C9.02648 28.8564 7.82651 28.8564 6.90985 28.3893C6.10353 27.9785 5.44797 27.323 5.03713 26.5166C4.57007 25.6 4.57007 24.4 4.57007 22V10.0014C4.57007 7.60143 4.57007 6.40146 5.03713 5.4848C5.44797 4.67848 6.10353 4.02292 6.90985 3.61208C7.82651 3.14502 9.02648 3.14502 11.4264 3.14502L12.1835 3.14505Z" fill="white"/>
<path d="M26.8834 13.0833C26.7937 12.8921 26.6933 12.7058 26.5827 12.5252C26.2293 11.9486 25.7353 11.4545 24.7471 10.4664L20.1033 5.8226C19.1152 4.83443 18.6211 4.34032 18.0445 3.98698C17.8639 3.87632 17.6775 3.77595 17.4864 3.68623C17.5648 3.98455 17.6031 4.28877 17.6244 4.60087C17.6543 5.03992 17.6543 5.57329 17.6543 6.20541V9.53003C17.6543 10.3496 17.6552 10.8929 17.6893 11.3098C17.7222 11.7129 17.7801 11.8923 17.8365 12.0029C17.9967 12.3173 18.2524 12.573 18.5668 12.7332C18.6774 12.7895 18.8568 12.8475 19.2598 12.8804C19.6768 12.9144 20.2201 12.9154 21.0397 12.9154H24.3643C24.9964 12.9154 25.5298 12.9153 25.9688 12.9453C26.2809 12.9666 26.5851 13.0048 26.8834 13.0833Z" fill="white"/>
</svg>
