<svg width="32" height="32" viewBox="0 0 32 32" fill="none" xmlns="http://www.w3.org/2000/svg">
<path d="M28.4829 23.5706C30.4409 23.6233 30.8407 23.0298 30.8407 22.0753C30.8407 19.0943 30.0962 16.241 28.7743 13.7653L25.4664 17.5219C25.8778 18.9795 26.0889 20.5527 26.0889 22.1775C26.0889 23.132 26.5249 23.5179 28.4829 23.5706Z" fill="white"/>
<path d="M24.4854 8.60277C21.976 6.6263 18.8661 5.43994 15.4203 5.43994C6.61276 5.43994 0 13.1741 0 22.0586C0 23.4816 0.509118 23.5682 1.35792 23.5735H1.68268C2.51664 23.5682 2.89955 23.4816 2.89955 22.0586C2.89955 15.0832 8.3665 9.17598 15.2815 9.17598C17.531 9.17598 19.4606 9.81365 21.0404 10.9143L24.4854 8.60277Z" fill="white"/>
<path d="M18.8094 16.101C19.3537 16.3846 19.7946 16.7355 20.132 17.1537C20.4677 17.5697 20.7501 18.0472 20.9791 18.5861C21.093 18.8541 21.4025 18.979 21.6705 18.8651C21.7382 18.8363 21.7991 18.7937 21.8477 18.7384L31.7165 8.16335C32.1138 7.73762 32.0907 7.07042 31.665 6.67312C31.2925 6.32554 30.7248 6.29398 30.3161 6.59812L18.7408 15.2123C18.5053 15.3836 18.4564 15.7138 18.6299 15.9477C18.6773 16.0117 18.7387 16.0641 18.8094 16.101Z" fill="white"/>
<path d="M15.5569 24.5619C17.7279 24.5619 19.4879 22.7762 19.4879 20.5734C19.4879 18.3706 17.7279 16.5849 15.5569 16.5849C13.3858 16.5849 11.6258 18.3706 11.6258 20.5734C11.6258 22.7762 13.3858 24.5619 15.5569 24.5619Z" fill="white"/>
</svg>
