<svg width="120" height="120" viewBox="0 0 120 120" fill="none" xmlns="http://www.w3.org/2000/svg">
<path fill-rule="evenodd" clip-rule="evenodd" d="M60 28.9333C78.4095 28.9333 93.3333 42.5005 93.3333 59.2364C93.3333 75.9723 78.4095 89.5394 60 89.5394C57.1775 89.5394 54.437 89.2205 51.8196 88.6202C51.3245 88.5066 50.7624 89.0259 49.8239 89.8927C48.689 90.9411 47.0037 92.4978 44.221 94.0583C40.6659 96.0521 35.7402 95.8791 34.9066 95.5294C34.1073 95.1942 34.7225 94.5278 35.8059 93.3543C36.5554 92.5424 37.5289 91.4878 38.4133 90.1321C40.5759 86.8169 39.6823 82.8701 38.7121 82.1598C31.1252 76.6053 26.6667 68.7814 26.6667 59.2364C26.6667 42.5005 41.5905 28.9333 60 28.9333ZM52.2938 46.8103C53.133 42.0512 57.6712 38.8735 62.4303 39.7126C67.1894 40.5518 70.3671 45.0901 69.5279 49.8491L68.3192 56.7041C68.857 56.8009 69.311 56.9436 69.7239 57.154C70.8529 57.7292 71.7708 58.6471 72.346 59.7761C73 61.0595 73 62.7397 73 66.1V67.9C73 71.2603 73 72.9405 72.346 74.2239C71.7708 75.3529 70.8529 76.2708 69.7239 76.846C68.4405 77.5 66.7603 77.5 63.4 77.5H56.6C53.2397 77.5 51.5595 77.5 50.2761 76.846C49.1471 76.2708 48.2292 75.3529 47.654 74.2239C47 72.9405 47 71.2603 47 67.9V66.1C47 62.7397 47 61.0595 47.654 59.7761C48.2292 58.6471 49.1471 57.7292 50.2761 57.154C51.5595 56.5 53.2397 56.5 56.6 56.5H63.4C63.7119 56.5 64.0094 56.5 64.2934 56.5005L65.5887 49.1545C66.0443 46.571 64.3192 44.1074 61.7357 43.6519C59.1522 43.1963 56.6886 44.9214 56.233 47.5049L56.1028 48.2435C55.911 49.3313 54.8737 50.0576 53.7859 49.8658C52.6981 49.674 51.9718 48.6367 52.1636 47.5489L52.2938 46.8103Z" fill="white"/>
</svg>
