<svg width="72" height="72" viewBox="0 0 72 72" fill="none" xmlns="http://www.w3.org/2000/svg">
<path fill-rule="evenodd" clip-rule="evenodd" d="M52 11C55.3137 11 58 13.6863 58 17V55C58 58.3137 55.3137 61 52 61H30C26.6863 61 24 58.3137 24 55V17C24 13.6863 26.6863 11 30 11H52ZM46.7056 42.3483C46.2792 41.7671 45.4264 41.7671 45 42.3268L38.7898 49.5228L34.7071 46.121C34.2593 45.5828 33.4492 45.6043 33.0441 46.164L28.2105 52.091C27.6561 52.8014 28.9117 55 29.8071 55H52.1816C53.0557 55 54.626 52.8014 54.0931 52.091L46.7056 42.3483ZM48.5 17C46.567 17 45 18.567 45 20.5C45 22.433 46.567 24 48.5 24C50.433 24 52 22.433 52 20.5C52 18.567 50.433 17 48.5 17Z" fill="white"/>
<path fill-rule="evenodd" clip-rule="evenodd" d="M9.5 19.3798C9.5 15.5802 12.5802 12.5 16.3798 12.5H17C18.3807 12.5 19.5 13.6193 19.5 15C19.5 16.3807 18.3807 17.5 17 17.5H16.3798C15.3416 17.5 14.5 18.3416 14.5 19.3798V52.6202C14.5 53.6584 15.3416 54.5 16.3798 54.5H17C18.3807 54.5 19.5 55.6193 19.5 57C19.5 58.3807 18.3807 59.5 17 59.5H16.3798C12.5802 59.5 9.5 56.4198 9.5 52.6202V19.3798Z" fill="white"/>
</svg>
