<svg width="32" height="32" viewBox="0 0 32 32" fill="none" xmlns="http://www.w3.org/2000/svg">
<path d="M15.9064 29.9074C12.6902 27.6523 10.3792 24.786 6.45096 21.2149C5.21428 20.0906 3.81736 18.8965 2.18141 17.6297C0.549671 16.4133 2.38255 13.9554 4.00958 15.1686L7.47617 17.9594L10.485 20.3816C11.2257 20.9337 12.0906 19.8889 11.4644 19.2536L7.72808 15.2522L3.80035 11.0458C2.40913 9.64524 4.52071 7.53471 5.91762 8.94098L9.5881 12.8789L13.3306 16.8941C13.9647 17.5375 14.9991 16.666 14.4458 15.9323L10.6414 10.6524L6.55804 4.98534C5.40087 3.40008 7.80133 1.62506 8.97193 3.22846L12.8983 8.68408L16.6563 13.9057C17.2494 14.6927 18.4709 13.91 18.0172 13.0438L15.7168 8.37487L13.1175 3.09931C12.178 1.30544 14.8886 -0.126765 15.8334 1.67673C16.9882 4.00569 17.9742 5.98657 18.8616 7.70935C20.3506 10.5998 21.5622 12.7637 22.8284 14.6265C20.6653 16.1829 19.9037 18.9213 19.9198 21.0157C19.9247 21.6784 20.8735 21.8015 21.0459 21.1602C21.6881 18.7682 22.3328 17.4512 24.7075 16.8059C25.2605 14.1988 25.6284 12.2949 25.9939 10.9474C26.4298 9.34046 28.1503 8.44117 29.7228 9.01325C30.2915 9.22016 30.5899 9.86691 30.3881 10.455C28.3472 16.4027 28.0278 19.1374 27.9356 24.4602C27.8442 30.3253 20.1669 32.8949 15.9064 29.9074Z" fill="white"/>
</svg>
