<svg width="24" height="24" viewBox="0 0 24 24" fill="none" xmlns="http://www.w3.org/2000/svg">
<path fill-rule="evenodd" clip-rule="evenodd" d="M0.435974 5.18404C0 6.03968 0 7.15979 0 9.4V14.6C0 16.8402 0 17.9603 0.435974 18.816C0.819467 19.5686 1.43139 20.1805 2.18404 20.564C3.03968 21 4.15979 21 6.4 21H17.6C19.8402 21 20.9603 21 21.816 20.564C22.5686 20.1805 23.1805 19.5686 23.564 18.816C24 17.9603 24 16.8402 24 14.6V9.4C24 7.15979 24 6.03968 23.564 5.18404C23.1805 4.43139 22.5686 3.81947 21.816 3.43597C20.9603 3 19.8402 3 17.6 3H6.4C4.15979 3 3.03968 3 2.18404 3.43597C1.43139 3.81947 0.819467 4.43139 0.435974 5.18404ZM4.50197 7.336C4.86869 7.06096 5.38893 7.13528 5.66397 7.502L7.99997 10.6167L10.336 7.502C10.611 7.13528 11.1313 7.06096 11.498 7.336C11.8647 7.61104 11.939 8.13128 11.664 8.498L9.03747 12L11.664 15.502C11.939 15.8687 11.8647 16.389 11.498 16.664C11.1313 16.939 10.611 16.8647 10.336 16.498L7.99997 13.3833L5.66397 16.498C5.38893 16.8647 4.86869 16.939 4.50197 16.664C4.13525 16.389 4.06093 15.8687 4.33597 15.502L6.96247 12L4.33597 8.498C4.06093 8.13128 4.13525 7.61104 4.50197 7.336ZM13.17 9.49997C13.17 8.21315 14.2131 7.16997 15.5 7.16997H16.8369C18.4899 7.16997 19.83 8.51004 19.83 10.1631C19.83 11.2968 19.1894 12.3332 18.1754 12.8402L15.4767 14.1896C15.1001 14.3779 14.8553 14.7529 14.8318 15.17L19 15.17C19.4584 15.17 19.83 15.5416 19.83 16C19.83 16.4584 19.4584 16.83 19 16.83L14 16.83C13.5416 16.83 13.17 16.4584 13.17 16V15.236C13.17 14.1641 13.7756 13.1842 14.7344 12.7048L17.433 11.3555C17.8847 11.1296 18.17 10.668 18.17 10.1631C18.17 9.42683 17.5731 8.82997 16.8369 8.82997H15.5C15.1299 8.82997 14.83 9.12994 14.83 9.49997V9.99997C14.83 10.4584 14.4584 10.83 14 10.83C13.5416 10.83 13.17 10.4584 13.17 9.99997V9.49997Z" fill="black"/>
</svg>
