<svg width="32" height="32" viewBox="0 0 32 32" fill="none" xmlns="http://www.w3.org/2000/svg">
<path d="M2.51634 7.39208C3.20539 6.87529 4.18291 7.01494 4.6997 7.70399L8.52784 12.8082L12.0213 8.15022C12.5381 7.46117 13.5156 7.32153 14.2047 7.83832C14.8937 8.3551 15.0334 9.33263 14.5166 10.0217L10.4773 15.4074L15.409 21.9831C15.9258 22.6721 15.7862 23.6496 15.0971 24.1664C14.4081 24.6832 13.4305 24.5436 12.9137 23.8545L8.52784 18.0067L3.80727 24.3008C3.29048 24.9898 2.31296 25.1295 1.62391 24.6127C0.93486 24.0959 0.795213 23.1184 1.312 22.4293L6.57841 15.4074L2.20443 9.57544C1.68764 8.88639 1.82729 7.90887 2.51634 7.39208Z" fill="white"/>
<path d="M22.1934 7.08017C19.8534 7.08017 17.9565 8.97708 17.9565 11.317V12.2095C17.9565 13.0708 18.6547 13.769 19.516 13.769C20.3773 13.769 21.0756 13.0708 21.0756 12.2095V11.317C21.0756 10.6997 21.576 10.1993 22.1934 10.1993H24.5795C25.8506 10.1993 26.8809 11.2296 26.8809 12.5006C26.8809 13.3723 26.3884 14.1692 25.6087 14.559L20.7919 16.9675C19.0542 17.8363 17.9565 19.6124 17.9565 21.5553V22.9188C17.9565 23.7801 18.6547 24.4783 19.516 24.4783L28.4405 24.4783C29.3018 24.4783 30 23.7801 30 22.9188C30 22.0575 29.3018 21.3593 28.4405 21.3593L21.0851 21.3593C21.1519 20.676 21.5647 20.0683 22.1868 19.7573L27.0036 17.3488C28.84 16.4307 30 14.5538 30 12.5006C30 9.50699 27.5732 7.08017 24.5795 7.08017H22.1934Z" fill="white"/>
</svg>
