<svg width="24" height="24" viewBox="0 0 24 24" fill="none" xmlns="http://www.w3.org/2000/svg">
<path fill-rule="evenodd" clip-rule="evenodd" d="M0.435974 5.18404C0 6.03968 0 7.15979 0 9.4V14.6C0 16.8402 0 17.9603 0.435974 18.816C0.819467 19.5686 1.43139 20.1805 2.18404 20.564C3.03968 21 4.15979 21 6.4 21H17.6C19.8402 21 20.9603 21 21.816 20.564C22.5686 20.1805 23.1805 19.5686 23.564 18.816C24 17.9603 24 16.8402 24 14.6V9.4C24 7.15979 24 6.03968 23.564 5.18404C23.1805 4.43139 22.5686 3.81947 21.816 3.43597C20.9603 3 19.8402 3 17.6 3H6.4C4.15979 3 3.03968 3 2.18404 3.43597C1.43139 3.81947 0.819467 4.43139 0.435974 5.18404ZM17.3176 7.23319C17.6278 7.36166 17.83 7.6643 17.83 8.00001V15.17H19C19.4584 15.17 19.83 15.5416 19.83 16C19.83 16.4584 19.4584 16.83 19 16.83H17H15C14.5416 16.83 14.17 16.4584 14.17 16C14.17 15.5416 14.5416 15.17 15 15.17H16.17V10.0038L15.5869 10.5869C15.2627 10.911 14.7372 10.911 14.4131 10.5869C14.0889 10.2628 14.0889 9.73724 14.4131 9.41311L16.4131 7.41311C16.6505 7.17573 17.0075 7.10472 17.3176 7.23319ZM7.99998 8.17001C8.45838 8.17001 8.82998 8.54161 8.82998 9.00001V11.17H11C11.4584 11.17 11.83 11.5416 11.83 12C11.83 12.4584 11.4584 12.83 11 12.83H8.82998V15C8.82998 15.4584 8.45838 15.83 7.99998 15.83C7.54159 15.83 7.16998 15.4584 7.16998 15V12.83H4.99998C4.54159 12.83 4.16998 12.4584 4.16998 12C4.16998 11.5416 4.54159 11.17 4.99998 11.17H7.16998V9.00001C7.16998 8.54161 7.54159 8.17001 7.99998 8.17001Z" fill="black"/>
</svg>
