<svg width="32" height="32" viewBox="0 0 32 32" fill="none" xmlns="http://www.w3.org/2000/svg">
<path fill-rule="evenodd" clip-rule="evenodd" d="M21.8887 17.1022C23.7188 17.1022 25.2024 15.6186 25.2024 13.7885C25.2024 11.9584 23.7188 10.4748 21.8887 10.4748C20.0586 10.4748 18.575 11.9584 18.575 13.7885C18.575 15.6186 20.0586 17.1022 21.8887 17.1022ZM23.3615 13.7885C23.3615 14.6019 22.7022 15.2613 21.8888 15.2613C21.0754 15.2613 20.416 14.6019 20.416 13.7885C20.416 12.9751 21.0754 12.3157 21.8888 12.3157C22.7022 12.3157 23.3615 12.9751 23.3615 13.7885Z" fill="white"/>
<path fill-rule="evenodd" clip-rule="evenodd" d="M1.27002 15.9976C1.27002 22.8714 5.97902 28.6452 12.347 30.2693C11.8626 29.5603 11.5793 28.7031 11.5793 27.7797V26.1404C8.94739 24.9243 7.59936 22.7412 6.95384 21.2524C6.69953 20.6658 7.33506 20.1505 7.92792 20.3897C9.52915 21.0356 12.3369 21.8887 15.9977 21.8887C19.6585 21.8887 22.4662 21.0356 24.0674 20.3897C24.6603 20.1505 25.2958 20.6658 25.0415 21.2524C24.396 22.7412 23.0479 24.9243 20.4159 26.1404V27.7797C20.4159 28.7031 20.1326 29.5603 19.6483 30.2693C26.0162 28.6452 30.7252 22.8714 30.7252 15.9976C30.7252 7.86379 24.1315 1.27002 15.9976 1.27002C7.86379 1.27002 1.27002 7.86379 1.27002 15.9976ZM21.8887 18.575C24.5322 18.575 26.6752 16.432 26.6752 13.7885C26.6752 11.145 24.5322 9.00201 21.8887 9.00201C19.2452 9.00201 17.1022 11.145 17.1022 13.7885C17.1022 16.432 19.2452 18.575 21.8887 18.575ZM14.4993 15.3391C13.8655 14.5777 12.7489 13.7885 10.843 13.7885C8.93716 13.7885 7.82053 14.5777 7.18672 15.3391C6.78422 15.8226 7.31367 16.3404 7.91221 16.1466C8.72747 15.8827 9.78524 15.6294 10.843 15.6294C11.9008 15.6294 12.9586 15.8827 13.7738 16.1466C14.3723 16.3404 14.9018 15.8226 14.4993 15.3391Z" fill="white"/>
<path fill-rule="evenodd" clip-rule="evenodd" d="M18.9431 24.8342C18.9431 24.0208 18.2838 23.3614 17.4704 23.3614H14.5249C13.7115 23.3614 13.0521 24.0208 13.0521 24.8342V27.7797C13.0521 29.4065 14.3709 30.7252 15.9976 30.7252C17.6244 30.7252 18.9431 29.4065 18.9431 27.7797V24.8342ZM15.7959 27.6378L15.3526 24.0921C15.3005 23.6747 14.9456 23.3614 14.5249 23.3614H17.4704C17.0497 23.3614 16.6949 23.6747 16.6427 24.0921L16.1995 27.6378C16.1698 27.8753 15.8256 27.8753 15.7959 27.6378Z" fill="white"/>
</svg>
