<svg width="24" height="24" viewBox="0 0 24 24" fill="none" xmlns="http://www.w3.org/2000/svg">
<path d="M11.4817 0.886451C11.8255 0.839512 12.175 0.839499 12.5188 0.886451C12.9256 0.942069 13.314 1.08324 13.8742 1.28098L18.6418 2.9636C19.3448 3.21169 19.9122 3.39792 20.342 3.76633C20.6965 4.07026 20.9702 4.45786 21.1389 4.89329C21.3432 5.42113 21.3303 6.01815 21.3303 6.7634V12.0095C21.3303 13.9548 21.3397 15.112 21.0012 16.1628C20.71 17.0666 20.2331 17.8998 19.6018 18.6091C18.8677 19.4338 17.8655 20.0124 16.1887 20.9988L14.8547 21.7839C14.0184 22.2758 13.442 22.6256 12.8088 22.7624C12.276 22.8775 11.7245 22.8775 11.1916 22.7624C10.5584 22.6256 9.98209 22.2759 9.14573 21.7839L7.81175 20.9988C6.13485 20.0123 5.13276 19.4338 4.39866 18.6091C3.76734 17.8998 3.29048 17.0666 2.99925 16.1628C2.66073 15.112 2.67015 13.9548 2.67015 12.0095V6.7634C2.67014 6.01815 2.65724 5.42113 2.86155 4.89329C3.03022 4.45789 3.30394 4.07025 3.65843 3.76633C4.08825 3.39798 4.65574 3.21167 5.35862 2.9636L10.1262 1.28098C10.6864 1.08327 11.0748 0.942059 11.4817 0.886451ZM12.2942 2.53098C12.0994 2.50438 11.9011 2.5044 11.7063 2.53098C11.5062 2.55835 11.302 2.6265 10.6789 2.84641L5.91136 4.52903C5.07796 4.82317 4.876 4.90836 4.73851 5.0261C4.59211 5.15161 4.47915 5.31215 4.40941 5.49192C4.34402 5.66078 4.33031 5.87942 4.3303 6.7634V12.0095C4.33031 14.0656 4.33977 14.9104 4.57933 15.654C4.79979 16.3381 5.16107 16.9688 5.6389 17.5056C6.15844 18.0892 6.88121 18.5255 8.65355 19.5681L9.98753 20.3523C10.9225 20.9023 11.232 21.0734 11.5422 21.1404C11.8441 21.2055 12.1564 21.2055 12.4582 21.1404C12.7684 21.0733 13.0781 20.9022 14.0129 20.3523L15.3469 19.5681C17.1191 18.5256 17.842 18.0892 18.3616 17.5056C18.8393 16.9688 19.2007 16.338 19.4211 15.654C19.6607 14.9104 19.6701 14.0655 19.6701 12.0095V6.7634C19.6701 5.87942 19.6564 5.66078 19.591 5.49192C19.5213 5.31212 19.4084 5.15163 19.2619 5.0261C19.1244 4.90831 18.9227 4.82325 18.0891 4.52903L13.3215 2.84641C12.6984 2.62647 12.4942 2.55835 12.2942 2.53098ZM15.8166 7.52903C16.0765 7.15195 16.5934 7.0567 16.9709 7.31614C17.3482 7.57589 17.4432 8.09289 17.1838 8.47044L11.6838 16.4704C11.5378 16.6825 11.3013 16.8151 11.0442 16.8288C10.7869 16.8425 10.5381 16.7354 10.3703 16.5398L7.37034 13.0398C7.07219 12.6918 7.11227 12.1681 7.46019 11.8698C7.80815 11.5718 8.33181 11.6119 8.63011 11.9597L10.927 14.6394L15.8166 7.52903Z" fill="black"/>
</svg>
