<svg width="24" height="24" viewBox="0 0 24 24" fill="none" xmlns="http://www.w3.org/2000/svg">
<path fill-rule="evenodd" clip-rule="evenodd" d="M12.2706 2.69979C12.091 2.67527 11.9089 2.67527 11.7294 2.69979C11.5503 2.72423 11.3653 2.78449 10.7353 3.00685L5.96777 4.6895C5.12019 4.98864 4.95665 5.06366 4.84909 5.15588C4.7238 5.2633 4.62704 5.40005 4.56744 5.55395C4.51628 5.68608 4.49997 5.86526 4.49997 6.76408V12.0093C4.49997 14.0773 4.5114 14.8895 4.74093 15.6018C4.95416 16.2636 5.30303 16.8735 5.76528 17.3928C6.26288 17.9518 6.95712 18.3735 8.7396 19.422L10.0733 20.2065C11.0184 20.7624 11.3007 20.9146 11.5778 20.9744C11.856 21.0345 12.1439 21.0345 12.4221 20.9744C12.6993 20.9146 12.9816 20.7624 13.9266 20.2065L15.2603 19.422C17.0428 18.3735 17.7371 17.9518 18.2347 17.3928C18.6969 16.8735 19.0458 16.2636 19.259 15.6018C19.4885 14.8895 19.5 14.0773 19.5 12.0093V6.76408C19.5 5.86526 19.4837 5.68608 19.4325 5.55395C19.3729 5.40005 19.2761 5.2633 19.1509 5.15588C19.0433 5.06366 18.8797 4.98864 18.0322 4.6895L13.2647 3.00685C12.6347 2.78449 12.4496 2.72423 12.2706 2.69979ZM11.4588 0.718178C11.8179 0.669136 12.182 0.669136 12.5412 0.718178C12.948 0.773735 13.3357 0.91074 13.8485 1.09198L13.9303 1.12087L18.6978 2.80352L18.8321 2.85078C19.4662 3.07351 20.0228 3.26906 20.4526 3.63752C20.8285 3.95977 21.1188 4.37005 21.2975 4.83175C21.502 5.35965 21.5011 5.94965 21.5001 6.62168L21.5 6.76408V12.0093L21.5 12.1878C21.5003 14.0177 21.5005 15.1665 21.1626 16.2152C20.8641 17.1416 20.3757 17.9956 19.7285 18.7226C18.9959 19.5456 18.0056 20.1279 16.4283 21.0554L16.4282 21.0554L16.2744 21.1458L14.9407 21.9304L14.8157 22.004C14.0524 22.4536 13.4767 22.7928 12.8443 22.9294C12.2878 23.0495 11.7121 23.0495 11.1556 22.9294C10.5232 22.7928 9.94756 22.4536 9.18424 22.004L9.05925 21.9304L7.72556 21.1458L7.5717 21.0554C5.99432 20.1279 5.004 19.5456 4.2714 18.7226C3.62425 17.9956 3.13583 17.1416 2.83732 16.2152C2.49939 15.1665 2.49961 14.0177 2.49995 12.1878L2.49997 12.0093V6.76408L2.49983 6.62168C2.49884 5.94965 2.49797 5.35965 2.70239 4.83175C2.88118 4.37005 3.17145 3.95977 3.54733 3.63752C3.9771 3.26906 4.53375 3.07351 5.1678 2.85078L5.30213 2.80352L10.0696 1.12087L10.1514 1.09198C10.6642 0.91074 11.0519 0.773735 11.4588 0.718178ZM8.29289 14.7929L11.2929 11.7929C11.6834 11.4024 12.3166 11.4024 12.7071 11.7929L15.7071 14.7929C16.0976 15.1834 16.0976 15.8166 15.7071 16.2071C15.3166 16.5976 14.6834 16.5976 14.2929 16.2071L12 13.9142L9.70711 16.2071C9.31658 16.5976 8.68342 16.5976 8.29289 16.2071C7.90237 15.8166 7.90237 15.1834 8.29289 14.7929ZM12.7071 5.79289C12.3166 5.40237 11.6834 5.40237 11.2929 5.79289L8.29289 8.79289C7.90237 9.18342 7.90237 9.81658 8.29289 10.2071C8.68342 10.5976 9.31658 10.5976 9.70711 10.2071L12 7.91421L14.2929 10.2071C14.6834 10.5976 15.3166 10.5976 15.7071 10.2071C16.0976 9.81658 16.0976 9.18342 15.7071 8.79289L12.7071 5.79289Z" fill="white"/>
</svg>
