<svg width="24" height="24" viewBox="0 0 24 24" fill="none" xmlns="http://www.w3.org/2000/svg">
<path d="M9 6.2002C9 5.62365 8.99874 5.25112 8.97559 4.96778C8.95339 4.69619 8.91582 4.59534 8.89063 4.5459C8.7948 4.35794 8.64208 4.20522 8.45411 4.10938C8.40467 4.08419 8.30382 4.04662 8.03223 4.02442C7.74889 4.00127 7.37636 4 6.79981 4H6.2002C5.62365 4 5.25112 4.00127 4.96778 4.02442C4.69619 4.04662 4.59534 4.08419 4.5459 4.10938C4.35793 4.20521 4.20521 4.35793 4.10938 4.5459C4.08419 4.59534 4.04662 4.69619 4.02442 4.96778C4.00127 5.25111 4 5.62364 4 6.2002V6.79981C4 7.37636 4.00127 7.74889 4.02442 8.03223C4.04662 8.30382 4.08419 8.40467 4.10938 8.45411C4.20522 8.64208 4.35794 8.7948 4.5459 8.89063C4.59534 8.91582 4.69619 8.95339 4.96778 8.97559C5.25111 8.99874 5.62364 9 6.2002 9H6.79981C7.37636 9 7.74889 8.99874 8.03223 8.97559C8.30382 8.95339 8.40467 8.91582 8.45411 8.89063C8.64207 8.7948 8.7948 8.64207 8.89063 8.45411C8.91582 8.40467 8.95339 8.30382 8.97559 8.03223C8.99874 7.74889 9 7.37636 9 6.79981V6.2002ZM11 6.79981C11 7.34336 11.0011 7.81164 10.9697 8.19532C10.9374 8.59057 10.8656 8.98401 10.6729 9.36231C10.3853 9.92653 9.92653 10.3853 9.36231 10.6729C8.98401 10.8656 8.59057 10.9374 8.19532 10.9697C7.81164 11.0011 7.34336 11 6.79981 11H6.2002C5.65665 11 5.18836 11.0011 4.80469 10.9697C4.40943 10.9374 4.016 10.8656 3.6377 10.6729C3.07346 10.3853 2.61471 9.92652 2.32715 9.36231C2.1344 8.98401 2.06259 8.59057 2.03028 8.19532C1.99893 7.81164 2 7.34336 2 6.79981V6.2002C2 5.65665 1.99893 5.18836 2.03028 4.80469C2.06259 4.40943 2.1344 4.016 2.32715 3.6377C2.61472 3.07347 3.07347 2.61472 3.6377 2.32715C4.016 2.1344 4.40943 2.06259 4.80469 2.03028C5.18836 1.99893 5.65665 2 6.2002 2H6.79981C7.34336 2 7.81164 1.99893 8.19532 2.03028C8.59057 2.06259 8.98401 2.1344 9.36231 2.32715C9.92652 2.61471 10.3853 3.07346 10.6729 3.6377C10.8656 4.016 10.9374 4.40943 10.9697 4.80469C11.0011 5.18836 11 5.65665 11 6.2002V6.79981Z" fill="#717579"/>
<path d="M9 17.2002C9 16.6236 8.99874 16.2511 8.97559 15.9678C8.95339 15.6962 8.91581 15.5953 8.89063 15.5459C8.79476 15.3579 8.64201 15.2051 8.45411 15.1094C8.40468 15.0842 8.30381 15.0466 8.03223 15.0244C7.7489 15.0013 7.37636 15 6.79981 15H6.2002C5.62365 15 5.25111 15.0013 4.96778 15.0244C4.6962 15.0466 4.59533 15.0842 4.5459 15.1094C4.358 15.2051 4.20525 15.3579 4.10938 15.5459C4.0842 15.5953 4.04662 15.6962 4.02442 15.9678C4.00127 16.2511 4 16.6236 4 17.2002V17.7998C4 18.3764 4.00127 18.7489 4.02442 19.0322C4.04662 19.3039 4.0842 19.4047 4.10938 19.4541C4.20525 19.6421 4.35799 19.7949 4.5459 19.8906C4.59533 19.9158 4.6962 19.9534 4.96778 19.9756C5.25111 19.9987 5.62364 20 6.2002 20H6.79981C7.37636 20 7.7489 19.9987 8.03223 19.9756C8.30381 19.9534 8.40468 19.9158 8.45411 19.8906C8.64202 19.7949 8.79476 19.6421 8.89063 19.4541C8.91581 19.4047 8.95339 19.3039 8.97559 19.0322C8.99874 18.7489 9 18.3764 9 17.7998V17.2002ZM11 17.7998C11 18.3434 11.0011 18.8116 10.9697 19.1953C10.9374 19.5906 10.8656 19.984 10.6729 20.3623C10.3853 20.9265 9.9266 21.3853 9.36231 21.6729C8.98401 21.8656 8.59058 21.9374 8.19532 21.9697C7.81164 22.0011 7.34336 22 6.79981 22H6.2002C5.65665 22 5.18837 22.0011 4.80469 21.9697C4.40943 21.9374 4.016 21.8656 3.6377 21.6729C3.07339 21.3853 2.61468 20.9264 2.32715 20.3623C2.13438 19.984 2.06259 19.5906 2.03028 19.1953C1.99893 18.8116 2 18.3434 2 17.7998V17.2002C2 16.6567 1.99893 16.1884 2.03028 15.8047C2.06259 15.4094 2.13438 15.016 2.32715 14.6377C2.61468 14.0736 3.07339 13.6147 3.6377 13.3272C4.016 13.1344 4.40943 13.0626 4.80469 13.0303C5.18837 12.9989 5.65665 13 6.2002 13H6.79981C7.34336 13 7.81164 12.9989 8.19532 13.0303C8.59058 13.0626 8.98401 13.1344 9.36231 13.3272C9.9266 13.6147 10.3853 14.0736 10.6729 14.6377C10.8656 15.016 10.9374 15.4094 10.9697 15.8047C11.0011 16.1884 11 16.6567 11 17.2002V17.7998Z" fill="#717579"/>
<path d="M20 6.2002C20 5.62365 19.9987 5.25111 19.9756 4.96778C19.9534 4.6962 19.9158 4.59533 19.8906 4.5459C19.7949 4.35799 19.6421 4.20525 19.4541 4.10938C19.4047 4.0842 19.3039 4.04662 19.0322 4.02442C18.7489 4.00127 18.3764 4 17.7998 4H17.2002C16.6236 4 16.2511 4.00127 15.9678 4.02442C15.6962 4.04662 15.5953 4.0842 15.5459 4.10938C15.3579 4.20525 15.2051 4.358 15.1094 4.5459C15.0842 4.59533 15.0466 4.6962 15.0244 4.96778C15.0013 5.25111 15 5.62364 15 6.2002V6.79981C15 7.37636 15.0013 7.7489 15.0244 8.03223C15.0466 8.30381 15.0842 8.40468 15.1094 8.45411C15.2051 8.64201 15.3579 8.79476 15.5459 8.89063C15.5953 8.91581 15.6962 8.95339 15.9678 8.97559C16.2511 8.99874 16.6236 9 17.2002 9H17.7998C18.3764 9 18.7489 8.99874 19.0322 8.97559C19.3039 8.95339 19.4047 8.91581 19.4541 8.89063C19.6421 8.79476 19.7949 8.64202 19.8906 8.45411C19.9158 8.40468 19.9534 8.30381 19.9756 8.03223C19.9987 7.7489 20 7.37636 20 6.79981V6.2002ZM22 6.79981C22 7.34336 22.0011 7.81164 21.9697 8.19532C21.9374 8.59058 21.8656 8.98401 21.6729 9.36231C21.3853 9.9266 20.9265 10.3853 20.3623 10.6729C19.984 10.8656 19.5906 10.9374 19.1953 10.9697C18.8116 11.0011 18.3434 11 17.7998 11H17.2002C16.6567 11 16.1884 11.0011 15.8047 10.9697C15.4094 10.9374 15.016 10.8656 14.6377 10.6729C14.0736 10.3853 13.6147 9.9266 13.3272 9.36231C13.1344 8.98401 13.0626 8.59058 13.0303 8.19532C12.9989 7.81164 13 7.34336 13 6.79981V6.2002C13 5.65665 12.9989 5.18837 13.0303 4.80469C13.0626 4.40943 13.1344 4.016 13.3272 3.6377C13.6147 3.07339 14.0736 2.61468 14.6377 2.32715C15.016 2.13438 15.4094 2.06259 15.8047 2.03028C16.1884 1.99893 16.6567 2 17.2002 2H17.7998C18.3434 2 18.8116 1.99893 19.1953 2.03028C19.5906 2.06259 19.984 2.13438 20.3623 2.32715C20.9264 2.61468 21.3853 3.07339 21.6729 3.6377C21.8656 4.016 21.9374 4.40943 21.9697 4.80469C22.0011 5.18837 22 5.65665 22 6.2002V6.79981Z" fill="#717579"/>
<path d="M17.75 16.25H17.25C16.6977 16.25 16.25 16.6977 16.25 17.25V17.75C16.25 18.3023 16.6977 18.75 17.25 18.75H17.75C18.3023 18.75 18.75 18.3023 18.75 17.75V17.25C18.75 16.6977 18.3023 16.25 17.75 16.25Z" fill="#717579"/>
<path d="M15 13.5H14.5C13.9477 13.5 13.5 13.9477 13.5 14.5V15C13.5 15.5523 13.9477 16 14.5 16H15C15.5523 16 16 15.5523 16 15V14.5C16 13.9477 15.5523 13.5 15 13.5Z" fill="#717579"/>
<path d="M15 19H14.5C13.9477 19 13.5 19.4477 13.5 20V20.5C13.5 21.0523 13.9477 21.5 14.5 21.5H15C15.5523 21.5 16 21.0523 16 20.5V20C16 19.4477 15.5523 19 15 19Z" fill="#717579"/>
<path d="M20.5 13.5H20C19.4477 13.5 19 13.9477 19 14.5V15C19 15.5523 19.4477 16 20 16H20.5C21.0523 16 21.5 15.5523 21.5 15V14.5C21.5 13.9477 21.0523 13.5 20.5 13.5Z" fill="#717579"/>
<path d="M20.5 19H20C19.4477 19 19 19.4477 19 20V20.5C19 21.0523 19.4477 21.5 20 21.5H20.5C21.0523 21.5 21.5 21.0523 21.5 20.5V20C21.5 19.4477 21.0523 19 20.5 19Z" fill="#717579"/>
</svg>
