<svg width="24" height="24" viewBox="0 0 24 24" fill="none" xmlns="http://www.w3.org/2000/svg">
<path d="M2 8.66445C2 6.20985 3.98985 4.22 6.44444 4.22C8.89904 4.22 10.8889 6.20985 10.8889 8.66445V9.96132C10.8889 12.3762 10.3266 14.758 9.24665 16.918L8.43206 18.5471C7.8832 19.6449 6.54837 20.0898 5.45064 19.5409C4.35291 18.9921 3.90796 17.6573 4.45683 16.5595L5.27141 14.9304C5.56827 14.3366 5.81036 13.7195 5.99588 13.0865C3.75193 12.8616 2 10.9676 2 8.66445Z" fill="black"/>
<path d="M13.1111 8.66445C13.1111 6.20985 15.101 4.22 17.5556 4.22C20.0102 4.22 22 6.20985 22 8.66445V9.96132C22 12.3762 21.4377 14.758 20.3578 16.918L19.5432 18.5471C18.9943 19.6449 17.6595 20.0898 16.5617 19.5409C15.464 18.9921 15.0191 17.6573 15.5679 16.5595L16.3825 14.9304C16.6794 14.3366 16.9215 13.7195 17.107 13.0865C14.863 12.8616 13.1111 10.9676 13.1111 8.66445Z" fill="black"/>
</svg>
