<svg width="24" height="24" viewBox="0 0 24 24" fill="none" xmlns="http://www.w3.org/2000/svg">
<path d="M10.5 8.98996L9.49999 8.99242L9.49999 8.99243L10.5 8.98996ZM10.5 9.00001L11.5 9.00001L11.5 8.99755L10.5 9.00001ZM4.71116 16.1056L5.60559 16.5528L5.60559 16.5528L4.71116 16.1056ZM5.44428 14.6393L4.54986 14.1921L4.54986 14.1921L5.44428 14.6393ZM6.0963 12.9799L7.05593 13.2611C7.1396 12.9757 7.09184 12.6678 6.92563 12.4211C6.75942 12.1744 6.49201 12.0145 6.19602 11.9849L6.0963 12.9799ZM21.5 9L22.5 9.00114V9H21.5ZM21.5 9.01007L20.5 9.00893V9.01007H21.5ZM20.022 16.4282L20.9164 16.8754L20.9164 16.8754L20.022 16.4282ZM19.2888 17.8944L18.3944 17.4472L18.3944 17.4472L19.2888 17.8944ZM15.7111 16.1056L16.6056 16.5528L16.6056 16.5528L15.7111 16.1056ZM16.4443 14.6393L15.5498 14.1921L15.5498 14.1921L16.4443 14.6393ZM17.0963 12.9799L18.0559 13.2611C18.1396 12.9757 18.0918 12.6678 17.9256 12.4211C17.7594 12.1744 17.492 12.0145 17.196 11.9849L17.0963 12.9799ZM6.5 4C3.73858 4 1.5 6.23858 1.5 9H3.5C3.5 7.34315 4.84315 6 6.5 6V4ZM11.5 8.9875C11.4932 6.23179 9.25725 4 6.5 4V6C8.15433 6 9.49593 7.33908 9.49999 8.99242L11.5 8.9875ZM11.5 8.99755L11.5 8.98749L9.49999 8.99243L9.50002 9.00248L11.5 8.99755ZM11.5 10.1672V9.00001H9.50001V10.1672H11.5ZM9.91642 16.8754C10.9578 14.7926 11.5 12.4959 11.5 10.1672H9.50001C9.50001 12.1854 9.03013 14.1759 8.12757 15.981L9.91642 16.8754ZM9.18329 18.3417L9.91642 16.8754L8.12757 15.981L7.39444 17.4472L9.18329 18.3417ZM5.15837 19.6833C6.64031 20.4243 8.44233 19.8236 9.18329 18.3417L7.39444 17.4472C7.14745 17.9412 6.54678 18.1414 6.0528 17.8944L5.15837 19.6833ZM3.81673 15.6584C3.07576 17.1403 3.67644 18.9423 5.15837 19.6833L6.0528 17.8944C5.55882 17.6475 5.3586 17.0468 5.60559 16.5528L3.81673 15.6584ZM4.54986 14.1921L3.81673 15.6584L5.60559 16.5528L6.33871 15.0865L4.54986 14.1921ZM5.13667 12.6986C4.98641 13.2113 4.79031 13.7112 4.54986 14.1921L6.33871 15.0865C6.6326 14.4988 6.87227 13.8878 7.05593 13.2611L5.13667 12.6986ZM1.5 9C1.5 11.5917 3.47107 13.7218 5.99658 13.9749L6.19602 11.9849C4.68243 11.8332 3.5 10.554 3.5 9H1.5ZM17.5 4C14.7386 4 12.5 6.23858 12.5 9H14.5C14.5 7.34315 15.8431 6 17.5 6V4ZM22.5 9C22.5 6.23858 20.2614 4 17.5 4V6C19.1569 6 20.5 7.34315 20.5 9H22.5ZM22.5 9.0112L22.5 9.00114L20.5 8.99886L20.5 9.00893L22.5 9.0112ZM22.5 10.1672V9.01007H20.5V10.1672H22.5ZM20.9164 16.8754C21.9578 14.7926 22.5 12.4959 22.5 10.1672H20.5C20.5 12.1854 20.0301 14.1759 19.1275 15.981L20.9164 16.8754ZM20.1833 18.3417L20.9164 16.8754L19.1275 15.981L18.3944 17.4472L20.1833 18.3417ZM16.1583 19.6833C17.6403 20.4243 19.4423 19.8236 20.1833 18.3417L18.3944 17.4472C18.1474 17.9412 17.5468 18.1414 17.0528 17.8944L16.1583 19.6833ZM14.8167 15.6584C14.0757 17.1403 14.6764 18.9423 16.1583 19.6833L17.0528 17.8944C16.5588 17.6475 16.3586 17.0468 16.6056 16.5528L14.8167 15.6584ZM15.5498 14.1921L14.8167 15.6584L16.6056 16.5528L17.3387 15.0865L15.5498 14.1921ZM16.1367 12.6986C15.9864 13.2113 15.7903 13.7112 15.5498 14.1921L17.3387 15.0865C17.6326 14.4988 17.8722 13.8878 18.0559 13.2611L16.1367 12.6986ZM12.5 9C12.5 11.5917 14.4711 13.7218 16.9966 13.9749L17.196 11.9849C15.6824 11.8332 14.5 10.554 14.5 9H12.5Z" fill="black"/>
</svg>
