<svg width="24" height="24" viewBox="0 0 24 24" fill="none" xmlns="http://www.w3.org/2000/svg">
<path fill-rule="evenodd" clip-rule="evenodd" d="M10.3256 6.1767C9.79404 5.59734 8.92428 5.00298 7.50104 5.00501L7.49961 5.00501C6.01635 5.00501 4 6.33775 4 9.00001C4 11.1687 5.42118 13.3194 7.27336 15.1652C9.06177 16.9475 11.0788 18.2738 12 18.8382C12.9212 18.2738 14.9382 16.9475 16.7267 15.1652C18.5788 13.3194 20 11.1687 20 9.00001C20 6.33875 17.9846 5.00712 16.4986 5.00501C15.0756 5.00298 14.2059 5.59731 13.6744 6.17667C13.4009 6.47481 13.2132 6.77476 13.0953 6.99821C13.0367 7.10909 12.9967 7.19853 12.9729 7.25578C12.961 7.28432 12.9532 7.30458 12.9493 7.31519L12.9464 7.32307C12.8083 7.72765 12.428 8.00002 12 8.00002C11.572 8.00002 11.1917 7.72766 11.0536 7.32309L11.0507 7.31519C11.0468 7.30459 11.039 7.28433 11.0271 7.25579C11.0033 7.19854 10.9633 7.1091 10.9047 6.99822C10.7868 6.77478 10.5991 6.47483 10.3256 6.1767ZM12 5.05515C11.9369 4.9787 11.87 4.90167 11.7993 4.82459C10.9559 3.9053 9.57564 3.00226 7.4989 3.00501C7.49913 3.00501 7.49937 3.00501 7.49961 3.00501V4.00501L7.49818 3.00501C7.49842 3.00501 7.49866 3.00501 7.4989 3.00501C4.98308 3.00542 2 5.16302 2 9.00001C2 11.997 3.91438 14.6414 5.86158 16.5819C7.8416 18.5551 10.0488 19.9914 11.006 20.5746C11.6205 20.9492 12.3793 20.9492 12.9939 20.5747M12 5.05515C12.0631 4.97871 12.1299 4.90169 12.2006 4.82461C13.0441 3.90523 14.4244 3.00205 16.5014 3.00501C19.0154 3.00858 22 5.16126 22 9.00001C22 11.997 20.0856 14.6414 18.1384 16.5819C16.1584 18.5551 13.9512 19.9914 12.994 20.5746" fill="black"/>
</svg>
