<svg width="24" height="24" viewBox="0 0 24 24" fill="none" xmlns="http://www.w3.org/2000/svg">
<path d="M12 8C14.2091 8 16 9.79086 16 12C16 14.2091 14.2091 16 12 16C9.79086 16 8 14.2091 8 12C8 9.79086 9.79086 8 12 8Z" fill="white"/>
<path fill-rule="evenodd" clip-rule="evenodd" d="M12.4004 2C15.7603 2 17.4402 2.00042 18.7236 2.6543C19.8526 3.22954 20.7705 4.14739 21.3457 5.27637C21.9996 6.55977 22 8.23965 22 11.5996V12.4004C22 15.7603 21.9996 17.4402 21.3457 18.7236C20.7705 19.8526 19.8526 20.7705 18.7236 21.3457C17.4402 21.9996 15.7603 22 12.4004 22H11.5996C8.23965 22 6.55977 21.9996 5.27637 21.3457C4.14739 20.7705 3.22954 19.8526 2.6543 18.7236C2.00042 17.4402 2 15.7603 2 12.4004V11.5996C2 8.23965 2.00042 6.55977 2.6543 5.27637C3.22954 4.14739 4.14739 3.22954 5.27637 2.6543C6.55977 2.00042 8.23965 2 11.5996 2H12.4004ZM12 6C8.68629 6 6 8.68629 6 12C6 15.3137 8.68629 18 12 18C15.3137 18 18 15.3137 18 12C18 8.68629 15.3137 6 12 6Z" fill="white"/>
</svg>
