<svg width="24" height="24" viewBox="0 0 24 24" fill="none" xmlns="http://www.w3.org/2000/svg">
<path fill-rule="evenodd" clip-rule="evenodd" d="M14.2929 4.70711C13.9024 4.31658 13.9024 3.68342 14.2929 3.29289C14.6834 2.90237 15.3166 2.90237 15.7071 3.29289L19.7071 7.29289C20.0976 7.68342 20.0976 8.31658 19.7071 8.70711L15.7071 12.7071C15.3166 13.0976 14.6834 13.0976 14.2929 12.7071C13.9024 12.3166 13.9024 11.6834 14.2929 11.2929L16.5858 9H10C7.79086 9 6 10.7909 6 13C6 15.2091 7.79086 17 10 17H16C16.5523 17 17 17.4477 17 18C17 18.5523 16.5523 19 16 19H10C6.68629 19 4 16.3137 4 13C4 9.68629 6.68629 7 10 7H16.5858L14.2929 4.70711Z" fill="white"/>
</svg>
