<svg width="30" height="30" viewBox="0 0 30 30" fill="none" xmlns="http://www.w3.org/2000/svg">
<path d="M11.5097 27.1459C11.0577 26.829 10.9475 26.2054 11.2641 25.7532L14.0127 21.8278C14.3295 21.3759 14.9532 21.266 15.4054 21.5822C15.8577 21.8989 15.9674 22.5226 15.651 22.9749L14.2837 24.9276C17.66 25.1684 21.0725 23.6803 23.1537 20.7082C26.3062 16.2058 25.212 10.0003 20.7097 6.84758C16.2072 3.69502 10.0017 4.78925 6.84904 9.29158C3.69654 13.794 4.7907 19.9995 9.29305 23.1522C9.74524 23.469 9.85521 24.0926 9.53862 24.5449C9.22189 24.9973 8.59829 25.1071 8.1459 24.7905C2.73874 21.0043 1.42469 13.5517 5.21074 8.14443C8.997 2.73729 16.4496 1.42316 21.8568 5.20927C27.2639 8.99552 28.578 16.4481 24.792 21.8554C22.4095 25.2578 18.5764 27.0381 14.7159 26.9494L16.5822 28.2562C17.0346 28.5729 17.1444 29.1965 16.8278 29.6489C16.511 30.1013 15.8875 30.2112 15.4351 29.8945L11.5097 27.1459Z" fill="#4E8EE5"/>
<path d="M12.7678 8.75233C13.3597 7.69284 14.6023 7.24225 15.7053 7.55994L15.9396 7.64002L16.1633 7.74158C16.6004 7.96602 16.9723 8.31589 17.2199 8.75916L17.3332 8.98865L18.0998 10.7631L20.1457 10.9174C21.4727 11.0169 22.6117 12.1648 22.4914 13.6381C22.4345 14.3335 22.0928 14.9568 21.5734 15.3812L20.0764 16.6039L20.5305 18.4086C20.8912 19.8461 19.9489 21.1731 18.6369 21.476C18.0028 21.6222 17.3299 21.5229 16.7609 21.1888L14.9914 20.1498L13.2434 21.1771C12.0887 21.8549 10.5492 21.5381 9.79414 20.3568C9.41885 19.7696 9.30139 19.0484 9.48262 18.3646L9.86641 16.9193L9.92695 16.7113C9.94466 16.6572 9.96455 16.6041 9.98457 16.5512C9.7781 16.4374 9.57943 16.3065 9.39277 16.1566L8.44355 15.3939C7.33706 14.5052 7.16987 12.8688 8.12227 11.7797L8.29902 11.5971C8.729 11.1948 9.28132 10.9594 9.85469 10.9164L11.884 10.764L12.6516 8.98865L12.7678 8.75233ZM15.2014 9.49842C14.9226 9.38775 14.6031 9.51455 14.4875 9.78162L13.3684 12.3715C13.2897 12.5535 13.1105 12.6774 12.9055 12.6928L10.0041 12.9105C9.85792 12.9215 9.72241 12.9885 9.62812 13.0961C9.43429 13.3177 9.46432 13.6485 9.69551 13.8344L10.6457 14.5971C11.121 14.9787 11.7476 15.1408 12.3586 15.0394L15.3645 14.5404C15.4759 14.5219 15.587 14.5765 15.6359 14.6742C15.6964 14.7949 15.6427 14.9395 15.5168 14.9974L12.8166 16.2406C12.3103 16.4736 11.9374 16.9094 11.799 17.431L11.4162 18.8773C11.38 19.0142 11.4027 19.1593 11.4797 19.2797C11.6374 19.5263 11.9743 19.6036 12.2316 19.4525L14.7062 17.9994C14.8814 17.8965 15.1023 17.8966 15.2775 17.9994L17.7736 19.4642C17.8973 19.5368 18.0457 19.5592 18.1867 19.5267C18.4802 19.459 18.6607 19.1762 18.59 18.8949L17.9064 16.1722C17.8583 15.9805 17.9266 15.7787 18.0832 15.6508L20.3078 13.8324C20.4183 13.7421 20.4869 13.6137 20.4982 13.475C20.5218 13.1866 20.2972 12.9341 19.9963 12.9115L17.0793 12.6928C16.8743 12.6774 16.6951 12.5535 16.6164 12.3715L15.4973 9.78162C15.4418 9.65336 15.3352 9.55156 15.2014 9.49842Z" fill="#4E8EE5"/>
</svg>
