<svg width="24" height="24" viewBox="0 0 24 24" fill="none" xmlns="http://www.w3.org/2000/svg">
<path fill-rule="evenodd" clip-rule="evenodd" d="M11.9111 3.8375C11.5753 3.43485 11.0697 3.21365 10.5461 3.24036C10.123 3.26194 9.784 3.49144 9.55081 3.67119C9.30642 3.85956 9.01813 4.12601 8.68821 4.43095L2.46982 10.1778C2.30361 10.3314 2.1431 10.4797 2.01853 10.6159C1.88274 10.7644 1.73455 10.9557 1.64743 11.2101C1.52759 11.5601 1.52759 11.94 1.64743 12.29C1.73455 12.5444 1.88274 12.7357 2.01853 12.8842C2.14311 13.0204 2.30362 13.1687 2.46984 13.3223L8.68822 19.0691C9.01813 19.374 9.30642 19.6405 9.55081 19.8288C9.784 20.0086 10.123 20.2381 10.5461 20.2597C11.0697 20.2864 11.5753 20.0652 11.9111 19.6625C12.1824 19.3371 12.2439 18.9324 12.2702 18.6391C12.2977 18.3318 12.2977 17.9393 12.2977 17.49L12.2977 16.1056C15.785 16.2947 17.9566 17.6542 19.223 18.8531L19.2423 18.8713C19.5978 19.2078 19.8893 19.4838 20.1127 19.6743C20.2258 19.7707 20.3463 19.8668 20.4661 19.9427C20.5557 19.9995 20.7783 20.1352 21.0661 20.1395C21.5035 20.1459 21.8852 19.9469 22.1303 19.5846C22.2807 19.3623 22.3057 19.1257 22.3134 19.0097C22.3225 18.8712 22.3145 18.7255 22.3025 18.5912C22.279 18.3284 22.2265 17.9774 22.1641 17.5601L22.1599 17.5318C21.8794 15.6561 21.2102 13.1425 19.5986 11.082C18.0756 9.13468 15.7513 7.64712 12.2977 7.44111L12.2977 6.01001C12.2977 5.56076 12.2977 5.1682 12.2702 4.86088C12.2439 4.56762 12.1824 4.16288 11.9111 3.8375ZM10.6055 4.96315C10.6071 4.97731 10.6087 4.99275 10.6102 5.00957C10.6302 5.23321 10.631 5.54962 10.631 6.04777V8.25001C10.631 8.71025 11.0041 9.08335 11.4644 9.08335C14.8671 9.08335 16.958 10.411 18.2858 12.1088C19.6444 13.8459 20.2507 16.0345 20.5114 17.7777C20.4659 17.7346 20.4184 17.6896 20.3688 17.6427C18.7243 16.0859 15.9086 14.4167 11.4644 14.4167C11.2434 14.4167 11.0314 14.5045 10.8751 14.6608C10.7188 14.817 10.631 15.029 10.631 15.25V17.4523C10.631 17.9504 10.6302 18.2668 10.6102 18.4905C10.6087 18.5073 10.6071 18.5227 10.6055 18.5369C10.5941 18.5284 10.5817 18.5191 10.5683 18.5088C10.3904 18.3717 10.1575 18.1576 9.79168 17.8195L3.62155 12.1172C3.42708 11.9375 3.31975 11.8374 3.24843 11.7594C3.24543 11.7561 3.24261 11.753 3.23997 11.75C3.24261 11.7471 3.24543 11.7439 3.24843 11.7406C3.31975 11.6627 3.42708 11.5625 3.62155 11.3828L9.79168 5.68057C10.1575 5.34247 10.3904 5.12831 10.5683 4.99123C10.5817 4.98092 10.5941 4.97159 10.6055 4.96315ZM20.6503 18.9001C20.6504 18.8989 20.6504 18.8974 20.6505 18.8954C20.6492 18.9063 20.6497 18.9087 20.6503 18.9001Z" fill="black"/>
</svg>
