<svg width="24" height="24" viewBox="0 0 24 24" fill="none" xmlns="http://www.w3.org/2000/svg">
<path fill-rule="evenodd" clip-rule="evenodd" d="M12.0004 4.00498C11.5975 3.52181 10.9908 3.25636 10.3625 3.28841C9.85474 3.31431 9.44792 3.58972 9.16809 3.80541C8.87483 4.03145 8.52888 4.35119 8.13299 4.7171L2.56452 9.86331C2.36506 10.0476 2.17245 10.2256 2.02295 10.389C1.86 10.5672 1.68218 10.7968 1.57763 11.1021C1.43382 11.5221 1.43382 11.9779 1.57763 12.3979C1.68218 12.7032 1.86 12.9328 2.02295 13.111C2.17244 13.2744 2.36504 13.4524 2.56449 13.6367L8.13293 18.7828C8.52885 19.1488 8.87481 19.4685 9.16809 19.6946C9.44792 19.9103 9.85474 20.1857 10.3625 20.2116C10.9908 20.2436 11.5975 19.9782 12.0004 19.495C12.326 19.1046 12.3999 18.6189 12.4314 18.267C12.4644 17.8982 12.4644 17.4271 12.4644 16.888L12.4644 16.2826C15.4841 16.4832 17.4727 17.5763 18.7243 18.631L18.748 18.651C19.2074 19.0381 19.5824 19.3541 19.867 19.5705C20.0108 19.6799 20.162 19.7875 20.3096 19.8707C20.4167 19.9311 20.694 20.083 21.0407 20.0707C21.2663 20.0627 21.5134 20.0093 21.7502 19.8719C21.9869 19.7345 22.1559 19.5465 22.2748 19.3545C22.4427 19.0833 22.4624 18.8011 22.4666 18.6633C22.4717 18.4985 22.4564 18.3258 22.4368 18.1666C22.3985 17.8551 22.3225 17.44 22.2321 16.9462L22.226 16.9129C21.8784 15.0146 21.1256 12.6102 19.4736 10.6648C17.9414 8.86056 15.688 7.51535 12.4644 7.285L12.4644 6.61203C12.4644 6.07292 12.4644 5.60183 12.4314 5.23304C12.3999 4.88113 12.326 4.39544 12.0004 4.00498ZM10.4338 5.35577C10.4357 5.37275 10.4375 5.39128 10.4394 5.41146C10.4634 5.67983 10.4644 6.05953 10.4644 6.65731V8.25C10.4644 8.80228 10.9121 9.25 11.4644 9.25C14.652 9.25 16.65 10.4295 17.9492 11.9594C19.2823 13.5293 19.9426 15.5464 20.2586 17.273C20.2612 17.2871 20.2638 17.301 20.2663 17.3148C20.1868 17.248 20.1025 17.1769 20.0131 17.1016C18.2897 15.6494 15.5521 14.25 11.4644 14.25C11.1991 14.25 10.9448 14.3554 10.7573 14.5429C10.5697 14.7304 10.4644 14.9848 10.4644 15.25V16.8427C10.4644 17.4405 10.4634 17.8202 10.4394 18.0885C10.4375 18.1087 10.4357 18.1272 10.4338 18.1442C10.42 18.1341 10.4051 18.1229 10.3891 18.1105C10.1757 17.946 9.89615 17.6891 9.45714 17.2833L3.94657 12.1906C3.71321 11.975 3.58442 11.8548 3.49883 11.7612C3.49523 11.7573 3.49184 11.7535 3.48867 11.75C3.49184 11.7465 3.49523 11.7427 3.49883 11.7388C3.58442 11.6452 3.71321 11.525 3.94657 11.3094L9.45714 6.21667C9.89615 5.81094 10.1757 5.55395 10.3891 5.38946C10.4051 5.37709 10.42 5.3659 10.4338 5.35577ZM21.2963 18.1309C21.2963 18.1309 21.2958 18.1306 21.2947 18.1301ZM20.4676 18.5962C20.4665 18.6095 20.4672 18.6124 20.4676 18.6018C20.4676 18.6004 20.4676 18.5986 20.4676 18.5962Z" fill="black"/>
<path fill-rule="evenodd" clip-rule="evenodd" d="M11.4644 8.25V6.65731C11.4644 5.5015 11.4644 4.9236 11.2324 4.6454C11.0309 4.40381 10.7276 4.27109 10.4134 4.28712C10.0517 4.30557 9.62726 4.6978 8.77843 5.48226L3.26786 10.575C2.82632 10.983 2.60554 11.187 2.52371 11.426C2.4518 11.636 2.4518 11.864 2.52371 12.074C2.60554 12.313 2.82632 12.517 3.26786 12.925L8.77843 18.0177C9.62726 18.8022 10.0517 19.1944 10.4134 19.2129C10.7276 19.2289 11.0309 19.0962 11.2324 18.8546C11.4644 18.5764 11.4644 17.9985 11.4644 16.8427V15.25C15.3022 15.25 17.8145 16.5567 19.3687 17.8663C20.3276 18.6743 20.8071 19.0783 21.0053 19.0713C21.1929 19.0647 21.3258 18.9875 21.4246 18.828C21.5291 18.6594 21.4335 18.1372 21.2423 17.0929C20.5787 13.468 18.4161 8.25 11.4644 8.25Z" fill="black"/>
</svg>
