<svg xmlns="http://www.w3.org/2000/svg" width="24" height="24" viewBox="0 0 24 24">
  <path d="M20,12 C21.0543618,12 21.9181651,12.8158778 21.9945143,13.8507377 L22,14 L22,20 C22,21.0543618 21.1841222,21.9181651 20.1492623,21.9945143 L20,22 L14,22 C12.9456382,22 12.0818349,21.1841222 12.0054857,20.1492623 L12,20 L12,14 C12,12.9456382 12.8158778,12.0818349 13.8507377,12.0054857 L14,12 L20,12 Z M5.11289944,13.7097046 L5.20710678,13.7928932 L7.70710678,16.2928932 C8.09763107,16.6834175 8.09763107,17.3165825 7.70710678,17.7071068 C7.34662282,18.0675907 6.77939176,18.0953203 6.38710056,17.7902954 L6.29289322,17.7071068 L5.5,16.915 L5.5,19 C5.5,19.5128358 5.88604019,19.9355072 6.38337887,19.9932723 L6.5,20 L9,20 C9.55228475,20 10,20.4477153 10,21 C10,21.5128358 9.61395981,21.9355072 9.11662113,21.9932723 L9,22 L6.5,22 C4.90231912,22 3.59633912,20.75108 3.50509269,19.1762728 L3.5,19 L3.5,16.914 L2.70710678,17.7071068 C2.34662282,18.0675907 1.77939176,18.0953203 1.38710056,17.7902954 L1.29289322,17.7071068 C0.932409257,17.3466228 0.904679722,16.7793918 1.20970461,16.3871006 L1.29289322,16.2928932 L3.79289322,13.7928932 C4.15337718,13.4324093 4.72060824,13.4046797 5.11289944,13.7097046 Z M20,14 L14,14 L14,20 L20,20 L20,14 Z M10,2 C11.0543618,2 11.9181651,2.81587779 11.9945143,3.85073766 L12,4 L12,10 C12,11.0543618 11.1841222,11.9181651 10.1492623,11.9945143 L10,12 L4,12 C2.9456382,12 2.08183488,11.1841222 2.00548574,10.1492623 L2,10 L2,4 C2,2.9456382 2.81587779,2.08183488 3.85073766,2.00548574 L4,2 L10,2 Z M17.5,2 C19.0976809,2 20.4036609,3.24891996 20.4949073,4.82372721 L20.5,5 L20.5,7.084 L21.2928932,6.29289322 C21.6533772,5.93240926 22.2206082,5.90467972 22.6128994,6.20970461 L22.7071068,6.29289322 C23.0675907,6.65337718 23.0953203,7.22060824 22.7902954,7.61289944 L22.7071068,7.70710678 L20.2071068,10.2071068 C19.8466228,10.5675907 19.2793918,10.5953203 18.8871006,10.2902954 L18.7928932,10.2071068 L16.2928932,7.70710678 C15.9023689,7.31658249 15.9023689,6.68341751 16.2928932,6.29289322 C16.6533772,5.93240926 17.2206082,5.90467972 17.6128994,6.20970461 L17.7071068,6.29289322 L18.5,7.085 L18.5,5 C18.5,4.48716416 18.1139598,4.06449284 17.6166211,4.00672773 L17.5,4 L15,4 C14.4477153,4 14,3.55228475 14,3 C14,2.48716416 14.3860402,2.06449284 14.8833789,2.00672773 L15,2 L17.5,2 Z M10,4 L4,4 L4,10 L10,10 L10,4 Z"/>
</svg>
