<svg width="24" height="24" viewBox="0 0 24 24" fill="none" xmlns="http://www.w3.org/2000/svg">
<path fill-rule="evenodd" clip-rule="evenodd" d="M15.35 1C19.6073 1 23 4.39271 23 8.65C23 12.9073 19.6073 16.3 15.35 16.3C14.607 16.3 13.8908 16.1926 13.2158 15.9984L12.2571 16.9571C12.0696 17.1446 11.8152 17.25 11.55 17.25H10.65V18.15C10.65 18.7023 10.2023 19.15 9.65 19.15H8.75V20.05C8.75 20.3152 8.64464 20.5696 8.45711 20.7571L7.80398 21.4102C7.46137 21.7528 7.0099 22 6.41406 22H3.95C3.43775 22 2.93317 21.8249 2.55414 21.4459C2.17511 21.0668 2 20.5622 2 20.05V17.5859C2 16.9901 2.24716 16.5386 2.58977 16.196L8.00158 10.7842C7.80738 10.1092 7.7 9.39303 7.7 8.65C7.7 4.39271 11.0927 1 15.35 1ZM7.75 17.15H8.65V16.25C8.65 15.6977 9.09772 15.25 9.65 15.25H11.1358L12.2382 14.1476C12.5169 13.8688 12.9334 13.7799 13.3018 13.9204C13.9372 14.1628 14.6274 14.3 15.35 14.3C18.5027 14.3 21 11.8027 21 8.65C21 5.49728 18.5027 3 15.35 3C12.1973 3 9.7 5.49728 9.7 8.65C9.7 9.37255 9.83721 10.0628 10.0796 10.6982C10.2201 11.0666 10.1312 11.4831 9.85242 11.7618L4.00398 17.6102L4 17.6143V20H6.38574L6.38977 19.996L6.75 19.6358V18.15C6.75 17.5977 7.19772 17.15 7.75 17.15ZM14.4 7.22498C14.4 5.89498 15.445 4.84998 16.775 4.84998C18.105 4.84998 19.15 5.89498 19.15 7.22498C19.15 8.55498 18.105 9.59998 16.775 9.59998C15.445 9.59998 14.4 8.55498 14.4 7.22498Z" fill="white"/>
</svg>
