<svg width="24" height="24" viewBox="0 0 24 24" fill="none" xmlns="http://www.w3.org/2000/svg">
<path fill-rule="evenodd" clip-rule="evenodd" d="M14.5641 5.56574C14.7137 5.03411 15.266 4.72444 15.7976 4.87408C16.0782 4.95306 16.3568 5.04934 16.6321 5.16336C16.9073 5.27737 17.1724 5.40628 17.4267 5.54885C17.9084 5.81896 18.08 6.42844 17.8098 6.91017C17.5397 7.39189 16.9303 7.56344 16.4485 7.29333C16.2629 7.18927 16.0689 7.09486 15.8667 7.01112C15.6645 6.92737 15.4606 6.85692 15.2558 6.79927C14.7241 6.64964 14.4145 6.09737 14.5641 5.56574ZM18.8895 7.9912C19.3711 7.72084 19.9807 7.89207 20.2511 8.37365C20.5398 8.88792 20.7664 9.43512 20.9259 10.0029C21.0753 10.5346 20.7653 11.0867 20.2336 11.2361C19.7019 11.3855 19.1498 11.0755 19.0004 10.5438C18.8839 10.1288 18.7181 9.72863 18.5071 9.35271C18.2367 8.87113 18.408 8.26156 18.8895 7.9912ZM20.2346 12.764C20.7662 12.9136 21.0759 13.4659 20.9262 13.9975C20.8472 14.2781 20.751 14.5567 20.6369 14.8319C20.5229 15.1072 20.394 15.3723 20.2514 15.6265C19.9813 16.1083 19.3719 16.2798 18.8901 16.0097C18.4084 15.7396 18.2369 15.1301 18.507 14.6484C18.611 14.4628 18.7054 14.2688 18.7892 14.0666C18.8729 13.8644 18.9434 13.6604 19.001 13.4556C19.1507 12.924 19.7029 12.6143 20.2346 12.764ZM17.8091 17.0894C18.0795 17.571 17.9082 18.1806 17.4266 18.4509C16.9124 18.7396 16.3652 18.9663 15.7974 19.1258C15.2657 19.2751 14.7136 18.9652 14.5642 18.4335C14.4149 17.9018 14.7248 17.3497 15.2565 17.2003C15.6716 17.0837 16.0717 16.918 16.4476 16.7069C16.9292 16.4366 17.5387 16.6078 17.8091 17.0894Z" fill="black"/>
<path fill-rule="evenodd" clip-rule="evenodd" d="M11.1026 3.04431C12.1969 2.93583 13.0002 3.8355 13.0002 4.80004V19.2001C13.0002 20.1646 12.1969 21.0643 11.1026 20.9558C6.55293 20.5047 3.00012 16.6679 3.00012 12.0001C3.00012 7.3322 6.55293 3.49538 11.1026 3.04431ZM11.0002 5.07081C7.60829 5.55549 5.00012 8.47376 5.00012 12.0001C5.00012 15.5263 7.60828 18.4446 11.0002 18.9293V5.07081Z" fill="black"/>
<path fill-rule="evenodd" clip-rule="evenodd" d="M12.3072 4.69287C12.6977 5.0834 12.6977 5.71656 12.3072 6.10709L4.90716 13.5071C4.51663 13.8976 3.88347 13.8976 3.49294 13.5071C3.10242 13.1166 3.10242 12.4834 3.49295 12.0929L10.8929 4.69287C11.2835 4.30235 11.9166 4.30235 12.3072 4.69287Z" fill="black"/>
<path fill-rule="evenodd" clip-rule="evenodd" d="M12.7072 9.29287C13.0977 9.6834 13.0977 10.3166 12.7072 10.7071L6.27138 17.1429C5.88086 17.5334 5.24769 17.5334 4.85717 17.1429C4.46664 16.7524 4.46664 16.1192 4.85716 15.7287L11.2929 9.29287C11.6835 8.90235 12.3166 8.90235 12.7072 9.29287Z" fill="black"/>
<path fill-rule="evenodd" clip-rule="evenodd" d="M12.7072 14.2929C13.0977 14.6834 13.0977 15.3166 12.7072 15.7071L8.89117 19.5231C8.50065 19.9136 7.86748 19.9136 7.47696 19.5231C7.08643 19.1326 7.08643 18.4994 7.47695 18.1089L11.2929 14.2929C11.6835 13.9023 12.3166 13.9023 12.7072 14.2929Z" fill="black"/>
</svg>
