<svg width="24" height="24" viewBox="0 0 24 24" fill="none" xmlns="http://www.w3.org/2000/svg">
<path fill-rule="evenodd" clip-rule="evenodd" d="M5.01281 11.573C5.23349 7.90584 8.2774 5 12 5C15.866 5 19 8.13401 19 12C19 15.866 15.866 19 12 19C11.4477 19 11 19.4477 11 20C11 20.5523 11.4477 21 12 21C16.9706 21 21 16.9706 21 12C21 7.02944 16.9706 3 12 3C7.16524 3 3.22089 6.81226 3.00896 11.5947L1.70711 10.2929C1.31658 9.90237 0.683417 9.90237 0.292893 10.2929C-0.097631 10.6834 -0.097631 11.3166 0.292893 11.7071L3.29289 14.7071C3.68342 15.0976 4.31658 15.0976 4.70711 14.7071L7.70711 11.7071C8.09763 11.3166 8.09763 10.6834 7.70711 10.2929C7.31658 9.90237 6.68342 9.90237 6.29289 10.2929L5.01281 11.573Z" fill="black"/>
</svg>
