<svg width="24" height="24" viewBox="0 0 24 24" fill="none" xmlns="http://www.w3.org/2000/svg">
<path fill-rule="evenodd" clip-rule="evenodd" d="M13.5869 1.41302C13.911 1.73716 13.911 2.26269 13.5869 2.58682L12.0038 4.16992L13 4.16992C17.8767 4.16992 21.83 8.12325 21.83 12.9999C21.83 17.8766 17.8767 21.8299 13 21.8299C11.8306 21.8299 10.7123 21.6021 9.68859 21.1878C9.26368 21.0158 9.05866 20.5319 9.23066 20.107C9.40265 19.6821 9.88654 19.477 10.3114 19.649C11.1406 19.9847 12.0477 20.1699 13 20.1699C16.9599 20.1699 20.17 16.9598 20.17 12.9999C20.17 9.04004 16.9599 5.82992 13 5.82992L12.0038 5.82992L13.5869 7.41302C13.911 7.73716 13.911 8.26269 13.5869 8.58682C13.2628 8.91096 12.7373 8.91096 12.4131 8.58682L9.41312 5.58682C9.08898 5.26269 9.08898 4.73716 9.41312 4.41302L12.4131 1.41302C12.7373 1.08889 13.2628 1.08889 13.5869 1.41302ZM6.43451 8.1737C6.80206 8.05428 7.19797 8.05428 7.56552 8.1737C7.82539 8.25814 8.02768 8.40215 8.19448 8.54376C8.34825 8.67429 8.51754 8.84362 8.69838 9.02448L8.71828 9.04439L10.9555 11.2817L10.9755 11.3016L10.9755 11.3016C11.1563 11.4824 11.3256 11.6517 11.4562 11.8055C11.5978 11.9723 11.7418 12.1745 11.8262 12.4344C11.9457 12.802 11.9457 13.1979 11.8262 13.5654C11.7418 13.8253 11.5978 14.0276 11.4562 14.1944C11.3256 14.3482 11.1563 14.5175 10.9754 14.6983L10.9555 14.7182L8.71828 16.9555L8.69839 16.9753C8.51755 17.1562 8.34825 17.3255 8.19448 17.4561C8.02768 17.5977 7.82539 17.7417 7.56552 17.8261C7.19797 17.9456 6.80206 17.9456 6.43451 17.8261C6.17464 17.7417 5.97235 17.5977 5.80555 17.4561C5.6518 17.3256 5.48253 17.1563 5.30172 16.9754L5.30165 16.9754L5.30164 16.9753L5.28175 16.9554L3.04449 14.7182L3.02458 14.6983L3.02455 14.6983L3.0245 14.6982C2.84367 14.5174 2.67437 14.3481 2.54385 14.1944C2.40224 14.0276 2.25823 13.8253 2.1738 13.5654C2.05437 13.1979 2.05437 12.802 2.1738 12.4344C2.25823 12.1745 2.40224 11.9723 2.54385 11.8055C2.67439 11.6517 2.84371 11.4824 3.02457 11.3016L3.04449 11.2817L5.28175 9.04439L5.30166 9.02448L5.30166 9.02447L5.30168 9.02446C5.4825 8.84361 5.65179 8.67429 5.80555 8.54376C5.97235 8.40215 6.17464 8.25814 6.43451 8.1737ZM6.95765 9.7495C6.94724 9.75607 6.92264 9.77293 6.87986 9.80924C6.78416 9.89048 6.66324 10.0105 6.45554 10.2182L4.21828 12.4555C4.01059 12.6631 3.89058 12.7841 3.80933 12.8798C3.77302 12.9225 3.75616 12.9471 3.74959 12.9576C3.74244 12.9853 3.74244 13.0145 3.74959 13.0423C3.75616 13.0527 3.77302 13.0773 3.80933 13.1201C3.89057 13.2158 4.01059 13.3367 4.21828 13.5444L6.45554 15.7817C6.66324 15.9893 6.78416 16.1094 6.87986 16.1906C6.92264 16.2269 6.94724 16.2438 6.95765 16.2503C6.98544 16.2575 7.01459 16.2575 7.04238 16.2503C7.05279 16.2438 7.07739 16.2269 7.12017 16.1906C7.21586 16.1094 7.33679 15.9893 7.54449 15.7817L9.78175 13.5444C9.98944 13.3367 10.1095 13.2158 10.1907 13.1201C10.227 13.0773 10.2439 13.0527 10.2504 13.0423C10.2576 13.0145 10.2576 12.9853 10.2504 12.9576C10.2439 12.9471 10.227 12.9225 10.1907 12.8798C10.1095 12.7841 9.98944 12.6631 9.78175 12.4555L7.54449 10.2182C7.33679 10.0105 7.21587 9.89048 7.12017 9.80924C7.07739 9.77293 7.05279 9.75607 7.04238 9.7495C7.01459 9.74235 6.98544 9.74235 6.95765 9.7495Z" fill="white"/>
</svg>
