<svg width="24" height="24" viewBox="0 0 24 24" fill="none" xmlns="http://www.w3.org/2000/svg">
<path fill-rule="evenodd" clip-rule="evenodd" d="M18.9872 11.573C18.7665 7.90584 15.7226 5 12 5C8.13401 5 5 8.13401 5 12C5 15.866 8.13401 19 12 19C12.5523 19 13 19.4477 13 20C13 20.5523 12.5523 21 12 21C7.02944 21 3 16.9706 3 12C3 7.02944 7.02944 3 12 3C16.8348 3 20.7791 6.81226 20.991 11.5947L22.2929 10.2929C22.6834 9.90237 23.3166 9.90237 23.7071 10.2929C24.0976 10.6834 24.0976 11.3166 23.7071 11.7071L20.7071 14.7071C20.3166 15.0976 19.6834 15.0976 19.2929 14.7071L16.2929 11.7071C15.9024 11.3166 15.9024 10.6834 16.2929 10.2929C16.6834 9.90237 17.3166 9.90237 17.7071 10.2929L18.9872 11.573Z" fill="black"/>
</svg>
