<svg width="30" height="30" viewBox="0 0 30 30" fill="none" xmlns="http://www.w3.org/2000/svg">
<path d="M19.3902 6.03227C17.3914 4.162 14.595 3 11.5 3C5.42487 3 0.5 7.47715 0.5 13C0.5 16.1499 1.97133 18.7318 4.47498 20.5647C4.79515 20.7991 5.09005 22.1016 4.37638 23.1956C4.08455 23.643 3.76327 23.991 3.51594 24.2589C3.15843 24.6462 2.95542 24.8661 3.21917 24.9767C3.49426 25.0921 5.11974 25.1492 6.29294 24.4912C7.21121 23.9763 7.76736 23.4625 8.14189 23.1166C8.45158 22.8305 8.63709 22.6592 8.80048 22.6967C9.3863 22.831 9.99081 22.9227 10.6098 22.9677C10.6182 22.9683 10.6267 22.9689 10.6351 22.9695C10.9205 22.9897 11.2089 23 11.5 23C17.5751 23 22.5 18.5228 22.5 13C22.5 10.2908 21.3149 7.83317 19.3902 6.03227Z" fill="#717579"/>
<path d="M29.5 16C29.5 12.0932 27.0356 8.70967 23.4429 7.06405C23.0059 6.86387 22.6121 7.37581 22.8411 7.79849C23.6828 9.35273 24.16 11.1145 24.16 13C24.16 18.6043 19.944 23.1149 14.4721 24.3341C13.9915 24.4412 13.8851 25.0914 14.3467 25.2627C15.6282 25.738 17.0305 26 18.5 26C19.4314 26 20.3358 25.8948 21.1995 25.6967C21.3629 25.6592 21.5484 25.8305 21.8581 26.1166C22.2326 26.4625 22.7888 26.9763 23.7071 27.4912C24.8803 28.1492 26.5057 28.0921 26.7808 27.9767C27.0446 27.8661 26.8416 27.6462 26.4841 27.2589C26.2367 26.991 25.9155 26.643 25.6236 26.1956C24.91 25.1016 25.2048 23.7991 25.525 23.5647C28.0287 21.7318 29.5 19.1499 29.5 16Z" fill="#717579"/>
</svg>
