<svg width="24" height="24" viewBox="0 0 24 24" fill="none" xmlns="http://www.w3.org/2000/svg">
<path fill-rule="evenodd" clip-rule="evenodd" d="M12.5816 2.40781C12.2587 2.09063 11.7413 2.09063 11.4184 2.40781L6.47461 7.26406L6.47459 7.26403L6.46935 7.26927C5.75705 7.98157 5.19551 8.79468 4.78897 9.70532C4.37331 10.6364 4.17 11.6423 4.17 12.7124C4.17 14.8455 4.94116 16.6874 6.46158 18.1915C7.98245 19.6961 9.84458 20.4549 12 20.4549C14.1554 20.4549 16.0175 19.6961 17.5384 18.1915C19.0588 16.6874 19.83 14.8455 19.83 12.7124C19.83 11.6423 19.6267 10.6364 19.211 9.70532C18.8045 8.79468 18.2429 7.98157 17.5306 7.26927L17.5307 7.26925L17.5254 7.26406L12.5816 2.40781ZM6.30478 10.382C6.62693 9.6604 7.0708 9.01601 7.64062 8.44559L12 4.16338V18.7949C10.2762 18.7949 8.83525 18.2047 7.62905 17.0114C6.42238 15.8177 5.83 14.4002 5.83 12.7124C5.83 11.8575 5.99127 11.0843 6.30478 10.382Z" fill="white"/>
</svg>
