<svg width="24" height="24" viewBox="0 0 24 24" fill="none" xmlns="http://www.w3.org/2000/svg">
<path d="M4 9.4C4 7.15979 4 6.03968 4.43597 5.18404C4.81947 4.43139 5.43139 3.81947 6.18404 3.43597C7.03968 3 8.15979 3 10.4 3H13.6C15.8402 3 16.9603 3 17.816 3.43597C18.5686 3.81947 19.1805 4.43139 19.564 5.18404C20 6.03968 20 7.15979 20 9.4V17.9128C20 19.5983 20 20.441 19.659 20.856C19.3627 21.2167 18.9155 21.4188 18.4491 21.403C17.9122 21.3847 17.2796 20.828 16.0144 19.7144L13.5856 17.5768C13.0241 17.0826 12.7433 16.8355 12.427 16.7416C12.1484 16.6588 11.8516 16.6588 11.573 16.7416C11.2567 16.8355 10.9759 17.0826 10.4144 17.5768L7.98563 19.7144C6.7204 20.828 6.08779 21.3847 5.55094 21.403C5.0845 21.4188 4.63726 21.2167 4.34099 20.856C4 20.441 4 19.5983 4 17.9128V9.4Z" fill="black"/>
</svg>
