<svg width="24" height="24" viewBox="0 0 24 24" fill="none" xmlns="http://www.w3.org/2000/svg">
<path d="M14.6052 2.99985C14.851 2.99984 15.137 2.99326 15.4167 3.06039C15.6411 3.11427 15.8558 3.20356 16.0525 3.32407C16.2978 3.47443 16.4959 3.68152 16.6697 3.85532L17.6218 4.80746C17.6912 4.87686 17.7296 4.91494 17.7585 4.94223C17.7685 4.95158 17.7746 4.9577 17.7781 4.96078C17.8041 4.97996 17.835 4.99299 17.8669 4.99789C17.8715 4.99819 17.8804 4.99844 17.8953 4.99887C17.935 5.00001 17.9885 4.99985 18.0867 4.99985C18.8626 4.99984 19.4762 4.98831 20.0017 5.15024C21.0763 5.48156 21.9184 6.32369 22.2498 7.39828C22.4117 7.92377 22.4002 8.53755 22.4001 9.31332V15.16C22.4001 15.8151 22.4007 16.3671 22.364 16.8172C22.3263 17.279 22.2444 17.7224 22.03 18.1434C21.756 18.6811 21.3428 19.1323 20.8386 19.4569C21.0902 19.8444 21.0466 20.3671 20.7068 20.7069C20.3163 21.0974 19.6832 21.0974 19.2927 20.7069L3.29272 4.70688C2.90241 4.31635 2.90231 3.68328 3.29272 3.29282C3.68318 2.90236 4.31625 2.90249 4.70679 3.29282L6.41382 4.99985C6.51102 4.99981 6.61089 4.99985 6.71362 4.99985C6.81183 4.99985 6.86527 5.00002 6.90503 4.99887C6.91992 4.99844 6.92881 4.99819 6.93335 4.99789C6.96535 4.99298 6.99616 4.98001 7.02222 4.96078C7.0257 4.95767 7.03188 4.95154 7.04175 4.94223C7.07069 4.91492 7.10896 4.87697 7.17847 4.80746L8.13062 3.85532C8.30445 3.68148 8.50241 3.47445 8.7478 3.32407C8.94456 3.20353 9.15918 3.11427 9.38354 3.06039C9.66329 2.99326 9.9493 2.99984 10.1951 2.99985H14.6052ZM4.66675 7.5809C4.57858 7.70292 4.50827 7.83942 4.46265 7.98715C4.41176 8.15235 4.40015 8.39003 4.40015 9.31332V15.16C4.40015 15.8481 4.40088 16.3052 4.42944 16.6551C4.45704 16.9923 4.50562 17.143 4.55249 17.2352C4.68669 17.4985 4.90153 17.7133 5.16479 17.8475C5.25702 17.8944 5.40742 17.9429 5.74487 17.9706C6.09486 17.9991 6.55165 17.9998 7.23999 17.9998H15.0857L17.0857 19.9998H7.23999C6.58477 19.9998 6.03299 20.0005 5.58276 19.9637C5.12089 19.926 4.67761 19.8442 4.25659 19.6297C3.617 19.3038 3.09621 18.783 2.77026 18.1434C2.5559 17.7225 2.47402 17.279 2.43628 16.8172C2.39955 16.3671 2.40015 15.8151 2.40015 15.16V9.31332C2.40014 8.53751 2.38862 7.92379 2.55054 7.39828C2.69371 6.93398 2.93255 6.51302 3.2439 6.15805L4.66675 7.5809ZM9.89331 5.00278C9.87122 5.00379 9.85755 5.00494 9.85034 5.00571C9.83014 5.01059 9.81046 5.01832 9.79272 5.02914C9.80427 5.02203 9.79952 5.02284 9.7605 5.05844C9.71426 5.10064 9.65434 5.15972 9.54468 5.26938L8.59253 6.22153C8.48217 6.33189 8.3562 6.462 8.20972 6.57016C8.16608 6.60237 8.12068 6.63219 8.07495 6.66098L9.73413 8.32016C10.4943 7.80333 11.4116 7.49986 12.4001 7.49985C15.0233 7.49993 17.1499 9.62672 17.1501 12.2498C17.1501 13.2383 16.8459 14.155 16.3289 14.9149L19.3474 17.9334C19.4913 17.9078 19.5757 17.8779 19.6355 17.8475C19.8988 17.7133 20.1136 17.4985 20.2478 17.2352C20.2947 17.143 20.3433 16.9924 20.3708 16.6551C20.3994 16.3052 20.4001 15.8481 20.4001 15.16V9.31332C20.4001 8.39018 20.3885 8.15235 20.3376 7.98715C20.2011 7.54511 19.8549 7.19882 19.4128 7.06235C19.2476 7.01146 19.0101 6.99985 18.0867 6.99985C17.9306 6.99985 17.7492 7.00254 17.5691 6.97543C17.2149 6.92201 16.8788 6.78282 16.5906 6.57016C16.4442 6.46205 16.3181 6.33185 16.2078 6.22153L15.2556 5.26938C15.1461 5.15985 15.086 5.10063 15.0398 5.05844C15.0008 5.0229 14.9961 5.02205 15.0076 5.02914C14.9899 5.01835 14.9701 5.01059 14.95 5.00571C14.9428 5.00495 14.9291 5.0038 14.907 5.00278C14.8445 4.99992 14.7603 4.99985 14.6052 4.99985H10.1951C10.04 4.99985 9.95584 4.99992 9.89331 5.00278ZM9.67261 12.5868C9.82535 13.8355 10.8136 14.8232 12.0623 14.9764L13.8562 16.7704C13.3972 16.9181 12.9083 16.9998 12.4001 16.9998C9.77688 16.9998 7.65025 14.8731 7.65015 12.2498C7.65019 11.7416 7.73084 11.2519 7.87866 10.7928L9.67261 12.5868ZM12.4001 9.49985C11.9671 9.49986 11.5581 9.6014 11.1941 9.78012L14.8689 13.4549C15.0478 13.0912 15.1501 12.6828 15.1501 12.2498C15.1499 10.7313 13.9187 9.49993 12.4001 9.49985Z" fill="black"/>
</svg>
