<svg width="24" height="24" viewBox="0 0 24 24" fill="none" xmlns="http://www.w3.org/2000/svg">
<path fill-rule="evenodd" clip-rule="evenodd" d="M19.9456 11.9623L19.9457 12L19.9456 12.0375V12.0375C19.9422 12.6782 19.9405 12.9985 19.9904 13.1892C20.0431 13.3904 20.0891 13.4907 20.2073 13.6618C20.3193 13.824 20.4998 13.9776 20.8608 14.2847L20.8882 14.308C21.4263 14.7659 21.6954 14.9948 21.833 15.2788C21.9543 15.5291 22.0036 15.8083 21.9753 16.085C21.9433 16.3989 21.7689 16.7061 21.4201 17.3206L21.2203 17.6727L21.2202 17.6728C20.8857 18.2621 20.7185 18.5567 20.4809 18.7407C20.2341 18.9319 19.9338 19.0413 19.6218 19.0537C19.3216 19.0656 19.004 18.9476 18.3688 18.7116C17.9343 18.5502 17.717 18.4694 17.5308 18.4494C17.2979 18.4243 17.178 18.4348 16.953 18.4999C16.7731 18.552 16.5025 18.7107 15.9612 19.028L15.9364 19.0424C15.3817 19.3649 15.1044 19.5261 14.9662 19.6645C14.8155 19.8153 14.7524 19.9061 14.6636 20.1C14.5822 20.2777 14.5412 20.5163 14.4592 20.9934C14.3358 21.7107 14.2742 22.0694 14.0961 22.3351C13.9391 22.5693 13.7193 22.7545 13.4619 22.8695C13.1699 23 12.8105 23 12.0916 23H11.8087C11.09 23 10.7306 23 10.4387 22.8696C10.1813 22.7546 9.96148 22.5694 9.80451 22.3353C9.62644 22.0696 9.56469 21.711 9.44118 20.9936C9.35895 20.5159 9.31783 20.277 9.23622 20.0991C9.14757 19.9058 9.08457 19.8152 8.93432 19.6647C8.79602 19.5261 8.5186 19.3648 7.96377 19.0422L7.93845 19.0274C7.39788 18.7104 7.12759 18.5519 6.94763 18.4998C6.72276 18.4347 6.6025 18.4242 6.36975 18.4492C6.18347 18.4693 5.96629 18.55 5.53193 18.7115L5.5319 18.7115C4.89669 18.9476 4.57908 19.0656 4.27879 19.0537C3.96689 19.0413 3.66662 18.932 3.41982 18.7409C3.18221 18.5569 3.0149 18.2622 2.68028 17.6729L2.4803 17.3207C2.13136 16.7062 1.95689 16.399 1.92484 16.0851C1.89658 15.8083 1.94585 15.5291 2.06715 15.2787C2.20472 14.9947 2.47383 14.7658 3.01205 14.3078L3.04111 14.2831L3.04112 14.2831C3.4011 13.9768 3.58109 13.8236 3.69316 13.6614C3.81116 13.4905 3.85753 13.3894 3.91006 13.1885C3.95995 12.9977 3.95812 12.6784 3.95447 12.04L3.95436 12L3.95447 11.9598C3.95815 11.3214 3.95999 11.0023 3.91012 10.8115C3.85762 10.6106 3.81126 10.5095 3.6933 10.3386C3.58127 10.1764 3.40134 10.0232 3.04147 9.71692L3.04146 9.71691L3.0117 9.69158C2.4736 9.23357 2.20455 9.00457 2.06703 8.7206C1.94577 8.47021 1.89654 8.19104 1.92483 7.91428C1.95691 7.6004 2.1314 7.29317 2.48037 6.67872L2.68017 6.32692C3.01486 5.73761 3.1822 5.44296 3.41986 5.25898C3.66662 5.06794 3.96682 4.95863 4.27864 4.94626C4.57895 4.93434 4.89658 5.05239 5.53183 5.2885L5.53184 5.2885C5.96627 5.44996 6.18349 5.53069 6.36979 5.55076C6.6025 5.57582 6.72273 5.56531 6.94756 5.50021C7.12755 5.4481 7.39787 5.28959 7.9385 4.97256L7.93851 4.97255L7.96377 4.9578L7.96377 4.9578C8.5186 4.63518 8.79602 4.47387 8.93432 4.33534C9.08457 4.18485 9.14757 4.09418 9.23622 3.90089C9.31783 3.72296 9.35895 3.48412 9.44118 3.00644L9.44118 3.00643C9.56469 2.28905 9.62644 1.93036 9.80451 1.66474C9.96148 1.43058 10.1813 1.2454 10.4387 1.13042C10.7306 1 11.09 1 11.8087 1H12.0916C12.8105 1 13.1699 1 13.4619 1.13046C13.7193 1.24547 13.9391 1.43071 14.0961 1.66493C14.2742 1.93062 14.3358 2.28926 14.4592 3.00656C14.5412 3.48369 14.5822 3.72226 14.6636 3.90004C14.7524 4.09386 14.8155 4.1847 14.9662 4.33552C15.1044 4.47385 15.3817 4.63509 15.9364 4.95758L15.9611 4.972C16.5025 5.28935 16.7731 5.44802 16.9531 5.5001C17.178 5.56522 17.2979 5.57571 17.5308 5.55063C17.717 5.53057 17.9343 5.44984 18.3688 5.28837C19.0041 5.05233 19.3217 4.93431 19.622 4.94624C19.9339 4.95863 20.2341 5.068 20.4809 5.25912C20.7185 5.44313 20.8858 5.73779 21.2204 6.32711L21.4201 6.67884C21.7689 7.29325 21.9433 7.60046 21.9753 7.91431C22.0036 8.19104 21.9544 8.47018 21.8331 8.72054C21.6956 9.00447 21.4266 9.23344 20.8886 9.69137L20.8885 9.69138L20.8605 9.71527C20.4996 10.0224 20.3192 10.176 20.2072 10.3382C20.089 10.5093 20.043 10.6096 19.9903 10.8108C19.9404 11.0014 19.9422 11.3217 19.9456 11.9623ZM12 15C13.6569 15 15 13.6569 15 12C15 10.3431 13.6569 9 12 9C10.3432 9 9.00002 10.3431 9.00002 12C9.00002 13.6569 10.3432 15 12 15Z" fill="black"/>
</svg>
