<svg width="24" height="24" viewBox="0 0 24 24" fill="none" xmlns="http://www.w3.org/2000/svg">
<path fill-rule="evenodd" clip-rule="evenodd" d="M11.4111 1L11.3825 1C11.1624 0.999976 10.9456 0.99995 10.76 1.01395C10.5539 1.02949 10.3157 1.06592 10.0696 1.17583C9.72263 1.33083 9.42634 1.58047 9.21472 1.89613C9.06466 2.11997 8.98834 2.34855 8.93805 2.54906C8.89278 2.72957 8.85602 2.94322 8.8187 3.16017L8.81386 3.18831L8.61358 4.35163C8.0997 4.58493 7.61203 4.86912 7.15824 5.20089L6.1202 4.81509L6.09325 4.80507C5.88498 4.72763 5.68004 4.65144 5.49978 4.59957C5.29967 4.54199 5.06174 4.49292 4.79075 4.51115C4.40887 4.53685 4.04213 4.6704 3.73315 4.89627C3.51389 5.05656 3.36322 5.24713 3.247 5.41991C3.1423 5.57554 3.03435 5.76568 2.92463 5.95891L2.91043 5.98391L2.29837 7.06162L2.28446 7.0861C2.17759 7.27421 2.07219 7.45976 1.99375 7.62552C1.90652 7.80987 1.82155 8.03153 1.79454 8.29572C1.7564 8.66881 1.82278 9.04517 1.98624 9.38271C2.10199 9.62173 2.25766 9.80095 2.40269 9.94433C2.53309 10.0733 2.6956 10.2115 2.86036 10.3517L2.86038 10.3518L2.88183 10.37L3.77982 11.1343C3.74912 11.4147 3.7311 11.7034 3.7311 12C3.7311 12.2966 3.74911 12.5852 3.77981 12.8655L2.8822 13.6293L2.86073 13.6476C2.69593 13.7877 2.53338 13.926 2.40295 14.0549C2.25789 14.1983 2.10218 14.3775 1.98639 14.6165C1.82286 14.9541 1.75644 15.3304 1.79453 15.7036C1.82151 15.9678 1.90647 16.1894 1.99369 16.3738C2.07212 16.5396 2.17751 16.7252 2.28437 16.9133L2.29828 16.9378L2.91044 18.0159L2.92462 18.0408L2.92465 18.0409C3.03435 18.2341 3.14229 18.4243 3.24698 18.5799C3.36319 18.7527 3.51386 18.9433 3.73312 19.1036C4.04211 19.3295 4.40887 19.4631 4.79077 19.4888C5.06177 19.5071 5.29972 19.458 5.49984 19.4004C5.68012 19.3485 5.88507 19.2723 6.09337 19.1949L6.12032 19.1849L7.15824 18.7991C7.61203 19.1309 8.0997 19.4151 8.61358 19.6484L8.81386 20.8117L8.8187 20.8398C8.85602 21.0568 8.89277 21.2704 8.93805 21.4509C8.98834 21.6515 9.06466 21.88 9.21472 22.1039C9.42634 22.4195 9.72263 22.6692 10.0696 22.8242C10.3157 22.9341 10.5539 22.9705 10.76 22.9861C10.9456 23.0001 11.1624 23 11.3825 23H11.3826L11.4111 23H12.589L12.6176 23H12.6176C12.8378 23 13.0546 23.0001 13.2402 22.9861C13.4464 22.9705 13.6846 22.9341 13.9307 22.8241C14.2778 22.6691 14.5741 22.4194 14.7857 22.1036C14.9357 21.8797 15.012 21.6511 15.0623 21.4505C15.1075 21.27 15.1442 21.0563 15.1815 20.8393L15.1864 20.8111L15.3863 19.6485C15.9004 19.4152 16.3881 19.131 16.8418 18.7992L17.88 19.185L17.907 19.195L17.907 19.195C18.1153 19.2724 18.3203 19.3486 18.5006 19.4005C18.7007 19.458 18.9387 19.5071 19.2097 19.4888C19.5916 19.4631 19.9584 19.3295 20.2673 19.1035C20.4866 18.9432 20.6373 18.7525 20.7535 18.5797C20.8581 18.4241 20.966 18.2339 21.0757 18.0407L21.0757 18.0406L21.0899 18.0155L21.7018 16.9376L21.7157 16.9132C21.8225 16.725 21.9279 16.5394 22.0063 16.3736C22.0935 16.1893 22.1784 15.9676 22.2053 15.7034C22.2434 15.3303 22.1769 14.954 22.0134 14.6165C21.8976 14.3775 21.7419 14.1984 21.5969 14.055C21.4665 13.9261 21.3039 13.7878 21.1392 13.6477L21.1391 13.6477L21.1177 13.6294L20.2202 12.8658C20.2509 12.5849 20.2686 12.2962 20.2686 12C20.2686 11.4477 19.8209 11 19.2686 11C18.7164 11 18.2686 11.4477 18.2686 12C18.2686 12.3667 18.2315 12.7317 18.1678 13.1014C18.1079 13.4497 18.2362 13.8037 18.5053 14.0327L19.8216 15.1527C20.0163 15.3183 20.1203 15.4076 20.191 15.4775C20.1979 15.4843 20.2038 15.4903 20.2089 15.4955C20.2076 15.4984 20.2062 15.5016 20.2046 15.5049C20.2027 15.5091 20.2006 15.5137 20.1983 15.5186C20.1558 15.6085 20.0886 15.728 19.9625 15.9503L19.3506 17.0282C19.2211 17.2563 19.1509 17.3788 19.0937 17.4638C19.0881 17.4721 19.0832 17.4793 19.0788 17.4854C19.0716 17.4835 19.0631 17.4812 19.0535 17.4784C18.9551 17.4501 18.8225 17.4016 18.5767 17.3102L17.0121 16.7288C16.6723 16.6026 16.2908 16.6701 16.0149 16.9053C15.4678 17.3718 14.8362 17.7411 14.1457 17.9979C13.8117 18.1221 13.5691 18.4146 13.5087 18.7657L13.2153 20.4722C13.1712 20.7284 13.1469 20.8661 13.1223 20.9644C13.1199 20.974 13.1177 20.9823 13.1157 20.9895C13.1083 20.9902 13.0997 20.991 13.0898 20.9917C12.9887 20.9993 12.849 21 12.589 21H11.4111C11.1512 21 11.0115 20.9993 10.9104 20.9917C10.9005 20.991 10.8919 20.9902 10.8846 20.9895C10.8826 20.9823 10.8804 20.974 10.878 20.9644C10.8533 20.8661 10.8289 20.7285 10.7849 20.4724L10.491 18.7655C10.4306 18.4145 10.1881 18.1222 9.85429 17.998C9.16441 17.7412 8.5325 17.3718 7.98442 16.9049C7.70859 16.67 7.32725 16.6026 6.98762 16.7289L5.42355 17.3102C5.17775 17.4015 5.04515 17.4501 4.94679 17.4784C4.93713 17.4812 4.92871 17.4835 4.92145 17.4854C4.91711 17.4793 4.91214 17.4721 4.90653 17.4637C4.8494 17.3788 4.7791 17.2563 4.64962 17.0283L4.03746 15.9502C3.91126 15.728 3.84411 15.6084 3.80159 15.5185C3.79744 15.5098 3.79393 15.5021 3.79099 15.4955C3.79602 15.4902 3.80194 15.4842 3.80885 15.4774C3.87957 15.4075 3.98359 15.3182 4.17825 15.1525L5.49442 14.0327C5.7631 13.804 5.89145 13.4508 5.83217 13.103C5.76877 12.7311 5.7311 12.3658 5.7311 12C5.7311 11.6342 5.76877 11.269 5.83217 10.897C5.89144 10.5493 5.76314 10.1961 5.49455 9.96746L4.17814 8.847C3.98352 8.68135 3.87953 8.59199 3.80883 8.52209C3.80192 8.51526 3.79601 8.50926 3.79097 8.50403C3.79392 8.49741 3.79742 8.48974 3.80157 8.48096C3.8441 8.39109 3.91125 8.27155 4.03746 8.04932L4.64953 6.97161C4.77902 6.74361 4.84933 6.62116 4.90646 6.53623C4.91207 6.5279 4.91704 6.52072 4.92138 6.5146C4.92864 6.5165 4.93706 6.5188 4.94671 6.52158C5.04507 6.54988 5.17766 6.59845 5.42344 6.6898L6.98762 7.27115C7.32725 7.39738 7.70859 7.33002 7.98442 7.09508C8.5325 6.62826 9.16441 6.25877 9.85429 6.00204C10.1881 5.87782 10.4306 5.58547 10.491 5.23449L10.7849 3.52763C10.8289 3.27153 10.8533 3.13391 10.878 3.03564C10.8804 3.02601 10.8826 3.01768 10.8846 3.01053C10.8919 3.00979 10.9005 3.00903 10.9104 3.00828C11.0115 3.00066 11.1512 3 11.4111 3H11.9999C12.5522 3 12.9999 2.55229 12.9999 2C12.9999 1.44772 12.5522 1 11.9999 1H11.4111ZM11.9999 14C13.1044 14 13.9999 13.1046 13.9999 12C13.9999 10.8954 13.1044 10 11.9999 10C10.8953 10 9.99987 10.8954 9.99987 12C9.99987 13.1046 10.8953 14 11.9999 14Z" fill="white"/>
</svg>
