<svg width="24" height="24" viewBox="0 0 24 24" fill="none" xmlns="http://www.w3.org/2000/svg">
<path fill-rule="evenodd" clip-rule="evenodd" d="M12 3.82992C7.48783 3.82992 3.83 7.48776 3.83 11.9999C3.83 16.5121 7.48783 20.1699 12 20.1699C12.171 20.1699 12.3407 20.1647 12.5091 20.1543C9.89193 18.3886 8.17 15.396 8.17 11.9999C8.17 8.6038 9.89193 5.6112 12.5091 3.84552C12.3407 3.83517 12.171 3.82992 12 3.82992ZM20.1001 13.0736C19.7086 16.056 17.7086 18.5318 14.9997 19.6017C14.6654 19.4696 14.3418 19.3161 14.0308 19.1429L20.1001 13.0736ZM20.0751 10.751L12.6506 18.1755C12.1768 17.7647 11.7508 17.3003 11.382 16.7917L19.4754 8.69831C19.7606 9.34302 19.9648 10.0315 20.0751 10.751ZM17.3493 5.82446C17.8231 6.23522 18.2491 6.6996 18.618 7.20816L10.5246 15.3015C10.2394 14.6568 10.0352 13.9682 9.92487 13.2488L17.3493 5.82446ZM15.969 4.8571C15.6579 4.68382 15.3342 4.53028 14.9997 4.39818C12.2903 5.46843 10.2913 7.94491 9.89993 10.9262L15.969 4.8571ZM2.17 11.9999C2.17 6.57096 6.57104 2.16992 12 2.16992C17.429 2.16992 21.83 6.57096 21.83 11.9999C21.83 17.4289 17.429 21.8299 12 21.8299C6.57104 21.8299 2.17 17.4289 2.17 11.9999Z" fill="white"/>
</svg>
