<svg width="24" height="24" viewBox="0 0 24 24" fill="none" xmlns="http://www.w3.org/2000/svg">
<path d="M16.0931 17.5065L14.5364 18.9665C14.3385 19.152 14.1406 19.3392 13.9681 19.4743C13.8177 19.592 13.5083 19.8198 13.0892 19.8434C12.6167 19.8699 12.1597 19.671 11.8558 19.3083C11.5863 18.9864 11.5408 18.605 11.5237 18.4147C11.5043 18.1965 11.5052 17.9241 11.5052 17.653V16.0407C8.14581 16.316 6.34893 17.947 5.51691 18.9929C5.38297 19.1612 5.25462 19.3235 5.14972 19.4411C5.0977 19.4994 5.02326 19.5789 4.93585 19.6511C4.87515 19.7011 4.66989 19.8688 4.36164 19.9108C3.94554 19.9674 3.5394 19.8075 3.27277 19.4831C3.08453 19.2538 3.04264 19.0071 3.0296 18.9186C3.01293 18.8052 3.01191 18.6974 3.013 18.6218C3.01523 18.4703 3.03031 18.2737 3.04523 18.0778C3.158 16.598 3.54627 14.1185 4.88898 11.9821C5.57902 10.8843 6.51464 9.89149 7.75812 9.17157L16.0931 17.5065ZM3.9925 2.09247C4.38288 1.70211 5.016 1.70239 5.40656 2.09247L11.3694 8.05536C11.4144 8.05096 11.4598 8.04557 11.5052 8.04169V6.34638C11.5052 6.07523 11.5043 5.80283 11.5237 5.58466C11.5408 5.39431 11.5863 5.01288 11.8558 4.69111L11.9759 4.5622C12.2735 4.28172 12.6758 4.1328 13.0892 4.15595L13.2415 4.17353C13.5832 4.23461 13.8365 4.42214 13.9681 4.52509C14.1406 4.66013 14.3386 4.84738 14.5364 5.0329L20.5667 10.6862C20.6623 10.7758 20.7798 10.8853 20.8734 10.989C20.9491 11.073 21.0463 11.192 21.1243 11.3483L21.1946 11.5183L21.2298 11.6364C21.2992 11.9145 21.2871 12.2081 21.1946 12.4811C21.1122 12.7241 20.9744 12.8984 20.8734 13.0104C20.7798 13.1141 20.6623 13.2235 20.5667 13.3132L18.5325 15.2184L21.4066 18.0925C21.7971 18.483 21.7971 19.116 21.4066 19.5065C21.016 19.8971 20.383 19.8971 19.9925 19.5065L3.9925 3.50654C3.6024 3.11598 3.60211 2.48285 3.9925 2.09247Z" fill="black"/>
</svg>
