<svg width="24" height="24" viewBox="0 0 24 24" fill="none" xmlns="http://www.w3.org/2000/svg">
<path fill-rule="evenodd" clip-rule="evenodd" d="M5.01929 17.5313L11.17 6.25495V18.67H5.69527C5.23509 18.67 4.94738 18.6691 4.73971 18.6501C4.64148 18.6411 4.59004 18.6298 4.56838 18.6241C4.54482 18.6021 4.52802 18.5737 4.51995 18.5425C4.52531 18.5208 4.54003 18.4702 4.57916 18.3797C4.66189 18.1882 4.79893 17.9352 5.01929 17.5313ZM13.6562 18.67H12.83V16.8438L16.5672 13.1065L17.5034 14.8228L13.6562 18.67ZM16.0038 18.67H18.3047C18.7649 18.67 19.0526 18.6691 19.2603 18.6501C19.3585 18.6411 19.41 18.6298 19.4316 18.6241C19.4552 18.6021 19.472 18.5737 19.48 18.5425C19.4747 18.5208 19.46 18.4702 19.4208 18.3797C19.3381 18.1882 19.2011 17.9352 18.9807 17.5313L18.3319 16.3418L16.0038 18.67ZM12.83 11.8438V14.4962L15.7387 11.5875L14.8025 9.87125L12.83 11.8438ZM13.974 8.35221L12.83 6.25495V9.49618L13.974 8.35221ZM11.2395 3.42381C11.7225 3.20313 12.2775 3.20313 12.7605 3.42381C13.1278 3.59161 13.3671 3.892 13.5415 4.15201C13.7151 4.41086 13.902 4.75355 14.1153 5.14472L14.1153 5.14479L14.1154 5.14482L14.1154 5.14486L14.1333 5.17769L20.438 16.7364L20.4555 16.7683L20.4555 16.7683L20.4556 16.7685C20.6531 17.1307 20.828 17.4512 20.9446 17.7211C21.0635 17.9963 21.1786 18.34 21.1319 18.7221C21.0697 19.2308 20.7971 19.6901 20.3803 19.9883C20.0672 20.2122 19.7103 20.2758 19.4119 20.3032C19.119 20.33 18.7539 20.33 18.3413 20.33H18.3412H18.3412H18.3412H18.3411H18.3047H5.69527H5.65886H5.65883H5.65879H5.65876H5.65873C5.24614 20.33 4.88097 20.33 4.58814 20.3032C4.28967 20.2758 3.93275 20.2122 3.61969 19.9883C3.20293 19.6901 2.93029 19.2308 2.86807 18.7221C2.82135 18.34 2.93647 17.9963 3.05536 17.7211C3.17202 17.4512 3.34691 17.1306 3.54452 16.7684L3.54453 16.7683L3.56198 16.7364L9.86671 5.17769L9.8846 5.1449C10.098 4.75365 10.2849 4.4109 10.4585 4.15201C10.6329 3.892 10.8722 3.59161 11.2395 3.42381Z" fill="white"/>
</svg>
