<svg width="24" height="24" viewBox="0 0 24 24" fill="none" xmlns="http://www.w3.org/2000/svg">
<path d="M9.23962 10.6536C8.03219 11.2141 7.18888 12.0822 6.5824 13.0471C5.91658 14.1065 5.52726 15.3031 5.30115 16.3821C6.77591 15.1639 9.08373 14.0003 12.5052 14.0002C12.5336 14.0003 12.5622 14.0018 12.5902 14.0042L13.5004 14.9143C13.5028 14.9427 13.5052 14.9715 13.5052 15.0002V17.1917L14.6781 16.092L16.0931 17.5071L14.5365 18.967C14.3385 19.1527 14.1407 19.3398 13.9681 19.4749C13.8178 19.5925 13.5084 19.8204 13.0892 19.844C12.6168 19.8704 12.1597 19.6715 11.8558 19.3088C11.5863 18.987 11.5408 18.6056 11.5238 18.4153C11.5043 18.197 11.5052 17.9248 11.5052 17.6536V16.0413C8.14557 16.3165 6.34889 17.9476 5.51697 18.9934C5.38294 19.1619 5.25472 19.3241 5.14978 19.4417C5.09772 19.5 5.02341 19.5794 4.93591 19.6516C4.8752 19.7017 4.66998 19.8694 4.36169 19.9114C3.94563 19.9679 3.53946 19.808 3.27283 19.4836C3.0845 19.2544 3.04272 19.0078 3.02966 18.9192C3.01294 18.8056 3.01197 18.698 3.01306 18.6223C3.01527 18.4708 3.03036 18.2744 3.04529 18.0784C3.15802 16.5986 3.54621 14.1192 4.88904 11.9827C5.57909 10.8848 6.51466 9.89202 7.75818 9.17212L9.23962 10.6536ZM3.99255 2.09302C4.38301 1.70256 5.01608 1.70269 5.40662 2.09302L11.3695 8.05591C11.4145 8.0515 11.4598 8.04612 11.5052 8.04224V6.34692C11.5052 6.07567 11.5043 5.80347 11.5238 5.58521C11.5408 5.39499 11.5862 5.01364 11.8558 4.69165L11.976 4.56274C12.2735 4.28213 12.6758 4.13334 13.0892 4.15649L13.2416 4.17407C13.5833 4.2352 13.8366 4.42272 13.9681 4.52563C14.1407 4.6607 14.3386 4.8479 14.5365 5.03345L20.5668 10.6868C20.6624 10.7764 20.7798 10.8858 20.8734 10.9895C20.9492 11.0735 21.0463 11.1925 21.1244 11.3489L21.1947 11.5188L21.2299 11.637C21.2992 11.9151 21.2873 12.2086 21.1947 12.4817C21.1122 12.7248 20.9745 12.8989 20.8734 13.011C20.7798 13.1147 20.6624 13.224 20.5668 13.3137L18.5326 15.219L21.4066 18.093C21.7971 18.4835 21.7971 19.1166 21.4066 19.5071C21.0161 19.8974 20.383 19.8975 19.9926 19.5071L3.99255 3.50708C3.60229 3.11661 3.6023 2.48349 3.99255 2.09302ZM13.5052 9.00024C13.5052 9.32515 13.3489 9.61255 13.1088 9.79517L17.1176 13.804L19.0433 12.0002L13.5052 6.80786V9.00024Z" fill="black"/>
</svg>
