<svg width="24" height="24" viewBox="0 0 24 24" fill="none" xmlns="http://www.w3.org/2000/svg">
<path d="M11.2412 2.17343C11.583 2.23448 11.8362 2.42203 11.9678 2.52499C12.1404 2.66004 12.3382 2.84723 12.5362 3.03281L18.5664 8.68613C18.6621 8.77578 18.7794 8.88518 18.8731 8.98886C18.9489 9.07287 19.0459 9.19181 19.124 9.34824L19.1944 9.51816L19.2295 9.63632C19.2989 9.91444 19.2869 10.208 19.1944 10.4811C19.1119 10.7241 18.9742 10.8983 18.8731 11.0104C18.7795 11.114 18.6621 11.2234 18.5664 11.3131L12.5362 16.9664C12.3382 17.152 12.1404 17.3392 11.9678 17.4742C11.8174 17.5919 11.5081 17.8198 11.0889 17.8434C10.6163 17.8698 10.1594 17.6711 9.85553 17.3082C9.58601 16.9863 9.5405 16.6049 9.5235 16.4147C9.50405 16.1964 9.50494 15.9241 9.50494 15.653V14.0406C6.14551 14.3159 4.34867 15.947 3.51666 16.9928C3.3827 17.1612 3.25438 17.3235 3.14948 17.441C3.09744 17.4993 3.02305 17.5788 2.93561 17.651C2.87489 17.7011 2.66975 17.8688 2.36139 17.9108C1.94523 17.9674 1.53915 17.8075 1.27252 17.483C1.08417 17.2536 1.04237 17.0069 1.02936 16.9186C1.01267 16.805 1.01166 16.6973 1.01276 16.6217C1.01499 16.4702 1.03006 16.2737 1.04498 16.0778C1.15775 14.5979 1.54601 12.1184 2.88873 9.98203C4.14873 7.97745 6.22659 6.32157 9.50494 6.0416V4.34628C9.50494 4.07507 9.50403 3.80277 9.5235 3.58456C9.54053 3.39423 9.58603 3.0128 9.85553 2.69101L9.97565 2.5621C10.2732 2.28158 10.6755 2.13271 11.0889 2.15585L11.2412 2.17343ZM11.5049 6.9996C11.5049 7.55183 11.0571 7.99951 10.5049 7.9996C7.38518 7.99964 5.63016 9.3791 4.58209 11.0465C3.91634 12.1058 3.52697 13.3026 3.30084 14.3815C4.77561 13.1633 7.08354 11.9997 10.5049 11.9996C10.77 11.9997 11.0245 12.1052 11.2119 12.2926C11.3993 12.4801 11.5048 12.7346 11.5049 12.9996V15.191L17.043 9.9996L11.5049 4.80722V6.9996Z" fill="black"/>
<path d="M21.2412 14.3496C21.6006 13.9303 22.231 13.8818 22.6503 14.2412C23.0697 14.6006 23.1182 15.231 22.7587 15.6504L16.7587 22.6504C16.5775 22.8618 16.3164 22.9883 16.038 22.999C15.7598 23.0096 15.4898 22.9039 15.2929 22.707L12.7929 20.207C12.4024 19.8165 12.4024 19.1835 12.7929 18.7929C13.1834 18.4024 13.8164 18.4024 14.207 18.7929L15.9433 20.5293L21.2412 14.3496Z" fill="black"/>
</svg>
