<svg width="24" height="24" viewBox="0 0 24 24" fill="none" xmlns="http://www.w3.org/2000/svg">
<path fill-rule="evenodd" clip-rule="evenodd" d="M1 8.4C1 6.15979 1 5.03969 1.43597 4.18404C1.81947 3.43139 2.43139 2.81947 3.18404 2.43597C4.03969 2 5.15979 2 7.4 2H14.6C16.8402 2 17.9603 2 18.816 2.43597C19.5686 2.81947 20.1805 3.43139 20.564 4.18404C21 5.03969 21 6.15979 21 8.4V11.6C21 11.8151 21 12.0198 20.9996 12.215L19.6995 11.0135L19.6457 10.9637C19.2684 10.615 18.8927 10.2676 18.5629 10.0134C18.2606 9.78042 17.6435 9.33229 16.809 9.28971C15.8665 9.24164 14.9564 9.6398 14.352 10.3646C13.9067 10.8987 13.7698 11.5129 13.7168 11.923C11.968 12.2501 10.5665 13.022 9.48474 14.0754C8.26634 15.2618 7.5546 16.705 7.13304 18C5.06942 17.9993 4.005 17.9823 3.18404 17.564C2.43139 17.1805 1.81947 16.5686 1.43597 15.816C1 14.9603 1 13.8402 1 11.6V8.4ZM18.3421 12.4823L20.8739 14.8221L21.1475 15.075C21.5891 15.483 21.8098 15.687 21.8917 15.926C21.9636 16.136 21.9636 16.364 21.8917 16.574C21.8098 16.813 21.5891 17.017 21.1475 17.425L18.3421 20.0177C17.4932 20.8022 17.0688 21.1944 16.7071 21.2129C16.3929 21.2289 16.0896 21.0962 15.8881 20.8546C15.6561 20.5764 15.6561 19.9985 15.6561 18.8427V18.75C13.4876 18.75 11.9115 19.3341 10.7981 20.0412C9.69334 20.7428 9.14097 21.0936 8.94937 21.0637C8.76392 21.0347 8.64893 20.95 8.56643 20.7814C8.48119 20.6072 8.61667 20.109 8.88765 19.1126C8.98686 18.7478 9.10911 18.3733 9.25966 18C10.1248 15.855 11.9245 13.75 15.6561 13.75V13.6573C15.6561 12.5015 15.6561 11.9236 15.8881 11.6454C15.9133 11.6152 15.9401 11.5867 15.9682 11.56C16.1656 11.373 16.4322 11.2731 16.7071 11.2871C16.7071 11.2871 16.7071 11.2871 16.7071 11.2871C16.7523 11.2894 16.7985 11.2976 16.8464 11.3116C17.1816 11.4098 17.5993 11.7959 18.3421 12.4822C18.3421 12.4822 18.3421 12.4823 18.3421 12.4823Z" fill="black"/>
</svg>
