<svg width="24" height="24" viewBox="0 0 24 24" fill="none" xmlns="http://www.w3.org/2000/svg">
<path fill-rule="evenodd" clip-rule="evenodd" d="M18 5H14C13.4477 5 13 5.44772 13 6C13 6.55229 13.4477 7 14 7H15.5858L5.29289 17.2929C4.90237 17.6834 4.90237 18.3166 5.29289 18.7071C5.68342 19.0976 6.31658 19.0976 6.70711 18.7071L17 8.41421V10C17 10.5523 17.4477 11 18 11C18.5523 11 19 10.5523 19 10V6.00069V6C19 5.999 19 5.998 19 5.997C18.9992 5.72313 18.8883 5.47515 18.7092 5.29502C18.7078 5.2936 18.7064 5.29219 18.705 5.29078C18.6096 5.19595 18.4999 5.12432 18.3828 5.07588C18.2649 5.02699 18.1356 5 18 5ZM6.70711 5.29289L11.2929 9.87868L9.87868 11.2929L5.29289 6.70711C4.90237 6.31658 4.90237 5.68342 5.29289 5.29289C5.68342 4.90237 6.31658 4.90237 6.70711 5.29289ZM14.1213 12.7071L12.7071 14.1213L15.5858 17H14C13.4477 17 13 17.4477 13 18C13 18.5523 13.4477 19 14 19H17.9993H18L18.003 19C18.2579 18.9992 18.5126 18.9016 18.7071 18.7071C18.803 18.6112 18.8753 18.5007 18.9241 18.3828C18.9727 18.2657 18.9996 18.1375 19 18.003L19 18V17.9993V14C19 13.4477 18.5523 13 18 13C17.4477 13 17 13.4477 17 14V15.5858L14.1213 12.7071Z" fill="black"/>
</svg>
