<svg width="24" height="24" viewBox="0 0 24 24" fill="none" xmlns="http://www.w3.org/2000/svg">
<path d="M18.1702 17.9971V15C18.1702 14.5416 18.5418 14.1699 19.0002 14.1699C19.4585 14.1701 19.8303 14.5417 19.8303 15V20C19.8303 20.4583 19.4585 20.8299 19.0002 20.8301H14.0002C13.5418 20.8301 13.1702 20.4584 13.1702 20C13.1702 19.5416 13.5418 19.1699 14.0002 19.1699H16.9954L11.8264 14.001L13.0002 12.8271L18.1702 17.9971ZM19.0002 3.16992C19.4585 3.17004 19.8303 3.54168 19.8303 4V9C19.8303 9.45832 19.4585 9.82996 19.0002 9.83008C18.5418 9.83008 18.1702 9.4584 18.1702 9V6.00391L4.58715 19.5869C4.26305 19.911 3.73746 19.9109 3.41332 19.5869C3.08919 19.2628 3.08919 18.7372 3.41332 18.4131L16.9963 4.83008H14.0002C13.5418 4.83008 13.1702 4.4584 13.1702 4C13.1702 3.5416 13.5418 3.16992 14.0002 3.16992H19.0002ZM3.41234 4.41309C3.73635 4.08908 4.26201 4.08933 4.58617 4.41309L10.1721 9.99902L8.99828 11.1729L3.41234 5.58691C3.08871 5.26287 3.08871 4.73713 3.41234 4.41309Z" fill="black"/>
</svg>
