<svg width="24" height="24" viewBox="0 0 24 24" fill="none" xmlns="http://www.w3.org/2000/svg">
<path fill-rule="evenodd" clip-rule="evenodd" d="M3 12C3 7.02944 7.02944 3 12 3C16.9706 3 21 7.02944 21 12C21 16.9706 16.9706 21 12 21C7.02944 21 3 16.9706 3 12ZM12 1C5.92487 1 1 5.92487 1 12C1 18.0751 5.92487 23 12 23C18.0751 23 23 18.0751 23 12C23 5.92487 18.0751 1 12 1ZM7.94406 14.0646C7.7056 13.5972 7.13342 13.4117 6.66607 13.6502C6.19873 13.8886 6.01319 14.4608 6.25165 14.9282C7.31728 17.0166 9.49042 18.45 12 18.45C14.5059 18.45 16.6763 17.0208 17.7436 14.9375C17.9828 14.4705 17.7982 13.898 17.3312 13.6588C16.8643 13.4196 16.2918 13.6042 16.0526 14.0711C15.2976 15.5448 13.7654 16.55 12 16.55C10.232 16.55 8.69783 15.5418 7.94406 14.0646ZM10 9.5C10 10.3284 9.44036 11 8.75 11C8.05964 11 7.5 10.3284 7.5 9.5C7.5 8.67157 8.05964 8 8.75 8C9.44036 8 10 8.67157 10 9.5ZM15.25 11C15.9404 11 16.5 10.3284 16.5 9.5C16.5 8.67157 15.9404 8 15.25 8C14.5596 8 14 8.67157 14 9.5C14 10.3284 14.5596 11 15.25 11Z" fill="black"/>
</svg>
