<svg width="20" height="20" viewBox="0 0 20 20" fill="none" xmlns="http://www.w3.org/2000/svg">
<path d="M2.66797 10.0004C2.66797 5.9512 5.95083 2.66833 10 2.66833C13.417 2.66848 16.2867 5.00549 17.1006 8.16736C17.1921 8.523 16.9777 8.88534 16.6221 8.97693C16.2665 9.06845 15.9042 8.85489 15.8125 8.49939C15.1462 5.91079 12.7955 3.99856 10 3.99841C6.68537 3.99841 3.99805 6.68574 3.99805 10.0004C3.99822 13.3148 6.68548 16.0013 10 16.0013C11.0941 16.0013 12.118 15.7097 13 15.1996C13.3178 15.0157 13.7242 15.124 13.9082 15.4418C14.0921 15.7596 13.9838 16.166 13.666 16.35C12.587 16.9741 11.3342 17.3314 10 17.3314C5.95094 17.3314 2.66814 14.0494 2.66797 10.0004Z" fill="black"/>
<path d="M9.99609 5.16785C10.3632 5.16785 10.6609 5.46583 10.6611 5.83289V6.24304C11.6956 6.41802 12.4843 7.31603 12.4844 8.40027C12.4843 8.76739 12.1864 9.06513 11.8193 9.06531C11.4522 9.06513 11.1543 8.76739 11.1543 8.40027C11.1542 7.92531 10.7689 7.54009 10.2939 7.53992H9.79395C9.26655 7.54005 8.83908 7.96762 8.83887 8.495V8.66101C8.83909 9.03308 9.14063 9.33461 9.5127 9.33484H10.4805C11.587 9.33506 12.4841 10.2322 12.4844 11.3387V11.5048C12.4843 12.6084 11.7016 13.5293 10.6611 13.743V14.1669C10.661 14.534 10.3633 14.8319 9.99609 14.8319C9.62908 14.8317 9.33123 14.5339 9.33105 14.1669V13.7509C8.29439 13.5602 7.50879 12.6541 7.50879 11.5624C7.50886 11.1952 7.8066 10.8973 8.17383 10.8973C8.5409 10.8975 8.8388 11.1953 8.83887 11.5624C8.83887 12.0581 9.24065 12.4598 9.73633 12.4598H10.1992C10.7266 12.4597 11.1542 12.0322 11.1543 11.5048V11.3387C11.154 10.9667 10.8525 10.6651 10.4805 10.6649H9.5127C8.40609 10.6647 7.50902 9.76762 7.50879 8.66101V8.495C7.50897 7.39154 8.29086 6.47065 9.33105 6.25671V5.83289C9.3313 5.46594 9.62913 5.16802 9.99609 5.16785Z" fill="black"/>
<path d="M16.0014 17.5003V12.4398L14.6372 13.804C14.3775 14.0637 13.9554 14.0637 13.6958 13.804C13.4361 13.5443 13.4361 13.1223 13.6958 12.8626L16.1958 10.3626L16.3002 10.2777C16.5584 10.1072 16.9099 10.1354 17.1372 10.3626L19.6372 12.8626L19.7221 12.9671C19.8926 13.2253 19.8644 13.5768 19.6372 13.804C19.4099 14.0313 19.0584 14.0595 18.8002 13.889L18.6958 13.804L17.3315 12.4398V17.5003C17.3313 17.8674 17.0336 18.1654 16.6665 18.1654C16.2993 18.1654 16.0016 17.8674 16.0014 17.5003Z" fill="black"/>
</svg>
