<svg width="20" height="20" viewBox="0 0 20 20" fill="none" xmlns="http://www.w3.org/2000/svg">
<path d="M15.5854 17.5003V12.4398L14.2211 13.804C13.9614 14.0637 13.5394 14.0637 13.2797 13.804C13.02 13.5443 13.02 13.1223 13.2797 12.8626L15.7797 10.3626L15.8842 10.2777C16.1424 10.1072 16.4939 10.1354 16.7211 10.3626L19.2211 12.8626L19.3061 12.9671C19.4766 13.2253 19.4484 13.5768 19.2211 13.804C18.9939 14.0313 18.6424 14.0595 18.3842 13.889L18.2797 13.804L16.9155 12.4398V17.5003C16.9153 17.8674 16.6176 18.1654 16.2504 18.1654C15.8833 18.1654 15.5856 17.8674 15.5854 17.5003Z" fill="black"/>
<path d="M12.916 3.08447C13.2831 3.08447 13.5808 3.38244 13.5811 3.74951V3.92822C13.6985 3.9319 13.8093 3.93677 13.9131 3.94385C14.2953 3.96996 14.6369 4.02546 14.9609 4.15967C15.7362 4.48095 16.3527 5.09721 16.6738 5.87256C16.808 6.19666 16.8636 6.5381 16.8896 6.92041C16.9153 7.29688 16.915 7.76033 16.915 8.3335C16.9149 8.7005 16.617 8.99827 16.25 8.99854C15.8828 8.99853 15.5851 8.70066 15.585 8.3335C15.585 7.74233 15.5843 7.3319 15.5625 7.01123C15.541 6.69678 15.5012 6.51648 15.4453 6.38135C15.2591 5.93188 14.9015 5.57448 14.4521 5.38818C14.317 5.33223 14.1367 5.29248 13.8223 5.271C13.7473 5.26589 13.6669 5.26526 13.5811 5.26221V5.4165C13.5809 5.78362 13.2832 6.08154 12.916 6.08154C12.5489 6.08145 12.2512 5.78357 12.251 5.4165V5.24854H7.74805V5.4165C7.74787 5.78357 7.4501 6.08146 7.08301 6.08154C6.71585 6.08154 6.41815 5.78362 6.41797 5.4165V5.26514C6.32723 5.26929 6.24227 5.27422 6.16211 5.28076C5.78664 5.31144 5.57497 5.3683 5.41699 5.44873C5.07176 5.62465 4.79116 5.90525 4.61524 6.25049C4.53473 6.4085 4.47797 6.6199 4.44727 6.99561C4.41595 7.3791 4.41504 7.87257 4.41504 8.5835V12.2505C4.41504 12.9612 4.41594 13.455 4.44727 13.8384C4.47798 14.2137 4.53477 14.4256 4.61524 14.5835C4.79118 14.9285 5.07194 15.2094 5.41699 15.3853C5.57494 15.4656 5.78684 15.5226 6.16211 15.5532C6.54556 15.5845 7.03927 15.5854 7.75 15.5854H13.333L13.4678 15.5991C13.7703 15.6615 13.998 15.9295 13.998 16.2505C13.9978 16.5713 13.7702 16.8396 13.4678 16.9019L13.333 16.9155H7.75C7.06116 16.9155 6.50387 16.9152 6.05371 16.8784C5.59603 16.841 5.19002 16.7615 4.81348 16.5698C4.21807 16.2664 3.73314 15.7824 3.42969 15.187C3.23787 14.8105 3.15853 14.4044 3.12109 13.9468C3.08432 13.4967 3.08496 12.9393 3.08496 12.2505V8.5835C3.08496 7.8945 3.08432 7.33742 3.12109 6.88721C3.15851 6.42941 3.23788 6.02359 3.42969 5.64697C3.73313 5.05145 4.21795 4.56662 4.81348 4.26318C5.19001 4.07149 5.59604 3.99199 6.05371 3.95459C6.16812 3.94525 6.28937 3.93726 6.41797 3.93213V3.74951C6.4182 3.38244 6.71588 3.08447 7.08301 3.08447C7.45006 3.08456 7.74782 3.38249 7.74805 3.74951V3.91846H12.251V3.74951C12.2512 3.38249 12.549 3.08456 12.916 3.08447ZM14.1338 7.34814C14.4367 7.41013 14.6648 7.67835 14.665 7.99951C14.665 8.3208 14.4367 8.58879 14.1338 8.65088L14 8.66455H6C5.63273 8.66455 5.33496 8.36678 5.33496 7.99951C5.3352 7.63244 5.63288 7.33447 6 7.33447H14L14.1338 7.34814Z" fill="black"/>
</svg>
