<svg width="20" height="20" viewBox="0 0 20 20" fill="none" xmlns="http://www.w3.org/2000/svg">
<path d="M15.5854 17.5003V12.4398L14.2211 13.804C13.9614 14.0637 13.5394 14.0637 13.2797 13.804C13.02 13.5443 13.02 13.1223 13.2797 12.8626L15.7797 10.3626L15.8842 10.2777C16.1424 10.1072 16.4939 10.1354 16.7211 10.3626L19.2211 12.8626L19.3061 12.9671C19.4766 13.2253 19.4484 13.5768 19.2211 13.804C18.9939 14.0313 18.6424 14.0595 18.3842 13.889L18.2797 13.804L16.9155 12.4398V17.5003C16.9153 17.8674 16.6176 18.1654 16.2504 18.1654C15.8833 18.1654 15.5856 17.8674 15.5854 17.5003Z" fill="black"/>
<path d="M14.3486 3.52738C14.7018 3.62827 14.9065 3.99652 14.8057 4.34965L13.9766 7.25199H15.833L15.9678 7.26566C16.2706 7.32785 16.498 7.59583 16.498 7.91703C16.498 8.23816 16.2705 8.50623 15.9678 8.5684L15.833 8.58207H13.5967L11.4727 16.0166C11.3716 16.3695 11.0034 16.5736 10.6504 16.4727C10.2977 16.3717 10.0929 16.0042 10.1934 15.6514L11.0234 12.7481H7.40625L6.47266 16.0166C6.37159 16.3695 6.00339 16.5736 5.65039 16.4727C5.29766 16.3717 5.09294 16.0042 5.19336 15.6514L6.02344 12.7481H4.16699C3.79972 12.7481 3.50195 12.4503 3.50195 12.083C3.50221 11.716 3.79988 11.418 4.16699 11.418H6.40332L7.21387 8.58207H5C4.63279 8.58207 4.33505 8.28422 4.33496 7.91703C4.33496 7.54976 4.63273 7.25199 5 7.25199H7.59375L8.52734 3.98441C8.62819 3.63153 8.99572 3.42695 9.34863 3.52738C9.70176 3.62827 9.90653 3.99652 9.80566 4.34965L8.97656 7.25199H12.5938L13.5273 3.98441C13.6282 3.63153 13.9957 3.42695 14.3486 3.52738ZM8.59668 8.58207L7.78613 11.418H11.4033L12.2139 8.58207H8.59668Z" fill="black"/>
</svg>
