<svg width="24" height="24" viewBox="0 0 24 24" fill="none" xmlns="http://www.w3.org/2000/svg">
<path d="M7.23806 15.2626L6.49812 15.9353L6.49812 15.9353L7.23806 15.2626ZM7.05412 15.0833L6.50351 15.9181L6.50351 15.9181L7.05412 15.0833ZM6.90247 15.0163L7.14977 14.0473L6.90247 15.0163ZM11.8008 18.9596L11.0498 18.2994L11.8008 18.9596ZM9.77288 18.0509L10.5128 17.3782L10.5128 17.3782L9.77288 18.0509ZM11.1107 19.2264L10.9991 20.2202L11.1107 19.2264ZM9.77287 5.95056L9.03293 5.27789L9.03293 5.27789L9.77287 5.95056ZM11.1107 4.77501L10.9991 3.78126L11.1107 4.77501ZM11.8008 5.04182L11.0498 5.70206L11.8008 5.04182ZM6.90247 8.9852L7.14977 9.95413L6.90247 8.9852ZM7.23806 8.73886L7.978 9.41154L7.978 9.41154L7.23806 8.73886ZM7.05412 8.91811L6.50351 8.08334L6.50351 8.08334L7.05412 8.91811ZM16.6631 7.88623C16.3385 7.43942 15.7131 7.34037 15.2663 7.665C14.8195 7.98962 14.7205 8.61499 15.0451 9.0618L16.6631 7.88623ZM15.0451 14.9397C14.7205 15.3865 14.8195 16.0118 15.2663 16.3365C15.7131 16.6611 16.3385 16.562 16.6631 16.1152L15.0451 14.9397ZM19.8992 5.53509C19.5746 5.08828 18.9492 4.98924 18.5024 5.31386C18.0556 5.63848 17.9565 6.26385 18.2812 6.71066L19.8992 5.53509ZM21 12.0007L20 12.0007L21 12.0007ZM18.2812 17.2908C17.9565 17.7376 18.0556 18.363 18.5024 18.6876C18.9492 19.0122 19.5746 18.9132 19.8992 18.4664L18.2812 17.2908ZM6 10.0007H6.6461V8.00073H6V10.0007ZM7.978 9.41154L10.5128 6.62324L9.03293 5.27789L6.49812 8.06619L7.978 9.41154ZM11 6.81158V17.1899H13V6.81158H11ZM10.5128 17.3782L7.978 14.5899L6.49812 15.9353L9.03294 18.7236L10.5128 17.3782ZM6.6461 14.0007H6V16.0007H6.6461V14.0007ZM6 14.0007C5.52038 14.0007 5.21074 14.0002 4.97376 13.984C4.74576 13.9685 4.65893 13.9418 4.61732 13.9246L3.85195 15.7724C4.17788 15.9074 4.50779 15.9569 4.83762 15.9794C5.15846 16.0013 5.54774 16.0007 6 16.0007V14.0007ZM2 12.0007C2 12.453 1.99946 12.8423 2.02135 13.1631C2.04385 13.4929 2.09336 13.8228 2.22836 14.1488L4.07612 13.3834C4.05888 13.3418 4.03227 13.255 4.01671 13.027C4.00054 12.79 4 12.4804 4 12.0007H2ZM4.61732 13.9246C4.37229 13.8231 4.17761 13.6284 4.07612 13.3834L2.22836 14.1488C2.53284 14.8839 3.11687 15.4679 3.85195 15.7724L4.61732 13.9246ZM7.978 14.5899C7.92462 14.5312 7.78646 14.3684 7.60472 14.2486L6.50351 15.9181C6.49207 15.9106 6.48134 15.9029 6.47141 15.8955C6.46153 15.888 6.45308 15.8812 6.44616 15.8753C6.43271 15.8639 6.4254 15.8565 6.42624 15.8574C6.42655 15.8577 6.42825 15.8594 6.43174 15.863C6.43524 15.8667 6.43992 15.8717 6.44622 15.8785C6.45253 15.8853 6.45982 15.8932 6.46861 15.9028C6.47746 15.9125 6.48699 15.923 6.49812 15.9353L7.978 14.5899ZM6.6461 16.0007C6.66264 16.0007 6.67681 16.0007 6.68994 16.0008C6.70298 16.0008 6.71375 16.0008 6.72303 16.0009C6.73231 16.001 6.73913 16.0011 6.7442 16.0013C6.74926 16.0014 6.75167 16.0015 6.7521 16.0015C6.75329 16.0016 6.7429 16.0011 6.72542 15.9988C6.71642 15.9977 6.70568 15.996 6.69352 15.9937C6.6813 15.9914 6.66845 15.9886 6.65516 15.9852L7.14977 14.0473C6.93882 13.9935 6.72546 14.0007 6.6461 14.0007V16.0007ZM7.60472 14.2486C7.46532 14.1566 7.31156 14.0886 7.14977 14.0473L6.65516 15.9852C6.60124 15.9714 6.54998 15.9488 6.50351 15.9181L7.60472 14.2486ZM11 17.1899C11 17.7239 10.9991 18.0572 10.9789 18.2887C10.9692 18.3999 10.9581 18.4451 10.9559 18.4526C10.9545 18.4573 10.9739 18.3857 11.0498 18.2994L12.5519 19.6199C12.8832 19.243 12.9453 18.7611 12.9713 18.4625C13.0009 18.123 13 17.6847 13 17.1899H11ZM9.03294 18.7236C9.36577 19.0897 9.65993 19.4146 9.91019 19.6459C10.1304 19.8494 10.5004 20.1642 10.9991 20.2202L11.2223 18.2327C11.3365 18.2455 11.399 18.2854 11.3949 18.2829C11.3882 18.2788 11.3495 18.2528 11.2676 18.1771C11.0969 18.0194 10.872 17.7734 10.5128 17.3782L9.03294 18.7236ZM11.0498 18.2994C11.0929 18.2503 11.1574 18.2254 11.2223 18.2327L10.9991 20.2202C11.5837 20.2859 12.1635 20.0617 12.5519 19.6199L11.0498 18.2994ZM10.5128 6.62324C10.872 6.22809 11.0969 5.9821 11.2676 5.82434C11.3495 5.74864 11.3882 5.72266 11.3949 5.71859C11.399 5.71604 11.3365 5.75594 11.2223 5.76876L10.9991 3.78126C10.5004 3.83727 10.1304 4.15205 9.91019 4.35554C9.65993 4.58683 9.36577 4.91178 9.03293 5.27789L10.5128 6.62324ZM13 6.81158C13 6.3168 13.0009 5.87848 12.9713 5.539C12.9453 5.24032 12.8832 4.75847 12.5519 4.38159L11.0498 5.70206C10.9739 5.61578 10.9545 5.54419 10.9559 5.54888C10.9581 5.55637 10.9692 5.60159 10.9789 5.71272C10.9991 5.94428 11 6.27756 11 6.81158H13ZM11.2223 5.76876C11.1574 5.77606 11.0929 5.75115 11.0498 5.70206L12.5519 4.38159C12.1635 3.93975 11.5837 3.7156 10.9991 3.78126L11.2223 5.76876ZM6.6461 10.0007C6.72546 10.0007 6.93882 10.008 7.14977 9.95413L6.65516 8.01626C6.66845 8.01287 6.6813 8.01005 6.69352 8.00774C6.70568 8.00544 6.71642 8.00379 6.72542 8.00261C6.7429 8.00033 6.75329 7.99989 6.7521 7.99995C6.75167 7.99997 6.74926 8.00008 6.7442 8.0002C6.73913 8.00032 6.73231 8.00044 6.72303 8.00053C6.71375 8.00062 6.70298 8.00067 6.68994 8.0007C6.67681 8.00073 6.66264 8.00073 6.6461 8.00073V10.0007ZM6.49812 8.06619C6.48699 8.07843 6.47746 8.08891 6.46861 8.09861C6.45982 8.10824 6.45253 8.11617 6.44622 8.12298C6.43992 8.12978 6.43524 8.13475 6.43174 8.13842C6.42825 8.14208 6.42655 8.14379 6.42624 8.1441C6.4254 8.14494 6.43271 8.13755 6.44616 8.12615C6.45308 8.12028 6.46153 8.11344 6.47141 8.10599C6.48134 8.0985 6.49207 8.09089 6.50351 8.08334L7.60472 9.75288C7.78646 9.633 7.92461 9.47026 7.978 9.41154L6.49812 8.06619ZM7.14977 9.95413C7.31156 9.91284 7.46533 9.84482 7.60472 9.75288L6.50351 8.08334C6.54998 8.0527 6.60123 8.03002 6.65516 8.01626L7.14977 9.95413ZM6 8.00073C5.54774 8.00073 5.15846 8.00018 4.83762 8.02208C4.50779 8.04458 4.17788 8.09408 3.85195 8.22909L4.61732 10.0768C4.65893 10.0596 4.74576 10.033 4.97376 10.0174C5.21074 10.0013 5.52038 10.0007 6 10.0007V8.00073ZM4 12.0007C4 11.5211 4.00054 11.2115 4.01671 10.9745C4.03227 10.7465 4.05888 10.6597 4.07612 10.618L2.22836 9.85268C2.09336 10.1786 2.04385 10.5085 2.02135 10.8383C1.99946 11.1592 2 11.5485 2 12.0007H4ZM3.85195 8.22909C3.11687 8.53357 2.53284 9.11759 2.22836 9.85268L4.07612 10.618C4.17761 10.373 4.37229 10.1783 4.61732 10.0768L3.85195 8.22909ZM15.0451 9.0618C15.6657 9.91604 16 10.9448 16 12.0007L18 12.0007C18 10.5225 17.532 9.08216 16.6631 7.88623L15.0451 9.0618ZM16 12.0007C16 13.0566 15.6657 14.0854 15.0451 14.9397L16.6631 16.1152C17.532 14.9193 18 13.479 18 12.0007L16 12.0007ZM18.2812 6.71066C19.3983 8.24829 20 10.1001 20 12.0007L22 12.0007C22 9.67776 21.2646 7.41442 19.8992 5.53509L18.2812 6.71066ZM20 12.0007C20 13.9013 19.3983 15.7532 18.2812 17.2908L19.8992 18.4664C21.2646 16.587 22 14.3237 22 12.0007L20 12.0007Z" fill="black"/>
</svg>
