<svg width="24" height="24" viewBox="0 0 24 24" fill="none" xmlns="http://www.w3.org/2000/svg">
<path fill-rule="evenodd" clip-rule="evenodd" d="M3 12C3 11.0681 3 10.6022 3.15224 10.2346C3.35523 9.74459 3.74458 9.35524 4.23463 9.15225C4.60218 9.00001 5.06812 9.00001 6 9.00001H6.6461C6.77645 9.00001 6.84162 9.00001 6.90247 8.98448C6.9564 8.97071 7.00765 8.94804 7.05412 8.91739C7.10654 8.88281 7.15038 8.83459 7.23806 8.73815L9.77287 5.94985C10.4649 5.18859 10.811 4.80796 11.1107 4.77429C11.3705 4.74511 11.6282 4.84474 11.8008 5.04111C12 5.26765 12 5.78206 12 6.81087V17.1892C12 18.218 12 18.7324 11.8008 18.9589C11.6282 19.1553 11.3705 19.2549 11.1107 19.2257C10.811 19.1921 10.4649 18.8114 9.77288 18.0502L7.23806 15.2619C7.15038 15.1654 7.10654 15.1172 7.05412 15.0826C7.00765 15.052 6.9564 15.0293 6.90247 15.0155C6.84162 15 6.77645 15 6.6461 15H6C5.06812 15 4.60218 15 4.23463 14.8478C3.74458 14.6448 3.35523 14.2554 3.15224 13.7654C3 13.3978 3 12.9319 3 12Z" fill="black"/>
<path fill-rule="evenodd" clip-rule="evenodd" d="M10.9961 6.09663C10.8667 6.23372 10.71 6.40566 10.5128 6.62253L7.978 9.41083C7.97303 9.41629 7.96733 9.42266 7.96093 9.4298C7.89853 9.49946 7.76955 9.64345 7.60472 9.75217C7.46533 9.84411 7.31156 9.91213 7.14977 9.95343C6.95844 10.0023 6.76514 10.0008 6.67162 10.0002C6.66203 10.0001 6.65349 10 6.64611 10H6C5.52038 10 5.21074 10.0006 4.97376 10.0167C4.74576 10.0323 4.65893 10.0589 4.61732 10.0761C4.37229 10.1776 4.17762 10.3723 4.07612 10.6173C4.05888 10.6589 4.03227 10.7458 4.01671 10.9738C4.00054 11.2108 4 11.5204 4 12C4 12.4796 4.00054 12.7893 4.01671 13.0263C4.03227 13.2543 4.05888 13.3411 4.07612 13.3827C4.17762 13.6277 4.37229 13.8224 4.61732 13.9239C4.65893 13.9411 4.74576 13.9678 4.97376 13.9833C5.21074 13.9995 5.52038 14 6 14H6.64611C6.65349 14 6.66203 14 6.67163 13.9999C6.76514 13.9992 6.95844 13.9978 7.14977 14.0466C7.31156 14.0879 7.46532 14.1559 7.60472 14.2479C7.76955 14.3566 7.89853 14.5006 7.96093 14.5702C7.96733 14.5774 7.97303 14.5837 7.978 14.5892L10.5128 17.3775C10.71 17.5944 10.8667 17.7663 10.9961 17.9034C10.9997 17.7149 11 17.4823 11 17.1892V6.81088C11 6.51779 10.9997 6.28516 10.9961 6.09663ZM10.9991 3.78055C11.5837 3.71489 12.1635 3.93905 12.5519 4.38088C12.8832 4.75776 12.9453 5.23961 12.9713 5.53829C13.0001 5.86775 13 6.2903 13 6.76721V17.2328C13 17.7097 13.0001 18.1323 12.9713 18.4617C12.9453 18.7604 12.8832 19.2423 12.5519 19.6192C12.1635 20.061 11.5837 20.2851 10.9991 20.2195C10.5004 20.1635 10.1304 19.8487 9.91019 19.6452C9.66732 19.4208 9.38312 19.1081 9.06234 18.7552L6.55763 16H5.96801C5.52936 16 5.15088 16 4.83762 15.9787C4.50779 15.9562 4.17788 15.9067 3.85195 15.7717C3.11687 15.4672 2.53284 14.8832 2.22836 14.1481C2.09336 13.8221 2.04386 13.4922 2.02135 13.1624C1.99998 12.8491 1.99999 12.4707 2 12.032V11.968C1.99999 11.5294 1.99998 11.1509 2.02135 10.8376C2.04386 10.5078 2.09336 10.1779 2.22836 9.85197C2.53284 9.11688 3.11687 8.53286 3.85195 8.22838C4.17788 8.09338 4.50779 8.04387 4.83762 8.02137C5.15088 7.99999 5.52937 8.00001 5.96802 8.00002L6.55763 8.00002L9.06232 5.24486C9.3831 4.89196 9.66732 4.57929 9.91019 4.35483C10.1304 4.15135 10.5004 3.83656 10.9991 3.78055Z" fill="black"/>
<path fill-rule="evenodd" clip-rule="evenodd" d="M15.2663 7.66428C15.7131 7.33965 16.3385 7.4387 16.6631 7.88551C17.532 9.08144 18 10.5218 18 12C18 13.4783 17.532 14.9186 16.6631 16.1145C16.3385 16.5613 15.7131 16.6604 15.2663 16.3357C14.8195 16.0111 14.7204 15.3857 15.0451 14.9389C15.6657 14.0847 16 13.0559 16 12C16 10.9441 15.6657 9.91532 15.0451 9.06108C14.7204 8.61427 14.8195 7.9889 15.2663 7.66428Z" fill="black"/>
<path fill-rule="evenodd" clip-rule="evenodd" d="M18.5024 5.31314C18.9492 4.98851 19.5745 5.08756 19.8992 5.53437C21.2646 7.4137 22 9.67704 22 12C22 14.323 21.2646 16.5863 19.8992 18.4656C19.5745 18.9125 18.9492 19.0115 18.5024 18.6869C18.0555 18.3622 17.9565 17.7369 18.2811 17.2901C19.3983 15.7524 20 13.9006 20 12C20 10.0994 19.3983 8.24757 18.2811 6.70994C17.9565 6.26313 18.0556 5.63776 18.5024 5.31314Z" fill="black"/>
</svg>
