<svg width="16" height="16" viewBox="0 0 16 16" fill="none" xmlns="http://www.w3.org/2000/svg">
<path fill-rule="evenodd" clip-rule="evenodd" d="M7.58036 12.4199C7.83629 12.2658 8.15639 12.2658 8.41233 12.4199L11.0957 14.035C11.7069 14.4028 12.4597 13.8547 12.2972 13.1601L11.5866 10.1228C11.5183 9.83063 11.6177 9.52471 11.8448 9.32859L14.2096 7.28556C14.7501 6.81867 14.462 5.93155 13.7503 5.87134L10.634 5.60769C10.3361 5.58248 10.0766 5.39458 9.95963 5.11942L8.73874 2.24678C8.46042 1.59193 7.53226 1.59193 7.25394 2.24678L6.03305 5.11942C5.91611 5.39458 5.65657 5.58248 5.35866 5.60769L2.24237 5.87134C1.53072 5.93155 1.24258 6.81867 1.78303 7.28556L4.14792 9.32859C4.37494 9.52471 4.47437 9.83063 4.40603 10.1228L3.69549 13.1601C3.53301 13.8547 4.28579 14.4028 4.89694 14.035L7.58036 12.4199Z" fill="black"/>
</svg>
