<svg width="24" height="24" viewBox="0 0 24 24" fill="none" xmlns="http://www.w3.org/2000/svg">
<path fill-rule="evenodd" clip-rule="evenodd" d="M11.4664 17.7532L6.96555 20.5105C6.49754 20.7972 5.88574 20.6502 5.59904 20.1822C5.45901 19.9536 5.41726 19.6782 5.48327 19.4184L6.18 16.676C6.4315 15.6861 7.10892 14.8586 8.02968 14.4165L12.9399 12.059C13.1688 11.9491 13.2653 11.6745 13.1553 11.4455C13.0663 11.2602 12.8651 11.1564 12.6624 11.1915L7.19676 12.1377C6.08572 12.3301 4.94636 12.0233 4.08213 11.299L2.35549 9.85207C1.93483 9.49955 1.8796 8.87276 2.23212 8.45211C2.40357 8.24752 2.65013 8.1205 2.91625 8.09968L8.19167 7.68682C8.56437 7.65765 8.88916 7.4218 9.03224 7.07642L11.0674 2.16367C11.2774 1.65662 11.8588 1.41586 12.3658 1.62591C12.6093 1.72677 12.8027 1.92021 12.9036 2.16367L14.9388 7.07642C15.0818 7.4218 15.4066 7.65765 15.7793 7.68682L21.0837 8.10194C21.6309 8.14477 22.0397 8.62304 21.9969 9.17021C21.9763 9.43343 21.8518 9.67763 21.6509 9.84891L17.6055 13.2978C17.3207 13.5405 17.1964 13.9227 17.284 14.2866L18.5277 19.4531C18.6561 19.9867 18.3277 20.5234 17.7941 20.6519C17.5377 20.7136 17.2673 20.6709 17.0424 20.5331L12.5046 17.7532C12.186 17.5581 11.7849 17.5581 11.4664 17.7532Z" fill="black"/>
</svg>
