<svg width="24" height="24" viewBox="0 0 24 24" fill="none" xmlns="http://www.w3.org/2000/svg">
<path fill-rule="evenodd" clip-rule="evenodd" d="M19.8682 5.49615C20.1422 5.01664 19.9756 4.40578 19.4961 4.13177C19.0166 3.85776 18.4057 4.02436 18.1317 4.50387L15.1362 9.74607L15.1192 9.77574C14.8443 10.2461 14.2436 10.4099 13.768 10.1442L13.7383 10.1273C13.7207 10.1172 13.7057 10.1087 13.6921 10.1011C12.2744 9.3089 10.4837 9.78869 9.65205 11.1836L9.62725 11.2258L9.62517 11.2294L7.13622 15.4961C6.85794 15.9732 7.01908 16.5855 7.49613 16.8638C7.97318 17.1421 8.5855 16.9809 8.86378 16.5039L11.3527 12.2371L11.3698 12.2078C11.6471 11.7429 12.244 11.5829 12.7165 11.847L12.746 11.8638L12.7497 11.8659L12.7925 11.8902C14.2193 12.6873 16.0215 12.1958 16.846 10.7847C16.8539 10.7712 16.8625 10.7561 16.8727 10.7383L19.8682 5.49615ZM3.5 6.00001H4V9.00001H3.5C2.94772 9.00001 2.5 9.44773 2.5 10C2.5 10.5523 2.94772 11 3.5 11H4V14H3.5C2.94772 14 2.5 14.4477 2.5 15C2.5 15.5523 2.94772 16 3.5 16H4.02714C4.03193 16.0868 4.03756 16.1707 4.04419 16.2518C4.09012 16.8139 4.18868 17.3306 4.43597 17.816C4.81947 18.5686 5.43139 19.1805 6.18404 19.564C6.66937 19.8113 7.18608 19.9099 7.74818 19.9558C7.82933 19.9625 7.91325 19.9681 8 19.9729V20.5C8 21.0523 8.44772 21.5 9 21.5C9.55229 21.5 10 21.0523 10 20.5V20H13V20.5C13 21.0523 13.4477 21.5 14 21.5C14.5522 21.5 15 21.0523 15 20.5V20H18V20.5C18 21.0523 18.4477 21.5 19 21.5C19.5522 21.5 20 21.0523 20 20.5V19.8V19.7769C20 19.6579 20.0001 19.5154 19.9898 19.3902C19.978 19.245 19.9475 19.037 19.8365 18.819C19.6927 18.5368 19.4632 18.3073 19.1809 18.1635C18.963 18.0525 18.755 18.022 18.6098 18.0101C18.4845 17.9999 18.3422 18 18.2231 18H18.2H9.8C8.94342 18 8.36113 17.9992 7.91104 17.9625C7.47262 17.9266 7.24842 17.8617 7.09202 17.782C6.7157 17.5903 6.40973 17.2843 6.21799 16.908C6.1383 16.7516 6.07337 16.5274 6.03755 16.089C6.00078 15.6389 6 15.0566 6 14.2V10V5.80001L6.00001 5.77687C6.00005 5.65776 6.00011 5.5155 5.98987 5.39018C5.978 5.24497 5.94756 5.03697 5.83651 4.81903C5.6927 4.53678 5.46323 4.30731 5.18099 4.1635C4.96304 4.05245 4.75505 4.02201 4.60983 4.01015C4.48451 3.99991 4.34226 3.99996 4.22314 4.00001H4.2H3.5C2.94772 4.00001 2.5 4.44773 2.5 5.00001C2.5 5.5523 2.94772 6.00001 3.5 6.00001Z" fill="black"/>
</svg>
