<svg width="24" height="24" viewBox="0 0 24 24" fill="none" xmlns="http://www.w3.org/2000/svg">
<path fill-rule="evenodd" clip-rule="evenodd" d="M11.9122 1.25H11.9567H12.5559H12.594H12.594H12.594C14.0193 1.25 15.1416 1.24999 16.0486 1.31377C16.973 1.37878 17.7489 1.51361 18.4669 1.82134C20.1349 2.53613 21.4639 3.86515 22.1787 5.53306C22.4864 6.25113 22.6212 7.027 22.6862 7.95141C22.7425 8.75198 22.7491 9.72029 22.7499 10.9167H22.75L22.75 11.4905L22.75 11.5505C22.75 11.6153 22.75 11.6786 22.75 11.7405V11.8435C22.75 11.9675 22.75 12.0891 22.7484 12.2056C22.743 12.8466 22.7199 13.3306 22.6234 13.801C22.4648 14.5737 22.1602 15.309 21.726 15.9675C21.3786 16.4943 20.9247 16.948 20.2242 17.6484L20.2241 17.6484L20.1489 17.7236L17.7236 20.1489L17.6484 20.2242L17.6484 20.2242L17.6483 20.2242L17.6483 20.2242C16.948 20.9248 16.4943 21.3786 15.9675 21.726C15.309 22.1602 14.5737 22.4648 13.801 22.6234C13.3286 22.7204 12.8424 22.7432 12.1973 22.7484C12.0833 22.75 11.9646 22.75 11.8435 22.75H11.8091C11.7255 22.75 11.6394 22.75 11.5505 22.75L11.4441 22.75H11.406C11.2808 22.75 11.158 22.75 11.0375 22.75H10.9167V22.7499C9.7203 22.7491 8.75198 22.7425 7.95141 22.6862C7.027 22.6212 6.25113 22.4864 5.53306 22.1787C3.86515 21.4639 2.53613 20.1349 1.82134 18.4669C1.51361 17.7489 1.37878 16.973 1.31377 16.0486C1.24999 15.1416 1.25 14.0193 1.25 12.594V12.594V12.594V12.5559V11.9567V11.9122V11.9122V11.9122C1.24999 10.251 1.24999 8.94308 1.33598 7.89066C1.42368 6.81719 1.60581 5.9218 2.02022 5.10847C2.69773 3.77879 3.77879 2.69773 5.10847 2.02022C5.9218 1.60581 6.81719 1.42368 7.89066 1.33598C8.94308 1.24999 10.251 1.24999 11.9122 1.25H11.9122H11.9122ZM11.6045 20.75H11.0937C9.803 20.7495 8.85303 20.7447 8.09172 20.6912C7.27247 20.6335 6.74732 20.5231 6.32088 20.3404C5.12501 19.8279 4.17213 18.875 3.65964 17.6791C3.47688 17.2527 3.36646 16.7275 3.30885 15.9083C3.25058 15.0797 3.25 14.0276 3.25 12.5559V11.9567C3.25 10.2413 3.25078 9.01499 3.32933 8.05352C3.40693 7.10374 3.55542 6.50085 3.80223 6.01645C4.28799 5.06309 5.06309 4.28799 6.01645 3.80223C6.50085 3.55542 7.10374 3.40693 8.05352 3.32933C9.01499 3.25078 10.2413 3.25 11.9567 3.25H12.5559C14.0276 3.25 15.0797 3.25058 15.9083 3.30885C16.7275 3.36646 17.2527 3.47688 17.6791 3.65964C18.875 4.17213 19.8279 5.12501 20.3404 6.32088C20.5231 6.74732 20.6335 7.27247 20.6912 8.09172C20.7494 8.92033 20.75 9.97242 20.75 11.4441C20.75 11.7659 20.7496 12.0308 20.7472 12.2541C20.7455 12.3282 20.7428 12.3884 20.7386 12.4408C20.7357 12.4763 20.7325 12.5001 20.7301 12.5147C20.7272 12.5181 20.7241 12.5213 20.7207 12.5242C20.7061 12.5265 20.6823 12.5297 20.6468 12.5326C20.5163 12.5432 20.3365 12.544 20.0167 12.544L16.9716 12.544C16.3982 12.544 15.9085 12.544 15.5062 12.5769C15.0831 12.6114 14.6693 12.6873 14.2731 12.8892C13.6772 13.1928 13.1928 13.6772 12.8892 14.2731C12.6873 14.6693 12.6115 15.0831 12.5769 15.5062C12.553 15.7979 12.5465 16.1356 12.5447 16.5178C12.3664 16.539 12.1846 16.55 12 16.55C10.232 16.55 8.69782 15.5418 7.94406 14.0646C7.70559 13.5972 7.13342 13.4117 6.66607 13.6502C6.19873 13.8886 6.01318 14.4608 6.25165 14.9282C7.31727 17.0166 9.49041 18.45 12 18.45C12.1831 18.45 12.3646 18.4423 12.544 18.4273L12.544 20.0166C12.544 20.3365 12.5433 20.5162 12.5326 20.6467C12.5297 20.6822 12.5265 20.706 12.5242 20.7206C12.5213 20.724 12.5181 20.7272 12.5147 20.7301C12.5001 20.7324 12.4763 20.7356 12.4408 20.7385C12.3875 20.7429 12.3261 20.7456 12.2502 20.7473C12.066 20.7492 11.8537 20.7498 11.6045 20.75ZM14.5438 20.249C14.654 20.1897 14.7617 20.1254 14.8665 20.0563C15.2029 19.8345 15.5082 19.5359 16.3094 18.7347L18.7347 16.3094C19.5359 15.5082 19.8345 15.2029 20.0563 14.8665C20.1254 14.7617 20.1897 14.654 20.249 14.5438C20.1835 14.544 20.1168 14.544 20.0495 14.544L17.0107 14.544C16.3875 14.544 15.9802 14.5448 15.6691 14.5702C15.3696 14.5947 15.2483 14.6369 15.1811 14.6712C14.9615 14.783 14.7831 14.9615 14.6712 15.181C14.6369 15.2483 14.5947 15.3696 14.5702 15.6691C14.5448 15.9802 14.544 16.3875 14.544 17.0107L14.544 20.0494C14.544 20.1168 14.5441 20.1835 14.5438 20.249ZM8.75 11C9.44036 11 10 10.3284 10 9.5C10 8.67157 9.44036 8 8.75 8C8.05964 8 7.5 8.67157 7.5 9.5C7.5 10.3284 8.05964 11 8.75 11ZM16.5 9.5C16.5 10.3284 15.9404 11 15.25 11C14.5596 11 14 10.3284 14 9.5C14 8.67157 14.5596 8 15.25 8C15.9404 8 16.5 8.67157 16.5 9.5Z" fill="black"/>
</svg>
