<svg width="24" height="24" viewBox="0 0 24 24" fill="none" xmlns="http://www.w3.org/2000/svg">
<path fill-rule="evenodd" clip-rule="evenodd" d="M11.8193 5.00231C11.8794 5.00079 11.9396 5.00002 12 5.00002C12.2174 5.00002 12.4322 5.0099 12.644 5.02919C13.1941 5.07927 13.6805 4.67399 13.7306 4.12398C13.7807 3.57397 13.3754 3.08751 12.8254 3.03743C12.5533 3.01266 12.278 3.00002 12 3.00002C11.919 3.00002 11.8381 3.00109 11.7576 3.00322C6.97626 3.12967 3.12413 6.9851 3.00296 11.7677C3.00101 11.8449 3.00002 11.9224 3.00002 12C3.00002 12.0826 3.00113 12.1648 3.00334 12.2468C3.06449 14.5183 3.96728 16.5798 5.41116 18.1309C5.57909 18.3113 5.75433 18.4848 5.93642 18.6509C7.46961 20.0495 9.48816 20.9251 11.7099 20.9954C11.8062 20.9985 11.9029 21 12 21C12.278 21 12.5533 20.9874 12.8254 20.9626C13.3754 20.9125 13.7807 20.4261 13.7306 19.8761C13.6805 19.3261 13.1941 18.9208 12.644 18.9709C12.4322 18.9901 12.2174 19 12 19C11.9357 19 11.8716 18.9992 11.8077 18.9974C10.0711 18.9506 8.49237 18.2713 7.29338 17.1815C7.12692 17.0303 6.96777 16.871 6.81654 16.7045C5.7255 15.5031 5.04639 13.9208 5.00231 12.1807C5.00079 12.1207 5.00002 12.0604 5.00002 12C5.00002 11.9349 5.00091 11.8699 5.00268 11.8052C5.05176 10.0096 5.77699 8.38287 6.93294 7.17044C7.01124 7.08831 7.09152 7.00808 7.1737 6.92983C8.38898 5.77265 10.0198 5.0479 11.8193 5.00231ZM17.7535 5.07897C17.329 4.72571 16.6985 4.78349 16.3452 5.20802C15.9919 5.63255 16.0497 6.26307 16.4743 6.61633C16.8044 6.89107 17.109 7.19562 17.3837 7.52579C17.737 7.95032 18.3675 8.0081 18.792 7.65484C19.2166 7.30158 19.2743 6.67105 18.9211 6.24652C18.5683 5.82263 18.1774 5.4317 17.7535 5.07897ZM20.9626 11.1746C20.9125 10.6246 20.4261 10.2194 19.8761 10.2694C19.3261 10.3195 18.9208 10.806 18.9709 11.356C18.9901 11.5678 19 11.7826 19 12C19 12.2174 18.9901 12.4322 18.9709 12.644C18.9208 13.1941 19.3261 13.6805 19.8761 13.7306C20.4261 13.7807 20.9125 13.3754 20.9626 12.8254C20.9874 12.5533 21 12.278 21 12C21 11.722 20.9874 11.4467 20.9626 11.1746ZM18.9211 17.7535C19.2743 17.329 19.2166 16.6985 18.792 16.3452C18.3675 15.9919 17.737 16.0497 17.3837 16.4743C17.109 16.8044 16.8044 17.109 16.4743 17.3837C16.0497 17.737 15.9919 18.3675 16.3452 18.792C16.6985 19.2166 17.329 19.2743 17.7535 18.9211C18.1774 18.5683 18.5683 18.1774 18.9211 17.7535Z" fill="black"/>
</svg>
