<svg width="16" height="16" viewBox="0 0 16 16" fill="none" xmlns="http://www.w3.org/2000/svg">
<g clip-path="url(#clip0_829_4)">
<path fill-rule="evenodd" clip-rule="evenodd" d="M7.5286 0.195262C7.78895 -0.0650873 8.21105 -0.0650873 8.4714 0.195262L11.1381 2.86193C11.3984 3.12228 11.3984 3.54439 11.1381 3.80474L8.4714 6.4714C8.21105 6.73175 7.78895 6.73175 7.5286 6.4714C7.26825 6.21105 7.26825 5.78895 7.5286 5.5286L9.05719 4H5.33333C4.22876 4 3.33333 4.89543 3.33333 6V10C3.33333 10.3682 3.03486 10.6667 2.66667 10.6667C2.29848 10.6667 2 10.3682 2 10V6C2 4.15905 3.49238 2.66667 5.33333 2.66667H9.05719L7.5286 1.13807C7.26825 0.877722 7.26825 0.455612 7.5286 0.195262ZM8.4714 15.8047C8.21105 16.0651 7.78895 16.0651 7.5286 15.8047L4.86193 13.1381C4.60158 12.8777 4.60158 12.4556 4.86193 12.1953L7.5286 9.5286C7.78895 9.26825 8.21105 9.26825 8.4714 9.5286C8.73175 9.78895 8.73175 10.2111 8.4714 10.4714L6.94281 12H10.6667C11.7712 12 12.6667 11.1046 12.6667 10V6C12.6667 5.63181 12.9651 5.33333 13.3333 5.33333C13.7015 5.33333 14 5.63181 14 6V10C14 11.841 12.5076 13.3333 10.6667 13.3333H6.94281L8.4714 14.8619C8.73175 15.1223 8.73175 15.5444 8.4714 15.8047Z" fill="black"/>
</g>
<defs>
<clipPath id="clip0_829_4">
<rect width="16" height="16" fill="white"/>
</clipPath>
</defs>
</svg>
