<svg width="20" height="20" viewBox="0 0 20 20" fill="none" xmlns="http://www.w3.org/2000/svg">
<path fill-rule="evenodd" clip-rule="evenodd" d="M10 2.75C9.93744 2.75 9.87506 2.75079 9.81287 2.75237C7.95994 2.79931 6.27977 3.54146 5.02346 4.72773C4.93061 4.8154 4.84007 4.90551 4.75195 4.99793C3.56016 6.24796 2.81041 7.92319 2.75349 9.77286C2.75117 9.84829 2.75 9.92401 2.75 10C2.75 10.0626 2.75079 10.1249 2.75237 10.1871C2.79746 11.9671 3.48408 13.5876 4.58964 14.8261C4.75865 15.0155 4.93746 15.1959 5.12526 15.3666C6.35971 16.4886 7.98284 17.1904 9.76881 17.2464C9.84558 17.2488 9.92265 17.25 10 17.25C10.3216 17.25 10.638 17.2291 10.9479 17.1887C11.3586 17.1351 11.735 17.4246 11.7886 17.8354C11.8422 18.2461 11.5526 18.6225 11.1419 18.6761C10.7678 18.7249 10.3867 18.75 10 18.75C9.88674 18.75 9.77398 18.7478 9.66176 18.7436C7.54803 18.6632 5.62634 17.8331 4.15503 16.5115C3.93392 16.3129 3.72298 16.1032 3.52309 15.8833C2.11078 14.3294 1.25 12.2652 1.25 10C1.25 7.66868 2.16174 5.55031 3.64811 3.982C3.75039 3.87408 3.8554 3.76876 3.96302 3.66615C5.5332 2.16912 7.65926 1.25 10 1.25C10.3867 1.25 10.7678 1.27513 11.1419 1.32392C11.5526 1.3775 11.8422 1.75389 11.7886 2.16463C11.735 2.57536 11.3586 2.86489 10.9479 2.81132C10.638 2.7709 10.3216 2.75 10 2.75ZM14.2756 3.19581C14.528 2.86737 14.9988 2.80572 15.3273 3.05811C15.9332 3.52372 16.4763 4.06684 16.9419 4.67273C17.1943 5.00117 17.1326 5.47202 16.8042 5.72442C16.4758 5.97681 16.0049 5.91516 15.7525 5.58672C15.3663 5.08421 14.9158 4.63366 14.4133 4.24749C14.0848 3.9951 14.0232 3.52425 14.2756 3.19581ZM17.8354 8.21143C18.2461 8.15785 18.6225 8.44738 18.6761 8.85812C18.7249 9.23217 18.75 9.61334 18.75 10C18.75 10.3867 18.7249 10.7678 18.6761 11.1419C18.6225 11.5526 18.2461 11.8422 17.8354 11.7886C17.4246 11.735 17.1351 11.3586 17.1887 10.9479C17.2291 10.638 17.25 10.3216 17.25 10C17.25 9.67839 17.2291 9.36203 17.1887 9.05213C17.1351 8.6414 17.4246 8.265 17.8354 8.21143ZM16.8042 14.2756C17.1326 14.528 17.1943 14.9988 16.9419 15.3273C16.4763 15.9332 15.9332 16.4763 15.3273 16.9419C14.9988 17.1943 14.528 17.1326 14.2756 16.8042C14.0232 16.4758 14.0848 16.0049 14.4133 15.7525C14.9158 15.3663 15.3663 14.9158 15.7525 14.4133C16.0049 14.0848 16.4758 14.0232 16.8042 14.2756ZM9.52339 6.82865V7.7C12.9534 7.7 14.1164 10.1701 14.5065 12.0169C14.6334 12.618 14.697 12.9185 14.6398 13.0179C14.5853 13.1127 14.5114 13.1592 14.4024 13.1675C14.288 13.1761 13.994 12.9503 13.4059 12.4986C12.5973 11.8777 11.3534 11.3 9.52339 11.3V12.1713C9.52339 12.7492 9.52339 13.0382 9.4074 13.1773C9.30668 13.2981 9.15499 13.3645 8.99792 13.3564C8.81704 13.3472 8.60484 13.1511 8.18042 12.7589L5.28988 10.0875C5.06911 9.88349 4.95872 9.78148 4.9178 9.66198C4.88185 9.55699 4.88185 9.44301 4.9178 9.33802C4.95872 9.21852 5.06911 9.11651 5.28988 8.91248L8.18042 6.24113C8.60483 5.8489 8.81704 5.65278 8.99792 5.64356C9.15499 5.63555 9.30668 5.70191 9.4074 5.8227C9.52339 5.9618 9.52339 6.25075 9.52339 6.82865Z" fill="black"/>
</svg>
