<svg width="24" height="24" viewBox="0 0 24 24" fill="none" xmlns="http://www.w3.org/2000/svg">
<path d="M12 1.00003L12.3379 1.00491C12.4499 1.00836 12.5616 1.01382 12.6729 1.02054C13.2241 1.0539 13.6447 1.52787 13.6113 2.07913C13.5779 2.63017 13.1038 3.04979 12.5527 3.01663C12.4614 3.01111 12.3695 3.00671 12.2773 3.00394L12 3.00003C7.02944 3.00003 3 7.02947 3 12C3.00002 16.9706 7.02945 21 12 21C12.1856 21 12.3701 20.9945 12.5527 20.9834C13.1038 20.9503 13.5779 21.3699 13.6113 21.9209C13.6446 22.4722 13.2241 22.9462 12.6729 22.9795C12.4502 22.993 12.2258 23 12 23L11.6621 22.9951C11.6001 22.9932 11.5383 22.9893 11.4766 22.9864C11.4515 22.9852 11.4264 22.9838 11.4014 22.9825C11.3766 22.9811 11.3518 22.981 11.3271 22.9795C11.309 22.9784 11.2913 22.9747 11.2734 22.9727C9.7945 22.8762 8.39608 22.4891 7.13379 21.8653C7.11987 21.8591 7.10556 21.8536 7.0918 21.8467C6.83982 21.7209 6.59394 21.5846 6.35352 21.4405C6.32157 21.4213 6.28955 21.4023 6.25781 21.3828C6.14593 21.3142 6.03496 21.2443 5.92578 21.1719C5.91862 21.1672 5.91227 21.1612 5.90527 21.1563C4.6932 20.3479 3.65104 19.3059 2.84277 18.0938C2.83813 18.0871 2.83264 18.081 2.82812 18.0742C2.75545 17.9647 2.68505 17.8535 2.61621 17.7412C2.59264 17.7028 2.56999 17.6638 2.54688 17.625C2.48477 17.5209 2.42397 17.4159 2.36523 17.3096C2.34868 17.2796 2.33171 17.2499 2.31543 17.2198C2.25985 17.1169 2.20568 17.0131 2.15332 16.9082C2.14678 16.8951 2.14165 16.8814 2.13574 16.8682C1.51119 15.6051 1.12278 14.2057 1.02637 12.7256C1.02439 12.7081 1.02158 12.6906 1.02051 12.6729C1.019 12.6479 1.01795 12.6228 1.0166 12.5977C1.01526 12.5726 1.01387 12.5476 1.0127 12.5225C1.00452 12.3493 1 12.1751 1 12C1 11.8148 1.00551 11.6305 1.01465 11.4473C1.01541 11.432 1.01578 11.4167 1.0166 11.4014C1.01794 11.3766 1.01901 11.3519 1.02051 11.3272C1.0216 11.3091 1.02434 11.2913 1.02637 11.2735C1.1229 9.79343 1.5111 8.39392 2.13574 7.13089C2.14155 7.11791 2.14691 7.10467 2.15332 7.09183C2.2058 6.98672 2.2597 6.88247 2.31543 6.77933C2.33657 6.7402 2.35926 6.70196 2.38086 6.66312C2.43734 6.56156 2.49513 6.4609 2.55469 6.36136C2.5753 6.3269 2.59523 6.29205 2.61621 6.25784C2.68492 6.14582 2.7556 6.03513 2.82812 5.92581C2.83278 5.91879 2.83797 5.91217 2.84277 5.9053C3.65107 4.69327 4.69323 3.6511 5.90527 2.8428C5.91213 2.83801 5.91877 2.83281 5.92578 2.82816C6.0351 2.75563 6.14578 2.68495 6.25781 2.61624C6.29202 2.59526 6.32687 2.57533 6.36133 2.55472C6.4756 2.48634 6.59108 2.41981 6.70801 2.3555C6.73188 2.34237 6.75531 2.32842 6.7793 2.31546C6.88242 2.25974 6.9867 2.20583 7.0918 2.15335C7.10556 2.14648 7.11987 2.14098 7.13379 2.1348C8.3961 1.51095 9.79447 1.12285 11.2734 1.0264C11.2912 1.02437 11.3091 1.02163 11.3271 1.02054C11.3519 1.01905 11.3766 1.01797 11.4014 1.01663C11.4264 1.01529 11.4515 1.0139 11.4766 1.01273C11.6501 1.00452 11.8246 1.00003 12 1.00003ZM16.9688 19.5059C17.429 19.2006 18.0492 19.326 18.3545 19.7862C18.6597 20.2463 18.5343 20.8666 18.0742 21.1719C17.701 21.4195 17.3117 21.6452 16.9082 21.8467C16.4141 22.0934 15.8131 21.8925 15.5664 21.3985C15.32 20.9044 15.5207 20.3043 16.0146 20.0576C16.3446 19.8929 16.6632 19.7086 16.9688 19.5059ZM20.0576 16.0147C20.3043 15.5207 20.9044 15.32 21.3984 15.5664C21.8925 15.8132 22.0934 16.4141 21.8467 16.9082C21.6452 17.3118 21.4195 17.701 21.1719 18.0742C20.8665 18.5344 20.2463 18.6598 19.7861 18.3545C19.3259 18.0492 19.2005 17.429 19.5059 16.9688C19.7086 16.6633 19.8929 16.3446 20.0576 16.0147ZM21.9209 10.3887C22.4722 10.3554 22.9462 10.7759 22.9795 11.3272C22.9929 11.5499 23 11.7742 23 12C23 12.2258 22.9929 12.4502 22.9795 12.6729C22.9462 13.2241 22.4721 13.6447 21.9209 13.6114C21.3698 13.5779 20.9502 13.1038 20.9834 12.5528C20.9944 12.3701 21 12.1857 21 12C21 11.8144 20.9944 11.6299 20.9834 11.4473C20.9502 10.8962 21.3698 10.4222 21.9209 10.3887ZM19.7861 5.64554C20.2463 5.34027 20.8665 5.46568 21.1719 5.92581C21.4195 6.29902 21.6452 6.68833 21.8467 7.09183C22.0934 7.58592 21.8925 8.1869 21.3984 8.43362C20.9044 8.68001 20.3043 8.47932 20.0576 7.98538C19.8929 7.65545 19.7085 7.33678 19.5059 7.03128C19.2005 6.57107 19.3259 5.95087 19.7861 5.64554ZM15.5664 2.60159C15.8131 2.10748 16.4141 1.90663 16.9082 2.15335C17.3117 2.35484 17.701 2.58055 18.0742 2.82816C18.5343 3.13351 18.6598 3.75373 18.3545 4.2139C18.0492 4.67409 17.429 4.79945 16.9688 4.49417C16.6633 4.29149 16.3446 4.10715 16.0146 3.94241C15.5207 3.69577 15.32 3.09563 15.5664 2.60159Z" fill="black"/>
<path fill-rule="evenodd" clip-rule="evenodd" d="M9.5 8.69606C9.5 8.0019 10.2601 7.57561 10.8524 7.93758L16.2589 11.2415C16.826 11.5881 16.826 12.4119 16.2589 12.7585L10.8524 16.0624C10.2601 16.4244 9.5 15.9981 9.5 15.304V8.69606Z" fill="black"/>
</svg>
