<svg width="100" height="100" viewBox="0 0 100 100" fill="none" xmlns="http://www.w3.org/2000/svg">
<path d="M49.9757 20.0073C52.2543 20.0073 54.1021 21.8569 54.1034 24.1352V26.6809C60.5244 27.767 65.4198 33.3409 65.4204 40.0706C65.4198 42.3493 63.5708 44.1973 61.2922 44.1985C59.0137 44.1973 57.1646 42.3493 57.1646 40.0706C57.164 37.1226 54.7725 34.7316 51.8242 34.7305H48.7211C45.4476 34.7313 42.7943 37.3852 42.793 40.6586V41.689C42.7944 43.9984 44.666 45.87 46.9754 45.8714H52.9824C59.8504 45.8728 65.4186 51.4412 65.4204 58.3092V59.3401C65.4198 66.1901 60.5617 71.906 54.1034 73.2324V75.8635C54.1028 78.1421 52.255 79.9911 49.9757 79.9911C47.6977 79.9898 45.849 78.1414 45.8479 75.8635V73.2814C39.4135 72.0978 34.5373 66.4737 34.5373 59.6976C34.5378 57.4185 36.3858 55.5694 38.6652 55.5694C40.9435 55.5707 42.7926 57.4191 42.793 59.6976C42.793 62.7744 45.2868 65.2677 48.3634 65.2677H51.2364C54.5099 65.2671 57.164 62.6136 57.1646 59.3401V58.3092C57.1628 56.0002 55.2914 54.1282 52.9824 54.1269H46.9754C40.1068 54.1257 34.5388 48.5576 34.5373 41.689V40.6586C34.5384 33.8095 39.3916 28.0937 45.8479 26.7658V24.1352C45.8495 21.8575 47.6981 20.0084 49.9757 20.0073Z" fill="black"/>
<path d="M88.5 50C88.5 28.737 71.263 11.5 50 11.5C28.737 11.5 11.5 28.737 11.5 50C11.5 58.9795 14.5451 67.2094 19.6875 73.752H19.6855C20.919 75.2877 21.057 77.1616 20.9727 78.4834C20.8805 79.9277 20.4818 81.4385 19.96 82.8477C19.7631 83.3792 19.5401 83.9184 19.2945 84.459C18.9352 85.25 19.6306 86.1494 20.4712 85.9298C21.4989 85.6613 22.5115 85.3868 23.5205 85.127C25.1134 84.7168 26.7736 84.3281 28.3467 84.1719C29.8203 84.0255 31.4744 84.0523 33.083 84.6299L33.4043 84.7529L33.4922 84.7891L33.5781 84.8301L34.4258 85.2178L34.4326 85.2207C39.1894 87.3265 44.4534 88.5 50 88.5C71.263 88.5 88.5 71.263 88.5 50ZM31.2178 91.4248L31.2148 91.4229L31.2129 91.4219L31.2178 91.4248ZM95.5 50C95.5 75.129 75.129 95.5 50 95.5C43.4567 95.5 37.2294 94.1143 31.5996 91.6221L32.4551 89.6855L32.4297 89.7217L31.5908 91.6182C31.3014 91.49 31.0141 91.3568 30.7275 91.2227C30.4837 91.1327 29.9922 91.043 29.0391 91.1377C28.0398 91.237 26.8242 91.504 25.2656 91.9053C22.2877 92.672 18.2406 93.8937 13.7715 94.3828C11.1362 94.6712 9.58149 92.7546 9.05762 91.4395C8.53503 90.1273 8.41776 88.0684 9.84375 86.4307L10.1133 86.1123C11.4542 84.4854 12.6817 82.3444 13.3955 80.417C13.7767 79.3876 13.953 78.5743 13.9873 78.0371C13.9928 77.9516 13.9927 77.8825 13.9922 77.8281C8.02659 70.1294 4.5 60.4818 4.5 50C4.5 24.871 24.871 4.5 50 4.5C75.129 4.5 95.5 24.871 95.5 50Z" fill="black"/>
</svg>
