<?xml version="1.0" encoding="UTF-8" standalone="no"?>
<svg
   width="24"
   height="24"
   viewBox="0 0 24 24"
   fill="none"
   version="1.1"
   id="svg416"
   xmlns="http://www.w3.org/2000/svg"
   xmlns:svg="http://www.w3.org/2000/svg">
  <defs
     id="defs420" />
  <path
     style="color:#000000;fill:#000000;-inkscape-stroke:none"
     d="M 8.4003906,3 C 6.1601829,3 4.9006554,2.9486825 3.7304688,3.5449219 2.789776,4.0242359 2.0242359,4.789776 1.5449219,5.7304687 0.94868246,6.9006554 1,8.1601829 1,10.400391 v 3.199218 c 0,2.240198 -0.0512893,3.499709 0.5449219,4.669922 0.4793194,0.940641 1.2448666,1.70624 2.1855469,2.185547 C 4.9006637,21.051363 6.1601829,21 8.4003906,21 h 5.4003904 c 1.173299,0 1.849339,0.01507 2.572266,-0.191406 0.596115,-0.170248 1.15457,-0.451428 1.648437,-0.826172 0.598864,-0.454417 0.99521,-1.004647 1.699219,-1.94336 l 1.919922,-2.558593 c 0.774599,-1.032799 1.258865,-1.628572 1.478516,-2.462891 0.175569,-0.66735 0.175569,-1.367806 0,-2.035156 C 22.89949,10.148103 22.415224,9.5523302 21.640625,8.5195313 L 19.720703,5.9609375 C 19.016704,5.0222784 18.62036,4.4720175 18.021484,4.0175781 17.527626,3.6428406 16.969161,3.3616657 16.373047,3.1914063 15.650138,2.9849645 14.97408,3 13.800781,3 Z m 0,2 h 5.4003904 c 1.173299,0 1.669347,0.014116 2.023438,0.1152344 0.357684,0.1021603 0.69194,0.2692788 0.988281,0.4941406 0.293323,0.2225799 0.602641,0.6121222 1.306641,1.5507812 l 1.919921,2.5605469 c 0.7746,1.0327989 1.065583,1.4696509 1.144532,1.7695309 0.08783,0.33385 0.08783,0.685682 0,1.019532 -0.07895,0.29988 -0.369932,0.736732 -1.144532,1.769531 l -1.919921,2.560547 c -0.703989,0.938685 -1.013306,1.328199 -1.306641,1.550781 -0.296332,0.224855 -0.630598,0.391988 -0.988281,0.494141 C 15.470147,18.985891 14.97408,19 13.800781,19 H 8.4003906 C 6.1601829,19 5.1797552,18.949543 4.6386719,18.673828 4.0740536,18.386137 3.6138517,17.925886 3.3261719,17.361328 3.050444,16.820143 3,15.839807 3,13.599609 V 10.400391 C 3,8.1601829 3.0504722,7.1797635 3.3261719,6.6386719 3.6138571,6.0740661 4.0740661,5.6138571 4.6386719,5.3261719 5.1797635,5.0504722 6.1601829,5 8.4003906,5 Z"
     id="path412" />
  <circle
     cx="15"
     cy="12"
     r="2"
     fill="#000000"
     id="circle414" />
</svg>
