<svg width="20" height="20" viewBox="0 0 20 20" fill="none" xmlns="http://www.w3.org/2000/svg">
<path d="M14.5547 2.33984C16.576 2.33984 18.2148 3.97864 18.2148 6V9.83789C18.2148 10.809 17.8286 11.7397 17.1426 12.4258L11.1426 18.4258C9.71324 19.8549 7.39605 19.855 5.9668 18.4258L2.12891 14.5879C0.69987 13.1586 0.69987 10.8414 2.12891 9.41211L8.12891 3.41211C8.81485 2.72618 9.7458 2.33996 10.7168 2.33984H14.5547ZM10.7168 4C10.1865 4.00011 9.67771 4.21097 9.30273 4.58594L3.30273 10.5859C2.52197 11.3669 2.52197 12.6331 3.30273 13.4141L7.14062 17.252C7.9216 18.0329 9.18768 18.0328 9.96875 17.252L15.9688 11.252C16.3438 10.8769 16.5547 10.3683 16.5547 9.83789V6C16.5547 4.89543 15.6593 4 14.5547 4H10.7168Z" fill="black"/>
<path d="M13.8893 7.99984C13.8893 8.73622 13.2924 9.33317 12.556 9.33317C11.8196 9.33317 11.2227 8.73622 11.2227 7.99984C11.2227 7.26346 11.8196 6.6665 12.556 6.6665C13.2924 6.6665 13.8893 7.26346 13.8893 7.99984Z" fill="black"/>
</svg>
