<svg width="24" height="24" viewBox="0 0 24 24" fill="none" xmlns="http://www.w3.org/2000/svg">
<path fill-rule="evenodd" clip-rule="evenodd" d="M1.70711 2.29289C1.31658 1.90237 0.683418 1.90237 0.292893 2.29289C-0.0976311 2.68342 -0.0976311 3.31658 0.292893 3.70711L18.2929 21.7071C18.6834 22.0976 19.3166 22.0976 19.7071 21.7071C20.0976 21.3166 20.0976 20.6834 19.7071 20.2929L18.7261 19.3119C19.0072 18.9911 19.293 18.6098 19.6373 18.1503L19.72 18.04L21.64 15.48L21.7513 15.3318C22.4172 14.4454 22.9181 13.7786 23.1182 13.0183C23.2939 12.3508 23.2939 11.6492 23.1182 10.9817C22.9181 10.2214 22.4172 9.55462 21.7513 8.66825L21.64 8.52L19.72 5.96L19.6373 5.84974C19.0134 5.01725 18.5818 4.4414 18.0224 4.01688C17.5285 3.64212 16.9692 3.36248 16.3731 3.19223C15.6978 2.99936 14.9781 2.99961 13.9378 2.99997L13.8 3H8.4H8.35717H8.35707C7.27334 2.99999 6.39923 2.99998 5.69138 3.05782C4.96253 3.11737 4.32234 3.24318 3.73005 3.54497C3.56187 3.63066 3.39931 3.72547 3.243 3.82879L1.70711 2.29289ZM4.70765 5.29343L17.3078 17.8936C17.5032 17.6587 17.7522 17.3304 18.12 16.84L20.04 14.28C20.868 13.176 21.0967 12.8412 21.1841 12.5091C21.272 12.1754 21.272 11.8246 21.1841 11.4909C21.0967 11.1588 20.868 10.824 20.04 9.72L18.12 7.16C17.3812 6.17497 17.1218 5.84412 16.8134 5.61013C16.5171 5.38527 16.1815 5.21749 15.8238 5.11534C15.4516 5.00903 15.0313 5 13.8 5H8.4C7.26339 5 6.47108 5.00078 5.85424 5.05118C5.30089 5.09639 4.96282 5.17732 4.70765 5.29343ZM13.8 21L13.9378 21H13.9378C14.8179 21.0003 15.4684 21.0006 16.0568 20.8839L14.1725 18.9996C14.0572 18.9999 13.9333 19 13.8 19H8.4C7.26339 19 6.47108 18.9992 5.85424 18.9488C5.24907 18.8994 4.90138 18.8072 4.63803 18.673C4.07354 18.3854 3.6146 17.9265 3.32698 17.362C3.1928 17.0986 3.10062 16.7509 3.05118 16.1458C3.00078 15.5289 3 14.7366 3 13.6V10.4C3 9.27701 3.00076 8.49012 3.04939 7.87649L1.35172 6.17882C1.18501 6.64436 1.10264 7.14275 1.05782 7.69138C0.999983 8.39923 0.999991 9.27334 1 10.3571V10.3572V10.4V13.6V13.6428V13.6429C0.999991 14.7267 0.999983 15.6008 1.05782 16.3086C1.11737 17.0375 1.24318 17.6777 1.54497 18.27C2.02433 19.2108 2.78924 19.9757 3.73005 20.455C4.32234 20.7568 4.96253 20.8826 5.69138 20.9422C6.39923 21 7.27335 21 8.35709 21H8.35719H8.4H13.8ZM17 12C17 13.1046 16.1046 14 15 14C13.8954 14 13 13.1046 13 12C13 10.8954 13.8954 10 15 10C16.1046 10 17 10.8954 17 12Z" fill="black"/>
</svg>
