<svg width="24" height="24" viewBox="0 0 24 24" fill="none" xmlns="http://www.w3.org/2000/svg">
<path fill-rule="evenodd" clip-rule="evenodd" d="M12.8304 1.99992C12.8304 1.54153 12.4588 1.16992 12.0004 1.16992C11.542 1.16992 11.1704 1.54153 11.1704 1.99992V3.20842C6.68295 3.62677 3.17041 7.40315 3.17041 11.9999C3.17041 16.8766 7.12374 20.8299 12.0004 20.8299C16.8771 20.8299 20.8304 16.8766 20.8304 11.9999C20.8304 9.86047 20.0695 7.89873 18.8036 6.37055L19.5873 5.58682C19.9114 5.26269 19.9114 4.73716 19.5873 4.41302C19.2632 4.08889 18.7376 4.08889 18.4135 4.41302L17.6298 5.19675C16.3015 4.09643 14.6457 3.37766 12.8304 3.20842V1.99992ZM12.0004 4.82992C8.04053 4.82992 4.83041 8.04004 4.83041 11.9999C4.83041 15.9598 8.04053 19.1699 12.0004 19.1699C15.9603 19.1699 19.1704 15.9598 19.1704 11.9999C19.1704 8.04004 15.9603 4.82992 12.0004 4.82992ZM12.0004 6.16992C12.4588 6.16992 12.8304 6.54153 12.8304 6.99992V10.7505C13.234 11.0194 13.5 11.4786 13.5 11.9999C13.5 12.8283 12.8284 13.4999 12 13.4999C11.1716 13.4999 10.5 12.8283 10.5 11.9999C10.5 11.4782 10.7663 11.0187 11.1704 10.75V6.99992C11.1704 6.54153 11.542 6.16992 12.0004 6.16992Z" fill="black"/>
</svg>
