<svg width="23" height="22" viewBox="0 0 23 22" fill="none" xmlns="http://www.w3.org/2000/svg">
  <path fill-rule="evenodd" clip-rule="evenodd" d="M15.6797 12C15.9556 12 16.2252 12.0279 16.4854 12.0811C16.6157 12.1077 16.7437 12.1407 16.8691 12.1797C17.1195 12.2575 17.3593 12.3594 17.5859 12.4824C17.6995 12.5441 17.8094 12.6116 17.916 12.6836C18.1288 12.8273 18.3269 12.991 18.5078 13.1719C18.5984 13.2625 18.685 13.3571 18.7666 13.4561C19.0518 13.8017 19.2795 14.1963 19.4365 14.625C19.4813 14.7474 19.5209 14.8724 19.5537 15C19.636 15.3196 19.6797 15.6547 19.6797 16C19.6797 16.9663 19.337 17.8526 18.7666 18.5439C18.685 18.6429 18.5984 18.7375 18.5078 18.8281C18.3269 19.0091 18.1288 19.1727 17.916 19.3164C17.8094 19.3884 17.6995 19.4559 17.5859 19.5176C17.2458 19.7023 16.876 19.8391 16.4854 19.9189C16.3554 19.9455 16.2231 19.9659 16.0889 19.9795C15.9544 19.9932 15.8178 20 15.6797 20C14.7134 20 13.8271 19.6574 13.1357 19.0869C13.0368 19.0053 12.9422 18.9187 12.8516 18.8281C12.6706 18.6472 12.507 18.4491 12.3633 18.2363C12.2194 18.0234 12.0954 17.7961 11.9941 17.5566C11.9436 17.4371 11.8983 17.3146 11.8594 17.1895C11.8204 17.0641 11.7874 16.936 11.7607 16.8057C11.7075 16.5455 11.6797 16.2759 11.6797 16C11.6797 15.724 11.7075 15.4546 11.7607 15.1943C11.8007 14.9989 11.8555 14.8089 11.9229 14.625C11.9453 14.5638 11.9689 14.5031 11.9941 14.4434C12.0954 14.2039 12.2194 13.9766 12.3633 13.7637C12.507 13.5509 12.6706 13.3528 12.8516 13.1719C12.9422 13.0813 13.0368 12.9947 13.1357 12.9131C13.2343 12.8317 13.3372 12.7554 13.4434 12.6836C13.5499 12.6116 13.6599 12.5441 13.7734 12.4824C13.9434 12.3901 14.121 12.3104 14.3047 12.2432C14.4886 12.1758 14.6786 12.121 14.874 12.0811C15.1343 12.0278 15.4037 12 15.6797 12ZM15.6797 13C15.4035 13 15.1797 13.2239 15.1797 13.5V16C15.1797 16.1326 15.2324 16.2597 15.3262 16.3535L16.8262 17.8535C17.0214 18.0488 17.3379 18.0488 17.5332 17.8535C17.7285 17.6583 17.7285 17.3417 17.5332 17.1465L16.1797 15.793V13.5C16.1797 13.2239 15.9558 13 15.6797 13Z" fill="#000000"/>
  <path fill-rule="evenodd" clip-rule="evenodd" d="M11.5137 2.83789C13.9351 2.83824 15.8984 4.80115 15.8984 7.22266V9.81055C16.4206 10.1273 16.8347 10.6007 17.0713 11.1719C17.0751 11.1811 17.0774 11.1909 17.0811 11.2002C16.6363 11.0706 16.1663 11 15.6797 11C12.9183 11 10.6797 13.2386 10.6797 16C10.6797 16.733 10.8387 17.4285 11.1221 18.0557H10.0684C8.72248 18.0557 8.04941 18.0558 7.51855 17.8359C6.81075 17.5428 6.2483 16.9802 5.95508 16.2725C5.73519 15.7416 5.73535 15.0685 5.73535 13.7227C5.73535 12.3766 5.73517 11.7028 5.95508 11.1719C6.19193 10.6003 6.60613 10.1263 7.12891 9.80957V7.22266C7.12891 4.80093 9.09194 2.83789 11.5137 2.83789ZM11.5137 4.38477C9.94667 4.38477 8.67578 5.65566 8.67578 7.22266V9.40625C9.04553 9.38935 9.49611 9.38867 10.0684 9.38867H12.957C13.5296 9.38867 13.9807 9.38933 14.3506 9.40625V7.22266C14.3506 5.65587 13.0804 4.38512 11.5137 4.38477Z" fill="#000000"/>
</svg>
