<svg xmlns="http://www.w3.org/2000/svg" width="24" height="24" viewBox="0 0 24 24">
  <path d="M12.9784736,20.6905767 C13.3378369,20.6905767 13.6291585,20.9837011 13.6291585,21.3452883 C13.6291585,21.674004 13.3883969,21.9461388 13.074627,21.9929012 L12.9784736,22 L11.0215264,22 C10.6621631,22 10.3708415,21.7068756 10.3708415,21.3452883 C10.3708415,21.0165726 10.6116031,20.7444378 10.925373,20.6976754 L11.0215264,20.6905767 L12.9784736,20.6905767 Z M12,3 C16.1407492,3 19.5,6.34784861 19.5,10.4807782 C19.5,12.734641 18.4448452,14.7812449 16.64075,16.3566655 C16.2163345,16.7272851 15.9367933,17.4530048 15.8447956,18.559323 C15.7783203,19.3587221 15.1492503,19.9843588 14.3692398,20.0551971 L14.2213195,20.0618847 L9.77869469,20.0618847 C8.93156764,20.0618847 8.22579098,19.4086584 8.15520763,18.5592823 C8.06322548,17.4529997 7.78374431,16.727342 7.35945684,16.3568262 C5.5552182,14.7812459 4.5,12.7346744 4.5,10.4807782 C4.5,6.34784861 7.85925085,3 12,3 Z M12,4.30942335 C8.57520463,4.30942335 5.80136986,7.07384294 5.80136986,10.4807782 C5.80136986,12.3286317 6.67714591,14.0271793 8.21245295,15.3679107 C8.93543308,15.9992647 9.33440024,17.0351613 9.45204958,18.4501469 C9.46422185,18.5966238 9.57028544,18.714106 9.70767756,18.744683 L9.77869469,18.7524613 L14.2213074,18.7524613 C14.3917472,18.7524613 14.5337466,18.6210345 14.5479573,18.4501435 C14.6656235,17.0351484 15.0646695,15.9991814 15.7877645,15.3677408 C17.3229123,14.0271777 18.1986301,12.3286141 18.1986301,10.4807782 C18.1986301,7.07384294 15.4247954,4.30942335 12,4.30942335 Z M15.0192778,10.5845778 C15.225766,10.8426881 15.2087516,11.2074674 14.9942146,11.4450976 L14.9154222,11.5192778 L12.664,13.319 L12.665,16 C12.665,16.3672694 12.3672694,16.665 12,16.665 C11.6661188,16.665 11.3897075,16.4189416 11.3422103,16.0982688 L11.335,16 L11.335,13.32 L9.08457779,11.5192778 C8.79778861,11.2898464 8.75129089,10.871367 8.98072224,10.5845778 C9.18721046,10.3264675 9.54682761,10.2629933 9.82575548,10.4201351 L9.91542221,10.4807222 L12,12.148 L14.0845778,10.4807222 C14.371367,10.2512909 14.7898464,10.2977886 15.0192778,10.5845778 Z"/>
</svg>
