<svg width="24" height="24" viewBox="0 0 24 24" fill="none" xmlns="http://www.w3.org/2000/svg">
<path fill-rule="evenodd" clip-rule="evenodd" d="M4 6C3.44772 6 3 6.44772 3 7C3 7.55228 3.44772 8 4 8H5C5.55228 8 6 7.55228 6 7C6 6.44772 5.55228 6 5 6H4ZM9 6C8.44772 6 8 6.44772 8 7C8 7.55228 8.44772 8 9 8H20C20.5523 8 21 7.55228 21 7C21 6.44772 20.5523 6 20 6H9ZM9 11C8.44772 11 8 11.4477 8 12C8 12.5523 8.44772 13 9 13H20C20.5523 13 21 12.5523 21 12C21 11.4477 20.5523 11 20 11H9ZM8 17C8 16.4477 8.44772 16 9 16H20C20.5523 16 21 16.4477 21 17C21 17.5523 20.5523 18 20 18H9C8.44772 18 8 17.5523 8 17ZM3 12C3 11.4477 3.44772 11 4 11H5C5.55228 11 6 11.4477 6 12C6 12.5523 5.55228 13 5 13H4C3.44772 13 3 12.5523 3 12ZM4 16C3.44772 16 3 16.4477 3 17C3 17.5523 3.44772 18 4 18H5C5.55228 18 6 17.5523 6 17C6 16.4477 5.55228 16 5 16H4Z" fill="black"/>
</svg>
