<svg width="30" height="30" viewBox="0 0 30 30" fill="none" xmlns="http://www.w3.org/2000/svg">
<path d="M5 24C3.35501 24 2 25.355 2 27V28C2 28.2652 2.10536 28.5196 2.29289 28.7071C2.48043 28.8946 2.73478 29 3 29C3.26522 29 3.51957 28.8946 3.70711 28.7071C3.89464 28.5196 4 28.2652 4 28V27C4 26.4358 4.43585 26 5 26H13C13.5642 26 14 26.4358 14 27V28C14 28.2652 14.1054 28.5196 14.2929 28.7071C14.4804 28.8946 14.7348 29 15 29C15.2652 29 15.5196 28.8946 15.7071 28.7071C15.8946 28.5196 16 28.2652 16 28V27C16 25.355 14.645 24 13 24H5Z" fill="black"/>
<path d="M17.732 0.544922C16.8343 0.544922 15.9368 0.885028 15.2574 1.56445C14.2782 2.54368 14.0089 3.97639 14.441 5.20898L9.71054 9.93945C8.47755 9.5065 7.04569 9.77813 6.06601 10.7578C4.70716 12.1167 4.70716 14.3482 6.06601 15.707L11.0152 20.6563C12.3741 22.0151 14.6056 22.0151 15.9644 20.6562C16.9441 19.6766 17.2138 18.2447 16.7809 17.0117L17.025 16.7676L19.1949 18.9375L23.3883 23.1309C24.5514 24.294 26.4672 24.2939 27.6305 23.1309C28.7935 21.9676 28.7936 20.0518 27.6305 18.8887L21.2672 12.5254L21.5113 12.2812C22.7443 12.7142 24.1781 12.4445 25.1578 11.4648C26.5167 10.106 26.5167 7.87447 25.1578 6.51562L20.2066 1.56445C19.5272 0.885028 18.6297 0.544922 17.732 0.544922ZM17.732 2.5293C18.1124 2.5293 18.4927 2.6786 18.7926 2.97852L23.7418 7.92969C24.3416 8.52952 24.3416 9.45094 23.7418 10.0508C23.1544 10.6381 22.26 10.6488 21.6598 10.0859L21.2691 9.69531L21.2672 9.69727L17.025 5.45312L16.6715 5.09961C16.0716 4.49977 16.0716 3.57835 16.6715 2.97852C16.9714 2.6786 17.3517 2.5293 17.732 2.5293ZM15.6109 6.86914L19.8531 11.1113L15.6109 15.3535L11.3687 11.1113L15.6109 6.86914ZM8.54062 11.7227C8.92099 11.7227 9.30124 11.872 9.60116 12.1719L9.95468 12.5254L14.5504 17.1211C15.1502 17.7209 15.1502 18.6424 14.5504 19.2422C13.9505 19.842 13.0291 19.842 12.4293 19.2422L7.48007 14.293C6.88023 13.6931 6.88023 12.7717 7.48007 12.1719C7.77999 11.872 8.16024 11.7227 8.54062 11.7227ZM19.8531 13.9395L26.2164 20.3027C26.6152 20.7016 26.6153 21.3178 26.2164 21.7168C25.8174 22.1157 25.2012 22.1156 24.8023 21.7168L20.609 17.5234L18.4391 15.3535L19.8531 13.9395Z" fill="black"/>
<path d="M2 28C1.73478 28 1.48043 28.1054 1.29289 28.2929C1.10536 28.4804 1 28.7348 1 29C1 29.2652 1.10536 29.5196 1.29289 29.7071C1.48043 29.8946 1.73478 30 2 30H16C16.2652 30 16.5196 29.8946 16.7071 29.7071C16.8946 29.5196 17 29.2652 17 29C17 28.7348 16.8946 28.4804 16.7071 28.2929C16.5196 28.1054 16.2652 28 16 28H2Z" fill="black"/>
</svg>
