<svg width="36" height="18" viewBox="0 0 36 18" fill="none" xmlns="http://www.w3.org/2000/svg">
<path fill-rule="evenodd" clip-rule="evenodd" d="M14.0581 10.1851H1.15515C0.519816 10.1851 0 9.6517 0 8.99972C0 8.34774 0.519816 7.8143 1.15515 7.8143H14.0581L8.43257 2.01761C8.32562 1.90786 8.24079 1.77757 8.18291 1.63417C8.12503 1.49078 8.09524 1.33709 8.09524 1.18189C8.09524 1.02668 8.12503 0.872991 8.18291 0.729598C8.24079 0.586205 8.32562 0.455914 8.43257 0.346166C8.53951 0.236418 8.66648 0.149361 8.80621 0.0899654C8.94594 0.0305701 9.0957 0 9.24695 0C9.39819 0 9.54795 0.0305701 9.68768 0.0899654C9.82742 0.149361 9.95438 0.236418 10.0613 0.346166L17.6622 8.16992C17.7693 8.27959 17.8542 8.40986 17.9122 8.55326C17.9702 8.69666 18 8.85039 18 9.00564C18 9.1609 17.9702 9.31462 17.9122 9.45803C17.8542 9.60143 17.7693 9.7317 17.6622 9.84136L10.0498 17.6533C9.59927 18.1156 8.87152 18.1156 8.42102 17.6533C7.97051 17.191 7.97051 16.4323 8.42102 15.97L14.0581 10.1851ZM27.7195 0H28.5339L36 18H32.4163L30.8171 13.7843H23.1657L21.5701 18H18L25.4389 0H26.2398H27.7195ZM24.0968 11.3242H29.8838L26.987 3.68804L24.0968 11.3242Z" fill="black"/>
</svg>
