<svg width="24" height="24" viewBox="0 0 24 24" fill="none" xmlns="http://www.w3.org/2000/svg">
<path fill-rule="evenodd" clip-rule="evenodd" d="M9.2 0.99997L9.0622 0.999939C8.02186 0.999582 7.30223 0.999335 6.62693 1.1922C6.03079 1.36245 5.47151 1.64209 4.97762 2.01685C4.41815 2.44137 3.98657 3.01722 3.36265 3.84971L3.28 3.95997L3.16 4.11997L3.11084 4.18548C2.80197 4.59697 2.56846 4.90807 2.39899 5.25848C2.24937 5.56788 2.14024 5.89527 2.0743 6.23256C1.99962 6.61457 1.99977 7.00355 1.99997 7.51807L2 7.59997V12.2731C1.99999 12.301 2 12.329 2 12.3572L2 12.4V13V14.6L2 14.6428C1.99999 15.7266 1.99998 16.6007 2.05781 17.3086C2.11736 18.0374 2.24318 18.6776 2.54496 19.2699C3.02433 20.2107 3.78923 20.9756 4.73004 21.455C5.32233 21.7568 5.96252 21.8826 6.69137 21.9422C7.39922 22 8.27333 22 9.35706 22H9.35716H9.4H14.6H14.6428H14.6429C15.7267 22 16.6008 22 17.3086 21.9422C18.0375 21.8826 18.6777 21.7568 19.2699 21.455C20.2108 20.9756 20.9757 20.2107 21.455 19.2699C21.7568 18.6776 21.8826 18.0374 21.9422 17.3086C22 16.6007 22 15.7266 22 14.6429V14.6428V14.6V13V12.4V12.3571V12.357C22 12.333 22 12.309 22 12.2852V7.59997L22 7.51807C22.0002 7.00355 22.0004 6.61457 21.9257 6.23256C21.8598 5.89527 21.7506 5.56788 21.601 5.25848C21.4315 4.90806 21.198 4.59697 20.8892 4.18547L20.84 4.11997L20.72 3.95997L20.6374 3.84973C20.0134 3.01723 19.5818 2.44138 19.0224 2.01685C18.5285 1.64209 17.9692 1.36245 17.3731 1.1922C16.6978 0.999335 15.9781 0.999582 14.9378 0.999939L14.8 0.99997H9.2ZM19.5008 5.67031C19.4319 5.57636 19.3467 5.46227 19.24 5.31997L19.12 5.15997C18.3812 4.17494 18.1218 3.84409 17.8134 3.6101C17.5171 3.38524 17.1815 3.21746 16.8238 3.11531C16.4516 3.009 16.0313 2.99997 14.8 2.99997H9.2C7.9687 2.99997 7.54837 3.009 7.17615 3.11531C6.81847 3.21746 6.4829 3.38524 6.18657 3.6101C5.8782 3.84409 5.61877 4.17494 4.88 5.15997L4.76 5.31997C4.65328 5.46226 4.56813 5.57636 4.4992 5.6703C4.57489 5.62658 4.65186 5.58477 4.73004 5.54494C5.32233 5.24315 5.96252 5.11734 6.69137 5.05779C7.39925 4.99995 8.2734 4.99996 9.35719 4.99997H9.4H14.6H14.6428C15.7266 4.99996 16.6007 4.99995 17.3086 5.05779C18.0375 5.11734 18.6777 5.24315 19.2699 5.54494C19.3481 5.58477 19.4251 5.62659 19.5008 5.67031ZM4 12.4V13V14.6C4 15.7366 4.00077 16.5289 4.05117 17.1457C4.10062 17.7509 4.19279 18.0986 4.32698 18.3619C4.6146 18.9264 5.07354 19.3854 5.63802 19.673C5.90138 19.8072 6.24907 19.8994 6.85424 19.9488C7.47108 19.9992 8.26339 20 9.4 20H14.6C15.7366 20 16.5289 19.9992 17.1458 19.9488C17.7509 19.8994 18.0986 19.8072 18.362 19.673C18.9265 19.3854 19.3854 18.9264 19.673 18.3619C19.8072 18.0986 19.8994 17.7509 19.9488 17.1457C19.9992 16.5289 20 15.7366 20 14.6V13V12.4C20 11.2634 19.9992 10.4711 19.9488 9.85421C19.8994 9.24904 19.8072 8.90135 19.673 8.638C19.3854 8.07351 18.9265 7.61457 18.362 7.32695C18.0986 7.19276 17.7509 7.10059 17.1458 7.05114C16.5289 7.00075 15.7366 6.99997 14.6 6.99997H9.4C8.26339 6.99997 7.47108 7.00075 6.85424 7.05114C6.24907 7.10059 5.90138 7.19276 5.63802 7.32695C5.07354 7.61457 4.6146 8.07351 4.32698 8.638C4.19279 8.90135 4.10062 9.24904 4.05117 9.85421C4.00077 10.4711 4 11.2634 4 12.4ZM8.29289 15.2071C8.68341 15.5976 9.31658 15.5976 9.7071 15.2071L12 12.9142L14.2929 15.2071C14.6834 15.5976 15.3166 15.5976 15.7071 15.2071C16.0976 14.8166 16.0976 14.1834 15.7071 13.7929L12.7071 10.7929C12.3166 10.4023 11.6834 10.4023 11.2929 10.7929L8.29289 13.7929C7.90236 14.1834 7.90236 14.8166 8.29289 15.2071Z" fill="black"/>
</svg>
