<svg width="24" height="24" viewBox="0 0 24 24" fill="none" xmlns="http://www.w3.org/2000/svg">
<path d="M12.0003 10.9445C12.7964 10.9445 13.5221 10.7494 14.1774 10.3591C14.8328 9.96881 15.356 9.44324 15.7471 8.78236C16.1381 8.12148 16.3337 7.37899 16.3337 6.55489C16.3337 5.76043 16.1363 5.03991 15.7414 4.39331C15.3466 3.74672 14.8207 3.23249 14.1637 2.85063C13.5068 2.46876 12.7856 2.27783 12.0003 2.27783C11.215 2.27783 10.4939 2.47076 9.83699 2.85661C9.18008 3.24247 8.65418 3.76039 8.25931 4.41038C7.86443 5.06036 7.66699 5.78065 7.66699 6.57122C7.67027 7.38444 7.86744 8.12148 8.25852 8.78236C8.64959 9.44324 9.17387 9.96881 9.83138 10.3591C10.4889 10.7494 11.2119 10.9445 12.0003 10.9445Z" fill="black"/>
<path d="M15.1638 13.207C15.1325 13.235 15.1018 13.2641 15.0717 13.2942C14.1756 14.1903 14.1756 15.643 15.0717 16.5391L16.3382 17.8056L15.0718 19.072C14.6237 19.52 14.3997 20.1072 14.3997 20.6944H5.69999C4.81551 20.6944 4.1999 20.5549 3.85314 20.2757C3.50639 19.9966 3.33301 19.602 3.33301 19.092C3.33301 18.4239 3.53465 17.7212 3.93795 16.9838C4.34124 16.2464 4.92235 15.5576 5.68128 14.9174C6.44021 14.2772 7.35222 13.7559 8.41733 13.3535C9.48244 12.9512 10.6768 12.75 12.0004 12.75C13.1522 12.75 14.2066 12.9023 15.1638 13.207Z" fill="black"/>
<path d="M23.0609 14.3282C23.3859 14.6533 23.3859 15.1802 23.0609 15.5052L20.7607 17.8053L23.0614 20.1059C23.3864 20.431 23.3864 20.9579 23.0614 21.2829C22.7363 21.608 22.2094 21.608 21.8844 21.2829L19.5837 18.9823L17.2831 21.2829C16.958 21.608 16.4311 21.608 16.1061 21.2829C15.781 20.9579 15.7811 20.431 16.1061 20.1059L18.4067 17.8053L16.1066 15.5052C15.7815 15.1802 15.7815 14.6533 16.1066 14.3282C16.4316 14.0032 16.9585 14.0032 17.2836 14.3282L19.5837 16.6284L21.8839 14.3282C22.2089 14.0032 22.7359 14.0032 23.0609 14.3282Z" fill="black"/>
</svg>
