<svg width="24" height="24" viewBox="0 0 24 24" fill="none" xmlns="http://www.w3.org/2000/svg">
<path fill-rule="evenodd" clip-rule="evenodd" d="M9.70711 4.70711C10.0976 4.31658 10.0976 3.68342 9.70711 3.29289C9.31658 2.90237 8.68342 2.90237 8.29289 3.29289L4.29289 7.29289C3.90237 7.68342 3.90237 8.31658 4.29289 8.70711L8.29289 12.7071C8.68342 13.0976 9.31658 13.0976 9.70711 12.7071C10.0976 12.3166 10.0976 11.6834 9.70711 11.2929L7.41421 9H14C16.2091 9 18 10.7909 18 13C18 15.2091 16.2091 17 14 17H8C7.44772 17 7 17.4477 7 18C7 18.5523 7.44772 19 8 19H14C17.3137 19 20 16.3137 20 13C20 9.68629 17.3137 7 14 7H7.41421L9.70711 4.70711Z" fill="white"/>
</svg>
