<svg width="12" height="14" viewBox="0 0 12 14" fill="none" xmlns="http://www.w3.org/2000/svg">
<path d="M11 8.99996H1C0.447715 8.99996 0 9.44768 0 9.99996V13C0 13.5522 0.447715 14 1 14H11C11.5523 14 12 13.5522 12 13V9.99996C12 9.44768 11.5523 8.99996 11 8.99996Z" fill="black"/>
<path fill-rule="evenodd" clip-rule="evenodd" d="M7.5 6.33496H8.1325C8.8699 6.33496 9.57438 6.6405 10.0783 7.17889L11.2855 8.46883C11.7476 8.96257 12.0048 9.61355 12.0048 10.2899V11H10.6748V10.2899C10.6748 9.95114 10.546 9.62502 10.3145 9.37763L9.10729 8.08775C9.10728 8.08774 9.1073 8.08776 9.10729 8.08775C8.85483 7.81804 8.50188 7.66496 8.1325 7.66496H7.5V6.33496Z" fill="black"/>
<path fill-rule="evenodd" clip-rule="evenodd" d="M4.50488 6.32996H3.87238C3.13498 6.32996 2.43051 6.6355 1.92658 7.17389L0.719348 8.46383C0.257268 8.95757 8.29697e-05 9.60855 8.29697e-05 10.2849V10.995H1.33008V10.2849C1.33008 9.94614 1.4589 9.62002 1.69042 9.37263L2.89759 8.08275C2.8976 8.08274 2.89758 8.08276 2.89759 8.08275C3.15006 7.81304 3.503 7.65996 3.87238 7.65996H4.50488V6.32996Z" fill="black"/>
<path fill-rule="evenodd" clip-rule="evenodd" d="M6 1.33496C6.36727 1.33496 6.665 1.63269 6.665 1.99996V7.49996C6.665 7.86723 6.36727 8.16496 6 8.16496C5.63273 8.16496 5.335 7.86723 5.335 7.49996V1.99996C5.335 1.63269 5.63273 1.33496 6 1.33496Z" fill="black"/>
<path fill-rule="evenodd" clip-rule="evenodd" d="M5.52977 0.529735C5.78947 0.270036 6.21053 0.270036 6.47023 0.529735L8.97023 3.02973C9.22993 3.28943 9.22993 3.71049 8.97023 3.97019C8.71053 4.22989 8.28947 4.22989 8.02977 3.97019L6 1.94041L3.97023 3.97019C3.71053 4.22989 3.28947 4.22989 3.02977 3.97019C2.77008 3.71049 2.77008 3.28943 3.02977 3.02973L5.52977 0.529735Z" fill="black"/>
</svg>
