<svg width="24" height="24" viewBox="0 0 24 24" fill="none" xmlns="http://www.w3.org/2000/svg">
<path fill-rule="evenodd" clip-rule="evenodd" d="M8.55051 2H8.5195H8.51949H8.51948H8.51945C8.06985 1.99999 7.68835 1.99999 7.39077 2.01745C7.11616 2.03356 6.74468 2.06886 6.41792 2.24022C5.77458 2.5776 5.37274 3.20724 5.30357 3.88936L3.70711 2.29289C3.31658 1.90237 2.68342 1.90237 2.29289 2.29289C1.90237 2.68342 1.90237 3.31658 2.29289 3.70711L20.2929 21.7071C20.6834 22.0976 21.3166 22.0976 21.7071 21.7071C22.0976 21.3166 22.0976 20.6834 21.7071 20.2929L18.2926 16.8784C18.4626 16.8379 18.6291 16.7804 18.7822 16.6973C19.9283 16.0754 20.4039 14.6771 19.8747 13.4853C19.6971 13.0856 19.354 12.762 19.0542 12.503C18.7299 12.2229 18.2865 11.8818 17.7417 11.4628L17.7158 11.4429L17.036 10.9199C16.7507 10.7004 16.6958 10.6546 16.6541 10.6104C16.545 10.4949 16.465 10.355 16.4207 10.2024C16.4037 10.144 16.392 10.0736 16.3473 9.71641L16.0836 7.60672C16.07 7.49797 16.0633 7.44283 16.0598 7.40249L16.0594 7.39865L16.0622 7.39599C16.0915 7.36798 16.1329 7.33096 16.2148 7.25815L17.137 6.43842L17.1602 6.41779C17.4962 6.1191 17.7814 5.86564 17.9922 5.65489C18.1867 5.46041 18.4409 5.18723 18.5713 4.84206C18.9463 3.84942 18.5218 2.73303 17.5821 2.24022C17.2553 2.06886 16.8838 2.03356 16.6092 2.01745C16.3117 1.99999 15.9302 1.99999 15.4806 2H15.4805H15.4805H15.4495H8.55051ZM16.4136 14.9994C16.8379 14.998 17.1629 14.9935 17.4194 14.9789C17.6847 14.9638 17.7994 14.9398 17.8327 14.9329C17.8392 14.9315 17.8426 14.9308 17.8434 14.9309C18.0567 14.8056 18.1462 14.5425 18.0536 14.3131C18.0528 14.3127 18.0506 14.31 18.0463 14.305C18.0241 14.2792 17.9478 14.1902 17.7468 14.0165C17.4709 13.7782 17.0732 13.4718 16.4964 13.0281L15.8165 12.5051L15.7722 12.471L15.7721 12.471C15.5555 12.3046 15.365 12.1582 15.2002 11.9838C14.8729 11.6373 14.6328 11.2178 14.4999 10.76C14.4331 10.5296 14.4034 10.2911 14.3697 10.02L14.3628 9.96448L14.0991 7.85479L14.0937 7.812V7.81199C14.0736 7.65465 14.0486 7.45763 14.0623 7.25935C14.0894 6.87014 14.2297 6.49733 14.4659 6.18684C14.5863 6.02867 14.735 5.89705 14.8538 5.79194L14.8861 5.76333L15.8083 4.9436C16.1738 4.6187 16.4141 4.40454 16.5782 4.24048C16.647 4.1717 16.6863 4.12686 16.7068 4.10236C16.7074 4.07629 16.6977 4.05089 16.68 4.03181C16.6484 4.0271 16.5892 4.01971 16.4921 4.01401C16.2604 4.00042 15.9385 4 15.4495 4H8.55051C8.06147 4 7.73958 4.00042 7.50793 4.01401C7.41082 4.01971 7.35163 4.0271 7.32005 4.03181C7.30228 4.05089 7.29262 4.07629 7.29323 4.10236C7.31371 4.12686 7.35303 4.1717 7.42183 4.24048C7.58594 4.40454 7.82624 4.6187 8.19175 4.9436L9.11394 5.76333L9.14623 5.79194C9.26501 5.89705 9.41374 6.02867 9.5341 6.18684C9.77035 6.49733 9.91064 6.87014 9.93767 7.25935C9.95144 7.45763 9.92637 7.65465 9.90635 7.812L9.90094 7.85479L9.83072 8.41651L16.4136 14.9994ZM7.34591 10.6104C7.41863 10.5334 7.47843 10.4456 7.52334 10.3504L8.96561 11.7927C8.91316 11.8586 8.85784 11.9223 8.79978 11.9838C8.63503 12.1582 8.44444 12.3046 8.22783 12.471L8.18347 12.5051L7.50358 13.0281C6.92682 13.4718 6.52914 13.7782 6.25323 14.0165C6.0522 14.1902 5.97587 14.2792 5.95373 14.305C5.94942 14.31 5.94716 14.3127 5.94644 14.3131C5.85384 14.5425 5.94333 14.8056 6.15658 14.9309C6.15739 14.9308 6.16079 14.9315 6.16727 14.9329C6.20057 14.9398 6.31534 14.9638 6.58056 14.9789C6.94458 14.9996 7.4466 15 8.17426 15H11.9986L12 15L12.0014 15H12.1729L14.1729 17H13V22C13 22.5523 12.5523 23 12 23C11.4477 23 11 22.5523 11 22V17H8.17426H8.14171H8.14162H8.14161H8.1416C7.45432 17 6.89487 17 6.46704 16.9757C6.07156 16.9532 5.60229 16.906 5.21781 16.6973C4.07173 16.0754 3.59612 14.6771 4.12535 13.4853C4.30288 13.0856 4.64604 12.762 4.9458 12.503C5.27009 12.2229 5.71357 11.8818 6.25837 11.4627L6.25839 11.4627L6.28415 11.4429L6.96405 10.9199C7.24934 10.7004 7.30416 10.6546 7.34591 10.6104Z" fill="black"/>
</svg>
