<svg width="10" height="20" viewBox="0 0 10 20" fill="none" xmlns="http://www.w3.org/2000/svg">
<path d="M4.63423 3.9443C4.89236 3.77379 5.24387 3.80199 5.47114 4.02926L8.47114 7.02926L8.5561 7.13375C8.72661 7.39188 8.69841 7.7434 8.47114 7.97067C8.24387 8.19793 7.89236 8.22613 7.63423 8.05563L7.52974 7.97067L5.00044 5.44137L2.47114 7.97067C2.21144 8.23036 1.78943 8.23036 1.52973 7.97067C1.27004 7.71097 1.27004 7.28896 1.52973 7.02926L4.52973 4.02926L4.63423 3.9443Z" fill="black"/>
<path d="M4.63423 16.0557C4.89236 16.2262 5.24387 16.198 5.47114 15.9707L8.47114 12.9707L8.5561 12.8662C8.72661 12.6081 8.69841 12.2566 8.47114 12.0293C8.24387 11.8021 7.89236 11.7739 7.63423 11.9444L7.52974 12.0293L5.00044 14.5586L2.47114 12.0293C2.21144 11.7696 1.78943 11.7696 1.52973 12.0293C1.27004 12.289 1.27004 12.711 1.52973 12.9707L4.52973 15.9707L4.63423 16.0557Z" fill="black"/>
</svg>
