<svg xmlns="http://www.w3.org/2000/svg" width="24" height="24" viewBox="0 0 24 24">
  <g fill="none" fill-rule="evenodd">
    <polygon points="0 0 24 0 24 24 0 24"/>
    <path fill="#000" fill-rule="nonzero" d="M12,1 C18.0751322,1 23,5.92486775 23,12 C23,15.2534621 21.3575416,17.4078375 19.0415827,17.5042247 C17.5448049,17.5665187 16.2418767,16.729824 15.5433162,15.3661459 C14.6550197,16.3039294 13.3958222,16.8888889 12,16.8888889 C9.29994122,16.8888889 7.11111111,14.7000588 7.11111111,12 C7.11111111,9.29994122 9.29994122,7.11111111 12,7.11111111 C13.1311057,7.11111111 14.1724943,7.49523561 15.000833,8.14015176 L15,8 C15,7.44771525 15.4477153,7 16,7 C16.5128358,7 16.9355072,7.38604019 16.9932723,7.88337887 L17,8 L17,13 C17,14.5880914 17.9057778,15.5497641 18.9584173,15.5059546 C20.0913022,15.4588053 21,14.2668872 21,12 C21,7.02943725 16.9705627,3 12,3 C7.02943725,3 3,7.02943725 3,12 C3,16.9705627 7.02943725,21 12,21 C12.7993259,21 13.583948,20.8960375 14.3403366,20.6929627 C14.8737319,20.549757 15.4222254,20.8660682 15.5654311,21.3994635 C15.7086368,21.9328588 15.3923256,22.4813523 14.8589303,22.624558 C13.9337959,22.8729377 12.9748353,23 12,23 C5.92486775,23 1,18.0751322 1,12 C1,5.92486775 5.92486775,1 12,1 Z M12,9.11111111 C10.4045107,9.11111111 9.11111111,10.4045107 9.11111111,12 C9.11111111,13.5954893 10.4045107,14.8888889 12,14.8888889 C13.5954893,14.8888889 14.8888889,13.5954893 14.8888889,12 C14.8888889,10.4045107 13.5954893,9.11111111 12,9.11111111 Z"/>
  </g>
</svg>
