<svg width="24" height="24" viewBox="0 0 24 24" fill="none" xmlns="http://www.w3.org/2000/svg">
<path fill-rule="evenodd" clip-rule="evenodd" d="M7.8 2H7.7587H7.75868C6.95372 1.99999 6.28937 1.99998 5.74817 2.04419C5.18608 2.09012 4.66937 2.18868 4.18404 2.43597C3.43139 2.81947 2.81947 3.43139 2.43597 4.18404C2.18868 4.66937 2.09012 5.18608 2.04419 5.74817C1.99998 6.28937 1.99999 6.95372 2 7.75868V7.7587V7.8V22C2 22.4045 2.24364 22.7691 2.61732 22.9239C2.99099 23.0787 3.42111 22.9931 3.70711 22.7071L6.76985 19.6444C7.14941 19.2648 7.22849 19.1948 7.30593 19.1474C7.3954 19.0925 7.49295 19.0521 7.59498 19.0276C7.6833 19.0064 7.7887 19 8.32548 19H16.2H16.2413C17.0463 19 17.7106 19 18.2518 18.9558C18.8139 18.9099 19.3306 18.8113 19.816 18.564C20.5686 18.1805 21.1805 17.5686 21.564 16.816C21.8113 16.3306 21.9099 15.8139 21.9558 15.2518C22 14.7106 22 14.0463 22 13.2413V13.2V7.8V7.75868C22 6.95372 22 6.28936 21.9558 5.74817C21.9099 5.18608 21.8113 4.66937 21.564 4.18404C21.1805 3.43139 20.5686 2.81947 19.816 2.43597C19.3306 2.18868 18.8139 2.09012 18.2518 2.04419C17.7106 1.99998 17.0463 1.99999 16.2413 2H16.2413H16.2H7.8ZM5.09202 4.21799C5.24842 4.1383 5.47262 4.07337 5.91104 4.03755C6.36113 4.00078 6.94342 4 7.8 4H16.2C17.0566 4 17.6389 4.00078 18.089 4.03755C18.5274 4.07337 18.7516 4.1383 18.908 4.21799C19.2843 4.40973 19.5903 4.7157 19.782 5.09202C19.8617 5.24842 19.9266 5.47262 19.9624 5.91104C19.9992 6.36113 20 6.94342 20 7.8V13.2C20 14.0566 19.9992 14.6389 19.9624 15.089C19.9266 15.5274 19.8617 15.7516 19.782 15.908C19.5903 16.2843 19.2843 16.5903 18.908 16.782C18.7516 16.8617 18.5274 16.9266 18.089 16.9624C17.6389 16.9992 17.0566 17 16.2 17H8.32548L8.24218 16.9999C7.83528 16.9996 7.47654 16.9992 7.12809 17.0829C6.82198 17.1564 6.52935 17.2776 6.26093 17.4421C5.95539 17.6293 5.70196 17.8832 5.41451 18.1712L5.35564 18.2302L4 19.5858V7.8C4 6.94342 4.00078 6.36113 4.03755 5.91104C4.07337 5.47262 4.1383 5.24842 4.21799 5.09202C4.40973 4.7157 4.7157 4.40973 5.09202 4.21799ZM13 6.5C13 5.94772 12.5523 5.5 12 5.5C11.4477 5.5 11 5.94772 11 6.5V14.5C11 15.0523 11.4477 15.5 12 15.5C12.5523 15.5 13 15.0523 13 14.5V6.5ZM16 8.5C16.5523 8.5 17 8.94772 17 9.5V11.5C17 12.0523 16.5523 12.5 16 12.5C15.4477 12.5 15 12.0523 15 11.5V9.5C15 8.94772 15.4477 8.5 16 8.5ZM9 8.5C9 7.94772 8.55229 7.5 8 7.5C7.44772 7.5 7 7.94772 7 8.5V12.5C7 13.0523 7.44772 13.5 8 13.5C8.55229 13.5 9 13.0523 9 12.5V8.5Z" fill="black"/>
</svg>
