<svg width="24" height="24" viewBox="0 0 24 24" fill="none" xmlns="http://www.w3.org/2000/svg">
<path fill-rule="evenodd" clip-rule="evenodd" d="M1.70711 2.29289C1.31658 1.90237 0.683417 1.90237 0.292893 2.29289C-0.0976311 2.68342 -0.0976311 3.31658 0.292893 3.70711L18.2929 21.7071C18.6834 22.0976 19.3166 22.0976 19.7071 21.7071C20.0976 21.3166 20.0976 20.6834 19.7071 20.2929L17.7545 18.3403C18 17.5361 18 16.45 18 14.6V9.4C18 7.15979 18 6.03969 17.564 5.18404C17.1805 4.43139 16.5686 3.81947 15.816 3.43597C14.9603 3 13.8402 3 11.6 3H7.4C5.15979 3 4.03969 3 3.18404 3.43597C3.11083 3.47327 3.03896 3.51274 2.96849 3.55428L1.70711 2.29289ZM1 9.4C1 7.79054 1 6.75923 1.16167 5.98877L15.7631 20.5902C14.914 21 13.7944 21 11.6 21H7.4C5.15979 21 4.03969 21 3.18404 20.564C2.43139 20.1805 1.81947 19.5686 1.43597 18.816C1 17.9603 1 16.8402 1 14.6V9.4ZM19 10.6056V13.3944C19 13.7893 19.1169 14.1753 19.3359 14.5038L21.1679 17.2519C21.7168 18.0752 23 17.6866 23 16.6972V7.30278C23 6.31337 21.7168 5.92484 21.1679 6.74808L19.3359 9.49615C19.1169 9.82469 19 10.2107 19 10.6056Z" fill="black"/>
</svg>
