<svg width="24" height="24" viewBox="0 0 24 24" fill="none" xmlns="http://www.w3.org/2000/svg">
<path fill-rule="evenodd" clip-rule="evenodd" d="M6.80002 3.49999H6.75872H6.7587C5.95374 3.49998 5.28938 3.49997 4.74819 3.54419C4.18609 3.59011 3.66939 3.68867 3.18405 3.93597C2.43141 4.31946 1.81948 4.93138 1.43599 5.68403C1.1887 6.16937 1.09014 6.68607 1.04421 7.24817C0.999994 7.78935 1 8.4537 1.00002 9.25866V9.25869V9.29999V14.7V14.7413V14.7413C1 15.5463 0.999994 16.2106 1.04421 16.7518C1.09014 17.3139 1.1887 17.8306 1.43599 18.316C1.81948 19.0686 2.43141 19.6805 3.18405 20.064C3.66939 20.3113 4.18609 20.4099 4.74819 20.4558C5.28938 20.5 5.95373 20.5 6.75869 20.5H6.80002H12.2H12.2413C13.0463 20.5 13.7107 20.5 14.2518 20.4558C14.8139 20.4099 15.3306 20.3113 15.816 20.064C16.5686 19.6805 17.1805 19.0686 17.564 18.316C17.8113 17.8306 17.9099 17.3139 17.9558 16.7518C17.9844 16.4023 17.9945 16.0013 17.9981 15.5443L19.9535 17.4215C21.0976 18.5199 23 17.709 23 16.123V7.87697C23 6.29378 21.1003 5.47746 19.9542 6.57773L17.9981 8.45565C17.9945 7.99864 17.9844 7.59771 17.9558 7.24817C17.9099 6.68607 17.8113 6.16937 17.564 5.68403C17.1805 4.93138 16.5686 4.31946 15.816 3.93597C15.3306 3.68867 14.8139 3.59011 14.2518 3.54419C13.7107 3.49997 13.0463 3.49998 12.2413 3.49999H12.2413H12.2H6.80002ZM18 11.6505C18 11.6511 18 11.6518 18 11.6524V12.3476C18 12.3482 18 12.3489 18 12.3495C18.0005 12.6211 18.1115 12.8808 18.3075 13.0689L21 15.6538V8.34621L18.3072 10.9313C18.1114 11.1193 18.0005 11.3787 18 11.6505ZM16 11.65V9.29999C16 8.44341 15.9992 7.86112 15.9625 7.41103C15.9266 6.97261 15.8617 6.74841 15.782 6.59201C15.5903 6.21569 15.2843 5.90973 14.908 5.71798C14.7516 5.63829 14.5274 5.57336 14.089 5.53754C13.6389 5.50077 13.0566 5.49999 12.2 5.49999H6.80002C5.94344 5.49999 5.36114 5.50077 4.91106 5.53754C4.47264 5.57336 4.24844 5.63829 4.09204 5.71798C3.71571 5.90973 3.40975 6.21569 3.218 6.59201C3.13831 6.74841 3.07339 6.97261 3.03757 7.41103C3.00079 7.86112 3.00002 8.44341 3.00002 9.29999V14.7C3.00002 15.5566 3.00079 16.1389 3.03757 16.589C3.07339 17.0274 3.13831 17.2516 3.218 17.408C3.40975 17.7843 3.71571 18.0903 4.09204 18.282C4.24844 18.3617 4.47264 18.4266 4.91105 18.4624C5.36114 18.4992 5.94344 18.5 6.80002 18.5H12.2C13.0566 18.5 13.6389 18.4992 14.089 18.4624C14.5274 18.4266 14.7516 18.3617 14.908 18.282C15.2843 18.0903 15.5903 17.7843 15.782 17.408C15.8617 17.2516 15.9266 17.0274 15.9625 16.589C15.9992 16.1389 16 15.5566 16 14.7V12.3499C16 12.3492 16 12.3484 16 12.3476V11.6524C16 11.6516 16 11.6508 16 11.65Z" fill="black"/>
</svg>
