<svg width="18" height="18" viewBox="0 0 18 18" fill="none" xmlns="http://www.w3.org/2000/svg">
<path fill-rule="evenodd" clip-rule="evenodd" d="M0.327041 4.63803C6.10352e-05 5.27976 6.10352e-05 6.11984 6.10352e-05 7.8V10.2C6.10352e-05 11.8802 6.10352e-05 12.7202 0.327041 13.362C0.614662 13.9265 1.0736 14.3854 1.63809 14.673C2.27982 15 3.1199 15 4.80006 15H7.20006C8.88022 15 9.7203 15 10.362 14.673C10.9265 14.3854 11.3855 13.9265 11.6731 13.362C12.0001 12.7202 12.0001 11.8802 12.0001 10.2V7.8C12.0001 6.11984 12.0001 5.27976 11.6731 4.63803C11.3855 4.07354 10.9265 3.6146 10.362 3.32698C9.7203 3 8.88022 3 7.20006 3H4.80006C3.1199 3 2.27982 3 1.63809 3.32698C1.0736 3.6146 0.614662 4.07354 0.327041 4.63803ZM13.2318 7.52187C13.082 7.70158 13 7.92811 13 8.16205V10.2L15.5854 13.3025C16.0644 13.8773 17 13.5386 17 12.7904V5.20964C17 4.4614 16.0644 4.12268 15.5854 4.69749L13.2318 7.52187Z" fill="black"/>
</svg>
