<svg width="24" height="24" viewBox="0 0 24 24" fill="none" xmlns="http://www.w3.org/2000/svg">
<path fill-rule="evenodd" clip-rule="evenodd" d="M8 4.82992C7.35383 4.82992 6.83 5.35375 6.83 5.99992V12.5351C6.83 12.8313 6.67206 13.1051 6.4156 13.2535C5.46592 13.8029 4.83 14.8276 4.83 15.9999H11.17C11.17 14.8276 10.5341 13.8029 9.5844 13.2535C9.32793 13.1051 9.17 12.8313 9.17 12.5351V5.99992C9.17 5.35375 8.64617 4.82992 8 4.82992ZM5.17 5.99992C5.17 4.43696 6.43703 3.16992 8 3.16992C9.56296 3.16992 10.83 4.43695 10.83 5.99992V12.0855C12.0405 12.9621 12.83 14.3884 12.83 15.9999C12.83 18.6675 10.6675 20.8299 8 20.8299C5.33246 20.8299 3.17 18.6675 3.17 15.9999C3.17 14.3884 3.95955 12.9621 5.17 12.0855V5.99992ZM14 5.16992C13.5416 5.16992 13.17 5.54152 13.17 5.99992C13.17 6.45832 13.5416 6.82992 14 6.82992H20C20.4584 6.82992 20.83 6.45832 20.83 5.99992C20.83 5.54152 20.4584 5.16992 20 5.16992H14ZM14 9.16992C13.5416 9.16992 13.17 9.54152 13.17 9.99992C13.17 10.4583 13.5416 10.8299 14 10.8299H17C17.4584 10.8299 17.83 10.4583 17.83 9.99992C17.83 9.54152 17.4584 9.16992 17 9.16992H14Z" fill="white"/>
</svg>
