<svg width="24" height="24" viewBox="0 0 24 24" fill="none" xmlns="http://www.w3.org/2000/svg">
<path fill-rule="evenodd" clip-rule="evenodd" d="M10.9122 2.70028C11.6086 2.40264 12.4043 2.40264 13.1007 2.70028C13.899 3.04153 14.5105 4.05857 15.7335 6.09215L20.7023 14.3552C21.9251 16.3886 22.5366 17.4051 22.4454 18.2393C22.3657 18.9671 21.9684 19.6289 21.3517 20.059C20.6446 20.552 19.4214 20.5521 16.9757 20.5521H7.03722C4.59145 20.5521 3.36827 20.552 2.66124 20.059C2.04455 19.6289 1.64717 18.9671 1.56749 18.2393C1.47631 17.4051 2.08786 16.3885 3.31066 14.3552L8.27941 6.09215C9.50234 4.0587 10.1139 3.0416 10.9122 2.70028ZM12.0069 15.5749C11.3882 15.5751 10.8859 16.0571 10.8859 16.6512C10.886 17.2452 11.3882 17.7264 12.0069 17.7266C12.6256 17.7263 13.1269 17.2451 13.1271 16.6512C13.127 16.0572 12.6257 15.5752 12.0069 15.5749ZM12.0069 6.75309C11.512 6.75327 11.1105 7.13852 11.1105 7.61372V13.6381C11.1105 14.1133 11.5119 14.4994 12.0069 14.4996C12.5019 14.4994 12.9034 14.1133 12.9034 13.6381V7.61372C12.9034 7.13854 12.5019 6.7533 12.0069 6.75309Z" fill="white"/>
</svg>
