<svg width="24" height="24" viewBox="0 0 24 24" fill="none" xmlns="http://www.w3.org/2000/svg">
<path d="M3 4.38462C3 3.61991 3.61991 3 4.38462 3H9.92308C10.6878 3 11.3077 3.61991 11.3077 4.38462V9.92308C11.3077 10.6878 10.6878 11.3077 9.92308 11.3077H4.38462C3.61991 11.3077 3 10.6878 3 9.92308V4.38462Z" fill="white"/>
<path d="M3 14.0769C3 13.3122 3.61991 12.6923 4.38462 12.6923H9.92308C10.6878 12.6923 11.3077 13.3122 11.3077 14.0769V19.6153C11.3077 20.38 10.6878 21 9.92308 21H4.38462C3.61991 21 3 20.38 3 19.6153V14.0769Z" fill="white"/>
<path d="M12.6924 14.0769C12.6924 13.3122 13.3123 12.6923 14.077 12.6923H19.6155C20.3802 12.6923 21.0001 13.3122 21.0001 14.0769V19.6153C21.0001 20.38 20.3802 21 19.6155 21H14.077C13.3123 21 12.6924 20.38 12.6924 19.6153V14.0769Z" fill="white"/>
<path d="M12.6924 4.38462C12.6924 3.61991 13.3123 3 14.077 3H19.6155C20.3802 3 21.0001 3.61991 21.0001 4.38462V9.92308C21.0001 10.6878 20.3802 11.3077 19.6155 11.3077H14.077C13.3123 11.3077 12.6924 10.6878 12.6924 9.92308V4.38462Z" fill="white"/>
</svg>
