<svg xmlns="http://www.w3.org/2000/svg" width="24" height="24" viewBox="0 0 24 24">
  <path d="M10,3 C13.8659932,3 17,6.13400675 17,10 C17,11.5763766 16.478928,13.0310504 15.5996286,14.2011767 L15.6128994,14.2097046 L15.6128994,14.2097046 L15.7071068,14.2928932 L20.7071068,19.2928932 C21.0976311,19.6834175 21.0976311,20.3165825 20.7071068,20.7071068 C20.3466228,21.0675907 19.7793918,21.0953203 19.3871006,20.7902954 L19.2928932,20.7071068 L14.2928932,15.7071068 C14.2586889,15.6729024 14.2274804,15.6368368 14.1992676,15.5992358 C13.0310504,16.478928 11.5763766,17 10,17 C6.13400675,17 3,13.8659932 3,10 C3,6.13400675 6.13400675,3 10,3 Z M10,5 C7.23857625,5 5,7.23857625 5,10 C5,12.7614237 7.23857625,15 10,15 C12.7614237,15 15,12.7614237 15,10 C15,7.23857625 12.7614237,5 10,5 Z M10,7 C10.5128358,7 10.9355072,7.38604019 10.9932723,7.88337887 L11,8 L11,9 L12,9 C12.5522847,9 13,9.44771525 13,10 C13,10.5128358 12.6139598,10.9355072 12.1166211,10.9932723 L12,11 L11,11 L11,12 C11,12.5522847 10.5522847,13 10,13 C9.48716416,13 9.06449284,12.6139598 9.00672773,12.1166211 L9,12 L9,11 L8,11 C7.44771525,11 7,10.5522847 7,10 C7,9.48716416 7.38604019,9.06449284 7.88337887,9.00672773 L8,9 L9,9 L9,8 C9,7.44771525 9.44771525,7 10,7 Z"/>
</svg>
