<svg width="72" height="110" viewBox="0 0 72 110" fill="none" xmlns="http://www.w3.org/2000/svg">
<g clip-path="url(#clip0_1_764)">
<rect x="72" width="110" height="72" rx="10" transform="rotate(90 72 0)" fill="white"/>
<g clip-path="url(#clip1_1_764)">
<path d="M62 4C65.3137 4 68 6.68629 68 10V84H4L4 10C4 6.68629 6.68629 4 10 4L62 4Z" fill="#0999D6"/>
<path fill-rule="evenodd" clip-rule="evenodd" d="M63.45 46.2922C63.45 46.3062 63.6047 46.8828 63.5906 46.8547C63.8859 48.0359 64.0688 49.0344 64.0688 49.0203C64.2094 49.7094 64.3078 50.3281 64.3078 50.314C64.3078 50.3281 64.3922 50.8484 64.3922 50.8203C64.4625 51.3406 64.5187 51.6922 64.5187 51.6781C64.6453 52.6484 64.6734 53.0844 64.6734 53.0703C64.7297 53.6609 64.7578 54.1672 64.7578 54.1531C64.7578 54.1672 64.7859 54.5891 64.7859 54.5609C64.7859 54.575 64.8141 54.9828 64.8 54.9547C64.8 54.9687 64.8141 55.4609 64.8141 55.4328C64.8562 56.839 64.9125 58.7515 61.9453 61.7609C61.9734 61.7469 61.7625 61.9719 60.1734 63.35C62.5781 68.5109 63.2531 80.1203 62.6625 85H9.19688C8.59219 79.9937 9.32344 68.4125 11.6859 63.3359C11.6719 63.3219 10.8563 62.6469 10.8703 62.6469C10.5047 62.3234 10.1813 62.0141 10.1953 62.0281C8.60625 60.4812 7.03125 58.4422 7.03125 56.2344C7.03125 56.2203 7.03125 55.8687 7.03125 55.8969C7.03125 55.8828 7.04531 55.5172 7.04531 55.5453C7.04531 55.5312 7.05938 55.1515 7.05938 55.1797C7.05938 55.1656 7.0875 54.6734 7.0875 54.7015C7.0875 54.6875 7.11562 54.2797 7.11562 54.3078C7.11562 54.2937 7.15781 53.675 7.15781 53.689C7.15781 53.675 7.2 53.225 7.2 53.2531C7.2 53.239 7.24219 52.7891 7.24219 52.8172C7.28438 52.4516 7.34063 52.0015 7.34063 52.0156C7.34063 52.0015 7.41094 51.5094 7.39687 51.5375C7.49531 50.8062 7.60781 50.1734 7.60781 50.1875C7.60781 50.1734 7.74844 49.4141 7.74844 49.4281C8.19844 47.0094 8.83125 44.9703 8.83125 44.9844C8.90156 44.7312 8.91562 44.689 9.01406 44.2953C12.7969 30.9219 25.7344 15.1719 30.0938 16.1562C31.2188 16.4094 32.3297 17.7594 33.3422 19.7562C33.9609 21.0219 34.3266 22.0062 34.3125 21.9922C34.3125 22.0062 34.4953 22.4703 34.4812 22.4422C34.6219 22.8078 34.7063 23.075 34.8469 23.4828C37.3219 23.4547 36.8859 23.4828 37.1109 23.4828C37.6031 22.0344 37.9406 21.2469 37.9266 21.2609C38.6156 19.5875 40.0781 16.564 41.85 16.1562C46.35 15.1437 60.2016 32.0047 63.45 46.2922Z" fill="white"/>
<path d="M31.3031 24.0172C31.0359 23.6656 30.7687 23.3281 30.5015 23.0469C29.8125 22.3016 29.1375 21.8375 28.6172 21.8797C28.0406 21.9219 27.3234 22.6953 26.6203 23.8906C26.3672 24.3125 26.1281 24.7906 25.889 25.3109" stroke="#CABCB4" stroke-width="2.53125" stroke-linecap="round"/>
<path d="M17.9718 66.1766C24.7077 69.8469 32.7656 71.9281 36.014 71.9281C39.2624 71.9281 47.278 69.8328 53.9718 66.1625" stroke="#CABCB4" stroke-width="2.53125" stroke-linecap="round"/>
<path fill-rule="evenodd" clip-rule="evenodd" d="M35.1281 50.6656C36.1687 52.1281 38.0812 53.1547 40.3312 53.2812V53.5625V53.9141C40.3312 57.9078 39.15 61.1422 35.9578 61.1422C32.8078 61.1422 31.6125 57.9641 31.5844 54.0266V53.9V53.5484C31.5844 53.3656 31.5844 53.1828 31.5844 53C33.1031 52.5922 34.3547 51.7625 35.1281 50.6656Z" fill="#F23C57"/>
<path d="M23.0343 47.9094C23.4843 49.8781 24.6093 51.65 26.2687 52.7469C29.5874 54.9406 33.8484 53.6187 35.7749 49.8078" stroke="black" stroke-width="2.53125" stroke-linecap="round"/>
<path d="M48.2202 47.9094C47.7702 49.8781 46.6452 51.65 44.9859 52.7469C41.6671 54.9406 37.4062 53.6187 35.4796 49.8078" stroke="black" stroke-width="2.53125" stroke-linecap="round"/>
<path fill-rule="evenodd" clip-rule="evenodd" d="M35.7328 50.7078C37.6734 50.7078 40.3875 47.8672 40.3875 45.4625C40.3875 43.0578 38.7 42.8047 35.6625 42.8047C32.625 42.8047 30.9375 43.0578 30.9375 45.4625C30.9375 47.8672 33.7922 50.7078 35.7328 50.7078Z" fill="black"/>
<path fill-rule="evenodd" clip-rule="evenodd" d="M26.6343 36.9125C24.6937 37.4328 23.6109 39.6828 23.864 40.625C24.1171 41.5672 25.9734 42.2 27.914 41.6797C29.8547 41.1594 31.1203 39.5703 30.8953 38.7406C30.6703 37.8969 28.575 36.3922 26.6343 36.9125Z" fill="black"/>
<path fill-rule="evenodd" clip-rule="evenodd" d="M45.3374 36.9125C47.2781 37.4328 48.3609 39.6828 48.1077 40.625C47.8546 41.5672 45.9984 42.2 44.0577 41.6797C42.1171 41.1594 40.8515 39.5703 41.0765 38.7406C41.3015 37.9109 43.3827 36.3922 45.3374 36.9125Z" fill="black"/>
<path d="M40.486 24.0172C40.7531 23.6656 41.0203 23.3281 41.2875 23.0469C41.9766 22.3016 42.6516 21.8375 43.1719 21.8797C43.7485 21.9219 44.4657 22.6953 45.1688 23.8906C45.4219 24.3125 45.661 24.7906 45.9 25.3109" stroke="#CABCB4" stroke-width="2.53125" stroke-linecap="round"/>
<path d="M27.0335 39.3932C27.5827 38.844 27.7608 38.1317 27.4313 37.8022C27.1018 37.4727 26.3895 37.6508 25.8403 38.1999C25.2911 38.7491 25.1131 39.4614 25.4426 39.7909C25.7721 40.1204 26.4844 39.9423 27.0335 39.3932Z" fill="white"/>
<path d="M43.9114 39.505C44.5628 39.082 44.8851 38.4223 44.6313 38.0315C44.3776 37.6407 43.6438 37.6667 42.9924 38.0897C42.341 38.5126 42.0187 39.1724 42.2725 39.5632C42.5263 39.954 43.26 39.928 43.9114 39.505Z" fill="white"/>
</g>
<g clip-path="url(#clip2_1_764)">
<path d="M68 86V100C68 103.314 65.3137 106 62 106H48V86H68Z" fill="#D23939"/>
<path d="M68 86V100C68 103.314 65.3137 106 62 106H48V86H68Z" fill="#D23939"/>
<path d="M68 86V100C68 103.314 65.3137 106 62 106H48V86H68Z" fill="#D23939"/>
<g clip-path="url(#clip3_1_764)">
<path d="M68 86H48V106H68V86Z" fill="#FBC93C"/>
<path d="M68 86H48V106H68V86Z" fill="#FBC93C"/>
<path fill-rule="evenodd" clip-rule="evenodd" d="M58.3984 89.5156C62.4695 89.5156 64.6227 92.2722 64.8148 95.324C65.0014 98.2888 64.8364 102.561 63.7739 106H52.9494C52.1904 103.278 51.9071 100.019 51.9172 97.3121L51.8483 97.2721L51.7792 97.2322L51.7098 97.1926L51.5709 97.1137L51.363 96.9959L51.2599 96.9371L51.1916 96.8978L51.0901 96.8388L51.0232 96.7994L50.9741 96.7701L50.9254 96.7407L50.8771 96.7113C50.8691 96.7064 50.8611 96.7015 50.8531 96.6965L50.8056 96.6669L50.7585 96.6372C50.7507 96.6323 50.743 96.6273 50.7352 96.6223L50.689 96.5924C50.6813 96.5874 50.6737 96.5824 50.6661 96.5774L50.6208 96.5473C50.6133 96.5422 50.6058 96.5372 50.5984 96.5321L50.554 96.5017C49.9673 96.0954 49.5639 95.6416 49.6841 95.0238C49.9189 93.8159 50.8838 93.6195 52.2588 93.7739C52.9788 91.3988 55.0343 89.5156 58.3984 89.5156Z" fill="#4CBFEA"/>
<path fill-rule="evenodd" clip-rule="evenodd" d="M49.6732 95.3837C50.5773 95.3897 51.4892 95.5653 52.3446 95.8L52.4411 95.8268C52.5214 95.8493 52.6012 95.8723 52.6804 95.8958L52.7751 95.9241L52.8693 95.9527L52.9628 95.9817C52.9939 95.9913 53.0249 96.0011 53.0558 96.0109L53.1481 96.0403C53.1634 96.0453 53.1787 96.0502 53.194 96.0551L53.2853 96.0849L53.3759 96.1148L53.4658 96.1448L53.6001 96.1902C53.6668 96.213 53.7329 96.2357 53.7983 96.2584L53.9282 96.3038L54.0561 96.3488L54.2442 96.4157L54.7221 96.5868L54.8918 96.647L55.0351 96.6972L55.1659 96.7423L55.2614 96.7746L55.3545 96.8055L55.4153 96.8253L55.475 96.8444C55.4849 96.8475 55.4947 96.8506 55.5044 96.8536L55.5625 96.8716C55.5721 96.8745 55.5816 96.8774 55.5911 96.8803L55.6474 96.8971C55.666 96.9025 55.6844 96.9078 55.7027 96.913L55.7567 96.9282C55.8814 96.9625 55.9965 96.9896 56.1011 97.0081C56.9522 97.1581 57.5444 96.9883 57.8776 96.4987L57.8822 96.8052L57.8865 97.1083L57.8904 97.408L57.8954 97.8513L57.8983 98.1425L57.9007 98.4304L57.9027 98.7149L57.9036 98.8559L57.905 99.1353L57.9056 99.2738L57.9064 99.5481L57.9068 99.8191V99.9533L57.9065 100.219L57.9059 100.482L57.9048 100.741L57.9034 100.997L57.9015 101.249L57.8992 101.498L57.8965 101.744L57.8934 101.986L57.889 102.284L57.8839 102.577L57.8793 102.807L57.8769 102.921L57.8717 103.146L57.869 103.258L57.8632 103.478L57.857 103.695L57.8538 103.802L57.847 104.014L57.8434 104.118L57.836 104.325L57.8303 104.475L57.8244 104.622L57.8151 104.841L57.8086 104.984L57.8019 105.125L57.795 105.265L57.7878 105.403L57.7805 105.539L57.7729 105.673L57.7651 105.805L57.757 105.935C57.7557 105.957 57.7543 105.979 57.7529 106H52.9494C52.1904 103.278 51.9071 100.019 51.9172 97.3121L51.8483 97.2721L51.7792 97.2322L51.7099 97.1926L51.5709 97.1136L51.363 96.9959L51.2599 96.937L51.1916 96.8978L51.0901 96.8388L51.0022 96.7869L50.9604 96.7619L50.8983 96.7243L50.8573 96.6991L50.8167 96.6739L50.7764 96.6485L50.7365 96.6231L50.697 96.5976L50.658 96.572L50.6002 96.5333L50.5436 96.4944L50.4972 96.4618L50.4517 96.4289L50.4337 96.4157L50.3982 96.3892L50.3633 96.3625C50.3459 96.3491 50.3289 96.3356 50.312 96.3221L50.2786 96.295L50.2622 96.2813L50.2298 96.2539C50.2191 96.2448 50.2085 96.2356 50.1981 96.2263L50.1671 96.1986C49.9016 95.9568 49.7176 95.6918 49.6732 95.3837Z" fill="white"/>
<path d="M60.844 95.7095C61.0659 94.8197 60.5243 93.9186 59.6341 93.6967C58.744 93.4749 57.8425 94.0163 57.6206 94.9061" stroke="black" stroke-width="0.703125" stroke-linecap="round"/>
<path d="M49.971 95.2754C53.0314 95.6503 54.9992 96.7373 56.2786 96.9629C57.1315 97.1132 57.5703 96.9164 57.595 96.3724" stroke="#1683AC" stroke-width="0.703125" stroke-linecap="round"/>
<path d="M60.5391 98.6562L62.2188 99.75V104.164C60.1094 103.721 59.0547 101.885 59.0547 98.6562" stroke="#1683AC" stroke-width="0.703125" stroke-linecap="round" stroke-linejoin="round"/>
<path d="M63.6655 94.5522C63.606 94.311 63.5228 94.0659 63.4164 93.8213C63.1899 93.3 62.8586 92.7803 62.4281 92.3023C61.9977 91.8242 61.5155 91.4404 61.0208 91.1606C60.7885 91.0293 60.5535 90.9209 60.3199 90.8365" stroke="white" stroke-width="0.703125" stroke-linecap="round"/>
</g>
</g>
<g clip-path="url(#clip4_1_764)">
<rect width="20" height="20" transform="matrix(0 1 -1 0 46 86)" fill="#D23939"/>
<rect width="20" height="20" transform="matrix(0 1 -1 0 46 86)" fill="#D23939"/>
<rect width="20" height="20" transform="matrix(0 1 -1 0 46 86)" fill="#D23939"/>
<g clip-path="url(#clip5_1_764)">
<path d="M46 86H26V106H46V86Z" fill="#FD57A4"/>
<path fill-rule="evenodd" clip-rule="evenodd" d="M35.9805 89.3594C39.7227 89.3594 42.7578 92.375 42.7578 96.0977C42.7578 97.6953 42.1992 99.1641 41.2656 100.316C42.3516 101.547 42.8359 103.234 42.8359 105.102C42.8359 105.406 42.8164 105.707 42.7773 106H29.1836C29.1445 105.707 29.125 105.406 29.125 105.102C29.125 103.234 29.6094 101.547 30.6953 100.316C29.7617 99.1641 29.2031 97.6953 29.2031 96.0977C29.2031 92.375 32.2383 89.3594 35.9805 89.3594Z" fill="#FFE934"/>
<path d="M31.7578 100.902C32.1289 101.145 32.5273 101.355 32.957 101.531C33.8672 101.902 34.8945 102.113 35.9805 102.113C37.0664 102.113 38.0937 101.902 39.0039 101.531C39.4297 101.355 39.832 101.145 40.2031 100.902" stroke="#FF9000" stroke-width="0.703125" stroke-linecap="round"/>
<path d="M33.2852 96.8594C33.8569 96.8594 34.3203 96.3172 34.3203 95.6484C34.3203 94.9797 33.8569 94.4375 33.2852 94.4375C32.7135 94.4375 32.25 94.9797 32.25 95.6484C32.25 96.3172 32.7135 96.8594 33.2852 96.8594Z" fill="black"/>
<path d="M33.0508 95.8438C33.2773 95.8438 33.4609 95.6251 33.4609 95.3555C33.4609 95.0858 33.2773 94.8672 33.0508 94.8672C32.8243 94.8672 32.6406 95.0858 32.6406 95.3555C32.6406 95.6251 32.8243 95.8438 33.0508 95.8438Z" fill="white"/>
<path d="M38.6758 96.8594C39.2475 96.8594 39.7109 96.3172 39.7109 95.6484C39.7109 94.9797 39.2475 94.4375 38.6758 94.4375C38.1041 94.4375 37.6406 94.9797 37.6406 95.6484C37.6406 96.3172 38.1041 96.8594 38.6758 96.8594Z" fill="black"/>
<path fill-rule="evenodd" clip-rule="evenodd" d="M36.0195 96.1953C36.6016 96.1953 36.8711 96.4375 37.0938 96.6875L37.1211 96.7187L37.2109 96.8242L37.2383 96.8555L37.2656 96.8828C37.4297 97.0664 37.6055 97.2109 37.918 97.2109C38.9453 97.2109 39.4297 97.5273 39.4414 98.168V98.1875V98.2187C39.4023 99.2773 37.5508 99.8906 36.0508 99.9062H36.0039H35.9844H35.9648C34.457 99.9062 32.5664 99.2891 32.5273 98.2187V98.1875C32.5273 97.5312 33.0156 97.2109 34.0508 97.2109C34.3477 97.2109 34.5195 97.0781 34.6758 96.9102L34.7031 96.8828L34.7305 96.8555L34.7578 96.8242L34.8477 96.7187C34.8516 96.7148 34.8555 96.707 34.8594 96.7031L34.8867 96.6719C35.1055 96.4297 35.375 96.1953 35.9453 96.1953C35.957 96.1953 35.9727 96.1953 35.9844 96.1953C35.9922 96.1953 36.0078 96.1953 36.0195 96.1953Z" fill="#FF4B00"/>
<path d="M33.6172 98.2266C34.2383 98.5117 35.0313 98.6562 36 98.6562C36.9687 98.6562 37.7617 98.5117 38.3828 98.2266" stroke="#921000" stroke-width="0.703125" stroke-linecap="round"/>
<path d="M38.4023 95.8438C38.6289 95.8438 38.8125 95.6251 38.8125 95.3555C38.8125 95.0858 38.6289 94.8672 38.4023 94.8672C38.1758 94.8672 37.9922 95.0858 37.9922 95.3555C37.9922 95.6251 38.1758 95.8438 38.4023 95.8438Z" fill="white"/>
</g>
</g>
<g clip-path="url(#clip6_1_764)">
<path d="M24 86V106H10C6.68629 106 4 103.314 4 100V86H24Z" fill="#D23939"/>
<path d="M24 86V106H10C6.68629 106 4 103.314 4 100V86H24Z" fill="#D23939"/>
<path d="M24 86V106H10C6.68629 106 4 103.314 4 100V86H24Z" fill="#D23939"/>
<g clip-path="url(#clip7_1_764)">
<path d="M24 86H4V106H24V86Z" fill="#42CD7C"/>
<path d="M24 86H4V106H24V86Z" fill="#42CD7C"/>
<path fill-rule="evenodd" clip-rule="evenodd" d="M14 86.6641C15.8527 86.6641 18.3333 88.8429 19.4513 91.395C20.8157 94.5096 21.6562 98.9616 21.6562 99.9062C21.6562 100.306 21.3661 100.726 20.8921 101.137L20.8504 101.172C20.8433 101.178 20.8363 101.184 20.8292 101.19L20.7861 101.226C20.6774 101.315 20.5603 101.403 20.436 101.49L20.3859 101.525L20.3351 101.56L20.2835 101.595L20.2311 101.629C20.2223 101.635 20.2135 101.641 20.2047 101.646L20.1513 101.681C20.6197 102.685 20.8359 103.854 20.8359 105.102C20.8359 105.406 20.8157 105.706 20.7766 106H7.18437C7.14521 105.706 7.125 105.406 7.125 105.102C7.125 103.885 7.33077 102.743 7.77564 101.755L7.75006 101.738L7.69941 101.704C7.68264 101.693 7.66599 101.682 7.64945 101.67L7.60019 101.636C6.84227 101.106 6.34375 100.513 6.34375 99.9062C6.34375 98.8196 7.17755 94.4295 8.51788 91.3734C9.63475 88.8269 12.1473 86.6641 14 86.6641Z" fill="#112F40"/>
<path fill-rule="evenodd" clip-rule="evenodd" d="M14.0122 95.739C14.6517 95.739 15.08 95.6516 15.4354 95.5495L15.4869 95.5345L15.5374 95.5193L15.5871 95.504L15.6361 95.4887L15.7083 95.4657L15.8496 95.4203L15.9193 95.3983L15.9657 95.384C15.9734 95.3816 15.9812 95.3793 15.9889 95.3769L16.0353 95.3632L16.0819 95.3498C16.331 95.2799 16.5912 95.2303 16.928 95.2358C18.5684 95.2623 18.7478 98.9297 18.7358 100.627C18.7266 101.938 15.25 103.109 14 103.109C12.75 103.109 9.07812 101.938 9.07812 100.57L9.07834 100.45L9.07883 100.362L9.07968 100.268L9.081 100.169C9.1049 98.6153 9.3183 95.2188 11.1092 95.2188C11.3345 95.2188 11.5335 95.2539 11.7319 95.306L11.7777 95.3183L11.8236 95.3311L11.8696 95.3445L11.9158 95.3583L11.9856 95.3797L12.1039 95.417L12.2504 95.4633L12.3262 95.4867L12.3777 95.5023L12.4302 95.5178C12.4391 95.5203 12.448 95.5229 12.4569 95.5255L12.5109 95.5408C12.52 95.5433 12.5292 95.5458 12.5384 95.5484L12.5941 95.5633C12.9603 95.6599 13.4039 95.739 14.0122 95.739Z" fill="black"/>
<path fill-rule="evenodd" clip-rule="evenodd" d="M11.1092 95.2188C11.3345 95.2188 11.5335 95.2539 11.7319 95.306L11.7777 95.3183L11.8236 95.3311L11.8696 95.3445L11.9158 95.3583L11.9856 95.3797L12.1039 95.417L12.2504 95.4633L12.3262 95.4867L12.3777 95.5023L12.4302 95.5178C12.4391 95.5203 12.448 95.5229 12.4569 95.5255L12.5109 95.5408C12.52 95.5433 12.5292 95.5458 12.5384 95.5484L12.5941 95.5633C12.9603 95.6599 13.4039 95.739 14.0122 95.739C14.6517 95.739 15.08 95.6516 15.4354 95.5495L15.4869 95.5345L15.5374 95.5193L15.5871 95.504L15.6361 95.4887L15.7083 95.4657L15.8496 95.4203L15.9193 95.3983L15.9657 95.384C15.9734 95.3816 15.9812 95.3793 15.9889 95.3769L16.0353 95.3632L16.0819 95.3498C16.331 95.2799 16.5912 95.2303 16.928 95.2358C17.2955 95.2417 17.5896 95.4304 17.8247 95.7386L17.8227 95.8377L17.8193 95.984L17.8167 96.0799L17.814 96.1746L17.8095 96.3144L17.8046 96.4513L17.7992 96.5854L17.7933 96.7167L17.7892 96.8026L17.7849 96.8874L17.7803 96.9708L17.7756 97.0531L17.7706 97.1341L17.7655 97.2138L17.7601 97.2923L17.7545 97.3695L17.7488 97.4455L17.7428 97.5203L17.7367 97.5938L17.7303 97.666L17.7238 97.737L17.717 97.8068L17.71 97.8753L17.7029 97.9425L17.6955 98.0085L17.6879 98.0733L17.6802 98.1368C17.6789 98.1473 17.6775 98.1577 17.6762 98.1681L17.6681 98.2298C17.6668 98.2399 17.6654 98.2501 17.664 98.2601L17.6557 98.3199L17.6471 98.3784L17.6383 98.4357L17.6293 98.4917L17.6202 98.5465L17.6108 98.6001C17.6092 98.6089 17.6076 98.6177 17.606 98.6264L17.5963 98.678L17.5865 98.7285L17.5764 98.7776C17.5747 98.7857 17.573 98.7938 17.5713 98.8017L17.5609 98.849C17.5574 98.8646 17.5538 98.88 17.5503 98.8951L17.5395 98.9399C17.5377 98.9473 17.5359 98.9546 17.534 98.9618L17.5229 99.0048C17.5117 99.0471 17.5003 99.0875 17.4885 99.1261L17.4766 99.1641C16.7824 101.324 15.6267 101.938 14.0195 101.938C12.4123 101.938 11.2665 101.324 10.5723 99.1641L10.5601 99.1249C10.558 99.1183 10.556 99.1116 10.554 99.1048L10.5421 99.0637C10.5401 99.0567 10.5381 99.0497 10.5362 99.0426L10.5245 98.9995C10.5226 98.9922 10.5207 98.9848 10.5188 98.9774L10.5075 98.9323L10.4964 98.8859L10.4854 98.8381C10.48 98.8139 10.4747 98.7892 10.4695 98.7639L10.4591 98.7129L10.4489 98.6604L10.439 98.6067L10.4292 98.5516L10.4197 98.4952L10.4103 98.4375L10.4012 98.3785C10.3997 98.3685 10.3982 98.3585 10.3967 98.3485L10.3879 98.2874L10.3793 98.2251C10.3779 98.2146 10.3765 98.204 10.3751 98.1934L10.3668 98.129L10.3587 98.0634L10.3509 97.9964C10.3496 97.9851 10.3483 97.9737 10.347 97.9624L10.3395 97.8934C10.3382 97.8818 10.337 97.8701 10.3358 97.8584L10.3285 97.7874L10.3215 97.7151L10.3147 97.6414C10.3136 97.6291 10.3125 97.6166 10.3114 97.6041L10.3049 97.5285L10.2986 97.4516L10.2925 97.3733L10.2837 97.2534L10.2782 97.1718L10.2728 97.0889L10.2677 97.0046L10.2628 96.9191L10.258 96.8322L10.2535 96.7439L10.2492 96.6544L10.2432 96.5176L10.2394 96.4247L10.2341 96.2829L10.2293 96.1382L10.225 95.9904L10.2211 95.8397L10.2188 95.7376L10.2167 95.6341C10.2163 95.6167 10.216 95.5993 10.2157 95.5818C10.4582 95.3536 10.7524 95.2188 11.1092 95.2188Z" fill="white"/>
<path fill-rule="evenodd" clip-rule="evenodd" d="M14 101C15.1218 101 16.0312 99.8672 16.0312 99.2031C16.0312 98.0813 15.1218 97.875 14 97.875C12.8782 97.875 11.9688 98.0813 11.9688 99.2031C11.9688 99.8672 12.8782 101 14 101Z" fill="#0D222E"/>
<path d="M13.5654 100.065C13.1943 99.8615 12.9308 99.5034 12.8496 99.243" stroke="#405B7D" stroke-width="0.703125" stroke-linecap="round"/>
<path d="M14.6419 98.6261C14.8493 98.688 15.0191 98.7818 15.1211 98.878" stroke="#405B7D" stroke-width="0.703125" stroke-linecap="round"/>
<path d="M8.99097 102.591C10.862 103.611 13.1012 104.191 14.0014 104.191C14.9022 104.191 17.1311 103.61 18.991 102.589" stroke="black" stroke-width="0.703125" stroke-linecap="round"/>
<path fill-rule="evenodd" clip-rule="evenodd" d="M11.1092 95.2188C11.3345 95.2188 11.5335 95.2539 11.732 95.306L11.7778 95.3183L11.8236 95.3311L11.8696 95.3445L11.9158 95.3583L11.9856 95.3797L12.1039 95.417L12.2505 95.4633L12.3262 95.4867L12.3778 95.5023L12.4303 95.5178C12.4391 95.5203 12.448 95.5229 12.4569 95.5255L12.5109 95.5408C12.52 95.5433 12.5292 95.5458 12.5384 95.5484L12.5941 95.5633C12.9603 95.6599 13.4039 95.739 14.0122 95.739C14.6518 95.739 15.0801 95.6516 15.4354 95.5495L15.4869 95.5345L15.5374 95.5193L15.5871 95.504L15.6361 95.4887L15.7083 95.4657L15.8496 95.4203L15.9194 95.3983L15.9657 95.384C15.9735 95.3816 15.9812 95.3793 15.9889 95.3769L16.0353 95.3632L16.0819 95.3498C16.3311 95.2799 16.5912 95.2303 16.9281 95.2358C17.2955 95.2417 17.5896 95.4304 17.8247 95.7386L17.8221 95.8655L17.8191 95.9904L17.8158 96.1132L17.8121 96.2339C17.8115 96.2539 17.8108 96.2737 17.8102 96.2935L17.8061 96.4112L17.8016 96.5268L17.7968 96.6403L17.7917 96.7518C17.7908 96.7702 17.7899 96.7885 17.789 96.8067C17.6547 96.7633 17.5095 96.7393 17.3526 96.7373C16.9645 96.7326 16.6321 96.7763 16.3107 96.8377L16.2506 96.8493C16.2406 96.8513 16.2306 96.8533 16.2206 96.8553L16.1607 96.8676L16.101 96.8801L16.0412 96.8929L15.9215 96.919L15.7102 96.9657L15.6183 96.9857L15.5564 96.9989L15.494 97.012L15.4309 97.0248C15.4203 97.0269 15.4098 97.029 15.3991 97.0311L15.335 97.0436C14.9588 97.1155 14.5422 97.1715 14.027 97.1712C13.5706 97.171 13.1723 97.127 12.8101 97.0666L12.7405 97.0547C12.6943 97.0466 12.6487 97.0383 12.6037 97.0298L12.5365 97.017L12.4701 97.0039L12.4045 96.9906L12.3395 96.9772L12.2751 96.9637L12.1483 96.9365L11.8704 96.8765L11.8099 96.8636L11.7197 96.8449L11.6599 96.8328L11.6005 96.8211C11.5906 96.8192 11.5807 96.8173 11.5708 96.8155L11.5117 96.8045L11.4527 96.7939L11.3939 96.784C11.1686 96.7468 10.9456 96.7227 10.716 96.7227C10.5509 96.7227 10.3975 96.7418 10.2551 96.7777L10.25 96.6726L10.2451 96.5656L10.2406 96.4568C10.2398 96.4385 10.2391 96.4201 10.2384 96.4017L10.2343 96.2901L10.2305 96.1767L10.2269 96.0614L10.2237 95.9443L10.2207 95.8253L10.2181 95.7045C10.2172 95.664 10.2164 95.6231 10.2157 95.5819C10.4582 95.3536 10.7524 95.2188 11.1092 95.2188Z" fill="#B4C0C9"/>
</g>
</g>
</g>
<defs>
<clipPath id="clip0_1_764">
<rect x="72" width="110" height="72" rx="10" transform="rotate(90 72 0)" fill="white"/>
</clipPath>
<clipPath id="clip1_1_764">
<path d="M62 4C65.3137 4 68 6.68629 68 10V84H4L4 10C4 6.68629 6.68629 4 10 4L62 4Z" fill="white"/>
</clipPath>
<clipPath id="clip2_1_764">
<path d="M68 86V100C68 103.314 65.3137 106 62 106H48V86H68Z" fill="white"/>
</clipPath>
<clipPath id="clip3_1_764">
<rect width="20" height="20" fill="white" transform="translate(48 86)"/>
</clipPath>
<clipPath id="clip4_1_764">
<rect width="20" height="20" fill="white" transform="matrix(0 1 -1 0 46 86)"/>
</clipPath>
<clipPath id="clip5_1_764">
<rect width="20" height="20" fill="white" transform="translate(26 86)"/>
</clipPath>
<clipPath id="clip6_1_764">
<path d="M24 86V106H10C6.68629 106 4 103.314 4 100V86H24Z" fill="white"/>
</clipPath>
<clipPath id="clip7_1_764">
<rect width="20" height="20" fill="white" transform="translate(4 86)"/>
</clipPath>
</defs>
</svg>
