<svg width="110" height="72" viewBox="0 0 110 72" fill="none" xmlns="http://www.w3.org/2000/svg">
<rect width="110" height="72" rx="10" fill="white"/>
<g clip-path="url(#clip0_1_712)">
<path d="M4 10C4 6.68629 6.68629 4 10 4H84V68H10C6.68629 68 4 65.3137 4 62V10Z" fill="#0999D6"/>
<path fill-rule="evenodd" clip-rule="evenodd" d="M71.45 38.2922C71.45 38.3062 71.6047 38.8828 71.5906 38.8547C71.8859 40.0359 72.0688 41.0344 72.0688 41.0203C72.2094 41.7094 72.3078 42.3281 72.3078 42.314C72.3078 42.3281 72.3922 42.8484 72.3922 42.8203C72.4625 43.3406 72.5187 43.6922 72.5187 43.6781C72.6453 44.6484 72.6734 45.0844 72.6734 45.0703C72.7297 45.6609 72.7578 46.1672 72.7578 46.1531C72.7578 46.1672 72.7859 46.589 72.7859 46.5609C72.7859 46.575 72.8141 46.9828 72.8 46.9547C72.8 46.9687 72.8141 47.4609 72.8141 47.4328C72.8563 48.839 72.9125 50.7515 69.9453 53.7609C69.9734 53.7469 69.7625 53.9719 68.1734 55.35C70.5781 60.5109 71.2531 67.1203 70.6625 72H17.1969C16.5922 66.9937 17.3234 60.4125 19.6859 55.3359C19.6719 55.3219 18.8563 54.6469 18.8703 54.6469C18.5047 54.3234 18.1813 54.014 18.1953 54.0281C16.6062 52.4812 15.0312 50.4422 15.0312 48.2344C15.0312 48.2203 15.0312 47.8687 15.0312 47.8969C15.0312 47.8828 15.0453 47.5172 15.0453 47.5453C15.0453 47.5312 15.0594 47.1515 15.0594 47.1797C15.0594 47.1656 15.0875 46.6734 15.0875 46.7015C15.0875 46.6875 15.1156 46.2797 15.1156 46.3078C15.1156 46.2937 15.1578 45.675 15.1578 45.689C15.1578 45.675 15.2 45.225 15.2 45.2531C15.2 45.239 15.2422 44.789 15.2422 44.8172C15.2844 44.4515 15.3406 44.0015 15.3406 44.0156C15.3406 44.0015 15.4109 43.5094 15.3969 43.5375C15.4953 42.8062 15.6078 42.1734 15.6078 42.1875C15.6078 42.1734 15.7484 41.414 15.7484 41.4281C16.1984 39.0094 16.8312 36.9703 16.8312 36.9844C16.9016 36.7312 16.9156 36.689 17.0141 36.2953C20.7969 22.9219 33.7344 7.17186 38.0938 8.15623C39.2188 8.40936 40.3297 9.75936 41.3422 11.7562C41.9609 13.0219 42.3266 14.0062 42.3125 13.9922C42.3125 14.0062 42.4953 14.4703 42.4812 14.4422C42.6219 14.8078 42.7063 15.075 42.8469 15.4828C45.3219 15.4547 44.8859 15.4828 45.1109 15.4828C45.6031 14.0344 45.9406 13.2469 45.9266 13.2609C46.6156 11.5875 48.0781 8.56404 49.85 8.15623C54.35 7.14373 68.2016 24.0047 71.45 38.2922Z" fill="white"/>
<path d="M39.3031 16.0172C39.0359 15.6656 38.7687 15.3281 38.5015 15.0469C37.8125 14.3016 37.1375 13.8375 36.6172 13.8797C36.0406 13.9219 35.3234 14.6953 34.6203 15.8906C34.3672 16.3125 34.1281 16.7906 33.889 17.3109" stroke="#CABCB4" stroke-width="2.53125" stroke-linecap="round"/>
<path d="M25.9718 58.1766C32.7077 61.8469 40.7656 63.9281 44.014 63.9281C47.2624 63.9281 55.278 61.8328 61.9718 58.1625" stroke="#CABCB4" stroke-width="2.53125" stroke-linecap="round"/>
<path fill-rule="evenodd" clip-rule="evenodd" d="M43.1281 42.6656C44.1687 44.1281 46.0812 45.1547 48.3312 45.2812V45.5625V45.9141C48.3312 49.9078 47.15 53.1422 43.9578 53.1422C40.8078 53.1422 39.6125 49.9641 39.5844 46.0266V45.9V45.5484C39.5844 45.3656 39.5844 45.1828 39.5844 45C41.1031 44.5922 42.3547 43.7625 43.1281 42.6656Z" fill="#F23C57"/>
<path d="M31.0343 39.9094C31.4843 41.8781 32.6093 43.65 34.2687 44.7469C37.5874 46.9406 41.8484 45.6187 43.7749 41.8078" stroke="black" stroke-width="2.53125" stroke-linecap="round"/>
<path d="M56.2202 39.9094C55.7702 41.8781 54.6452 43.65 52.9859 44.7469C49.6671 46.9406 45.4062 45.6187 43.4796 41.8078" stroke="black" stroke-width="2.53125" stroke-linecap="round"/>
<path fill-rule="evenodd" clip-rule="evenodd" d="M43.7328 42.7078C45.6734 42.7078 48.3875 39.8672 48.3875 37.4625C48.3875 35.0578 46.7 34.8047 43.6625 34.8047C40.625 34.8047 38.9375 35.0578 38.9375 37.4625C38.9375 39.8672 41.7922 42.7078 43.7328 42.7078Z" fill="black"/>
<path fill-rule="evenodd" clip-rule="evenodd" d="M34.6343 28.9125C32.6937 29.4328 31.6109 31.6828 31.864 32.625C32.1171 33.5672 33.9734 34.2 35.914 33.6797C37.8547 33.1594 39.1203 31.5703 38.8953 30.7406C38.6703 29.8969 36.575 28.3922 34.6343 28.9125Z" fill="black"/>
<path fill-rule="evenodd" clip-rule="evenodd" d="M53.3374 28.9125C55.2781 29.4328 56.3609 31.6828 56.1077 32.625C55.8546 33.5672 53.9984 34.2 52.0577 33.6797C50.1171 33.1594 48.8515 31.5703 49.0765 30.7406C49.3015 29.9109 51.3827 28.3922 53.3374 28.9125Z" fill="black"/>
<path d="M48.486 16.0172C48.7531 15.6656 49.0203 15.3281 49.2875 15.0469C49.9766 14.3016 50.6516 13.8375 51.1719 13.8797C51.7485 13.9219 52.4657 14.6953 53.1688 15.8906C53.4219 16.3125 53.661 16.7906 53.9 17.3109" stroke="#CABCB4" stroke-width="2.53125" stroke-linecap="round"/>
<path d="M35.0335 31.3932C35.5827 30.844 35.7608 30.1317 35.4313 29.8022C35.1018 29.4727 34.3895 29.6508 33.8403 30.1999C33.2911 30.7491 33.1131 31.4614 33.4426 31.7909C33.7721 32.1204 34.4844 31.9423 35.0335 31.3932Z" fill="white"/>
<path d="M51.9114 31.505C52.5628 31.082 52.8851 30.4223 52.6313 30.0315C52.3776 29.6407 51.6438 29.6667 50.9924 30.0897C50.341 30.5126 50.0187 31.1724 50.2725 31.5632C50.5263 31.954 51.26 31.928 51.9114 31.505Z" fill="white"/>
</g>
<g clip-path="url(#clip1_1_712)">
<path d="M86 4H100C103.314 4 106 6.68629 106 10V24H86V4Z" fill="#D23939"/>
<path d="M86 4H100C103.314 4 106 6.68629 106 10V24H86V4Z" fill="#D23939"/>
<path d="M86 4H100C103.314 4 106 6.68629 106 10V24H86V4Z" fill="#D23939"/>
<g clip-path="url(#clip2_1_712)">
<path d="M106 4H86V24H106V4Z" fill="#FBC93C"/>
<path d="M106 4H86V24H106V4Z" fill="#FBC93C"/>
<path fill-rule="evenodd" clip-rule="evenodd" d="M96.3984 7.51562C100.469 7.51562 102.623 10.2722 102.815 13.324C103.001 16.2888 102.836 20.5614 101.774 24.0001H90.9494C90.1904 21.2779 89.9071 18.0187 89.9172 15.3121L89.8483 15.2721L89.7792 15.2322L89.7098 15.1926L89.5709 15.1137L89.363 14.9959L89.2599 14.9371L89.1916 14.8978L89.0901 14.8388L89.0232 14.7994L88.9741 14.7701L88.9254 14.7407L88.8771 14.7113C88.8691 14.7064 88.8611 14.7015 88.8531 14.6965L88.8056 14.6669L88.7585 14.6372C88.7507 14.6323 88.743 14.6273 88.7352 14.6223L88.689 14.5924C88.6813 14.5874 88.6737 14.5824 88.6661 14.5774L88.6208 14.5473C88.6133 14.5422 88.6058 14.5372 88.5984 14.5321L88.554 14.5017C87.9673 14.0954 87.5639 13.6416 87.6841 13.0238C87.9189 11.8159 88.8838 11.6195 90.2588 11.7739C90.9788 9.3988 93.0343 7.51562 96.3984 7.51562Z" fill="#4CBFEA"/>
<path fill-rule="evenodd" clip-rule="evenodd" d="M87.6732 13.3837C88.5773 13.3897 89.4892 13.5653 90.3446 13.8L90.4411 13.8268C90.5214 13.8493 90.6012 13.8723 90.6804 13.8958L90.7751 13.9241L90.8693 13.9527L90.9628 13.9817C90.9939 13.9913 91.0249 14.0011 91.0558 14.0109L91.1481 14.0403C91.1634 14.0453 91.1787 14.0502 91.194 14.0551L91.2853 14.0849L91.3759 14.1148L91.4658 14.1448L91.6001 14.1902C91.6668 14.213 91.7329 14.2357 91.7983 14.2584L91.9282 14.3038L92.0561 14.3488L92.2442 14.4157L92.7221 14.5868L92.8918 14.647L93.0351 14.6972L93.1659 14.7423L93.2614 14.7746L93.3545 14.8055L93.4153 14.8253L93.475 14.8444C93.4849 14.8475 93.4947 14.8506 93.5044 14.8536L93.5625 14.8716C93.5721 14.8745 93.5816 14.8774 93.5911 14.8803L93.6474 14.8971C93.666 14.9025 93.6844 14.9078 93.7027 14.913L93.7567 14.9282C93.8814 14.9625 93.9965 14.9896 94.1011 15.0081C94.9522 15.1581 95.5444 14.9883 95.8776 14.4987L95.8822 14.8052L95.8865 15.1083L95.8904 15.408L95.8954 15.8513L95.8983 16.1425L95.9007 16.4304L95.9027 16.7149L95.9036 16.8559L95.905 17.1353L95.9056 17.2738L95.9064 17.5481L95.9068 17.8191V17.9533L95.9065 18.2192L95.9059 18.4817L95.9048 18.7409L95.9034 18.9966L95.9015 19.249L95.8992 19.498L95.8965 19.7436L95.8934 19.9858L95.889 20.2838L95.8839 20.5765L95.8793 20.8069L95.8769 20.9208L95.8717 21.1462L95.869 21.2575L95.8632 21.4778L95.857 21.6946L95.8538 21.8018L95.847 22.0136L95.8434 22.1182L95.836 22.3249L95.8303 22.4745L95.8244 22.6223L95.8151 22.8406L95.8086 22.9838L95.8019 23.1253L95.795 23.2648L95.7878 23.4026L95.7805 23.5386L95.7729 23.6727L95.7651 23.805L95.757 23.9355C95.7557 23.9571 95.7543 23.9786 95.7529 24H90.9494C90.1904 21.2779 89.9071 18.0187 89.9172 15.3121L89.8483 15.2721L89.7792 15.2322L89.7099 15.1926L89.5709 15.1136L89.363 14.9959L89.2599 14.937L89.1916 14.8978L89.0901 14.8388L89.0022 14.7869L88.9604 14.7619L88.8983 14.7243L88.8573 14.6991L88.8167 14.6739L88.7764 14.6485L88.7365 14.6231L88.697 14.5976L88.658 14.572L88.6002 14.5333L88.5436 14.4944L88.4972 14.4618L88.4517 14.4289L88.4337 14.4157L88.3982 14.3892L88.3633 14.3625C88.3459 14.3491 88.3289 14.3356 88.312 14.3221L88.2786 14.295L88.2622 14.2813L88.2298 14.2539C88.2191 14.2448 88.2085 14.2356 88.1981 14.2263L88.1671 14.1986C87.9016 13.9568 87.7176 13.6918 87.6732 13.3837Z" fill="white"/>
<path d="M98.844 13.7095C99.0659 12.8197 98.5243 11.9186 97.6341 11.6967C96.744 11.4749 95.8425 12.0163 95.6206 12.9061" stroke="black" stroke-width="0.703125" stroke-linecap="round"/>
<path d="M87.971 13.2754C91.0314 13.6503 92.9992 14.7373 94.2786 14.9629C95.1315 15.1132 95.5703 14.9164 95.595 14.3724" stroke="#1683AC" stroke-width="0.703125" stroke-linecap="round"/>
<path d="M98.5391 16.6562L100.219 17.75V22.1641C98.1094 21.7214 97.0547 19.8854 97.0547 16.6562" stroke="#1683AC" stroke-width="0.703125" stroke-linecap="round" stroke-linejoin="round"/>
<path d="M101.666 12.5522C101.606 12.311 101.523 12.0659 101.416 11.8213C101.19 11.3 100.859 10.7803 100.428 10.3023C99.9977 9.82421 99.5155 9.44035 99.0208 9.16059C98.7885 9.02927 98.5535 8.92088 98.3199 8.83646" stroke="white" stroke-width="0.703125" stroke-linecap="round"/>
</g>
</g>
<g clip-path="url(#clip3_1_712)">
<rect width="20" height="20" transform="translate(86 26)" fill="#D23939"/>
<rect width="20" height="20" transform="translate(86 26)" fill="#D23939"/>
<rect width="20" height="20" transform="translate(86 26)" fill="#D23939"/>
<g clip-path="url(#clip4_1_712)">
<path d="M106 26H86V46H106V26Z" fill="#FD57A4"/>
<path fill-rule="evenodd" clip-rule="evenodd" d="M95.9805 29.3594C99.7227 29.3594 102.758 32.375 102.758 36.0977C102.758 37.6953 102.199 39.1641 101.266 40.3164C102.352 41.5469 102.836 43.2344 102.836 45.1016C102.836 45.4062 102.816 45.707 102.777 46H89.1836C89.1445 45.707 89.125 45.4062 89.125 45.1016C89.125 43.2344 89.6094 41.5469 90.6953 40.3164C89.7617 39.1641 89.2031 37.6953 89.2031 36.0977C89.2031 32.375 92.2383 29.3594 95.9805 29.3594Z" fill="#FFE934"/>
<path d="M91.7578 40.9023C92.1289 41.1445 92.5273 41.3555 92.957 41.5313C93.8672 41.9023 94.8945 42.1133 95.9805 42.1133C97.0664 42.1133 98.0937 41.9023 99.0039 41.5313C99.4297 41.3555 99.832 41.1445 100.203 40.9023" stroke="#FF9000" stroke-width="0.703125" stroke-linecap="round"/>
<path d="M93.2852 36.8594C93.8569 36.8594 94.3203 36.3172 94.3203 35.6484C94.3203 34.9797 93.8569 34.4375 93.2852 34.4375C92.7135 34.4375 92.25 34.9797 92.25 35.6484C92.25 36.3172 92.7135 36.8594 93.2852 36.8594Z" fill="black"/>
<path d="M93.0508 35.8438C93.2773 35.8438 93.4609 35.6251 93.4609 35.3555C93.4609 35.0858 93.2773 34.8672 93.0508 34.8672C92.8243 34.8672 92.6406 35.0858 92.6406 35.3555C92.6406 35.6251 92.8243 35.8438 93.0508 35.8438Z" fill="white"/>
<path d="M98.6758 36.8594C99.2475 36.8594 99.7109 36.3172 99.7109 35.6484C99.7109 34.9797 99.2475 34.4375 98.6758 34.4375C98.1041 34.4375 97.6406 34.9797 97.6406 35.6484C97.6406 36.3172 98.1041 36.8594 98.6758 36.8594Z" fill="black"/>
<path fill-rule="evenodd" clip-rule="evenodd" d="M96.0195 36.1953C96.6016 36.1953 96.8711 36.4375 97.0938 36.6875L97.1211 36.7187L97.2109 36.8242L97.2383 36.8555L97.2656 36.8828C97.4297 37.0664 97.6055 37.2109 97.918 37.2109C98.9453 37.2109 99.4297 37.5273 99.4414 38.168V38.1875V38.2187C99.4023 39.2773 97.5508 39.8906 96.0508 39.9062H96.0039H95.9844H95.9648C94.457 39.9062 92.5664 39.2891 92.5273 38.2187V38.1875C92.5273 37.5312 93.0156 37.2109 94.0508 37.2109C94.3477 37.2109 94.5195 37.0781 94.6758 36.9102L94.7031 36.8828L94.7305 36.8555L94.7578 36.8242L94.8477 36.7187C94.8516 36.7148 94.8555 36.707 94.8594 36.7031L94.8867 36.6719C95.1055 36.4297 95.375 36.1953 95.9453 36.1953C95.957 36.1953 95.9727 36.1953 95.9844 36.1953C95.9922 36.1953 96.0078 36.1953 96.0195 36.1953Z" fill="#FF4B00"/>
<path d="M93.6172 38.2266C94.2383 38.5117 95.0313 38.6562 96 38.6562C96.9687 38.6562 97.7617 38.5117 98.3828 38.2266" stroke="#921000" stroke-width="0.703125" stroke-linecap="round"/>
<path d="M98.4023 35.8438C98.6289 35.8438 98.8125 35.6251 98.8125 35.3555C98.8125 35.0858 98.6289 34.8672 98.4023 34.8672C98.1758 34.8672 97.9922 35.0858 97.9922 35.3555C97.9922 35.6251 98.1758 35.8438 98.4023 35.8438Z" fill="white"/>
</g>
</g>
<g clip-path="url(#clip5_1_712)">
<path d="M86 48H106V62C106 65.3137 103.314 68 100 68H86V48Z" fill="#D23939"/>
<path d="M86 48H106V62C106 65.3137 103.314 68 100 68H86V48Z" fill="#D23939"/>
<path d="M86 48H106V62C106 65.3137 103.314 68 100 68H86V48Z" fill="#D23939"/>
<g clip-path="url(#clip6_1_712)">
<path d="M106 48H86V68H106V48Z" fill="#42CD7C"/>
<path d="M106 48H86V68H106V48Z" fill="#42CD7C"/>
<path fill-rule="evenodd" clip-rule="evenodd" d="M96 48.6641C97.8527 48.6641 100.333 50.8429 101.451 53.395C102.816 56.5096 103.656 60.9616 103.656 61.9062C103.656 62.3058 103.366 62.7264 102.892 63.1368L102.85 63.1724C102.843 63.1784 102.836 63.1843 102.829 63.1902L102.786 63.2258C102.677 63.3146 102.56 63.4029 102.436 63.4902L102.386 63.5251L102.335 63.5599L102.283 63.5946L102.231 63.6291C102.222 63.6349 102.214 63.6406 102.205 63.6464L102.151 63.6808C102.62 64.6855 102.836 65.8543 102.836 67.1016C102.836 67.4062 102.816 67.7061 102.777 68H89.1844C89.1452 67.7061 89.125 67.4062 89.125 67.1016C89.125 65.8849 89.3308 64.7429 89.7756 63.7549L89.7501 63.7381L89.6994 63.7043C89.6826 63.6931 89.666 63.6817 89.6494 63.6704L89.6002 63.6363C88.8423 63.1058 88.3438 62.5133 88.3438 61.9062C88.3438 60.8196 89.1775 56.4295 90.5179 53.3734C91.6347 50.8269 94.1473 48.6641 96 48.6641Z" fill="#112F40"/>
<path fill-rule="evenodd" clip-rule="evenodd" d="M96.0122 57.739C96.6517 57.739 97.08 57.6516 97.4354 57.5495L97.4869 57.5345L97.5374 57.5193L97.5871 57.504L97.6361 57.4887L97.7083 57.4657L97.8496 57.4203L97.9193 57.3983L97.9657 57.384C97.9734 57.3816 97.9812 57.3793 97.9889 57.3769L98.0353 57.3632L98.0819 57.3498C98.331 57.2799 98.5912 57.2303 98.928 57.2358C100.568 57.2623 100.748 60.9297 100.736 62.6268C100.727 63.9375 97.25 65.1094 96 65.1094C94.75 65.1094 91.0781 63.9375 91.0781 62.5703L91.0783 62.4503L91.0788 62.3623L91.0797 62.2683L91.081 62.1686C91.1049 60.6153 91.3183 57.2188 93.1092 57.2188C93.3345 57.2188 93.5335 57.2539 93.7319 57.306L93.7777 57.3183L93.8236 57.3311L93.8696 57.3445L93.9158 57.3583L93.9856 57.3797L94.1039 57.417L94.2504 57.4633L94.3262 57.4867L94.3777 57.5023L94.4302 57.5178C94.4391 57.5203 94.448 57.5229 94.4569 57.5255L94.5109 57.5408C94.52 57.5433 94.5292 57.5458 94.5384 57.5484L94.5941 57.5633C94.9603 57.6599 95.4039 57.739 96.0122 57.739Z" fill="black"/>
<path fill-rule="evenodd" clip-rule="evenodd" d="M93.1092 57.2188C93.3345 57.2188 93.5335 57.2539 93.7319 57.306L93.7777 57.3183L93.8236 57.3311L93.8696 57.3445L93.9158 57.3583L93.9856 57.3797L94.1039 57.417L94.2504 57.4633L94.3262 57.4867L94.3777 57.5023L94.4302 57.5178C94.4391 57.5203 94.448 57.5229 94.4569 57.5255L94.5109 57.5408C94.52 57.5433 94.5292 57.5458 94.5384 57.5484L94.5941 57.5633C94.9603 57.6599 95.4039 57.739 96.0122 57.739C96.6517 57.739 97.08 57.6516 97.4354 57.5495L97.4869 57.5345L97.5374 57.5193L97.5871 57.504L97.6361 57.4887L97.7083 57.4657L97.8496 57.4203L97.9193 57.3983L97.9657 57.384C97.9734 57.3816 97.9812 57.3793 97.9889 57.3769L98.0353 57.3632L98.0819 57.3498C98.331 57.2799 98.5912 57.2303 98.928 57.2358C99.2955 57.2417 99.5896 57.4304 99.8247 57.7386L99.8227 57.8377L99.8193 57.984L99.8167 58.0799L99.814 58.1746L99.8095 58.3144L99.8046 58.4513L99.7992 58.5854L99.7933 58.7167L99.7892 58.8026L99.7849 58.8874L99.7803 58.9708L99.7756 59.0531L99.7706 59.1341L99.7655 59.2138L99.7601 59.2923L99.7545 59.3695L99.7488 59.4455L99.7428 59.5203L99.7367 59.5938L99.7303 59.666L99.7238 59.737L99.717 59.8068L99.71 59.8753L99.7029 59.9425L99.6955 60.0085L99.6879 60.0733L99.6802 60.1368C99.6789 60.1473 99.6775 60.1577 99.6762 60.1681L99.6681 60.2298C99.6668 60.2399 99.6654 60.2501 99.664 60.2601L99.6557 60.3199L99.6471 60.3784L99.6383 60.4357L99.6293 60.4917L99.6202 60.5465L99.6108 60.6001C99.6092 60.6089 99.6076 60.6177 99.606 60.6264L99.5963 60.678L99.5865 60.7285L99.5764 60.7776C99.5747 60.7857 99.573 60.7938 99.5713 60.8017L99.5609 60.849C99.5574 60.8646 99.5538 60.88 99.5503 60.8951L99.5395 60.9399C99.5377 60.9473 99.5359 60.9546 99.534 60.9618L99.5229 61.0048C99.5117 61.0471 99.5003 61.0875 99.4885 61.1261L99.4766 61.1641C98.7824 63.324 97.6267 63.9375 96.0195 63.9375C94.4123 63.9375 93.2665 63.324 92.5723 61.1641L92.5601 61.1249C92.558 61.1183 92.556 61.1116 92.554 61.1048L92.5421 61.0637C92.5401 61.0567 92.5381 61.0497 92.5362 61.0426L92.5245 60.9995C92.5226 60.9922 92.5207 60.9848 92.5188 60.9774L92.5075 60.9323L92.4964 60.8859L92.4854 60.8381C92.48 60.8139 92.4747 60.7892 92.4695 60.7639L92.4591 60.7129L92.4489 60.6604L92.439 60.6067L92.4292 60.5516L92.4197 60.4952L92.4103 60.4375L92.4012 60.3785C92.3997 60.3685 92.3982 60.3585 92.3967 60.3485L92.3879 60.2874L92.3793 60.2251C92.3779 60.2146 92.3765 60.204 92.3751 60.1934L92.3668 60.129L92.3587 60.0634L92.3509 59.9964C92.3496 59.9851 92.3483 59.9737 92.347 59.9624L92.3395 59.8934C92.3382 59.8818 92.337 59.8701 92.3358 59.8584L92.3285 59.7874L92.3215 59.7151L92.3147 59.6414C92.3136 59.6291 92.3125 59.6166 92.3114 59.6041L92.3049 59.5285L92.2986 59.4516L92.2925 59.3733L92.2837 59.2534L92.2782 59.1718L92.2728 59.0889L92.2677 59.0046L92.2628 58.9191L92.258 58.8322L92.2535 58.7439L92.2492 58.6544L92.2432 58.5176L92.2394 58.4247L92.2341 58.2829L92.2293 58.1382L92.225 57.9904L92.2211 57.8397L92.2188 57.7376L92.2167 57.6341C92.2163 57.6167 92.216 57.5993 92.2157 57.5818C92.4582 57.3536 92.7524 57.2188 93.1092 57.2188Z" fill="white"/>
<path fill-rule="evenodd" clip-rule="evenodd" d="M96 63C97.1218 63 98.0312 61.8672 98.0312 61.2031C98.0312 60.0813 97.1218 59.875 96 59.875C94.8782 59.875 93.9688 60.0813 93.9688 61.2031C93.9688 61.8672 94.8782 63 96 63Z" fill="#0D222E"/>
<path d="M95.5654 62.065C95.1943 61.8615 94.9308 61.5034 94.8496 61.243" stroke="#405B7D" stroke-width="0.703125" stroke-linecap="round"/>
<path d="M96.6419 60.6261C96.8493 60.688 97.0191 60.7818 97.1211 60.878" stroke="#405B7D" stroke-width="0.703125" stroke-linecap="round"/>
<path d="M90.991 64.5915C92.862 65.6109 95.1012 66.1906 96.0014 66.1906C96.9022 66.1906 99.1311 65.61 100.991 64.5891" stroke="black" stroke-width="0.703125" stroke-linecap="round"/>
<path fill-rule="evenodd" clip-rule="evenodd" d="M93.1092 57.2188C93.3345 57.2188 93.5335 57.2539 93.732 57.306L93.7778 57.3183L93.8236 57.3311L93.8696 57.3445L93.9158 57.3583L93.9856 57.3797L94.1039 57.417L94.2505 57.4633L94.3262 57.4867L94.3778 57.5023L94.4303 57.5178C94.4391 57.5203 94.448 57.5229 94.4569 57.5255L94.5109 57.5408C94.52 57.5433 94.5292 57.5458 94.5384 57.5484L94.5941 57.5633C94.9603 57.6599 95.4039 57.739 96.0122 57.739C96.6518 57.739 97.0801 57.6516 97.4354 57.5495L97.4869 57.5345L97.5374 57.5193L97.5871 57.504L97.6361 57.4887L97.7083 57.4657L97.8496 57.4203L97.9194 57.3983L97.9657 57.384C97.9735 57.3816 97.9812 57.3793 97.9889 57.3769L98.0353 57.3632L98.0819 57.3498C98.3311 57.2799 98.5912 57.2303 98.9281 57.2358C99.2955 57.2417 99.5896 57.4304 99.8247 57.7386L99.8221 57.8655L99.8191 57.9904L99.8158 58.1132L99.8121 58.2339C99.8115 58.2539 99.8108 58.2737 99.8102 58.2935L99.8061 58.4112L99.8016 58.5268L99.7968 58.6403L99.7917 58.7518C99.7908 58.7702 99.7899 58.7885 99.789 58.8067C99.6547 58.7633 99.5095 58.7393 99.3526 58.7373C98.9645 58.7326 98.6321 58.7763 98.3107 58.8377L98.2506 58.8493C98.2406 58.8513 98.2306 58.8533 98.2206 58.8553L98.1607 58.8676L98.101 58.8801L98.0412 58.8929L97.9215 58.919L97.7102 58.9657L97.6183 58.9857L97.5564 58.9989L97.494 59.012L97.4309 59.0248C97.4203 59.0269 97.4098 59.029 97.3991 59.0311L97.335 59.0436C96.9588 59.1155 96.5422 59.1715 96.027 59.1712C95.5706 59.171 95.1723 59.127 94.8101 59.0666L94.7405 59.0547C94.6943 59.0466 94.6487 59.0383 94.6037 59.0298L94.5365 59.017L94.4701 59.0039L94.4045 58.9906L94.3395 58.9772L94.2751 58.9637L94.1483 58.9365L93.8704 58.8765L93.8099 58.8636L93.7197 58.8449L93.6599 58.8328L93.6005 58.8211C93.5906 58.8192 93.5807 58.8173 93.5708 58.8155L93.5117 58.8045L93.4527 58.7939L93.3939 58.784C93.1686 58.7468 92.9456 58.7227 92.716 58.7227C92.5509 58.7227 92.3975 58.7418 92.2551 58.7777L92.25 58.6726L92.2451 58.5656L92.2406 58.4568C92.2398 58.4385 92.2391 58.4201 92.2384 58.4017L92.2343 58.2901L92.2305 58.1767L92.2269 58.0614L92.2237 57.9443L92.2207 57.8253L92.2181 57.7045C92.2172 57.664 92.2164 57.6231 92.2157 57.5819C92.4582 57.3536 92.7524 57.2188 93.1092 57.2188Z" fill="#B4C0C9"/>
</g>
</g>
<defs>
<clipPath id="clip0_1_712">
<path d="M4 10C4 6.68629 6.68629 4 10 4H84V68H10C6.68629 68 4 65.3137 4 62V10Z" fill="white"/>
</clipPath>
<clipPath id="clip1_1_712">
<path d="M86 4H100C103.314 4 106 6.68629 106 10V24H86V4Z" fill="white"/>
</clipPath>
<clipPath id="clip2_1_712">
<rect width="20" height="20" fill="white" transform="translate(86 4)"/>
</clipPath>
<clipPath id="clip3_1_712">
<rect width="20" height="20" fill="white" transform="translate(86 26)"/>
</clipPath>
<clipPath id="clip4_1_712">
<rect width="20" height="20" fill="white" transform="translate(86 26)"/>
</clipPath>
<clipPath id="clip5_1_712">
<path d="M86 48H106V62C106 65.3137 103.314 68 100 68H86V48Z" fill="white"/>
</clipPath>
<clipPath id="clip6_1_712">
<rect width="20" height="20" fill="white" transform="translate(86 48)"/>
</clipPath>
</defs>
</svg>
